<?xml version="1.0" encoding="utf-8"?>
<!-- Generator: Adobe Illustrator 17.1.0, SVG Export Plug-In . SVG Version: 6.00 Build 0)  -->
<!DOCTYPE svg PUBLIC "-//W3C//DTD SVG 1.1//EN" "http://www.w3.org/Graphics/SVG/1.1/DTD/svg11.dtd">
<svg version="1.1" id="Layer_1" xmlns="http://www.w3.org/2000/svg" xmlns:xlink="http://www.w3.org/1999/xlink" x="0px" y="0px"
	 viewBox="0 260 566.929 170" enable-background="new 0 260 566.929 170" xml:space="preserve">
<path fill="#F8FAF6" d="M547.833,410.976H30.852c-1.811,0-3.28-1.468-3.28-3.28V285.957c0-1.811,1.468-3.28,3.28-3.28h516.981
	c0.961,0,1.74,0.779,1.74,1.74v124.82C549.573,410.197,548.794,410.976,547.833,410.976z"/>
<path fill="#FFFFFF" stroke="#75B640" stroke-width="1.6" stroke-miterlimit="10" d="M202.293,386.976H64.852
	c-1.811,0-3.28-1.468-3.28-3.28v-73.441c0-1.811,1.468-3.28,3.28-3.28h137.441c1.811,0,3.28,1.468,3.28,3.28v73.441
	C205.573,385.508,204.104,386.976,202.293,386.976z"/>
<g>
	<path fill="#454746" d="M77.016,328.041v-8.628h2.279l1.792,3.162c0.512,0.909,1.024,1.984,1.408,2.957h0.038
		c-0.128-1.139-0.166-2.304-0.166-3.597v-2.522h1.792v8.628h-2.047l-1.844-3.329c-0.512-0.922-1.075-2.036-1.498-3.047l-0.038,0.013
		c0.051,1.14,0.077,2.356,0.077,3.764v2.599H77.016z"/>
	<path fill="#454746" d="M93.748,323.637c0,2.829-1.716,4.544-4.238,4.544c-2.56,0-4.058-1.933-4.058-4.391
		c0-2.586,1.651-4.519,4.199-4.519C92.301,319.272,93.748,321.256,93.748,323.637z M87.513,323.753c0,1.69,0.794,2.88,2.1,2.88
		c1.319,0,2.074-1.254,2.074-2.932c0-1.549-0.742-2.88-2.087-2.88C88.281,320.821,87.513,322.075,87.513,323.753z"/>
	<path fill="#454746" d="M95.026,319.528c0.717-0.115,1.651-0.18,2.638-0.18c1.639,0,2.701,0.295,3.533,0.922
		c0.896,0.666,1.459,1.729,1.459,3.252c0,1.651-0.602,2.791-1.434,3.495c-0.909,0.755-2.291,1.114-3.981,1.114
		c-1.011,0-1.729-0.064-2.215-0.128V319.528z M96.985,326.569c0.166,0.038,0.436,0.038,0.679,0.038
		c1.767,0.013,2.919-0.96,2.919-3.021c0.013-1.792-1.037-2.74-2.714-2.74c-0.436,0-0.718,0.039-0.884,0.077V326.569z"/>
	<path fill="#454746" d="M109.068,324.393h-3.175v2.048h3.546v1.6h-5.505v-8.628h5.326v1.6h-3.367v1.792h3.175
		C109.068,322.805,109.068,324.393,109.068,324.393z"/>
	<path fill="#454746" d="M115.532,321.448h-0.025l-1.588,0.755l-0.32-1.459l2.202-1.024h1.613v8.321h-1.882V321.448z"/>
	<path fill="#454746" d="M125.938,324.034v1.293h-3.354v-1.293H125.938z"/>
	<path fill="#454746" d="M149.977,324.739c-0.039-1.037-0.077-2.292-0.077-3.546h-0.038c-0.27,1.101-0.628,2.33-0.961,3.341
		l-1.05,3.367h-1.523l-0.921-3.341c-0.282-1.012-0.576-2.241-0.781-3.367h-0.025c-0.052,1.165-0.09,2.497-0.154,3.572l-0.153,3.277
		h-1.805l0.55-8.628h2.599l0.846,2.88c0.269,0.999,0.537,2.074,0.729,3.085h0.038c0.243-0.999,0.538-2.138,0.819-3.098l0.922-2.868
		h2.548l0.474,8.628h-1.907L149.977,324.739z"/>
	<path fill="#454746" d="M155.479,325.826l-0.614,2.215h-2.022l2.637-8.628h2.561l2.676,8.628h-2.1l-0.665-2.215H155.479z
		 M157.669,324.367l-0.538-1.831c-0.153-0.512-0.307-1.152-0.435-1.665h-0.025c-0.129,0.512-0.257,1.165-0.397,1.665l-0.512,1.831
		H157.669z"/>
	<path fill="#454746" d="M161.931,326.031c0.524,0.269,1.331,0.538,2.163,0.538c0.896,0,1.37-0.371,1.37-0.935
		c0-0.538-0.41-0.845-1.446-1.216c-1.435-0.499-2.369-1.293-2.369-2.547c0-1.473,1.229-2.599,3.265-2.599
		c0.974,0,1.69,0.205,2.202,0.436l-0.436,1.575c-0.346-0.167-0.96-0.41-1.805-0.41s-1.255,0.384-1.255,0.833
		c0,0.55,0.486,0.793,1.601,1.216c1.523,0.563,2.24,1.357,2.24,2.573c0,1.447-1.113,2.676-3.482,2.676
		c-0.985,0-1.958-0.256-2.445-0.525L161.931,326.031z"/>
	<path fill="#454746" d="M170.442,321.052h-2.316v-1.639h6.631v1.639h-2.355v6.99h-1.959v-6.99H170.442z"/>
	<path fill="#454746" d="M180.927,324.393h-3.175v2.048h3.546v1.6h-5.505v-8.628h5.326v1.6h-3.367v1.792h3.175V324.393z"/>
	<path fill="#454746" d="M182.628,319.528c0.628-0.103,1.562-0.18,2.599-0.18c1.28,0,2.177,0.192,2.791,0.679
		c0.513,0.41,0.794,1.011,0.794,1.805c0,1.101-0.781,1.856-1.523,2.125v0.039c0.602,0.243,0.935,0.819,1.152,1.613
		c0.269,0.973,0.537,2.1,0.704,2.433h-1.997c-0.141-0.243-0.346-0.947-0.602-2.01c-0.23-1.076-0.602-1.37-1.396-1.383h-0.589v3.393
		h-1.934v-8.514H182.628z M184.561,323.24h0.768c0.974,0,1.55-0.486,1.55-1.242c0-0.794-0.538-1.191-1.435-1.204
		c-0.474,0-0.742,0.039-0.883,0.064L184.561,323.24L184.561,323.24z"/>
</g>
<polygon fill="#75B640" points="135.306,317.898 136.899,321.125 140.46,321.642 137.883,324.155 138.491,327.702 135.306,326.027 
	132.12,327.702 132.729,324.155 130.152,321.642 133.713,321.125 "/>
<path fill="#75B640" d="M38.937,410.976H20.288c-1.811,0-3.28-1.468-3.28-3.28V285.957c0-1.811,1.468-3.28,3.28-3.28h18.649
	C38.937,282.677,38.937,410.976,38.937,410.976z"/>
<g>
	<path fill="#FFFFFF" d="M32.529,365.066c0.179,0.358,0.371,1.165,0.371,2.215c0,2.982-1.856,4.519-4.314,4.519
		c-2.944,0-4.583-2.1-4.583-4.711c0-1.011,0.205-1.779,0.384-2.125l1.55,0.396c-0.167,0.397-0.32,0.948-0.32,1.639
		c0,1.55,0.935,2.753,2.854,2.753c1.729,0,2.816-1.024,2.816-2.766c0-0.589-0.128-1.241-0.281-1.626L32.529,365.066z"/>
	<path fill="#FFFFFF" d="M24.143,363.787v-1.959h6.99v-3.432h1.639v5.391L24.143,363.787L24.143,363.787z"/>
	<path fill="#FFFFFF" d="M24.143,355.697h4.968c1.484,0,2.24-0.563,2.24-1.562c0-1.024-0.717-1.587-2.24-1.587h-4.968v-1.946h4.84
		c2.662,0,3.93,1.344,3.93,3.598c0,2.176-1.203,3.457-3.956,3.457h-4.813L24.143,355.697L24.143,355.697z"/>
	<path fill="#FFFFFF" d="M30.763,348.849c0.269-0.525,0.537-1.331,0.537-2.164c0-0.896-0.371-1.37-0.935-1.37
		c-0.537,0-0.845,0.41-1.216,1.447c-0.499,1.434-1.293,2.368-2.548,2.368c-1.472,0-2.599-1.229-2.599-3.265
		c0-0.973,0.205-1.689,0.436-2.202l1.574,0.435c-0.166,0.346-0.409,0.96-0.409,1.805s0.384,1.255,0.832,1.255
		c0.551,0,0.794-0.487,1.216-1.601c0.563-1.523,1.357-2.24,2.573-2.24c1.447,0,2.676,1.114,2.676,3.482
		c0,0.986-0.256,1.959-0.524,2.445L30.763,348.849z"/>
	<path fill="#FFFFFF" d="M25.782,340.337v2.317h-1.639v-6.632h1.639v2.356h6.99v1.958h-6.99V340.337z"/>
	<path fill="#FFFFFF" d="M29.124,329.853v3.175h2.048v-3.546h1.601v5.505h-8.629v-5.326h1.601v3.367h1.792v-3.175L29.124,329.853
		L29.124,329.853z"/>
	<path fill="#FFFFFF" d="M24.259,328.152c-0.103-0.627-0.179-1.562-0.179-2.599c0-1.28,0.191-2.176,0.679-2.791
		c0.409-0.512,1.011-0.793,1.805-0.793c1.101,0,1.856,0.781,2.125,1.523h0.038c0.244-0.602,0.819-0.935,1.613-1.152
		c0.974-0.269,2.1-0.538,2.433-0.704v1.997c-0.243,0.141-0.947,0.346-2.01,0.602c-1.075,0.23-1.37,0.602-1.383,1.395v0.589h3.393
		v1.933H24.259z M27.972,326.219v-0.769c0-0.973-0.486-1.549-1.242-1.549c-0.793,0-1.19,0.538-1.203,1.434
		c0,0.474,0.038,0.743,0.064,0.884L27.972,326.219L27.972,326.219z"/>
</g>
</svg>
