<?xml version="1.0" encoding="utf-8"?>
<!-- Generator: Adobe Illustrator 17.1.0, SVG Export Plug-In . SVG Version: 6.00 Build 0)  -->
<!DOCTYPE svg PUBLIC "-//W3C//DTD SVG 1.1//EN" "http://www.w3.org/Graphics/SVG/1.1/DTD/svg11.dtd">
<svg version="1.1" id="Layer_1" xmlns="http://www.w3.org/2000/svg" xmlns:xlink="http://www.w3.org/1999/xlink" x="0px" y="0px"
	 viewBox="0 0 566.929 170.079" enable-background="new 0 0 566.929 170.079" xml:space="preserve">
<path fill="#F8FAF6" d="M547.833,150.977H30.852c-1.811,0-3.28-1.468-3.28-3.28V25.957c0-1.811,1.468-3.28,3.28-3.28h516.981
	c0.961,0,1.74,0.779,1.74,1.74v124.82C549.573,150.198,548.794,150.977,547.833,150.977z"/>
<path fill="#FFFFFF" stroke="#75B640" stroke-width="1.6" stroke-miterlimit="10" d="M202.293,126.977H64.852
	c-1.811,0-3.28-1.468-3.28-3.28V50.256c0-1.811,1.468-3.28,3.28-3.28h137.441c1.811,0,3.28,1.468,3.28,3.28v73.441
	C205.573,125.508,204.104,126.977,202.293,126.977z"/>
<g>
	<path fill="#FFFFFF" d="M81.399,111.565c-2.33,0-4.226-1.896-4.226-4.226V86.191c0-2.33,1.896-4.226,4.226-4.226h21.148
		c2.33,0,4.226,1.896,4.226,4.226v21.148c0,2.33-1.896,4.226-4.226,4.226H81.399z"/>
	<path fill="#75B640" d="M102.547,83.966c1.229,0,2.226,0.997,2.226,2.226v21.148c0,1.229-0.997,2.226-2.226,2.226H81.399
		c-1.229,0-2.226-0.997-2.226-2.226V86.192c0-1.229,0.997-2.226,2.226-2.226H102.547 M102.547,79.966H81.399
		c-3.433,0-6.226,2.793-6.226,6.226v21.148c0,3.433,2.793,6.226,6.226,6.226h21.148c3.433,0,6.226-2.793,6.226-6.226V86.192
		C108.773,82.759,105.98,79.966,102.547,79.966L102.547,79.966z"/>
</g>
<g>
	<path fill="#FFFFFF" d="M122.999,111.565c-2.33,0-4.226-1.896-4.226-4.226V86.191c0-2.33,1.896-4.226,4.226-4.226h21.147
		c2.33,0,4.226,1.896,4.226,4.226v21.148c0,2.33-1.896,4.226-4.226,4.226H122.999z"/>
	<g>
		<path fill="#75B640" d="M144.147,83.966c1.229,0,2.226,0.997,2.226,2.226v21.148c0,1.229-0.997,2.226-2.226,2.226h-21.148
			c-1.229,0-2.226-0.997-2.226-2.226V86.192c0-1.229,0.997-2.226,2.226-2.226H144.147 M144.147,79.966h-21.148
			c-3.433,0-6.226,2.793-6.226,6.226v21.148c0,3.433,2.793,6.226,6.226,6.226h21.148c3.433,0,6.226-2.793,6.226-6.226V86.192
			C150.373,82.759,147.58,79.966,144.147,79.966L144.147,79.966z"/>
	</g>
</g>
<g>
	<path fill="#454746" d="M85.547,92.063c0.602-0.103,1.447-0.179,2.638-0.179c1.203,0,2.061,0.23,2.637,0.691
		c0.551,0.435,0.922,1.151,0.922,1.997c0,0.845-0.281,1.562-0.794,2.048c-0.665,0.628-1.651,0.909-2.804,0.909
		c-0.256,0-0.486-0.013-0.665-0.038v3.085h-1.934V92.063z M87.48,95.981c0.166,0.038,0.371,0.051,0.652,0.051
		c1.037,0,1.678-0.524,1.678-1.408c0-0.794-0.551-1.268-1.523-1.268c-0.397,0-0.666,0.039-0.807,0.077V95.981z"/>
	<path fill="#454746" d="M98.821,96.378c0,2.573-1.037,4.34-3.162,4.34c-2.15,0-3.098-1.933-3.11-4.288
		c0-2.407,1.023-4.314,3.175-4.314C97.951,92.115,98.821,94.1,98.821,96.378z M94.507,96.43c-0.013,1.907,0.448,2.816,1.204,2.816
		c0.755,0,1.164-0.947,1.164-2.843c0-1.843-0.396-2.816-1.178-2.816C94.98,93.587,94.494,94.496,94.507,96.43z"/>
</g>
<g>
	<path fill="#FFFFFF" d="M164.599,111.565c-2.33,0-4.226-1.896-4.226-4.226V86.191c0-2.33,1.896-4.226,4.226-4.226h21.148
		c2.33,0,4.226,1.896,4.226,4.226v21.148c0,2.33-1.896,4.226-4.226,4.226H164.599z"/>
	<g>
		<path fill="#75B640" d="M185.747,83.966c1.229,0,2.226,0.997,2.226,2.226v21.148c0,1.229-0.997,2.226-2.226,2.226h-21.148
			c-1.229,0-2.226-0.997-2.226-2.226V86.192c0-1.229,0.997-2.226,2.226-2.226H185.747 M185.747,79.966h-21.148
			c-3.433,0-6.226,2.793-6.226,6.226v21.148c0,3.433,2.793,6.226,6.226,6.226h21.148c3.433,0,6.226-2.793,6.226-6.226V86.192
			C191.973,82.759,189.18,79.966,185.747,79.966L185.747,79.966z"/>
	</g>
</g>
<g>
	<path fill="#454746" d="M168.747,92.063c0.602-0.103,1.447-0.179,2.638-0.179c1.203,0,2.061,0.23,2.637,0.691
		c0.551,0.435,0.922,1.151,0.922,1.997c0,0.845-0.281,1.562-0.794,2.048c-0.665,0.628-1.651,0.909-2.804,0.909
		c-0.256,0-0.486-0.013-0.665-0.038v3.085h-1.934L168.747,92.063L168.747,92.063z M170.681,95.981
		c0.166,0.038,0.371,0.051,0.652,0.051c1.037,0,1.678-0.524,1.678-1.408c0-0.794-0.551-1.268-1.523-1.268
		c-0.397,0-0.666,0.039-0.807,0.077L170.681,95.981L170.681,95.981z"/>
	<path fill="#454746" d="M175.877,100.577v-1.178l1.075-0.973c1.817-1.626,2.701-2.561,2.727-3.534c0-0.678-0.409-1.216-1.37-1.216
		c-0.717,0-1.344,0.358-1.779,0.691l-0.551-1.396c0.628-0.474,1.601-0.857,2.728-0.857c1.882,0,2.919,1.101,2.919,2.611
		c0,1.396-1.012,2.509-2.215,3.585l-0.769,0.64v0.025h3.137v1.601L175.877,100.577L175.877,100.577z"/>
</g>
<g>
	<path fill="#454746" d="M127.147,92.063c0.602-0.103,1.447-0.179,2.638-0.179c1.203,0,2.061,0.23,2.637,0.691
		c0.551,0.435,0.922,1.151,0.922,1.997c0,0.845-0.281,1.562-0.794,2.048c-0.665,0.628-1.651,0.909-2.804,0.909
		c-0.256,0-0.486-0.013-0.665-0.038v3.085h-1.934L127.147,92.063L127.147,92.063z M129.081,95.981
		c0.166,0.038,0.371,0.051,0.652,0.051c1.037,0,1.678-0.524,1.678-1.408c0-0.794-0.551-1.268-1.523-1.268
		c-0.397,0-0.666,0.039-0.807,0.077L129.081,95.981L129.081,95.981z"/>
	<path fill="#454746" d="M136.761,93.984h-0.025l-1.588,0.755l-0.32-1.459l2.202-1.024h1.613v8.321h-1.882V93.984z"/>
</g>
<path fill="#FFFFFF" stroke="#C6C6C6" stroke-width="1.6" stroke-miterlimit="10" d="M362.293,126.977H224.852
	c-1.811,0-3.28-1.468-3.28-3.28V50.256c0-1.811,1.468-3.28,3.28-3.28h137.441c1.811,0,3.28,1.468,3.28,3.28v73.441
	C365.573,125.508,364.104,126.977,362.293,126.977z"/>
<g>
	<path fill="#FFFFFF" d="M241.399,111.565c-2.33,0-4.226-1.896-4.226-4.226V86.191c0-2.33,1.896-4.226,4.226-4.226h21.148
		c2.33,0,4.226,1.896,4.226,4.226v21.148c0,2.33-1.896,4.226-4.226,4.226H241.399z"/>
	<g>
		<path fill="#C6C6C6" d="M262.547,83.966c1.229,0,2.226,0.997,2.226,2.226v21.148c0,1.229-0.997,2.226-2.226,2.226h-21.148
			c-1.229,0-2.226-0.997-2.226-2.226V86.192c0-1.229,0.997-2.226,2.226-2.226H262.547 M262.547,79.966h-21.148
			c-3.433,0-6.226,2.793-6.226,6.226v21.148c0,3.433,2.793,6.226,6.226,6.226h21.148c3.433,0,6.226-2.793,6.226-6.226V86.192
			C268.773,82.759,265.98,79.966,262.547,79.966L262.547,79.966z"/>
	</g>
</g>
<g>
	<path fill="#FFFFFF" d="M282.999,111.565c-2.33,0-4.226-1.896-4.226-4.226V86.191c0-2.33,1.896-4.226,4.226-4.226h21.148
		c2.33,0,4.226,1.896,4.226,4.226v21.148c0,2.33-1.896,4.226-4.226,4.226H282.999z"/>
	<path fill="#C6C6C6" d="M304.147,83.966c1.229,0,2.226,0.997,2.226,2.226v21.148c0,1.229-0.997,2.226-2.226,2.226h-21.148
		c-1.229,0-2.226-0.997-2.226-2.226V86.192c0-1.229,0.997-2.226,2.226-2.226H304.147 M304.147,79.966h-21.148
		c-3.433,0-6.226,2.793-6.226,6.226v21.148c0,3.433,2.793,6.226,6.226,6.226h21.148c3.433,0,6.226-2.793,6.226-6.226V86.192
		C310.373,82.759,307.58,79.966,304.147,79.966L304.147,79.966z"/>
</g>
<g>
	<path fill="#454746" d="M245.471,92.063c0.628-0.103,1.562-0.179,2.599-0.179c1.28,0,2.177,0.191,2.791,0.679
		c0.513,0.409,0.794,1.011,0.794,1.805c0,1.101-0.781,1.856-1.523,2.125v0.038c0.602,0.244,0.935,0.819,1.152,1.613
		c0.269,0.974,0.537,2.1,0.704,2.433h-1.997c-0.141-0.243-0.346-0.947-0.602-2.01c-0.23-1.075-0.602-1.37-1.396-1.383h-0.589v3.393
		h-1.934L245.471,92.063L245.471,92.063z M247.404,95.776h0.768c0.974,0,1.55-0.486,1.55-1.242c0-0.793-0.538-1.19-1.435-1.203
		c-0.474,0-0.742,0.038-0.883,0.064V95.776z"/>
	<path fill="#454746" d="M258.898,96.378c0,2.573-1.037,4.34-3.162,4.34c-2.15,0-3.098-1.933-3.111-4.288
		c0-2.407,1.024-4.314,3.176-4.314C258.028,92.115,258.898,94.1,258.898,96.378z M254.584,96.43
		c-0.013,1.907,0.448,2.816,1.204,2.816c0.755,0,1.164-0.947,1.164-2.843c0-1.843-0.396-2.816-1.178-2.816
		C255.057,93.587,254.571,94.496,254.584,96.43z"/>
</g>
<g>
	<path fill="#FFFFFF" d="M324.599,111.565c-2.33,0-4.227-1.896-4.227-4.226V86.191c0-2.33,1.896-4.226,4.227-4.226h21.147
		c2.33,0,4.227,1.896,4.227,4.226v21.148c0,2.33-1.896,4.226-4.227,4.226H324.599z"/>
	<g>
		<path fill="#C6C6C6" d="M345.747,83.966c1.229,0,2.226,0.997,2.226,2.226v21.148c0,1.229-0.997,2.226-2.226,2.226h-21.148
			c-1.229,0-2.226-0.997-2.226-2.226V86.192c0-1.229,0.997-2.226,2.226-2.226H345.747 M345.747,79.966h-21.148
			c-3.433,0-6.226,2.793-6.226,6.226v21.148c0,3.433,2.793,6.226,6.226,6.226h21.148c3.433,0,6.226-2.793,6.226-6.226V86.192
			C351.973,82.759,349.18,79.966,345.747,79.966L345.747,79.966z"/>
	</g>
</g>
<g>
	<path fill="#454746" d="M328.671,92.063c0.628-0.103,1.562-0.179,2.599-0.179c1.28,0,2.177,0.191,2.791,0.679
		c0.513,0.409,0.794,1.011,0.794,1.805c0,1.101-0.781,1.856-1.523,2.125v0.038c0.602,0.244,0.935,0.819,1.152,1.613
		c0.269,0.974,0.537,2.1,0.704,2.433h-1.997c-0.141-0.243-0.346-0.947-0.602-2.01c-0.23-1.075-0.602-1.37-1.396-1.383h-0.589v3.393
		h-1.934L328.671,92.063L328.671,92.063z M330.605,95.776h0.768c0.974,0,1.55-0.486,1.55-1.242c0-0.793-0.538-1.19-1.435-1.203
		c-0.474,0-0.742,0.038-0.883,0.064V95.776z"/>
	<path fill="#454746" d="M335.954,100.577v-1.178l1.075-0.973c1.817-1.626,2.701-2.561,2.727-3.534c0-0.678-0.409-1.216-1.37-1.216
		c-0.717,0-1.344,0.358-1.779,0.691l-0.551-1.396c0.628-0.474,1.601-0.857,2.728-0.857c1.882,0,2.919,1.101,2.919,2.611
		c0,1.396-1.012,2.509-2.215,3.585l-0.769,0.64v0.025h3.137v1.601L335.954,100.577L335.954,100.577z"/>
</g>
<g>
	<path fill="#454746" d="M287.072,92.063c0.628-0.103,1.562-0.179,2.599-0.179c1.28,0,2.177,0.191,2.791,0.679
		c0.513,0.409,0.794,1.011,0.794,1.805c0,1.101-0.781,1.856-1.523,2.125v0.038c0.602,0.244,0.935,0.819,1.152,1.613
		c0.269,0.974,0.537,2.1,0.704,2.433h-1.997c-0.141-0.243-0.346-0.947-0.602-2.01c-0.23-1.075-0.602-1.37-1.396-1.383h-0.589v3.393
		h-1.934L287.072,92.063L287.072,92.063z M289.005,95.776h0.768c0.974,0,1.55-0.486,1.55-1.242c0-0.793-0.538-1.19-1.435-1.203
		c-0.474,0-0.742,0.038-0.883,0.064V95.776z"/>
	<path fill="#454746" d="M296.838,93.984h-0.025l-1.588,0.755l-0.32-1.459l2.202-1.024h1.613v8.321h-1.882V93.984z"/>
</g>
<g>
	<path fill="#454746" d="M272.696,67.777v-8.628h2.279l1.792,3.162c0.512,0.909,1.024,1.984,1.408,2.957h0.038
		c-0.128-1.139-0.166-2.304-0.166-3.597v-2.522h1.792v8.628h-2.048l-1.844-3.329c-0.512-0.922-1.075-2.036-1.498-3.047l-0.038,0.013
		c0.051,1.14,0.077,2.356,0.077,3.764v2.599H272.696z"/>
	<path fill="#454746" d="M289.428,63.373c0,2.829-1.716,4.544-4.238,4.544c-2.56,0-4.058-1.933-4.058-4.391
		c0-2.586,1.651-4.519,4.2-4.519C287.981,59.007,289.428,60.992,289.428,63.373z M283.192,63.488c0,1.69,0.794,2.88,2.1,2.88
		c1.319,0,2.074-1.254,2.074-2.932c0-1.549-0.742-2.88-2.087-2.88C283.961,60.557,283.192,61.811,283.192,63.488z"/>
	<path fill="#454746" d="M290.706,59.264c0.717-0.115,1.651-0.18,2.638-0.18c1.639,0,2.701,0.295,3.533,0.922
		c0.896,0.666,1.459,1.729,1.459,3.252c0,1.651-0.602,2.791-1.434,3.495c-0.909,0.755-2.291,1.114-3.981,1.114
		c-1.011,0-1.729-0.064-2.215-0.128L290.706,59.264L290.706,59.264z M292.665,66.305c0.166,0.038,0.436,0.038,0.679,0.038
		c1.767,0.013,2.919-0.96,2.919-3.021c0.013-1.792-1.037-2.74-2.714-2.74c-0.436,0-0.718,0.039-0.884,0.077V66.305z"/>
	<path fill="#454746" d="M304.748,64.128h-3.175v2.048h3.546v1.6h-5.505v-8.628h5.326v1.6h-3.367v1.792h3.175L304.748,64.128
		L304.748,64.128z"/>
	<path fill="#454746" d="M308.729,67.777v-1.178l1.075-0.973c1.817-1.626,2.701-2.561,2.727-3.533c0-0.679-0.409-1.216-1.37-1.216
		c-0.717,0-1.344,0.358-1.779,0.691l-0.551-1.396c0.628-0.474,1.601-0.858,2.728-0.858c1.882,0,2.919,1.101,2.919,2.612
		c0,1.396-1.012,2.509-2.215,3.584l-0.769,0.64v0.026h3.137v1.6L308.729,67.777L308.729,67.777z"/>
</g>
<g>
	<path fill="#454746" d="M77.016,68.042v-8.628h2.279l1.792,3.162c0.512,0.909,1.024,1.984,1.408,2.957h0.038
		c-0.128-1.139-0.166-2.304-0.166-3.597v-2.522h1.792v8.628h-2.047l-1.844-3.329c-0.512-0.922-1.075-2.036-1.498-3.047l-0.038,0.013
		c0.051,1.14,0.077,2.356,0.077,3.764v2.599H77.016z"/>
	<path fill="#454746" d="M93.748,63.638c0,2.829-1.716,4.544-4.238,4.544c-2.56,0-4.058-1.933-4.058-4.391
		c0-2.586,1.651-4.519,4.199-4.519C92.301,59.272,93.748,61.257,93.748,63.638z M87.513,63.753c0,1.69,0.794,2.88,2.1,2.88
		c1.319,0,2.074-1.254,2.074-2.932c0-1.549-0.742-2.88-2.087-2.88C88.281,60.822,87.513,62.076,87.513,63.753z"/>
	<path fill="#454746" d="M95.026,59.529c0.717-0.115,1.651-0.18,2.638-0.18c1.639,0,2.701,0.295,3.533,0.922
		c0.896,0.666,1.459,1.729,1.459,3.252c0,1.651-0.602,2.791-1.434,3.495c-0.909,0.755-2.291,1.114-3.981,1.114
		c-1.011,0-1.729-0.064-2.215-0.128V59.529z M96.985,66.57c0.166,0.038,0.436,0.038,0.679,0.038c1.767,0.013,2.919-0.96,2.919-3.021
		c0.013-1.792-1.037-2.74-2.714-2.74c-0.436,0-0.718,0.039-0.884,0.077V66.57z"/>
	<path fill="#454746" d="M109.068,64.393h-3.175v2.048h3.546v1.6h-5.505v-8.628h5.326v1.6h-3.367v1.792h3.175
		C109.068,62.805,109.068,64.393,109.068,64.393z"/>
	<path fill="#454746" d="M115.532,61.449h-0.025l-1.588,0.755l-0.32-1.459l2.202-1.024h1.613v8.321h-1.882V61.449z"/>
	<path fill="#454746" d="M125.938,64.035v1.293h-3.354v-1.293H125.938z"/>
	<path fill="#454746" d="M149.977,64.739c-0.039-1.037-0.077-2.292-0.077-3.546h-0.038c-0.27,1.101-0.628,2.33-0.961,3.341
		l-1.05,3.367h-1.523l-0.921-3.341c-0.282-1.012-0.576-2.241-0.781-3.367h-0.025c-0.052,1.165-0.09,2.497-0.154,3.572l-0.153,3.277
		h-1.805l0.55-8.628h2.599l0.846,2.88c0.269,0.999,0.537,2.074,0.729,3.085h0.038c0.243-0.999,0.538-2.138,0.819-3.098l0.922-2.868
		h2.548l0.474,8.628h-1.907L149.977,64.739z"/>
	<path fill="#454746" d="M155.479,65.827l-0.614,2.215h-2.022l2.637-8.628h2.561l2.676,8.628h-2.1l-0.665-2.215H155.479z
		 M157.669,64.368l-0.538-1.831c-0.153-0.512-0.307-1.152-0.435-1.665h-0.025c-0.129,0.512-0.257,1.165-0.397,1.665l-0.512,1.831
		H157.669z"/>
	<path fill="#454746" d="M161.931,66.032c0.524,0.269,1.331,0.538,2.163,0.538c0.896,0,1.37-0.371,1.37-0.935
		c0-0.538-0.41-0.845-1.446-1.216c-1.435-0.499-2.369-1.293-2.369-2.547c0-1.473,1.229-2.599,3.265-2.599
		c0.974,0,1.69,0.205,2.202,0.436l-0.436,1.575c-0.346-0.167-0.96-0.41-1.805-0.41s-1.255,0.384-1.255,0.833
		c0,0.55,0.486,0.793,1.601,1.216c1.523,0.563,2.24,1.357,2.24,2.573c0,1.447-1.113,2.676-3.482,2.676
		c-0.985,0-1.958-0.256-2.445-0.525L161.931,66.032z"/>
	<path fill="#454746" d="M170.442,61.052h-2.316v-1.639h6.631v1.639h-2.355v6.99h-1.959v-6.99H170.442z"/>
	<path fill="#454746" d="M180.927,64.393h-3.175v2.048h3.546v1.6h-5.505v-8.628h5.326v1.6h-3.367v1.792h3.175V64.393z"/>
	<path fill="#454746" d="M182.628,59.529c0.628-0.103,1.562-0.18,2.599-0.18c1.28,0,2.177,0.192,2.791,0.679
		c0.513,0.41,0.794,1.011,0.794,1.805c0,1.101-0.781,1.856-1.523,2.125v0.039c0.602,0.243,0.935,0.819,1.152,1.613
		c0.269,0.973,0.537,2.1,0.704,2.433h-1.997c-0.141-0.243-0.346-0.947-0.602-2.01c-0.23-1.076-0.602-1.37-1.396-1.383h-0.589v3.393
		h-1.934v-8.514H182.628z M184.561,63.241h0.768c0.974,0,1.55-0.486,1.55-1.242c0-0.794-0.538-1.191-1.435-1.204
		c-0.474,0-0.742,0.039-0.883,0.064L184.561,63.241L184.561,63.241z"/>
</g>
<polygon fill="#75B640" points="135.306,57.898 136.899,61.125 140.46,61.643 137.883,64.155 138.491,67.702 135.306,66.027 
	132.12,67.702 132.729,64.155 130.152,61.643 133.713,61.125 "/>
<path fill="#75B640" d="M38.937,150.977H20.288c-1.811,0-3.28-1.468-3.28-3.28V25.957c0-1.811,1.468-3.28,3.28-3.28h18.649
	C38.937,22.677,38.937,150.977,38.937,150.977z"/>
<g>
	<path fill="#FFFFFF" d="M32.529,105.064c0.179,0.358,0.371,1.165,0.371,2.215c0,2.982-1.856,4.519-4.314,4.519
		c-2.944,0-4.583-2.1-4.583-4.711c0-1.012,0.205-1.779,0.384-2.125l1.55,0.396c-0.167,0.397-0.32,0.947-0.32,1.639
		c0,1.549,0.935,2.753,2.854,2.753c1.729,0,2.816-1.024,2.816-2.766c0-0.589-0.128-1.242-0.281-1.626L32.529,105.064z"/>
	<path fill="#FFFFFF" d="M24.143,103.785v-1.959h6.99v-3.431h1.639v5.39H24.143z"/>
	<path fill="#FFFFFF" d="M24.143,95.695h4.968c1.484,0,2.24-0.563,2.24-1.562c0-1.024-0.717-1.588-2.24-1.588h-4.968V90.6h4.84
		c2.662,0,3.93,1.344,3.93,3.597c0,2.177-1.203,3.457-3.956,3.457h-4.813L24.143,95.695L24.143,95.695z"/>
	<path fill="#FFFFFF" d="M30.763,88.848c0.269-0.524,0.537-1.331,0.537-2.163c0-0.896-0.371-1.37-0.935-1.37
		c-0.537,0-0.845,0.41-1.216,1.446c-0.499,1.434-1.293,2.369-2.548,2.369c-1.472,0-2.599-1.229-2.599-3.264
		c0-0.973,0.205-1.69,0.436-2.202l1.574,0.435c-0.166,0.346-0.409,0.96-0.409,1.805s0.384,1.255,0.832,1.255
		c0.551,0,0.794-0.486,1.216-1.601c0.563-1.523,1.357-2.24,2.573-2.24c1.447,0,2.676,1.114,2.676,3.482
		c0,0.985-0.256,1.958-0.524,2.445L30.763,88.848z"/>
	<path fill="#FFFFFF" d="M25.782,80.336v2.317h-1.639v-6.632h1.639v2.356h6.99v1.958h-6.99V80.336z"/>
	<path fill="#FFFFFF" d="M29.124,69.852v3.175h2.048v-3.546h1.601v5.505h-8.629V69.66h1.601v3.367h1.792v-3.175L29.124,69.852
		L29.124,69.852z"/>
	<path fill="#FFFFFF" d="M24.259,68.151c-0.103-0.627-0.179-1.562-0.179-2.599c0-1.28,0.191-2.176,0.679-2.791
		c0.409-0.512,1.011-0.793,1.805-0.793c1.101,0,1.856,0.781,2.125,1.523h0.038c0.244-0.602,0.819-0.935,1.613-1.152
		c0.974-0.269,2.1-0.538,2.433-0.704v1.997c-0.243,0.141-0.947,0.346-2.01,0.602c-1.075,0.23-1.37,0.602-1.383,1.395v0.589h3.393
		v1.933H24.259z M27.972,66.218v-0.769c0-0.973-0.486-1.549-1.242-1.549c-0.793,0-1.19,0.538-1.203,1.434
		c0,0.474,0.038,0.743,0.064,0.884L27.972,66.218L27.972,66.218z"/>
</g>
</svg>
