<?xml version="1.0" encoding="utf-8"?>
<!-- Generator: Adobe Illustrator 17.1.0, SVG Export Plug-In . SVG Version: 6.00 Build 0)  -->
<!DOCTYPE svg PUBLIC "-//W3C//DTD SVG 1.1//EN" "http://www.w3.org/Graphics/SVG/1.1/DTD/svg11.dtd">
<svg version="1.1" id="Layer_1" xmlns="http://www.w3.org/2000/svg" xmlns:xlink="http://www.w3.org/1999/xlink" x="0px" y="0px"
	 viewBox="0 0 566.929 170.079" enable-background="new 0 0 566.929 170.079" xml:space="preserve">
<path fill="#F8FAF6" d="M547.833,150.977H30.852c-1.811,0-3.28-1.468-3.28-3.28V25.957c0-1.811,1.468-3.28,3.28-3.28h516.981
	c0.961,0,1.74,0.779,1.74,1.74v124.82C549.573,150.199,548.794,150.977,547.833,150.977z"/>
<path fill="#FFFFFF" stroke="#75B640" stroke-width="1.6" stroke-miterlimit="10" d="M362.293,126.977H224.852
	c-1.811,0-3.28-1.468-3.28-3.28V50.256c0-1.811,1.468-3.28,3.28-3.28h137.441c1.811,0,3.28,1.468,3.28,3.28v73.441
	C365.573,125.509,364.104,126.977,362.293,126.977z"/>
<g>
	<path fill="#FFFFFF" d="M241.399,111.567c-2.33,0-4.226-1.896-4.226-4.227V86.193c0-2.33,1.896-4.226,4.226-4.226h21.148
		c2.33,0,4.226,1.896,4.226,4.226v21.147c0,2.33-1.896,4.227-4.226,4.227H241.399z"/>
	<g>
		<path fill="#C6C6C6" d="M262.547,83.967c1.229,0,2.226,0.997,2.226,2.226v21.148c0,1.229-0.997,2.226-2.226,2.226h-21.148
			c-1.229,0-2.226-0.997-2.226-2.226V86.193c0-1.229,0.997-2.226,2.226-2.226H262.547 M262.547,79.967h-21.148
			c-3.433,0-6.226,2.793-6.226,6.226v21.148c0,3.433,2.793,6.226,6.226,6.226h21.148c3.433,0,6.226-2.793,6.226-6.226V86.193
			C268.773,82.76,265.98,79.967,262.547,79.967L262.547,79.967z"/>
	</g>
</g>
<g>
	<path fill="#FFFFFF" d="M282.999,111.567c-2.33,0-4.226-1.896-4.226-4.227V86.193c0-2.33,1.896-4.226,4.226-4.226h21.148
		c2.33,0,4.226,1.896,4.226,4.226v21.147c0,2.33-1.896,4.227-4.226,4.227H282.999z"/>
	<path fill="#C6C6C6" d="M304.147,83.967c1.229,0,2.226,0.997,2.226,2.226v21.148c0,1.229-0.997,2.226-2.226,2.226h-21.148
		c-1.229,0-2.226-0.997-2.226-2.226V86.193c0-1.229,0.997-2.226,2.226-2.226H304.147 M304.147,79.967h-21.148
		c-3.433,0-6.226,2.793-6.226,6.226v21.148c0,3.433,2.793,6.226,6.226,6.226h21.148c3.433,0,6.226-2.793,6.226-6.226V86.193
		C310.373,82.76,307.58,79.967,304.147,79.967L304.147,79.967z"/>
</g>
<g>
	<path fill="#454746" d="M245.471,92.064c0.628-0.103,1.562-0.179,2.599-0.179c1.28,0,2.177,0.191,2.791,0.679
		c0.513,0.409,0.794,1.011,0.794,1.805c0,1.101-0.781,1.856-1.523,2.125v0.038c0.602,0.244,0.935,0.819,1.152,1.613
		c0.269,0.974,0.537,2.1,0.704,2.433h-1.997c-0.141-0.243-0.346-0.947-0.602-2.01c-0.23-1.075-0.602-1.37-1.396-1.383h-0.589v3.393
		h-1.934L245.471,92.064L245.471,92.064z M247.404,95.777h0.768c0.974,0,1.55-0.486,1.55-1.242c0-0.793-0.538-1.19-1.435-1.203
		c-0.474,0-0.742,0.038-0.883,0.064V95.777z"/>
	<path fill="#454746" d="M258.898,96.378c0,2.573-1.037,4.34-3.162,4.34c-2.15,0-3.098-1.933-3.111-4.288
		c0-2.407,1.024-4.314,3.176-4.314C258.028,92.116,258.898,94.1,258.898,96.378z M254.584,96.43
		c-0.013,1.907,0.448,2.816,1.204,2.816c0.755,0,1.164-0.947,1.164-2.843c0-1.843-0.396-2.816-1.178-2.816
		C255.057,93.587,254.571,94.496,254.584,96.43z"/>
</g>
<g>
	<path fill="#FFFFFF" d="M324.599,111.567c-2.33,0-4.227-1.896-4.227-4.227V86.193c0-2.33,1.896-4.226,4.227-4.226h21.147
		c2.33,0,4.227,1.896,4.227,4.226v21.147c0,2.33-1.896,4.227-4.227,4.227H324.599z"/>
	<g>
		<path fill="#75B640" d="M345.747,83.967c1.229,0,2.226,0.997,2.226,2.226v21.148c0,1.229-0.997,2.226-2.226,2.226h-21.148
			c-1.229,0-2.226-0.997-2.226-2.226V86.193c0-1.229,0.997-2.226,2.226-2.226H345.747 M345.747,79.967h-21.148
			c-3.433,0-6.226,2.793-6.226,6.226v21.148c0,3.433,2.793,6.226,6.226,6.226h21.148c3.433,0,6.226-2.793,6.226-6.226V86.193
			C351.973,82.76,349.18,79.967,345.747,79.967L345.747,79.967z"/>
	</g>
</g>
<g>
	<path fill="#454746" d="M287.072,92.064c0.628-0.103,1.562-0.179,2.599-0.179c1.28,0,2.177,0.191,2.791,0.679
		c0.513,0.409,0.794,1.011,0.794,1.805c0,1.101-0.781,1.856-1.523,2.125v0.038c0.602,0.244,0.935,0.819,1.152,1.613
		c0.269,0.974,0.537,2.1,0.704,2.433h-1.997c-0.141-0.243-0.346-0.947-0.602-2.01c-0.23-1.075-0.602-1.37-1.396-1.383h-0.589v3.393
		h-1.934L287.072,92.064L287.072,92.064z M289.005,95.777h0.768c0.974,0,1.55-0.486,1.55-1.242c0-0.793-0.538-1.19-1.435-1.203
		c-0.474,0-0.742,0.038-0.883,0.064V95.777z"/>
	<path fill="#454746" d="M296.838,93.985h-0.025l-1.588,0.755l-0.32-1.459l2.202-1.024h1.613v8.321h-1.882V93.985z"/>
</g>
<path fill="#FFFFFF" stroke="#75B640" stroke-width="1.6" stroke-miterlimit="10" d="M522.293,126.977H384.852
	c-1.811,0-3.28-1.468-3.28-3.28V50.256c0-1.811,1.468-3.28,3.28-3.28h137.441c1.811,0,3.28,1.468,3.28,3.28v73.441
	C525.573,125.509,524.104,126.977,522.293,126.977z"/>
<g>
	<path fill="#FFFFFF" d="M401.399,111.567c-2.33,0-4.227-1.896-4.227-4.227V86.193c0-2.33,1.896-4.226,4.227-4.226h21.147
		c2.33,0,4.227,1.896,4.227,4.226v21.147c0,2.33-1.896,4.227-4.227,4.227H401.399z"/>
	<path fill="#75B640" d="M422.547,83.967c1.229,0,2.226,0.997,2.226,2.226v21.148c0,1.229-0.997,2.226-2.226,2.226h-21.148
		c-1.229,0-2.226-0.997-2.226-2.226V86.193c0-1.229,0.997-2.226,2.226-2.226H422.547 M422.547,79.967h-21.148
		c-3.433,0-6.226,2.793-6.226,6.226v21.148c0,3.433,2.793,6.226,6.226,6.226h21.148c3.433,0,6.226-2.793,6.226-6.226V86.193
		C428.773,82.76,425.98,79.967,422.547,79.967L422.547,79.967z"/>
</g>
<g>
	<path fill="#FFFFFF" d="M442.998,111.567c-2.33,0-4.226-1.896-4.226-4.227V86.193c0-2.33,1.896-4.226,4.226-4.226h21.148
		c2.33,0,4.226,1.896,4.226,4.226v21.147c0,2.33-1.896,4.227-4.226,4.227H442.998z"/>
	<g>
		<path fill="#75B640" d="M464.147,83.967c1.229,0,2.226,0.997,2.226,2.226v21.148c0,1.229-0.997,2.226-2.226,2.226h-21.148
			c-1.229,0-2.226-0.997-2.226-2.226V86.193c0-1.229,0.997-2.226,2.226-2.226H464.147 M464.147,79.967h-21.148
			c-3.433,0-6.226,2.793-6.226,6.226v21.148c0,3.433,2.793,6.226,6.226,6.226h21.148c3.433,0,6.226-2.793,6.226-6.226V86.193
			C470.373,82.76,467.58,79.967,464.147,79.967L464.147,79.967z"/>
	</g>
</g>
<g>
	<path fill="#454746" d="M405.547,92.064c0.602-0.103,1.447-0.179,2.638-0.179c1.203,0,2.061,0.23,2.637,0.691
		c0.551,0.435,0.922,1.151,0.922,1.997c0,0.845-0.281,1.562-0.794,2.048c-0.665,0.628-1.651,0.909-2.804,0.909
		c-0.256,0-0.486-0.013-0.665-0.038v3.085h-1.934V92.064z M407.481,95.982c0.166,0.038,0.371,0.051,0.652,0.051
		c1.037,0,1.678-0.524,1.678-1.408c0-0.794-0.551-1.268-1.523-1.268c-0.397,0-0.666,0.039-0.807,0.077V95.982z"/>
	<path fill="#454746" d="M418.822,96.378c0,2.573-1.037,4.34-3.162,4.34c-2.15,0-3.098-1.933-3.11-4.288
		c0-2.407,1.023-4.314,3.175-4.314C417.952,92.116,418.822,94.1,418.822,96.378z M414.507,96.43
		c-0.013,1.907,0.448,2.816,1.204,2.816c0.755,0,1.164-0.947,1.164-2.843c0-1.843-0.396-2.816-1.178-2.816
		C414.981,93.587,414.494,94.496,414.507,96.43z"/>
</g>
<g>
	<path fill="#454746" d="M447.147,92.064c0.602-0.103,1.447-0.179,2.638-0.179c1.203,0,2.061,0.23,2.637,0.691
		c0.551,0.435,0.922,1.151,0.922,1.997c0,0.845-0.281,1.562-0.794,2.048c-0.665,0.628-1.651,0.909-2.804,0.909
		c-0.256,0-0.486-0.013-0.665-0.038v3.085h-1.934V92.064z M449.08,95.982c0.166,0.038,0.371,0.051,0.652,0.051
		c1.037,0,1.678-0.524,1.678-1.408c0-0.794-0.551-1.268-1.523-1.268c-0.397,0-0.666,0.039-0.807,0.077V95.982z"/>
	<path fill="#454746" d="M456.76,93.985h-0.025l-1.588,0.755l-0.32-1.459l2.202-1.024h1.613v8.321h-1.882V93.985z"/>
</g>
<g>
	<path fill="#454746" d="M328.746,92.064c0.602-0.103,1.447-0.179,2.638-0.179c1.203,0,2.061,0.23,2.637,0.691
		c0.551,0.435,0.922,1.151,0.922,1.997c0,0.845-0.281,1.562-0.794,2.048c-0.665,0.628-1.651,0.909-2.804,0.909
		c-0.256,0-0.486-0.013-0.665-0.038v3.085h-1.934V92.064z M330.68,95.982c0.166,0.038,0.371,0.051,0.652,0.051
		c1.037,0,1.678-0.524,1.678-1.408c0-0.794-0.551-1.268-1.523-1.268c-0.397,0-0.666,0.039-0.807,0.077V95.982z"/>
	<path fill="#454746" d="M335.876,100.578V99.4l1.075-0.973c1.817-1.626,2.701-2.561,2.727-3.534c0-0.678-0.409-1.216-1.37-1.216
		c-0.717,0-1.344,0.358-1.779,0.691l-0.551-1.396c0.628-0.474,1.601-0.857,2.728-0.857c1.882,0,2.919,1.101,2.919,2.611
		c0,1.396-1.012,2.509-2.215,3.585l-0.769,0.64v0.025h3.137v1.601L335.876,100.578L335.876,100.578z"/>
</g>
<g>
	<path fill="#FFFFFF" d="M484.599,111.567c-2.33,0-4.227-1.896-4.227-4.227V86.193c0-2.33,1.896-4.226,4.227-4.226h21.147
		c2.33,0,4.227,1.896,4.227,4.226v21.147c0,2.33-1.896,4.227-4.227,4.227H484.599z"/>
	<g>
		<path fill="#C6C6C6" d="M505.747,83.967c1.229,0,2.226,0.997,2.226,2.226v21.148c0,1.229-0.997,2.226-2.226,2.226h-21.148
			c-1.229,0-2.226-0.997-2.226-2.226V86.193c0-1.229,0.997-2.226,2.226-2.226H505.747 M505.747,79.967h-21.148
			c-3.433,0-6.226,2.793-6.226,6.226v21.148c0,3.433,2.793,6.226,6.226,6.226h21.148c3.433,0,6.226-2.793,6.226-6.226V86.193
			C511.973,82.76,509.18,79.967,505.747,79.967L505.747,79.967z"/>
	</g>
</g>
<g>
	<path fill="#454746" d="M488.671,92.064c0.628-0.103,1.562-0.179,2.599-0.179c1.28,0,2.177,0.191,2.791,0.679
		c0.513,0.409,0.794,1.011,0.794,1.805c0,1.101-0.781,1.856-1.523,2.125v0.038c0.602,0.244,0.935,0.819,1.152,1.613
		c0.269,0.974,0.537,2.1,0.704,2.433h-1.997c-0.141-0.243-0.346-0.947-0.602-2.01c-0.23-1.075-0.602-1.37-1.396-1.383h-0.589v3.393
		h-1.934L488.671,92.064L488.671,92.064z M490.605,95.777h0.768c0.974,0,1.55-0.486,1.55-1.242c0-0.793-0.538-1.19-1.435-1.203
		c-0.474,0-0.742,0.038-0.883,0.064V95.777z"/>
	<path fill="#454746" d="M495.954,100.578V99.4l1.075-0.973c1.817-1.626,2.701-2.561,2.727-3.534c0-0.678-0.409-1.216-1.37-1.216
		c-0.717,0-1.344,0.358-1.779,0.691l-0.551-1.396c0.628-0.474,1.601-0.857,2.728-0.857c1.882,0,2.919,1.101,2.919,2.611
		c0,1.396-1.012,2.509-2.215,3.585l-0.769,0.64v0.025h3.137v1.601L495.954,100.578L495.954,100.578z"/>
</g>
<g>
	<path fill="#454746" d="M272.696,67.778v-8.629h2.279l1.792,3.162c0.512,0.909,1.024,1.984,1.408,2.958h0.038
		c-0.128-1.14-0.166-2.305-0.166-3.598v-2.522h1.792v8.629h-2.048l-1.844-3.328c-0.512-0.922-1.075-2.036-1.498-3.047l-0.038,0.013
		c0.051,1.139,0.077,2.355,0.077,3.764v2.599h-1.792V67.778z"/>
	<path fill="#454746" d="M289.428,63.373c0,2.83-1.716,4.545-4.239,4.545c-2.56,0-4.058-1.933-4.058-4.391
		c0-2.586,1.651-4.52,4.199-4.52C287.981,59.008,289.428,60.993,289.428,63.373z M283.192,63.489c0,1.69,0.794,2.881,2.1,2.881
		c1.32,0,2.075-1.255,2.075-2.932c0-1.549-0.742-2.881-2.087-2.881C283.961,60.557,283.192,61.812,283.192,63.489z"/>
	<path fill="#454746" d="M290.706,59.264c0.717-0.115,1.651-0.179,2.638-0.179c1.639,0,2.701,0.294,3.533,0.922
		c0.896,0.665,1.459,1.728,1.459,3.251c0,1.652-0.602,2.791-1.434,3.495c-0.909,0.756-2.291,1.114-3.981,1.114
		c-1.011,0-1.729-0.064-2.215-0.128L290.706,59.264L290.706,59.264z M292.665,66.305c0.166,0.039,0.436,0.039,0.679,0.039
		c1.767,0.013,2.919-0.96,2.919-3.021c0.013-1.792-1.037-2.739-2.714-2.739c-0.436,0-0.718,0.038-0.884,0.076V66.305z"/>
	<path fill="#454746" d="M304.748,64.129h-3.175v2.048h3.546v1.601h-5.505v-8.629h5.326v1.601h-3.367v1.792h3.175L304.748,64.129
		L304.748,64.129z"/>
	<path fill="#454746" d="M308.729,67.778V66.6l1.075-0.973c1.817-1.626,2.701-2.561,2.727-3.534c0-0.678-0.409-1.216-1.37-1.216
		c-0.717,0-1.344,0.358-1.779,0.691l-0.551-1.396c0.628-0.474,1.601-0.857,2.728-0.857c1.882,0,2.919,1.101,2.919,2.611
		c0,1.396-1.012,2.509-2.215,3.585l-0.769,0.64v0.025h3.137v1.601L308.729,67.778L308.729,67.778z"/>
</g>
<g>
	<path fill="#454746" d="M432.697,67.778v-8.629h2.279l1.792,3.162c0.512,0.909,1.024,1.984,1.408,2.958h0.038
		c-0.128-1.14-0.166-2.305-0.166-3.598v-2.522h1.792v8.629h-2.048l-1.844-3.328c-0.512-0.922-1.075-2.036-1.498-3.047l-0.038,0.013
		c0.051,1.139,0.077,2.355,0.077,3.764v2.599h-1.792V67.778z"/>
	<path fill="#454746" d="M449.428,63.373c0,2.83-1.716,4.545-4.238,4.545c-2.56,0-4.058-1.933-4.058-4.391
		c0-2.586,1.651-4.52,4.199-4.52C447.981,59.008,449.428,60.993,449.428,63.373z M443.193,63.489c0,1.69,0.794,2.881,2.1,2.881
		c1.319,0,2.074-1.255,2.074-2.932c0-1.549-0.742-2.881-2.087-2.881C443.961,60.557,443.193,61.812,443.193,63.489z"/>
	<path fill="#454746" d="M450.706,59.264c0.717-0.115,1.651-0.179,2.638-0.179c1.639,0,2.701,0.294,3.533,0.922
		c0.896,0.665,1.459,1.728,1.459,3.251c0,1.652-0.602,2.791-1.434,3.495c-0.909,0.756-2.291,1.114-3.981,1.114
		c-1.011,0-1.729-0.064-2.215-0.128L450.706,59.264L450.706,59.264z M452.665,66.305c0.166,0.039,0.436,0.039,0.679,0.039
		c1.767,0.013,2.919-0.96,2.919-3.021c0.013-1.792-1.037-2.739-2.714-2.739c-0.436,0-0.718,0.038-0.884,0.076V66.305z"/>
	<path fill="#454746" d="M464.748,64.129h-3.175v2.048h3.546v1.601h-5.505v-8.629h5.326v1.601h-3.367v1.792h3.175L464.748,64.129
		L464.748,64.129z"/>
	<path fill="#454746" d="M469.075,65.87c0.346,0.179,1.139,0.512,1.933,0.512c1.012,0,1.523-0.486,1.523-1.113
		c0-0.819-0.819-1.191-1.677-1.191h-0.794v-1.396h0.755c0.653-0.013,1.485-0.256,1.485-0.96c0-0.499-0.409-0.87-1.229-0.87
		c-0.679,0-1.396,0.294-1.741,0.499l-0.397-1.408c0.5-0.32,1.498-0.627,2.573-0.627c1.78,0,2.766,0.935,2.766,2.073
		c0,0.884-0.499,1.575-1.523,1.934v0.025c0.998,0.18,1.805,0.935,1.805,2.022c0,1.473-1.293,2.548-3.405,2.548
		c-1.075,0-1.984-0.281-2.471-0.589L469.075,65.87z"/>
</g>
<path fill="#75B640" d="M38.937,150.977H20.288c-1.811,0-3.28-1.468-3.28-3.28V25.957c0-1.811,1.468-3.28,3.28-3.28h18.649
	C38.937,22.677,38.937,150.977,38.937,150.977z"/>
<g>
	<path fill="#FFFFFF" d="M32.529,105.067c0.179,0.358,0.371,1.165,0.371,2.215c0,2.982-1.856,4.519-4.314,4.519
		c-2.944,0-4.583-2.1-4.583-4.711c0-1.012,0.205-1.779,0.384-2.125l1.55,0.396c-0.167,0.397-0.32,0.947-0.32,1.639
		c0,1.549,0.935,2.753,2.854,2.753c1.729,0,2.816-1.024,2.816-2.766c0-0.589-0.128-1.242-0.281-1.626L32.529,105.067z"/>
	<path fill="#FFFFFF" d="M24.143,103.787v-1.959h6.99v-3.431h1.639v5.39H24.143z"/>
	<path fill="#FFFFFF" d="M24.143,95.698h4.968c1.484,0,2.24-0.563,2.24-1.562c0-1.024-0.717-1.588-2.24-1.588h-4.968v-1.945h4.84
		c2.662,0,3.93,1.344,3.93,3.597c0,2.177-1.203,3.457-3.956,3.457h-4.813L24.143,95.698L24.143,95.698z"/>
	<path fill="#FFFFFF" d="M30.763,88.85c0.269-0.524,0.537-1.331,0.537-2.163c0-0.896-0.371-1.37-0.935-1.37
		c-0.537,0-0.845,0.41-1.216,1.446c-0.499,1.435-1.293,2.369-2.548,2.369c-1.472,0-2.599-1.229-2.599-3.265
		c0-0.974,0.205-1.69,0.436-2.202l1.574,0.436c-0.166,0.346-0.409,0.96-0.409,1.805s0.384,1.255,0.832,1.255
		c0.551,0,0.794-0.486,1.216-1.601c0.563-1.523,1.357-2.24,2.573-2.24c1.447,0,2.676,1.113,2.676,3.482
		c0,0.985-0.256,1.958-0.524,2.445L30.763,88.85z"/>
	<path fill="#FFFFFF" d="M25.782,80.338v2.316h-1.639v-6.631h1.639v2.355h6.99v1.959L25.782,80.338L25.782,80.338z"/>
	<path fill="#FFFFFF" d="M29.124,69.855v3.175h2.048v-3.546h1.601v5.505h-8.629v-5.326h1.601v3.367h1.792v-3.175L29.124,69.855
		L29.124,69.855z"/>
	<path fill="#FFFFFF" d="M24.259,68.153c-0.103-0.628-0.179-1.562-0.179-2.599c0-1.28,0.191-2.177,0.679-2.791
		c0.409-0.513,1.011-0.794,1.805-0.794c1.101,0,1.856,0.781,2.125,1.523h0.038c0.244-0.602,0.819-0.935,1.613-1.152
		c0.974-0.269,2.1-0.537,2.433-0.704v1.997c-0.243,0.141-0.947,0.346-2.01,0.602c-1.075,0.23-1.37,0.602-1.383,1.396v0.589h3.393
		v1.934L24.259,68.153L24.259,68.153z M27.972,66.219v-0.768c0-0.974-0.486-1.55-1.242-1.55c-0.793,0-1.19,0.538-1.203,1.435
		c0,0.474,0.038,0.742,0.064,0.883H27.972z"/>
</g>
</svg>
