<?xml version="1.0" encoding="utf-8"?>
<!-- Generator: Adobe Illustrator 17.1.0, SVG Export Plug-In . SVG Version: 6.00 Build 0)  -->
<!DOCTYPE svg PUBLIC "-//W3C//DTD SVG 1.1//EN" "http://www.w3.org/Graphics/SVG/1.1/DTD/svg11.dtd">
<svg version="1.1" id="Layer_1" xmlns="http://www.w3.org/2000/svg" xmlns:xlink="http://www.w3.org/1999/xlink" x="0px" y="0px"
	 viewBox="0 0 566.929 170.079" enable-background="new 0 0 566.929 170.079" xml:space="preserve">
<path fill="#F8FAF6" d="M547.833,150.977H30.852c-1.811,0-3.28-1.468-3.28-3.28V25.957c0-1.811,1.468-3.28,3.28-3.28h516.981
	c0.961,0,1.74,0.779,1.74,1.74v124.82C549.573,150.198,548.794,150.977,547.833,150.977z"/>
<path fill="#FFFFFF" stroke="#75B640" stroke-width="1.6" stroke-miterlimit="10" d="M202.293,126.977H64.852
	c-1.811,0-3.28-1.468-3.28-3.28V50.256c0-1.811,1.468-3.28,3.28-3.28h137.441c1.811,0,3.28,1.468,3.28,3.28v73.441
	C205.573,125.509,204.104,126.977,202.293,126.977z"/>
<g opacity="0.4">
	<path fill="#FFFFFF" d="M106.053,108.397c0,1.352-1.096,2.449-2.449,2.449H80.341c-1.352,0-2.449-1.096-2.449-2.449V85.134
		c0-1.352,1.096-2.449,2.449-2.449h23.263c1.352,0,2.449,1.096,2.449,2.449C106.053,85.134,106.053,108.397,106.053,108.397z"/>
	<path fill="#75B640" d="M103.604,80.686h-0.5c-0.552,0-1,0.448-1,1s0.448,1,1,1h0.5c0.552,0,1-0.448,1-1
		S104.156,80.686,103.604,80.686L103.604,80.686z M100.104,80.686h-0.5c-0.552,0-1,0.448-1,1s0.448,1,1,1h0.5c0.552,0,1-0.448,1-1
		S100.656,80.686,100.104,80.686L100.104,80.686z M96.604,80.686h-0.5c-0.552,0-1,0.448-1,1s0.448,1,1,1h0.5c0.552,0,1-0.448,1-1
		S97.156,80.686,96.604,80.686L96.604,80.686z M93.104,80.686h-0.5c-0.552,0-1,0.448-1,1s0.448,1,1,1h0.5c0.552,0,1-0.448,1-1
		S93.656,80.686,93.104,80.686L93.104,80.686z M89.604,80.686h-0.5c-0.552,0-1,0.448-1,1s0.448,1,1,1h0.5c0.552,0,1-0.448,1-1
		S90.156,80.686,89.604,80.686L89.604,80.686z M86.104,80.686h-0.5c-0.552,0-1,0.448-1,1s0.448,1,1,1h0.5c0.552,0,1-0.448,1-1
		S86.656,80.686,86.104,80.686L86.104,80.686z M82.604,80.686h-0.5c-0.552,0-1,0.448-1,1s0.448,1,1,1h0.5c0.552,0,1-0.448,1-1
		S83.156,80.686,82.604,80.686L82.604,80.686z M78.67,81.117c-0.164,0-0.33,0.04-0.484,0.126c-0.264,0.146-0.514,0.32-0.744,0.518
		c-0.419,0.36-0.467,0.991-0.107,1.41c0.198,0.23,0.478,0.348,0.759,0.348c0.231,0,0.462-0.079,0.651-0.241
		c0.089-0.076,0.183-0.146,0.282-0.209c0,0,0,0,0.001,0c0.001-0.001,0.002-0.001,0.003-0.002l0.001-0.001
		c0.001,0,0.001-0.001,0.002-0.001s0.001-0.001,0.002-0.001s0.001-0.001,0.001-0.001c0.001,0,0.001-0.001,0.002-0.001
		c0,0,0.001,0,0.001-0.001c0.001,0,0.001-0.001,0.002-0.001c0,0,0.001,0,0.001-0.001c0.001,0,0.002-0.001,0.002-0.001h0.001
		c0.001-0.001,0.002-0.001,0.003-0.002l0,0c0.001-0.001,0.002-0.001,0.003-0.002l0,0c0.001-0.001,0.002-0.001,0.003-0.002l0,0
		c0.033-0.02,0.066-0.04,0.1-0.059c0.483-0.268,0.658-0.876,0.39-1.359C79.363,81.303,79.022,81.117,78.67,81.117L78.67,81.117z
		 M76.893,85.025c-0.552,0-1,0.448-1,1v0.5c0,0.552,0.448,1,1,1s1-0.448,1-1v-0.5C77.893,85.473,77.445,85.025,76.893,85.025
		L76.893,85.025z M76.893,88.525c-0.552,0-1,0.448-1,1v0.5c0,0.552,0.448,1,1,1s1-0.448,1-1v-0.5
		C77.893,88.973,77.445,88.525,76.893,88.525L76.893,88.525z M76.893,92.025c-0.552,0-1,0.448-1,1v0.5c0,0.552,0.448,1,1,1
		s1-0.448,1-1v-0.5C77.893,92.473,77.445,92.025,76.893,92.025L76.893,92.025z M76.893,95.525c-0.552,0-1,0.448-1,1v0.5
		c0,0.552,0.448,1,1,1s1-0.448,1-1v-0.5C77.893,95.973,77.445,95.525,76.893,95.525L76.893,95.525z M76.893,99.025
		c-0.552,0-1,0.448-1,1v0.5c0,0.552,0.448,1,1,1s1-0.448,1-1v-0.5C77.893,99.473,77.445,99.025,76.893,99.025L76.893,99.025z
		 M76.893,102.525c-0.552,0-1,0.448-1,1v0.5c0,0.552,0.448,1,1,1s1-0.448,1-1v-0.5C77.893,102.973,77.445,102.525,76.893,102.525
		L76.893,102.525z M76.893,106.025c-0.552,0-1,0.448-1,1v0.5c0,0.552,0.448,1,1,1s1-0.448,1-1v-0.5
		C77.893,106.473,77.445,106.025,76.893,106.025L76.893,106.025z M78.115,110.031c-0.284,0-0.566,0.12-0.764,0.354
		c-0.357,0.422-0.304,1.053,0.117,1.409c0.231,0.195,0.482,0.368,0.747,0.512c0.152,0.083,0.316,0.122,0.477,0.122
		c0.354,0,0.698-0.189,0.879-0.522c0.264-0.485,0.085-1.092-0.4-1.356c-0.028-0.015-0.056-0.031-0.084-0.048h-0.001
		c-0.001,0-0.001-0.001-0.002-0.001c0,0-0.001-0.001-0.002-0.001s-0.001-0.001-0.002-0.001s-0.001-0.001-0.002-0.001l-0.001-0.001
		c-0.001,0-0.001-0.001-0.002-0.001l-0.001-0.001c-0.001,0-0.001-0.001-0.002-0.001c0,0-0.001,0-0.001-0.001
		c-0.001,0-0.001-0.001-0.002-0.001c0,0-0.001,0-0.001-0.001c-0.001,0-0.002-0.001-0.002-0.001s-0.001,0-0.001-0.001
		c-0.001,0-0.001-0.001-0.002-0.001c0,0-0.001,0-0.001-0.001c-0.001,0-0.002-0.001-0.002-0.001s-0.001,0-0.001-0.001
		c-0.001-0.001-0.002-0.001-0.003-0.002c0,0,0,0-0.001,0c-0.001-0.001-0.002-0.001-0.003-0.002l0,0
		c-0.001-0.001-0.002-0.001-0.003-0.002l0,0c-0.013-0.008-0.026-0.017-0.04-0.025l0,0c-0.014-0.009-0.028-0.019-0.042-0.028l0,0
		c-0.001-0.001-0.002-0.001-0.003-0.002l0,0c-0.001-0.001-0.002-0.001-0.003-0.002c0,0,0,0-0.001,0
		c-0.001-0.001-0.002-0.001-0.003-0.002c0,0-0.001,0-0.001-0.001c-0.001-0.001-0.002-0.001-0.002-0.002c0,0-0.001,0-0.001-0.001
		c-0.001-0.001-0.002-0.001-0.002-0.002c0,0-0.001,0-0.001-0.001c-0.001-0.001-0.002-0.001-0.002-0.002c0,0,0,0-0.001,0
		c-0.001-0.001-0.002-0.001-0.002-0.002c0,0-0.001,0-0.001-0.001c-0.001-0.001-0.001-0.001-0.002-0.002c0,0-0.001,0-0.001-0.001
		c-0.001,0-0.002-0.001-0.002-0.002c0,0-0.001,0-0.001-0.001c-0.001-0.001-0.001-0.001-0.002-0.002c0,0-0.001,0-0.001-0.001
		c-0.001,0-0.001-0.001-0.002-0.001c-0.001-0.001-0.002-0.002-0.003-0.002c0,0-0.001,0-0.001-0.001l-0.001-0.001
		c-0.001,0-0.001-0.001-0.002-0.001l-0.001-0.001c-0.001,0-0.001-0.001-0.002-0.001s-0.001-0.001-0.002-0.001l-0.001-0.001
		c-0.001-0.001-0.001-0.001-0.002-0.002c0,0-0.001,0-0.001-0.001c-0.001-0.001-0.002-0.001-0.002-0.002c0,0,0,0-0.001,0
		c-0.001-0.001-0.002-0.001-0.002-0.002c0,0,0,0-0.001-0.001s-0.002-0.001-0.002-0.002l0,0c-0.001-0.001-0.002-0.001-0.003-0.002
		l0,0c-0.001-0.001-0.002-0.001-0.003-0.002l0,0c-0.001-0.001-0.002-0.001-0.003-0.002l0,0c-0.048-0.035-0.094-0.072-0.14-0.11
		C78.572,110.108,78.343,110.031,78.115,110.031L78.115,110.031z M82.622,110.846h-0.5c-0.552,0-1,0.448-1,1s0.448,1,1,1h0.5
		c0.552,0,1-0.448,1-1S83.175,110.846,82.622,110.846L82.622,110.846z M86.122,110.846h-0.5c-0.552,0-1,0.448-1,1s0.448,1,1,1h0.5
		c0.552,0,1-0.448,1-1S86.675,110.846,86.122,110.846L86.122,110.846z M89.622,110.846h-0.5c-0.552,0-1,0.448-1,1s0.448,1,1,1h0.5
		c0.552,0,1-0.448,1-1S90.175,110.846,89.622,110.846L89.622,110.846z M93.122,110.846h-0.5c-0.552,0-1,0.448-1,1s0.448,1,1,1h0.5
		c0.552,0,1-0.448,1-1S93.675,110.846,93.122,110.846L93.122,110.846z M96.622,110.846h-0.5c-0.552,0-1,0.448-1,1s0.448,1,1,1h0.5
		c0.552,0,1-0.448,1-1S97.175,110.846,96.622,110.846L96.622,110.846z M100.122,110.846h-0.5c-0.552,0-1,0.448-1,1s0.448,1,1,1h0.5
		c0.552,0,1-0.448,1-1S100.675,110.846,100.122,110.846L100.122,110.846z M103.604,110.846h-0.482c-0.552,0-1,0.448-1,1s0.448,1,1,1
		h0.482c0.552,0,1-0.448,1-1S104.156,110.846,103.604,110.846L103.604,110.846z M107.021,107.857c-0.493,0-0.922,0.364-0.99,0.866
		c-0.022,0.169-0.062,0.333-0.118,0.49c-0.182,0.52,0.092,1.09,0.612,1.273c0.11,0.039,0.222,0.057,0.332,0.057
		c0.413,0,0.799-0.257,0.943-0.668c0.101-0.286,0.172-0.583,0.212-0.884c0.073-0.547-0.311-1.051-0.859-1.124
		C107.11,107.86,107.065,107.857,107.021,107.857L107.021,107.857z M107.053,104.226c-0.552,0-1,0.448-1,1v0.5c0,0.552,0.448,1,1,1
		s1-0.448,1-1v-0.5C108.053,104.673,107.605,104.226,107.053,104.226L107.053,104.226z M107.053,100.726c-0.552,0-1,0.448-1,1v0.5
		c0,0.552,0.448,1,1,1s1-0.448,1-1v-0.5C108.053,101.173,107.605,100.726,107.053,100.726L107.053,100.726z M107.053,97.226
		c-0.552,0-1,0.448-1,1v0.5c0,0.552,0.448,1,1,1s1-0.448,1-1v-0.5C108.053,97.673,107.605,97.226,107.053,97.226L107.053,97.226z
		 M107.053,93.726c-0.552,0-1,0.448-1,1v0.5c0,0.552,0.448,1,1,1s1-0.448,1-1v-0.5C108.053,94.173,107.605,93.726,107.053,93.726
		L107.053,93.726z M107.053,90.226c-0.552,0-1,0.448-1,1v0.5c0,0.552,0.448,1,1,1s1-0.448,1-1v-0.5
		C108.053,90.673,107.605,90.226,107.053,90.226L107.053,90.226z M107.053,86.726c-0.552,0-1,0.448-1,1v0.5c0,0.552,0.448,1,1,1
		s1-0.448,1-1v-0.5C108.053,87.173,107.605,86.726,107.053,86.726L107.053,86.726z M106.818,82.883
		c-0.121,0-0.243,0.022-0.363,0.068c-0.514,0.2-0.769,0.78-0.569,1.294c0.008,0.019,0.015,0.039,0.022,0.058l0,0
		c0,0.001,0.001,0.002,0.001,0.003l0,0c0,0.001,0.001,0.002,0.001,0.003v0.001c0,0.001,0.001,0.002,0.001,0.003v0.001
		c0,0.001,0.001,0.002,0.001,0.003v0.001c0,0.001,0.001,0.002,0.001,0.003v0.001c0,0.001,0.001,0.002,0.001,0.002v0.001
		c0,0.001,0.001,0.002,0.001,0.002v0.001c0,0.001,0,0.001,0.001,0.002c0,0.001,0,0.001,0.001,0.002c0,0.001,0,0.001,0.001,0.002
		c0,0.001,0,0.001,0.001,0.002c0,0.001,0,0.001,0.001,0.002c0,0.001,0,0.001,0.001,0.002c0,0.001,0,0.001,0.001,0.002
		c0,0.001,0,0.001,0.001,0.002c0,0.001,0,0.001,0.001,0.002c0,0.001,0,0.001,0.001,0.002c0,0.001,0,0.001,0.001,0.002
		c0,0.001,0,0.001,0.001,0.002c0,0.001,0,0.001,0.001,0.002c0,0.001,0,0.001,0.001,0.002v0.001c0,0.001,0.001,0.002,0.001,0.002
		v0.001c0,0.001,0.001,0.002,0.001,0.003v0.001c0,0.001,0.001,0.002,0.001,0.003c0,0,0,0,0,0.001s0.001,0.002,0.001,0.003l0,0
		c0.03,0.093,0.055,0.188,0.075,0.285l0,0c0,0.001,0,0.002,0.001,0.003l0,0c0,0.001,0,0.002,0.001,0.003l0,0
		c0,0.001,0,0.002,0.001,0.003v0.001c0,0.001,0,0.002,0.001,0.003v0.001c0,0.001,0,0.002,0.001,0.003v0.001
		c0,0.001,0,0.002,0.001,0.003v0.001c0,0.001,0,0.002,0,0.003v0.001c0,0.001,0,0.002,0,0.002c0,0.001,0,0.001,0,0.002
		s0,0.001,0,0.002s0,0.001,0,0.002s0,0.001,0,0.002s0,0.001,0,0.002s0,0.001,0,0.002s0,0.001,0,0.002s0,0.001,0,0.002
		s0,0.002,0,0.002v0.001c0,0.001,0,0.002,0,0.003v0.001c0,0.001,0,0.002,0,0.003v0.001c0,0.001,0,0.002,0.001,0.003l0,0
		c0.001,0.004,0.001,0.008,0.002,0.012c0.082,0.489,0.505,0.835,0.985,0.835c0.055,0,0.11-0.005,0.166-0.014
		c0.545-0.091,0.912-0.607,0.821-1.151c-0.05-0.299-0.131-0.594-0.241-0.877C107.596,83.125,107.218,82.883,106.818,82.883
		L106.818,82.883z"/>
</g>
<g>
	<path fill="#FFFFFF" d="M122.999,111.566c-2.33,0-4.226-1.896-4.226-4.227V86.192c0-2.33,1.896-4.226,4.226-4.226h21.147
		c2.33,0,4.226,1.896,4.226,4.226v21.147c0,2.33-1.896,4.227-4.226,4.227H122.999z"/>
	<g>
		<path fill="#75B640" d="M144.147,83.966c1.229,0,2.226,0.997,2.226,2.226v21.148c0,1.229-0.997,2.226-2.226,2.226h-21.148
			c-1.229,0-2.226-0.997-2.226-2.226V86.192c0-1.229,0.997-2.226,2.226-2.226H144.147 M144.147,79.966h-21.148
			c-3.433,0-6.226,2.793-6.226,6.226v21.148c0,3.433,2.793,6.226,6.226,6.226h21.148c3.433,0,6.226-2.793,6.226-6.226V86.192
			C150.373,82.759,147.58,79.966,144.147,79.966L144.147,79.966z"/>
	</g>
</g>
<g>
	<path fill="#FFFFFF" d="M164.599,111.566c-2.33,0-4.226-1.896-4.226-4.227V86.192c0-2.33,1.896-4.226,4.226-4.226h21.148
		c2.33,0,4.226,1.896,4.226,4.226v21.147c0,2.33-1.896,4.227-4.226,4.227H164.599z"/>
	<g>
		<path fill="#75B640" d="M185.747,83.966c1.229,0,2.226,0.997,2.226,2.226v21.148c0,1.229-0.997,2.226-2.226,2.226h-21.148
			c-1.229,0-2.226-0.997-2.226-2.226V86.192c0-1.229,0.997-2.226,2.226-2.226H185.747 M185.747,79.966h-21.148
			c-3.433,0-6.226,2.793-6.226,6.226v21.148c0,3.433,2.793,6.226,6.226,6.226h21.148c3.433,0,6.226-2.793,6.226-6.226V86.192
			C191.973,82.759,189.18,79.966,185.747,79.966L185.747,79.966z"/>
	</g>
</g>
<g>
	<path fill="#454746" d="M168.747,92.063c0.602-0.103,1.447-0.179,2.638-0.179c1.203,0,2.061,0.23,2.637,0.691
		c0.551,0.435,0.922,1.151,0.922,1.997c0,0.845-0.281,1.562-0.794,2.048c-0.665,0.628-1.651,0.909-2.804,0.909
		c-0.256,0-0.486-0.013-0.665-0.038v3.085h-1.934L168.747,92.063L168.747,92.063z M170.681,95.981
		c0.166,0.038,0.371,0.051,0.652,0.051c1.037,0,1.678-0.524,1.678-1.408c0-0.794-0.551-1.268-1.523-1.268
		c-0.397,0-0.666,0.039-0.807,0.077L170.681,95.981L170.681,95.981z"/>
	<path fill="#454746" d="M175.877,100.577v-1.178l1.075-0.973c1.817-1.626,2.701-2.561,2.727-3.534c0-0.678-0.409-1.216-1.37-1.216
		c-0.717,0-1.344,0.358-1.779,0.691l-0.551-1.396c0.628-0.474,1.601-0.857,2.728-0.857c1.882,0,2.919,1.101,2.919,2.611
		c0,1.396-1.012,2.509-2.215,3.585l-0.769,0.64v0.025h3.137v1.601L175.877,100.577L175.877,100.577z"/>
</g>
<g>
	<path fill="#454746" d="M127.147,92.063c0.602-0.103,1.447-0.179,2.638-0.179c1.203,0,2.061,0.23,2.637,0.691
		c0.551,0.435,0.922,1.151,0.922,1.997c0,0.845-0.281,1.562-0.794,2.048c-0.665,0.628-1.651,0.909-2.804,0.909
		c-0.256,0-0.486-0.013-0.665-0.038v3.085h-1.934L127.147,92.063L127.147,92.063z M129.081,95.981
		c0.166,0.038,0.371,0.051,0.652,0.051c1.037,0,1.678-0.524,1.678-1.408c0-0.794-0.551-1.268-1.523-1.268
		c-0.397,0-0.666,0.039-0.807,0.077L129.081,95.981L129.081,95.981z"/>
	<path fill="#454746" d="M136.761,93.984h-0.025l-1.588,0.755l-0.32-1.459l2.202-1.024h1.613v8.321h-1.882V93.984z"/>
</g>
<path fill="#FFFFFF" stroke="#75B640" stroke-width="1.6" stroke-miterlimit="10" d="M362.293,126.977H224.852
	c-1.811,0-3.28-1.468-3.28-3.28V50.256c0-1.811,1.468-3.28,3.28-3.28h137.441c1.811,0,3.28,1.468,3.28,3.28v73.441
	C365.573,125.509,364.104,126.977,362.293,126.977z"/>
<g>
	<path fill="#FFFFFF" d="M241.399,111.566c-2.33,0-4.226-1.896-4.226-4.227V86.192c0-2.33,1.896-4.226,4.226-4.226h21.148
		c2.33,0,4.226,1.896,4.226,4.226v21.147c0,2.33-1.896,4.227-4.226,4.227H241.399z"/>
	<g>
		<path fill="#C6C6C6" d="M262.547,83.966c1.229,0,2.226,0.997,2.226,2.226v21.148c0,1.229-0.997,2.226-2.226,2.226h-21.148
			c-1.229,0-2.226-0.997-2.226-2.226V86.192c0-1.229,0.997-2.226,2.226-2.226H262.547 M262.547,79.966h-21.148
			c-3.433,0-6.226,2.793-6.226,6.226v21.148c0,3.433,2.793,6.226,6.226,6.226h21.148c3.433,0,6.226-2.793,6.226-6.226V86.192
			C268.773,82.759,265.98,79.966,262.547,79.966L262.547,79.966z"/>
	</g>
</g>
<g>
	<path fill="#FFFFFF" d="M282.999,111.566c-2.33,0-4.226-1.896-4.226-4.227V86.192c0-2.33,1.896-4.226,4.226-4.226h21.148
		c2.33,0,4.226,1.896,4.226,4.226v21.147c0,2.33-1.896,4.227-4.226,4.227H282.999z"/>
	<path fill="#C6C6C6" d="M304.147,83.966c1.229,0,2.226,0.997,2.226,2.226v21.148c0,1.229-0.997,2.226-2.226,2.226h-21.148
		c-1.229,0-2.226-0.997-2.226-2.226V86.192c0-1.229,0.997-2.226,2.226-2.226H304.147 M304.147,79.966h-21.148
		c-3.433,0-6.226,2.793-6.226,6.226v21.148c0,3.433,2.793,6.226,6.226,6.226h21.148c3.433,0,6.226-2.793,6.226-6.226V86.192
		C310.373,82.759,307.58,79.966,304.147,79.966L304.147,79.966z"/>
</g>
<g>
	<path fill="#454746" d="M245.471,92.063c0.628-0.103,1.562-0.179,2.599-0.179c1.28,0,2.177,0.191,2.791,0.679
		c0.513,0.409,0.794,1.011,0.794,1.805c0,1.101-0.781,1.856-1.523,2.125v0.038c0.602,0.244,0.935,0.819,1.152,1.613
		c0.269,0.974,0.537,2.1,0.704,2.433h-1.997c-0.141-0.243-0.346-0.947-0.602-2.01c-0.23-1.075-0.602-1.37-1.396-1.383h-0.589v3.393
		h-1.934L245.471,92.063L245.471,92.063z M247.404,95.776h0.768c0.974,0,1.55-0.486,1.55-1.242c0-0.793-0.538-1.19-1.435-1.203
		c-0.474,0-0.742,0.038-0.883,0.064V95.776z"/>
	<path fill="#454746" d="M258.898,96.378c0,2.573-1.037,4.34-3.162,4.34c-2.15,0-3.098-1.933-3.111-4.288
		c0-2.407,1.024-4.314,3.176-4.314C258.028,92.115,258.898,94.099,258.898,96.378z M254.584,96.429
		c-0.013,1.907,0.448,2.816,1.204,2.816c0.755,0,1.164-0.947,1.164-2.843c0-1.843-0.396-2.816-1.178-2.816
		C255.057,93.587,254.571,94.496,254.584,96.429z"/>
</g>
<g opacity="0.4">
	<path fill="#FFFFFF" d="M349.253,108.397c0,1.352-1.096,2.449-2.449,2.449h-23.263c-1.352,0-2.449-1.096-2.449-2.449V85.134
		c0-1.352,1.096-2.449,2.449-2.449h23.263c1.352,0,2.449,1.096,2.449,2.449V108.397z"/>
	<g>
		<path fill="#C6C6C6" d="M346.804,80.686h-0.5c-0.552,0-1,0.448-1,1s0.448,1,1,1h0.5c0.552,0,1-0.448,1-1
			S347.356,80.686,346.804,80.686L346.804,80.686z M343.304,80.686h-0.5c-0.552,0-1,0.448-1,1s0.448,1,1,1h0.5c0.552,0,1-0.448,1-1
			S343.856,80.686,343.304,80.686L343.304,80.686z M339.804,80.686h-0.5c-0.552,0-1,0.448-1,1s0.448,1,1,1h0.5c0.552,0,1-0.448,1-1
			S340.356,80.686,339.804,80.686L339.804,80.686z M336.304,80.686h-0.5c-0.552,0-1,0.448-1,1s0.448,1,1,1h0.5c0.552,0,1-0.448,1-1
			S336.856,80.686,336.304,80.686L336.304,80.686z M332.804,80.686h-0.5c-0.552,0-1,0.448-1,1s0.448,1,1,1h0.5c0.552,0,1-0.448,1-1
			S333.356,80.686,332.804,80.686L332.804,80.686z M329.304,80.686h-0.5c-0.552,0-1,0.448-1,1s0.448,1,1,1h0.5c0.552,0,1-0.448,1-1
			S329.856,80.686,329.304,80.686L329.304,80.686z M325.804,80.686h-0.5c-0.552,0-1,0.448-1,1s0.448,1,1,1h0.5c0.552,0,1-0.448,1-1
			S326.356,80.686,325.804,80.686L325.804,80.686z M321.87,81.117c-0.164,0-0.33,0.04-0.484,0.126
			c-0.264,0.146-0.514,0.32-0.743,0.518c-0.419,0.36-0.467,0.991-0.107,1.41c0.198,0.23,0.478,0.348,0.759,0.348
			c0.23,0,0.461-0.079,0.65-0.24c0.026-0.022,0.053-0.044,0.08-0.066l0,0c0.001-0.001,0.002-0.001,0.002-0.002
			c0,0,0.001,0,0.001-0.001c0.001-0.001,0.001-0.001,0.002-0.002l0.001-0.001c0.001,0,0.001-0.001,0.002-0.001l0.001-0.001
			c0,0,0.001-0.001,0.002-0.001s0.001-0.001,0.002-0.001l0.001-0.001c0.001,0,0.001-0.001,0.002-0.001l0.001-0.001
			c0.001,0,0.001-0.001,0.002-0.001l0.001-0.001c0.001-0.001,0.001-0.001,0.002-0.002c0,0,0.001,0,0.001-0.001
			c0.001-0.001,0.001-0.001,0.002-0.002c0,0,0,0,0.001,0c0.001-0.001,0.002-0.001,0.002-0.002l0,0
			c0.096-0.073,0.197-0.14,0.303-0.198c0.483-0.268,0.658-0.876,0.39-1.359C322.563,81.303,322.222,81.117,321.87,81.117
			L321.87,81.117z M320.093,85.025c-0.552,0-1,0.448-1,1v0.5c0,0.552,0.448,1,1,1s1-0.448,1-1v-0.5
			C321.093,85.473,320.645,85.025,320.093,85.025L320.093,85.025z M320.093,88.525c-0.552,0-1,0.448-1,1v0.5c0,0.552,0.448,1,1,1
			s1-0.448,1-1v-0.5C321.093,88.973,320.645,88.525,320.093,88.525L320.093,88.525z M320.093,92.025c-0.552,0-1,0.448-1,1v0.5
			c0,0.552,0.448,1,1,1s1-0.448,1-1v-0.5C321.093,92.473,320.645,92.025,320.093,92.025L320.093,92.025z M320.093,95.525
			c-0.552,0-1,0.448-1,1v0.5c0,0.552,0.448,1,1,1s1-0.448,1-1v-0.5C321.093,95.973,320.645,95.525,320.093,95.525L320.093,95.525z
			 M320.093,99.025c-0.552,0-1,0.448-1,1v0.5c0,0.552,0.448,1,1,1s1-0.448,1-1v-0.5C321.093,99.473,320.645,99.025,320.093,99.025
			L320.093,99.025z M320.093,102.525c-0.552,0-1,0.448-1,1v0.5c0,0.552,0.448,1,1,1s1-0.448,1-1v-0.5
			C321.093,102.973,320.645,102.525,320.093,102.525L320.093,102.525z M320.093,106.025c-0.552,0-1,0.448-1,1v0.5
			c0,0.552,0.448,1,1,1s1-0.448,1-1v-0.5C321.093,106.473,320.645,106.025,320.093,106.025L320.093,106.025z M321.315,110.031
			c-0.284,0-0.566,0.12-0.764,0.354c-0.357,0.422-0.304,1.053,0.117,1.409c0.231,0.195,0.482,0.368,0.747,0.512
			c0.152,0.083,0.316,0.122,0.477,0.122c0.354,0,0.698-0.189,0.879-0.522c0.264-0.485,0.085-1.092-0.399-1.356
			c-0.011-0.006-0.021-0.012-0.032-0.017l0,0c-0.001-0.001-0.002-0.001-0.003-0.002c0,0-0.001,0-0.001-0.001
			c-0.001,0-0.002-0.001-0.002-0.001s-0.001,0-0.001-0.001c-0.001,0-0.001-0.001-0.002-0.001s-0.001-0.001-0.002-0.001
			s-0.001-0.001-0.002-0.001s-0.001-0.001-0.002-0.001l-0.001-0.001c-0.001,0-0.001-0.001-0.002-0.001l-0.001-0.001
			c-0.001,0-0.001-0.001-0.002-0.001c0,0-0.001,0-0.001-0.001c-0.001,0-0.002-0.001-0.003-0.001c0,0,0,0-0.001,0
			c-0.001-0.001-0.002-0.001-0.003-0.002l0,0c-0.124-0.072-0.24-0.154-0.349-0.246l0,0c-0.001-0.001-0.002-0.001-0.002-0.002
			c0,0,0,0-0.001,0c0,0,0,0-0.001-0.001C321.772,110.108,321.543,110.031,321.315,110.031L321.315,110.031z M325.822,110.846h-0.5
			c-0.552,0-1,0.448-1,1s0.448,1,1,1h0.5c0.552,0,1-0.448,1-1S326.375,110.846,325.822,110.846L325.822,110.846z M329.322,110.846
			h-0.5c-0.552,0-1,0.448-1,1s0.448,1,1,1h0.5c0.552,0,1-0.448,1-1S329.875,110.846,329.322,110.846L329.322,110.846z
			 M332.822,110.846h-0.5c-0.552,0-1,0.448-1,1s0.448,1,1,1h0.5c0.552,0,1-0.448,1-1S333.375,110.846,332.822,110.846
			L332.822,110.846z M336.322,110.846h-0.5c-0.552,0-1,0.448-1,1s0.448,1,1,1h0.5c0.552,0,1-0.448,1-1
			S336.875,110.846,336.322,110.846L336.322,110.846z M339.822,110.846h-0.5c-0.552,0-1,0.448-1,1s0.448,1,1,1h0.5
			c0.552,0,1-0.448,1-1S340.375,110.846,339.822,110.846L339.822,110.846z M343.322,110.846h-0.5c-0.552,0-1,0.448-1,1s0.448,1,1,1
			h0.5c0.552,0,1-0.448,1-1S343.875,110.846,343.322,110.846L343.322,110.846z M346.804,110.846h-0.482c-0.552,0-1,0.448-1,1
			s0.448,1,1,1h0.482c0.552,0,1-0.448,1-1S347.356,110.846,346.804,110.846L346.804,110.846z M350.221,107.857
			c-0.493,0-0.922,0.365-0.99,0.867c-0.008,0.062-0.019,0.123-0.032,0.183l0,0c0,0.001-0.001,0.003-0.001,0.004l0,0
			c0,0.001,0,0.002-0.001,0.003l0,0c0,0.001,0,0.002-0.001,0.003l0,0c0,0.001,0,0.002-0.001,0.003l0,0c0,0.001,0,0.002-0.001,0.003
			l0,0c0,0.001,0,0.002-0.001,0.003l0,0c0,0.001,0,0.002-0.001,0.003c0,0,0,0,0,0.001s0,0.002-0.001,0.003c0,0,0,0,0,0.001
			s0,0.002-0.001,0.003v0.001c0,0.001,0,0.002-0.001,0.003v0.001c0,0.001,0,0.002-0.001,0.003v0.001c0,0.001,0,0.002-0.001,0.003
			v0.001c0,0.001,0,0.002-0.001,0.002v0.001c0,0.001,0,0.001-0.001,0.002c0,0,0,0.001,0,0.002s0,0.001,0,0.002s0,0.001,0,0.002
			s0,0.001,0,0.002s0,0.001,0,0.002v0.001c0,0.001,0,0.002-0.001,0.003l0,0c-0.019,0.081-0.043,0.16-0.07,0.237
			c-0.183,0.521,0.09,1.092,0.611,1.275c0.11,0.039,0.222,0.057,0.332,0.057c0.413,0,0.799-0.257,0.943-0.668
			c0.101-0.286,0.172-0.583,0.212-0.884c0.073-0.547-0.311-1.051-0.859-1.124C350.31,107.86,350.265,107.857,350.221,107.857
			L350.221,107.857z M350.253,104.226c-0.552,0-1,0.448-1,1v0.5c0,0.552,0.448,1,1,1s1-0.448,1-1v-0.5
			C351.253,104.673,350.805,104.226,350.253,104.226L350.253,104.226z M350.253,100.726c-0.552,0-1,0.448-1,1v0.5
			c0,0.552,0.448,1,1,1s1-0.448,1-1v-0.5C351.253,101.173,350.805,100.726,350.253,100.726L350.253,100.726z M350.253,97.226
			c-0.552,0-1,0.448-1,1v0.5c0,0.552,0.448,1,1,1s1-0.448,1-1v-0.5C351.253,97.673,350.805,97.226,350.253,97.226L350.253,97.226z
			 M350.253,93.726c-0.552,0-1,0.448-1,1v0.5c0,0.552,0.448,1,1,1s1-0.448,1-1v-0.5C351.253,94.173,350.805,93.726,350.253,93.726
			L350.253,93.726z M350.253,90.226c-0.552,0-1,0.448-1,1v0.5c0,0.552,0.448,1,1,1s1-0.448,1-1v-0.5
			C351.253,90.673,350.805,90.226,350.253,90.226L350.253,90.226z M350.253,86.726c-0.552,0-1,0.448-1,1v0.5c0,0.552,0.448,1,1,1
			s1-0.448,1-1v-0.5C351.253,87.173,350.805,86.726,350.253,86.726L350.253,86.726z M350.018,82.883
			c-0.121,0-0.243,0.022-0.363,0.068c-0.514,0.2-0.769,0.779-0.57,1.293c0.022,0.056,0.042,0.113,0.059,0.17l0,0
			c0,0.001,0.001,0.002,0.001,0.004l0,0c0,0.001,0.001,0.002,0.001,0.003c0,0,0,0,0,0.001s0.001,0.002,0.001,0.003c0,0,0,0,0,0.001
			s0.001,0.002,0.001,0.003v0.001c0,0.001,0.001,0.002,0.001,0.003v0.001c0,0.001,0.001,0.002,0.001,0.003v0.001
			c0,0.001,0.001,0.002,0.001,0.003v0.001c0,0.001,0.001,0.002,0.001,0.003v0.001c0,0.001,0.001,0.002,0.001,0.003v0.001
			c0,0.001,0.001,0.002,0.001,0.003v0.001c0,0.001,0.001,0.002,0.001,0.003v0.001c0,0.001,0.001,0.002,0.001,0.003v0.001
			c0,0.001,0.001,0.002,0.001,0.003v0.001c0,0.001,0.001,0.002,0.001,0.003v0.001c0,0.001,0.001,0.002,0.001,0.003v0.001
			c0,0.001,0.001,0.002,0.001,0.003v0.001c0,0.001,0.001,0.002,0.001,0.003c0,0,0,0,0,0.001s0.001,0.002,0.001,0.003v0.001
			c0,0.001,0.001,0.002,0.001,0.003l0,0c0.002,0.009,0.005,0.018,0.007,0.026l0,0c0.001,0.003,0.001,0.005,0.002,0.008l0,0
			c0.001,0.003,0.001,0.005,0.002,0.007l0,0c0,0.001,0.001,0.002,0.001,0.003l0,0c0,0.001,0.001,0.002,0.001,0.003l0,0
			c0,0.001,0.001,0.002,0.001,0.003l0,0c0,0.001,0.001,0.002,0.001,0.003c0,0,0,0,0,0.001s0.001,0.002,0.001,0.003l0,0
			c0,0.001,0.001,0.002,0.001,0.003l0,0c0,0.001,0.001,0.002,0.001,0.003l0,0c0,0.001,0.001,0.002,0.001,0.003l0,0
			c0,0.001,0.001,0.002,0.001,0.003l0,0c0,0.001,0.001,0.002,0.001,0.004l0,0c0,0.001,0.001,0.002,0.001,0.004l0,0
			c0.012,0.053,0.023,0.106,0.032,0.16c0.082,0.488,0.506,0.834,0.985,0.834c0.055,0,0.11-0.005,0.166-0.014
			c0.545-0.091,0.912-0.607,0.821-1.151c-0.05-0.299-0.131-0.594-0.241-0.877C350.796,83.125,350.418,82.883,350.018,82.883
			L350.018,82.883z"/>
	</g>
</g>
<g>
	<path fill="#454746" d="M287.072,92.063c0.628-0.103,1.562-0.179,2.599-0.179c1.28,0,2.177,0.191,2.791,0.679
		c0.513,0.409,0.794,1.011,0.794,1.805c0,1.101-0.781,1.856-1.523,2.125v0.038c0.602,0.244,0.935,0.819,1.152,1.613
		c0.269,0.974,0.537,2.1,0.704,2.433h-1.997c-0.141-0.243-0.346-0.947-0.602-2.01c-0.23-1.075-0.602-1.37-1.396-1.383h-0.589v3.393
		h-1.934L287.072,92.063L287.072,92.063z M289.005,95.776h0.768c0.974,0,1.55-0.486,1.55-1.242c0-0.793-0.538-1.19-1.435-1.203
		c-0.474,0-0.742,0.038-0.883,0.064V95.776z"/>
	<path fill="#454746" d="M296.838,93.984h-0.025l-1.588,0.755l-0.32-1.459l2.202-1.024h1.613v8.321h-1.882V93.984z"/>
</g>
<path fill="#FFFFFF" stroke="#75B640" stroke-width="1.6" stroke-miterlimit="10" d="M522.293,126.977H384.852
	c-1.811,0-3.28-1.468-3.28-3.28V50.256c0-1.811,1.468-3.28,3.28-3.28h137.441c1.811,0,3.28,1.468,3.28,3.28v73.441
	C525.573,125.509,524.104,126.977,522.293,126.977z"/>
<g>
	<path fill="#FFFFFF" d="M401.399,111.566c-2.33,0-4.227-1.896-4.227-4.227V86.192c0-2.33,1.896-4.226,4.227-4.226h21.147
		c2.33,0,4.227,1.896,4.227,4.226v21.147c0,2.33-1.896,4.227-4.227,4.227H401.399z"/>
	<path fill="#75B640" d="M422.547,83.966c1.229,0,2.226,0.997,2.226,2.226v21.148c0,1.229-0.997,2.226-2.226,2.226h-21.148
		c-1.229,0-2.226-0.997-2.226-2.226V86.192c0-1.229,0.997-2.226,2.226-2.226H422.547 M422.547,79.966h-21.148
		c-3.433,0-6.226,2.793-6.226,6.226v21.148c0,3.433,2.793,6.226,6.226,6.226h21.148c3.433,0,6.226-2.793,6.226-6.226V86.192
		C428.773,82.759,425.98,79.966,422.547,79.966L422.547,79.966z"/>
</g>
<g opacity="0.4">
	<path fill="#FFFFFF" d="M467.653,108.397c0,1.352-1.096,2.449-2.449,2.449h-23.263c-1.352,0-2.449-1.096-2.449-2.449V85.134
		c0-1.352,1.096-2.449,2.449-2.449h23.263c1.352,0,2.449,1.096,2.449,2.449V108.397z"/>
	<path fill="#C6C6C6" d="M465.204,80.686h-0.5c-0.552,0-1,0.448-1,1s0.448,1,1,1h0.5c0.552,0,1-0.448,1-1
		S465.756,80.686,465.204,80.686L465.204,80.686z M461.704,80.686h-0.5c-0.552,0-1,0.448-1,1s0.448,1,1,1h0.5c0.552,0,1-0.448,1-1
		S462.256,80.686,461.704,80.686L461.704,80.686z M458.204,80.686h-0.5c-0.552,0-1,0.448-1,1s0.448,1,1,1h0.5c0.552,0,1-0.448,1-1
		S458.756,80.686,458.204,80.686L458.204,80.686z M454.704,80.686h-0.5c-0.552,0-1,0.448-1,1s0.448,1,1,1h0.5c0.552,0,1-0.448,1-1
		S455.256,80.686,454.704,80.686L454.704,80.686z M451.204,80.686h-0.5c-0.552,0-1,0.448-1,1s0.448,1,1,1h0.5c0.552,0,1-0.448,1-1
		S451.756,80.686,451.204,80.686L451.204,80.686z M447.704,80.686h-0.5c-0.552,0-1,0.448-1,1s0.448,1,1,1h0.5c0.552,0,1-0.448,1-1
		S448.256,80.686,447.704,80.686L447.704,80.686z M444.204,80.686h-0.5c-0.552,0-1,0.448-1,1s0.448,1,1,1h0.5c0.552,0,1-0.448,1-1
		S444.756,80.686,444.204,80.686L444.204,80.686z M440.27,81.117c-0.164,0-0.33,0.04-0.484,0.126
		c-0.264,0.146-0.514,0.32-0.743,0.518c-0.419,0.36-0.467,0.991-0.107,1.41c0.198,0.23,0.478,0.348,0.759,0.348
		c0.23,0,0.461-0.079,0.65-0.24c0.026-0.022,0.053-0.044,0.08-0.066l0,0c0.001-0.001,0.002-0.001,0.002-0.002
		c0,0,0.001,0,0.001-0.001c0.001-0.001,0.001-0.001,0.002-0.002l0.001-0.001c0.001,0,0.001-0.001,0.002-0.001l0.001-0.001
		c0,0,0.001-0.001,0.002-0.001s0.001-0.001,0.002-0.001l0.001-0.001c0.001,0,0.001-0.001,0.002-0.001l0.001-0.001
		c0.001,0,0.001-0.001,0.002-0.001l0.001-0.001c0.001-0.001,0.001-0.001,0.002-0.002c0,0,0.001,0,0.001-0.001
		c0.001-0.001,0.001-0.001,0.002-0.002c0,0,0,0,0.001,0c0.001-0.001,0.002-0.001,0.002-0.002l0,0
		c0.096-0.073,0.197-0.14,0.303-0.198c0.483-0.268,0.658-0.876,0.39-1.359C440.963,81.303,440.622,81.117,440.27,81.117
		L440.27,81.117z M438.493,85.025c-0.552,0-1,0.448-1,1v0.5c0,0.552,0.448,1,1,1s1-0.448,1-1v-0.5
		C439.493,85.473,439.045,85.025,438.493,85.025L438.493,85.025z M438.493,88.525c-0.552,0-1,0.448-1,1v0.5c0,0.552,0.448,1,1,1
		s1-0.448,1-1v-0.5C439.493,88.973,439.045,88.525,438.493,88.525L438.493,88.525z M438.493,92.025c-0.552,0-1,0.448-1,1v0.5
		c0,0.552,0.448,1,1,1s1-0.448,1-1v-0.5C439.493,92.473,439.045,92.025,438.493,92.025L438.493,92.025z M438.493,95.525
		c-0.552,0-1,0.448-1,1v0.5c0,0.552,0.448,1,1,1s1-0.448,1-1v-0.5C439.493,95.973,439.045,95.525,438.493,95.525L438.493,95.525z
		 M438.493,99.025c-0.552,0-1,0.448-1,1v0.5c0,0.552,0.448,1,1,1s1-0.448,1-1v-0.5C439.493,99.473,439.045,99.025,438.493,99.025
		L438.493,99.025z M438.493,102.525c-0.552,0-1,0.448-1,1v0.5c0,0.552,0.448,1,1,1s1-0.448,1-1v-0.5
		C439.493,102.973,439.045,102.525,438.493,102.525L438.493,102.525z M438.493,106.025c-0.552,0-1,0.448-1,1v0.5
		c0,0.552,0.448,1,1,1s1-0.448,1-1v-0.5C439.493,106.473,439.045,106.025,438.493,106.025L438.493,106.025z M439.715,110.031
		c-0.284,0-0.566,0.12-0.764,0.354c-0.357,0.422-0.304,1.053,0.117,1.409c0.231,0.195,0.482,0.368,0.747,0.512
		c0.152,0.083,0.316,0.122,0.477,0.122c0.354,0,0.698-0.189,0.879-0.522c0.264-0.485,0.085-1.092-0.399-1.356
		c-0.011-0.006-0.021-0.012-0.032-0.017l0,0c-0.001-0.001-0.002-0.001-0.003-0.002c0,0-0.001,0-0.001-0.001
		c-0.001,0-0.002-0.001-0.002-0.001s-0.001,0-0.001-0.001c-0.001,0-0.001-0.001-0.002-0.001s-0.001-0.001-0.002-0.001
		s-0.001-0.001-0.002-0.001s-0.001-0.001-0.002-0.001l-0.001-0.001c-0.001,0-0.001-0.001-0.002-0.001l-0.001-0.001
		c-0.001,0-0.001-0.001-0.002-0.001c0,0-0.001,0-0.001-0.001c-0.001,0-0.002-0.001-0.003-0.001c0,0,0,0-0.001,0
		c-0.001-0.001-0.002-0.001-0.003-0.002l0,0c-0.124-0.072-0.24-0.154-0.349-0.246l0,0c-0.001-0.001-0.002-0.001-0.002-0.002
		c0,0,0,0-0.001,0c0,0,0,0-0.001-0.001C440.172,110.108,439.943,110.031,439.715,110.031L439.715,110.031z M444.222,110.846h-0.5
		c-0.552,0-1,0.448-1,1s0.448,1,1,1h0.5c0.552,0,1-0.448,1-1S444.775,110.846,444.222,110.846L444.222,110.846z M447.722,110.846
		h-0.5c-0.552,0-1,0.448-1,1s0.448,1,1,1h0.5c0.552,0,1-0.448,1-1S448.275,110.846,447.722,110.846L447.722,110.846z
		 M451.222,110.846h-0.5c-0.552,0-1,0.448-1,1s0.448,1,1,1h0.5c0.552,0,1-0.448,1-1S451.775,110.846,451.222,110.846
		L451.222,110.846z M454.722,110.846h-0.5c-0.552,0-1,0.448-1,1s0.448,1,1,1h0.5c0.552,0,1-0.448,1-1
		S455.275,110.846,454.722,110.846L454.722,110.846z M458.222,110.846h-0.5c-0.552,0-1,0.448-1,1s0.448,1,1,1h0.5
		c0.552,0,1-0.448,1-1S458.775,110.846,458.222,110.846L458.222,110.846z M461.722,110.846h-0.5c-0.552,0-1,0.448-1,1s0.448,1,1,1
		h0.5c0.552,0,1-0.448,1-1S462.275,110.846,461.722,110.846L461.722,110.846z M465.204,110.846h-0.482c-0.552,0-1,0.448-1,1
		s0.448,1,1,1h0.482c0.552,0,1-0.448,1-1S465.756,110.846,465.204,110.846L465.204,110.846z M468.621,107.857
		c-0.493,0-0.922,0.365-0.99,0.867c-0.008,0.059-0.018,0.118-0.03,0.176l0,0c0,0.001-0.001,0.003-0.001,0.004l0,0
		c0,0.001-0.001,0.002-0.001,0.004l0,0c0,0.001,0,0.002-0.001,0.003c0,0,0,0,0,0.001s0,0.002-0.001,0.003c0,0,0,0,0,0.001
		s0,0.002-0.001,0.003v0.001c0,0.001,0,0.002-0.001,0.003c0,0,0,0,0,0.001s0,0.002-0.001,0.003v0.001c0,0.001,0,0.002-0.001,0.003
		v0.001c0,0.001,0,0.002-0.001,0.003v0.001c0,0.001,0,0.002-0.001,0.003v0.001c0,0.001,0,0.002-0.001,0.002v0.001
		c0,0.001,0,0.001-0.001,0.002v0.001c0,0.001,0,0.001-0.001,0.002c0,0.001,0,0.001,0,0.002s0,0.001-0.001,0.002
		c0,0.001,0,0.001,0,0.002s0,0.001,0,0.002s0,0.001,0,0.002v0.001c0,0.001,0,0.002-0.001,0.002v0.001c0,0.001,0,0.002-0.001,0.003
		v0.001c0,0.001,0,0.002-0.001,0.003l0,0c-0.02,0.082-0.043,0.163-0.071,0.241c-0.183,0.521,0.09,1.092,0.611,1.275
		c0.11,0.039,0.222,0.057,0.332,0.057c0.413,0,0.799-0.257,0.943-0.668c0.101-0.286,0.172-0.583,0.212-0.884
		c0.073-0.547-0.311-1.051-0.859-1.124C468.71,107.86,468.665,107.857,468.621,107.857L468.621,107.857z M468.653,104.226
		c-0.552,0-1,0.448-1,1v0.5c0,0.552,0.448,1,1,1s1-0.448,1-1v-0.5C469.653,104.673,469.205,104.226,468.653,104.226L468.653,104.226
		z M468.653,100.726c-0.552,0-1,0.448-1,1v0.5c0,0.552,0.448,1,1,1s1-0.448,1-1v-0.5
		C469.653,101.173,469.205,100.726,468.653,100.726L468.653,100.726z M468.653,97.226c-0.552,0-1,0.448-1,1v0.5c0,0.552,0.448,1,1,1
		s1-0.448,1-1v-0.5C469.653,97.673,469.205,97.226,468.653,97.226L468.653,97.226z M468.653,93.726c-0.552,0-1,0.448-1,1v0.5
		c0,0.552,0.448,1,1,1s1-0.448,1-1v-0.5C469.653,94.173,469.205,93.726,468.653,93.726L468.653,93.726z M468.653,90.226
		c-0.552,0-1,0.448-1,1v0.5c0,0.552,0.448,1,1,1s1-0.448,1-1v-0.5C469.653,90.673,469.205,90.226,468.653,90.226L468.653,90.226z
		 M468.653,86.726c-0.552,0-1,0.448-1,1v0.5c0,0.552,0.448,1,1,1s1-0.448,1-1v-0.5C469.653,87.173,469.205,86.726,468.653,86.726
		L468.653,86.726z M468.418,82.883c-0.121,0-0.243,0.022-0.363,0.068c-0.515,0.2-0.769,0.78-0.569,1.295
		c0.006,0.015,0.012,0.031,0.017,0.046l0,0c0,0.001,0.001,0.002,0.001,0.003c0,0,0,0,0,0.001s0.001,0.002,0.001,0.003V84.3
		c0,0.001,0.001,0.002,0.001,0.002v0.001c0,0.001,0.001,0.001,0.001,0.002c0,0,0,0.001,0.001,0.001c0,0.001,0,0.001,0.001,0.002
		c0,0.001,0,0.001,0.001,0.002c0,0.001,0,0.001,0.001,0.002c0,0.001,0,0.001,0.001,0.002v0.001c0,0.001,0.001,0.002,0.001,0.002
		v0.001c0,0.001,0.001,0.002,0.001,0.003v0.001c0,0.001,0.001,0.002,0.001,0.003v0.001c0,0.001,0.001,0.002,0.001,0.003v0.001
		c0,0.001,0.001,0.002,0.001,0.003c0,0,0,0,0,0.001s0.001,0.002,0.001,0.003l0,0c0,0.001,0.001,0.002,0.001,0.003l0,0
		c0.043,0.125,0.076,0.255,0.098,0.388c0.082,0.488,0.506,0.834,0.985,0.834c0.055,0,0.11-0.005,0.166-0.014
		c0.545-0.091,0.912-0.607,0.821-1.151c-0.05-0.299-0.131-0.594-0.241-0.877C469.196,83.125,468.818,82.883,468.418,82.883
		L468.418,82.883z"/>
</g>
<g>
	<path fill="#454746" d="M405.547,92.063c0.602-0.103,1.447-0.179,2.638-0.179c1.203,0,2.061,0.23,2.637,0.691
		c0.551,0.435,0.922,1.151,0.922,1.997c0,0.845-0.281,1.562-0.794,2.048c-0.665,0.628-1.651,0.909-2.804,0.909
		c-0.256,0-0.486-0.013-0.665-0.038v3.085h-1.934V92.063z M407.481,95.981c0.166,0.038,0.371,0.051,0.652,0.051
		c1.037,0,1.678-0.524,1.678-1.408c0-0.794-0.551-1.268-1.523-1.268c-0.397,0-0.666,0.039-0.807,0.077V95.981z"/>
	<path fill="#454746" d="M418.822,96.378c0,2.573-1.037,4.34-3.162,4.34c-2.15,0-3.098-1.933-3.11-4.288
		c0-2.407,1.023-4.314,3.175-4.314C417.952,92.115,418.822,94.099,418.822,96.378z M414.507,96.429
		c-0.013,1.907,0.448,2.816,1.204,2.816c0.755,0,1.164-0.947,1.164-2.843c0-1.843-0.396-2.816-1.178-2.816
		C414.981,93.587,414.494,94.496,414.507,96.429z"/>
</g>
<g>
	<path fill="#FFFFFF" d="M484.599,111.566c-2.33,0-4.227-1.896-4.227-4.227V86.192c0-2.33,1.896-4.226,4.227-4.226h21.147
		c2.33,0,4.227,1.896,4.227,4.226v21.147c0,2.33-1.896,4.227-4.227,4.227H484.599z"/>
	<g>
		<path fill="#C6C6C6" d="M505.747,83.966c1.229,0,2.226,0.997,2.226,2.226v21.148c0,1.229-0.997,2.226-2.226,2.226h-21.148
			c-1.229,0-2.226-0.997-2.226-2.226V86.192c0-1.229,0.997-2.226,2.226-2.226H505.747 M505.747,79.966h-21.148
			c-3.433,0-6.226,2.793-6.226,6.226v21.148c0,3.433,2.793,6.226,6.226,6.226h21.148c3.433,0,6.226-2.793,6.226-6.226V86.192
			C511.973,82.759,509.18,79.966,505.747,79.966L505.747,79.966z"/>
	</g>
</g>
<g>
	<path fill="#454746" d="M488.671,92.063c0.628-0.103,1.562-0.179,2.599-0.179c1.28,0,2.177,0.191,2.791,0.679
		c0.513,0.409,0.794,1.011,0.794,1.805c0,1.101-0.781,1.856-1.523,2.125v0.038c0.602,0.244,0.935,0.819,1.152,1.613
		c0.269,0.974,0.537,2.1,0.704,2.433h-1.997c-0.141-0.243-0.346-0.947-0.602-2.01c-0.23-1.075-0.602-1.37-1.396-1.383h-0.589v3.393
		h-1.934v-8.514H488.671z M490.605,95.776h0.768c0.974,0,1.55-0.486,1.55-1.242c0-0.793-0.538-1.19-1.435-1.203
		c-0.474,0-0.742,0.038-0.883,0.064V95.776z"/>
	<path fill="#454746" d="M495.954,100.577v-1.178l1.075-0.973c1.817-1.626,2.701-2.561,2.727-3.534c0-0.678-0.409-1.216-1.37-1.216
		c-0.717,0-1.344,0.358-1.779,0.691l-0.551-1.396c0.628-0.474,1.601-0.857,2.728-0.857c1.882,0,2.919,1.101,2.919,2.611
		c0,1.396-1.012,2.509-2.215,3.585l-0.769,0.64v0.025h3.137v1.601L495.954,100.577L495.954,100.577z"/>
</g>
<g>
	<path fill="#454746" d="M272.696,67.777v-8.629h2.279l1.792,3.162c0.512,0.909,1.024,1.984,1.408,2.958h0.038
		c-0.128-1.14-0.166-2.305-0.166-3.598v-2.522h1.792v8.629h-2.048l-1.844-3.328c-0.512-0.922-1.075-2.036-1.498-3.047l-0.038,0.013
		c0.051,1.139,0.077,2.355,0.077,3.764v2.599h-1.792V67.777z"/>
	<path fill="#454746" d="M289.428,63.373c0,2.83-1.716,4.545-4.238,4.545c-2.56,0-4.058-1.933-4.058-4.391
		c0-2.586,1.651-4.52,4.2-4.52C287.981,59.008,289.428,60.992,289.428,63.373z M283.192,63.488c0,1.69,0.794,2.881,2.1,2.881
		c1.319,0,2.074-1.255,2.074-2.932c0-1.549-0.742-2.881-2.087-2.881C283.961,60.556,283.192,61.811,283.192,63.488z"/>
	<path fill="#454746" d="M290.706,59.263c0.717-0.115,1.651-0.179,2.638-0.179c1.639,0,2.701,0.294,3.533,0.922
		c0.896,0.665,1.459,1.728,1.459,3.251c0,1.651-0.602,2.791-1.434,3.495c-0.909,0.756-2.291,1.114-3.981,1.114
		c-1.011,0-1.729-0.064-2.215-0.128L290.706,59.263L290.706,59.263z M292.665,66.304c0.166,0.039,0.436,0.039,0.679,0.039
		c1.767,0.013,2.919-0.96,2.919-3.021c0.013-1.792-1.037-2.739-2.714-2.739c-0.436,0-0.718,0.038-0.884,0.076V66.304z"/>
	<path fill="#454746" d="M304.748,64.129h-3.175v2.048h3.546v1.601h-5.505v-8.629h5.326v1.601h-3.367v1.792h3.175L304.748,64.129
		L304.748,64.129z"/>
	<path fill="#454746" d="M308.729,67.777v-1.178l1.075-0.973c1.817-1.626,2.701-2.561,2.727-3.534c0-0.678-0.409-1.216-1.37-1.216
		c-0.717,0-1.344,0.358-1.779,0.691l-0.551-1.396c0.628-0.474,1.601-0.857,2.728-0.857c1.882,0,2.919,1.101,2.919,2.611
		c0,1.396-1.012,2.509-2.215,3.585l-0.769,0.64v0.025h3.137v1.601L308.729,67.777L308.729,67.777z"/>
</g>
<g>
	<path fill="#454746" d="M432.697,67.777v-8.629h2.279l1.792,3.162c0.512,0.909,1.024,1.984,1.408,2.958h0.038
		c-0.128-1.14-0.166-2.305-0.166-3.598v-2.522h1.792v8.629h-2.048l-1.844-3.328c-0.512-0.922-1.075-2.036-1.498-3.047l-0.038,0.013
		c0.051,1.139,0.077,2.355,0.077,3.764v2.599h-1.792V67.777z"/>
	<path fill="#454746" d="M449.428,63.373c0,2.83-1.716,4.545-4.238,4.545c-2.56,0-4.058-1.933-4.058-4.391
		c0-2.586,1.651-4.52,4.199-4.52C447.981,59.008,449.428,60.992,449.428,63.373z M443.193,63.488c0,1.69,0.794,2.881,2.1,2.881
		c1.319,0,2.074-1.255,2.074-2.932c0-1.549-0.742-2.881-2.087-2.881C443.961,60.556,443.193,61.811,443.193,63.488z"/>
	<path fill="#454746" d="M450.706,59.263c0.717-0.115,1.651-0.179,2.638-0.179c1.639,0,2.701,0.294,3.533,0.922
		c0.896,0.665,1.459,1.728,1.459,3.251c0,1.651-0.602,2.791-1.434,3.495c-0.909,0.756-2.291,1.114-3.981,1.114
		c-1.011,0-1.729-0.064-2.215-0.128L450.706,59.263L450.706,59.263z M452.665,66.304c0.166,0.039,0.436,0.039,0.679,0.039
		c1.767,0.013,2.919-0.96,2.919-3.021c0.013-1.792-1.037-2.739-2.714-2.739c-0.436,0-0.718,0.038-0.884,0.076V66.304z"/>
	<path fill="#454746" d="M464.748,64.129h-3.175v2.048h3.546v1.601h-5.505v-8.629h5.326v1.601h-3.367v1.792h3.175L464.748,64.129
		L464.748,64.129z"/>
	<path fill="#454746" d="M469.075,65.87c0.346,0.179,1.139,0.512,1.933,0.512c1.012,0,1.523-0.486,1.523-1.113
		c0-0.819-0.819-1.191-1.677-1.191h-0.794v-1.396h0.755c0.653-0.013,1.485-0.256,1.485-0.96c0-0.499-0.409-0.87-1.229-0.87
		c-0.679,0-1.396,0.294-1.741,0.499l-0.397-1.408c0.5-0.32,1.498-0.627,2.573-0.627c1.78,0,2.766,0.935,2.766,2.073
		c0,0.884-0.499,1.575-1.523,1.934v0.025c0.998,0.18,1.805,0.935,1.805,2.022c0,1.473-1.293,2.548-3.405,2.548
		c-1.075,0-1.984-0.281-2.471-0.589L469.075,65.87z"/>
</g>
<g>
	<path fill="#454746" d="M77.016,68.042v-8.629h2.279l1.792,3.162c0.512,0.909,1.024,1.984,1.408,2.958h0.038
		c-0.128-1.14-0.166-2.305-0.166-3.598v-2.522h1.792v8.629h-2.047l-1.844-3.328c-0.512-0.922-1.075-2.036-1.498-3.047l-0.038,0.013
		c0.051,1.139,0.077,2.355,0.077,3.764v2.599h-1.793V68.042z"/>
	<path fill="#454746" d="M93.748,63.637c0,2.83-1.716,4.545-4.238,4.545c-2.56,0-4.058-1.933-4.058-4.391
		c0-2.586,1.651-4.52,4.199-4.52C92.301,59.272,93.748,61.257,93.748,63.637z M87.513,63.753c0,1.69,0.794,2.881,2.1,2.881
		c1.319,0,2.074-1.255,2.074-2.932c0-1.549-0.742-2.881-2.087-2.881C88.281,60.821,87.513,62.076,87.513,63.753z"/>
	<path fill="#454746" d="M95.026,59.528c0.717-0.115,1.651-0.179,2.638-0.179c1.639,0,2.701,0.294,3.533,0.922
		c0.896,0.665,1.459,1.728,1.459,3.251c0,1.652-0.602,2.791-1.434,3.495c-0.909,0.756-2.291,1.114-3.981,1.114
		c-1.011,0-1.729-0.064-2.215-0.128V59.528z M96.985,66.569c0.166,0.039,0.436,0.039,0.679,0.039
		c1.767,0.013,2.919-0.96,2.919-3.021c0.013-1.792-1.037-2.739-2.714-2.739c-0.436,0-0.718,0.038-0.884,0.076V66.569z"/>
	<path fill="#454746" d="M109.068,64.393h-3.175v2.048h3.546v1.601h-5.505v-8.629h5.326v1.601h-3.367v1.792h3.175
		C109.068,62.806,109.068,64.393,109.068,64.393z"/>
	<path fill="#454746" d="M115.532,61.449h-0.025l-1.588,0.755l-0.32-1.459l2.202-1.024h1.613v8.321h-1.882V61.449z"/>
	<path fill="#454746" d="M125.938,64.035v1.293h-3.354v-1.293H125.938z"/>
	<path fill="#454746" d="M149.977,64.739c-0.039-1.037-0.077-2.292-0.077-3.547h-0.038c-0.27,1.102-0.628,2.33-0.961,3.342
		l-1.05,3.367h-1.523l-0.921-3.342c-0.282-1.011-0.576-2.24-0.781-3.367h-0.025c-0.052,1.165-0.09,2.497-0.154,3.572l-0.153,3.277
		h-1.805l0.55-8.629h2.599l0.846,2.881c0.269,0.998,0.537,2.074,0.729,3.085h0.038c0.243-0.998,0.538-2.138,0.819-3.098l0.922-2.868
		h2.548l0.474,8.629h-1.907L149.977,64.739z"/>
	<path fill="#454746" d="M155.479,65.827l-0.614,2.215h-2.022l2.637-8.629h2.561l2.676,8.629h-2.1l-0.665-2.215H155.479z
		 M157.669,64.368l-0.538-1.831c-0.153-0.512-0.307-1.152-0.435-1.664h-0.025c-0.129,0.512-0.257,1.165-0.397,1.664l-0.512,1.831
		H157.669z"/>
	<path fill="#454746" d="M161.931,66.032c0.524,0.269,1.331,0.537,2.163,0.537c0.896,0,1.37-0.371,1.37-0.935
		c0-0.537-0.41-0.845-1.446-1.216c-1.435-0.499-2.369-1.293-2.369-2.548c0-1.472,1.229-2.599,3.265-2.599
		c0.974,0,1.69,0.205,2.202,0.436l-0.436,1.574c-0.346-0.166-0.96-0.409-1.805-0.409s-1.255,0.384-1.255,0.832
		c0,0.551,0.486,0.794,1.601,1.216c1.523,0.563,2.24,1.357,2.24,2.573c0,1.447-1.113,2.676-3.482,2.676
		c-0.985,0-1.958-0.256-2.445-0.524L161.931,66.032z"/>
	<path fill="#454746" d="M170.442,61.051h-2.316v-1.639h6.631v1.639h-2.355v6.99h-1.959v-6.99H170.442z"/>
	<path fill="#454746" d="M180.927,64.393h-3.175v2.048h3.546v1.601h-5.505v-8.629h5.326v1.601h-3.367v1.792h3.175V64.393z"/>
	<path fill="#454746" d="M182.628,59.528c0.628-0.103,1.562-0.179,2.599-0.179c1.28,0,2.177,0.191,2.791,0.679
		c0.513,0.409,0.794,1.011,0.794,1.805c0,1.101-0.781,1.856-1.523,2.125v0.038c0.602,0.244,0.935,0.819,1.152,1.613
		c0.269,0.974,0.537,2.1,0.704,2.433h-1.997c-0.141-0.243-0.346-0.947-0.602-2.01c-0.23-1.075-0.602-1.37-1.396-1.383h-0.589v3.393
		h-1.934v-8.514H182.628z M184.561,63.241h0.768c0.974,0,1.55-0.486,1.55-1.242c0-0.793-0.538-1.19-1.435-1.203
		c-0.474,0-0.742,0.038-0.883,0.064L184.561,63.241L184.561,63.241z"/>
</g>
<polygon fill="#75B640" points="135.306,57.898 136.899,61.126 140.46,61.643 137.883,64.155 138.491,67.702 135.306,66.028 
	132.12,67.702 132.729,64.155 130.152,61.643 133.713,61.126 "/>
<path fill="#75B640" d="M38.937,150.977H20.288c-1.811,0-3.28-1.468-3.28-3.28V25.957c0-1.811,1.468-3.28,3.28-3.28h18.649
	C38.937,22.677,38.937,150.977,38.937,150.977z"/>
<g>
	<path fill="#FFFFFF" d="M32.529,105.065c0.179,0.358,0.371,1.165,0.371,2.215c0,2.982-1.856,4.519-4.314,4.519
		c-2.944,0-4.583-2.1-4.583-4.711c0-1.012,0.205-1.779,0.384-2.125l1.55,0.396c-0.167,0.397-0.32,0.947-0.32,1.639
		c0,1.549,0.935,2.753,2.854,2.753c1.729,0,2.816-1.024,2.816-2.766c0-0.589-0.128-1.242-0.281-1.626L32.529,105.065z"/>
	<path fill="#FFFFFF" d="M24.143,103.786v-1.959h6.99v-3.431h1.639v5.39H24.143z"/>
	<path fill="#FFFFFF" d="M24.143,95.696h4.968c1.484,0,2.24-0.563,2.24-1.562c0-1.024-0.717-1.588-2.24-1.588h-4.968v-1.945h4.84
		c2.662,0,3.93,1.344,3.93,3.597c0,2.177-1.203,3.457-3.956,3.457h-4.813L24.143,95.696L24.143,95.696z"/>
	<path fill="#FFFFFF" d="M30.763,88.848c0.269-0.524,0.537-1.331,0.537-2.163c0-0.896-0.371-1.37-0.935-1.37
		c-0.537,0-0.845,0.41-1.216,1.446c-0.499,1.435-1.293,2.369-2.548,2.369c-1.472,0-2.599-1.229-2.599-3.265
		c0-0.974,0.205-1.69,0.436-2.202l1.574,0.436c-0.166,0.346-0.409,0.96-0.409,1.805s0.384,1.255,0.832,1.255
		c0.551,0,0.794-0.486,1.216-1.601c0.563-1.523,1.357-2.24,2.573-2.24c1.447,0,2.676,1.113,2.676,3.482
		c0,0.985-0.256,1.958-0.524,2.445L30.763,88.848z"/>
	<path fill="#FFFFFF" d="M25.782,80.337v2.316h-1.639v-6.631h1.639v2.355h6.99v1.959L25.782,80.337L25.782,80.337z"/>
	<path fill="#FFFFFF" d="M29.124,69.853v3.175h2.048v-3.546h1.601v5.505h-8.629v-5.326h1.601v3.367h1.792v-3.175L29.124,69.853
		L29.124,69.853z"/>
	<path fill="#FFFFFF" d="M24.259,68.151c-0.103-0.628-0.179-1.562-0.179-2.599c0-1.28,0.191-2.177,0.679-2.791
		c0.409-0.513,1.011-0.794,1.805-0.794c1.101,0,1.856,0.781,2.125,1.523h0.038c0.244-0.602,0.819-0.935,1.613-1.152
		c0.974-0.269,2.1-0.537,2.433-0.704v1.997c-0.243,0.141-0.947,0.346-2.01,0.602c-1.075,0.23-1.37,0.602-1.383,1.396v0.589h3.393
		v1.934L24.259,68.151L24.259,68.151z M27.972,66.218V65.45c0-0.974-0.486-1.55-1.242-1.55c-0.793,0-1.19,0.538-1.203,1.435
		c0,0.474,0.038,0.742,0.064,0.883H27.972z"/>
</g>
</svg>
