<?xml version="1.0" encoding="UTF-8" standalone="no"?>
<!-- Generator: Adobe Illustrator 17.1.0, SVG Export Plug-In . SVG Version: 6.00 Build 0)  -->

<svg
   xmlns:dc="http://purl.org/dc/elements/1.1/"
   xmlns:cc="http://creativecommons.org/ns#"
   xmlns:rdf="http://www.w3.org/1999/02/22-rdf-syntax-ns#"
   xmlns:svg="http://www.w3.org/2000/svg"
   xmlns="http://www.w3.org/2000/svg"
   xmlns:sodipodi="http://sodipodi.sourceforge.net/DTD/sodipodi-0.dtd"
   xmlns:inkscape="http://www.inkscape.org/namespaces/inkscape"
   version="1.1"
   id="Layer_1"
   x="0px"
   y="0px"
   viewBox="0 0 566.929 170.079"
   enable-background="new 0 0 566.929 170.079"
   xml:space="preserve"
   inkscape:version="0.48.2 r9819"
   width="100%"
   height="100%"
   sodipodi:docname="02-06_node_failure.svg"><metadata
   id="metadata3329"><rdf:RDF><cc:Work
       rdf:about=""><dc:format>image/svg+xml</dc:format><dc:type
         rdf:resource="http://purl.org/dc/dcmitype/StillImage" /></cc:Work></rdf:RDF></metadata><defs
   id="defs3327" /><sodipodi:namedview
   pagecolor="#ffffff"
   bordercolor="#666666"
   borderopacity="1"
   objecttolerance="10"
   gridtolerance="10"
   guidetolerance="10"
   inkscape:pageopacity="0"
   inkscape:pageshadow="2"
   inkscape:window-width="1440"
   inkscape:window-height="852"
   id="namedview3325"
   showgrid="false"
   showguides="true"
   inkscape:guide-bbox="true"
   inkscape:zoom="3.5122788"
   inkscape:cx="370.47624"
   inkscape:cy="85.0395"
   inkscape:window-x="0"
   inkscape:window-y="0"
   inkscape:window-maximized="1"
   inkscape:current-layer="Layer_1"><sodipodi:guide
     orientation="0,1"
     position="442.4478,162.57252"
     id="guide5207" /></sodipodi:namedview>
<path
   d="M547.833,150.977H30.852c-1.811,0-3.28-1.468-3.28-3.28V25.957c0-1.811,1.468-3.28,3.28-3.28h516.981  c0.961,0,1.74,0.779,1.74,1.74v124.82C549.573,150.199,548.794,150.977,547.833,150.977z"
   id="path3197"
   fill="#F8FAF6" />
<path
   fill="#FFFFFF"
   stroke="#75B640"
   stroke-width="1.6"
   stroke-miterlimit="10"
   d="M362.293,126.977H224.852  c-1.811,0-3.28-1.468-3.28-3.28V50.256c0-1.811,1.468-3.28,3.28-3.28h137.441c1.811,0,3.28,1.468,3.28,3.28v73.441  C365.573,125.509,364.104,126.977,362.293,126.977z"
   id="path3199" />
<g
   id="g3201">
	<path
   fill="#FFFFFF"
   d="M241.399,111.567c-2.33,0-4.226-1.896-4.226-4.227V86.193c0-2.33,1.896-4.226,4.226-4.226h21.148   c2.33,0,4.226,1.896,4.226,4.226v21.147c0,2.33-1.896,4.227-4.226,4.227H241.399z"
   id="path3203" />
	<g
   id="g3205">
		<path
   fill="#C6C6C6"
   d="M262.547,83.967c1.229,0,2.226,0.997,2.226,2.226v21.148c0,1.229-0.997,2.226-2.226,2.226h-21.148    c-1.229,0-2.226-0.997-2.226-2.226V86.193c0-1.229,0.997-2.226,2.226-2.226H262.547 M262.547,79.967h-21.148    c-3.433,0-6.226,2.793-6.226,6.226v21.148c0,3.433,2.793,6.226,6.226,6.226h21.148c3.433,0,6.226-2.793,6.226-6.226V86.193    C268.773,82.76,265.98,79.967,262.547,79.967L262.547,79.967z"
   id="path3207" />
	</g>
</g>
<g
   id="g3209">
	<path
   fill="#FFFFFF"
   d="M282.999,111.567c-2.33,0-4.226-1.896-4.226-4.227V86.193c0-2.33,1.896-4.226,4.226-4.226h21.148   c2.33,0,4.226,1.896,4.226,4.226v21.147c0,2.33-1.896,4.227-4.226,4.227H282.999z"
   id="path3211" />
	<path
   fill="#C6C6C6"
   d="M304.147,83.967c1.229,0,2.226,0.997,2.226,2.226v21.148c0,1.229-0.997,2.226-2.226,2.226h-21.148   c-1.229,0-2.226-0.997-2.226-2.226V86.193c0-1.229,0.997-2.226,2.226-2.226H304.147 M304.147,79.967h-21.148   c-3.433,0-6.226,2.793-6.226,6.226v21.148c0,3.433,2.793,6.226,6.226,6.226h21.148c3.433,0,6.226-2.793,6.226-6.226V86.193   C310.373,82.76,307.58,79.967,304.147,79.967L304.147,79.967z"
   id="path3213" />
</g>
<g
   id="g3215">
	<path
   fill="#454746"
   d="M245.471,92.064c0.628-0.103,1.562-0.179,2.599-0.179c1.28,0,2.177,0.191,2.791,0.679   c0.513,0.409,0.794,1.011,0.794,1.805c0,1.101-0.781,1.856-1.523,2.125v0.038c0.602,0.244,0.935,0.819,1.152,1.613   c0.269,0.974,0.537,2.1,0.704,2.433h-1.997c-0.141-0.243-0.346-0.947-0.602-2.01c-0.23-1.075-0.602-1.37-1.396-1.383h-0.589v3.393   h-1.934L245.471,92.064L245.471,92.064z M247.404,95.777h0.768c0.974,0,1.55-0.486,1.55-1.242c0-0.793-0.538-1.19-1.435-1.203   c-0.474,0-0.742,0.038-0.883,0.064V95.777z"
   id="path3217" />
	<path
   fill="#454746"
   d="M258.898,96.378c0,2.573-1.037,4.34-3.162,4.34c-2.15,0-3.098-1.933-3.111-4.288   c0-2.407,1.024-4.314,3.176-4.314C258.028,92.116,258.898,94.1,258.898,96.378z M254.584,96.43   c-0.013,1.907,0.448,2.816,1.204,2.816c0.755,0,1.164-0.947,1.164-2.843c0-1.843-0.396-2.816-1.178-2.816   C255.057,93.587,254.571,94.496,254.584,96.43z"
   id="path3219" />
</g>
<g
   id="g3221">
	<path
   fill="#FFFFFF"
   d="M324.599,111.567c-2.33,0-4.227-1.896-4.227-4.227V86.193c0-2.33,1.896-4.226,4.227-4.226h21.147   c2.33,0,4.227,1.896,4.227,4.226v21.147c0,2.33-1.896,4.227-4.227,4.227H324.599z"
   id="path3223" />
	<g
   id="g3225">
		<path
   fill="#75B640"
   d="M345.747,83.967c1.229,0,2.226,0.997,2.226,2.226v21.148c0,1.229-0.997,2.226-2.226,2.226h-21.148    c-1.229,0-2.226-0.997-2.226-2.226V86.193c0-1.229,0.997-2.226,2.226-2.226H345.747 M345.747,79.967h-21.148    c-3.433,0-6.226,2.793-6.226,6.226v21.148c0,3.433,2.793,6.226,6.226,6.226h21.148c3.433,0,6.226-2.793,6.226-6.226V86.193    C351.973,82.76,349.18,79.967,345.747,79.967L345.747,79.967z"
   id="path3227" />
	</g>
</g>
<g
   id="g3229">
	<path
   fill="#454746"
   d="M287.072,92.064c0.628-0.103,1.562-0.179,2.599-0.179c1.28,0,2.177,0.191,2.791,0.679   c0.513,0.409,0.794,1.011,0.794,1.805c0,1.101-0.781,1.856-1.523,2.125v0.038c0.602,0.244,0.935,0.819,1.152,1.613   c0.269,0.974,0.537,2.1,0.704,2.433h-1.997c-0.141-0.243-0.346-0.947-0.602-2.01c-0.23-1.075-0.602-1.37-1.396-1.383h-0.589v3.393   h-1.934L287.072,92.064L287.072,92.064z M289.005,95.777h0.768c0.974,0,1.55-0.486,1.55-1.242c0-0.793-0.538-1.19-1.435-1.203   c-0.474,0-0.742,0.038-0.883,0.064V95.777z"
   id="path3231" />
	<path
   fill="#454746"
   d="M296.838,93.985h-0.025l-1.588,0.755l-0.32-1.459l2.202-1.024h1.613v8.321h-1.882V93.985z"
   id="path3233" />
</g>
<path
   fill="#FFFFFF"
   stroke="#75B640"
   stroke-width="1.6"
   stroke-miterlimit="10"
   d="M522.293,126.977H384.852  c-1.811,0-3.28-1.468-3.28-3.28V50.256c0-1.811,1.468-3.28,3.28-3.28h137.441c1.811,0,3.28,1.468,3.28,3.28v73.441  C525.573,125.509,524.104,126.977,522.293,126.977z"
   id="path3235" />
<g
   id="g3237">
	<path
   fill="#FFFFFF"
   d="M401.399,111.567c-2.33,0-4.227-1.896-4.227-4.227V86.193c0-2.33,1.896-4.226,4.227-4.226h21.147   c2.33,0,4.227,1.896,4.227,4.226v21.147c0,2.33-1.896,4.227-4.227,4.227H401.399z"
   id="path3239" />
	<path
   fill="#75B640"
   d="M422.547,83.967c1.229,0,2.226,0.997,2.226,2.226v21.148c0,1.229-0.997,2.226-2.226,2.226h-21.148   c-1.229,0-2.226-0.997-2.226-2.226V86.193c0-1.229,0.997-2.226,2.226-2.226H422.547 M422.547,79.967h-21.148   c-3.433,0-6.226,2.793-6.226,6.226v21.148c0,3.433,2.793,6.226,6.226,6.226h21.148c3.433,0,6.226-2.793,6.226-6.226V86.193   C428.773,82.76,425.98,79.967,422.547,79.967L422.547,79.967z"
   id="path3241" />
</g>
<g
   id="g3243">
	<path
   fill="#FFFFFF"
   d="M442.998,111.567c-2.33,0-4.226-1.896-4.226-4.227V86.193c0-2.33,1.896-4.226,4.226-4.226h21.148   c2.33,0,4.226,1.896,4.226,4.226v21.147c0,2.33-1.896,4.227-4.226,4.227H442.998z"
   id="path3245" />
	<g
   id="g3247">
		<path
   fill="#75B640"
   d="M464.147,83.967c1.229,0,2.226,0.997,2.226,2.226v21.148c0,1.229-0.997,2.226-2.226,2.226h-21.148    c-1.229,0-2.226-0.997-2.226-2.226V86.193c0-1.229,0.997-2.226,2.226-2.226H464.147 M464.147,79.967h-21.148    c-3.433,0-6.226,2.793-6.226,6.226v21.148c0,3.433,2.793,6.226,6.226,6.226h21.148c3.433,0,6.226-2.793,6.226-6.226V86.193    C470.373,82.76,467.58,79.967,464.147,79.967L464.147,79.967z"
   id="path3249" />
	</g>
</g>
<g
   id="g3251">
	<path
   fill="#454746"
   d="M405.547,92.064c0.602-0.103,1.447-0.179,2.638-0.179c1.203,0,2.061,0.23,2.637,0.691   c0.551,0.435,0.922,1.151,0.922,1.997c0,0.845-0.281,1.562-0.794,2.048c-0.665,0.628-1.651,0.909-2.804,0.909   c-0.256,0-0.486-0.013-0.665-0.038v3.085h-1.934V92.064z M407.481,95.982c0.166,0.038,0.371,0.051,0.652,0.051   c1.037,0,1.678-0.524,1.678-1.408c0-0.794-0.551-1.268-1.523-1.268c-0.397,0-0.666,0.039-0.807,0.077V95.982z"
   id="path3253" />
	<path
   fill="#454746"
   d="M418.822,96.378c0,2.573-1.037,4.34-3.162,4.34c-2.15,0-3.098-1.933-3.11-4.288   c0-2.407,1.023-4.314,3.175-4.314C417.952,92.116,418.822,94.1,418.822,96.378z M414.507,96.43   c-0.013,1.907,0.448,2.816,1.204,2.816c0.755,0,1.164-0.947,1.164-2.843c0-1.843-0.396-2.816-1.178-2.816   C414.981,93.587,414.494,94.496,414.507,96.43z"
   id="path3255" />
</g>
<g
   id="g3257">
	<path
   fill="#454746"
   d="M447.147,92.064c0.602-0.103,1.447-0.179,2.638-0.179c1.203,0,2.061,0.23,2.637,0.691   c0.551,0.435,0.922,1.151,0.922,1.997c0,0.845-0.281,1.562-0.794,2.048c-0.665,0.628-1.651,0.909-2.804,0.909   c-0.256,0-0.486-0.013-0.665-0.038v3.085h-1.934V92.064z M449.08,95.982c0.166,0.038,0.371,0.051,0.652,0.051   c1.037,0,1.678-0.524,1.678-1.408c0-0.794-0.551-1.268-1.523-1.268c-0.397,0-0.666,0.039-0.807,0.077V95.982z"
   id="path3259" />
	<path
   fill="#454746"
   d="M456.76,93.985h-0.025l-1.588,0.755l-0.32-1.459l2.202-1.024h1.613v8.321h-1.882V93.985z"
   id="path3261" />
</g>
<g
   id="g3263">
	<path
   fill="#454746"
   d="M328.746,92.064c0.602-0.103,1.447-0.179,2.638-0.179c1.203,0,2.061,0.23,2.637,0.691   c0.551,0.435,0.922,1.151,0.922,1.997c0,0.845-0.281,1.562-0.794,2.048c-0.665,0.628-1.651,0.909-2.804,0.909   c-0.256,0-0.486-0.013-0.665-0.038v3.085h-1.934V92.064z M330.68,95.982c0.166,0.038,0.371,0.051,0.652,0.051   c1.037,0,1.678-0.524,1.678-1.408c0-0.794-0.551-1.268-1.523-1.268c-0.397,0-0.666,0.039-0.807,0.077V95.982z"
   id="path3265" />
	<path
   fill="#454746"
   d="M335.876,100.578V99.4l1.075-0.973c1.817-1.626,2.701-2.561,2.727-3.534c0-0.678-0.409-1.216-1.37-1.216   c-0.717,0-1.344,0.358-1.779,0.691l-0.551-1.396c0.628-0.474,1.601-0.857,2.728-0.857c1.882,0,2.919,1.101,2.919,2.611   c0,1.396-1.012,2.509-2.215,3.585l-0.769,0.64v0.025h3.137v1.601L335.876,100.578L335.876,100.578z"
   id="path3267" />
</g>
<g
   id="g3269">
	<path
   fill="#FFFFFF"
   d="M484.599,111.567c-2.33,0-4.227-1.896-4.227-4.227V86.193c0-2.33,1.896-4.226,4.227-4.226h21.147   c2.33,0,4.227,1.896,4.227,4.226v21.147c0,2.33-1.896,4.227-4.227,4.227H484.599z"
   id="path3271" />
	<g
   id="g3273">
		<path
   fill="#C6C6C6"
   d="M505.747,83.967c1.229,0,2.226,0.997,2.226,2.226v21.148c0,1.229-0.997,2.226-2.226,2.226h-21.148    c-1.229,0-2.226-0.997-2.226-2.226V86.193c0-1.229,0.997-2.226,2.226-2.226H505.747 M505.747,79.967h-21.148    c-3.433,0-6.226,2.793-6.226,6.226v21.148c0,3.433,2.793,6.226,6.226,6.226h21.148c3.433,0,6.226-2.793,6.226-6.226V86.193    C511.973,82.76,509.18,79.967,505.747,79.967L505.747,79.967z"
   id="path3275" />
	</g>
</g>
<g
   id="g3277">
	<path
   fill="#454746"
   d="M488.671,92.064c0.628-0.103,1.562-0.179,2.599-0.179c1.28,0,2.177,0.191,2.791,0.679   c0.513,0.409,0.794,1.011,0.794,1.805c0,1.101-0.781,1.856-1.523,2.125v0.038c0.602,0.244,0.935,0.819,1.152,1.613   c0.269,0.974,0.537,2.1,0.704,2.433h-1.997c-0.141-0.243-0.346-0.947-0.602-2.01c-0.23-1.075-0.602-1.37-1.396-1.383h-0.589v3.393   h-1.934L488.671,92.064L488.671,92.064z M490.605,95.777h0.768c0.974,0,1.55-0.486,1.55-1.242c0-0.793-0.538-1.19-1.435-1.203   c-0.474,0-0.742,0.038-0.883,0.064V95.777z"
   id="path3279" />
	<path
   fill="#454746"
   d="M495.954,100.578V99.4l1.075-0.973c1.817-1.626,2.701-2.561,2.727-3.534c0-0.678-0.409-1.216-1.37-1.216   c-0.717,0-1.344,0.358-1.779,0.691l-0.551-1.396c0.628-0.474,1.601-0.857,2.728-0.857c1.882,0,2.919,1.101,2.919,2.611   c0,1.396-1.012,2.509-2.215,3.585l-0.769,0.64v0.025h3.137v1.601L495.954,100.578L495.954,100.578z"
   id="path3281" />
</g>
<g
   id="g3283"
   transform="translate(-34.000002,-0.809531)">
	<path
   d="m 272.696,67.778 v -8.629 h 2.279 l 1.792,3.162 c 0.512,0.909 1.024,1.984 1.408,2.958 h 0.038 c -0.128,-1.14 -0.166,-2.305 -0.166,-3.598 v -2.522 h 1.792 v 8.629 h -2.048 l -1.844,-3.328 c -0.512,-0.922 -1.075,-2.036 -1.498,-3.047 l -0.038,0.013 c 0.051,1.139 0.077,2.355 0.077,3.764 v 2.599 h -1.792 v -10e-4 z"
   id="path3285"
   inkscape:connector-curvature="0"
   style="fill:#454746" />
	<path
   d="m 289.428,63.373 c 0,2.83 -1.716,4.545 -4.239,4.545 -2.56,0 -4.058,-1.933 -4.058,-4.391 0,-2.586 1.651,-4.52 4.199,-4.52 2.651,0.001 4.098,1.986 4.098,4.366 z m -6.236,0.116 c 0,1.69 0.794,2.881 2.1,2.881 1.32,0 2.075,-1.255 2.075,-2.932 0,-1.549 -0.742,-2.881 -2.087,-2.881 -1.319,0 -2.088,1.255 -2.088,2.932 z"
   id="path3287"
   inkscape:connector-curvature="0"
   style="fill:#454746" />
	<path
   d="m 290.706,59.264 c 0.717,-0.115 1.651,-0.179 2.638,-0.179 1.639,0 2.701,0.294 3.533,0.922 0.896,0.665 1.459,1.728 1.459,3.251 0,1.652 -0.602,2.791 -1.434,3.495 -0.909,0.756 -2.291,1.114 -3.981,1.114 -1.011,0 -1.729,-0.064 -2.215,-0.128 l 0,-8.475 0,0 z m 1.959,7.041 c 0.166,0.039 0.436,0.039 0.679,0.039 1.767,0.013 2.919,-0.96 2.919,-3.021 0.013,-1.792 -1.037,-2.739 -2.714,-2.739 -0.436,0 -0.718,0.038 -0.884,0.076 v 5.645 z"
   id="path3289"
   inkscape:connector-curvature="0"
   style="fill:#454746" />
	<path
   d="m 304.748,64.129 h -3.175 v 2.048 h 3.546 v 1.601 h -5.505 v -8.629 h 5.326 v 1.601 h -3.367 v 1.792 h 3.175 l 0,1.587 0,0 z"
   id="path3291"
   inkscape:connector-curvature="0"
   style="fill:#454746" />
	<path
   d="M 308.729,67.778 V 66.6 l 1.075,-0.973 c 1.817,-1.626 2.701,-2.561 2.727,-3.534 0,-0.678 -0.409,-1.216 -1.37,-1.216 -0.717,0 -1.344,0.358 -1.779,0.691 l -0.551,-1.396 c 0.628,-0.474 1.601,-0.857 2.728,-0.857 1.882,0 2.919,1.101 2.919,2.611 0,1.396 -1.012,2.509 -2.215,3.585 l -0.769,0.64 v 0.025 h 3.137 v 1.601 l -5.902,0.001 0,0 z"
   id="path3293"
   inkscape:connector-curvature="0"
   style="fill:#454746" />
</g>
<g
   id="g3295"
   transform="translate(0,-0.809531)">
	<path
   d="m 432.697,67.778 v -8.629 h 2.279 l 1.792,3.162 c 0.512,0.909 1.024,1.984 1.408,2.958 h 0.038 c -0.128,-1.14 -0.166,-2.305 -0.166,-3.598 v -2.522 h 1.792 v 8.629 h -2.048 l -1.844,-3.328 c -0.512,-0.922 -1.075,-2.036 -1.498,-3.047 l -0.038,0.013 c 0.051,1.139 0.077,2.355 0.077,3.764 v 2.599 h -1.792 v -10e-4 z"
   id="path3297"
   inkscape:connector-curvature="0"
   style="fill:#454746" />
	<path
   d="m 449.428,63.373 c 0,2.83 -1.716,4.545 -4.238,4.545 -2.56,0 -4.058,-1.933 -4.058,-4.391 0,-2.586 1.651,-4.52 4.199,-4.52 2.65,0.001 4.097,1.986 4.097,4.366 z m -6.235,0.116 c 0,1.69 0.794,2.881 2.1,2.881 1.319,0 2.074,-1.255 2.074,-2.932 0,-1.549 -0.742,-2.881 -2.087,-2.881 -1.319,0 -2.087,1.255 -2.087,2.932 z"
   id="path3299"
   inkscape:connector-curvature="0"
   style="fill:#454746" />
	<path
   d="m 450.706,59.264 c 0.717,-0.115 1.651,-0.179 2.638,-0.179 1.639,0 2.701,0.294 3.533,0.922 0.896,0.665 1.459,1.728 1.459,3.251 0,1.652 -0.602,2.791 -1.434,3.495 -0.909,0.756 -2.291,1.114 -3.981,1.114 -1.011,0 -1.729,-0.064 -2.215,-0.128 l 0,-8.475 0,0 z m 1.959,7.041 c 0.166,0.039 0.436,0.039 0.679,0.039 1.767,0.013 2.919,-0.96 2.919,-3.021 0.013,-1.792 -1.037,-2.739 -2.714,-2.739 -0.436,0 -0.718,0.038 -0.884,0.076 v 5.645 z"
   id="path3301"
   inkscape:connector-curvature="0"
   style="fill:#454746" />
	<path
   d="m 464.748,64.129 h -3.175 v 2.048 h 3.546 v 1.601 h -5.505 v -8.629 h 5.326 v 1.601 h -3.367 v 1.792 h 3.175 l 0,1.587 0,0 z"
   id="path3303"
   inkscape:connector-curvature="0"
   style="fill:#454746" />
	<path
   d="m 469.075,65.87 c 0.346,0.179 1.139,0.512 1.933,0.512 1.012,0 1.523,-0.486 1.523,-1.113 0,-0.819 -0.819,-1.191 -1.677,-1.191 h -0.794 v -1.396 h 0.755 c 0.653,-0.013 1.485,-0.256 1.485,-0.96 0,-0.499 -0.409,-0.87 -1.229,-0.87 -0.679,0 -1.396,0.294 -1.741,0.499 l -0.397,-1.408 c 0.5,-0.32 1.498,-0.627 2.573,-0.627 1.78,0 2.766,0.935 2.766,2.073 0,0.884 -0.499,1.575 -1.523,1.934 v 0.025 c 0.998,0.18 1.805,0.935 1.805,2.022 0,1.473 -1.293,2.548 -3.405,2.548 -1.075,0 -1.984,-0.281 -2.471,-0.589 l 0.397,-1.459 z"
   id="path3305"
   inkscape:connector-curvature="0"
   style="fill:#454746" />
</g>
<path
   d="M38.937,150.977H20.288c-1.811,0-3.28-1.468-3.28-3.28V25.957c0-1.811,1.468-3.28,3.28-3.28h18.649  C38.937,22.677,38.937,150.977,38.937,150.977z"
   id="path3307"
   fill="#75B640" />
<g
   id="g3309">
	<path
   fill="#FFFFFF"
   d="M32.529,105.067c0.179,0.358,0.371,1.165,0.371,2.215c0,2.982-1.856,4.519-4.314,4.519   c-2.944,0-4.583-2.1-4.583-4.711c0-1.012,0.205-1.779,0.384-2.125l1.55,0.396c-0.167,0.397-0.32,0.947-0.32,1.639   c0,1.549,0.935,2.753,2.854,2.753c1.729,0,2.816-1.024,2.816-2.766c0-0.589-0.128-1.242-0.281-1.626L32.529,105.067z"
   id="path3311" />
	<path
   fill="#FFFFFF"
   d="M24.143,103.787v-1.959h6.99v-3.431h1.639v5.39H24.143z"
   id="path3313" />
	<path
   fill="#FFFFFF"
   d="M24.143,95.698h4.968c1.484,0,2.24-0.563,2.24-1.562c0-1.024-0.717-1.588-2.24-1.588h-4.968v-1.945h4.84   c2.662,0,3.93,1.344,3.93,3.597c0,2.177-1.203,3.457-3.956,3.457h-4.813L24.143,95.698L24.143,95.698z"
   id="path3315" />
	<path
   fill="#FFFFFF"
   d="M30.763,88.85c0.269-0.524,0.537-1.331,0.537-2.163c0-0.896-0.371-1.37-0.935-1.37   c-0.537,0-0.845,0.41-1.216,1.446c-0.499,1.435-1.293,2.369-2.548,2.369c-1.472,0-2.599-1.229-2.599-3.265   c0-0.974,0.205-1.69,0.436-2.202l1.574,0.436c-0.166,0.346-0.409,0.96-0.409,1.805s0.384,1.255,0.832,1.255   c0.551,0,0.794-0.486,1.216-1.601c0.563-1.523,1.357-2.24,2.573-2.24c1.447,0,2.676,1.113,2.676,3.482   c0,0.985-0.256,1.958-0.524,2.445L30.763,88.85z"
   id="path3317" />
	<path
   fill="#FFFFFF"
   d="M25.782,80.338v2.316h-1.639v-6.631h1.639v2.355h6.99v1.959L25.782,80.338L25.782,80.338z"
   id="path3319" />
	<path
   fill="#FFFFFF"
   d="M29.124,69.855v3.175h2.048v-3.546h1.601v5.505h-8.629v-5.326h1.601v3.367h1.792v-3.175L29.124,69.855   L29.124,69.855z"
   id="path3321" />
	<path
   fill="#FFFFFF"
   d="M24.259,68.153c-0.103-0.628-0.179-1.562-0.179-2.599c0-1.28,0.191-2.177,0.679-2.791   c0.409-0.513,1.011-0.794,1.805-0.794c1.101,0,1.856,0.781,2.125,1.523h0.038c0.244-0.602,0.819-0.935,1.613-1.152   c0.974-0.269,2.1-0.537,2.433-0.704v1.997c-0.243,0.141-0.947,0.346-2.01,0.602c-1.075,0.23-1.37,0.602-1.383,1.396v0.589h3.393   v1.934L24.259,68.153L24.259,68.153z M27.972,66.219v-0.768c0-0.974-0.486-1.55-1.242-1.55c-0.793,0-1.19,0.538-1.203,1.435   c0,0.474,0.038,0.742,0.064,0.883H27.972z"
   id="path3323" />
</g>
<g
   id="g5191"
   transform="translate(161.5829,57.619469)"><g
     transform="translate(0,-58)"
     id="g5008">
	
	
	
	
	
	<path
   style="fill:#454746"
   inkscape:connector-curvature="0"
   id="path5020"
   d="m 125.938,64.035 v 1.293 h -3.354 v -1.293 h 3.354 z" />
	<path
   style="fill:#454746"
   inkscape:connector-curvature="0"
   id="path5022"
   d="M 149.977,64.739 C 149.938,63.702 149.9,62.447 149.9,61.192 h -0.038 c -0.27,1.102 -0.628,2.33 -0.961,3.342 l -1.05,3.367 h -1.523 l -0.921,-3.342 c -0.282,-1.011 -0.576,-2.24 -0.781,-3.367 h -0.025 c -0.052,1.165 -0.09,2.497 -0.154,3.572 l -0.153,3.277 h -1.805 l 0.55,-8.629 h 2.599 l 0.846,2.881 c 0.269,0.998 0.537,2.074 0.729,3.085 h 0.038 c 0.243,-0.998 0.538,-2.138 0.819,-3.098 l 0.922,-2.868 h 2.548 l 0.474,8.629 h -1.907 l -0.13,-3.302 z" />
	<path
   style="fill:#454746"
   inkscape:connector-curvature="0"
   id="path5024"
   d="m 155.479,65.827 -0.614,2.215 h -2.022 l 2.637,-8.629 h 2.561 l 2.676,8.629 h -2.1 l -0.665,-2.215 h -2.473 z m 2.19,-1.459 -0.538,-1.831 c -0.153,-0.512 -0.307,-1.152 -0.435,-1.664 h -0.025 c -0.129,0.512 -0.257,1.165 -0.397,1.664 l -0.512,1.831 h 1.907 z" />
	<path
   style="fill:#454746"
   inkscape:connector-curvature="0"
   id="path5026"
   d="m 161.931,66.032 c 0.524,0.269 1.331,0.537 2.163,0.537 0.896,0 1.37,-0.371 1.37,-0.935 0,-0.537 -0.41,-0.845 -1.446,-1.216 -1.435,-0.499 -2.369,-1.293 -2.369,-2.548 0,-1.472 1.229,-2.599 3.265,-2.599 0.974,0 1.69,0.205 2.202,0.436 l -0.436,1.574 c -0.346,-0.166 -0.96,-0.409 -1.805,-0.409 -0.845,0 -1.255,0.384 -1.255,0.832 0,0.551 0.486,0.794 1.601,1.216 1.523,0.563 2.24,1.357 2.24,2.573 0,1.447 -1.113,2.676 -3.482,2.676 -0.985,0 -1.958,-0.256 -2.445,-0.524 l 0.397,-1.613 z" />
	<path
   style="fill:#454746"
   inkscape:connector-curvature="0"
   id="path5028"
   d="m 170.442,61.051 h -2.316 v -1.639 h 6.631 v 1.639 h -2.355 v 6.99 h -1.959 v -6.99 h -0.001 z" />
	<path
   style="fill:#454746"
   inkscape:connector-curvature="0"
   id="path5030"
   d="m 180.927,64.393 h -3.175 v 2.048 h 3.546 v 1.601 h -5.505 v -8.629 h 5.326 v 1.601 h -3.367 v 1.792 h 3.175 v 1.587 z" />
	<path
   style="fill:#454746"
   inkscape:connector-curvature="0"
   id="path5032"
   d="m 182.628,59.528 c 0.628,-0.103 1.562,-0.179 2.599,-0.179 1.28,0 2.177,0.191 2.791,0.679 0.513,0.409 0.794,1.011 0.794,1.805 0,1.101 -0.781,1.856 -1.523,2.125 v 0.038 c 0.602,0.244 0.935,0.819 1.152,1.613 0.269,0.974 0.537,2.1 0.704,2.433 h -1.997 c -0.141,-0.243 -0.346,-0.947 -0.602,-2.01 -0.23,-1.075 -0.602,-1.37 -1.396,-1.383 h -0.589 v 3.393 h -1.934 v -8.514 h 10e-4 z m 1.933,3.713 h 0.768 c 0.974,0 1.55,-0.486 1.55,-1.242 0,-0.793 -0.538,-1.19 -1.435,-1.203 -0.474,0 -0.742,0.038 -0.883,0.064 l 0,2.381 0,0 z" />
</g><polygon
     style="fill:#75b640"
     transform="translate(0,-58)"
     id="polygon5034"
     points="135.306,66.028 132.12,67.702 132.729,64.155 130.152,61.643 133.713,61.126 135.306,57.898 136.899,61.126 140.46,61.643 137.883,64.155 138.491,67.702 " /></g></svg>