<?xml version="1.0" encoding="utf-8"?>
<!-- Generator: Adobe Illustrator 17.1.0, SVG Export Plug-In . SVG Version: 6.00 Build 0)  -->
<!DOCTYPE svg PUBLIC "-//W3C//DTD SVG 1.1//EN" "http://www.w3.org/Graphics/SVG/1.1/DTD/svg11.dtd">
<svg version="1.1" id="Layer_1" xmlns="http://www.w3.org/2000/svg" xmlns:xlink="http://www.w3.org/1999/xlink" x="0px" y="0px"
	 viewBox="0 0 255.118 396.85" enable-background="new 0 0 255.118 396.85" xml:space="preserve">
<g>
	<path fill="#C6C6C6" d="M128.412,377.662c-0.553,0-1-0.447-1-1v-0.101c0-0.553,0.447-1,1-1s1,0.447,1,1v0.101
		C129.412,377.214,128.965,377.662,128.412,377.662z M128.412,371.561c-0.553,0-1-0.447-1-1s0.447-1.05,1-1.05s1,0.397,1,0.95v0.1
		C129.412,371.114,128.965,371.561,128.412,371.561z M128.412,365.461c-0.553,0-1-0.447-1-1s0.447-1.05,1-1.05s1,0.397,1,0.95v0.1
		C129.412,365.014,128.965,365.461,128.412,365.461z M128.412,359.362c-0.553,0-1-0.447-1-1v-0.101c0-0.553,0.447-1,1-1s1,0.447,1,1
		v0.101C129.412,358.915,128.965,359.362,128.412,359.362z M128.412,353.261c-0.553,0-1-0.447-1-1s0.447-1.05,1-1.05s1,0.397,1,0.95
		v0.1C129.412,352.814,128.965,353.261,128.412,353.261z M128.412,347.162c-0.553,0-1-0.447-1-1v-0.101c0-0.553,0.447-1,1-1
		s1,0.447,1,1v0.101C129.412,346.714,128.965,347.162,128.412,347.162z M128.412,341.061c-0.553,0-1-0.447-1-1s0.447-1.05,1-1.05
		s1,0.397,1,0.95v0.1C129.412,340.614,128.965,341.061,128.412,341.061z M128.412,334.961c-0.553,0-1-0.447-1-1s0.447-1.05,1-1.05
		s1,0.397,1,0.95v0.1C129.412,334.514,128.965,334.961,128.412,334.961z M128.412,328.862c-0.553,0-1-0.447-1-1v-0.101
		c0-0.553,0.447-1,1-1s1,0.447,1,1v0.101C129.412,328.415,128.965,328.862,128.412,328.862z M128.412,322.761c-0.553,0-1-0.447-1-1
		s0.447-1.05,1-1.05s1,0.397,1,0.95v0.1C129.412,322.314,128.965,322.761,128.412,322.761z M128.412,316.662c-0.553,0-1-0.447-1-1
		v-0.101c0-0.553,0.447-1,1-1s1,0.447,1,1v0.101C129.412,316.214,128.965,316.662,128.412,316.662z M128.412,310.561
		c-0.553,0-1-0.447-1-1s0.447-1.05,1-1.05s1,0.397,1,0.95v0.1C129.412,310.114,128.965,310.561,128.412,310.561z M128.412,304.461
		c-0.553,0-1-0.447-1-1s0.447-1.05,1-1.05s1,0.397,1,0.95v0.1C129.412,304.014,128.965,304.461,128.412,304.461z M128.412,298.362
		c-0.553,0-1-0.447-1-1v-0.101c0-0.553,0.447-1,1-1s1,0.447,1,1v0.101C129.412,297.915,128.965,298.362,128.412,298.362z
		 M128.412,292.261c-0.553,0-1-0.447-1-1s0.447-1.05,1-1.05s1,0.397,1,0.95v0.1C129.412,291.814,128.965,292.261,128.412,292.261z
		 M128.412,286.162c-0.553,0-1-0.447-1-1v-0.101c0-0.553,0.447-1,1-1s1,0.447,1,1v0.101
		C129.412,285.714,128.965,286.162,128.412,286.162z M128.412,280.061c-0.553,0-1-0.447-1-1s0.447-1.05,1-1.05s1,0.397,1,0.95v0.1
		C129.412,279.614,128.965,280.061,128.412,280.061z M128.412,273.961c-0.553,0-1-0.447-1-1v-0.1c0-0.553,0.447-1,1-1s1,0.447,1,1
		v0.101C129.412,273.514,128.965,273.961,128.412,273.961z M128.412,267.861c-0.553,0-1-0.447-1-1s0.447-1.05,1-1.05s1,0.397,1,0.95
		v0.1C129.412,267.414,128.965,267.861,128.412,267.861z M128.412,261.761c-0.553,0-1-0.447-1-1s0.447-1.05,1-1.05s1,0.397,1,0.95
		v0.1C129.412,261.314,128.965,261.761,128.412,261.761z M128.412,255.662c-0.553,0-1-0.447-1-1v-0.101c0-0.553,0.447-1,1-1
		s1,0.447,1,1v0.101C129.412,255.214,128.965,255.662,128.412,255.662z M128.412,249.561c-0.553,0-1-0.447-1-1s0.447-1.05,1-1.05
		s1,0.397,1,0.95v0.1C129.412,249.114,128.965,249.561,128.412,249.561z M128.412,243.461c-0.553,0-1-0.447-1-1v-0.1
		c0-0.553,0.447-1,1-1s1,0.447,1,1v0.101C129.412,243.014,128.965,243.461,128.412,243.461z M128.412,237.361c-0.553,0-1-0.447-1-1
		s0.447-1.05,1-1.05s1,0.397,1,0.95v0.1C129.412,236.914,128.965,237.361,128.412,237.361z M128.412,231.261c-0.553,0-1-0.447-1-1
		s0.447-1.05,1-1.05s1,0.397,1,0.95v0.1C129.412,230.814,128.965,231.261,128.412,231.261z M128.412,225.162c-0.553,0-1-0.447-1-1
		v-0.101c0-0.553,0.447-1,1-1s1,0.447,1,1v0.101C129.412,224.714,128.965,225.162,128.412,225.162z M128.412,219.061
		c-0.553,0-1-0.447-1-1s0.447-1.05,1-1.05s1,0.397,1,0.95v0.1C129.412,218.614,128.965,219.061,128.412,219.061z M128.412,212.961
		c-0.553,0-1-0.447-1-1v-0.1c0-0.553,0.447-1,1-1s1,0.447,1,1v0.101C129.412,212.514,128.965,212.961,128.412,212.961z
		 M128.412,206.861c-0.553,0-1-0.447-1-1s0.447-1.05,1-1.05s1,0.397,1,0.95v0.1C129.412,206.414,128.965,206.861,128.412,206.861z
		 M128.412,200.761c-0.553,0-1-0.447-1-1s0.447-1.05,1-1.05s1,0.397,1,0.95v0.1C129.412,200.314,128.965,200.761,128.412,200.761z
		 M128.412,194.662c-0.553,0-1-0.447-1-1v-0.101c0-0.553,0.447-1,1-1s1,0.447,1,1v0.101
		C129.412,194.214,128.965,194.662,128.412,194.662z M128.412,188.561c-0.553,0-1-0.448-1-1s0.447-1.05,1-1.05s1,0.398,1,0.95v0.1
		C129.412,188.113,128.965,188.561,128.412,188.561z M128.412,182.461c-0.553,0-1-0.448-1-1v-0.1c0-0.552,0.447-1,1-1s1,0.448,1,1
		v0.1C129.412,182.014,128.965,182.461,128.412,182.461z M128.412,176.361c-0.553,0-1-0.448-1-1v-0.1c0-0.552,0.447-1,1-1
		s1,0.448,1,1v0.1C129.412,175.914,128.965,176.361,128.412,176.361z M128.412,170.261c-0.553,0-1-0.448-1-1v-0.1
		c0-0.552,0.447-1,1-1s1,0.448,1,1v0.1C129.412,169.813,128.965,170.261,128.412,170.261z M128.412,164.161c-0.553,0-1-0.448-1-1
		v-0.1c0-0.552,0.447-1,1-1s1,0.448,1,1v0.1C129.412,163.713,128.965,164.161,128.412,164.161z M128.412,158.061
		c-0.553,0-1-0.448-1-1v-0.1c0-0.552,0.447-1,1-1s1,0.448,1,1v0.1C129.412,157.613,128.965,158.061,128.412,158.061z
		 M128.412,151.961c-0.553,0-1-0.448-1-1s0.447-1.05,1-1.05s1,0.398,1,0.95v0.1C129.412,151.513,128.965,151.961,128.412,151.961z
		 M128.412,145.861c-0.553,0-1-0.448-1-1v-0.1c0-0.552,0.447-1,1-1s1,0.448,1,1v0.1
		C129.412,145.414,128.965,145.861,128.412,145.861z M128.412,139.761c-0.553,0-1-0.448-1-1v-0.1c0-0.552,0.447-1,1-1s1,0.448,1,1
		v0.1C129.412,139.313,128.965,139.761,128.412,139.761z M128.412,133.661c-0.553,0-1-0.448-1-1v-0.1c0-0.552,0.447-1,1-1
		s1,0.448,1,1v0.1C129.412,133.213,128.965,133.661,128.412,133.661z M128.412,127.561c-0.553,0-1-0.448-1-1v-0.1
		c0-0.552,0.447-1,1-1s1,0.448,1,1v0.1C129.412,127.113,128.965,127.561,128.412,127.561z M128.412,121.461c-0.553,0-1-0.448-1-1
		s0.447-1.05,1-1.05s1,0.398,1,0.95v0.1C129.412,121.013,128.965,121.461,128.412,121.461z M128.412,115.361c-0.553,0-1-0.448-1-1
		s0.447-1.05,1-1.05s1,0.398,1,0.95v0.1C129.412,114.913,128.965,115.361,128.412,115.361z M128.412,109.261c-0.553,0-1-0.448-1-1
		v-0.1c0-0.552,0.447-1,1-1s1,0.448,1,1v0.1C129.412,108.813,128.965,109.261,128.412,109.261z M128.412,103.161
		c-0.553,0-1-0.448-1-1v-0.1c0-0.552,0.447-1,1-1s1,0.448,1,1v0.1C129.412,102.713,128.965,103.161,128.412,103.161z
		 M128.412,97.061c-0.553,0-1-0.448-1-1v-0.1c0-0.552,0.447-1,1-1s1,0.448,1,1v0.1C129.412,96.613,128.965,97.061,128.412,97.061z
		 M128.412,90.961c-0.553,0-1-0.448-1-1v-0.1c0-0.552,0.447-1,1-1s1,0.448,1,1v0.1C129.412,90.513,128.965,90.961,128.412,90.961z
		 M128.412,84.861c-0.553,0-1-0.448-1-1s0.447-1.05,1-1.05s1,0.398,1,0.95v0.1C129.412,84.413,128.965,84.861,128.412,84.861z
		 M128.412,78.761c-0.553,0-1-0.448-1-1v-0.1c0-0.552,0.447-1,1-1s1,0.448,1,1v0.1C129.412,78.313,128.965,78.761,128.412,78.761z
		 M128.412,72.661c-0.553,0-1-0.448-1-1v-0.1c0-0.552,0.447-1,1-1s1,0.448,1,1v0.1C129.412,72.213,128.965,72.661,128.412,72.661z
		 M128.412,66.561c-0.553,0-1-0.448-1-1v-0.1c0-0.552,0.447-1,1-1s1,0.448,1,1v0.1C129.412,66.113,128.965,66.561,128.412,66.561z
		 M128.412,60.461c-0.553,0-1-0.448-1-1v-0.1c0-0.552,0.447-1,1-1s1,0.448,1,1v0.1C129.412,60.013,128.965,60.461,128.412,60.461z
		 M128.412,54.361c-0.553,0-1-0.448-1-1s0.447-1.05,1-1.05s1,0.398,1,0.95v0.1C129.412,53.913,128.965,54.361,128.412,54.361z
		 M128.412,48.261c-0.553,0-1-0.448-1-1v-0.1c0-0.552,0.447-1,1-1s1,0.448,1,1v0.1C129.412,47.813,128.965,48.261,128.412,48.261z
		 M128.412,42.161c-0.553,0-1-0.448-1-1v-0.1c0-0.552,0.447-1,1-1s1,0.448,1,1v0.1C129.412,41.713,128.965,42.161,128.412,42.161z
		 M128.412,36.061c-0.553,0-1-0.448-1-1v-0.1c0-0.552,0.447-1,1-1s1,0.448,1,1v0.1C129.412,35.613,128.965,36.061,128.412,36.061z
		 M128.412,29.961c-0.553,0-1-0.448-1-1v-0.1c0-0.552,0.447-1,1-1s1,0.448,1,1v0.1C129.412,29.513,128.965,29.961,128.412,29.961z
		 M128.412,23.861c-0.553,0-1-0.448-1-1s0.447-1.05,1-1.05s1,0.398,1,0.95v0.1C129.412,23.413,128.965,23.861,128.412,23.861z
		 M128.412,17.761c-0.553,0-1-0.448-1-1v-0.1c0-0.552,0.447-1,1-1s1,0.448,1,1v0.1C129.412,17.313,128.965,17.761,128.412,17.761z"
		/>
</g>
<path fill="#75B640" d="M150.412,54.361c0,1.105-0.895,2-2,2h-40c-1.105,0-2-0.895-2-2v-20c0-1.105,0.895-2,2-2h40
	c1.105,0,2,0.895,2,2V54.361z"/>
<g>
	<path fill="#FFFFFF" d="M120.777,41.806h-0.025l-1.588,0.755l-0.32-1.459l2.202-1.024h1.613v8.321h-1.882V41.806z"/>
	<path fill="#FFFFFF" d="M131.542,44.199c0,2.573-1.037,4.34-3.162,4.34c-2.15,0-3.098-1.933-3.111-4.288
		c0-2.407,1.024-4.314,3.176-4.314C130.672,39.936,131.542,41.921,131.542,44.199z M127.227,44.251
		c-0.013,1.907,0.448,2.816,1.204,2.816c0.755,0,1.164-0.947,1.164-2.843c0-1.843-0.396-2.816-1.178-2.816
		C127.701,41.408,127.215,42.317,127.227,44.251z"/>
	<path fill="#FFFFFF" d="M138.646,44.199c0,2.573-1.037,4.34-3.162,4.34c-2.15,0-3.098-1.933-3.11-4.288
		c0-2.407,1.023-4.314,3.175-4.314C137.776,39.936,138.646,41.921,138.646,44.199z M134.332,44.251
		c-0.013,1.907,0.448,2.816,1.204,2.816c0.755,0,1.164-0.947,1.164-2.843c0-1.843-0.396-2.816-1.178-2.816
		C134.806,41.408,134.319,42.317,134.332,44.251z"/>
</g>
<path fill="#75B640" d="M150.412,316.561c0,1.105-0.895,2-2,2h-40c-1.105,0-2-0.895-2-2v-20c0-1.105,0.895-2,2-2h40
	c1.105,0,2,0.895,2,2V316.561z"/>
<g>
	<path fill="#FFFFFF" d="M122.461,309.19c0.243,0.025,0.461,0.025,0.845,0c0.589-0.038,1.19-0.205,1.639-0.512
		c0.538-0.372,0.896-0.909,1.05-1.537l-0.038-0.013c-0.371,0.385-0.909,0.603-1.665,0.603c-1.408,0-2.599-0.986-2.599-2.6
		c0-1.626,1.306-2.995,3.137-2.995c2.138,0,3.149,1.639,3.149,3.584c0,1.729-0.551,2.996-1.459,3.828
		c-0.794,0.717-1.883,1.114-3.176,1.165c-0.332,0.025-0.665,0.013-0.883,0L122.461,309.19L122.461,309.19z M123.639,305.016
		c0,0.717,0.384,1.332,1.178,1.332c0.524,0,0.896-0.256,1.075-0.551c0.064-0.115,0.103-0.243,0.103-0.486
		c0-0.884-0.333-1.754-1.216-1.754C124.112,303.557,123.626,304.146,123.639,305.016z"/>
	<path fill="#FFFFFF" d="M129.564,309.19c0.243,0.025,0.461,0.025,0.845,0c0.589-0.038,1.19-0.205,1.639-0.512
		c0.538-0.372,0.896-0.909,1.05-1.537l-0.038-0.013c-0.371,0.385-0.909,0.603-1.665,0.603c-1.408,0-2.599-0.986-2.599-2.6
		c0-1.626,1.306-2.995,3.137-2.995c2.138,0,3.149,1.639,3.149,3.584c0,1.729-0.551,2.996-1.459,3.828
		c-0.794,0.717-1.883,1.114-3.176,1.165c-0.332,0.025-0.665,0.013-0.883,0L129.564,309.19L129.564,309.19z M130.742,305.016
		c0,0.717,0.384,1.332,1.178,1.332c0.524,0,0.896-0.256,1.075-0.551c0.064-0.115,0.103-0.243,0.103-0.486
		c0-0.884-0.333-1.754-1.216-1.754C131.216,303.557,130.729,304.146,130.742,305.016z"/>
</g>
<path fill="#75B640" d="M150.412,353.061c0,1.105-0.895,2-2,2h-40c-1.105,0-2-0.895-2-2v-20c0-1.105,0.895-2,2-2h40
	c1.105,0,2,0.895,2,2V353.061z"/>
<g>
	<path fill="#FFFFFF" d="M122.461,345.69c0.243,0.025,0.461,0.025,0.845,0c0.589-0.038,1.19-0.205,1.639-0.512
		c0.538-0.372,0.896-0.909,1.05-1.537l-0.038-0.013c-0.371,0.385-0.909,0.603-1.665,0.603c-1.408,0-2.599-0.986-2.599-2.6
		c0-1.626,1.306-2.995,3.137-2.995c2.138,0,3.149,1.639,3.149,3.584c0,1.729-0.551,2.996-1.459,3.828
		c-0.794,0.717-1.883,1.114-3.176,1.165c-0.332,0.025-0.665,0.013-0.883,0L122.461,345.69L122.461,345.69z M123.639,341.516
		c0,0.717,0.384,1.332,1.178,1.332c0.524,0,0.896-0.256,1.075-0.551c0.064-0.115,0.103-0.243,0.103-0.486
		c0-0.884-0.333-1.754-1.216-1.754C124.112,340.057,123.626,340.646,123.639,341.516z"/>
	<path fill="#FFFFFF" d="M129.564,345.69c0.243,0.025,0.461,0.025,0.845,0c0.589-0.038,1.19-0.205,1.639-0.512
		c0.538-0.372,0.896-0.909,1.05-1.537l-0.038-0.013c-0.371,0.385-0.909,0.603-1.665,0.603c-1.408,0-2.599-0.986-2.599-2.6
		c0-1.626,1.306-2.995,3.137-2.995c2.138,0,3.149,1.639,3.149,3.584c0,1.729-0.551,2.996-1.459,3.828
		c-0.794,0.717-1.883,1.114-3.176,1.165c-0.332,0.025-0.665,0.013-0.883,0L129.564,345.69L129.564,345.69z M130.742,341.516
		c0,0.717,0.384,1.332,1.178,1.332c0.524,0,0.896-0.256,1.075-0.551c0.064-0.115,0.103-0.243,0.103-0.486
		c0-0.884-0.333-1.754-1.216-1.754C131.216,340.057,130.729,340.646,130.742,341.516z"/>
</g>
<path fill="#75B640" d="M244.412,229.061c0,1.105-0.895,2-2,2h-40c-1.105,0-2-0.895-2-2v-20c0-1.105,0.895-2,2-2h40
	c1.105,0,2,0.895,2,2V229.061z"/>
<g>
	<path fill="#FFFFFF" d="M216.461,221.69c0.243,0.025,0.461,0.025,0.845,0c0.589-0.038,1.19-0.205,1.639-0.512
		c0.538-0.372,0.896-0.909,1.05-1.537l-0.038-0.013c-0.371,0.385-0.909,0.603-1.665,0.603c-1.408,0-2.599-0.986-2.599-2.6
		c0-1.626,1.306-2.995,3.137-2.995c2.138,0,3.149,1.639,3.149,3.584c0,1.729-0.551,2.996-1.459,3.828
		c-0.794,0.717-1.883,1.114-3.176,1.165c-0.332,0.025-0.665,0.013-0.883,0L216.461,221.69L216.461,221.69z M217.639,217.516
		c0,0.717,0.384,1.332,1.178,1.332c0.524,0,0.896-0.256,1.075-0.551c0.064-0.115,0.103-0.243,0.103-0.486
		c0-0.884-0.333-1.754-1.216-1.754C218.112,216.057,217.626,216.646,217.639,217.516z"/>
	<path fill="#FFFFFF" d="M223.564,221.69c0.243,0.025,0.461,0.025,0.845,0c0.589-0.038,1.19-0.205,1.639-0.512
		c0.538-0.372,0.896-0.909,1.05-1.537l-0.038-0.013c-0.371,0.385-0.909,0.603-1.665,0.603c-1.408,0-2.599-0.986-2.599-2.6
		c0-1.626,1.306-2.995,3.137-2.995c2.138,0,3.149,1.639,3.149,3.584c0,1.729-0.551,2.996-1.459,3.828
		c-0.794,0.717-1.883,1.114-3.176,1.165c-0.332,0.025-0.665,0.013-0.883,0L223.564,221.69L223.564,221.69z M224.742,217.516
		c0,0.717,0.384,1.332,1.178,1.332c0.524,0,0.896-0.256,1.075-0.551c0.064-0.115,0.103-0.243,0.103-0.486
		c0-0.884-0.333-1.754-1.216-1.754C225.216,216.057,224.729,216.646,224.742,217.516z"/>
</g>
<path fill="#75B640" d="M56.412,229.061c0,1.105-0.895,2-2,2h-40c-1.105,0-2-0.895-2-2v-20c0-1.105,0.895-2,2-2h40
	c1.105,0,2,0.895,2,2V229.061z"/>
<g>
	<path fill="#FFFFFF" d="M28.461,221.69c0.243,0.025,0.461,0.025,0.845,0c0.589-0.038,1.19-0.205,1.639-0.512
		c0.538-0.372,0.896-0.909,1.05-1.537l-0.038-0.013c-0.371,0.385-0.909,0.603-1.665,0.603c-1.408,0-2.599-0.986-2.599-2.6
		c0-1.626,1.306-2.995,3.137-2.995c2.138,0,3.149,1.639,3.149,3.584c0,1.729-0.551,2.996-1.459,3.828
		c-0.794,0.717-1.883,1.114-3.176,1.165c-0.332,0.025-0.665,0.013-0.883,0L28.461,221.69L28.461,221.69z M29.639,217.516
		c0,0.717,0.384,1.332,1.178,1.332c0.524,0,0.896-0.256,1.075-0.551c0.064-0.115,0.103-0.243,0.103-0.486
		c0-0.884-0.333-1.754-1.216-1.754C30.112,216.057,29.626,216.646,29.639,217.516z"/>
	<path fill="#FFFFFF" d="M35.564,221.69c0.243,0.025,0.461,0.025,0.845,0c0.589-0.038,1.19-0.205,1.639-0.512
		c0.538-0.372,0.896-0.909,1.05-1.537l-0.038-0.013c-0.371,0.385-0.909,0.603-1.665,0.603c-1.408,0-2.599-0.986-2.599-2.6
		c0-1.626,1.306-2.995,3.137-2.995c2.138,0,3.149,1.639,3.149,3.584c0,1.729-0.551,2.996-1.459,3.828
		c-0.794,0.717-1.883,1.114-3.176,1.165c-0.332,0.025-0.665,0.013-0.883,0L35.564,221.69L35.564,221.69z M36.742,217.516
		c0,0.717,0.384,1.332,1.178,1.332c0.524,0,0.896-0.256,1.075-0.551c0.064-0.115,0.103-0.243,0.103-0.486
		c0-0.884-0.333-1.754-1.216-1.754C37.216,216.057,36.729,216.646,36.742,217.516z"/>
</g>
<g>
	<g>
		<path fill="none" stroke="#454746" stroke-width="1.6" stroke-linecap="round" stroke-miterlimit="10" d="M96.412,44.361
			c-34.276,0-59.27,19.683-61.79,64.942"/>
		<g>
			<path fill="#454746" d="M34.412,117.027c-1.23-3.677-3.383-8.259-5.728-11.133l6.013,2.399l6.155-2.003
				C38.324,109.005,35.877,113.438,34.412,117.027z"/>
		</g>
	</g>
</g>
<g>
	<g>
		<path fill="none" stroke="#454746" stroke-width="1.6" stroke-linecap="round" stroke-miterlimit="10" d="M34.412,240.402
			c0,34.615,0,62.513,54.942,64.842"/>
		<g>
			<path fill="#454746" d="M97.078,305.402c-3.674,1.239-8.251,3.403-11.119,5.755l2.384-6.018l-2.017-6.15
				C89.047,301.509,93.485,303.945,97.078,305.402z"/>
		</g>
	</g>
</g>
<g>
	<g>
		<path fill="none" stroke="#454746" stroke-width="1.6" stroke-linecap="round" stroke-miterlimit="10" d="M222.745,240.402
			c0,58.585,0,99.065-54.939,102.432"/>
		<g>
			<path fill="#454746" d="M160.079,343.061c3.584-1.479,8.008-3.942,10.714-6.479l-1.981,6.163l2.42,6.003
				C168.35,346.413,163.76,344.276,160.079,343.061z"/>
		</g>
	</g>
</g>
<g>
	<g>
		<path fill="none" stroke="#454746" stroke-width="1.6" stroke-linecap="round" stroke-miterlimit="10" d="M160.412,44.361
			c34.276,0,59.271,19.683,61.79,64.942"/>
		<g>
			<path fill="#454746" d="M222.412,117.027c-1.466-3.589-3.913-8.022-6.44-10.737l6.156,2.003l6.011-2.399
				C225.794,108.768,223.64,113.35,222.412,117.027z"/>
		</g>
	</g>
</g>
<g>
	<path fill="#454746" d="M18.809,137.027l-2.112-8.629h1.677l0.819,3.918c0.218,1.05,0.423,2.15,0.563,3.008h0.025
		c0.141-0.908,0.384-1.933,0.627-3.021l0.935-3.905h1.651l0.858,3.969c0.218,1.024,0.396,1.984,0.524,2.919h0.025
		c0.154-0.947,0.359-1.933,0.59-2.982l0.896-3.905h1.601l-2.317,8.629h-1.689l-0.896-4.059c-0.218-0.985-0.371-1.805-0.474-2.739
		h-0.025c-0.154,0.922-0.32,1.754-0.576,2.739l-0.999,4.059h-1.703V137.027z"/>
	<path fill="#454746" d="M29.1,134.351c0.038,1.127,0.922,1.613,1.92,1.613c0.729,0,1.255-0.103,1.729-0.281l0.23,1.088
		c-0.538,0.218-1.28,0.384-2.177,0.384c-2.022,0-3.213-1.242-3.213-3.149c0-1.729,1.05-3.354,3.047-3.354
		c2.022,0,2.688,1.664,2.688,3.033c0,0.295-0.025,0.525-0.052,0.666H29.1z M31.84,133.25c0.013-0.576-0.243-1.523-1.293-1.523
		c-0.973,0-1.383,0.883-1.446,1.523H31.84z"/>
	<path fill="#454746" d="M34.54,137.027c0.025-0.423,0.051-1.114,0.051-1.754v-7.336h1.575v3.713h0.025
		c0.384-0.602,1.062-0.998,1.997-0.998c1.523,0,2.611,1.267,2.599,3.162c0,2.24-1.421,3.354-2.829,3.354
		c-0.807,0-1.523-0.307-1.972-1.075h-0.025l-0.077,0.935H34.54V137.027z M36.166,134.454c0,0.128,0.013,0.256,0.038,0.371
		c0.166,0.628,0.717,1.102,1.396,1.102c0.985,0,1.587-0.794,1.587-2.049c0-1.101-0.524-1.997-1.574-1.997
		c-0.64,0-1.216,0.461-1.396,1.152c-0.025,0.115-0.051,0.256-0.051,0.409V134.454z"/>
	<path fill="#454746" d="M45.074,133.071v1.089h-3.265v-1.089H45.074z"/>
	<path fill="#454746" d="M48.479,130.126h-0.025l-1.523,0.769l-0.27-1.191l2.023-0.998h1.318v8.321h-1.523V130.126z"/>
</g>
<g>
	<path fill="#454746" d="M206.809,137.027l-2.112-8.629h1.677l0.819,3.918c0.218,1.05,0.423,2.15,0.563,3.008h0.025
		c0.141-0.908,0.384-1.933,0.627-3.021l0.935-3.905h1.651l0.858,3.969c0.218,1.024,0.396,1.984,0.524,2.919h0.025
		c0.154-0.947,0.359-1.933,0.59-2.982l0.896-3.905h1.601l-2.317,8.629h-1.689l-0.896-4.059c-0.218-0.985-0.371-1.805-0.474-2.739
		h-0.025c-0.154,0.922-0.32,1.754-0.576,2.739l-0.999,4.059h-1.703V137.027z"/>
	<path fill="#454746" d="M217.1,134.351c0.038,1.127,0.922,1.613,1.92,1.613c0.729,0,1.255-0.103,1.729-0.281l0.23,1.088
		c-0.538,0.218-1.28,0.384-2.177,0.384c-2.022,0-3.213-1.242-3.213-3.149c0-1.729,1.05-3.354,3.047-3.354
		c2.022,0,2.688,1.664,2.688,3.033c0,0.295-0.025,0.525-0.052,0.666H217.1z M219.84,133.25c0.013-0.576-0.243-1.523-1.293-1.523
		c-0.973,0-1.383,0.883-1.446,1.523H219.84z"/>
	<path fill="#454746" d="M222.54,137.027c0.025-0.423,0.051-1.114,0.051-1.754v-7.336h1.575v3.713h0.025
		c0.384-0.602,1.062-0.998,1.997-0.998c1.523,0,2.611,1.267,2.599,3.162c0,2.24-1.421,3.354-2.829,3.354
		c-0.807,0-1.523-0.307-1.972-1.075h-0.025l-0.077,0.935h-1.344V137.027z M224.166,134.454c0,0.128,0.013,0.256,0.038,0.371
		c0.166,0.628,0.717,1.102,1.396,1.102c0.985,0,1.587-0.794,1.587-2.049c0-1.101-0.524-1.997-1.574-1.997
		c-0.64,0-1.216,0.461-1.396,1.152c-0.025,0.115-0.051,0.256-0.051,0.409V134.454z"/>
	<path fill="#454746" d="M233.074,133.071v1.089h-3.265v-1.089H233.074z"/>
	<path fill="#454746" d="M234.009,137.027v-0.96l0.985-0.909c1.959-1.818,2.881-2.816,2.894-3.917c0-0.743-0.397-1.396-1.485-1.396
		c-0.729,0-1.356,0.371-1.779,0.691l-0.461-1.114c0.602-0.486,1.511-0.857,2.561-0.857c1.844,0,2.739,1.165,2.739,2.521
		c0,1.46-1.05,2.638-2.496,3.981l-0.729,0.628v0.025h3.418v1.306h-5.647V137.027z"/>
</g>
<g>
	<g>
		
			<line fill="none" stroke="#454746" stroke-width="1.6" stroke-linecap="round" stroke-miterlimit="10" x1="34.412" y1="150.027" x2="34.412" y2="189.334"/>
		<g>
			<path fill="#454746" d="M34.412,197.059c-1.349-3.635-3.65-8.145-6.088-10.941l6.088,2.202l6.086-2.202
				C38.061,188.914,35.76,193.424,34.412,197.059z"/>
		</g>
	</g>
</g>
<circle fill="#8EA07C" cx="64.412" cy="167.806" r="11"/>
<g>
	<path fill="#FFFFFF" d="M61.538,168.037v1.293h-3.354v-1.293H61.538z"/>
	<path fill="#FFFFFF" d="M64.942,165.451h-0.025l-1.588,0.755l-0.32-1.459l2.202-1.024h1.613v8.321h-1.882V165.451z"/>
</g>
<g>
	<g>
		
			<line fill="none" stroke="#454746" stroke-width="1.6" stroke-linecap="round" stroke-miterlimit="10" x1="222.412" y1="150.027" x2="222.412" y2="189.334"/>
		<g>
			<path fill="#454746" d="M222.412,197.059c-1.349-3.635-3.65-8.145-6.088-10.941l6.088,2.202l6.086-2.202
				C226.061,188.914,223.759,193.424,222.412,197.059z"/>
		</g>
	</g>
</g>
<circle fill="#8EA07C" cx="192.412" cy="167.806" r="11"/>
<g>
	<path fill="#FFFFFF" d="M189.538,168.037v1.293h-3.354v-1.293H189.538z"/>
	<path fill="#FFFFFF" d="M192.942,165.451h-0.025l-1.588,0.755l-0.32-1.459l2.202-1.024h1.613v8.321h-1.882V165.451z"/>
</g>
<g>
	<path fill="#454746" d="M51.557,52.161c-0.317,0.494-1.007,1.366-1.928,2.059c-1.166,0.877-2.27,1.242-3.394,1.111
		c-1.053-0.122-2.096-0.763-2.87-1.814c-1.64-2.18-1.138-4.75,1.144-6.466c0.849-0.639,1.645-0.966,2.078-1.051l0.484,1.221
		c-0.501,0.121-1.062,0.334-1.788,0.881c-1.474,1.108-1.853,2.755-0.645,4.361c1.178,1.566,2.839,1.773,4.272,0.696
		c0.449-0.338,0.74-0.654,0.844-0.859l-1.293-1.718l-1.219,0.916l-0.746-0.993l2.436-1.832L51.557,52.161z"/>
	<path fill="#454746" d="M52.375,48.693c0.708,0.878,1.706,0.735,2.504,0.135c0.583-0.438,0.941-0.836,1.212-1.264l0.838,0.731
		c-0.299,0.498-0.791,1.077-1.508,1.615c-1.616,1.216-3.314,0.939-4.461-0.585c-1.039-1.381-1.178-3.312,0.419-4.512
		c1.616-1.216,3.149-0.287,3.972,0.808c0.178,0.236,0.296,0.435,0.359,0.563L52.375,48.693z M53.902,46.167
		c-0.336-0.468-1.11-1.071-1.948-0.44c-0.777,0.585-0.574,1.537-0.24,2.087L53.902,46.167z"/>
	<path fill="#454746" d="M54.997,40.042l1.069,1.422l1.196-0.9l0.708,0.941l-1.196,0.9l1.654,2.199
		c0.455,0.604,0.855,0.798,1.338,0.436c0.215-0.162,0.355-0.315,0.444-0.431l0.743,0.946c-0.129,0.21-0.418,0.507-0.818,0.808
		c-0.46,0.347-0.965,0.485-1.391,0.407c-0.482-0.086-0.943-0.444-1.436-1.099l-1.763-2.343l-0.717,0.539l-0.708-0.941l0.717-0.539
		l-0.846-1.125L54.997,40.042z"/>
</g>
<g>
	<path fill="#454746" d="M204.131,51.65c-0.562-0.168-1.592-0.588-2.514-1.279c-1.166-0.877-1.824-1.836-2.01-2.952
		c-0.176-1.044,0.15-2.225,0.945-3.261c1.639-2.181,4.248-2.413,6.529-0.698c0.85,0.638,1.385,1.312,1.587,1.704l-1.038,0.805
		c-0.256-0.448-0.616-0.928-1.343-1.473c-1.474-1.107-3.161-1.015-4.368,0.592c-1.178,1.566-0.915,3.221,0.518,4.297
		c0.45,0.338,0.835,0.531,1.061,0.572l1.291-1.72l-1.218-0.915l0.746-0.993l2.437,1.831L204.131,51.65z"/>
	<path fill="#454746" d="M207.689,51.472c-0.646,0.924-0.232,1.844,0.565,2.443c0.583,0.438,1.065,0.672,1.551,0.813l-0.47,1.009
		c-0.561-0.15-1.254-0.463-1.971-1.002c-1.616-1.215-1.822-2.922-0.676-4.447c1.038-1.382,2.854-2.051,4.45-0.851
		c1.616,1.215,1.149,2.944,0.327,4.04c-0.177,0.235-0.336,0.404-0.441,0.501L207.689,51.472z M210.54,52.238
		c0.356-0.453,0.721-1.363-0.118-1.994c-0.777-0.584-1.637-0.125-2.072,0.349L210.54,52.238z"/>
	<path fill="#454746" d="M216.728,51.587l-1.068,1.423l1.196,0.899l-0.708,0.941l-1.196-0.899l-1.653,2.2
		c-0.453,0.604-0.529,1.044-0.047,1.406c0.215,0.161,0.401,0.254,0.537,0.308l-0.703,0.978c-0.238-0.066-0.604-0.262-1.003-0.562
		c-0.46-0.346-0.733-0.792-0.777-1.225c-0.051-0.486,0.165-1.028,0.657-1.684l1.762-2.344l-0.717-0.539l0.707-0.941l0.717,0.539
		l0.846-1.126L216.728,51.587z"/>
</g>
<g>
	<path fill="#454746" d="M203.166,339.436c0.33-0.468,0.833-1.068,1.591-1.812c0.821-0.809,1.595-1.227,2.311-1.283
		c0.661-0.059,1.374,0.191,1.938,0.768c0.574,0.584,0.868,1.248,0.844,1.918c-0.008,0.887-0.504,1.788-1.299,2.568
		c-0.21,0.207-0.41,0.386-0.584,0.502l2.279,2.319l-1.114,1.095L203.166,339.436z M207.097,341.21
		c0.173-0.099,0.364-0.269,0.593-0.493c0.84-0.826,0.948-1.738,0.24-2.46c-0.674-0.686-1.508-0.583-2.284,0.179
		c-0.311,0.305-0.503,0.547-0.595,0.691L207.097,341.21z"/>
	<path fill="#454746" d="M216.752,335.403c0.521,0.529,0.971,0.95,1.347,1.298l-0.985,0.968l-0.719-0.621l-0.019,0.018
		c0.122,0.509,0.132,1.396-0.662,2.176c-0.813,0.799-2.028,1.041-3.454-0.41l-2.566-2.611l1.123-1.104l2.377,2.42
		c0.728,0.74,1.431,0.98,2.024,0.397c0.448-0.44,0.426-1.046,0.267-1.446c-0.062-0.136-0.151-0.281-0.277-0.409l-2.637-2.685
		l1.123-1.104L216.752,335.403z"/>
	<path fill="#454746" d="M214.947,328.563l1.247,1.27l1.067-1.05l0.826,0.841l-1.068,1.049l1.929,1.963
		c0.53,0.539,0.953,0.68,1.383,0.257c0.192-0.188,0.312-0.358,0.386-0.485l0.861,0.841c-0.102,0.226-0.35,0.558-0.706,0.908
		c-0.411,0.403-0.893,0.607-1.327,0.585c-0.488-0.021-0.992-0.316-1.566-0.9l-2.055-2.092l-0.639,0.629l-0.826-0.841l0.64-0.628
		l-0.987-1.004L214.947,328.563z"/>
</g>
<g>
	<path fill="#454746" d="M44.933,299.53c0.562,0.109,1.317,0.32,2.308,0.706c1.073,0.419,1.772,0.952,2.118,1.581
		c0.324,0.579,0.388,1.332,0.095,2.084c-0.297,0.764-0.782,1.303-1.402,1.557c-0.812,0.355-1.838,0.272-2.875-0.131
		c-0.275-0.107-0.521-0.217-0.697-0.328l-1.181,3.03l-1.455-0.566L44.933,299.53z M44.93,303.842
		c0.16,0.117,0.395,0.223,0.693,0.338c1.097,0.428,1.974,0.151,2.341-0.791c0.349-0.895-0.086-1.613-1.1-2.009
		c-0.406-0.157-0.705-0.233-0.875-0.258L44.93,303.842z"/>
	<path fill="#454746" d="M54.188,310.264c-0.27,0.691-0.47,1.275-0.632,1.761l-1.287-0.501l0.271-0.911l-0.023-0.01
		c-0.414,0.32-1.219,0.693-2.256,0.289c-1.062-0.413-1.782-1.423-1.043-3.319l1.329-3.41l1.467,0.57l-1.231,3.162
		c-0.377,0.966-0.309,1.706,0.467,2.008c0.586,0.229,1.13-0.041,1.429-0.35c0.099-0.112,0.195-0.254,0.26-0.421l1.366-3.507
		l1.468,0.572L54.188,310.264z"/>
	<path fill="#454746" d="M59.684,305.812l-0.646,1.658l1.396,0.543l-0.428,1.097l-1.396-0.543l-0.999,2.564
		c-0.273,0.704-0.228,1.148,0.334,1.367c0.25,0.097,0.455,0.136,0.6,0.151l-0.413,1.131c-0.247-0.001-0.651-0.09-1.117-0.271
		c-0.537-0.209-0.92-0.564-1.078-0.969c-0.181-0.455-0.118-1.036,0.179-1.799l1.064-2.732l-0.836-0.325l0.428-1.098l0.836,0.326
		l0.511-1.312L59.684,305.812z"/>
</g>
</svg>
