<?xml version="1.0" encoding="UTF-8" standalone="no"?>
<!-- Generator: Adobe Illustrator 17.1.0, SVG Export Plug-In . SVG Version: 6.00 Build 0)  -->

<svg
   xmlns:dc="http://purl.org/dc/elements/1.1/"
   xmlns:cc="http://creativecommons.org/ns#"
   xmlns:rdf="http://www.w3.org/1999/02/22-rdf-syntax-ns#"
   xmlns:svg="http://www.w3.org/2000/svg"
   xmlns="http://www.w3.org/2000/svg"
   xmlns:sodipodi="http://sodipodi.sourceforge.net/DTD/sodipodi-0.dtd"
   xmlns:inkscape="http://www.inkscape.org/namespaces/inkscape"
   version="1.1"
   x="0px"
   y="0px"
   viewBox="0 0 566.929 255.026"
   enable-background="new 0 0 566.929 255.026"
   xml:space="preserve"
   id="svg2"
   inkscape:version="0.48.2 r9819"
   width="100%"
   height="100%"
   sodipodi:docname="04-06_bulk.svg"><metadata
   id="metadata262"><rdf:RDF><cc:Work
       rdf:about=""><dc:format>image/svg+xml</dc:format><dc:type
         rdf:resource="http://purl.org/dc/dcmitype/StillImage" /></cc:Work></rdf:RDF></metadata><defs
   id="defs260" /><sodipodi:namedview
   pagecolor="#ffffff"
   bordercolor="#666666"
   borderopacity="1"
   objecttolerance="10"
   gridtolerance="10"
   guidetolerance="10"
   inkscape:pageopacity="0"
   inkscape:pageshadow="2"
   inkscape:window-width="1440"
   inkscape:window-height="852"
   id="namedview258"
   showgrid="false"
   inkscape:zoom="1.7561394"
   inkscape:cx="283.4645"
   inkscape:cy="127.513"
   inkscape:window-x="0"
   inkscape:window-y="0"
   inkscape:window-maximized="1"
   inkscape:current-layer="g134" />
<g
   id="Layer_2"
   display="none">
	<path
   display="inline"
   fill="#75B640"
   d="M41.378,191.282H22.729c-1.811,0-3.28-1.468-3.28-3.28V66.262   c0-1.811,1.468-3.28,3.28-3.28h18.649V191.282z"
   id="path5" />
</g>
<g
   id="Layer_1">
	<path
   fill="#F8FAF6"
   d="M550.274,191.282H33.293c-1.811,0-3.28-1.468-3.28-3.28V66.262c0-1.811,1.468-3.28,3.28-3.28h516.981   c0.961,0,1.74,0.779,1.74,1.74v124.82C552.013,190.503,551.234,191.282,550.274,191.282z"
   id="path8" />
	<path
   fill="#FFFFFF"
   stroke="#75B640"
   stroke-width="1.6"
   stroke-miterlimit="10"
   d="M204.734,167.282H67.293   c-1.811,0-3.28-1.468-3.28-3.28V90.562c0-1.811,1.468-3.28,3.28-3.28h137.441c1.811,0,3.28,1.468,3.28,3.28v73.441   C208.013,165.814,206.545,167.282,204.734,167.282z"
   id="path10" />
	<path
   fill="#FFFFFF"
   stroke="#C6C6C6"
   stroke-width="1.6"
   stroke-miterlimit="10"
   d="M364.734,167.282H227.293   c-1.811,0-3.28-1.468-3.28-3.28V90.562c0-1.811,1.468-3.28,3.28-3.28h137.441c1.811,0,3.28,1.468,3.28,3.28v73.441   C368.013,165.814,366.545,167.282,364.734,167.282z"
   id="path12" />
	<path
   fill="#FFFFFF"
   stroke="#C6C6C6"
   stroke-width="1.6"
   stroke-miterlimit="10"
   d="M524.734,167.282H387.293   c-1.811,0-3.28-1.468-3.28-3.28V90.562c0-1.811,1.468-3.28,3.28-3.28h137.441c1.811,0,3.28,1.468,3.28,3.28v73.441   C528.013,165.814,526.545,167.282,524.734,167.282z"
   id="path14" />
	<g
   id="g16">
		<path
   fill="#FFFFFF"
   d="M95.84,151.871c-2.33,0-4.226-1.896-4.226-4.226v-21.148c0-2.33,1.896-4.226,4.226-4.226h21.147    c2.33,0,4.226,1.896,4.226,4.226v21.148c0,2.33-1.896,4.226-4.226,4.226H95.84z"
   id="path18" />
		<g
   id="g20">
			<path
   fill="#C6C6C6"
   d="M116.987,124.271c1.229,0,2.226,0.997,2.226,2.226v21.148c0,1.229-0.997,2.226-2.226,2.226H95.84     c-1.229,0-2.226-0.997-2.226-2.226v-21.148c0-1.229,0.997-2.226,2.226-2.226H116.987 M116.987,120.271H95.84     c-3.433,0-6.226,2.793-6.226,6.226v21.148c0,3.433,2.793,6.226,6.226,6.226h21.148c3.433,0,6.226-2.793,6.226-6.226v-21.148     C123.213,123.064,120.42,120.271,116.987,120.271L116.987,120.271z"
   id="path22" />
		</g>
	</g>
	<g
   id="g24">
		<path
   fill="#FFFFFF"
   d="M155.706,151.871c-2.33,0-4.226-1.896-4.226-4.226v-21.148c0-2.33,1.896-4.226,4.226-4.226h21.147    c2.33,0,4.226,1.896,4.226,4.226v21.148c0,2.33-1.896,4.226-4.226,4.226H155.706z"
   id="path26" />
		<g
   id="g28">
			<path
   fill="#75B640"
   d="M176.854,124.271c1.229,0,2.226,0.997,2.226,2.226v21.148c0,1.229-0.997,2.226-2.226,2.226h-21.148     c-1.229,0-2.226-0.997-2.226-2.226v-21.148c0-1.229,0.997-2.226,2.226-2.226H176.854 M176.854,120.271h-21.148     c-3.433,0-6.226,2.793-6.226,6.226v21.148c0,3.433,2.793,6.226,6.226,6.226h21.148c3.433,0,6.226-2.793,6.226-6.226v-21.148     C183.08,123.064,180.287,120.271,176.854,120.271L176.854,120.271z"
   id="path30" />
		</g>
	</g>
	<g
   id="g32">
		<path
   fill="#FFFFFF"
   d="M255.84,151.871c-2.33,0-4.227-1.896-4.227-4.226v-21.148c0-2.33,1.896-4.226,4.227-4.226h21.147    c2.33,0,4.227,1.896,4.227,4.226v21.148c0,2.33-1.896,4.226-4.227,4.226H255.84z"
   id="path34" />
		<g
   id="g36">
			<path
   fill="#C6C6C6"
   d="M276.987,124.271c1.229,0,2.226,0.997,2.226,2.226v21.148c0,1.229-0.997,2.226-2.226,2.226H255.84     c-1.229,0-2.226-0.997-2.226-2.226v-21.148c0-1.229,0.997-2.226,2.226-2.226H276.987 M276.987,120.271H255.84     c-3.433,0-6.226,2.793-6.226,6.226v21.148c0,3.433,2.793,6.226,6.226,6.226h21.148c3.433,0,6.226-2.793,6.226-6.226v-21.148     C283.213,123.064,280.42,120.271,276.987,120.271L276.987,120.271z"
   id="path38" />
		</g>
	</g>
	<g
   id="g40">
		<path
   fill="#FFFFFF"
   d="M315.706,151.871c-2.33,0-4.226-1.896-4.226-4.226v-21.148c0-2.33,1.896-4.226,4.226-4.226h21.148    c2.33,0,4.226,1.896,4.226,4.226v21.148c0,2.33-1.896,4.226-4.226,4.226H315.706z"
   id="path42" />
		<path
   fill="#C6C6C6"
   d="M336.854,124.271c1.229,0,2.226,0.997,2.226,2.226v21.148c0,1.229-0.997,2.226-2.226,2.226h-21.148    c-1.229,0-2.226-0.997-2.226-2.226v-21.148c0-1.229,0.997-2.226,2.226-2.226H336.854 M336.854,120.271h-21.148    c-3.433,0-6.226,2.793-6.226,6.226v21.148c0,3.433,2.793,6.226,6.226,6.226h21.148c3.433,0,6.226-2.793,6.226-6.226v-21.148    C343.08,123.064,340.287,120.271,336.854,120.271L336.854,120.271z"
   id="path44" />
	</g>
	<g
   id="g46">
		<path
   fill="#FFFFFF"
   d="M415.84,151.871c-2.33,0-4.227-1.896-4.227-4.226v-21.148c0-2.33,1.896-4.226,4.227-4.226h21.147    c2.33,0,4.227,1.896,4.227,4.226v21.148c0,2.33-1.896,4.226-4.227,4.226H415.84z"
   id="path48" />
		<path
   fill="#75B640"
   d="M436.987,124.271c1.229,0,2.226,0.997,2.226,2.226v21.148c0,1.229-0.997,2.226-2.226,2.226H415.84    c-1.229,0-2.226-0.997-2.226-2.226v-21.148c0-1.229,0.997-2.226,2.226-2.226H436.987 M436.987,120.271H415.84    c-3.433,0-6.226,2.793-6.226,6.226v21.148c0,3.433,2.793,6.226,6.226,6.226h21.148c3.433,0,6.226-2.793,6.226-6.226v-21.148    C443.213,123.064,440.42,120.271,436.987,120.271L436.987,120.271z"
   id="path50" />
	</g>
	<g
   id="g52">
		<path
   fill="#FFFFFF"
   d="M475.706,151.871c-2.33,0-4.226-1.896-4.226-4.226v-21.148c0-2.33,1.896-4.226,4.226-4.226h21.148    c2.33,0,4.226,1.896,4.226,4.226v21.148c0,2.33-1.896,4.226-4.226,4.226H475.706z"
   id="path54" />
		<path
   fill="#C6C6C6"
   d="M496.854,124.271c1.229,0,2.226,0.997,2.226,2.226v21.148c0,1.229-0.997,2.226-2.226,2.226h-21.148    c-1.229,0-2.226-0.997-2.226-2.226v-21.148c0-1.229,0.997-2.226,2.226-2.226H496.854 M496.854,120.271h-21.148    c-3.433,0-6.226,2.793-6.226,6.226v21.148c0,3.433,2.793,6.226,6.226,6.226h21.148c3.433,0,6.226-2.793,6.226-6.226v-21.148    C503.08,123.064,500.287,120.271,496.854,120.271L496.854,120.271z"
   id="path56" />
	</g>
	<g
   id="g58">
		<path
   fill="#454746"
   d="M275.137,108.082v-8.628h2.279l1.792,3.162c0.512,0.909,1.024,1.984,1.408,2.957h0.038    c-0.128-1.139-0.166-2.304-0.166-3.597v-2.522h1.792v8.628h-2.048l-1.844-3.329c-0.512-0.922-1.075-2.036-1.498-3.047    l-0.038,0.013c0.051,1.14,0.077,2.356,0.077,3.764v2.599H275.137z"
   id="path60" />
		<path
   fill="#454746"
   d="M291.868,103.678c0,2.829-1.716,4.544-4.237,4.544c-2.561,0-4.059-1.933-4.059-4.391    c0-2.586,1.651-4.519,4.199-4.519C290.421,99.312,291.868,101.297,291.868,103.678z M285.633,103.793c0,1.69,0.794,2.88,2.1,2.88    c1.319,0,2.074-1.255,2.074-2.932c0-1.549-0.742-2.88-2.087-2.88C286.401,100.862,285.633,102.116,285.633,103.793z"
   id="path62" />
		<path
   fill="#454746"
   d="M293.146,99.569c0.717-0.115,1.651-0.18,2.638-0.18c1.639,0,2.701,0.294,3.533,0.922    c0.896,0.666,1.459,1.729,1.459,3.252c0,1.651-0.602,2.791-1.434,3.495c-0.909,0.755-2.291,1.114-3.981,1.114    c-1.012,0-1.729-0.064-2.215-0.128V99.569z M295.105,106.61c0.166,0.039,0.436,0.039,0.679,0.039    c1.767,0.013,2.919-0.96,2.919-3.021c0.013-1.792-1.037-2.74-2.715-2.74c-0.435,0-0.717,0.039-0.883,0.077V106.61z"
   id="path64" />
		<path
   fill="#454746"
   d="M307.188,104.434h-3.175v2.048h3.546v1.6h-5.505v-8.628h5.326v1.6h-3.367v1.792h3.175V104.434z"
   id="path66" />
		<path
   fill="#454746"
   d="M311.169,108.082v-1.178l1.075-0.973c1.817-1.626,2.701-2.56,2.727-3.533c0-0.679-0.409-1.216-1.37-1.216    c-0.717,0-1.344,0.358-1.779,0.691l-0.551-1.396c0.628-0.474,1.601-0.858,2.728-0.858c1.882,0,2.919,1.101,2.919,2.612    c0,1.396-1.012,2.509-2.215,3.584l-0.769,0.64v0.026h3.137v1.6H311.169z"
   id="path68" />
	</g>
	<g
   id="g70">
		<path
   fill="#454746"
   d="M441.137,108.082v-8.628h2.279l1.792,3.162c0.512,0.909,1.024,1.984,1.408,2.957h0.038    c-0.128-1.139-0.166-2.304-0.166-3.597v-2.522h1.792v8.628h-2.048l-1.844-3.329c-0.512-0.922-1.075-2.036-1.498-3.047    l-0.038,0.013c0.051,1.14,0.077,2.356,0.077,3.764v2.599H441.137z"
   id="path72" />
		<path
   fill="#454746"
   d="M457.868,103.678c0,2.829-1.716,4.544-4.237,4.544c-2.561,0-4.059-1.933-4.059-4.391    c0-2.586,1.651-4.519,4.199-4.519C456.421,99.312,457.868,101.297,457.868,103.678z M451.633,103.793c0,1.69,0.794,2.88,2.1,2.88    c1.319,0,2.074-1.255,2.074-2.932c0-1.549-0.742-2.88-2.087-2.88C452.401,100.862,451.633,102.116,451.633,103.793z"
   id="path74" />
		<path
   fill="#454746"
   d="M459.146,99.569c0.717-0.115,1.651-0.18,2.638-0.18c1.639,0,2.701,0.294,3.533,0.922    c0.896,0.666,1.459,1.729,1.459,3.252c0,1.651-0.602,2.791-1.434,3.495c-0.909,0.755-2.291,1.114-3.981,1.114    c-1.012,0-1.729-0.064-2.215-0.128V99.569z M461.105,106.61c0.166,0.039,0.436,0.039,0.679,0.039    c1.767,0.013,2.919-0.96,2.919-3.021c0.013-1.792-1.037-2.74-2.715-2.74c-0.435,0-0.717,0.039-0.883,0.077V106.61z"
   id="path76" />
		<path
   fill="#454746"
   d="M473.188,104.434h-3.175v2.048h3.546v1.6h-5.505v-8.628h5.326v1.6h-3.367v1.792h3.175V104.434z"
   id="path78" />
		<path
   fill="#454746"
   d="M477.515,106.174c0.345,0.179,1.139,0.512,1.933,0.512c1.012,0,1.523-0.486,1.523-1.114    c0-0.819-0.819-1.19-1.677-1.19H478.5v-1.396h0.755c0.653-0.013,1.485-0.256,1.485-0.96c0-0.5-0.409-0.871-1.229-0.871    c-0.679,0-1.396,0.294-1.741,0.499l-0.397-1.408c0.5-0.32,1.498-0.627,2.573-0.627c1.78,0,2.766,0.935,2.766,2.074    c0,0.883-0.499,1.575-1.523,1.933v0.025c0.998,0.179,1.805,0.935,1.805,2.023c0,1.472-1.293,2.547-3.405,2.547    c-1.075,0-1.984-0.281-2.471-0.589L477.515,106.174z"
   id="path80" />
	</g>
	<g
   id="g82">
		<path
   fill="#454746"
   d="M99.912,132.369c0.628-0.103,1.562-0.18,2.599-0.18c1.28,0,2.177,0.192,2.791,0.679    c0.513,0.41,0.794,1.011,0.794,1.805c0,1.101-0.781,1.856-1.523,2.125v0.039c0.602,0.243,0.935,0.819,1.152,1.613    c0.269,0.973,0.537,2.1,0.704,2.433h-1.997c-0.141-0.243-0.346-0.947-0.602-2.01c-0.23-1.076-0.602-1.37-1.396-1.383h-0.589v3.393    h-1.934V132.369z M101.846,136.081h0.768c0.974,0,1.55-0.486,1.55-1.242c0-0.794-0.538-1.191-1.435-1.204    c-0.474,0-0.742,0.039-0.883,0.064V136.081z"
   id="path84" />
		<path
   fill="#454746"
   d="M113.34,136.683c0,2.573-1.037,4.34-3.162,4.34c-2.15,0-3.098-1.933-3.111-4.289    c0-2.407,1.024-4.314,3.176-4.314C112.47,132.419,113.34,134.404,113.34,136.683z M109.025,136.734    c-0.013,1.908,0.448,2.816,1.204,2.816c0.755,0,1.164-0.947,1.164-2.842c0-1.844-0.396-2.816-1.178-2.816    C109.499,133.892,109.013,134.801,109.025,136.734z"
   id="path86" />
	</g>
	<g
   id="g88">
		<path
   fill="#454746"
   d="M159.854,132.369c0.602-0.103,1.447-0.18,2.638-0.18c1.203,0,2.061,0.23,2.637,0.691    c0.551,0.436,0.922,1.152,0.922,1.997c0,0.845-0.281,1.562-0.794,2.048c-0.665,0.627-1.651,0.909-2.804,0.909    c-0.256,0-0.486-0.013-0.665-0.039v3.085h-1.934V132.369z M161.788,136.286c0.166,0.039,0.371,0.051,0.652,0.051    c1.037,0,1.678-0.525,1.678-1.408c0-0.793-0.551-1.267-1.523-1.267c-0.397,0-0.666,0.038-0.807,0.077V136.286z"
   id="path90" />
		<path
   fill="#454746"
   d="M169.468,134.289h-0.025l-1.588,0.755l-0.32-1.459l2.202-1.024h1.613v8.321h-1.882V134.289z"
   id="path92" />
	</g>
	<g
   id="g94">
		<path
   fill="#454746"
   d="M259.912,132.369c0.628-0.103,1.562-0.18,2.599-0.18c1.28,0,2.177,0.192,2.791,0.679    c0.513,0.41,0.794,1.011,0.794,1.805c0,1.101-0.781,1.856-1.523,2.125v0.039c0.602,0.243,0.935,0.819,1.152,1.613    c0.269,0.973,0.537,2.1,0.704,2.433h-1.997c-0.141-0.243-0.346-0.947-0.602-2.01c-0.23-1.076-0.602-1.37-1.396-1.383h-0.589v3.393    h-1.934V132.369z M261.846,136.081h0.768c0.974,0,1.55-0.486,1.55-1.242c0-0.794-0.538-1.191-1.435-1.204    c-0.474,0-0.742,0.039-0.883,0.064V136.081z"
   id="path96" />
		<path
   fill="#454746"
   d="M273.34,136.683c0,2.573-1.037,4.34-3.162,4.34c-2.15,0-3.098-1.933-3.111-4.289    c0-2.407,1.024-4.314,3.176-4.314C272.47,132.419,273.34,134.404,273.34,136.683z M269.025,136.734    c-0.013,1.908,0.448,2.816,1.204,2.816c0.755,0,1.164-0.947,1.164-2.842c0-1.844-0.396-2.816-1.178-2.816    C269.499,133.892,269.013,134.801,269.025,136.734z"
   id="path98" />
	</g>
	<g
   id="g100">
		<path
   fill="#454746"
   d="M319.778,132.369c0.628-0.103,1.562-0.18,2.599-0.18c1.28,0,2.177,0.192,2.791,0.679    c0.513,0.41,0.794,1.011,0.794,1.805c0,1.101-0.781,1.856-1.523,2.125v0.039c0.602,0.243,0.935,0.819,1.152,1.613    c0.269,0.973,0.537,2.1,0.704,2.433h-1.997c-0.141-0.243-0.346-0.947-0.602-2.01c-0.23-1.076-0.602-1.37-1.396-1.383h-0.589v3.393    h-1.934V132.369z M321.712,136.081h0.768c0.974,0,1.55-0.486,1.55-1.242c0-0.794-0.538-1.191-1.435-1.204    c-0.474,0-0.742,0.039-0.883,0.064V136.081z"
   id="path102" />
		<path
   fill="#454746"
   d="M329.545,134.289h-0.025l-1.588,0.755l-0.32-1.459l2.202-1.024h1.613v8.321h-1.882V134.289z"
   id="path104" />
	</g>
	<g
   id="g106">
		<path
   fill="#454746"
   d="M419.988,132.369c0.602-0.103,1.447-0.18,2.638-0.18c1.203,0,2.061,0.23,2.637,0.691    c0.551,0.436,0.922,1.152,0.922,1.997c0,0.845-0.281,1.562-0.794,2.048c-0.665,0.627-1.651,0.909-2.804,0.909    c-0.256,0-0.486-0.013-0.665-0.039v3.085h-1.934V132.369z M421.922,136.286c0.166,0.039,0.371,0.051,0.652,0.051    c1.037,0,1.678-0.525,1.678-1.408c0-0.793-0.551-1.267-1.523-1.267c-0.397,0-0.666,0.038-0.807,0.077V136.286z"
   id="path108" />
		<path
   fill="#454746"
   d="M433.263,136.683c0,2.573-1.037,4.34-3.162,4.34c-2.15,0-3.098-1.933-3.11-4.289    c0-2.407,1.023-4.314,3.175-4.314C432.393,132.419,433.263,134.404,433.263,136.683z M428.948,136.734    c-0.013,1.908,0.448,2.816,1.204,2.816c0.755,0,1.164-0.947,1.164-2.842c0-1.844-0.396-2.816-1.178-2.816    C429.422,133.892,428.936,134.801,428.948,136.734z"
   id="path110" />
	</g>
	<g
   id="g112">
		<path
   fill="#454746"
   d="M479.778,132.369c0.628-0.103,1.562-0.18,2.599-0.18c1.28,0,2.177,0.192,2.791,0.679    c0.513,0.41,0.794,1.011,0.794,1.805c0,1.101-0.781,1.856-1.523,2.125v0.039c0.602,0.243,0.935,0.819,1.152,1.613    c0.269,0.973,0.537,2.1,0.704,2.433h-1.997c-0.141-0.243-0.346-0.947-0.602-2.01c-0.23-1.076-0.602-1.37-1.396-1.383h-0.589v3.393    h-1.934V132.369z M481.712,136.081h0.768c0.974,0,1.55-0.486,1.55-1.242c0-0.794-0.538-1.191-1.435-1.204    c-0.474,0-0.742,0.039-0.883,0.064V136.081z"
   id="path114" />
		<path
   fill="#454746"
   d="M489.545,134.289h-0.025l-1.588,0.755l-0.32-1.459l2.202-1.024h1.613v8.321h-1.882V134.289z"
   id="path116" />
	</g>
	<g
   id="g118">
		<g
   id="g120">
			<path
   fill="none"
   stroke="#454746"
   stroke-width="1.6"
   stroke-linecap="round"
   stroke-miterlimit="10"
   d="M422.013,115.282     c0-133.547-472.19-113.259-347.062,12.52"
   id="path122" />
			<g
   id="g124">
				<path
   fill="#454746"
   d="M80.545,133.132c-3.557-1.544-8.404-3.006-12.109-3.182l5.804-2.868l2.625-5.916      C77.194,124.86,78.855,129.643,80.545,133.132z"
   id="path126" />
			</g>
		</g>
	</g>
	<g
   id="g128">
		<g
   id="g130">
			<path
   fill="none"
   stroke="#454746"
   stroke-width="1.6"
   stroke-linecap="round"
   stroke-miterlimit="10"
   d="M179.5,165.545     c25.926,66.813,157.203,86.662,228.928-2.822"
   id="path132" />
			<g
   id="g134">
				
			</g>
			<g
   id="g138">
				<path
   fill="#454746"
   d="M413.126,156.585c-1.178,3.694-2.146,8.664-1.949,12.368l-3.437-5.486l-6.15-2.017      C405.233,160.751,409.825,158.617,413.126,156.585z"
   id="path140" />
			</g>
		</g>
	</g>
	<circle
   fill="#454746"
   cx="286.629"
   cy="222.918"
   r="8"
   id="circle142" />
	<g
   id="g144">
		<path
   fill="#FFFFFF"
   d="M283.615,226.857v-1.178l1.075-0.973c1.817-1.626,2.701-2.56,2.727-3.533c0-0.679-0.409-1.216-1.37-1.216    c-0.717,0-1.344,0.358-1.779,0.691l-0.551-1.396c0.628-0.474,1.601-0.858,2.728-0.858c1.882,0,2.919,1.101,2.919,2.612    c0,1.396-1.012,2.509-2.215,3.584l-0.769,0.64v0.026h3.137v1.6H283.615z"
   id="path146" />
	</g>
	<g
   id="g148">
		<g
   id="g150">
			<path
   fill="none"
   stroke="#454746"
   stroke-width="1.6"
   stroke-linecap="round"
   stroke-miterlimit="10"
   d="M143.613,238.082     c11.069-18.651,16.985-38.575,19.92-57.957"
   id="path152" />
			<g
   id="g154">
				<path
   fill="#454746"
   d="M164.547,172.467c0.852,3.782,2.532,8.559,4.576,11.654l-5.74-2.993l-6.325,1.371      C159.845,180.054,162.727,175.89,164.547,172.467z"
   id="path156" />
			</g>
		</g>
	</g>
	<circle
   fill="#454746"
   cx="155.08"
   cy="213.275"
   r="8"
   id="circle158" />
	<g
   id="g160">
		<path
   fill="#FFFFFF"
   d="M154.55,210.62h-0.025l-1.588,0.755l-0.32-1.459l2.202-1.024h1.613v8.321h-1.882V210.62z"
   id="path162" />
	</g>
	<g
   id="g164">
		<path
   fill="#454746"
   d="M79.458,108.347v-8.628h2.279l1.792,3.162c0.512,0.909,1.024,1.984,1.408,2.957h0.038    c-0.128-1.139-0.166-2.304-0.166-3.597v-2.522h1.792v8.628h-2.048l-1.844-3.329c-0.512-0.922-1.075-2.036-1.498-3.047    l-0.038,0.013c0.051,1.14,0.077,2.356,0.077,3.764v2.599H79.458z"
   id="path166" />
		<path
   fill="#454746"
   d="M96.189,103.943c0,2.829-1.716,4.544-4.238,4.544c-2.56,0-4.058-1.933-4.058-4.391    c0-2.586,1.651-4.519,4.199-4.519C94.742,99.577,96.189,101.562,96.189,103.943z M89.954,104.058c0,1.69,0.794,2.88,2.1,2.88    c1.319,0,2.074-1.255,2.074-2.932c0-1.549-0.742-2.88-2.087-2.88C90.723,101.126,89.954,102.381,89.954,104.058z"
   id="path168" />
		<path
   fill="#454746"
   d="M97.468,99.833c0.717-0.115,1.651-0.18,2.638-0.18c1.639,0,2.701,0.294,3.533,0.922    c0.896,0.666,1.459,1.729,1.459,3.252c0,1.651-0.602,2.791-1.434,3.495c-0.909,0.755-2.291,1.114-3.981,1.114    c-1.011,0-1.729-0.064-2.215-0.128V99.833z M99.427,106.875c0.166,0.039,0.436,0.039,0.679,0.039    c1.767,0.013,2.919-0.96,2.919-3.021c0.013-1.792-1.037-2.74-2.714-2.74c-0.436,0-0.718,0.039-0.884,0.077V106.875z"
   id="path170" />
		<path
   fill="#454746"
   d="M111.51,104.698h-3.175v2.048h3.546v1.6h-5.505v-8.628h5.326v1.6h-3.367v1.792h3.175V104.698z"
   id="path172" />
		<path
   fill="#454746"
   d="M117.974,101.753h-0.025l-1.588,0.755l-0.32-1.459l2.202-1.024h1.613v8.321h-1.882V101.753z"
   id="path174" />
		<path
   fill="#454746"
   d="M128.38,104.34v1.293h-3.354v-1.293H128.38z"
   id="path176" />
		<path
   fill="#454746"
   d="M152.419,105.044c-0.039-1.037-0.077-2.292-0.077-3.546h-0.038c-0.27,1.101-0.628,2.33-0.961,3.341    l-1.05,3.367h-1.523l-0.921-3.342c-0.282-1.011-0.576-2.24-0.781-3.367h-0.025c-0.052,1.165-0.09,2.497-0.154,3.572l-0.153,3.277    h-1.805l0.55-8.628h2.599l0.846,2.88c0.269,0.999,0.537,2.074,0.729,3.085h0.038c0.243-0.999,0.538-2.138,0.819-3.098l0.922-2.868    h2.548l0.474,8.628h-1.907L152.419,105.044z"
   id="path178" />
		<path
   fill="#454746"
   d="M157.921,106.132l-0.614,2.215h-2.022l2.637-8.628h2.561l2.676,8.628h-2.1l-0.665-2.215H157.921z     M160.11,104.672l-0.538-1.831c-0.153-0.512-0.307-1.152-0.435-1.664h-0.025c-0.129,0.512-0.257,1.165-0.397,1.664l-0.512,1.831    H160.11z"
   id="path180" />
		<path
   fill="#454746"
   d="M164.372,106.337c0.524,0.269,1.331,0.538,2.163,0.538c0.896,0,1.37-0.372,1.37-0.935    c0-0.538-0.41-0.845-1.446-1.216c-1.435-0.499-2.369-1.293-2.369-2.547c0-1.473,1.229-2.599,3.265-2.599    c0.974,0,1.69,0.205,2.202,0.436l-0.436,1.574c-0.346-0.166-0.96-0.409-1.805-0.409s-1.255,0.384-1.255,0.832    c0,0.55,0.486,0.793,1.601,1.216c1.523,0.563,2.24,1.357,2.24,2.573c0,1.447-1.113,2.676-3.482,2.676    c-0.985,0-1.958-0.256-2.445-0.525L164.372,106.337z"
   id="path182" />
		<path
   fill="#454746"
   d="M172.884,101.357h-2.316v-1.639h6.631v1.639h-2.355v6.99h-1.959V101.357z"
   id="path184" />
		<path
   fill="#454746"
   d="M183.368,104.698h-3.175v2.048h3.546v1.6h-5.505v-8.628h5.326v1.6h-3.367v1.792h3.175V104.698z"
   id="path186" />
		<path
   fill="#454746"
   d="M185.069,99.833c0.628-0.103,1.562-0.18,2.599-0.18c1.28,0,2.177,0.192,2.791,0.679    c0.513,0.41,0.794,1.011,0.794,1.805c0,1.101-0.781,1.856-1.523,2.125v0.039c0.602,0.243,0.935,0.819,1.152,1.613    c0.269,0.973,0.537,2.1,0.704,2.433h-1.997c-0.141-0.243-0.346-0.947-0.602-2.01c-0.23-1.076-0.602-1.37-1.396-1.383h-0.589v3.393    h-1.934V99.833z M187.003,103.546h0.768c0.974,0,1.55-0.486,1.55-1.242c0-0.794-0.538-1.191-1.435-1.204    c-0.474,0-0.742,0.039-0.883,0.064V103.546z"
   id="path188" />
	</g>
	<polygon
   fill="#75B640"
   points="137.747,98.203 139.339,101.431 142.901,101.948 140.324,104.46 140.932,108.007 137.747,106.333    134.561,108.007 135.17,104.46 132.592,101.948 136.154,101.431  "
   id="polygon190" />
	<path
   fill="#75B640"
   d="M41.378,191.282H22.729c-1.811,0-3.28-1.468-3.28-3.28V66.262c0-1.811,1.468-3.28,3.28-3.28h18.649V191.282   z"
   id="path192" />
	<g
   id="g194">
		<path
   fill="#FFFFFF"
   d="M34.971,145.37c0.179,0.358,0.371,1.165,0.371,2.215c0,2.983-1.856,4.519-4.314,4.519    c-2.944,0-4.583-2.1-4.583-4.711c0-1.011,0.205-1.78,0.384-2.125l1.55,0.396c-0.167,0.397-0.32,0.948-0.32,1.639    c0,1.549,0.935,2.752,2.854,2.752c1.729,0,2.816-1.024,2.816-2.765c0-0.589-0.128-1.242-0.281-1.626L34.971,145.37z"
   id="path196" />
		<path
   fill="#FFFFFF"
   d="M26.585,144.091v-1.959h6.99v-3.431h1.639v5.39H26.585z"
   id="path198" />
		<path
   fill="#FFFFFF"
   d="M26.585,136.001h4.968c1.484,0,2.24-0.563,2.24-1.562c0-1.024-0.717-1.587-2.24-1.587h-4.968v-1.946h4.84    c2.662,0,3.93,1.344,3.93,3.598c0,2.176-1.203,3.457-3.956,3.457h-4.813V136.001z"
   id="path200" />
		<path
   fill="#FFFFFF"
   d="M33.204,129.153c0.269-0.525,0.537-1.331,0.537-2.164c0-0.896-0.371-1.37-0.935-1.37    c-0.537,0-0.845,0.41-1.216,1.447c-0.499,1.434-1.293,2.368-2.548,2.368c-1.472,0-2.599-1.229-2.599-3.265    c0-0.973,0.205-1.689,0.436-2.202l1.574,0.435c-0.166,0.346-0.409,0.96-0.409,1.805c0,0.845,0.384,1.255,0.832,1.255    c0.551,0,0.794-0.487,1.216-1.601c0.563-1.523,1.357-2.24,2.573-2.24c1.447,0,2.676,1.114,2.676,3.482    c0,0.986-0.256,1.959-0.524,2.445L33.204,129.153z"
   id="path202" />
		<path
   fill="#FFFFFF"
   d="M28.224,120.641v2.317h-1.639v-6.632h1.639v2.356h6.99v1.958H28.224z"
   id="path204" />
		<path
   fill="#FFFFFF"
   d="M31.565,110.158v3.175h2.048v-3.546h1.601v5.505h-8.629v-5.326h1.601v3.367h1.792v-3.175H31.565z"
   id="path206" />
		<path
   fill="#FFFFFF"
   d="M26.7,108.457c-0.103-0.627-0.179-1.562-0.179-2.599c0-1.28,0.191-2.176,0.679-2.791    c0.409-0.512,1.011-0.793,1.805-0.793c1.101,0,1.856,0.781,2.125,1.523h0.038c0.244-0.602,0.819-0.935,1.613-1.152    c0.974-0.269,2.1-0.538,2.433-0.704v1.997c-0.243,0.141-0.947,0.346-2.01,0.602c-1.075,0.23-1.37,0.602-1.383,1.395v0.589h3.393    v1.933H26.7z M30.413,106.523v-0.769c0-0.973-0.486-1.549-1.242-1.549c-0.793,0-1.19,0.538-1.203,1.434    c0,0.474,0.038,0.743,0.064,0.884H30.413z"
   id="path208" />
	</g>
	<circle
   fill="#454746"
   cx="224.013"
   cy="23.907"
   r="8"
   id="circle210" />
	<g
   id="g212">
		<g
   id="g214">
			<path
   fill="none"
   stroke="#454746"
   stroke-width="1.6"
   stroke-linecap="round"
   stroke-miterlimit="10"
   d="M402.679,135.814     c-12.388,13.603-108.744,98.15-133.983,29.584"
   id="path216" />
			<g
   id="g218">
				<path
   fill="#454746"
   d="M266.413,158.017c2.384,3.058,5.94,6.662,9.108,8.591l-6.468-0.26l-5.137,3.938      C265.396,166.884,266.227,161.889,266.413,158.017z"
   id="path220" />
			</g>
		</g>
	</g>
	<circle
   fill="#454746"
   cx="302.545"
   cy="191.245"
   r="8"
   id="circle222" />
	<g
   id="g224">
		<g
   id="g226">
			<path
   fill="none"
   stroke="#454746"
   stroke-width="1.6"
   stroke-linecap="round"
   stroke-miterlimit="10"
   d="M188.545,133.132     c23.878-37.693,115.605-96.564,140.493-26.203"
   id="path228" />
			<g
   id="g230">
				<path
   fill="#454746"
   d="M331.28,114.325c-2.363-3.074-5.895-6.702-9.05-8.651l6.466,0.303l5.163-3.903      C332.357,105.465,331.493,110.454,331.28,114.325z"
   id="path232" />
			</g>
		</g>
	</g>
	<g
   id="g234">
		<path
   fill="#FFFFFF"
   d="M221.412,25.938c0.346,0.179,1.139,0.512,1.933,0.512c1.012,0,1.523-0.486,1.523-1.114    c0-0.819-0.819-1.19-1.677-1.19h-0.794v-1.396h0.755c0.653-0.013,1.485-0.256,1.485-0.96c0-0.5-0.409-0.871-1.229-0.871    c-0.679,0-1.396,0.294-1.741,0.499l-0.397-1.408c0.5-0.32,1.498-0.627,2.573-0.627c1.78,0,2.766,0.935,2.766,2.074    c0,0.883-0.499,1.575-1.523,1.933v0.025c0.998,0.179,1.805,0.935,1.805,2.023c0,1.472-1.293,2.547-3.405,2.547    c-1.075,0-1.984-0.281-2.471-0.589L221.412,25.938z"
   id="path236" />
	</g>
	<g
   id="g238">
		<path
   fill="#FFFFFF"
   d="M299.943,193.277c0.346,0.179,1.139,0.512,1.933,0.512c1.012,0,1.523-0.486,1.523-1.114    c0-0.819-0.819-1.19-1.677-1.19h-0.794v-1.396h0.755c0.653-0.013,1.485-0.256,1.485-0.96c0-0.5-0.409-0.871-1.229-0.871    c-0.679,0-1.396,0.294-1.741,0.499l-0.397-1.408c0.5-0.32,1.498-0.627,2.573-0.627c1.78,0,2.766,0.935,2.766,2.074    c0,0.883-0.499,1.575-1.523,1.933v0.025c0.998,0.179,1.805,0.935,1.805,2.023c0,1.472-1.293,2.547-3.405,2.547    c-1.075,0-1.984-0.281-2.471-0.589L299.943,193.277z"
   id="path240" />
	</g>
	<g
   id="g242">
		<g
   id="g244">
			<path
   fill="none"
   stroke="#454746"
   stroke-width="1.6"
   stroke-linecap="round"
   stroke-miterlimit="10"
   d="M241.169,87.3     c86.666-46.037,246.154-69.532,254.686,20.179"
   id="path246" />
			<g
   id="g248">
				<path
   fill="#454746"
   d="M496.212,115.195c-1.536-3.56-4.069-7.944-6.649-10.609l6.194,1.882l5.963-2.516      C499.431,106.871,497.368,111.495,496.212,115.195z"
   id="path250" />
			</g>
		</g>
	</g>
	<circle
   fill="#454746"
   cx="248.878"
   cy="82.52"
   r="8"
   id="circle252" />
	<g
   id="g254">
		<path
   fill="#FFFFFF"
   d="M246.276,84.551c0.346,0.179,1.139,0.512,1.933,0.512c1.012,0,1.523-0.486,1.523-1.114    c0-0.819-0.819-1.19-1.677-1.19h-0.794v-1.396h0.755c0.653-0.013,1.485-0.256,1.485-0.96c0-0.5-0.409-0.871-1.229-0.871    c-0.679,0-1.396,0.294-1.741,0.499l-0.397-1.408c0.5-0.32,1.498-0.627,2.573-0.627c1.78,0,2.766,0.935,2.766,2.074    c0,0.883-0.499,1.575-1.523,1.933v0.025c0.998,0.179,1.805,0.935,1.805,2.023c0,1.472-1.293,2.547-3.405,2.547    c-1.075,0-1.984-0.281-2.471-0.589L246.276,84.551z"
   id="path256" />
	</g>
</g>
</svg>