<?xml version="1.0" encoding="UTF-8" standalone="no"?>
<!-- Generator: Adobe Illustrator 17.1.0, SVG Export Plug-In . SVG Version: 6.00 Build 0)  -->

<svg
   xmlns:dc="http://purl.org/dc/elements/1.1/"
   xmlns:cc="http://creativecommons.org/ns#"
   xmlns:rdf="http://www.w3.org/1999/02/22-rdf-syntax-ns#"
   xmlns:svg="http://www.w3.org/2000/svg"
   xmlns="http://www.w3.org/2000/svg"
   xmlns:sodipodi="http://sodipodi.sourceforge.net/DTD/sodipodi-0.dtd"
   xmlns:inkscape="http://www.inkscape.org/namespaces/inkscape"
   version="1.1"
   x="0px"
   y="0px"
   viewBox="0 0 566.929 205.03"
   enable-background="new 0 0 566.929 255.026"
   xml:space="preserve"
   id="svg3753"
   inkscape:version="0.48.2 r9819"
   width="100%"
   height="100%"
   sodipodi:docname="04-05_mget.svg"><metadata
   id="metadata3967"><rdf:RDF><cc:Work
       rdf:about=""><dc:format>image/svg+xml</dc:format><dc:type
         rdf:resource="http://purl.org/dc/dcmitype/StillImage" /></cc:Work></rdf:RDF></metadata><defs
   id="defs3965" /><sodipodi:namedview
   pagecolor="#ffffff"
   bordercolor="#666666"
   borderopacity="1"
   objecttolerance="10"
   gridtolerance="10"
   guidetolerance="10"
   inkscape:pageopacity="0"
   inkscape:pageshadow="2"
   inkscape:window-width="1440"
   inkscape:window-height="852"
   id="namedview3963"
   showgrid="false"
   inkscape:zoom="4.9671123"
   inkscape:cx="283.4645"
   inkscape:cy="127.513"
   inkscape:window-x="0"
   inkscape:window-y="0"
   inkscape:window-maximized="1"
   inkscape:current-layer="g3953" />
<g
   id="Layer_2"
   display="none"
   style="display:none"
   transform="translate(0,-49.996)">
	<path
   display="inline"
   d="M 41.378,191.282 H 22.729 c -1.811,0 -3.28,-1.468 -3.28,-3.28 V 66.262 c 0,-1.811 1.468,-3.28 3.28,-3.28 h 18.649 v 128.3 z"
   id="path3756"
   inkscape:connector-curvature="0"
   style="fill:#75b640;display:inline" />
</g>
<g
   id="Layer_1"
   transform="translate(0,-49.996)">
	<path
   d="M 550.274,191.44 H 33.293 c -1.811,0 -3.28,-1.468 -3.28,-3.28 V 66.42 c 0,-1.811 1.468,-3.28 3.28,-3.28 h 516.981 c 0.961,0 1.74,0.779 1.74,1.74 V 189.7 c -10e-4,0.961 -0.78,1.74 -1.74,1.74 z"
   id="path3759"
   inkscape:connector-curvature="0"
   style="fill:#f8faf6" />
	<path
   stroke-miterlimit="10"
   d="M 204.734,167.44 H 67.293 c -1.811,0 -3.28,-1.468 -3.28,-3.28 V 90.72 c 0,-1.811 1.468,-3.28 3.28,-3.28 h 137.441 c 1.811,0 3.28,1.468 3.28,3.28 v 73.441 c -0.001,1.811 -1.469,3.279 -3.28,3.279 z"
   id="path3761"
   inkscape:connector-curvature="0"
   style="fill:#ffffff;stroke:#75b640;stroke-width:1.60000002;stroke-miterlimit:10" />
	<path
   stroke-miterlimit="10"
   d="M 364.734,167.44 H 227.293 c -1.811,0 -3.28,-1.468 -3.28,-3.28 V 90.72 c 0,-1.811 1.468,-3.28 3.28,-3.28 h 137.441 c 1.811,0 3.28,1.468 3.28,3.28 v 73.441 c -0.001,1.811 -1.469,3.279 -3.28,3.279 z"
   id="path3763"
   inkscape:connector-curvature="0"
   style="fill:#ffffff;stroke:#c6c6c6;stroke-width:1.60000002;stroke-miterlimit:10" />
	<path
   stroke-miterlimit="10"
   d="M 524.734,167.44 H 387.293 c -1.811,0 -3.28,-1.468 -3.28,-3.28 V 90.72 c 0,-1.811 1.468,-3.28 3.28,-3.28 h 137.441 c 1.811,0 3.28,1.468 3.28,3.28 v 73.441 c -10e-4,1.811 -1.469,3.279 -3.28,3.279 z"
   id="path3765"
   inkscape:connector-curvature="0"
   style="fill:#ffffff;stroke:#c6c6c6;stroke-width:1.60000002;stroke-miterlimit:10" />
	<g
   id="g3767">
		<path
   d="m 95.839,152.029 c -2.33,0 -4.226,-1.896 -4.226,-4.226 v -21.147 c 0,-2.33 1.896,-4.226 4.226,-4.226 h 21.148 c 2.33,0 4.226,1.896 4.226,4.226 v 21.147 c 0,2.33 -1.896,4.226 -4.226,4.226 H 95.839 z"
   id="path3769"
   inkscape:connector-curvature="0"
   style="fill:#ffffff" />
		<g
   id="g3771">
			<path
   d="m 116.987,124.429 c 1.229,0 2.226,0.997 2.226,2.226 v 21.148 c 0,1.229 -0.997,2.226 -2.226,2.226 H 95.84 c -1.229,0 -2.226,-0.997 -2.226,-2.226 v -21.148 c 0,-1.229 0.997,-2.226 2.226,-2.226 h 21.147 m 0,-4 H 95.84 c -3.433,0 -6.226,2.793 -6.226,6.226 v 21.148 c 0,3.433 2.793,6.226 6.226,6.226 h 21.148 c 3.433,0 6.226,-2.793 6.226,-6.226 v -21.148 c -0.001,-3.433 -2.794,-6.226 -6.227,-6.226 l 0,0 z"
   id="path3773"
   inkscape:connector-curvature="0"
   style="fill:#c6c6c6" />
		</g>
	</g>
	<g
   id="g3775">
		<path
   d="m 155.706,152.029 c -2.33,0 -4.226,-1.896 -4.226,-4.226 v -21.147 c 0,-2.33 1.896,-4.226 4.226,-4.226 h 21.148 c 2.33,0 4.226,1.896 4.226,4.226 v 21.147 c 0,2.33 -1.896,4.226 -4.226,4.226 h -21.148 z"
   id="path3777"
   inkscape:connector-curvature="0"
   style="fill:#ffffff" />
		<g
   id="g3779">
			<path
   d="m 176.854,124.429 c 1.229,0 2.226,0.997 2.226,2.226 v 21.148 c 0,1.229 -0.997,2.226 -2.226,2.226 h -21.148 c -1.229,0 -2.226,-0.997 -2.226,-2.226 v -21.148 c 0,-1.229 0.997,-2.226 2.226,-2.226 h 21.148 m 0,-4 h -21.148 c -3.433,0 -6.226,2.793 -6.226,6.226 v 21.148 c 0,3.433 2.793,6.226 6.226,6.226 h 21.148 c 3.433,0 6.226,-2.793 6.226,-6.226 v -21.148 c 0,-3.433 -2.793,-6.226 -6.226,-6.226 l 0,0 z"
   id="path3781"
   inkscape:connector-curvature="0"
   style="fill:#75b640" />
		</g>
	</g>
	<g
   id="g3783">
		<path
   d="m 255.84,152.029 c -2.33,0 -4.227,-1.896 -4.227,-4.226 v -21.147 c 0,-2.33 1.896,-4.226 4.227,-4.226 h 21.147 c 2.33,0 4.227,1.896 4.227,4.226 v 21.147 c 0,2.33 -1.896,4.226 -4.227,4.226 H 255.84 z"
   id="path3785"
   inkscape:connector-curvature="0"
   style="fill:#ffffff" />
		<g
   id="g3787">
			<path
   d="m 276.987,124.429 c 1.229,0 2.226,0.997 2.226,2.226 v 21.148 c 0,1.229 -0.997,2.226 -2.226,2.226 H 255.84 c -1.229,0 -2.226,-0.997 -2.226,-2.226 v -21.148 c 0,-1.229 0.997,-2.226 2.226,-2.226 h 21.147 m 0,-4 H 255.84 c -3.433,0 -6.226,2.793 -6.226,6.226 v 21.148 c 0,3.433 2.793,6.226 6.226,6.226 h 21.148 c 3.433,0 6.226,-2.793 6.226,-6.226 v -21.148 c -10e-4,-3.433 -2.794,-6.226 -6.227,-6.226 l 0,0 z"
   id="path3789"
   inkscape:connector-curvature="0"
   style="fill:#c6c6c6" />
		</g>
	</g>
	<g
   id="g3791">
		<path
   d="m 315.706,152.029 c -2.33,0 -4.226,-1.896 -4.226,-4.226 v -21.147 c 0,-2.33 1.896,-4.226 4.226,-4.226 h 21.148 c 2.33,0 4.226,1.896 4.226,4.226 v 21.147 c 0,2.33 -1.896,4.226 -4.226,4.226 h -21.148 z"
   id="path3793"
   inkscape:connector-curvature="0"
   style="fill:#ffffff" />
		<path
   d="m 336.854,124.429 c 1.229,0 2.226,0.997 2.226,2.226 v 21.148 c 0,1.229 -0.997,2.226 -2.226,2.226 h -21.148 c -1.229,0 -2.226,-0.997 -2.226,-2.226 v -21.148 c 0,-1.229 0.997,-2.226 2.226,-2.226 h 21.148 m 0,-4 h -21.148 c -3.433,0 -6.226,2.793 -6.226,6.226 v 21.148 c 0,3.433 2.793,6.226 6.226,6.226 h 21.148 c 3.433,0 6.226,-2.793 6.226,-6.226 v -21.148 c 0,-3.433 -2.793,-6.226 -6.226,-6.226 l 0,0 z"
   id="path3795"
   inkscape:connector-curvature="0"
   style="fill:#c6c6c6" />
	</g>
	<g
   id="g3797">
		<path
   d="m 415.84,152.029 c -2.33,0 -4.227,-1.896 -4.227,-4.226 v -21.147 c 0,-2.33 1.896,-4.226 4.227,-4.226 h 21.147 c 2.33,0 4.227,1.896 4.227,4.226 v 21.147 c 0,2.33 -1.896,4.226 -4.227,4.226 H 415.84 z"
   id="path3799"
   inkscape:connector-curvature="0"
   style="fill:#ffffff" />
		<path
   d="m 436.987,124.429 c 1.229,0 2.226,0.997 2.226,2.226 v 21.148 c 0,1.229 -0.997,2.226 -2.226,2.226 H 415.84 c -1.229,0 -2.226,-0.997 -2.226,-2.226 v -21.148 c 0,-1.229 0.997,-2.226 2.226,-2.226 h 21.147 m 0,-4 H 415.84 c -3.433,0 -6.226,2.793 -6.226,6.226 v 21.148 c 0,3.433 2.793,6.226 6.226,6.226 h 21.148 c 3.433,0 6.226,-2.793 6.226,-6.226 v -21.148 c -10e-4,-3.433 -2.794,-6.226 -6.227,-6.226 l 0,0 z"
   id="path3801"
   inkscape:connector-curvature="0"
   style="fill:#75b640" />
	</g>
	<g
   id="g3803">
		<path
   d="m 475.706,152.029 c -2.33,0 -4.226,-1.896 -4.226,-4.226 v -21.147 c 0,-2.33 1.896,-4.226 4.226,-4.226 h 21.148 c 2.33,0 4.226,1.896 4.226,4.226 v 21.147 c 0,2.33 -1.896,4.226 -4.226,4.226 h -21.148 z"
   id="path3805"
   inkscape:connector-curvature="0"
   style="fill:#ffffff" />
		<path
   d="m 496.854,124.429 c 1.229,0 2.226,0.997 2.226,2.226 v 21.148 c 0,1.229 -0.997,2.226 -2.226,2.226 h -21.148 c -1.229,0 -2.226,-0.997 -2.226,-2.226 v -21.148 c 0,-1.229 0.997,-2.226 2.226,-2.226 h 21.148 m 0,-4 h -21.148 c -3.433,0 -6.226,2.793 -6.226,6.226 v 21.148 c 0,3.433 2.793,6.226 6.226,6.226 h 21.148 c 3.433,0 6.226,-2.793 6.226,-6.226 v -21.148 c 0,-3.433 -2.793,-6.226 -6.226,-6.226 l 0,0 z"
   id="path3807"
   inkscape:connector-curvature="0"
   style="fill:#c6c6c6" />
	</g>
	<g
   id="g3809">
		<path
   d="m 275.137,108.24 v -8.628 h 2.279 l 1.792,3.162 c 0.512,0.909 1.024,1.984 1.408,2.957 h 0.038 c -0.128,-1.139 -0.166,-2.304 -0.166,-3.597 v -2.522 h 1.792 v 8.628 h -2.048 l -1.844,-3.329 c -0.512,-0.922 -1.075,-2.036 -1.498,-3.047 l -0.038,0.013 c 0.051,1.14 0.077,2.356 0.077,3.764 v 2.599 h -1.792 z"
   id="path3811"
   inkscape:connector-curvature="0"
   style="fill:#454746" />
		<path
   d="m 291.868,103.836 c 0,2.829 -1.716,4.544 -4.237,4.544 -2.561,0 -4.059,-1.933 -4.059,-4.391 0,-2.586 1.651,-4.519 4.199,-4.519 2.65,0.001 4.097,1.985 4.097,4.366 z m -6.235,0.116 c 0,1.69 0.794,2.88 2.1,2.88 1.319,0 2.074,-1.255 2.074,-2.932 0,-1.549 -0.742,-2.88 -2.087,-2.88 -1.319,0 -2.087,1.254 -2.087,2.932 z"
   id="path3813"
   inkscape:connector-curvature="0"
   style="fill:#454746" />
		<path
   d="m 293.146,99.727 c 0.717,-0.115 1.651,-0.18 2.638,-0.18 1.639,0 2.701,0.294 3.533,0.922 0.896,0.666 1.459,1.729 1.459,3.252 0,1.651 -0.602,2.791 -1.434,3.495 -0.909,0.755 -2.291,1.114 -3.981,1.114 -1.012,0 -1.729,-0.064 -2.215,-0.128 v -8.475 z m 1.959,7.041 c 0.166,0.039 0.436,0.039 0.679,0.039 1.767,0.013 2.919,-0.96 2.919,-3.021 0.013,-1.792 -1.037,-2.74 -2.715,-2.74 -0.435,0 -0.717,0.039 -0.883,0.077 v 5.645 z"
   id="path3815"
   inkscape:connector-curvature="0"
   style="fill:#454746" />
		<path
   d="m 307.188,104.592 h -3.175 v 2.048 h 3.546 v 1.6 h -5.505 v -8.628 h 5.326 v 1.6 h -3.367 v 1.792 h 3.175 v 1.588 z"
   id="path3817"
   inkscape:connector-curvature="0"
   style="fill:#454746" />
		<path
   d="m 311.169,108.24 v -1.178 l 1.075,-0.973 c 1.817,-1.626 2.701,-2.56 2.727,-3.533 0,-0.679 -0.409,-1.216 -1.37,-1.216 -0.717,0 -1.344,0.358 -1.779,0.691 l -0.551,-1.396 c 0.628,-0.474 1.601,-0.858 2.728,-0.858 1.882,0 2.919,1.101 2.919,2.612 0,1.396 -1.012,2.509 -2.215,3.584 l -0.769,0.64 v 0.026 h 3.137 v 1.6 h -5.902 z"
   id="path3819"
   inkscape:connector-curvature="0"
   style="fill:#454746" />
	</g>
	<g
   id="g3821">
		<path
   d="m 441.137,108.24 v -8.628 h 2.279 l 1.792,3.162 c 0.512,0.909 1.024,1.984 1.408,2.957 h 0.038 c -0.128,-1.139 -0.166,-2.304 -0.166,-3.597 v -2.522 h 1.792 v 8.628 h -2.048 l -1.844,-3.329 c -0.512,-0.922 -1.075,-2.036 -1.498,-3.047 l -0.038,0.013 c 0.051,1.14 0.077,2.356 0.077,3.764 v 2.599 h -1.792 z"
   id="path3823"
   inkscape:connector-curvature="0"
   style="fill:#454746" />
		<path
   d="m 457.868,103.836 c 0,2.829 -1.716,4.544 -4.237,4.544 -2.561,0 -4.059,-1.933 -4.059,-4.391 0,-2.586 1.651,-4.519 4.199,-4.519 2.65,0.001 4.097,1.985 4.097,4.366 z m -6.235,0.116 c 0,1.69 0.794,2.88 2.1,2.88 1.319,0 2.074,-1.255 2.074,-2.932 0,-1.549 -0.742,-2.88 -2.087,-2.88 -1.319,0 -2.087,1.254 -2.087,2.932 z"
   id="path3825"
   inkscape:connector-curvature="0"
   style="fill:#454746" />
		<path
   d="m 459.146,99.727 c 0.717,-0.115 1.651,-0.18 2.638,-0.18 1.639,0 2.701,0.294 3.533,0.922 0.896,0.666 1.459,1.729 1.459,3.252 0,1.651 -0.602,2.791 -1.434,3.495 -0.909,0.755 -2.291,1.114 -3.981,1.114 -1.012,0 -1.729,-0.064 -2.215,-0.128 v -8.475 z m 1.959,7.041 c 0.166,0.039 0.436,0.039 0.679,0.039 1.767,0.013 2.919,-0.96 2.919,-3.021 0.013,-1.792 -1.037,-2.74 -2.715,-2.74 -0.435,0 -0.717,0.039 -0.883,0.077 v 5.645 z"
   id="path3827"
   inkscape:connector-curvature="0"
   style="fill:#454746" />
		<path
   d="m 473.188,104.592 h -3.175 v 2.048 h 3.546 v 1.6 h -5.505 v -8.628 h 5.326 v 1.6 h -3.367 v 1.792 h 3.175 v 1.588 z"
   id="path3829"
   inkscape:connector-curvature="0"
   style="fill:#454746" />
		<path
   d="m 477.515,106.333 c 0.345,0.179 1.139,0.512 1.933,0.512 1.012,0 1.523,-0.486 1.523,-1.114 0,-0.819 -0.819,-1.19 -1.677,-1.19 H 478.5 v -1.396 h 0.755 c 0.653,-0.013 1.485,-0.256 1.485,-0.96 0,-0.5 -0.409,-0.871 -1.229,-0.871 -0.679,0 -1.396,0.294 -1.741,0.499 l -0.397,-1.408 c 0.5,-0.32 1.498,-0.627 2.573,-0.627 1.78,0 2.766,0.935 2.766,2.074 0,0.883 -0.499,1.575 -1.523,1.933 v 0.025 c 0.998,0.179 1.805,0.935 1.805,2.023 0,1.472 -1.293,2.547 -3.405,2.547 -1.075,0 -1.984,-0.281 -2.471,-0.589 l 0.397,-1.458 z"
   id="path3831"
   inkscape:connector-curvature="0"
   style="fill:#454746" />
	</g>
	<g
   id="g3833">
		<path
   d="m 99.912,132.527 c 0.628,-0.103 1.562,-0.18 2.599,-0.18 1.28,0 2.177,0.192 2.791,0.679 0.513,0.41 0.794,1.011 0.794,1.805 0,1.101 -0.781,1.856 -1.523,2.125 v 0.039 c 0.602,0.243 0.935,0.819 1.152,1.613 0.269,0.973 0.537,2.1 0.704,2.433 h -1.997 c -0.141,-0.243 -0.346,-0.947 -0.602,-2.01 -0.23,-1.076 -0.602,-1.37 -1.396,-1.383 h -0.589 v 3.393 h -1.934 v -8.514 z m 1.934,3.712 h 0.768 c 0.974,0 1.55,-0.486 1.55,-1.242 0,-0.794 -0.538,-1.191 -1.435,-1.204 -0.474,0 -0.742,0.039 -0.883,0.064 v 2.382 z"
   id="path3835"
   inkscape:connector-curvature="0"
   style="fill:#454746" />
		<path
   d="m 113.34,136.841 c 0,2.573 -1.037,4.34 -3.162,4.34 -2.15,0 -3.098,-1.933 -3.111,-4.289 0,-2.407 1.024,-4.314 3.176,-4.314 2.227,0 3.097,1.984 3.097,4.263 z m -4.315,0.051 c -0.013,1.908 0.448,2.816 1.204,2.816 0.755,0 1.164,-0.947 1.164,-2.842 0,-1.844 -0.396,-2.816 -1.178,-2.816 -0.716,0 -1.202,0.909 -1.19,2.842 z"
   id="path3837"
   inkscape:connector-curvature="0"
   style="fill:#454746" />
	</g>
	<g
   id="g3839">
		<path
   d="m 159.854,132.527 c 0.602,-0.103 1.447,-0.18 2.638,-0.18 1.203,0 2.061,0.23 2.637,0.691 0.551,0.436 0.922,1.152 0.922,1.997 0,0.845 -0.281,1.562 -0.794,2.048 -0.665,0.627 -1.651,0.909 -2.804,0.909 -0.256,0 -0.486,-0.013 -0.665,-0.039 v 3.085 h -1.934 v -8.511 z m 1.934,3.917 c 0.166,0.039 0.371,0.051 0.652,0.051 1.037,0 1.678,-0.525 1.678,-1.408 0,-0.793 -0.551,-1.267 -1.523,-1.267 -0.397,0 -0.666,0.038 -0.807,0.077 v 2.547 z"
   id="path3841"
   inkscape:connector-curvature="0"
   style="fill:#454746" />
		<path
   d="m 169.468,134.447 h -0.025 l -1.588,0.755 -0.32,-1.459 2.202,-1.024 h 1.613 v 8.321 h -1.882 v -6.593 z"
   id="path3843"
   inkscape:connector-curvature="0"
   style="fill:#454746" />
	</g>
	<g
   id="g3845">
		<path
   d="m 259.912,132.527 c 0.628,-0.103 1.562,-0.18 2.599,-0.18 1.28,0 2.177,0.192 2.791,0.679 0.513,0.41 0.794,1.011 0.794,1.805 0,1.101 -0.781,1.856 -1.523,2.125 v 0.039 c 0.602,0.243 0.935,0.819 1.152,1.613 0.269,0.973 0.537,2.1 0.704,2.433 h -1.997 c -0.141,-0.243 -0.346,-0.947 -0.602,-2.01 -0.23,-1.076 -0.602,-1.37 -1.396,-1.383 h -0.589 v 3.393 h -1.934 v -8.514 z m 1.934,3.712 h 0.768 c 0.974,0 1.55,-0.486 1.55,-1.242 0,-0.794 -0.538,-1.191 -1.435,-1.204 -0.474,0 -0.742,0.039 -0.883,0.064 v 2.382 z"
   id="path3847"
   inkscape:connector-curvature="0"
   style="fill:#454746" />
		<path
   d="m 273.34,136.841 c 0,2.573 -1.037,4.34 -3.162,4.34 -2.15,0 -3.098,-1.933 -3.111,-4.289 0,-2.407 1.024,-4.314 3.176,-4.314 2.227,0 3.097,1.984 3.097,4.263 z m -4.315,0.051 c -0.013,1.908 0.448,2.816 1.204,2.816 0.755,0 1.164,-0.947 1.164,-2.842 0,-1.844 -0.396,-2.816 -1.178,-2.816 -0.716,0 -1.202,0.909 -1.19,2.842 z"
   id="path3849"
   inkscape:connector-curvature="0"
   style="fill:#454746" />
	</g>
	<g
   id="g3851">
		<path
   d="m 319.778,132.527 c 0.628,-0.103 1.562,-0.18 2.599,-0.18 1.28,0 2.177,0.192 2.791,0.679 0.513,0.41 0.794,1.011 0.794,1.805 0,1.101 -0.781,1.856 -1.523,2.125 v 0.039 c 0.602,0.243 0.935,0.819 1.152,1.613 0.269,0.973 0.537,2.1 0.704,2.433 h -1.997 c -0.141,-0.243 -0.346,-0.947 -0.602,-2.01 -0.23,-1.076 -0.602,-1.37 -1.396,-1.383 h -0.589 v 3.393 h -1.934 v -8.514 z m 1.934,3.712 h 0.768 c 0.974,0 1.55,-0.486 1.55,-1.242 0,-0.794 -0.538,-1.191 -1.435,-1.204 -0.474,0 -0.742,0.039 -0.883,0.064 v 2.382 z"
   id="path3853"
   inkscape:connector-curvature="0"
   style="fill:#454746" />
		<path
   d="m 329.545,134.447 h -0.025 l -1.588,0.755 -0.32,-1.459 2.202,-1.024 h 1.613 v 8.321 h -1.882 v -6.593 z"
   id="path3855"
   inkscape:connector-curvature="0"
   style="fill:#454746" />
	</g>
	<g
   id="g3857">
		<path
   d="m 419.988,132.527 c 0.602,-0.103 1.447,-0.18 2.638,-0.18 1.203,0 2.061,0.23 2.637,0.691 0.551,0.436 0.922,1.152 0.922,1.997 0,0.845 -0.281,1.562 -0.794,2.048 -0.665,0.627 -1.651,0.909 -2.804,0.909 -0.256,0 -0.486,-0.013 -0.665,-0.039 v 3.085 h -1.934 v -8.511 z m 1.934,3.917 c 0.166,0.039 0.371,0.051 0.652,0.051 1.037,0 1.678,-0.525 1.678,-1.408 0,-0.793 -0.551,-1.267 -1.523,-1.267 -0.397,0 -0.666,0.038 -0.807,0.077 v 2.547 z"
   id="path3859"
   inkscape:connector-curvature="0"
   style="fill:#454746" />
		<path
   d="m 433.263,136.841 c 0,2.573 -1.037,4.34 -3.162,4.34 -2.15,0 -3.098,-1.933 -3.11,-4.289 0,-2.407 1.023,-4.314 3.175,-4.314 2.227,0 3.097,1.984 3.097,4.263 z m -4.315,0.051 c -0.013,1.908 0.448,2.816 1.204,2.816 0.755,0 1.164,-0.947 1.164,-2.842 0,-1.844 -0.396,-2.816 -1.178,-2.816 -0.716,0 -1.202,0.909 -1.19,2.842 z"
   id="path3861"
   inkscape:connector-curvature="0"
   style="fill:#454746" />
	</g>
	<g
   id="g3863">
		<path
   d="m 479.778,132.527 c 0.628,-0.103 1.562,-0.18 2.599,-0.18 1.28,0 2.177,0.192 2.791,0.679 0.513,0.41 0.794,1.011 0.794,1.805 0,1.101 -0.781,1.856 -1.523,2.125 v 0.039 c 0.602,0.243 0.935,0.819 1.152,1.613 0.269,0.973 0.537,2.1 0.704,2.433 h -1.997 c -0.141,-0.243 -0.346,-0.947 -0.602,-2.01 -0.23,-1.076 -0.602,-1.37 -1.396,-1.383 h -0.589 v 3.393 h -1.934 v -8.514 z m 1.934,3.712 h 0.768 c 0.974,0 1.55,-0.486 1.55,-1.242 0,-0.794 -0.538,-1.191 -1.435,-1.204 -0.474,0 -0.742,0.039 -0.883,0.064 v 2.382 z"
   id="path3865"
   inkscape:connector-curvature="0"
   style="fill:#454746" />
		<path
   d="m 489.545,134.447 h -0.025 l -1.588,0.755 -0.32,-1.459 2.202,-1.024 h 1.613 v 8.321 h -1.882 v -6.593 z"
   id="path3867"
   inkscape:connector-curvature="0"
   style="fill:#454746" />
	</g>
	<g
   id="g3869">
		<g
   id="g3871">
			<path
   stroke-miterlimit="10"
   d="m 182.879,174.839 c 0,59.657 157.337,78.904 225.765,-11.803"
   id="path3873"
   inkscape:connector-curvature="0"
   style="fill:none;stroke:#454746;stroke-width:1.60000002;stroke-linecap:round;stroke-miterlimit:10" />
			<g
   id="g3875">
				<path
   d="m 413.126,156.744 c -1.031,3.737 -1.801,8.742 -1.458,12.435 l -3.651,-5.346 -6.225,-1.772 c 3.612,-0.843 8.116,-3.156 11.334,-5.317 z"
   id="path3877"
   inkscape:connector-curvature="0"
   style="fill:#454746" />
			</g>
		</g>
	</g>
	<circle
   cx="298.00201"
   cy="223.026"
   r="8"
   id="circle3879"
   sodipodi:cx="298.00201"
   sodipodi:cy="223.026"
   sodipodi:rx="8"
   sodipodi:ry="8"
   style="fill:#454746"
   d="m 306.00201,223.026 c 0,4.41828 -3.58172,8 -8,8 -4.41827,0 -8,-3.58172 -8,-8 0,-4.41828 3.58173,-8 8,-8 4.41828,0 8,3.58172 8,8 z" />
	<g
   id="g3881">
		<path
   d="m 294.989,226.965 v -1.178 l 1.075,-0.973 c 1.817,-1.626 2.701,-2.56 2.727,-3.533 0,-0.679 -0.409,-1.216 -1.37,-1.216 -0.717,0 -1.344,0.358 -1.779,0.691 l -0.551,-1.396 c 0.628,-0.474 1.601,-0.858 2.728,-0.858 1.882,0 2.919,1.101 2.919,2.612 0,1.396 -1.012,2.509 -2.215,3.584 l -0.769,0.64 v 0.026 h 3.137 v 1.6 h -5.902 z"
   id="path3883"
   inkscape:connector-curvature="0"
   style="fill:#ffffff" />
	</g>
	<g
   id="g3885">
		<g
   id="g3887">
			<path
   stroke-miterlimit="10"
   d="m 143.613,238.24 c 11.069,-18.651 16.985,-38.575 19.92,-57.957"
   id="path3889"
   inkscape:connector-curvature="0"
   style="fill:none;stroke:#454746;stroke-width:1.60000002;stroke-linecap:round;stroke-miterlimit:10" />
			<g
   id="g3891">
				<path
   d="m 164.547,172.625 c 0.852,3.782 2.532,8.559 4.576,11.654 l -5.74,-2.993 -6.325,1.371 c 2.787,-2.445 5.669,-6.609 7.489,-10.032 z"
   id="path3893"
   inkscape:connector-curvature="0"
   style="fill:#454746" />
			</g>
		</g>
	</g>
	<circle
   cx="155.08"
   cy="213.433"
   r="8"
   id="circle3895"
   sodipodi:cx="155.08"
   sodipodi:cy="213.433"
   sodipodi:rx="8"
   sodipodi:ry="8"
   style="fill:#454746"
   d="m 163.08,213.433 c 0,4.41828 -3.58172,8 -8,8 -4.41828,0 -8,-3.58172 -8,-8 0,-4.41828 3.58172,-8 8,-8 4.41828,0 8,3.58172 8,8 z" />
	<g
   id="g3897">
		<path
   d="m 154.55,210.778 h -0.025 l -1.588,0.755 -0.32,-1.459 2.202,-1.024 h 1.613 v 8.321 h -1.882 v -6.593 z"
   id="path3899"
   inkscape:connector-curvature="0"
   style="fill:#ffffff" />
	</g>
	<g
   id="g3901">
		<path
   d="m 79.458,108.505 v -8.628 h 2.279 l 1.792,3.162 c 0.512,0.909 1.024,1.984 1.408,2.957 h 0.038 c -0.128,-1.139 -0.166,-2.304 -0.166,-3.597 v -2.522 h 1.792 v 8.628 h -2.048 l -1.844,-3.329 c -0.512,-0.922 -1.075,-2.036 -1.498,-3.047 l -0.038,0.013 c 0.051,1.14 0.077,2.356 0.077,3.764 v 2.599 h -1.792 z"
   id="path3903"
   inkscape:connector-curvature="0"
   style="fill:#454746" />
		<path
   d="m 96.189,104.101 c 0,2.829 -1.716,4.544 -4.238,4.544 -2.56,0 -4.058,-1.933 -4.058,-4.391 0,-2.586 1.651,-4.519 4.199,-4.519 2.65,0 4.097,1.985 4.097,4.366 z m -6.235,0.115 c 0,1.69 0.794,2.88 2.1,2.88 1.319,0 2.074,-1.255 2.074,-2.932 0,-1.549 -0.742,-2.88 -2.087,-2.88 -1.318,10e-4 -2.087,1.255 -2.087,2.932 z"
   id="path3905"
   inkscape:connector-curvature="0"
   style="fill:#454746" />
		<path
   d="m 97.468,99.992 c 0.717,-0.115 1.651,-0.18 2.638,-0.18 1.639,0 2.701,0.294 3.533,0.922 0.896,0.666 1.459,1.729 1.459,3.252 0,1.651 -0.602,2.791 -1.434,3.495 -0.909,0.755 -2.291,1.114 -3.981,1.114 -1.011,0 -1.729,-0.064 -2.215,-0.128 v -8.475 z m 1.959,7.041 c 0.166,0.039 0.436,0.039 0.679,0.039 1.767,0.013 2.919,-0.96 2.919,-3.021 0.013,-1.792 -1.037,-2.74 -2.714,-2.74 -0.436,0 -0.718,0.039 -0.884,0.077 v 5.645 z"
   id="path3907"
   inkscape:connector-curvature="0"
   style="fill:#454746" />
		<path
   d="m 111.51,104.856 h -3.175 v 2.048 h 3.546 v 1.6 h -5.505 v -8.628 h 5.326 v 1.6 h -3.367 v 1.792 h 3.175 v 1.588 z"
   id="path3909"
   inkscape:connector-curvature="0"
   style="fill:#454746" />
		<path
   d="m 117.974,101.912 h -0.025 l -1.588,0.755 -0.32,-1.459 2.202,-1.024 h 1.613 v 8.321 h -1.882 v -6.593 z"
   id="path3911"
   inkscape:connector-curvature="0"
   style="fill:#454746" />
		<path
   d="m 128.38,104.498 v 1.293 h -3.354 v -1.293 h 3.354 z"
   id="path3913"
   inkscape:connector-curvature="0"
   style="fill:#454746" />
		<path
   d="m 152.419,105.202 c -0.039,-1.037 -0.077,-2.292 -0.077,-3.546 h -0.038 c -0.27,1.101 -0.628,2.33 -0.961,3.341 l -1.05,3.367 h -1.523 l -0.921,-3.342 c -0.282,-1.011 -0.576,-2.24 -0.781,-3.367 h -0.025 c -0.052,1.165 -0.09,2.497 -0.154,3.572 l -0.153,3.277 h -1.805 l 0.55,-8.628 h 2.599 l 0.846,2.88 c 0.269,0.999 0.537,2.074 0.729,3.085 h 0.038 c 0.243,-0.999 0.538,-2.138 0.819,-3.098 l 0.922,-2.868 h 2.548 l 0.474,8.628 h -1.907 l -0.13,-3.301 z"
   id="path3915"
   inkscape:connector-curvature="0"
   style="fill:#454746" />
		<path
   d="m 157.921,106.29 -0.614,2.215 h -2.022 l 2.637,-8.628 h 2.561 l 2.676,8.628 h -2.1 l -0.665,-2.215 h -2.473 z m 2.189,-1.459 -0.538,-1.831 c -0.153,-0.512 -0.307,-1.152 -0.435,-1.664 h -0.025 c -0.129,0.512 -0.257,1.165 -0.397,1.664 l -0.512,1.831 h 1.907 z"
   id="path3917"
   inkscape:connector-curvature="0"
   style="fill:#454746" />
		<path
   d="m 164.372,106.495 c 0.524,0.269 1.331,0.538 2.163,0.538 0.896,0 1.37,-0.372 1.37,-0.935 0,-0.538 -0.41,-0.845 -1.446,-1.216 -1.435,-0.499 -2.369,-1.293 -2.369,-2.547 0,-1.473 1.229,-2.599 3.265,-2.599 0.974,0 1.69,0.205 2.202,0.436 l -0.436,1.574 c -0.346,-0.166 -0.96,-0.409 -1.805,-0.409 -0.845,0 -1.255,0.384 -1.255,0.832 0,0.55 0.486,0.793 1.601,1.216 1.523,0.563 2.24,1.357 2.24,2.573 0,1.447 -1.113,2.676 -3.482,2.676 -0.985,0 -1.958,-0.256 -2.445,-0.525 l 0.397,-1.614 z"
   id="path3919"
   inkscape:connector-curvature="0"
   style="fill:#454746" />
		<path
   d="m 172.884,101.515 h -2.316 v -1.639 h 6.631 v 1.639 h -2.355 v 6.99 h -1.959 v -6.99 z"
   id="path3921"
   inkscape:connector-curvature="0"
   style="fill:#454746" />
		<path
   d="m 183.368,104.856 h -3.175 v 2.048 h 3.546 v 1.6 h -5.505 v -8.628 h 5.326 v 1.6 h -3.367 v 1.792 h 3.175 v 1.588 z"
   id="path3923"
   inkscape:connector-curvature="0"
   style="fill:#454746" />
		<path
   d="m 185.069,99.992 c 0.628,-0.103 1.562,-0.18 2.599,-0.18 1.28,0 2.177,0.192 2.791,0.679 0.513,0.41 0.794,1.011 0.794,1.805 0,1.101 -0.781,1.856 -1.523,2.125 v 0.039 c 0.602,0.243 0.935,0.819 1.152,1.613 0.269,0.973 0.537,2.1 0.704,2.433 h -1.997 c -0.141,-0.243 -0.346,-0.947 -0.602,-2.01 -0.23,-1.076 -0.602,-1.37 -1.396,-1.383 h -0.589 v 3.393 h -1.934 v -8.514 z m 1.934,3.712 h 0.768 c 0.974,0 1.55,-0.486 1.55,-1.242 0,-0.794 -0.538,-1.191 -1.435,-1.204 -0.474,0 -0.742,0.039 -0.883,0.064 v 2.382 z"
   id="path3925"
   inkscape:connector-curvature="0"
   style="fill:#454746" />
	</g>
	<polygon
   points="140.324,104.618 140.932,108.165 137.747,106.491 134.561,108.165 135.17,104.618 132.592,102.106 136.154,101.589 137.747,98.361 139.339,101.589 142.901,102.106 "
   id="polygon3927"
   style="fill:#75b640" />
	<path
   d="M 41.378,191.44 H 22.729 c -1.811,0 -3.28,-1.468 -3.28,-3.28 V 66.42 c 0,-1.811 1.468,-3.28 3.28,-3.28 h 18.649 v 128.3 z"
   id="path3929"
   inkscape:connector-curvature="0"
   style="fill:#75b640" />
	<g
   id="g3931">
		<path
   d="m 34.971,145.527 c 0.179,0.358 0.371,1.165 0.371,2.215 0,2.983 -1.856,4.519 -4.314,4.519 -2.944,0 -4.583,-2.1 -4.583,-4.711 0,-1.011 0.205,-1.78 0.384,-2.125 l 1.55,0.396 c -0.167,0.397 -0.32,0.948 -0.32,1.639 0,1.549 0.935,2.752 2.854,2.752 1.729,0 2.816,-1.024 2.816,-2.765 0,-0.589 -0.128,-1.242 -0.281,-1.626 l 1.523,-0.294 z"
   id="path3933"
   inkscape:connector-curvature="0"
   style="fill:#ffffff" />
		<path
   d="m 26.585,144.249 v -1.959 h 6.99 v -3.431 h 1.639 v 5.39 h -8.629 z"
   id="path3935"
   inkscape:connector-curvature="0"
   style="fill:#ffffff" />
		<path
   d="m 26.585,136.159 h 4.968 c 1.484,0 2.24,-0.563 2.24,-1.562 0,-1.024 -0.717,-1.587 -2.24,-1.587 h -4.968 v -1.946 h 4.84 c 2.662,0 3.93,1.344 3.93,3.598 0,2.176 -1.203,3.457 -3.956,3.457 h -4.813 v -1.96 z"
   id="path3937"
   inkscape:connector-curvature="0"
   style="fill:#ffffff" />
		<path
   d="m 33.204,129.311 c 0.269,-0.525 0.537,-1.331 0.537,-2.164 0,-0.896 -0.371,-1.37 -0.935,-1.37 -0.537,0 -0.845,0.41 -1.216,1.447 -0.499,1.434 -1.293,2.368 -2.548,2.368 -1.472,0 -2.599,-1.229 -2.599,-3.265 0,-0.973 0.205,-1.689 0.436,-2.202 l 1.574,0.435 c -0.166,0.346 -0.409,0.96 -0.409,1.805 0,0.845 0.384,1.255 0.832,1.255 0.551,0 0.794,-0.487 1.216,-1.601 0.563,-1.523 1.357,-2.24 2.573,-2.24 1.447,0 2.676,1.114 2.676,3.482 0,0.986 -0.256,1.959 -0.524,2.445 l -1.613,-0.395 z"
   id="path3939"
   inkscape:connector-curvature="0"
   style="fill:#ffffff" />
		<path
   d="m 28.224,120.799 v 2.317 h -1.639 v -6.632 h 1.639 v 2.356 h 6.99 v 1.958 h -6.99 z"
   id="path3941"
   inkscape:connector-curvature="0"
   style="fill:#ffffff" />
		<path
   d="m 31.565,110.315 v 3.175 h 2.048 v -3.546 h 1.601 v 5.505 h -8.629 v -5.326 h 1.601 v 3.367 h 1.792 v -3.175 h 1.587 z"
   id="path3943"
   inkscape:connector-curvature="0"
   style="fill:#ffffff" />
		<path
   d="m 26.7,108.614 c -0.103,-0.627 -0.179,-1.562 -0.179,-2.599 0,-1.28 0.191,-2.176 0.679,-2.791 0.409,-0.512 1.011,-0.793 1.805,-0.793 1.101,0 1.856,0.781 2.125,1.523 h 0.038 c 0.244,-0.602 0.819,-0.935 1.613,-1.152 0.974,-0.269 2.1,-0.538 2.433,-0.704 v 1.997 c -0.243,0.141 -0.947,0.346 -2.01,0.602 -1.075,0.23 -1.37,0.602 -1.383,1.395 v 0.589 h 3.393 v 1.933 H 26.7 z m 3.713,-1.933 v -0.769 c 0,-0.973 -0.486,-1.549 -1.242,-1.549 -0.793,0 -1.19,0.538 -1.203,1.434 0,0.474 0.038,0.743 0.064,0.884 h 2.381 z"
   id="path3945"
   inkscape:connector-curvature="0"
   style="fill:#ffffff" />
	</g>
	<g
   id="g3947">
		<g
   id="g3949">
			<path
   stroke-miterlimit="10"
   d="m 182.879,174.839 c 0,30.602 134.80397,36.48565 142.49497,-8.45335"
   id="path3951"
   inkscape:connector-curvature="0"
   style="fill:none;stroke:#454746;stroke-width:1.60000002;stroke-linecap:round;stroke-miterlimit:10"
   sodipodi:nodetypes="cc" />
			<g
   id="g3953"
   transform="translate(59.798676,-0.20132422)">
				<path
   d="m 266.80117,158.36041 c 0.74315,3.80529 2.284,8.62814 4.23626,11.78109 l -5.65045,-3.15826 -6.36239,1.18742 c 2.85819,-2.36325 5.85826,-6.44182 7.77658,-9.81025 z"
   id="path3955"
   inkscape:connector-curvature="0"
   style="fill:#454746" />
			</g>
		</g>
	</g>
	<circle
   cx="227.129"
   cy="197.298"
   r="8"
   id="circle3957"
   sodipodi:cx="227.129"
   sodipodi:cy="197.298"
   sodipodi:rx="8"
   sodipodi:ry="8"
   style="fill:#454746"
   d="m 235.129,197.298 c 0,4.41828 -3.58172,8 -8,8 -4.41828,0 -8,-3.58172 -8,-8 0,-4.41827 3.58172,-8 8,-8 4.41828,0 8,3.58173 8,8 z"
   transform="translate(40,0)" />
	<g
   id="g3959"
   transform="translate(40,0)">
		<path
   d="m 224.115,201.237 v -1.178 l 1.075,-0.973 c 1.817,-1.626 2.701,-2.56 2.727,-3.533 0,-0.679 -0.409,-1.216 -1.37,-1.216 -0.717,0 -1.344,0.358 -1.779,0.691 l -0.551,-1.396 c 0.628,-0.474 1.601,-0.858 2.728,-0.858 1.882,0 2.919,1.101 2.919,2.612 0,1.396 -1.012,2.509 -2.215,3.584 l -0.769,0.64 v 0.026 h 3.137 v 1.6 h -5.902 z"
   id="path3961"
   inkscape:connector-curvature="0"
   style="fill:#ffffff" />
	</g>
</g>
</svg>