<?xml version="1.0" encoding="utf-8"?>
<!-- Generator: Adobe Illustrator 17.1.0, SVG Export Plug-In . SVG Version: 6.00 Build 0)  -->
<!DOCTYPE svg PUBLIC "-//W3C//DTD SVG 1.1//EN" "http://www.w3.org/Graphics/SVG/1.1/DTD/svg11.dtd">
<svg version="1.1" xmlns="http://www.w3.org/2000/svg" xmlns:xlink="http://www.w3.org/1999/xlink" x="0px" y="0px"
	 viewBox="0 0 566.929 255.026" enable-background="new 0 0 566.929 255.026" xml:space="preserve">
<g id="Layer_2" display="none">
	<path display="inline" fill="#75B640" d="M41.378,191.282H22.729c-1.811,0-3.28-1.468-3.28-3.28V66.262
		c0-1.811,1.468-3.28,3.28-3.28h18.649V191.282z"/>
</g>
<g id="Layer_1">
	<path fill="#F8FAF6" d="M550.274,191.406H33.293c-1.811,0-3.28-1.468-3.28-3.28V66.387c0-1.811,1.468-3.28,3.28-3.28h516.981
		c0.961,0,1.74,0.779,1.74,1.74v124.82C552.013,190.627,551.234,191.406,550.274,191.406z"/>
	<path fill="#FFFFFF" stroke="#75B640" stroke-width="1.6" stroke-miterlimit="10" d="M204.734,167.406H67.293
		c-1.811,0-3.28-1.468-3.28-3.28V90.686c0-1.811,1.468-3.28,3.28-3.28h137.441c1.811,0,3.28,1.468,3.28,3.28v73.441
		C208.013,165.938,206.545,167.406,204.734,167.406z"/>
	<path fill="#FFFFFF" stroke="#C6C6C6" stroke-width="1.6" stroke-miterlimit="10" d="M364.734,167.406H227.293
		c-1.811,0-3.28-1.468-3.28-3.28V90.686c0-1.811,1.468-3.28,3.28-3.28h137.441c1.811,0,3.28,1.468,3.28,3.28v73.441
		C368.013,165.938,366.545,167.406,364.734,167.406z"/>
	<path fill="#FFFFFF" stroke="#C6C6C6" stroke-width="1.6" stroke-miterlimit="10" d="M524.734,167.406H387.293
		c-1.811,0-3.28-1.468-3.28-3.28V90.686c0-1.811,1.468-3.28,3.28-3.28h137.441c1.811,0,3.28,1.468,3.28,3.28v73.441
		C528.013,165.938,526.545,167.406,524.734,167.406z"/>
	<g>
		<path fill="#FFFFFF" d="M95.839,151.995c-2.33,0-4.226-1.896-4.226-4.226v-21.148c0-2.33,1.896-4.226,4.226-4.226h21.148
			c2.33,0,4.226,1.896,4.226,4.226v21.148c0,2.33-1.896,4.226-4.226,4.226H95.839z"/>
		<g>
			<path fill="#C6C6C6" d="M116.987,124.395c1.229,0,2.226,0.997,2.226,2.226v21.148c0,1.229-0.997,2.226-2.226,2.226H95.84
				c-1.229,0-2.226-0.997-2.226-2.226v-21.148c0-1.229,0.997-2.226,2.226-2.226H116.987 M116.987,120.395H95.84
				c-3.433,0-6.226,2.793-6.226,6.226v21.148c0,3.433,2.793,6.226,6.226,6.226h21.148c3.433,0,6.226-2.793,6.226-6.226v-21.148
				C123.213,123.188,120.42,120.395,116.987,120.395L116.987,120.395z"/>
		</g>
	</g>
	<g>
		<path fill="#FFFFFF" d="M155.706,151.995c-2.33,0-4.226-1.896-4.226-4.226v-21.148c0-2.33,1.896-4.226,4.226-4.226h21.148
			c2.33,0,4.226,1.896,4.226,4.226v21.148c0,2.33-1.896,4.226-4.226,4.226H155.706z"/>
		<g>
			<path fill="#75B640" d="M176.854,124.395c1.229,0,2.226,0.997,2.226,2.226v21.148c0,1.229-0.997,2.226-2.226,2.226h-21.148
				c-1.229,0-2.226-0.997-2.226-2.226v-21.148c0-1.229,0.997-2.226,2.226-2.226H176.854 M176.854,120.395h-21.148
				c-3.433,0-6.226,2.793-6.226,6.226v21.148c0,3.433,2.793,6.226,6.226,6.226h21.148c3.433,0,6.226-2.793,6.226-6.226v-21.148
				C183.08,123.188,180.287,120.395,176.854,120.395L176.854,120.395z"/>
		</g>
	</g>
	<g>
		<path fill="#FFFFFF" d="M255.839,151.995c-2.33,0-4.226-1.896-4.226-4.226v-21.148c0-2.33,1.896-4.226,4.226-4.226h21.147
			c2.33,0,4.227,1.896,4.227,4.226v21.148c0,2.33-1.896,4.226-4.227,4.226H255.839z"/>
		<g>
			<path fill="#C6C6C6" d="M276.987,124.395c1.229,0,2.226,0.997,2.226,2.226v21.148c0,1.229-0.997,2.226-2.226,2.226H255.84
				c-1.229,0-2.226-0.997-2.226-2.226v-21.148c0-1.229,0.997-2.226,2.226-2.226H276.987 M276.987,120.395H255.84
				c-3.433,0-6.226,2.793-6.226,6.226v21.148c0,3.433,2.793,6.226,6.226,6.226h21.148c3.433,0,6.226-2.793,6.226-6.226v-21.148
				C283.213,123.188,280.42,120.395,276.987,120.395L276.987,120.395z"/>
		</g>
	</g>
	<g>
		<path fill="#FFFFFF" d="M315.707,151.995c-2.33,0-4.227-1.896-4.227-4.226v-21.148c0-2.33,1.896-4.226,4.227-4.226h21.147
			c2.33,0,4.226,1.896,4.226,4.226v21.148c0,2.33-1.896,4.226-4.226,4.226H315.707z"/>
		<path fill="#C6C6C6" d="M336.854,124.395c1.229,0,2.226,0.997,2.226,2.226v21.148c0,1.229-0.997,2.226-2.226,2.226h-21.148
			c-1.229,0-2.226-0.997-2.226-2.226v-21.148c0-1.229,0.997-2.226,2.226-2.226H336.854 M336.854,120.395h-21.148
			c-3.433,0-6.226,2.793-6.226,6.226v21.148c0,3.433,2.793,6.226,6.226,6.226h21.148c3.433,0,6.226-2.793,6.226-6.226v-21.148
			C343.08,123.188,340.287,120.395,336.854,120.395L336.854,120.395z"/>
	</g>
	<g>
		<path fill="#FFFFFF" d="M415.839,151.995c-2.33,0-4.226-1.896-4.226-4.226v-21.148c0-2.33,1.896-4.226,4.226-4.226h21.147
			c2.33,0,4.227,1.896,4.227,4.226v21.148c0,2.33-1.896,4.226-4.227,4.226H415.839z"/>
		<path fill="#75B640" d="M436.987,124.395c1.229,0,2.226,0.997,2.226,2.226v21.148c0,1.229-0.997,2.226-2.226,2.226H415.84
			c-1.229,0-2.226-0.997-2.226-2.226v-21.148c0-1.229,0.997-2.226,2.226-2.226H436.987 M436.987,120.395H415.84
			c-3.433,0-6.226,2.793-6.226,6.226v21.148c0,3.433,2.793,6.226,6.226,6.226h21.148c3.433,0,6.226-2.793,6.226-6.226v-21.148
			C443.213,123.188,440.42,120.395,436.987,120.395L436.987,120.395z"/>
	</g>
	<g>
		<path fill="#FFFFFF" d="M475.707,151.995c-2.33,0-4.227-1.896-4.227-4.226v-21.148c0-2.33,1.896-4.226,4.227-4.226h21.147
			c2.33,0,4.226,1.896,4.226,4.226v21.148c0,2.33-1.896,4.226-4.226,4.226H475.707z"/>
		<path fill="#C6C6C6" d="M496.854,124.395c1.229,0,2.226,0.997,2.226,2.226v21.148c0,1.229-0.997,2.226-2.226,2.226h-21.148
			c-1.229,0-2.226-0.997-2.226-2.226v-21.148c0-1.229,0.997-2.226,2.226-2.226H496.854 M496.854,120.395h-21.148
			c-3.433,0-6.226,2.793-6.226,6.226v21.148c0,3.433,2.793,6.226,6.226,6.226h21.148c3.433,0,6.226-2.793,6.226-6.226v-21.148
			C503.08,123.188,500.287,120.395,496.854,120.395L496.854,120.395z"/>
	</g>
	<g>
		<path fill="#454746" d="M275.137,108.207v-8.628h2.279l1.792,3.162c0.512,0.909,1.024,1.984,1.408,2.957h0.038
			c-0.128-1.139-0.166-2.304-0.166-3.597v-2.522h1.792v8.628h-2.048l-1.844-3.329c-0.512-0.922-1.075-2.036-1.498-3.047
			l-0.038,0.013c0.051,1.14,0.077,2.356,0.077,3.764v2.599H275.137z"/>
		<path fill="#454746" d="M291.868,103.803c0,2.829-1.716,4.544-4.237,4.544c-2.561,0-4.059-1.933-4.059-4.391
			c0-2.586,1.651-4.519,4.199-4.519C290.421,99.437,291.868,101.421,291.868,103.803z M285.633,103.918c0,1.69,0.794,2.88,2.1,2.88
			c1.319,0,2.074-1.255,2.074-2.932c0-1.549-0.742-2.88-2.087-2.88C286.401,100.986,285.633,102.241,285.633,103.918z"/>
		<path fill="#454746" d="M293.146,99.693c0.717-0.115,1.651-0.18,2.638-0.18c1.639,0,2.701,0.294,3.533,0.922
			c0.896,0.666,1.459,1.729,1.459,3.252c0,1.651-0.602,2.791-1.434,3.495c-0.909,0.755-2.291,1.114-3.981,1.114
			c-1.012,0-1.729-0.064-2.215-0.128V99.693z M295.105,106.734c0.166,0.039,0.436,0.039,0.679,0.039
			c1.767,0.013,2.919-0.96,2.919-3.021c0.013-1.792-1.037-2.74-2.715-2.74c-0.435,0-0.717,0.039-0.883,0.077V106.734z"/>
		<path fill="#454746" d="M307.188,104.558h-3.175v2.048h3.546v1.6h-5.505v-8.628h5.326v1.6h-3.367v1.792h3.175V104.558z"/>
		<path fill="#454746" d="M311.169,108.207v-1.178l1.075-0.973c1.817-1.626,2.701-2.56,2.727-3.533c0-0.679-0.409-1.216-1.37-1.216
			c-0.717,0-1.344,0.358-1.779,0.691l-0.551-1.396c0.628-0.474,1.601-0.858,2.728-0.858c1.882,0,2.919,1.101,2.919,2.612
			c0,1.396-1.012,2.509-2.215,3.584l-0.769,0.64v0.026h3.137v1.6H311.169z"/>
	</g>
	<g>
		<path fill="#454746" d="M435.137,108.207v-8.628h2.279l1.792,3.162c0.512,0.909,1.024,1.984,1.408,2.957h0.038
			c-0.128-1.139-0.166-2.304-0.166-3.597v-2.522h1.792v8.628h-2.048l-1.844-3.329c-0.512-0.922-1.075-2.036-1.498-3.047
			l-0.038,0.013c0.051,1.14,0.077,2.356,0.077,3.764v2.599H435.137z"/>
		<path fill="#454746" d="M451.868,103.803c0,2.829-1.716,4.544-4.237,4.544c-2.561,0-4.059-1.933-4.059-4.391
			c0-2.586,1.651-4.519,4.199-4.519C450.421,99.437,451.868,101.421,451.868,103.803z M445.633,103.918c0,1.69,0.794,2.88,2.1,2.88
			c1.319,0,2.074-1.255,2.074-2.932c0-1.549-0.742-2.88-2.087-2.88C446.401,100.986,445.633,102.241,445.633,103.918z"/>
		<path fill="#454746" d="M453.146,99.693c0.717-0.115,1.651-0.18,2.638-0.18c1.639,0,2.701,0.294,3.533,0.922
			c0.896,0.666,1.459,1.729,1.459,3.252c0,1.651-0.602,2.791-1.434,3.495c-0.909,0.755-2.291,1.114-3.981,1.114
			c-1.012,0-1.729-0.064-2.215-0.128V99.693z M455.105,106.734c0.166,0.039,0.436,0.039,0.679,0.039
			c1.767,0.013,2.919-0.96,2.919-3.021c0.013-1.792-1.037-2.74-2.715-2.74c-0.435,0-0.717,0.039-0.883,0.077V106.734z"/>
		<path fill="#454746" d="M467.188,104.558h-3.175v2.048h3.546v1.6h-5.505v-8.628h5.326v1.6h-3.367v1.792h3.175V104.558z"/>
		<path fill="#454746" d="M471.515,106.299c0.345,0.179,1.139,0.512,1.933,0.512c1.012,0,1.523-0.486,1.523-1.114
			c0-0.819-0.819-1.19-1.677-1.19H472.5v-1.396h0.755c0.653-0.013,1.485-0.256,1.485-0.96c0-0.5-0.409-0.871-1.229-0.871
			c-0.679,0-1.396,0.294-1.741,0.499l-0.397-1.408c0.5-0.32,1.498-0.627,2.573-0.627c1.78,0,2.766,0.935,2.766,2.074
			c0,0.883-0.499,1.575-1.523,1.933v0.025c0.998,0.179,1.805,0.935,1.805,2.023c0,1.472-1.293,2.547-3.405,2.547
			c-1.075,0-1.984-0.281-2.471-0.589L471.515,106.299z"/>
	</g>
	<g>
		<path fill="#454746" d="M99.912,132.493c0.628-0.103,1.562-0.18,2.599-0.18c1.28,0,2.177,0.192,2.791,0.679
			c0.513,0.41,0.794,1.011,0.794,1.805c0,1.101-0.781,1.856-1.523,2.125v0.039c0.602,0.243,0.935,0.819,1.152,1.613
			c0.269,0.973,0.537,2.1,0.704,2.433h-1.997c-0.141-0.243-0.346-0.947-0.602-2.01c-0.23-1.076-0.602-1.37-1.396-1.383h-0.589v3.393
			h-1.934V132.493z M101.846,136.206h0.768c0.974,0,1.55-0.486,1.55-1.242c0-0.794-0.538-1.191-1.435-1.204
			c-0.474,0-0.742,0.039-0.883,0.064V136.206z"/>
		<path fill="#454746" d="M113.34,136.807c0,2.573-1.037,4.34-3.162,4.34c-2.15,0-3.098-1.933-3.111-4.289
			c0-2.407,1.024-4.314,3.176-4.314C112.47,132.544,113.34,134.528,113.34,136.807z M109.025,136.858
			c-0.013,1.908,0.448,2.816,1.204,2.816c0.755,0,1.164-0.947,1.164-2.842c0-1.844-0.396-2.816-1.178-2.816
			C109.499,134.017,109.013,134.925,109.025,136.858z"/>
	</g>
	<g>
		<path fill="#454746" d="M159.854,132.493c0.602-0.103,1.447-0.18,2.638-0.18c1.203,0,2.061,0.23,2.637,0.691
			c0.551,0.436,0.922,1.152,0.922,1.997c0,0.845-0.281,1.562-0.794,2.048c-0.665,0.627-1.651,0.909-2.804,0.909
			c-0.256,0-0.486-0.013-0.665-0.039v3.085h-1.934V132.493z M161.788,136.41c0.166,0.039,0.371,0.051,0.652,0.051
			c1.037,0,1.678-0.525,1.678-1.408c0-0.793-0.551-1.267-1.523-1.267c-0.397,0-0.666,0.038-0.807,0.077V136.41z"/>
		<path fill="#454746" d="M169.468,134.413h-0.025l-1.588,0.755l-0.32-1.459l2.202-1.024h1.613v8.321h-1.882V134.413z"/>
	</g>
	<g>
		<path fill="#454746" d="M259.912,132.493c0.628-0.103,1.562-0.18,2.599-0.18c1.28,0,2.177,0.192,2.791,0.679
			c0.513,0.41,0.794,1.011,0.794,1.805c0,1.101-0.781,1.856-1.523,2.125v0.039c0.602,0.243,0.935,0.819,1.152,1.613
			c0.269,0.973,0.537,2.1,0.704,2.433h-1.997c-0.141-0.243-0.346-0.947-0.602-2.01c-0.23-1.076-0.602-1.37-1.396-1.383h-0.589v3.393
			h-1.934V132.493z M261.846,136.206h0.768c0.974,0,1.55-0.486,1.55-1.242c0-0.794-0.538-1.191-1.435-1.204
			c-0.474,0-0.742,0.039-0.883,0.064V136.206z"/>
		<path fill="#454746" d="M273.34,136.807c0,2.573-1.037,4.34-3.162,4.34c-2.15,0-3.098-1.933-3.111-4.289
			c0-2.407,1.024-4.314,3.176-4.314C272.47,132.544,273.34,134.528,273.34,136.807z M269.025,136.858
			c-0.013,1.908,0.448,2.816,1.204,2.816c0.755,0,1.164-0.947,1.164-2.842c0-1.844-0.396-2.816-1.178-2.816
			C269.499,134.017,269.013,134.925,269.025,136.858z"/>
	</g>
	<g>
		<path fill="#454746" d="M319.778,132.493c0.628-0.103,1.562-0.18,2.599-0.18c1.28,0,2.177,0.192,2.791,0.679
			c0.513,0.41,0.794,1.011,0.794,1.805c0,1.101-0.781,1.856-1.523,2.125v0.039c0.602,0.243,0.935,0.819,1.152,1.613
			c0.269,0.973,0.537,2.1,0.704,2.433h-1.997c-0.141-0.243-0.346-0.947-0.602-2.01c-0.23-1.076-0.602-1.37-1.396-1.383h-0.589v3.393
			h-1.934V132.493z M321.712,136.206h0.768c0.974,0,1.55-0.486,1.55-1.242c0-0.794-0.538-1.191-1.435-1.204
			c-0.474,0-0.742,0.039-0.883,0.064V136.206z"/>
		<path fill="#454746" d="M329.545,134.413h-0.025l-1.588,0.755l-0.32-1.459l2.202-1.024h1.613v8.321h-1.882V134.413z"/>
	</g>
	<g>
		<path fill="#454746" d="M419.988,132.493c0.602-0.103,1.447-0.18,2.638-0.18c1.203,0,2.061,0.23,2.637,0.691
			c0.551,0.436,0.922,1.152,0.922,1.997c0,0.845-0.281,1.562-0.794,2.048c-0.665,0.627-1.651,0.909-2.804,0.909
			c-0.256,0-0.486-0.013-0.665-0.039v3.085h-1.934V132.493z M421.922,136.41c0.166,0.039,0.371,0.051,0.652,0.051
			c1.037,0,1.678-0.525,1.678-1.408c0-0.793-0.551-1.267-1.523-1.267c-0.397,0-0.666,0.038-0.807,0.077V136.41z"/>
		<path fill="#454746" d="M433.263,136.807c0,2.573-1.037,4.34-3.162,4.34c-2.15,0-3.098-1.933-3.11-4.289
			c0-2.407,1.023-4.314,3.175-4.314C432.393,132.544,433.263,134.528,433.263,136.807z M428.948,136.858
			c-0.013,1.908,0.448,2.816,1.204,2.816c0.755,0,1.164-0.947,1.164-2.842c0-1.844-0.396-2.816-1.178-2.816
			C429.422,134.017,428.936,134.925,428.948,136.858z"/>
	</g>
	<g>
		<path fill="#454746" d="M479.778,132.493c0.628-0.103,1.562-0.18,2.599-0.18c1.28,0,2.177,0.192,2.791,0.679
			c0.513,0.41,0.794,1.011,0.794,1.805c0,1.101-0.781,1.856-1.523,2.125v0.039c0.602,0.243,0.935,0.819,1.152,1.613
			c0.269,0.973,0.537,2.1,0.704,2.433h-1.997c-0.141-0.243-0.346-0.947-0.602-2.01c-0.23-1.076-0.602-1.37-1.396-1.383h-0.589v3.393
			h-1.934V132.493z M481.712,136.206h0.768c0.974,0,1.55-0.486,1.55-1.242c0-0.794-0.538-1.191-1.435-1.204
			c-0.474,0-0.742,0.039-0.883,0.064V136.206z"/>
		<path fill="#454746" d="M489.545,134.413h-0.025l-1.588,0.755l-0.32-1.459l2.202-1.024h1.613v8.321h-1.882V134.413z"/>
	</g>
	<g>
		<g>
			<path fill="none" stroke="#454746" stroke-width="1.6" stroke-linecap="round" stroke-miterlimit="10" d="M171.422,166.884
				c28.404,65.844,179,95.255,245.059,7.722"/>
			<g>
				<path fill="#454746" d="M168.831,159.607c-0.018,3.877-0.629,8.903-1.958,12.366l4.96-4.16l6.472-0.024
					C175.056,166.002,171.346,162.558,168.831,159.607z"/>
			</g>
		</g>
	</g>
	<g>
		<g>
			<path fill="none" stroke="#454746" stroke-width="1.6" stroke-linecap="round" stroke-miterlimit="10" d="M374.645,210.52
				c-43.437,24.38-88.04,12.16-105.687-43.484"/>
			<g>
				<path fill="#454746" d="M266.831,159.607c2.316,3.109,5.793,6.79,8.918,8.787l-6.461-0.401l-5.222,3.824
					C265.62,168.449,266.56,163.474,266.831,159.607z"/>
			</g>
		</g>
	</g>
	<circle fill="#454746" cx="365.581" cy="214.459" r="8"/>
	<g>
		<g>
			<path fill="none" stroke="#454746" stroke-width="1.6" stroke-linecap="round" stroke-miterlimit="10" d="M439.24,231.454
				c9.99-19.166,14.962-39.414,17.175-58.862"/>
			<g>
				<path fill="#454746" d="M435.481,238.206c2.934-2.535,7.124-5.377,10.607-6.651l-6.395-1.005l-4.271-4.863
					C436.21,229.311,436.052,234.372,435.481,238.206z"/>
			</g>
		</g>
	</g>
	<circle fill="#454746" cx="449.947" cy="204.257" r="8"/>
	<g>
		<path fill="#FFFFFF" d="M447.614,206.289c0.346,0.179,1.139,0.512,1.933,0.512c1.012,0,1.523-0.486,1.523-1.114
			c0-0.819-0.819-1.19-1.677-1.19H448.6v-1.396h0.755c0.653-0.013,1.485-0.256,1.485-0.96c0-0.5-0.409-0.871-1.229-0.871
			c-0.679,0-1.396,0.294-1.741,0.499l-0.397-1.408c0.5-0.32,1.498-0.627,2.573-0.627c1.78,0,2.766,0.935,2.766,2.074
			c0,0.883-0.499,1.575-1.523,1.933v0.025c0.998,0.179,1.805,0.935,1.805,2.023c0,1.472-1.293,2.547-3.405,2.547
			c-1.075,0-1.984-0.281-2.471-0.589L447.614,206.289z"/>
	</g>
	<g>
		<path fill="#454746" d="M79.458,108.471v-8.628h2.279l1.792,3.162c0.512,0.909,1.024,1.984,1.408,2.957h0.038
			c-0.128-1.139-0.166-2.304-0.166-3.597v-2.522h1.792v8.628h-2.048l-1.844-3.329c-0.512-0.922-1.075-2.036-1.498-3.047
			l-0.038,0.013c0.051,1.14,0.077,2.356,0.077,3.764v2.599H79.458z"/>
		<path fill="#454746" d="M96.189,104.067c0,2.829-1.716,4.544-4.238,4.544c-2.56,0-4.058-1.933-4.058-4.391
			c0-2.586,1.651-4.519,4.199-4.519C94.742,99.702,96.189,101.686,96.189,104.067z M89.954,104.183c0,1.69,0.794,2.88,2.1,2.88
			c1.319,0,2.074-1.255,2.074-2.932c0-1.549-0.742-2.88-2.087-2.88C90.723,101.251,89.954,102.505,89.954,104.183z"/>
		<path fill="#454746" d="M97.468,99.958c0.717-0.115,1.651-0.18,2.638-0.18c1.639,0,2.701,0.294,3.533,0.922
			c0.896,0.666,1.459,1.729,1.459,3.252c0,1.651-0.602,2.791-1.434,3.495c-0.909,0.755-2.291,1.114-3.981,1.114
			c-1.011,0-1.729-0.064-2.215-0.128V99.958z M99.427,106.999c0.166,0.039,0.436,0.039,0.679,0.039
			c1.767,0.013,2.919-0.96,2.919-3.021c0.013-1.792-1.037-2.74-2.714-2.74c-0.436,0-0.718,0.039-0.884,0.077V106.999z"/>
		<path fill="#454746" d="M111.51,104.823h-3.175v2.048h3.546v1.6h-5.505v-8.628h5.326v1.6h-3.367v1.792h3.175V104.823z"/>
		<path fill="#454746" d="M117.974,101.878h-0.025l-1.588,0.755l-0.32-1.459l2.202-1.024h1.613v8.321h-1.882V101.878z"/>
		<path fill="#454746" d="M128.38,104.464v1.293h-3.354v-1.293H128.38z"/>
		<path fill="#454746" d="M152.419,105.168c-0.039-1.037-0.077-2.292-0.077-3.546h-0.038c-0.27,1.101-0.628,2.33-0.961,3.341
			l-1.05,3.367h-1.523l-0.921-3.342c-0.282-1.011-0.576-2.24-0.781-3.367h-0.025c-0.052,1.165-0.09,2.497-0.154,3.572l-0.153,3.277
			h-1.805l0.55-8.628h2.599l0.846,2.88c0.269,0.999,0.537,2.074,0.729,3.085h0.038c0.243-0.999,0.538-2.138,0.819-3.098l0.922-2.868
			h2.548l0.474,8.628h-1.907L152.419,105.168z"/>
		<path fill="#454746" d="M157.921,106.256l-0.614,2.215h-2.022l2.637-8.628h2.561l2.676,8.628h-2.1l-0.665-2.215H157.921z
			 M160.11,104.797l-0.538-1.831c-0.153-0.512-0.307-1.152-0.435-1.664h-0.025c-0.129,0.512-0.257,1.165-0.397,1.664l-0.512,1.831
			H160.11z"/>
		<path fill="#454746" d="M164.372,106.461c0.524,0.269,1.331,0.538,2.163,0.538c0.896,0,1.37-0.372,1.37-0.935
			c0-0.538-0.41-0.845-1.446-1.216c-1.435-0.499-2.369-1.293-2.369-2.547c0-1.473,1.229-2.599,3.265-2.599
			c0.974,0,1.69,0.205,2.202,0.436l-0.436,1.574c-0.346-0.166-0.96-0.409-1.805-0.409s-1.255,0.384-1.255,0.832
			c0,0.55,0.486,0.793,1.601,1.216c1.523,0.563,2.24,1.357,2.24,2.573c0,1.447-1.113,2.676-3.482,2.676
			c-0.985,0-1.958-0.256-2.445-0.525L164.372,106.461z"/>
		<path fill="#454746" d="M172.884,101.481h-2.316v-1.639h6.631v1.639h-2.355v6.99h-1.959V101.481z"/>
		<path fill="#454746" d="M183.368,104.823h-3.175v2.048h3.546v1.6h-5.505v-8.628h5.326v1.6h-3.367v1.792h3.175V104.823z"/>
		<path fill="#454746" d="M185.069,99.958c0.628-0.103,1.562-0.18,2.599-0.18c1.28,0,2.177,0.192,2.791,0.679
			c0.513,0.41,0.794,1.011,0.794,1.805c0,1.101-0.781,1.856-1.523,2.125v0.039c0.602,0.243,0.935,0.819,1.152,1.613
			c0.269,0.973,0.537,2.1,0.704,2.433h-1.997c-0.141-0.243-0.346-0.947-0.602-2.01c-0.23-1.076-0.602-1.37-1.396-1.383h-0.589v3.393
			h-1.934V99.958z M187.003,103.67h0.768c0.974,0,1.55-0.486,1.55-1.242c0-0.794-0.538-1.191-1.435-1.204
			c-0.474,0-0.742,0.039-0.883,0.064V103.67z"/>
	</g>
	<polygon fill="#75B640" points="137.747,98.328 139.339,101.555 142.901,102.072 140.324,104.584 140.932,108.132 137.747,106.457 
		134.561,108.132 135.17,104.584 132.592,102.072 136.154,101.555 	"/>
	<path fill="#75B640" d="M41.378,191.406H22.729c-1.811,0-3.28-1.468-3.28-3.28V66.387c0-1.811,1.468-3.28,3.28-3.28h18.649V191.406
		z"/>
	<g>
		<path fill="#FFFFFF" d="M34.97,145.494c0.179,0.358,0.371,1.165,0.371,2.215c0,2.983-1.856,4.519-4.314,4.519
			c-2.944,0-4.583-2.1-4.583-4.711c0-1.011,0.205-1.78,0.384-2.125l1.55,0.396c-0.167,0.397-0.32,0.948-0.32,1.639
			c0,1.549,0.935,2.752,2.854,2.752c1.729,0,2.816-1.024,2.816-2.765c0-0.589-0.128-1.242-0.281-1.626L34.97,145.494z"/>
		<path fill="#FFFFFF" d="M26.584,144.215v-1.959h6.99v-3.431h1.639v5.39H26.584z"/>
		<path fill="#FFFFFF" d="M26.584,136.125h4.968c1.484,0,2.24-0.563,2.24-1.562c0-1.024-0.717-1.587-2.24-1.587h-4.968v-1.946h4.84
			c2.662,0,3.93,1.344,3.93,3.598c0,2.176-1.203,3.457-3.956,3.457h-4.813V136.125z"/>
		<path fill="#FFFFFF" d="M33.204,129.277c0.269-0.525,0.537-1.331,0.537-2.164c0-0.896-0.371-1.37-0.935-1.37
			c-0.537,0-0.845,0.41-1.216,1.447c-0.499,1.434-1.293,2.368-2.548,2.368c-1.472,0-2.599-1.229-2.599-3.265
			c0-0.973,0.205-1.689,0.436-2.202l1.574,0.435c-0.166,0.346-0.409,0.96-0.409,1.805c0,0.845,0.384,1.255,0.832,1.255
			c0.551,0,0.794-0.487,1.216-1.601c0.563-1.523,1.357-2.24,2.573-2.24c1.447,0,2.676,1.114,2.676,3.482
			c0,0.986-0.256,1.959-0.524,2.445L33.204,129.277z"/>
		<path fill="#FFFFFF" d="M28.223,120.765v2.317h-1.639v-6.632h1.639v2.356h6.99v1.958H28.223z"/>
		<path fill="#FFFFFF" d="M31.565,110.282v3.175h2.048v-3.546h1.601v5.505h-8.629v-5.326h1.601v3.367h1.792v-3.175H31.565z"/>
		<path fill="#FFFFFF" d="M26.7,108.581c-0.103-0.627-0.179-1.562-0.179-2.599c0-1.28,0.191-2.176,0.679-2.791
			c0.409-0.512,1.011-0.793,1.805-0.793c1.101,0,1.856,0.781,2.125,1.523h0.038c0.244-0.602,0.819-0.935,1.613-1.152
			c0.974-0.269,2.1-0.538,2.433-0.704v1.997c-0.243,0.141-0.947,0.346-2.01,0.602c-1.075,0.23-1.37,0.602-1.383,1.395v0.589h3.393
			v1.933H26.7z M30.413,106.647v-0.769c0-0.973-0.486-1.549-1.242-1.549c-0.793,0-1.19,0.538-1.203,1.434
			c0,0.474,0.038,0.743,0.064,0.884H30.413z"/>
	</g>
	<g>
		<path fill="#FFFFFF" d="M365.117,212.228h-0.025l-1.588,0.755l-0.32-1.459l2.202-1.024h1.613v8.321h-1.882V212.228z"/>
	</g>
	<g>
		<g>
			<path fill="none" stroke="#454746" stroke-width="1.6" stroke-linecap="round" stroke-miterlimit="10" d="M433.138,72.898
				C423.745-1.254,277.272,3.91,188.831,123.895"/>
			<g>
				<path fill="#454746" d="M433.614,80.607c1.091-3.72,3.071-8.38,5.307-11.34l-5.918,2.622l-6.225-1.771
					C429.404,72.737,432.015,77.075,433.614,80.607z"/>
			</g>
		</g>
	</g>
	<path fill="none" stroke="#454746" stroke-width="1.6" stroke-linecap="round" stroke-miterlimit="10" d="M335.537,26.41
		c-51.04,12.697-75.213,35.661-73.54,85.864"/>
	<circle fill="#454746" cx="362.165" cy="24.058" r="8"/>
	<g>
		<path fill="#FFFFFF" d="M359.217,27.998V26.82l1.075-0.973c1.817-1.626,2.701-2.56,2.727-3.533c0-0.679-0.409-1.216-1.37-1.216
			c-0.717,0-1.344,0.358-1.779,0.691l-0.551-1.396c0.628-0.474,1.601-0.858,2.728-0.858c1.882,0,2.919,1.101,2.919,2.612
			c0,1.396-1.012,2.509-2.215,3.584l-0.769,0.64v0.026h3.137v1.6H359.217z"/>
	</g>
</g>
</svg>
