<?xml version="1.0" encoding="UTF-8" standalone="no"?>
<!-- Generator: Adobe Illustrator 18.0.0, SVG Export Plug-In . SVG Version: 6.00 Build 0)  -->

<svg
   xmlns:dc="http://purl.org/dc/elements/1.1/"
   xmlns:cc="http://creativecommons.org/ns#"
   xmlns:rdf="http://www.w3.org/1999/02/22-rdf-syntax-ns#"
   xmlns:svg="http://www.w3.org/2000/svg"
   xmlns="http://www.w3.org/2000/svg"
   xmlns:sodipodi="http://sodipodi.sourceforge.net/DTD/sodipodi-0.dtd"
   xmlns:inkscape="http://www.inkscape.org/namespaces/inkscape"
   version="1.1"
   id="Layer_1"
   x="0px"
   y="0px"
   viewBox="0 0 530 350"
   enable-background="new 0 0 1280 800"
   xml:space="preserve"
   inkscape:version="0.48.2 r9819"
   width="100%"
   height="100%"
   sodipodi:docname="graph_2.1.svg"><metadata
   id="metadata287"><rdf:RDF><cc:Work
       rdf:about=""><dc:format>image/svg+xml</dc:format><dc:type
         rdf:resource="http://purl.org/dc/dcmitype/StillImage" /><dc:title></dc:title></cc:Work></rdf:RDF></metadata><defs
   id="defs285" /><sodipodi:namedview
   pagecolor="#ffffff"
   bordercolor="#666666"
   borderopacity="1"
   objecttolerance="10"
   gridtolerance="10"
   guidetolerance="10"
   inkscape:pageopacity="0"
   inkscape:pageshadow="2"
   inkscape:window-width="640"
   inkscape:window-height="480"
   id="namedview283"
   showgrid="false"
   fit-margin-top="0"
   fit-margin-left="0"
   fit-margin-right="0"
   fit-margin-bottom="0"
   inkscape:zoom="0.275"
   inkscape:cx="265.6"
   inkscape:cy="174.5"
   inkscape:window-x="0"
   inkscape:window-y="0"
   inkscape:window-maximized="0"
   inkscape:current-layer="Layer_1" />
<path
   d="M 527,350 H 3 c -1.7,0 -3,-1.3 -3,-3 V 3 C 0,1.4 1.3,0 3,0 h 524 c 1.7,0 3,1.4 3,3 v 344 c 0,1.6 -1.3,3 -3,3 z"
   id="path3"
   inkscape:connector-curvature="0"
   style="fill:#f8faf6" />
<g
   id="g5"
   transform="translate(-374.4,-224.5)">
	<path
   d="m 519.7,270.1 c -0.5,0.2 -1.5,0.5 -2.8,0.5 -3.4,0 -5.5,-2.1 -5.5,-5.4 0,-3.6 2.5,-5.7 5.8,-5.7 1.3,0 2.2,0.3 2.6,0.5 l -0.4,1.6 c -0.5,-0.2 -1.2,-0.4 -2.1,-0.4 -2.2,0 -3.8,1.4 -3.8,4 0,2.4 1.4,3.9 3.8,3.9 0.8,0 1.6,-0.2 2.1,-0.4 l 0.3,1.4 z"
   id="path7"
   inkscape:connector-curvature="0"
   style="fill:#454746" />
	<path
   d="m 528.5,266.5 c 0,2.9 -2,4.1 -4,4.1 -2.2,0 -3.9,-1.5 -3.9,-4 0,-2.6 1.7,-4.1 4,-4.1 2.3,0 3.9,1.6 3.9,4 z m -5.9,0.1 c 0,1.5 0.7,2.6 1.9,2.6 1.1,0 1.9,-1.1 1.9,-2.7 0,-1.2 -0.5,-2.6 -1.9,-2.6 -1.3,0 -1.9,1.4 -1.9,2.7 z"
   id="path9"
   inkscape:connector-curvature="0"
   style="fill:#454746" />
	<path
   d="m 530.1,265 c 0,-0.9 0,-1.6 -0.1,-2.3 h 1.7 l 0.1,1.2 h 0 c 0.4,-0.6 1.1,-1.3 2.4,-1.3 1,0 1.8,0.6 2.2,1.4 h 0 c 0.3,-0.4 0.6,-0.8 1,-1 0.4,-0.3 0.9,-0.5 1.6,-0.5 1.3,0 2.6,0.9 2.6,3.4 v 4.6 h -1.9 v -4.3 c 0,-1.3 -0.4,-2.1 -1.4,-2.1 -0.7,0 -1.2,0.5 -1.4,1 0,0.2 -0.1,0.4 -0.1,0.7 v 4.7 h -1.9 V 266 c 0,-1.1 -0.4,-1.9 -1.3,-1.9 -0.7,0 -1.2,0.6 -1.4,1.1 -0.1,0.2 -0.1,0.4 -0.1,0.6 v 4.6 h -1.9 V 265 z"
   id="path11"
   inkscape:connector-curvature="0"
   style="fill:#454746" />
	<path
   d="m 543.7,265 c 0,-0.9 0,-1.6 -0.1,-2.3 h 1.7 l 0.1,1.2 h 0 c 0.4,-0.6 1.1,-1.3 2.4,-1.3 1,0 1.8,0.6 2.2,1.4 h 0 c 0.3,-0.4 0.6,-0.8 1,-1 0.4,-0.3 0.9,-0.5 1.6,-0.5 1.3,0 2.6,0.9 2.6,3.4 v 4.6 h -1.9 v -4.3 c 0,-1.3 -0.4,-2.1 -1.4,-2.1 -0.7,0 -1.2,0.5 -1.4,1 0,0.2 -0.1,0.4 -0.1,0.7 v 4.7 h -1.9 V 266 c 0,-1.1 -0.4,-1.9 -1.3,-1.9 -0.7,0 -1.2,0.6 -1.4,1.1 -0.1,0.2 -0.1,0.4 -0.1,0.6 v 4.6 h -1.9 V 265 z"
   id="path13"
   inkscape:connector-curvature="0"
   style="fill:#454746" />
	<path
   d="m 559.3,260.5 c 0,0.6 -0.4,1.1 -1.1,1.1 -0.7,0 -1.1,-0.5 -1.1,-1.1 0,-0.6 0.4,-1.1 1.1,-1.1 0.7,0 1.1,0.5 1.1,1.1 z m -2.1,10 v -7.8 h 2 v 7.8 h -2 z"
   id="path15"
   inkscape:connector-curvature="0"
   style="fill:#454746" />
	<path
   d="m 563.6,260.4 v 2.2 h 1.9 v 1.5 h -1.9 v 3.4 c 0,0.9 0.3,1.4 1,1.4 0.3,0 0.6,0 0.8,-0.1 l 0,1.5 c -0.3,0.1 -0.8,0.2 -1.4,0.2 -0.7,0 -1.3,-0.2 -1.7,-0.6 -0.4,-0.4 -0.6,-1.2 -0.6,-2.2 V 264 h -1.1 v -1.5 h 1.1 v -1.8 l 1.9,-0.3 z"
   id="path17"
   inkscape:connector-curvature="0"
   style="fill:#454746" />
	<path
   d="m 570.3,265.3 c 0,-1 0,-1.9 -0.1,-2.6 h 1.7 l 0.1,1.2 h 0 c 0.6,-0.9 1.5,-1.4 2.7,-1.4 1.8,0 3.3,1.5 3.3,4 0,2.8 -1.8,4.2 -3.6,4.2 -1,0 -1.8,-0.4 -2.2,-1 h 0 v 4 h -2 v -8.4 z m 1.9,1.9 c 0,0.2 0,0.4 0.1,0.5 0.2,0.8 0.9,1.4 1.7,1.4 1.2,0 2,-1 2,-2.6 0,-1.4 -0.7,-2.5 -1.9,-2.5 -0.8,0 -1.6,0.6 -1.8,1.5 0,0.2 -0.1,0.3 -0.1,0.5 v 1.2 z"
   id="path19"
   inkscape:connector-curvature="0"
   style="fill:#454746" />
	<path
   d="m 587,266.5 c 0,2.9 -2,4.1 -4,4.1 -2.2,0 -3.9,-1.5 -3.9,-4 0,-2.6 1.7,-4.1 4,-4.1 2.4,0 3.9,1.6 3.9,4 z m -5.9,0.1 c 0,1.5 0.7,2.6 1.9,2.6 1.1,0 1.9,-1.1 1.9,-2.7 0,-1.2 -0.5,-2.6 -1.9,-2.6 -1.3,0 -1.9,1.4 -1.9,2.7 z"
   id="path21"
   inkscape:connector-curvature="0"
   style="fill:#454746" />
	<path
   d="m 590.7,260.5 c 0,0.6 -0.4,1.1 -1.1,1.1 -0.7,0 -1.1,-0.5 -1.1,-1.1 0,-0.6 0.4,-1.1 1.1,-1.1 0.7,0 1.1,0.5 1.1,1.1 z m -2.1,10 v -7.8 h 2 v 7.8 h -2 z"
   id="path23"
   inkscape:connector-curvature="0"
   style="fill:#454746" />
	<path
   d="m 592.7,265 c 0,-0.9 0,-1.6 -0.1,-2.3 h 1.7 l 0.1,1.2 h 0 c 0.3,-0.6 1.2,-1.3 2.5,-1.3 1.4,0 2.8,0.9 2.8,3.3 v 4.6 h -2 v -4.4 c 0,-1.1 -0.4,-2 -1.5,-2 -0.8,0 -1.3,0.6 -1.5,1.2 -0.1,0.2 -0.1,0.4 -0.1,0.6 v 4.6 h -2 V 265 z"
   id="path25"
   inkscape:connector-curvature="0"
   style="fill:#454746" />
	<path
   d="m 604.1,260.4 v 2.2 h 1.9 v 1.5 h -1.9 v 3.4 c 0,0.9 0.3,1.4 1,1.4 0.3,0 0.6,0 0.8,-0.1 l 0,1.5 c -0.3,0.1 -0.8,0.2 -1.4,0.2 -0.7,0 -1.3,-0.2 -1.7,-0.6 -0.4,-0.4 -0.6,-1.2 -0.6,-2.2 V 264 H 601 v -1.5 h 1.1 v -1.8 l 2,-0.3 z"
   id="path27"
   inkscape:connector-curvature="0"
   style="fill:#454746" />
</g>
<g
   id="g29"
   transform="translate(-374.4,-224.5)">
	<path
   d="m 450.6,526.1 v 10.8 h -2 v -10.8 h 2 z"
   id="path31"
   inkscape:connector-curvature="0"
   style="fill:#454746" />
	<path
   d="m 452.9,531.4 c 0,-0.9 0,-1.6 -0.1,-2.3 h 1.7 l 0.1,1.2 h 0 c 0.3,-0.6 1.2,-1.3 2.5,-1.3 1.4,0 2.8,0.9 2.8,3.3 v 4.6 h -2 v -4.4 c 0,-1.1 -0.4,-2 -1.5,-2 -0.8,0 -1.3,0.6 -1.5,1.2 -0.1,0.2 -0.1,0.4 -0.1,0.6 v 4.6 h -2 v -5.5 z"
   id="path33"
   inkscape:connector-curvature="0"
   style="fill:#454746" />
	<path
   d="m 465.6,532 v 1.4 h -4.1 V 532 h 4.1 z"
   id="path35"
   inkscape:connector-curvature="0"
   style="fill:#454746" />
	<path
   d="m 467.1,531.4 c 0,-0.9 0,-1.6 -0.1,-2.3 h 1.7 l 0.1,1.2 h 0 c 0.4,-0.6 1.1,-1.3 2.4,-1.3 1,0 1.8,0.6 2.2,1.4 h 0 c 0.3,-0.4 0.6,-0.8 1,-1 0.4,-0.3 0.9,-0.5 1.6,-0.5 1.3,0 2.6,0.9 2.6,3.4 v 4.6 h -1.9 v -4.3 c 0,-1.3 -0.4,-2.1 -1.4,-2.1 -0.7,0 -1.2,0.5 -1.4,1 0,0.2 -0.1,0.4 -0.1,0.7 v 4.7 h -1.9 v -4.5 c 0,-1.1 -0.4,-1.9 -1.3,-1.9 -0.7,0 -1.2,0.6 -1.4,1.1 -0.1,0.2 -0.1,0.4 -0.1,0.6 v 4.6 h -1.9 v -5.4 z"
   id="path37"
   inkscape:connector-curvature="0"
   style="fill:#454746" />
	<path
   d="m 482.1,533.6 c 0,1.4 1.2,2 2.4,2 0.9,0 1.6,-0.1 2.2,-0.4 l 0.3,1.4 c -0.7,0.3 -1.6,0.5 -2.7,0.5 -2.5,0 -4,-1.6 -4,-3.9 0,-2.2 1.3,-4.2 3.8,-4.2 2.5,0 3.4,2.1 3.4,3.8 0,0.4 0,0.7 -0.1,0.8 h -5.3 z m 3.4,-1.4 c 0,-0.7 -0.3,-1.9 -1.6,-1.9 -1.2,0 -1.7,1.1 -1.8,1.9 h 3.4 z"
   id="path39"
   inkscape:connector-curvature="0"
   style="fill:#454746" />
	<path
   d="m 488.9,531.4 c 0,-0.9 0,-1.6 -0.1,-2.3 h 1.7 l 0.1,1.2 h 0 c 0.4,-0.6 1.1,-1.3 2.4,-1.3 1,0 1.8,0.6 2.2,1.4 h 0 c 0.3,-0.4 0.6,-0.8 1,-1 0.4,-0.3 0.9,-0.5 1.6,-0.5 1.3,0 2.6,0.9 2.6,3.4 v 4.6 h -1.9 v -4.3 c 0,-1.3 -0.4,-2.1 -1.4,-2.1 -0.7,0 -1.2,0.5 -1.4,1 0,0.2 -0.1,0.4 -0.1,0.7 v 4.7 h -1.9 v -4.5 c 0,-1.1 -0.4,-1.9 -1.3,-1.9 -0.7,0 -1.2,0.6 -1.4,1.1 -0.1,0.2 -0.1,0.4 -0.1,0.6 v 4.6 H 489 v -5.4 z"
   id="path41"
   inkscape:connector-curvature="0"
   style="fill:#454746" />
	<path
   d="m 509.9,532.9 c 0,2.9 -2,4.1 -4,4.1 -2.2,0 -3.9,-1.5 -3.9,-4 0,-2.6 1.7,-4.1 4,-4.1 2.4,0 3.9,1.7 3.9,4 z M 504,533 c 0,1.5 0.7,2.6 1.9,2.6 1.1,0 1.9,-1.1 1.9,-2.7 0,-1.2 -0.5,-2.6 -1.9,-2.6 -1.3,0.1 -1.9,1.4 -1.9,2.7 z"
   id="path43"
   inkscape:connector-curvature="0"
   style="fill:#454746" />
	<path
   d="m 511.5,531.6 c 0,-1.1 0,-1.8 -0.1,-2.5 h 1.7 l 0.1,1.5 h 0.1 c 0.4,-1.1 1.3,-1.7 2.1,-1.7 0.2,0 0.3,0 0.5,0 v 1.9 c -0.2,0 -0.3,-0.1 -0.6,-0.1 -0.9,0 -1.6,0.6 -1.8,1.5 0,0.2 -0.1,0.4 -0.1,0.6 v 4 h -2 v -5.2 z"
   id="path45"
   inkscape:connector-curvature="0"
   style="fill:#454746" />
	<path
   d="m 518.8,529.1 1.4,4.2 c 0.2,0.5 0.3,1.1 0.4,1.5 h 0 c 0.1,-0.4 0.3,-1 0.4,-1.5 l 1.2,-4.2 h 2.1 l -2,5.3 c -1.1,2.9 -1.8,4.2 -2.7,5 -0.8,0.7 -1.6,0.9 -2.1,1 l -0.4,-1.7 c 0.3,-0.1 0.8,-0.3 1.2,-0.5 0.4,-0.2 0.8,-0.7 1.1,-1.2 0.1,-0.1 0.1,-0.3 0.1,-0.4 0,-0.1 0,-0.2 -0.1,-0.4 l -2.8,-7.2 h 2.2 z"
   id="path47"
   inkscape:connector-curvature="0"
   style="fill:#454746" />
	<path
   d="m 528.8,536.9 c 0,-0.5 0.1,-1.4 0.1,-2.2 v -9.2 h 2 v 4.6 h 0 c 0.5,-0.8 1.3,-1.2 2.5,-1.2 1.9,0 3.3,1.6 3.2,4 0,2.8 -1.8,4.2 -3.5,4.2 -1,0 -1.9,-0.4 -2.5,-1.3 h 0 l -0.1,1.2 h -1.7 z m 2,-3.2 c 0,0.2 0,0.3 0,0.5 0.2,0.8 0.9,1.4 1.7,1.4 1.2,0 2,-1 2,-2.6 0,-1.4 -0.7,-2.5 -2,-2.5 -0.8,0 -1.5,0.6 -1.7,1.4 0,0.1 -0.1,0.3 -0.1,0.5 v 1.3 z"
   id="path49"
   inkscape:connector-curvature="0"
   style="fill:#454746" />
	<path
   d="m 545.2,534.6 c 0,0.9 0,1.7 0.1,2.3 h -1.7 l -0.1,-1.2 h 0 c -0.3,0.6 -1.1,1.4 -2.5,1.4 -1.4,0 -2.7,-0.8 -2.7,-3.4 v -4.6 h 2 v 4.2 c 0,1.3 0.4,2.1 1.5,2.1 0.8,0 1.3,-0.6 1.5,-1.1 0.1,-0.2 0.1,-0.4 0.1,-0.6 V 529 h 2 v 5.6 z"
   id="path51"
   inkscape:connector-curvature="0"
   style="fill:#454746" />
	<path
   d="m 552.4,536.9 v -6.3 h -2.8 v 6.3 h -2 v -6.3 h -1.1 v -1.5 h 1.1 v -0.2 c 0,-1 0.2,-1.9 0.9,-2.6 0.5,-0.5 1.2,-0.8 2.2,-0.8 0.4,0 0.8,0.1 1.1,0.2 l -0.3,1.5 c -0.2,-0.1 -0.4,-0.1 -0.7,-0.1 -0.9,0 -1.2,0.8 -1.2,1.7 v 0.3 h 2.8 v -0.3 c 0,-1 0.3,-2 1,-2.7 0.6,-0.5 1.3,-0.8 2,-0.8 0.5,0 0.9,0.1 1.2,0.2 l -0.1,1.5 c -0.2,-0.1 -0.5,-0.1 -0.8,-0.1 -1,0 -1.3,0.8 -1.3,1.8 v 0.4 h 1.7 v 1.5 h -1.7 v 6.3 h -2 z"
   id="path53"
   inkscape:connector-curvature="0"
   style="fill:#454746" />
	<path
   d="m 558.5,533.6 c 0,1.4 1.2,2 2.4,2 0.9,0 1.6,-0.1 2.2,-0.4 l 0.3,1.4 c -0.7,0.3 -1.6,0.5 -2.7,0.5 -2.5,0 -4,-1.6 -4,-3.9 0,-2.2 1.3,-4.2 3.8,-4.2 2.5,0 3.4,2.1 3.4,3.8 0,0.4 0,0.7 -0.1,0.8 h -5.3 z m 3.4,-1.4 c 0,-0.7 -0.3,-1.9 -1.6,-1.9 -1.2,0 -1.7,1.1 -1.8,1.9 h 3.4 z"
   id="path55"
   inkscape:connector-curvature="0"
   style="fill:#454746" />
	<path
   d="m 565.3,531.6 c 0,-1.1 0,-1.8 -0.1,-2.5 h 1.7 l 0.1,1.5 h 0.1 c 0.4,-1.1 1.3,-1.7 2.1,-1.7 0.2,0 0.3,0 0.5,0 v 1.9 c -0.2,0 -0.3,-0.1 -0.6,-0.1 -0.9,0 -1.6,0.6 -1.8,1.5 0,0.2 -0.1,0.4 -0.1,0.6 v 4 h -2 v -5.2 z"
   id="path57"
   inkscape:connector-curvature="0"
   style="fill:#454746" />
</g>
<g
   id="g59"
   transform="translate(-374.4,-224.5)">
	<path
   d="m 521.4,430.7 c 0.6,0.4 1.6,0.7 2.6,0.7 1.3,0 2,-0.6 2,-1.5 0,-0.8 -0.5,-1.3 -1.9,-1.8 -1.8,-0.6 -2.9,-1.6 -2.9,-3.1 0,-1.8 1.5,-3.1 3.8,-3.1 1.2,0 2,0.3 2.6,0.5 l -0.5,1.6 c -0.4,-0.2 -1.1,-0.5 -2.1,-0.5 -1.2,0 -1.8,0.7 -1.8,1.3 0,0.8 0.6,1.2 2.1,1.8 1.9,0.7 2.8,1.6 2.8,3.2 0,1.7 -1.3,3.2 -4.1,3.2 -1.1,0 -2.3,-0.3 -2.9,-0.7 l 0.3,-1.6 z"
   id="path61"
   inkscape:connector-curvature="0"
   style="fill:#454746" />
	<path
   d="m 531.2,429.5 c 0,1.4 1.2,2 2.4,2 0.9,0 1.6,-0.1 2.2,-0.4 l 0.3,1.4 c -0.7,0.3 -1.6,0.5 -2.7,0.5 -2.5,0 -4,-1.6 -4,-3.9 0,-2.2 1.3,-4.2 3.8,-4.2 2.5,0 3.4,2.1 3.4,3.8 0,0.4 0,0.7 -0.1,0.8 h -5.3 z m 3.4,-1.3 c 0,-0.7 -0.3,-1.9 -1.6,-1.9 -1.2,0 -1.7,1.1 -1.8,1.9 h 3.4 z"
   id="path63"
   inkscape:connector-curvature="0"
   style="fill:#454746" />
	<path
   d="m 542.4,432.9 -0.1,-0.9 h 0 c -0.5,0.6 -1.3,1 -2.3,1 -1.6,0 -2.4,-1.1 -2.4,-2.3 0,-2 1.7,-3 4.6,-2.9 v -0.1 c 0,-0.5 -0.2,-1.4 -1.6,-1.4 -0.8,0 -1.6,0.2 -2.1,0.6 l -0.4,-1.3 c 0.6,-0.4 1.6,-0.7 2.8,-0.7 2.5,0 3.2,1.6 3.2,3.3 v 2.8 c 0,0.7 0,1.4 0.1,1.9 h -1.8 z m -0.2,-3.8 c -1.4,0 -2.7,0.3 -2.7,1.5 0,0.8 0.5,1.1 1.1,1.1 0.8,0 1.4,-0.5 1.5,-1.1 0,-0.1 0.1,-0.3 0.1,-0.4 v -1.1 z"
   id="path65"
   inkscape:connector-curvature="0"
   style="fill:#454746" />
	<path
   d="m 546.2,427.6 c 0,-1.1 0,-1.8 -0.1,-2.5 h 1.7 l 0.1,1.5 h 0.1 c 0.4,-1.1 1.3,-1.7 2.1,-1.7 0.2,0 0.3,0 0.5,0 v 1.9 c -0.2,0 -0.3,-0.1 -0.6,-0.1 -0.9,0 -1.6,0.6 -1.8,1.5 0,0.2 -0.1,0.4 -0.1,0.6 v 4 h -2 v -5.2 z"
   id="path67"
   inkscape:connector-curvature="0"
   style="fill:#454746" />
	<path
   d="m 557.5,432.6 c -0.4,0.2 -1.2,0.4 -2.2,0.4 -2.4,0 -4,-1.6 -4,-4 0,-2.3 1.6,-4.2 4.3,-4.2 0.7,0 1.5,0.2 1.9,0.4 l -0.4,1.5 c -0.3,-0.1 -0.8,-0.3 -1.5,-0.3 -1.5,0 -2.4,1.1 -2.4,2.5 0,1.6 1,2.5 2.4,2.5 0.7,0 1.2,-0.1 1.6,-0.3 l 0.3,1.5 z"
   id="path69"
   inkscape:connector-curvature="0"
   style="fill:#454746" />
	<path
   d="m 558.9,421.5 h 2 v 4.6 h 0 c 0.2,-0.4 0.6,-0.7 1,-0.9 0.4,-0.2 0.8,-0.4 1.3,-0.4 1.3,0 2.7,0.9 2.7,3.4 v 4.6 h -2 v -4.4 c 0,-1.1 -0.4,-2 -1.5,-2 -0.8,0 -1.3,0.5 -1.5,1.1 -0.1,0.2 -0.1,0.4 -0.1,0.6 v 4.7 h -2 v -11.3 z"
   id="path71"
   inkscape:connector-curvature="0"
   style="fill:#454746" />
	<path
   d="m 572.5,432.9 -0.1,-0.9 h 0 c -0.5,0.6 -1.3,1 -2.3,1 -1.6,0 -2.4,-1.1 -2.4,-2.3 0,-2 1.7,-3 4.6,-2.9 v -0.1 c 0,-0.5 -0.2,-1.4 -1.6,-1.4 -0.8,0 -1.6,0.2 -2.1,0.6 l -0.4,-1.3 c 0.6,-0.4 1.6,-0.7 2.8,-0.7 2.5,0 3.2,1.6 3.2,3.3 v 2.8 c 0,0.7 0,1.4 0.1,1.9 h -1.8 z m -0.3,-3.8 c -1.4,0 -2.7,0.3 -2.7,1.5 0,0.8 0.5,1.1 1.1,1.1 0.8,0 1.4,-0.5 1.5,-1.1 0,-0.1 0.1,-0.3 0.1,-0.4 v -1.1 z"
   id="path73"
   inkscape:connector-curvature="0"
   style="fill:#454746" />
	<path
   d="m 576.1,432.9 c 0,-0.5 0.1,-1.4 0.1,-2.2 v -9.2 h 2 v 4.6 h 0 c 0.5,-0.8 1.3,-1.2 2.5,-1.2 1.9,0 3.3,1.6 3.2,4 0,2.8 -1.8,4.2 -3.5,4.2 -1,0 -1.9,-0.4 -2.5,-1.3 h 0 l -0.1,1.2 h -1.7 z m 2.1,-3.2 c 0,0.2 0,0.3 0,0.5 0.2,0.8 0.9,1.4 1.7,1.4 1.2,0 2,-1 2,-2.6 0,-1.4 -0.7,-2.5 -2,-2.5 -0.8,0 -1.5,0.6 -1.7,1.4 0,0.1 -0.1,0.3 -0.1,0.5 v 1.3 z"
   id="path75"
   inkscape:connector-curvature="0"
   style="fill:#454746" />
	<path
   d="m 585.6,421.5 h 2 v 11.4 h -2 v -11.4 z"
   id="path77"
   inkscape:connector-curvature="0"
   style="fill:#454746" />
	<path
   d="m 591.1,429.5 c 0,1.4 1.2,2 2.4,2 0.9,0 1.6,-0.1 2.2,-0.4 l 0.3,1.4 c -0.7,0.3 -1.6,0.5 -2.7,0.5 -2.5,0 -4,-1.6 -4,-3.9 0,-2.2 1.3,-4.2 3.8,-4.2 2.5,0 3.4,2.1 3.4,3.8 0,0.4 0,0.7 -0.1,0.8 h -5.3 z m 3.4,-1.3 c 0,-0.7 -0.3,-1.9 -1.6,-1.9 -1.2,0 -1.7,1.1 -1.8,1.9 h 3.4 z"
   id="path79"
   inkscape:connector-curvature="0"
   style="fill:#454746" />
</g>
<g
   id="g81"
   transform="translate(-374.4,-224.5)">
	<g
   id="g83">
		<path
   stroke-miterlimit="10"
   d="m 558.3,282.2 c -14.3,18 -71.7,-0.3 -78.9,33.6"
   id="path85"
   inkscape:connector-curvature="0"
   style="fill:none;stroke:#454746;stroke-width:1.60000002;stroke-linecap:round;stroke-miterlimit:10" />
		<g
   id="g87">
			<path
   d="m 478.6,323.5 c -0.9,-3.8 -2.7,-8.5 -4.8,-11.6 l 5.8,2.9 6.3,-1.5 c -2.7,2.5 -5.5,6.7 -7.3,10.2 z"
   id="path89"
   inkscape:connector-curvature="0"
   style="fill:#454746" />
		</g>
	</g>
</g>
<g
   id="g91"
   transform="translate(-374.4,-224.5)">
	<g
   id="g93">
		<path
   stroke-miterlimit="10"
   d="m 558.3,282.2 c 14.3,18 71.7,-0.3 78.9,33.6"
   id="path95"
   inkscape:connector-curvature="0"
   style="fill:none;stroke:#454746;stroke-width:1.60000002;stroke-linecap:round;stroke-miterlimit:10" />
		<g
   id="g97">
			<path
   d="m 638,323.5 c -1.7,-3.5 -4.5,-7.7 -7.3,-10.2 l 6.3,1.5 5.8,-2.9 c -2.1,3.1 -3.9,7.8 -4.8,11.6 z"
   id="path99"
   inkscape:connector-curvature="0"
   style="fill:#454746" />
		</g>
	</g>
</g>
<g
   id="g101"
   transform="translate(-374.4,-224.5)">
	<g
   id="g103">
		<path
   stroke-miterlimit="10"
   d="m 558.3,282.2 c 0,13.1 0.3,-1 0.3,33.6"
   id="path105"
   inkscape:connector-curvature="0"
   style="fill:none;stroke:#454746;stroke-width:1.60000002;stroke-linecap:round;stroke-miterlimit:10" />
		<g
   id="g107">
			<path
   d="m 558.6,323.5 c -1.4,-3.6 -3.7,-8.1 -6.1,-10.9 l 6.1,2.2 6.1,-2.2 c -2.5,2.7 -4.8,7.2 -6.1,10.9 z"
   id="path109"
   inkscape:connector-curvature="0"
   style="fill:#454746" />
		</g>
	</g>
</g>
<g
   id="g111"
   transform="translate(-374.4,-224.5)">
	<path
   d="M 577,515.5 H 440.2 c -1.7,0 -3.1,-1.3 -3.1,-3 v -48 c 0,-1.7 1.4,-3 3.1,-3 H 577 c 1.7,0 3.1,1.3 3.1,3 v 48 c 0,1.6 -1.4,3 -3.1,3 z"
   id="path113"
   inkscape:connector-curvature="0"
   style="fill:#ffffff" />
	
		<path
   stroke-miterlimit="10"
   d="M 577,515.5 H 440.2 c -1.7,0 -3.1,-1.3 -3.1,-3 v -48 c 0,-1.7 1.4,-3 3.1,-3 H 577 c 1.7,0 3.1,1.3 3.1,3 v 48 c 0,1.6 -1.4,3 -3.1,3 z"
   id="path115"
   inkscape:connector-curvature="0"
   style="fill:none;stroke:#c6c6c6;stroke-width:1.60000002;stroke-linecap:round;stroke-miterlimit:10;stroke-dasharray:3.9666, 3.9666" />
</g>
<g
   id="g117"
   transform="translate(-374.4,-224.5)">
	<g
   id="g119">
		<g
   id="g121">
			<path
   d="m 467.8,473.5 h -13 c -1.6,0 -3,1.3 -3,3 v 24 c 0,1.7 1.4,3 3,3 h 18 c 1.7,0 3,-1.3 3,-3 v -19 l -8,-8 z"
   id="path123"
   inkscape:connector-curvature="0"
   style="fill:#ffffff;stroke:#666666;stroke-width:1.60000002;stroke-linejoin:round" />
		</g>
		<line
   x1="456.79999"
   y1="498.5"
   x2="470.79999"
   y2="498.5"
   id="line125"
   style="fill:none;stroke:#75b640;stroke-width:1.60000002;stroke-linecap:round" />
		<line
   x1="456.79999"
   y1="493.5"
   x2="470.79999"
   y2="493.5"
   id="line127"
   style="fill:none;stroke:#75b640;stroke-width:1.60000002;stroke-linecap:round" />
		<line
   x1="456.79999"
   y1="488.5"
   x2="470.79999"
   y2="488.5"
   id="line129"
   style="fill:none;stroke:#75b640;stroke-width:1.60000002;stroke-linecap:round" />
		<line
   x1="456.79999"
   y1="483.5"
   x2="464.79999"
   y2="483.5"
   id="line131"
   style="fill:none;stroke:#75b640;stroke-width:1.60000002;stroke-linecap:round" />
		<line
   x1="456.79999"
   y1="478.5"
   x2="462.79999"
   y2="478.5"
   id="line133"
   style="fill:none;stroke:#75b640;stroke-width:1.60000002;stroke-linecap:round" />
		<path
   d="m 475.8,481.6 h -5 c -1.6,0 -3,-1.3 -3,-3 v -5"
   id="path135"
   inkscape:connector-curvature="0"
   style="fill:none;stroke:#75b640;stroke-width:1.60000002" />
	</g>
	<g
   id="g137">
		<g
   id="g139">
			<path
   d="m 477.8,473.5 h -13 c -1.6,0 -3,1.3 -3,3 v 24 c 0,1.7 1.4,3 3,3 h 18 c 1.7,0 3,-1.3 3,-3 v -19 l -8,-8 z"
   id="path141"
   inkscape:connector-curvature="0"
   style="fill:#ffffff;stroke:#666666;stroke-width:1.60000002;stroke-linejoin:round" />
		</g>
		<line
   x1="466.79999"
   y1="498.5"
   x2="480.79999"
   y2="498.5"
   id="line143"
   style="fill:none;stroke:#75b640;stroke-width:1.60000002;stroke-linecap:round" />
		<line
   x1="466.79999"
   y1="493.5"
   x2="480.79999"
   y2="493.5"
   id="line145"
   style="fill:none;stroke:#75b640;stroke-width:1.60000002;stroke-linecap:round" />
		<line
   x1="466.79999"
   y1="488.5"
   x2="480.79999"
   y2="488.5"
   id="line147"
   style="fill:none;stroke:#75b640;stroke-width:1.60000002;stroke-linecap:round" />
		<line
   x1="466.79999"
   y1="483.5"
   x2="474.79999"
   y2="483.5"
   id="line149"
   style="fill:none;stroke:#75b640;stroke-width:1.60000002;stroke-linecap:round" />
		<line
   x1="466.79999"
   y1="478.5"
   x2="472.79999"
   y2="478.5"
   id="line151"
   style="fill:none;stroke:#75b640;stroke-width:1.60000002;stroke-linecap:round" />
		<path
   d="m 485.8,481.6 h -5 c -1.6,0 -3,-1.3 -3,-3 v -5"
   id="path153"
   inkscape:connector-curvature="0"
   style="fill:none;stroke:#75b640;stroke-width:1.60000002" />
	</g>
	<g
   id="g155">
		<g
   id="g157">
			<path
   d="m 487.8,473.5 h -13 c -1.6,0 -3,1.3 -3,3 v 24 c 0,1.7 1.4,3 3,3 h 18 c 1.7,0 3,-1.3 3,-3 v -19 l -8,-8 z"
   id="path159"
   inkscape:connector-curvature="0"
   style="fill:#ffffff;stroke:#666666;stroke-width:1.60000002;stroke-linejoin:round" />
		</g>
		<line
   x1="476.79999"
   y1="498.5"
   x2="490.79999"
   y2="498.5"
   id="line161"
   style="fill:none;stroke:#75b640;stroke-width:1.60000002;stroke-linecap:round" />
		<line
   x1="476.79999"
   y1="493.5"
   x2="490.79999"
   y2="493.5"
   id="line163"
   style="fill:none;stroke:#75b640;stroke-width:1.60000002;stroke-linecap:round" />
		<line
   x1="476.79999"
   y1="488.5"
   x2="490.79999"
   y2="488.5"
   id="line165"
   style="fill:none;stroke:#75b640;stroke-width:1.60000002;stroke-linecap:round" />
		<line
   x1="476.79999"
   y1="483.5"
   x2="484.79999"
   y2="483.5"
   id="line167"
   style="fill:none;stroke:#75b640;stroke-width:1.60000002;stroke-linecap:round" />
		<line
   x1="476.79999"
   y1="478.5"
   x2="482.79999"
   y2="478.5"
   id="line169"
   style="fill:none;stroke:#75b640;stroke-width:1.60000002;stroke-linecap:round" />
		<path
   d="m 495.8,481.6 h -5 c -1.6,0 -3,-1.3 -3,-3 v -5"
   id="path171"
   inkscape:connector-curvature="0"
   style="fill:none;stroke:#75b640;stroke-width:1.60000002" />
	</g>
	<g
   id="g173">
		<g
   id="g175">
			<path
   d="m 497.8,473.5 h -13 c -1.6,0 -3,1.3 -3,3 v 24 c 0,1.7 1.4,3 3,3 h 18 c 1.7,0 3,-1.3 3,-3 v -19 l -8,-8 z"
   id="path177"
   inkscape:connector-curvature="0"
   style="fill:#ffffff;stroke:#666666;stroke-width:1.60000002;stroke-linejoin:round" />
		</g>
		<line
   x1="486.79999"
   y1="498.5"
   x2="500.79999"
   y2="498.5"
   id="line179"
   style="fill:none;stroke:#75b640;stroke-width:1.60000002;stroke-linecap:round" />
		<line
   x1="486.79999"
   y1="493.5"
   x2="500.79999"
   y2="493.5"
   id="line181"
   style="fill:none;stroke:#75b640;stroke-width:1.60000002;stroke-linecap:round" />
		<line
   x1="486.79999"
   y1="488.5"
   x2="500.79999"
   y2="488.5"
   id="line183"
   style="fill:none;stroke:#75b640;stroke-width:1.60000002;stroke-linecap:round" />
		<line
   x1="486.79999"
   y1="483.5"
   x2="494.79999"
   y2="483.5"
   id="line185"
   style="fill:none;stroke:#75b640;stroke-width:1.60000002;stroke-linecap:round" />
		<line
   x1="486.79999"
   y1="478.5"
   x2="492.79999"
   y2="478.5"
   id="line187"
   style="fill:none;stroke:#75b640;stroke-width:1.60000002;stroke-linecap:round" />
		<path
   d="m 505.8,481.6 h -5 c -1.6,0 -3,-1.3 -3,-3 v -5"
   id="path189"
   inkscape:connector-curvature="0"
   style="fill:none;stroke:#75b640;stroke-width:1.60000002" />
	</g>
	<g
   id="g191">
		<g
   id="g193">
			<path
   d="m 507.8,473.5 h -13 c -1.6,0 -3,1.3 -3,3 v 24 c 0,1.7 1.4,3 3,3 h 18 c 1.7,0 3,-1.3 3,-3 v -19 l -8,-8 z"
   id="path195"
   inkscape:connector-curvature="0"
   style="fill:#ffffff;stroke:#666666;stroke-width:1.60000002;stroke-linejoin:round" />
		</g>
		<line
   x1="496.79999"
   y1="498.5"
   x2="510.79999"
   y2="498.5"
   id="line197"
   style="fill:none;stroke:#75b640;stroke-width:1.60000002;stroke-linecap:round" />
		<line
   x1="496.79999"
   y1="493.5"
   x2="510.79999"
   y2="493.5"
   id="line199"
   style="fill:none;stroke:#75b640;stroke-width:1.60000002;stroke-linecap:round" />
		<line
   x1="496.79999"
   y1="488.5"
   x2="510.79999"
   y2="488.5"
   id="line201"
   style="fill:none;stroke:#75b640;stroke-width:1.60000002;stroke-linecap:round" />
		<line
   x1="496.79999"
   y1="483.5"
   x2="504.79999"
   y2="483.5"
   id="line203"
   style="fill:none;stroke:#75b640;stroke-width:1.60000002;stroke-linecap:round" />
		<line
   x1="496.79999"
   y1="478.5"
   x2="502.79999"
   y2="478.5"
   id="line205"
   style="fill:none;stroke:#75b640;stroke-width:1.60000002;stroke-linecap:round" />
		<path
   d="m 515.8,481.6 h -5 c -1.6,0 -3,-1.3 -3,-3 v -5"
   id="path207"
   inkscape:connector-curvature="0"
   style="fill:none;stroke:#75b640;stroke-width:1.60000002" />
	</g>
	<g
   id="g209">
		<g
   id="g211">
			<path
   d="m 517.8,473.5 h -13 c -1.6,0 -3,1.3 -3,3 v 24 c 0,1.7 1.4,3 3,3 h 18 c 1.7,0 3,-1.3 3,-3 v -19 l -8,-8 z"
   id="path213"
   inkscape:connector-curvature="0"
   style="fill:#ffffff;stroke:#666666;stroke-width:1.60000002;stroke-linejoin:round" />
		</g>
		<line
   x1="506.79999"
   y1="498.5"
   x2="520.79999"
   y2="498.5"
   id="line215"
   style="fill:none;stroke:#75b640;stroke-width:1.60000002;stroke-linecap:round" />
		<line
   x1="506.79999"
   y1="493.5"
   x2="520.79999"
   y2="493.5"
   id="line217"
   style="fill:none;stroke:#75b640;stroke-width:1.60000002;stroke-linecap:round" />
		<line
   x1="506.79999"
   y1="488.5"
   x2="520.79999"
   y2="488.5"
   id="line219"
   style="fill:none;stroke:#75b640;stroke-width:1.60000002;stroke-linecap:round" />
		<line
   x1="506.79999"
   y1="483.5"
   x2="514.79999"
   y2="483.5"
   id="line221"
   style="fill:none;stroke:#75b640;stroke-width:1.60000002;stroke-linecap:round" />
		<line
   x1="506.79999"
   y1="478.5"
   x2="512.79999"
   y2="478.5"
   id="line223"
   style="fill:none;stroke:#75b640;stroke-width:1.60000002;stroke-linecap:round" />
		<path
   d="m 525.8,481.6 h -5 c -1.6,0 -3,-1.3 -3,-3 v -5"
   id="path225"
   inkscape:connector-curvature="0"
   style="fill:none;stroke:#75b640;stroke-width:1.60000002" />
	</g>
	<g
   id="g227">
		<g
   id="g229">
			<path
   d="m 527.8,473.5 h -13 c -1.6,0 -3,1.3 -3,3 v 24 c 0,1.7 1.4,3 3,3 h 18 c 1.7,0 3,-1.3 3,-3 v -19 l -8,-8 z"
   id="path231"
   inkscape:connector-curvature="0"
   style="fill:#ffffff;stroke:#666666;stroke-width:1.60000002;stroke-linejoin:round" />
		</g>
		<line
   x1="516.79999"
   y1="498.5"
   x2="530.79999"
   y2="498.5"
   id="line233"
   style="fill:none;stroke:#75b640;stroke-width:1.60000002;stroke-linecap:round" />
		<line
   x1="516.79999"
   y1="493.5"
   x2="530.79999"
   y2="493.5"
   id="line235"
   style="fill:none;stroke:#75b640;stroke-width:1.60000002;stroke-linecap:round" />
		<line
   x1="516.79999"
   y1="488.5"
   x2="530.79999"
   y2="488.5"
   id="line237"
   style="fill:none;stroke:#75b640;stroke-width:1.60000002;stroke-linecap:round" />
		<line
   x1="516.79999"
   y1="483.5"
   x2="524.79999"
   y2="483.5"
   id="line239"
   style="fill:none;stroke:#75b640;stroke-width:1.60000002;stroke-linecap:round" />
		<line
   x1="516.79999"
   y1="478.5"
   x2="522.79999"
   y2="478.5"
   id="line241"
   style="fill:none;stroke:#75b640;stroke-width:1.60000002;stroke-linecap:round" />
		<path
   d="m 535.8,481.6 h -5 c -1.6,0 -3,-1.3 -3,-3 v -5"
   id="path243"
   inkscape:connector-curvature="0"
   style="fill:none;stroke:#75b640;stroke-width:1.60000002" />
	</g>
	<g
   id="g245">
		<g
   id="g247">
			<path
   d="m 537.8,473.5 h -13 c -1.6,0 -3,1.3 -3,3 v 24 c 0,1.7 1.4,3 3,3 h 18 c 1.7,0 3,-1.3 3,-3 v -19 l -8,-8 z"
   id="path249"
   inkscape:connector-curvature="0"
   style="fill:#ffffff;stroke:#666666;stroke-width:1.60000002;stroke-linejoin:round" />
		</g>
		<line
   x1="526.79999"
   y1="498.5"
   x2="540.79999"
   y2="498.5"
   id="line251"
   style="fill:none;stroke:#75b640;stroke-width:1.60000002;stroke-linecap:round" />
		<line
   x1="526.79999"
   y1="493.5"
   x2="540.79999"
   y2="493.5"
   id="line253"
   style="fill:none;stroke:#75b640;stroke-width:1.60000002;stroke-linecap:round" />
		<line
   x1="526.79999"
   y1="488.5"
   x2="540.79999"
   y2="488.5"
   id="line255"
   style="fill:none;stroke:#75b640;stroke-width:1.60000002;stroke-linecap:round" />
		<line
   x1="526.79999"
   y1="483.5"
   x2="534.79999"
   y2="483.5"
   id="line257"
   style="fill:none;stroke:#75b640;stroke-width:1.60000002;stroke-linecap:round" />
		<line
   x1="526.79999"
   y1="478.5"
   x2="532.79999"
   y2="478.5"
   id="line259"
   style="fill:none;stroke:#75b640;stroke-width:1.60000002;stroke-linecap:round" />
		<path
   d="m 545.8,481.6 h -5 c -1.6,0 -3,-1.3 -3,-3 v -5"
   id="path261"
   inkscape:connector-curvature="0"
   style="fill:none;stroke:#666666;stroke-width:1.60000002;stroke-linejoin:round" />
	</g>
</g>
<path
   stroke-miterlimit="10"
   d="m 304.2,170.6 v 12 c 0,1.7 -1.3,3 -3,3 H 65.7 c -1.7,0 -3,-1.3 -3,-3 v -12"
   id="path263"
   inkscape:connector-curvature="0"
   style="fill:none;stroke:#454746;stroke-width:1.60000002;stroke-linecap:round;stroke-miterlimit:10" />
<path
   d="m 104.2,136.9 c 10.2,0 19.8,-1.8 24.8,-4.7 2,-1.2 3.9,-2.5 5.2,-3.6 v -4.7 c 0,-5.5 -13.4,-10 -30,-10 -16.6,0 -30,4.5 -30,10 v 4.7 c 1.2,1.1 3.1,2.5 5.2,3.6 5.1,2.9 14.6,4.7 24.8,4.7 z"
   id="path265"
   inkscape:connector-curvature="0"
   style="fill:#75b640" />
<path
   d="m 104.2,153 c 10.2,0 19.8,-1.8 24.8,-4.7 2,-1.2 3.9,-2.5 5.2,-3.6 v -11 c -1.3,0.9 -2.5,1.6 -3.2,2 -5.8,3.2 -15.8,5.2 -26.8,5.2 -11,0 -21.1,-1.9 -26.8,-5.2 -0.7,-0.4 -1.9,-1.1 -3.2,-2 v 11 c 1.2,1.1 3.1,2.5 5.2,3.6 5.1,2.9 14.6,4.7 24.8,4.7 z"
   id="path267"
   inkscape:connector-curvature="0"
   style="fill:#75b640" />
<path
   d="m 104.2,157 c -11,0 -21.1,-1.9 -26.8,-5.2 -0.7,-0.4 -1.9,-1.1 -3.2,-2 v 8.2 c 0,5.5 13.4,10 30,10 16.6,0 30,-4.5 30,-10 v -8.2 c -1.3,0.9 -2.5,1.6 -3.2,2 -5.7,3.2 -15.7,5.2 -26.8,5.2 z"
   id="path269"
   inkscape:connector-curvature="0"
   style="fill:#75b640" />
<path
   d="m 184.2,153 c 10.2,0 19.8,-1.8 24.8,-4.7 2,-1.2 3.9,-2.5 5.2,-3.6 v -11 c -1.3,0.9 -2.5,1.6 -3.2,2 -5.8,3.2 -15.8,5.2 -26.8,5.2 -11,0 -21.1,-1.9 -26.8,-5.2 -0.7,-0.4 -1.9,-1.1 -3.2,-2 v 11 c 1.2,1.1 3.1,2.5 5.2,3.6 5.1,2.9 14.6,4.7 24.8,4.7 z"
   id="path271"
   inkscape:connector-curvature="0"
   style="fill:#75b640" />
<path
   d="m 184.2,136.9 c 10.2,0 19.8,-1.8 24.8,-4.7 2,-1.2 3.9,-2.5 5.2,-3.6 v -4.7 c 0,-5.5 -13.4,-10 -30,-10 -16.6,0 -30,4.5 -30,10 v 4.7 c 1.2,1.1 3.1,2.5 5.2,3.6 5.1,2.9 14.6,4.7 24.8,4.7 z"
   id="path273"
   inkscape:connector-curvature="0"
   style="fill:#75b640" />
<path
   d="m 184.2,157 c -11,0 -21.1,-1.9 -26.8,-5.2 -0.7,-0.4 -1.9,-1.1 -3.2,-2 v 8.2 c 0,5.5 13.4,10 30,10 16.6,0 30,-4.5 30,-10 v -8.2 c -1.3,0.9 -2.5,1.6 -3.2,2 -5.7,3.2 -15.7,5.2 -26.8,5.2 z"
   id="path275"
   inkscape:connector-curvature="0"
   style="fill:#75b640" />
<path
   d="m 264.2,153 c 10.2,0 19.8,-1.8 24.8,-4.7 2,-1.2 3.9,-2.5 5.2,-3.6 v -11 c -1.3,0.9 -2.5,1.6 -3.2,2 -5.8,3.2 -15.8,5.2 -26.8,5.2 -11,0 -21.1,-1.9 -26.8,-5.2 -0.7,-0.4 -1.9,-1.1 -3.2,-2 v 11 c 1.2,1.1 3.1,2.5 5.2,3.6 5.1,2.9 14.6,4.7 24.8,4.7 z"
   id="path277"
   inkscape:connector-curvature="0"
   style="fill:#75b640" />
<path
   d="m 264.2,157 c -11,0 -21.1,-1.9 -26.8,-5.2 -0.7,-0.4 -1.9,-1.1 -3.2,-2 v 8.2 c 0,5.5 13.4,10 30,10 16.6,0 30,-4.5 30,-10 v -8.2 c -1.3,0.9 -2.5,1.6 -3.2,2 -5.7,3.2 -15.7,5.2 -26.8,5.2 z"
   id="path279"
   inkscape:connector-curvature="0"
   style="fill:#75b640" />
<path
   d="m 264.2,136.9 c 10.2,0 19.8,-1.8 24.8,-4.7 2,-1.2 3.9,-2.5 5.2,-3.6 v -4.7 c 0,-5.5 -13.4,-10 -30,-10 -16.6,0 -30,4.5 -30,10 v 4.7 c 1.2,1.1 3.1,2.5 5.2,3.6 5.1,2.9 14.6,4.7 24.8,4.7 z"
   id="path281"
   inkscape:connector-curvature="0"
   style="fill:#75b640" />
</svg>