<?xml version="1.0" encoding="UTF-8" standalone="no"?>
<!-- Generator: Adobe Illustrator 18.0.0, SVG Export Plug-In . SVG Version: 6.00 Build 0)  -->

<svg
   xmlns:dc="http://purl.org/dc/elements/1.1/"
   xmlns:cc="http://creativecommons.org/ns#"
   xmlns:rdf="http://www.w3.org/1999/02/22-rdf-syntax-ns#"
   xmlns:svg="http://www.w3.org/2000/svg"
   xmlns="http://www.w3.org/2000/svg"
   xmlns:sodipodi="http://sodipodi.sourceforge.net/DTD/sodipodi-0.dtd"
   xmlns:inkscape="http://www.inkscape.org/namespaces/inkscape"
   version="1.1"
   id="Layer_1"
   x="0px"
   y="0px"
   viewBox="0 0 530 350"
   enable-background="new 0 0 1280 800"
   xml:space="preserve"
   inkscape:version="0.48.2 r9819"
   width="100%"
   height="100%"
   sodipodi:docname="graph_3.2.svg"><metadata
   id="metadata3737"><rdf:RDF><cc:Work
       rdf:about=""><dc:format>image/svg+xml</dc:format><dc:type
         rdf:resource="http://purl.org/dc/dcmitype/StillImage" /><dc:title></dc:title></cc:Work></rdf:RDF></metadata><defs
   id="defs3735" /><sodipodi:namedview
   pagecolor="#ffffff"
   bordercolor="#666666"
   borderopacity="1"
   objecttolerance="10"
   gridtolerance="10"
   guidetolerance="10"
   inkscape:pageopacity="0"
   inkscape:pageshadow="2"
   inkscape:window-width="640"
   inkscape:window-height="480"
   id="namedview3733"
   showgrid="false"
   fit-margin-top="0"
   fit-margin-left="0"
   fit-margin-right="0"
   fit-margin-bottom="0"
   inkscape:zoom="0.275"
   inkscape:cx="265.6"
   inkscape:cy="174.5"
   inkscape:window-x="0"
   inkscape:window-y="0"
   inkscape:window-maximized="0"
   inkscape:current-layer="Layer_1" />
<path
   d="M 527,350 H 3 c -1.7,0 -3,-1.3 -3,-3 V 3 C 0,1.4 1.3,0 3,0 h 524 c 1.7,0 3,1.4 3,3 v 344 c 0,1.6 -1.3,3 -3,3 z"
   id="path3431"
   inkscape:connector-curvature="0"
   style="fill:#f8faf6" />
<g
   id="g3433"
   transform="translate(-374.4,-224.5)">
	<path
   d="m 450.6,526 v 10.8 h -2 V 526 h 2 z"
   id="path3435"
   inkscape:connector-curvature="0"
   style="fill:#454746" />
	<path
   d="m 452.9,531.3 c 0,-0.9 0,-1.6 -0.1,-2.3 h 1.7 l 0.1,1.2 h 0 c 0.3,-0.6 1.2,-1.3 2.5,-1.3 1.4,0 2.8,0.9 2.8,3.3 v 4.6 h -2 v -4.4 c 0,-1.1 -0.4,-2 -1.5,-2 -0.8,0 -1.3,0.6 -1.5,1.2 -0.1,0.2 -0.1,0.4 -0.1,0.6 v 4.6 h -2 v -5.5 z"
   id="path3437"
   inkscape:connector-curvature="0"
   style="fill:#454746" />
	<path
   d="m 465.6,531.8 v 1.4 h -4.1 v -1.4 h 4.1 z"
   id="path3439"
   inkscape:connector-curvature="0"
   style="fill:#454746" />
	<path
   d="m 467.1,531.3 c 0,-0.9 0,-1.6 -0.1,-2.3 h 1.7 l 0.1,1.2 h 0 c 0.4,-0.6 1.1,-1.3 2.4,-1.3 1,0 1.8,0.6 2.2,1.4 h 0 c 0.3,-0.4 0.6,-0.8 1,-1 0.4,-0.3 0.9,-0.5 1.6,-0.5 1.3,0 2.6,0.9 2.6,3.4 v 4.6 h -1.9 v -4.3 c 0,-1.3 -0.4,-2.1 -1.4,-2.1 -0.7,0 -1.2,0.5 -1.4,1 0,0.2 -0.1,0.4 -0.1,0.7 v 4.7 h -1.9 v -4.5 c 0,-1.1 -0.4,-1.9 -1.3,-1.9 -0.7,0 -1.2,0.6 -1.4,1.1 -0.1,0.2 -0.1,0.4 -0.1,0.6 v 4.6 h -1.9 v -5.4 z"
   id="path3441"
   inkscape:connector-curvature="0"
   style="fill:#454746" />
	<path
   d="m 482.1,533.4 c 0,1.4 1.2,2 2.4,2 0.9,0 1.6,-0.1 2.2,-0.4 l 0.3,1.4 c -0.7,0.3 -1.6,0.5 -2.7,0.5 -2.5,0 -4,-1.6 -4,-3.9 0,-2.2 1.3,-4.2 3.8,-4.2 2.5,0 3.4,2.1 3.4,3.8 0,0.4 0,0.7 -0.1,0.8 h -5.3 z m 3.4,-1.4 c 0,-0.7 -0.3,-1.9 -1.6,-1.9 -1.2,0 -1.7,1.1 -1.8,1.9 h 3.4 z"
   id="path3443"
   inkscape:connector-curvature="0"
   style="fill:#454746" />
	<path
   d="m 488.9,531.3 c 0,-0.9 0,-1.6 -0.1,-2.3 h 1.7 l 0.1,1.2 h 0 c 0.4,-0.6 1.1,-1.3 2.4,-1.3 1,0 1.8,0.6 2.2,1.4 h 0 c 0.3,-0.4 0.6,-0.8 1,-1 0.4,-0.3 0.9,-0.5 1.6,-0.5 1.3,0 2.6,0.9 2.6,3.4 v 4.6 h -1.9 v -4.3 c 0,-1.3 -0.4,-2.1 -1.4,-2.1 -0.7,0 -1.2,0.5 -1.4,1 0,0.2 -0.1,0.4 -0.1,0.7 v 4.7 h -1.9 v -4.5 c 0,-1.1 -0.4,-1.9 -1.3,-1.9 -0.7,0 -1.2,0.6 -1.4,1.1 -0.1,0.2 -0.1,0.4 -0.1,0.6 v 4.6 H 489 v -5.4 z"
   id="path3445"
   inkscape:connector-curvature="0"
   style="fill:#454746" />
	<path
   d="m 509.9,532.8 c 0,2.9 -2,4.1 -4,4.1 -2.2,0 -3.9,-1.5 -3.9,-4 0,-2.6 1.7,-4.1 4,-4.1 2.4,0 3.9,1.6 3.9,4 z m -5.9,0.1 c 0,1.5 0.7,2.6 1.9,2.6 1.1,0 1.9,-1.1 1.9,-2.7 0,-1.2 -0.5,-2.6 -1.9,-2.6 -1.3,0 -1.9,1.4 -1.9,2.7 z"
   id="path3447"
   inkscape:connector-curvature="0"
   style="fill:#454746" />
	<path
   d="m 511.5,531.5 c 0,-1.1 0,-1.8 -0.1,-2.5 h 1.7 l 0.1,1.5 h 0.1 c 0.4,-1.1 1.3,-1.7 2.1,-1.7 0.2,0 0.3,0 0.5,0 v 1.9 c -0.2,0 -0.3,-0.1 -0.6,-0.1 -0.9,0 -1.6,0.6 -1.8,1.5 0,0.2 -0.1,0.4 -0.1,0.6 v 4 h -2 v -5.2 z"
   id="path3449"
   inkscape:connector-curvature="0"
   style="fill:#454746" />
	<path
   d="m 518.8,529 1.4,4.2 c 0.2,0.5 0.3,1.1 0.4,1.5 h 0 c 0.1,-0.4 0.3,-1 0.4,-1.5 l 1.2,-4.2 h 2.1 l -2,5.3 c -1.1,2.9 -1.8,4.2 -2.7,5 -0.8,0.7 -1.6,0.9 -2.1,1 l -0.4,-1.7 c 0.3,-0.1 0.8,-0.3 1.2,-0.5 0.4,-0.2 0.8,-0.7 1.1,-1.2 0.1,-0.1 0.1,-0.3 0.1,-0.4 0,-0.1 0,-0.2 -0.1,-0.4 l -2.8,-7.2 h 2.2 z"
   id="path3451"
   inkscape:connector-curvature="0"
   style="fill:#454746" />
	<path
   d="m 528.8,536.7 c 0,-0.5 0.1,-1.4 0.1,-2.2 v -9.2 h 2 v 4.6 h 0 c 0.5,-0.8 1.3,-1.2 2.5,-1.2 1.9,0 3.3,1.6 3.2,4 0,2.8 -1.8,4.2 -3.5,4.2 -1,0 -1.9,-0.4 -2.5,-1.3 h 0 l -0.1,1.2 h -1.7 z m 2,-3.2 c 0,0.2 0,0.3 0,0.5 0.2,0.8 0.9,1.4 1.7,1.4 1.2,0 2,-1 2,-2.6 0,-1.4 -0.7,-2.5 -2,-2.5 -0.8,0 -1.5,0.6 -1.7,1.4 0,0.1 -0.1,0.3 -0.1,0.5 v 1.3 z"
   id="path3453"
   inkscape:connector-curvature="0"
   style="fill:#454746" />
	<path
   d="m 545.2,534.4 c 0,0.9 0,1.7 0.1,2.3 h -1.7 l -0.1,-1.2 h 0 c -0.3,0.6 -1.1,1.4 -2.5,1.4 -1.4,0 -2.7,-0.8 -2.7,-3.4 V 529 h 2 v 4.2 c 0,1.3 0.4,2.1 1.5,2.1 0.8,0 1.3,-0.6 1.5,-1.1 0.1,-0.2 0.1,-0.4 0.1,-0.6 V 529 h 2 v 5.4 z"
   id="path3455"
   inkscape:connector-curvature="0"
   style="fill:#454746" />
	<path
   d="m 552.4,536.7 v -6.3 h -2.8 v 6.3 h -2 v -6.3 h -1.1 V 529 h 1.1 v -0.2 c 0,-1 0.2,-1.9 0.9,-2.6 0.5,-0.5 1.2,-0.8 2.2,-0.8 0.4,0 0.8,0.1 1.1,0.2 l -0.3,1.5 c -0.2,-0.1 -0.4,-0.1 -0.7,-0.1 -0.9,0 -1.2,0.8 -1.2,1.7 v 0.3 h 2.8 v -0.3 c 0,-1 0.3,-2 1,-2.7 0.6,-0.5 1.3,-0.8 2,-0.8 0.5,0 0.9,0.1 1.2,0.2 l -0.1,1.5 c -0.2,-0.1 -0.5,-0.1 -0.8,-0.1 -1,0 -1.3,0.8 -1.3,1.8 v 0.4 h 1.7 v 1.5 h -1.7 v 6.3 h -2 z"
   id="path3457"
   inkscape:connector-curvature="0"
   style="fill:#454746" />
	<path
   d="m 558.5,533.4 c 0,1.4 1.2,2 2.4,2 0.9,0 1.6,-0.1 2.2,-0.4 l 0.3,1.4 c -0.7,0.3 -1.6,0.5 -2.7,0.5 -2.5,0 -4,-1.6 -4,-3.9 0,-2.2 1.3,-4.2 3.8,-4.2 2.5,0 3.4,2.1 3.4,3.8 0,0.4 0,0.7 -0.1,0.8 h -5.3 z m 3.4,-1.4 c 0,-0.7 -0.3,-1.9 -1.6,-1.9 -1.2,0 -1.7,1.1 -1.8,1.9 h 3.4 z"
   id="path3459"
   inkscape:connector-curvature="0"
   style="fill:#454746" />
	<path
   d="m 565.3,531.5 c 0,-1.1 0,-1.8 -0.1,-2.5 h 1.7 l 0.1,1.5 h 0.1 c 0.4,-1.1 1.3,-1.7 2.1,-1.7 0.2,0 0.3,0 0.5,0 v 1.9 c -0.2,0 -0.3,-0.1 -0.6,-0.1 -0.9,0 -1.6,0.6 -1.8,1.5 0,0.2 -0.1,0.4 -0.1,0.6 v 4 h -2 v -5.2 z"
   id="path3461"
   inkscape:connector-curvature="0"
   style="fill:#454746" />
</g>
<path
   stroke-miterlimit="10"
   d="M 202.6,290.8 H 65.8 c -1.7,0 -3.1,-1.3 -3.1,-3 v -48 c 0,-1.7 1.4,-3 3.1,-3 h 136.8 c 1.7,0 3.1,1.3 3.1,3 v 48 c 0,1.7 -1.4,3 -3.1,3 z"
   id="path3463"
   inkscape:connector-curvature="0"
   style="fill:#ffffff;stroke:#c6c6c6;stroke-width:1.60000002;stroke-linecap:round;stroke-miterlimit:10;stroke-dasharray:4" />
<g
   id="g3465"
   transform="translate(-374.4,-224.5)">
	<path
   d="M 692.1,527.6 H 689 V 526 h 8.1 v 1.6 H 694 v 9.1 h -2 v -9.1 z"
   id="path3467"
   inkscape:connector-curvature="0"
   style="fill:#454746" />
	<path
   d="m 697.5,531.5 c 0,-1.1 0,-1.8 -0.1,-2.5 h 1.7 l 0.1,1.5 h 0.1 c 0.4,-1.1 1.3,-1.7 2.1,-1.7 0.2,0 0.3,0 0.5,0 v 1.9 c -0.2,0 -0.3,-0.1 -0.6,-0.1 -0.9,0 -1.6,0.6 -1.8,1.5 0,0.2 -0.1,0.4 -0.1,0.6 v 4 h -2 v -5.2 z"
   id="path3469"
   inkscape:connector-curvature="0"
   style="fill:#454746" />
	<path
   d="m 707.5,536.7 -0.1,-0.9 h 0 c -0.5,0.6 -1.3,1 -2.3,1 -1.6,0 -2.4,-1.1 -2.4,-2.3 0,-2 1.7,-3 4.6,-2.9 v -0.1 c 0,-0.5 -0.2,-1.4 -1.6,-1.4 -0.8,0 -1.6,0.2 -2.1,0.6 l -0.4,-1.3 c 0.6,-0.4 1.6,-0.7 2.8,-0.7 2.5,0 3.2,1.6 3.2,3.3 v 2.8 c 0,0.7 0,1.4 0.1,1.9 h -1.8 z m -0.3,-3.8 c -1.4,0 -2.7,0.3 -2.7,1.5 0,0.8 0.5,1.1 1.1,1.1 0.8,0 1.4,-0.5 1.5,-1.1 0,-0.1 0.1,-0.3 0.1,-0.4 v -1.1 z"
   id="path3471"
   inkscape:connector-curvature="0"
   style="fill:#454746" />
	<path
   d="m 711.2,531.3 c 0,-0.9 0,-1.6 -0.1,-2.3 h 1.7 l 0.1,1.2 h 0 c 0.3,-0.6 1.2,-1.3 2.5,-1.3 1.4,0 2.8,0.9 2.8,3.3 v 4.6 h -2 v -4.4 c 0,-1.1 -0.4,-2 -1.5,-2 -0.8,0 -1.3,0.6 -1.5,1.2 -0.1,0.2 -0.1,0.4 -0.1,0.6 v 4.6 h -2 v -5.5 z"
   id="path3473"
   inkscape:connector-curvature="0"
   style="fill:#454746" />
	<path
   d="m 720.3,534.9 c 0.4,0.3 1.3,0.6 2,0.6 0.9,0 1.2,-0.4 1.2,-0.9 0,-0.5 -0.3,-0.8 -1.3,-1.1 -1.5,-0.5 -2.2,-1.4 -2.1,-2.3 0,-1.4 1.1,-2.4 2.9,-2.4 0.9,0 1.6,0.2 2.1,0.5 l -0.4,1.4 c -0.3,-0.2 -1,-0.4 -1.6,-0.4 -0.7,0 -1.1,0.3 -1.1,0.8 0,0.5 0.4,0.7 1.4,1.1 1.4,0.5 2.1,1.2 2.1,2.4 0,1.4 -1.1,2.4 -3.2,2.4 -0.9,0 -1.8,-0.2 -2.4,-0.5 l 0.4,-1.6 z"
   id="path3475"
   inkscape:connector-curvature="0"
   style="fill:#454746" />
	<path
   d="m 727,525.4 h 2 v 11.4 h -2 v -11.4 z"
   id="path3477"
   inkscape:connector-curvature="0"
   style="fill:#454746" />
	<path
   d="m 738.6,532.8 c 0,2.9 -2,4.1 -4,4.1 -2.2,0 -3.9,-1.5 -3.9,-4 0,-2.6 1.7,-4.1 4,-4.1 2.3,0 3.9,1.6 3.9,4 z m -5.9,0.1 c 0,1.5 0.7,2.6 1.9,2.6 1.1,0 1.9,-1.1 1.9,-2.7 0,-1.2 -0.5,-2.6 -1.9,-2.6 -1.3,0 -1.9,1.4 -1.9,2.7 z"
   id="path3479"
   inkscape:connector-curvature="0"
   style="fill:#454746" />
	<path
   d="m 747.3,529 c 0,0.5 -0.1,1.2 -0.1,2.2 v 4.4 c 0,1.6 -0.3,2.8 -1.2,3.5 -0.8,0.7 -1.9,0.9 -3,0.9 -1,0 -2,-0.2 -2.7,-0.6 l 0.4,-1.5 c 0.5,0.3 1.3,0.6 2.3,0.6 1.3,0 2.2,-0.7 2.2,-2.4 v -0.7 h 0 c -0.4,0.7 -1.2,1.2 -2.3,1.2 -1.9,0 -3.3,-1.6 -3.3,-3.8 0,-2.6 1.7,-4.1 3.5,-4.1 1.2,0 1.9,0.6 2.3,1.2 h 0 l 0.1,-1 h 1.8 z m -2,3.1 c 0,-0.2 0,-0.4 -0.1,-0.5 -0.2,-0.7 -0.8,-1.3 -1.6,-1.3 -1.1,0 -1.9,1 -1.9,2.5 0,1.3 0.7,2.4 1.9,2.4 0.7,0 1.4,-0.5 1.6,-1.2 0,-0.2 0.1,-0.5 0.1,-0.7 v -1.2 z"
   id="path3481"
   inkscape:connector-curvature="0"
   style="fill:#454746" />
</g>
<path
   stroke-miterlimit="10"
   d="M 462,291.2 H 224.7 c -1.7,0 -3,-1.3 -3,-3 v -48 c 0,-1.7 1.3,-3 3,-3 H 462 c 1.7,0 3,1.3 3,3 v 48 c 0,1.6 -1.4,3 -3,3 z"
   id="path3483"
   inkscape:connector-curvature="0"
   style="fill:#ffffff;stroke:#c6c6c6;stroke-width:1.60000002;stroke-miterlimit:10" />
<g
   id="g3485"
   transform="translate(-374.4,-224.5)">
	<g
   id="g3487">
		<g
   id="g3489">
			<path
   d="m 626.6,473.7 h -13 c -1.6,0 -3,1.3 -3,3 v 24 c 0,1.7 1.4,3 3,3 h 18 c 1.7,0 3,-1.3 3,-3 v -19 l -8,-8 z"
   id="path3491"
   inkscape:connector-curvature="0"
   style="fill:#ffffff;stroke:#666666;stroke-width:1.60000002;stroke-linejoin:round" />
		</g>
		<line
   x1="615.59998"
   y1="498.70001"
   x2="629.59998"
   y2="498.70001"
   id="line3493"
   style="fill:none;stroke:#75b640;stroke-width:1.60000002;stroke-linecap:round" />
		<line
   x1="615.59998"
   y1="493.70001"
   x2="629.59998"
   y2="493.70001"
   id="line3495"
   style="fill:none;stroke:#75b640;stroke-width:1.60000002;stroke-linecap:round" />
		<line
   x1="615.59998"
   y1="488.70001"
   x2="629.59998"
   y2="488.70001"
   id="line3497"
   style="fill:none;stroke:#75b640;stroke-width:1.60000002;stroke-linecap:round" />
		<line
   x1="615.59998"
   y1="483.70001"
   x2="623.59998"
   y2="483.70001"
   id="line3499"
   style="fill:none;stroke:#75b640;stroke-width:1.60000002;stroke-linecap:round" />
		<line
   x1="615.59998"
   y1="478.70001"
   x2="621.59998"
   y2="478.70001"
   id="line3501"
   style="fill:none;stroke:#75b640;stroke-width:1.60000002;stroke-linecap:round" />
		<path
   d="m 634.6,481.8 h -5 c -1.6,0 -3,-1.3 -3,-3 v -5"
   id="path3503"
   inkscape:connector-curvature="0"
   style="fill:none;stroke:#75b640;stroke-width:1.60000002" />
	</g>
	<g
   id="g3505">
		<g
   id="g3507">
			<path
   d="m 636.6,473.7 h -13 c -1.6,0 -3,1.3 -3,3 v 24 c 0,1.7 1.4,3 3,3 h 18 c 1.7,0 3,-1.3 3,-3 v -19 l -8,-8 z"
   id="path3509"
   inkscape:connector-curvature="0"
   style="fill:#ffffff;stroke:#666666;stroke-width:1.60000002;stroke-linejoin:round" />
		</g>
		<line
   x1="625.59998"
   y1="498.70001"
   x2="639.59998"
   y2="498.70001"
   id="line3511"
   style="fill:none;stroke:#75b640;stroke-width:1.60000002;stroke-linecap:round" />
		<line
   x1="625.59998"
   y1="493.70001"
   x2="639.59998"
   y2="493.70001"
   id="line3513"
   style="fill:none;stroke:#75b640;stroke-width:1.60000002;stroke-linecap:round" />
		<line
   x1="625.59998"
   y1="488.70001"
   x2="639.59998"
   y2="488.70001"
   id="line3515"
   style="fill:none;stroke:#75b640;stroke-width:1.60000002;stroke-linecap:round" />
		<line
   x1="625.59998"
   y1="483.70001"
   x2="633.59998"
   y2="483.70001"
   id="line3517"
   style="fill:none;stroke:#75b640;stroke-width:1.60000002;stroke-linecap:round" />
		<line
   x1="625.59998"
   y1="478.70001"
   x2="631.59998"
   y2="478.70001"
   id="line3519"
   style="fill:none;stroke:#75b640;stroke-width:1.60000002;stroke-linecap:round" />
		<path
   d="m 644.6,481.8 h -5 c -1.6,0 -3,-1.3 -3,-3 v -5"
   id="path3521"
   inkscape:connector-curvature="0"
   style="fill:none;stroke:#75b640;stroke-width:1.60000002" />
	</g>
	<g
   id="g3523">
		<g
   id="g3525">
			<path
   d="m 646.6,473.7 h -13 c -1.6,0 -3,1.3 -3,3 v 24 c 0,1.7 1.4,3 3,3 h 18 c 1.7,0 3,-1.3 3,-3 v -19 l -8,-8 z"
   id="path3527"
   inkscape:connector-curvature="0"
   style="fill:#ffffff;stroke:#666666;stroke-width:1.60000002;stroke-linejoin:round" />
		</g>
		<line
   x1="635.59998"
   y1="498.70001"
   x2="649.59998"
   y2="498.70001"
   id="line3529"
   style="fill:none;stroke:#75b640;stroke-width:1.60000002;stroke-linecap:round" />
		<line
   x1="635.59998"
   y1="493.70001"
   x2="649.59998"
   y2="493.70001"
   id="line3531"
   style="fill:none;stroke:#75b640;stroke-width:1.60000002;stroke-linecap:round" />
		<line
   x1="635.59998"
   y1="488.70001"
   x2="649.59998"
   y2="488.70001"
   id="line3533"
   style="fill:none;stroke:#75b640;stroke-width:1.60000002;stroke-linecap:round" />
		<line
   x1="635.59998"
   y1="483.70001"
   x2="643.59998"
   y2="483.70001"
   id="line3535"
   style="fill:none;stroke:#75b640;stroke-width:1.60000002;stroke-linecap:round" />
		<line
   x1="635.59998"
   y1="478.70001"
   x2="641.59998"
   y2="478.70001"
   id="line3537"
   style="fill:none;stroke:#75b640;stroke-width:1.60000002;stroke-linecap:round" />
		<path
   d="m 654.6,481.8 h -5 c -1.6,0 -3,-1.3 -3,-3 v -5"
   id="path3539"
   inkscape:connector-curvature="0"
   style="fill:none;stroke:#75b640;stroke-width:1.60000002" />
	</g>
	<g
   id="g3541">
		<g
   id="g3543">
			<path
   d="m 656.6,473.7 h -13 c -1.6,0 -3,1.3 -3,3 v 24 c 0,1.7 1.4,3 3,3 h 18 c 1.7,0 3,-1.3 3,-3 v -19 l -8,-8 z"
   id="path3545"
   inkscape:connector-curvature="0"
   style="fill:#ffffff;stroke:#666666;stroke-width:1.60000002;stroke-linejoin:round" />
		</g>
		<line
   x1="645.59998"
   y1="498.70001"
   x2="659.59998"
   y2="498.70001"
   id="line3547"
   style="fill:none;stroke:#75b640;stroke-width:1.60000002;stroke-linecap:round" />
		<line
   x1="645.59998"
   y1="493.70001"
   x2="659.59998"
   y2="493.70001"
   id="line3549"
   style="fill:none;stroke:#75b640;stroke-width:1.60000002;stroke-linecap:round" />
		<line
   x1="645.59998"
   y1="488.70001"
   x2="659.59998"
   y2="488.70001"
   id="line3551"
   style="fill:none;stroke:#75b640;stroke-width:1.60000002;stroke-linecap:round" />
		<line
   x1="645.59998"
   y1="483.70001"
   x2="653.59998"
   y2="483.70001"
   id="line3553"
   style="fill:none;stroke:#75b640;stroke-width:1.60000002;stroke-linecap:round" />
		<line
   x1="645.59998"
   y1="478.70001"
   x2="651.59998"
   y2="478.70001"
   id="line3555"
   style="fill:none;stroke:#75b640;stroke-width:1.60000002;stroke-linecap:round" />
		<path
   d="m 664.6,481.8 h -5 c -1.6,0 -3,-1.3 -3,-3 v -5"
   id="path3557"
   inkscape:connector-curvature="0"
   style="fill:none;stroke:#75b640;stroke-width:1.60000002" />
	</g>
	<g
   id="g3559">
		<g
   id="g3561">
			<path
   d="m 666.6,473.7 h -13 c -1.6,0 -3,1.3 -3,3 v 24 c 0,1.7 1.4,3 3,3 h 18 c 1.7,0 3,-1.3 3,-3 v -19 l -8,-8 z"
   id="path3563"
   inkscape:connector-curvature="0"
   style="fill:#ffffff;stroke:#666666;stroke-width:1.60000002;stroke-linejoin:round" />
		</g>
		<line
   x1="655.59998"
   y1="498.70001"
   x2="669.59998"
   y2="498.70001"
   id="line3565"
   style="fill:none;stroke:#75b640;stroke-width:1.60000002;stroke-linecap:round" />
		<line
   x1="655.59998"
   y1="493.70001"
   x2="669.59998"
   y2="493.70001"
   id="line3567"
   style="fill:none;stroke:#75b640;stroke-width:1.60000002;stroke-linecap:round" />
		<line
   x1="655.59998"
   y1="488.70001"
   x2="669.59998"
   y2="488.70001"
   id="line3569"
   style="fill:none;stroke:#75b640;stroke-width:1.60000002;stroke-linecap:round" />
		<line
   x1="655.59998"
   y1="483.70001"
   x2="663.59998"
   y2="483.70001"
   id="line3571"
   style="fill:none;stroke:#75b640;stroke-width:1.60000002;stroke-linecap:round" />
		<line
   x1="655.59998"
   y1="478.70001"
   x2="661.59998"
   y2="478.70001"
   id="line3573"
   style="fill:none;stroke:#75b640;stroke-width:1.60000002;stroke-linecap:round" />
		<path
   d="m 674.6,481.8 h -5 c -1.6,0 -3,-1.3 -3,-3 v -5"
   id="path3575"
   inkscape:connector-curvature="0"
   style="fill:none;stroke:#75b640;stroke-width:1.60000002" />
	</g>
	<g
   id="g3577">
		<g
   id="g3579">
			<path
   d="m 676.6,473.7 h -13 c -1.6,0 -3,1.3 -3,3 v 24 c 0,1.7 1.4,3 3,3 h 18 c 1.7,0 3,-1.3 3,-3 v -19 l -8,-8 z"
   id="path3581"
   inkscape:connector-curvature="0"
   style="fill:#ffffff;stroke:#666666;stroke-width:1.60000002;stroke-linejoin:round" />
		</g>
		<line
   x1="665.59998"
   y1="498.70001"
   x2="679.59998"
   y2="498.70001"
   id="line3583"
   style="fill:none;stroke:#75b640;stroke-width:1.60000002;stroke-linecap:round" />
		<line
   x1="665.59998"
   y1="493.70001"
   x2="679.59998"
   y2="493.70001"
   id="line3585"
   style="fill:none;stroke:#75b640;stroke-width:1.60000002;stroke-linecap:round" />
		<line
   x1="665.59998"
   y1="488.70001"
   x2="679.59998"
   y2="488.70001"
   id="line3587"
   style="fill:none;stroke:#75b640;stroke-width:1.60000002;stroke-linecap:round" />
		<line
   x1="665.59998"
   y1="483.70001"
   x2="673.59998"
   y2="483.70001"
   id="line3589"
   style="fill:none;stroke:#75b640;stroke-width:1.60000002;stroke-linecap:round" />
		<line
   x1="665.59998"
   y1="478.70001"
   x2="671.59998"
   y2="478.70001"
   id="line3591"
   style="fill:none;stroke:#75b640;stroke-width:1.60000002;stroke-linecap:round" />
		<path
   d="m 684.6,481.8 h -5 c -1.6,0 -3,-1.3 -3,-3 v -5"
   id="path3593"
   inkscape:connector-curvature="0"
   style="fill:none;stroke:#75b640;stroke-width:1.60000002" />
	</g>
	<g
   id="g3595">
		<g
   id="g3597">
			<path
   d="m 686.6,473.7 h -13 c -1.6,0 -3,1.3 -3,3 v 24 c 0,1.7 1.4,3 3,3 h 18 c 1.7,0 3,-1.3 3,-3 v -19 l -8,-8 z"
   id="path3599"
   inkscape:connector-curvature="0"
   style="fill:#ffffff;stroke:#666666;stroke-width:1.60000002;stroke-linejoin:round" />
		</g>
		<line
   x1="675.59998"
   y1="498.70001"
   x2="689.59998"
   y2="498.70001"
   id="line3601"
   style="fill:none;stroke:#75b640;stroke-width:1.60000002;stroke-linecap:round" />
		<line
   x1="675.59998"
   y1="493.70001"
   x2="689.59998"
   y2="493.70001"
   id="line3603"
   style="fill:none;stroke:#75b640;stroke-width:1.60000002;stroke-linecap:round" />
		<line
   x1="675.59998"
   y1="488.70001"
   x2="689.59998"
   y2="488.70001"
   id="line3605"
   style="fill:none;stroke:#75b640;stroke-width:1.60000002;stroke-linecap:round" />
		<line
   x1="675.59998"
   y1="483.70001"
   x2="683.59998"
   y2="483.70001"
   id="line3607"
   style="fill:none;stroke:#75b640;stroke-width:1.60000002;stroke-linecap:round" />
		<line
   x1="675.59998"
   y1="478.70001"
   x2="681.59998"
   y2="478.70001"
   id="line3609"
   style="fill:none;stroke:#75b640;stroke-width:1.60000002;stroke-linecap:round" />
		<path
   d="m 694.6,481.8 h -5 c -1.6,0 -3,-1.3 -3,-3 v -5"
   id="path3611"
   inkscape:connector-curvature="0"
   style="fill:none;stroke:#75b640;stroke-width:1.60000002" />
	</g>
	<g
   id="g3613">
		<g
   id="g3615">
			<path
   d="m 696.6,473.7 h -13 c -1.6,0 -3,1.3 -3,3 v 24 c 0,1.7 1.4,3 3,3 h 18 c 1.7,0 3,-1.3 3,-3 v -19 l -8,-8 z"
   id="path3617"
   inkscape:connector-curvature="0"
   style="fill:#ffffff;stroke:#666666;stroke-width:1.60000002;stroke-linejoin:round" />
		</g>
		<line
   x1="685.59998"
   y1="498.70001"
   x2="699.59998"
   y2="498.70001"
   id="line3619"
   style="fill:none;stroke:#75b640;stroke-width:1.60000002;stroke-linecap:round" />
		<line
   x1="685.59998"
   y1="493.70001"
   x2="699.59998"
   y2="493.70001"
   id="line3621"
   style="fill:none;stroke:#75b640;stroke-width:1.60000002;stroke-linecap:round" />
		<line
   x1="685.59998"
   y1="488.70001"
   x2="699.59998"
   y2="488.70001"
   id="line3623"
   style="fill:none;stroke:#75b640;stroke-width:1.60000002;stroke-linecap:round" />
		<line
   x1="685.59998"
   y1="483.70001"
   x2="693.59998"
   y2="483.70001"
   id="line3625"
   style="fill:none;stroke:#75b640;stroke-width:1.60000002;stroke-linecap:round" />
		<line
   x1="685.59998"
   y1="478.70001"
   x2="691.59998"
   y2="478.70001"
   id="line3627"
   style="fill:none;stroke:#75b640;stroke-width:1.60000002;stroke-linecap:round" />
		<path
   d="m 704.6,481.8 h -5 c -1.6,0 -3,-1.3 -3,-3 v -5"
   id="path3629"
   inkscape:connector-curvature="0"
   style="fill:none;stroke:#666666;stroke-width:1.60000002;stroke-linejoin:round" />
	</g>
</g>
<g
   id="g3631"
   transform="translate(-374.4,-224.5)">
	<path
   d="m 520,270.4 c -0.5,0.2 -1.5,0.5 -2.8,0.5 -3.4,0 -5.5,-2.1 -5.5,-5.4 0,-3.6 2.5,-5.7 5.8,-5.7 1.3,0 2.2,0.3 2.6,0.5 l -0.4,1.6 c -0.5,-0.2 -1.2,-0.4 -2.1,-0.4 -2.2,0 -3.8,1.4 -3.8,4 0,2.4 1.4,3.9 3.8,3.9 0.8,0 1.6,-0.2 2.1,-0.4 l 0.3,1.4 z"
   id="path3633"
   inkscape:connector-curvature="0"
   style="fill:#454746" />
	<path
   d="m 528.8,266.8 c 0,2.9 -2,4.1 -4,4.1 -2.2,0 -3.9,-1.5 -3.9,-4 0,-2.6 1.7,-4.1 4,-4.1 2.3,0 3.9,1.6 3.9,4 z m -5.9,0.1 c 0,1.5 0.7,2.6 1.9,2.6 1.1,0 1.9,-1.1 1.9,-2.7 0,-1.2 -0.5,-2.6 -1.9,-2.6 -1.3,0 -1.9,1.4 -1.9,2.7 z"
   id="path3635"
   inkscape:connector-curvature="0"
   style="fill:#454746" />
	<path
   d="m 530.4,265.3 c 0,-0.9 0,-1.6 -0.1,-2.3 h 1.7 l 0.1,1.2 h 0 c 0.4,-0.6 1.1,-1.3 2.4,-1.3 1,0 1.8,0.6 2.2,1.4 h 0 c 0.3,-0.4 0.6,-0.8 1,-1 0.4,-0.3 0.9,-0.5 1.6,-0.5 1.3,0 2.6,0.9 2.6,3.4 v 4.6 H 540 v -4.3 c 0,-1.3 -0.4,-2.1 -1.4,-2.1 -0.7,0 -1.2,0.5 -1.4,1 0,0.2 -0.1,0.4 -0.1,0.7 v 4.7 h -1.9 v -4.5 c 0,-1.1 -0.4,-1.9 -1.3,-1.9 -0.7,0 -1.2,0.6 -1.4,1.1 -0.1,0.2 -0.1,0.4 -0.1,0.6 v 4.6 h -1.9 v -5.4 z"
   id="path3637"
   inkscape:connector-curvature="0"
   style="fill:#454746" />
	<path
   d="m 544,265.3 c 0,-0.9 0,-1.6 -0.1,-2.3 h 1.7 l 0.1,1.2 h 0 c 0.4,-0.6 1.1,-1.3 2.4,-1.3 1,0 1.8,0.6 2.2,1.4 h 0 c 0.3,-0.4 0.6,-0.8 1,-1 0.4,-0.3 0.9,-0.5 1.6,-0.5 1.3,0 2.6,0.9 2.6,3.4 v 4.6 h -1.9 v -4.3 c 0,-1.3 -0.4,-2.1 -1.4,-2.1 -0.7,0 -1.2,0.5 -1.4,1 0,0.2 -0.1,0.4 -0.1,0.7 v 4.7 h -1.9 v -4.5 c 0,-1.1 -0.4,-1.9 -1.3,-1.9 -0.7,0 -1.2,0.6 -1.4,1.1 -0.1,0.2 -0.1,0.4 -0.1,0.6 v 4.6 h -2 v -5.4 z"
   id="path3639"
   inkscape:connector-curvature="0"
   style="fill:#454746" />
	<path
   d="m 559.6,260.8 c 0,0.6 -0.4,1.1 -1.1,1.1 -0.7,0 -1.1,-0.5 -1.1,-1.1 0,-0.6 0.4,-1.1 1.1,-1.1 0.7,0 1.1,0.5 1.1,1.1 z m -2.1,9.9 V 263 h 2 v 7.8 h -2 z"
   id="path3641"
   inkscape:connector-curvature="0"
   style="fill:#454746" />
	<path
   d="m 563.9,260.7 v 2.2 h 1.9 v 1.5 h -1.9 v 3.4 c 0,0.9 0.3,1.4 1,1.4 0.3,0 0.6,0 0.8,-0.1 l 0,1.5 c -0.3,0.1 -0.8,0.2 -1.4,0.2 -0.7,0 -1.3,-0.2 -1.7,-0.6 -0.4,-0.4 -0.6,-1.2 -0.6,-2.2 v -3.7 h -1.1 V 263 h 1.1 v -1.8 l 1.9,-0.5 z"
   id="path3643"
   inkscape:connector-curvature="0"
   style="fill:#454746" />
	<path
   d="m 570.6,265.5 c 0,-1 0,-1.9 -0.1,-2.6 h 1.7 l 0.1,1.2 h 0 c 0.6,-0.9 1.5,-1.4 2.7,-1.4 1.8,0 3.3,1.5 3.3,4 0,2.8 -1.8,4.2 -3.6,4.2 -1,0 -1.8,-0.4 -2.2,-1 h 0 v 4 h -2 v -8.4 z m 1.9,2 c 0,0.2 0,0.4 0.1,0.5 0.2,0.8 0.9,1.4 1.7,1.4 1.2,0 2,-1 2,-2.6 0,-1.4 -0.7,-2.5 -1.9,-2.5 -0.8,0 -1.6,0.6 -1.8,1.5 0,0.2 -0.1,0.3 -0.1,0.5 v 1.2 z"
   id="path3645"
   inkscape:connector-curvature="0"
   style="fill:#454746" />
	<path
   d="m 587.3,266.8 c 0,2.9 -2,4.1 -4,4.1 -2.2,0 -3.9,-1.5 -3.9,-4 0,-2.6 1.7,-4.1 4,-4.1 2.4,0 3.9,1.6 3.9,4 z m -5.9,0.1 c 0,1.5 0.7,2.6 1.9,2.6 1.1,0 1.9,-1.1 1.9,-2.7 0,-1.2 -0.5,-2.6 -1.9,-2.6 -1.3,0 -1.9,1.4 -1.9,2.7 z"
   id="path3647"
   inkscape:connector-curvature="0"
   style="fill:#454746" />
	<path
   d="m 591,260.8 c 0,0.6 -0.4,1.1 -1.1,1.1 -0.7,0 -1.1,-0.5 -1.1,-1.1 0,-0.6 0.4,-1.1 1.1,-1.1 0.7,0 1.1,0.5 1.1,1.1 z m -2.1,9.9 V 263 h 2 v 7.8 h -2 z"
   id="path3649"
   inkscape:connector-curvature="0"
   style="fill:#454746" />
	<path
   d="m 593,265.3 c 0,-0.9 0,-1.6 -0.1,-2.3 h 1.7 l 0.1,1.2 h 0 c 0.3,-0.6 1.2,-1.3 2.5,-1.3 1.4,0 2.8,0.9 2.8,3.3 v 4.6 h -2 v -4.4 c 0,-1.1 -0.4,-2 -1.5,-2 -0.8,0 -1.3,0.6 -1.5,1.2 -0.1,0.2 -0.1,0.4 -0.1,0.6 v 4.6 h -2 v -5.5 z"
   id="path3651"
   inkscape:connector-curvature="0"
   style="fill:#454746" />
	<path
   d="m 604.4,260.7 v 2.2 h 1.9 v 1.5 h -1.9 v 3.4 c 0,0.9 0.3,1.4 1,1.4 0.3,0 0.6,0 0.8,-0.1 l 0,1.5 c -0.3,0.1 -0.8,0.2 -1.4,0.2 -0.7,0 -1.3,-0.2 -1.7,-0.6 -0.4,-0.4 -0.6,-1.2 -0.6,-2.2 v -3.7 h -1.1 V 263 h 1.1 v -1.8 l 1.9,-0.5 z"
   id="path3653"
   inkscape:connector-curvature="0"
   style="fill:#454746" />
</g>
<g
   id="g3655"
   transform="translate(-374.4,-224.5)">
	<path
   d="m 561.4,431 c 0.6,0.4 1.6,0.7 2.6,0.7 1.3,0 2,-0.6 2,-1.5 0,-0.8 -0.5,-1.3 -1.9,-1.8 -1.8,-0.6 -2.9,-1.6 -2.9,-3.1 0,-1.8 1.5,-3.1 3.8,-3.1 1.2,0 2,0.3 2.6,0.5 l -0.5,1.6 c -0.4,-0.2 -1.1,-0.5 -2.1,-0.5 -1.2,0 -1.8,0.7 -1.8,1.3 0,0.8 0.6,1.2 2.1,1.8 1.9,0.7 2.8,1.6 2.8,3.2 0,1.7 -1.3,3.2 -4.1,3.2 -1.1,0 -2.3,-0.3 -2.9,-0.7 l 0.3,-1.6 z"
   id="path3657"
   inkscape:connector-curvature="0"
   style="fill:#454746" />
	<path
   d="m 571.2,429.8 c 0,1.4 1.2,2 2.4,2 0.9,0 1.6,-0.1 2.2,-0.4 l 0.3,1.4 c -0.7,0.3 -1.6,0.5 -2.7,0.5 -2.5,0 -4,-1.6 -4,-3.9 0,-2.2 1.3,-4.2 3.8,-4.2 2.5,0 3.4,2.1 3.4,3.8 0,0.4 0,0.7 -0.1,0.8 h -5.3 z m 3.4,-1.4 c 0,-0.7 -0.3,-1.9 -1.6,-1.9 -1.2,0 -1.7,1.1 -1.8,1.9 h 3.4 z"
   id="path3659"
   inkscape:connector-curvature="0"
   style="fill:#454746" />
	<path
   d="m 582.4,433.2 -0.1,-0.9 h 0 c -0.5,0.6 -1.3,1 -2.3,1 -1.6,0 -2.4,-1.1 -2.4,-2.3 0,-2 1.7,-3 4.6,-2.9 V 428 c 0,-0.5 -0.2,-1.4 -1.6,-1.4 -0.8,0 -1.6,0.2 -2.1,0.6 l -0.4,-1.3 c 0.6,-0.4 1.6,-0.7 2.8,-0.7 2.5,0 3.2,1.6 3.2,3.3 v 2.8 c 0,0.7 0,1.4 0.1,1.9 h -1.8 z m -0.2,-3.9 c -1.4,0 -2.7,0.3 -2.7,1.5 0,0.8 0.5,1.1 1.1,1.1 0.8,0 1.4,-0.5 1.5,-1.1 0,-0.1 0.1,-0.3 0.1,-0.4 v -1.1 z"
   id="path3661"
   inkscape:connector-curvature="0"
   style="fill:#454746" />
	<path
   d="m 586.2,427.9 c 0,-1.1 0,-1.8 -0.1,-2.5 h 1.7 l 0.1,1.5 h 0.1 c 0.4,-1.1 1.3,-1.7 2.1,-1.7 0.2,0 0.3,0 0.5,0 v 1.9 c -0.2,0 -0.3,-0.1 -0.6,-0.1 -0.9,0 -1.6,0.6 -1.8,1.5 0,0.2 -0.1,0.4 -0.1,0.6 v 4 h -2 v -5.2 z"
   id="path3663"
   inkscape:connector-curvature="0"
   style="fill:#454746" />
	<path
   d="m 597.5,432.9 c -0.4,0.2 -1.2,0.4 -2.2,0.4 -2.4,0 -4,-1.6 -4,-4 0,-2.3 1.6,-4.2 4.3,-4.2 0.7,0 1.5,0.2 1.9,0.4 l -0.4,1.5 c -0.3,-0.1 -0.8,-0.3 -1.5,-0.3 -1.5,0 -2.4,1.1 -2.4,2.5 0,1.6 1,2.5 2.4,2.5 0.7,0 1.2,-0.1 1.6,-0.3 l 0.3,1.5 z"
   id="path3665"
   inkscape:connector-curvature="0"
   style="fill:#454746" />
	<path
   d="m 598.9,421.8 h 2 v 4.6 h 0 c 0.2,-0.4 0.6,-0.7 1,-0.9 0.4,-0.2 0.8,-0.4 1.3,-0.4 1.3,0 2.7,0.9 2.7,3.4 v 4.6 h -2 v -4.4 c 0,-1.1 -0.4,-2 -1.5,-2 -0.8,0 -1.3,0.5 -1.5,1.1 -0.1,0.2 -0.1,0.4 -0.1,0.6 v 4.7 h -2 v -11.3 z"
   id="path3667"
   inkscape:connector-curvature="0"
   style="fill:#454746" />
	<path
   d="m 612.5,433.2 -0.1,-0.9 h 0 c -0.5,0.6 -1.3,1 -2.3,1 -1.6,0 -2.4,-1.1 -2.4,-2.3 0,-2 1.7,-3 4.6,-2.9 V 428 c 0,-0.5 -0.2,-1.4 -1.6,-1.4 -0.8,0 -1.6,0.2 -2.1,0.6 l -0.4,-1.3 c 0.6,-0.4 1.6,-0.7 2.8,-0.7 2.5,0 3.2,1.6 3.2,3.3 v 2.8 c 0,0.7 0,1.4 0.1,1.9 h -1.8 z m -0.3,-3.9 c -1.4,0 -2.7,0.3 -2.7,1.5 0,0.8 0.5,1.1 1.1,1.1 0.8,0 1.4,-0.5 1.5,-1.1 0,-0.1 0.1,-0.3 0.1,-0.4 v -1.1 z"
   id="path3669"
   inkscape:connector-curvature="0"
   style="fill:#454746" />
	<path
   d="m 616.1,433.2 c 0,-0.5 0.1,-1.4 0.1,-2.2 v -9.2 h 2 v 4.6 h 0 c 0.5,-0.8 1.3,-1.2 2.5,-1.2 1.9,0 3.3,1.6 3.2,4 0,2.8 -1.8,4.2 -3.5,4.2 -1,0 -1.9,-0.4 -2.5,-1.3 h 0 l -0.1,1.2 h -1.7 z m 2.1,-3.3 c 0,0.2 0,0.3 0,0.5 0.2,0.8 0.9,1.4 1.7,1.4 1.2,0 2,-1 2,-2.6 0,-1.4 -0.7,-2.5 -2,-2.5 -0.8,0 -1.5,0.6 -1.7,1.4 0,0.1 -0.1,0.3 -0.1,0.5 v 1.3 z"
   id="path3671"
   inkscape:connector-curvature="0"
   style="fill:#454746" />
	<path
   d="m 625.6,421.8 h 2 v 11.4 h -2 v -11.4 z"
   id="path3673"
   inkscape:connector-curvature="0"
   style="fill:#454746" />
	<path
   d="m 631.1,429.8 c 0,1.4 1.2,2 2.4,2 0.9,0 1.6,-0.1 2.2,-0.4 l 0.3,1.4 c -0.7,0.3 -1.6,0.5 -2.7,0.5 -2.5,0 -4,-1.6 -4,-3.9 0,-2.2 1.3,-4.2 3.8,-4.2 2.5,0 3.4,2.1 3.4,3.8 0,0.4 0,0.7 -0.1,0.8 h -5.3 z m 3.4,-1.4 c 0,-0.7 -0.3,-1.9 -1.6,-1.9 -1.2,0 -1.7,1.1 -1.8,1.9 h 3.4 z"
   id="path3675"
   inkscape:connector-curvature="0"
   style="fill:#454746" />
</g>
<g
   id="g3677"
   transform="translate(-374.4,-224.5)">
	<g
   id="g3679">
		<path
   stroke-miterlimit="10"
   d="m 558.6,282.5 c -14.3,18 -71.7,-0.3 -78.9,33.6"
   id="path3681"
   inkscape:connector-curvature="0"
   style="fill:none;stroke:#454746;stroke-width:1.60000002;stroke-linecap:round;stroke-miterlimit:10" />
		<g
   id="g3683">
			<path
   d="m 478.9,323.7 c -0.9,-3.8 -2.7,-8.5 -4.8,-11.6 l 5.8,2.9 6.3,-1.5 c -2.7,2.6 -5.5,6.8 -7.3,10.2 z"
   id="path3685"
   inkscape:connector-curvature="0"
   style="fill:#454746" />
		</g>
	</g>
</g>
<g
   id="g3687"
   transform="translate(-374.4,-224.5)">
	<g
   id="g3689">
		<path
   stroke-miterlimit="10"
   d="m 558.6,282.5 c 14.3,18 71.7,-0.3 78.9,33.6"
   id="path3691"
   inkscape:connector-curvature="0"
   style="fill:none;stroke:#454746;stroke-width:1.60000002;stroke-linecap:round;stroke-miterlimit:10" />
		<g
   id="g3693">
			<path
   d="m 638.3,323.7 c -1.7,-3.5 -4.5,-7.7 -7.3,-10.2 l 6.3,1.5 5.8,-2.9 c -2.1,3.1 -3.9,7.9 -4.8,11.6 z"
   id="path3695"
   inkscape:connector-curvature="0"
   style="fill:#454746" />
		</g>
	</g>
</g>
<g
   id="g3697"
   transform="translate(-374.4,-224.5)">
	<g
   id="g3699">
		<path
   stroke-miterlimit="10"
   d="m 558.6,282.5 c 0,13.1 0.3,-1 0.3,33.6"
   id="path3701"
   inkscape:connector-curvature="0"
   style="fill:none;stroke:#454746;stroke-width:1.60000002;stroke-linecap:round;stroke-miterlimit:10" />
		<g
   id="g3703">
			<path
   d="m 558.9,323.7 c -1.4,-3.6 -3.7,-8.1 -6.1,-10.9 l 6.1,2.2 6.1,-2.2 c -2.5,2.8 -4.8,7.3 -6.1,10.9 z"
   id="path3705"
   inkscape:connector-curvature="0"
   style="fill:#454746" />
		</g>
	</g>
</g>
<path
   stroke-miterlimit="10"
   d="m 385.7,170.9 v 12 c 0,1.7 -1.3,3 -3,3 h -317 c -1.7,0 -3,-1.3 -3,-3 v -12"
   id="path3707"
   inkscape:connector-curvature="0"
   style="fill:none;stroke:#454746;stroke-width:1.60000002;stroke-linecap:round;stroke-miterlimit:10" />
<path
   d="m 104.2,153.2 c 10.2,0 19.7,-1.8 24.9,-4.7 2,-1.2 3.9,-2.5 5.1,-3.6 v -11 c -1.3,0.9 -2.5,1.6 -3.2,2 -5.8,3.2 -15.8,5.2 -26.8,5.2 -11,0 -21.1,-1.9 -26.8,-5.2 -0.7,-0.4 -1.9,-1.1 -3.2,-2 v 11 c 1.2,1.1 3.1,2.5 5.2,3.6 5.1,3 14.6,4.7 24.8,4.7 z"
   id="path3709"
   inkscape:connector-curvature="0"
   style="fill:#75b640" />
<path
   d="M 134.2,158.2 V 150 c -1.3,0.9 -2.5,1.6 -3.2,2 -5.8,3.2 -15.8,5.2 -26.8,5.2 -11,0 -21.1,-1.9 -26.8,-5.2 -0.7,-0.4 -1.9,-1.1 -3.2,-2 v 8.2 c 0,5.5 13.4,10 30,10 16.6,0 30,-4.4 30,-10 z"
   id="path3711"
   inkscape:connector-curvature="0"
   style="fill:#75b640" />
<path
   d="m 104.2,137.2 c 10.2,0 19.7,-1.8 24.8,-4.7 2,-1.2 3.9,-2.5 5.2,-3.6 v -4.7 c 0,-5.5 -13.4,-10 -30,-10 -16.6,0 -30,4.5 -30,10 v 4.7 c 1.2,1.1 3.1,2.5 5.1,3.6 5.2,2.9 14.7,4.7 24.9,4.7 z"
   id="path3713"
   inkscape:connector-curvature="0"
   style="fill:#75b640" />
<path
   d="M 214.2,158.2 V 150 c -1.3,0.9 -2.5,1.6 -3.2,2 -5.8,3.2 -15.8,5.2 -26.8,5.2 -11,0 -21.1,-1.9 -26.8,-5.2 -0.7,-0.4 -1.9,-1.1 -3.2,-2 v 8.2 c 0,5.5 13.4,10 30,10 16.6,0 30,-4.4 30,-10 z"
   id="path3715"
   inkscape:connector-curvature="0"
   style="fill:#75b640" />
<path
   d="m 184.2,153.2 c 10.2,0 19.7,-1.8 24.9,-4.7 2,-1.2 3.9,-2.5 5.1,-3.6 v -11 c -1.3,0.9 -2.5,1.6 -3.2,2 -5.8,3.2 -15.8,5.2 -26.8,5.2 -11,0 -21.1,-1.9 -26.8,-5.2 -0.7,-0.4 -1.9,-1.1 -3.2,-2 v 11 c 1.2,1.1 3.1,2.5 5.2,3.6 5.1,3 14.6,4.7 24.8,4.7 z"
   id="path3717"
   inkscape:connector-curvature="0"
   style="fill:#75b640" />
<path
   d="m 184.2,137.2 c 10.2,0 19.7,-1.8 24.8,-4.7 2,-1.2 3.9,-2.5 5.2,-3.6 v -4.7 c 0,-5.5 -13.4,-10 -30,-10 -16.6,0 -30,4.5 -30,10 v 4.7 c 1.2,1.1 3.1,2.5 5.1,3.6 5.2,2.9 14.7,4.7 24.9,4.7 z"
   id="path3719"
   inkscape:connector-curvature="0"
   style="fill:#75b640" />
<path
   d="m 264.2,137.2 c 10.2,0 19.7,-1.8 24.8,-4.7 2,-1.2 3.9,-2.5 5.2,-3.6 v -4.7 c 0,-5.5 -13.4,-10 -30,-10 -16.6,0 -30,4.5 -30,10 v 4.7 c 1.2,1.1 3.1,2.5 5.1,3.6 5.2,2.9 14.7,4.7 24.9,4.7 z"
   id="path3721"
   inkscape:connector-curvature="0"
   style="fill:#75b640" />
<path
   d="m 264.2,153.2 c 10.2,0 19.7,-1.8 24.9,-4.7 2,-1.2 3.9,-2.5 5.1,-3.6 v -11 c -1.3,0.9 -2.5,1.6 -3.2,2 -5.8,3.2 -15.8,5.2 -26.8,5.2 -11,0 -21.1,-1.9 -26.8,-5.2 -0.7,-0.4 -1.9,-1.1 -3.2,-2 v 11 c 1.2,1.1 3.1,2.5 5.2,3.6 5.1,3 14.6,4.7 24.8,4.7 z"
   id="path3723"
   inkscape:connector-curvature="0"
   style="fill:#75b640" />
<path
   d="M 294.2,158.2 V 150 c -1.3,0.9 -2.5,1.6 -3.2,2 -5.8,3.2 -15.8,5.2 -26.8,5.2 -11,0 -21.1,-1.9 -26.8,-5.2 -0.7,-0.4 -1.9,-1.1 -3.2,-2 v 8.2 c 0,5.5 13.4,10 30,10 16.6,0 30,-4.4 30,-10 z"
   id="path3725"
   inkscape:connector-curvature="0"
   style="fill:#75b640" />
<path
   d="M 374.2,158.2 V 150 c -1.3,0.9 -2.5,1.6 -3.2,2 -5.8,3.2 -15.8,5.2 -26.8,5.2 -11,0 -21.1,-1.9 -26.8,-5.2 -0.7,-0.4 -1.9,-1.1 -3.2,-2 v 8.2 c 0,5.5 13.4,10 30,10 16.6,0 30,-4.4 30,-10 z"
   id="path3727"
   inkscape:connector-curvature="0"
   style="fill:#d3d3d3" />
<path
   d="m 344.2,153.2 c 10.2,0 19.7,-1.8 24.9,-4.7 2,-1.2 3.9,-2.5 5.1,-3.6 v -11 c -1.3,0.9 -2.5,1.6 -3.2,2 -5.8,3.2 -15.8,5.2 -26.8,5.2 -11,0 -21.1,-1.9 -26.8,-5.2 -0.7,-0.4 -1.9,-1.1 -3.2,-2 v 11 c 1.2,1.1 3.1,2.5 5.2,3.6 5.1,3 14.6,4.7 24.8,4.7 z"
   id="path3729"
   inkscape:connector-curvature="0"
   style="fill:#d3d3d3" />
<path
   d="m 344.2,137.2 c 10.2,0 19.7,-1.8 24.8,-4.7 2,-1.2 3.9,-2.5 5.2,-3.6 v -4.7 c 0,-5.5 -13.4,-10 -30,-10 -16.6,0 -30,4.5 -30,10 v 4.7 c 1.2,1.1 3.1,2.5 5.1,3.6 5.2,2.9 14.7,4.7 24.9,4.7 z"
   id="path3731"
   inkscape:connector-curvature="0"
   style="fill:#d3d3d3" />
</svg>