<?xml version="1.0" encoding="UTF-8" standalone="no"?>
<!-- Generator: Adobe Illustrator 18.0.0, SVG Export Plug-In . SVG Version: 6.00 Build 0)  -->

<svg
   xmlns:dc="http://purl.org/dc/elements/1.1/"
   xmlns:cc="http://creativecommons.org/ns#"
   xmlns:rdf="http://www.w3.org/1999/02/22-rdf-syntax-ns#"
   xmlns:svg="http://www.w3.org/2000/svg"
   xmlns="http://www.w3.org/2000/svg"
   xmlns:sodipodi="http://sodipodi.sourceforge.net/DTD/sodipodi-0.dtd"
   xmlns:inkscape="http://www.inkscape.org/namespaces/inkscape"
   version="1.1"
   id="Layer_1"
   x="0px"
   y="0px"
   viewBox="0 0 530 350"
   enable-background="new 0 0 1280 800"
   xml:space="preserve"
   inkscape:version="0.48.2 r9819"
   width="100%"
   height="100%"
   sodipodi:docname="graph_3.4.svg"><metadata
   id="metadata189"><rdf:RDF><cc:Work
       rdf:about=""><dc:format>image/svg+xml</dc:format><dc:type
         rdf:resource="http://purl.org/dc/dcmitype/StillImage" /><dc:title></dc:title></cc:Work></rdf:RDF></metadata><defs
   id="defs187" /><sodipodi:namedview
   pagecolor="#ffffff"
   bordercolor="#666666"
   borderopacity="1"
   objecttolerance="10"
   gridtolerance="10"
   guidetolerance="10"
   inkscape:pageopacity="0"
   inkscape:pageshadow="2"
   inkscape:window-width="640"
   inkscape:window-height="480"
   id="namedview185"
   showgrid="false"
   fit-margin-top="0"
   fit-margin-left="0"
   fit-margin-right="0"
   fit-margin-bottom="0"
   inkscape:zoom="0.275"
   inkscape:cx="196.6"
   inkscape:cy="174.5"
   inkscape:window-x="0"
   inkscape:window-y="0"
   inkscape:window-maximized="0"
   inkscape:current-layer="Layer_1" />
<path
   d="M 527,350 H 3 c -1.7,0 -3,-1.3 -3,-3 V 3 C 0,1.4 1.3,0 3,0 h 524 c 1.7,0 3,1.4 3,3 v 344 c 0,1.6 -1.3,3 -3,3 z"
   id="path3"
   inkscape:connector-curvature="0"
   style="fill:#f8faf6" />
<g
   id="g5"
   transform="translate(-443.4,-224.5)">
	<path
   d="m 519.6,526.4 v 10.8 h -2 v -10.8 h 2 z"
   id="path7"
   inkscape:connector-curvature="0"
   style="fill:#454746" />
	<path
   d="m 521.9,531.7 c 0,-0.9 0,-1.6 -0.1,-2.3 h 1.7 l 0.1,1.2 h 0 c 0.3,-0.6 1.2,-1.3 2.5,-1.3 1.4,0 2.8,0.9 2.8,3.3 v 4.6 h -2 v -4.4 c 0,-1.1 -0.4,-2 -1.5,-2 -0.8,0 -1.3,0.6 -1.5,1.2 -0.1,0.2 -0.1,0.4 -0.1,0.6 v 4.6 h -2 v -5.5 z"
   id="path9"
   inkscape:connector-curvature="0"
   style="fill:#454746" />
	<path
   d="m 534.6,532.3 v 1.4 h -4.1 v -1.4 h 4.1 z"
   id="path11"
   inkscape:connector-curvature="0"
   style="fill:#454746" />
	<path
   d="m 536.1,531.7 c 0,-0.9 0,-1.6 -0.1,-2.3 h 1.7 l 0.1,1.2 h 0 c 0.4,-0.6 1.1,-1.3 2.4,-1.3 1,0 1.8,0.6 2.2,1.4 h 0 c 0.3,-0.4 0.6,-0.8 1,-1 0.4,-0.3 0.9,-0.5 1.6,-0.5 1.3,0 2.6,0.9 2.6,3.4 v 4.6 h -1.9 v -4.3 c 0,-1.3 -0.4,-2.1 -1.4,-2.1 -0.7,0 -1.2,0.5 -1.4,1 0,0.2 -0.1,0.4 -0.1,0.7 v 4.7 h -1.9 v -4.5 c 0,-1.1 -0.4,-1.9 -1.3,-1.9 -0.7,0 -1.2,0.6 -1.4,1.1 -0.1,0.2 -0.1,0.4 -0.1,0.6 v 4.6 h -1.9 v -5.4 z"
   id="path13"
   inkscape:connector-curvature="0"
   style="fill:#454746" />
	<path
   d="m 551.1,533.9 c 0,1.4 1.2,2 2.4,2 0.9,0 1.6,-0.1 2.2,-0.4 l 0.3,1.4 c -0.7,0.3 -1.6,0.5 -2.7,0.5 -2.5,0 -4,-1.6 -4,-3.9 0,-2.2 1.3,-4.2 3.8,-4.2 2.5,0 3.4,2.1 3.4,3.8 0,0.4 0,0.7 -0.1,0.8 h -5.3 z m 3.4,-1.4 c 0,-0.7 -0.3,-1.9 -1.6,-1.9 -1.2,0 -1.7,1.1 -1.8,1.9 h 3.4 z"
   id="path15"
   inkscape:connector-curvature="0"
   style="fill:#454746" />
	<path
   d="m 557.9,531.7 c 0,-0.9 0,-1.6 -0.1,-2.3 h 1.7 l 0.1,1.2 h 0 c 0.4,-0.6 1.1,-1.3 2.4,-1.3 1,0 1.8,0.6 2.2,1.4 h 0 c 0.3,-0.4 0.6,-0.8 1,-1 0.4,-0.3 0.9,-0.5 1.6,-0.5 1.3,0 2.6,0.9 2.6,3.4 v 4.6 h -1.9 v -4.3 c 0,-1.3 -0.4,-2.1 -1.4,-2.1 -0.7,0 -1.2,0.5 -1.4,1 0,0.2 -0.1,0.4 -0.1,0.7 v 4.7 h -1.9 v -4.5 c 0,-1.1 -0.4,-1.9 -1.3,-1.9 -0.7,0 -1.2,0.6 -1.4,1.1 -0.1,0.2 -0.1,0.4 -0.1,0.6 v 4.6 H 558 v -5.4 z"
   id="path17"
   inkscape:connector-curvature="0"
   style="fill:#454746" />
	<path
   d="m 578.9,533.2 c 0,2.9 -2,4.1 -4,4.1 -2.2,0 -3.9,-1.5 -3.9,-4 0,-2.6 1.7,-4.1 4,-4.1 2.4,0 3.9,1.7 3.9,4 z m -5.9,0.1 c 0,1.5 0.7,2.6 1.9,2.6 1.1,0 1.9,-1.1 1.9,-2.7 0,-1.2 -0.5,-2.6 -1.9,-2.6 -1.3,0.1 -1.9,1.4 -1.9,2.7 z"
   id="path19"
   inkscape:connector-curvature="0"
   style="fill:#454746" />
	<path
   d="m 580.5,531.9 c 0,-1.1 0,-1.8 -0.1,-2.5 h 1.7 l 0.1,1.5 h 0.1 c 0.4,-1.1 1.3,-1.7 2.1,-1.7 0.2,0 0.3,0 0.5,0 v 1.9 c -0.2,0 -0.3,-0.1 -0.6,-0.1 -0.9,0 -1.6,0.6 -1.8,1.5 0,0.2 -0.1,0.4 -0.1,0.6 v 4 h -2 v -5.2 z"
   id="path21"
   inkscape:connector-curvature="0"
   style="fill:#454746" />
	<path
   d="m 587.8,529.4 1.4,4.2 c 0.2,0.5 0.3,1.1 0.4,1.5 h 0 c 0.1,-0.4 0.3,-1 0.4,-1.5 l 1.2,-4.2 h 2.1 l -2,5.3 c -1.1,2.9 -1.8,4.2 -2.7,5 -0.8,0.7 -1.6,0.9 -2.1,1 l -0.4,-1.7 c 0.3,-0.1 0.8,-0.3 1.2,-0.5 0.4,-0.2 0.8,-0.7 1.1,-1.2 0.1,-0.1 0.1,-0.3 0.1,-0.4 0,-0.1 0,-0.2 -0.1,-0.4 l -2.8,-7.2 h 2.2 z"
   id="path23"
   inkscape:connector-curvature="0"
   style="fill:#454746" />
	<path
   d="m 597.8,537.2 c 0,-0.5 0.1,-1.4 0.1,-2.2 v -9.2 h 2 v 4.6 h 0 c 0.5,-0.8 1.3,-1.2 2.5,-1.2 1.9,0 3.3,1.6 3.2,4 0,2.8 -1.8,4.2 -3.5,4.2 -1,0 -1.9,-0.4 -2.5,-1.3 h 0 l -0.1,1.2 h -1.7 z m 2,-3.2 c 0,0.2 0,0.3 0,0.5 0.2,0.8 0.9,1.4 1.7,1.4 1.2,0 2,-1 2,-2.6 0,-1.4 -0.7,-2.5 -2,-2.5 -0.8,0 -1.5,0.6 -1.7,1.4 0,0.1 -0.1,0.3 -0.1,0.5 v 1.3 z"
   id="path25"
   inkscape:connector-curvature="0"
   style="fill:#454746" />
	<path
   d="m 614.2,534.9 c 0,0.9 0,1.7 0.1,2.3 h -1.7 l -0.1,-1.2 h 0 c -0.3,0.6 -1.1,1.4 -2.5,1.4 -1.4,0 -2.7,-0.8 -2.7,-3.4 v -4.6 h 2 v 4.2 c 0,1.3 0.4,2.1 1.5,2.1 0.8,0 1.3,-0.6 1.5,-1.1 0.1,-0.2 0.1,-0.4 0.1,-0.6 v -4.7 h 2 v 5.6 z"
   id="path27"
   inkscape:connector-curvature="0"
   style="fill:#454746" />
	<path
   d="m 621.4,537.2 v -6.3 h -2.8 v 6.3 h -2 v -6.3 h -1.1 v -1.5 h 1.1 v -0.2 c 0,-1 0.2,-1.9 0.9,-2.6 0.5,-0.5 1.2,-0.8 2.2,-0.8 0.4,0 0.8,0.1 1.1,0.2 l -0.3,1.5 c -0.2,-0.1 -0.4,-0.1 -0.7,-0.1 -0.9,0 -1.2,0.8 -1.2,1.7 v 0.3 h 2.8 v -0.3 c 0,-1 0.3,-2 1,-2.7 0.6,-0.5 1.3,-0.8 2,-0.8 0.5,0 0.9,0.1 1.2,0.2 l -0.1,1.5 c -0.2,-0.1 -0.5,-0.1 -0.8,-0.1 -1,0 -1.3,0.8 -1.3,1.8 v 0.4 h 1.7 v 1.5 h -1.7 v 6.3 h -2 z"
   id="path29"
   inkscape:connector-curvature="0"
   style="fill:#454746" />
	<path
   d="m 627.5,533.9 c 0,1.4 1.2,2 2.4,2 0.9,0 1.6,-0.1 2.2,-0.4 l 0.3,1.4 c -0.7,0.3 -1.6,0.5 -2.7,0.5 -2.5,0 -4,-1.6 -4,-3.9 0,-2.2 1.3,-4.2 3.8,-4.2 2.5,0 3.4,2.1 3.4,3.8 0,0.4 0,0.7 -0.1,0.8 h -5.3 z m 3.4,-1.4 c 0,-0.7 -0.3,-1.9 -1.6,-1.9 -1.2,0 -1.7,1.1 -1.8,1.9 h 3.4 z"
   id="path31"
   inkscape:connector-curvature="0"
   style="fill:#454746" />
	<path
   d="m 634.3,531.9 c 0,-1.1 0,-1.8 -0.1,-2.5 h 1.7 l 0.1,1.5 h 0.1 c 0.4,-1.1 1.3,-1.7 2.1,-1.7 0.2,0 0.3,0 0.5,0 v 1.9 c -0.2,0 -0.3,-0.1 -0.6,-0.1 -0.9,0 -1.6,0.6 -1.8,1.5 0,0.2 -0.1,0.4 -0.1,0.6 v 4 h -2 v -5.2 z"
   id="path33"
   inkscape:connector-curvature="0"
   style="fill:#454746" />
</g>
<path
   stroke-miterlimit="10"
   d="M 202.6,291.3 H 65.8 c -1.7,0 -3.1,-1.3 -3.1,-3 v -48 c 0,-1.7 1.4,-3 3.1,-3 h 136.8 c 1.7,0 3.1,1.3 3.1,3 v 48 c 0,1.6 -1.4,3 -3.1,3 z"
   id="path35"
   inkscape:connector-curvature="0"
   style="fill:#ffffff;stroke:#c6c6c6;stroke-width:1.60000002;stroke-linecap:round;stroke-miterlimit:10;stroke-dasharray:4" />
<path
   d="m 104.2,157.4 c -11,0 -21.1,-1.9 -26.8,-5.2 -0.7,-0.4 -1.9,-1.1 -3.2,-2 v 8.2 c 0,5.5 13.4,10 30,10 16.6,0 30,-4.5 30,-10 v -8.2 c -1.3,0.9 -2.5,1.6 -3.2,2 -5.7,3.3 -15.7,5.2 -26.8,5.2 z"
   id="path37"
   inkscape:connector-curvature="0"
   style="fill:#75b640" />
<path
   d="m 104.2,137.4 c 10.2,0 19.8,-1.8 24.8,-4.7 2,-1.2 3.9,-2.5 5.1,-3.6 v -4.7 c 0,-5.5 -13.4,-10 -30,-10 -16.6,0 -30,4.5 -30,10 v 4.7 c 1.2,1.1 3.1,2.5 5.1,3.6 5.3,2.9 14.8,4.7 25,4.7 z"
   id="path39"
   inkscape:connector-curvature="0"
   style="fill:#75b640" />
<path
   d="m 131,136.2 c -5.7,3.2 -15.8,5.2 -26.8,5.2 -11,0 -21.1,-1.9 -26.8,-5.2 -0.7,-0.4 -1.9,-1.1 -3.2,-2 v 11 c 1.2,1.1 3.1,2.5 5.1,3.6 5.1,2.9 14.6,4.7 24.9,4.7 10.3,0 19.7,-1.8 24.8,-4.7 2,-1.2 3.9,-2.5 5.1,-3.6 v -11 c -1.2,0.9 -2.4,1.6 -3.1,2 z"
   id="path41"
   inkscape:connector-curvature="0"
   style="fill:#75b640" />
<path
   d="m 184.2,157.4 c -11,0 -21.1,-1.9 -26.8,-5.2 -0.7,-0.4 -1.9,-1.1 -3.2,-2 v 8.2 c 0,5.5 13.4,10 30,10 16.6,0 30,-4.5 30,-10 v -8.2 c -1.3,0.9 -2.5,1.6 -3.2,2 -5.7,3.3 -15.7,5.2 -26.8,5.2 z"
   id="path43"
   inkscape:connector-curvature="0"
   style="fill:#75b640" />
<path
   d="m 211,136.2 c -5.7,3.2 -15.8,5.2 -26.8,5.2 -11,0 -21.1,-1.9 -26.8,-5.2 -0.7,-0.4 -1.9,-1.1 -3.2,-2 v 11 c 1.2,1.1 3.1,2.5 5.1,3.6 5.1,2.9 14.6,4.7 24.9,4.7 10.3,0 19.7,-1.8 24.8,-4.7 2,-1.2 3.9,-2.5 5.1,-3.6 v -11 c -1.2,0.9 -2.4,1.6 -3.1,2 z"
   id="path45"
   inkscape:connector-curvature="0"
   style="fill:#75b640" />
<path
   d="m 184.2,137.4 c 10.2,0 19.8,-1.8 24.8,-4.7 2,-1.2 3.9,-2.5 5.1,-3.6 v -4.7 c 0,-5.5 -13.4,-10 -30,-10 -16.6,0 -30,4.5 -30,10 v 4.7 c 1.2,1.1 3.1,2.5 5.1,3.6 5.3,2.9 14.8,4.7 25,4.7 z"
   id="path47"
   inkscape:connector-curvature="0"
   style="fill:#75b640" />
<path
   d="m 291,136.2 c -5.7,3.2 -15.8,5.2 -26.8,5.2 -11,0 -21.1,-1.9 -26.8,-5.2 -0.7,-0.4 -1.9,-1.1 -3.2,-2 v 11 c 1.2,1.1 3.1,2.5 5.1,3.6 5.1,2.9 14.6,4.7 24.9,4.7 10.3,0 19.7,-1.8 24.8,-4.7 2,-1.2 3.9,-2.5 5.1,-3.6 v -11 c -1.2,0.9 -2.4,1.6 -3.1,2 z"
   id="path49"
   inkscape:connector-curvature="0"
   style="fill:#75b640" />
<path
   d="m 264.2,137.4 c 10.2,0 19.8,-1.8 24.8,-4.7 2,-1.2 3.9,-2.5 5.1,-3.6 v -4.7 c 0,-5.5 -13.4,-10 -30,-10 -16.6,0 -30,4.5 -30,10 v 4.7 c 1.2,1.1 3.1,2.5 5.1,3.6 5.3,2.9 14.8,4.7 25,4.7 z"
   id="path51"
   inkscape:connector-curvature="0"
   style="fill:#75b640" />
<path
   d="m 264.2,157.4 c -11,0 -21.1,-1.9 -26.8,-5.2 -0.7,-0.4 -1.9,-1.1 -3.2,-2 v 8.2 c 0,5.5 13.4,10 30,10 16.6,0 30,-4.5 30,-10 v -8.2 c -1.3,0.9 -2.5,1.6 -3.2,2 -5.7,3.3 -15.7,5.2 -26.8,5.2 z"
   id="path53"
   inkscape:connector-curvature="0"
   style="fill:#75b640" />
<path
   d="m 344.2,137.4 c 10.2,0 19.8,-1.8 24.8,-4.7 2,-1.2 3.9,-2.5 5.1,-3.6 v -4.7 c 0,-5.5 -13.4,-10 -30,-10 -16.6,0 -30,4.5 -30,10 v 4.7 c 1.2,1.1 3.1,2.5 5.1,3.6 5.3,2.9 14.8,4.7 25,4.7 z"
   id="path55"
   inkscape:connector-curvature="0"
   style="fill:#75b640" />
<path
   d="m 344.2,157.4 c -11,0 -21.1,-1.9 -26.8,-5.2 -0.7,-0.4 -1.9,-1.1 -3.2,-2 v 8.2 c 0,5.5 13.4,10 30,10 16.6,0 30,-4.5 30,-10 v -8.2 c -1.3,0.9 -2.5,1.6 -3.2,2 -5.7,3.3 -15.7,5.2 -26.8,5.2 z"
   id="path57"
   inkscape:connector-curvature="0"
   style="fill:#75b640" />
<path
   d="m 371,136.2 c -5.7,3.2 -15.8,5.2 -26.8,5.2 -11,0 -21.1,-1.9 -26.8,-5.2 -0.7,-0.4 -1.9,-1.1 -3.2,-2 v 11 c 1.2,1.1 3.1,2.5 5.1,3.6 5.1,2.9 14.6,4.7 24.9,4.7 10.3,0 19.7,-1.8 24.8,-4.7 2,-1.2 3.9,-2.5 5.1,-3.6 v -11 c -1.2,0.9 -2.4,1.6 -3.1,2 z"
   id="path59"
   inkscape:connector-curvature="0"
   style="fill:#75b640" />
<path
   d="m 424.2,137.4 c 10.2,0 19.8,-1.8 24.8,-4.7 2,-1.2 3.9,-2.5 5.1,-3.6 v -4.7 c 0,-5.5 -13.4,-10 -30,-10 -16.6,0 -30,4.5 -30,10 v 4.7 c 1.2,1.1 3.1,2.5 5.1,3.6 5.3,2.9 14.8,4.7 25,4.7 z"
   id="path61"
   inkscape:connector-curvature="0"
   style="fill:#75b640" />
<path
   d="m 424.2,153.4 c 10.2,0 19.7,-1.8 24.8,-4.7 2,-1.2 3.9,-2.5 5.1,-3.6 v -11 c -1.3,0.9 -2.5,1.6 -3.2,2 -5.7,3.2 -15.8,5.2 -26.8,5.2 -11,0 -21.1,-1.9 -26.8,-5.2 -0.7,-0.4 -1.9,-1.1 -3.2,-2 v 11 c 1.2,1.1 3.1,2.5 5.1,3.6 5.3,3 14.8,4.7 25,4.7 z"
   id="path63"
   inkscape:connector-curvature="0"
   style="fill:#75b640" />
<path
   d="m 424.2,157.4 c -11,0 -21.1,-1.9 -26.8,-5.2 -0.7,-0.4 -1.9,-1.1 -3.2,-2 v 8.2 c 0,5.5 13.4,10 30,10 16.6,0 30,-4.5 30,-10 v -8.2 c -1.3,0.9 -2.5,1.6 -3.2,2 -5.7,3.3 -15.7,5.2 -26.8,5.2 z"
   id="path65"
   inkscape:connector-curvature="0"
   style="fill:#75b640" />
<g
   id="g67"
   transform="translate(-443.4,-224.5)">
	<path
   d="m 669,270.6 c -0.5,0.2 -1.5,0.5 -2.8,0.5 -3.4,0 -5.5,-2.1 -5.5,-5.4 0,-3.6 2.5,-5.7 5.8,-5.7 1.3,0 2.2,0.3 2.6,0.5 l -0.4,1.6 c -0.5,-0.2 -1.2,-0.4 -2.1,-0.4 -2.2,0 -3.8,1.4 -3.8,4 0,2.4 1.4,3.9 3.8,3.9 0.8,0 1.6,-0.2 2.1,-0.4 l 0.3,1.4 z"
   id="path69"
   inkscape:connector-curvature="0"
   style="fill:#454746" />
	<path
   d="m 677.8,267 c 0,2.9 -2,4.1 -4,4.1 -2.2,0 -3.9,-1.5 -3.9,-4 0,-2.6 1.7,-4.1 4,-4.1 2.3,0 3.9,1.6 3.9,4 z m -5.9,0.1 c 0,1.5 0.7,2.6 1.9,2.6 1.1,0 1.9,-1.1 1.9,-2.7 0,-1.2 -0.5,-2.6 -1.9,-2.6 -1.3,0 -1.9,1.4 -1.9,2.7 z"
   id="path71"
   inkscape:connector-curvature="0"
   style="fill:#454746" />
	<path
   d="m 679.4,265.5 c 0,-0.9 0,-1.6 -0.1,-2.3 h 1.7 l 0.1,1.2 h 0 c 0.4,-0.6 1.1,-1.3 2.4,-1.3 1,0 1.8,0.6 2.2,1.4 h 0 c 0.3,-0.4 0.6,-0.8 1,-1 0.4,-0.3 0.9,-0.5 1.6,-0.5 1.3,0 2.6,0.9 2.6,3.4 V 271 H 689 v -4.3 c 0,-1.3 -0.4,-2.1 -1.4,-2.1 -0.7,0 -1.2,0.5 -1.4,1 0,0.2 -0.1,0.4 -0.1,0.7 v 4.7 h -1.9 v -4.5 c 0,-1.1 -0.4,-1.9 -1.3,-1.9 -0.7,0 -1.2,0.6 -1.4,1.1 -0.1,0.2 -0.1,0.4 -0.1,0.6 v 4.6 h -1.9 v -5.4 z"
   id="path73"
   inkscape:connector-curvature="0"
   style="fill:#454746" />
	<path
   d="m 693,265.5 c 0,-0.9 0,-1.6 -0.1,-2.3 h 1.7 l 0.1,1.2 h 0 c 0.4,-0.6 1.1,-1.3 2.4,-1.3 1,0 1.8,0.6 2.2,1.4 h 0 c 0.3,-0.4 0.6,-0.8 1,-1 0.4,-0.3 0.9,-0.5 1.6,-0.5 1.3,0 2.6,0.9 2.6,3.4 v 4.6 h -1.9 v -4.3 c 0,-1.3 -0.4,-2.1 -1.4,-2.1 -0.7,0 -1.2,0.5 -1.4,1 0,0.2 -0.1,0.4 -0.1,0.7 v 4.7 h -1.9 v -4.5 c 0,-1.1 -0.4,-1.9 -1.3,-1.9 -0.7,0 -1.2,0.6 -1.4,1.1 -0.1,0.2 -0.1,0.4 -0.1,0.6 v 4.6 h -2 v -5.4 z"
   id="path75"
   inkscape:connector-curvature="0"
   style="fill:#454746" />
	<path
   d="m 708.6,261 c 0,0.6 -0.4,1.1 -1.1,1.1 -0.7,0 -1.1,-0.5 -1.1,-1.1 0,-0.6 0.4,-1.1 1.1,-1.1 0.7,0 1.1,0.5 1.1,1.1 z m -2.1,9.9 v -7.8 h 2 v 7.8 h -2 z"
   id="path77"
   inkscape:connector-curvature="0"
   style="fill:#454746" />
	<path
   d="m 712.9,260.9 v 2.2 h 1.9 v 1.5 h -1.9 v 3.4 c 0,0.9 0.3,1.4 1,1.4 0.3,0 0.6,0 0.8,-0.1 l 0,1.5 c -0.3,0.1 -0.8,0.2 -1.4,0.2 -0.7,0 -1.3,-0.2 -1.7,-0.6 -0.4,-0.4 -0.6,-1.2 -0.6,-2.2 v -3.7 h -1.1 V 263 h 1.1 v -1.8 l 1.9,-0.3 z"
   id="path79"
   inkscape:connector-curvature="0"
   style="fill:#454746" />
	<path
   d="m 719.6,265.7 c 0,-1 0,-1.9 -0.1,-2.6 h 1.7 l 0.1,1.2 h 0 c 0.6,-0.9 1.5,-1.4 2.7,-1.4 1.8,0 3.3,1.5 3.3,4 0,2.8 -1.8,4.2 -3.6,4.2 -1,0 -1.8,-0.4 -2.2,-1 h 0 v 4 h -2 v -8.4 z m 1.9,2 c 0,0.2 0,0.4 0.1,0.5 0.2,0.8 0.9,1.4 1.7,1.4 1.2,0 2,-1 2,-2.6 0,-1.4 -0.7,-2.5 -1.9,-2.5 -0.8,0 -1.6,0.6 -1.8,1.5 0,0.2 -0.1,0.3 -0.1,0.5 v 1.2 z"
   id="path81"
   inkscape:connector-curvature="0"
   style="fill:#454746" />
	<path
   d="m 736.3,267 c 0,2.9 -2,4.1 -4,4.1 -2.2,0 -3.9,-1.5 -3.9,-4 0,-2.6 1.7,-4.1 4,-4.1 2.4,0 3.9,1.6 3.9,4 z m -5.8,0.1 c 0,1.5 0.7,2.6 1.9,2.6 1.1,0 1.9,-1.1 1.9,-2.7 0,-1.2 -0.5,-2.6 -1.9,-2.6 -1.4,0 -1.9,1.4 -1.9,2.7 z"
   id="path83"
   inkscape:connector-curvature="0"
   style="fill:#454746" />
	<path
   d="m 740,261 c 0,0.6 -0.4,1.1 -1.1,1.1 -0.7,0 -1.1,-0.5 -1.1,-1.1 0,-0.6 0.4,-1.1 1.1,-1.1 0.7,0 1.1,0.5 1.1,1.1 z m -2.1,9.9 v -7.8 h 2 v 7.8 h -2 z"
   id="path85"
   inkscape:connector-curvature="0"
   style="fill:#454746" />
	<path
   d="m 742,265.5 c 0,-0.9 0,-1.6 -0.1,-2.3 h 1.7 l 0.1,1.2 h 0 c 0.3,-0.6 1.2,-1.3 2.5,-1.3 1.4,0 2.8,0.9 2.8,3.3 v 4.6 h -2 v -4.4 c 0,-1.1 -0.4,-2 -1.5,-2 -0.8,0 -1.3,0.6 -1.5,1.2 -0.1,0.2 -0.1,0.4 -0.1,0.6 v 4.6 h -2 v -5.5 z"
   id="path87"
   inkscape:connector-curvature="0"
   style="fill:#454746" />
	<path
   d="m 753.4,260.9 v 2.2 h 1.9 v 1.5 h -1.9 v 3.4 c 0,0.9 0.3,1.4 1,1.4 0.3,0 0.6,0 0.8,-0.1 l 0,1.5 c -0.3,0.1 -0.8,0.2 -1.4,0.2 -0.7,0 -1.3,-0.2 -1.7,-0.6 -0.4,-0.4 -0.6,-1.2 -0.6,-2.2 v -3.7 h -1.1 V 263 h 1.1 v -1.8 l 1.9,-0.3 z"
   id="path89"
   inkscape:connector-curvature="0"
   style="fill:#454746" />
</g>
<g
   id="g91"
   transform="translate(-443.4,-224.5)">
	<path
   d="m 670.7,431.2 c 0.6,0.4 1.6,0.7 2.6,0.7 1.3,0 2,-0.6 2,-1.5 0,-0.8 -0.5,-1.3 -1.9,-1.8 -1.8,-0.6 -2.9,-1.6 -2.9,-3.1 0,-1.8 1.5,-3.1 3.8,-3.1 1.2,0 2,0.3 2.6,0.5 l -0.5,1.6 c -0.4,-0.2 -1.1,-0.5 -2.1,-0.5 -1.2,0 -1.8,0.7 -1.8,1.3 0,0.8 0.6,1.2 2.1,1.8 1.9,0.7 2.8,1.6 2.8,3.2 0,1.7 -1.3,3.2 -4.1,3.2 -1.1,0 -2.3,-0.3 -2.9,-0.7 l 0.3,-1.6 z"
   id="path93"
   inkscape:connector-curvature="0"
   style="fill:#454746" />
	<path
   d="m 680.5,430 c 0,1.4 1.2,2 2.4,2 0.9,0 1.6,-0.1 2.2,-0.4 l 0.3,1.4 c -0.7,0.3 -1.6,0.5 -2.7,0.5 -2.5,0 -4,-1.6 -4,-3.9 0,-2.2 1.3,-4.2 3.8,-4.2 2.5,0 3.4,2.1 3.4,3.8 0,0.4 0,0.7 -0.1,0.8 h -5.3 z m 3.4,-1.4 c 0,-0.7 -0.3,-1.9 -1.6,-1.9 -1.2,0 -1.7,1.1 -1.8,1.9 h 3.4 z"
   id="path95"
   inkscape:connector-curvature="0"
   style="fill:#454746" />
	<path
   d="m 691.7,433.4 -0.1,-0.9 h 0 c -0.5,0.6 -1.3,1 -2.3,1 -1.6,0 -2.4,-1.1 -2.4,-2.3 0,-2 1.7,-3 4.6,-2.9 v -0.1 c 0,-0.5 -0.2,-1.4 -1.6,-1.4 -0.8,0 -1.6,0.2 -2.1,0.6 l -0.4,-1.3 c 0.6,-0.4 1.6,-0.7 2.8,-0.7 2.5,0 3.2,1.6 3.2,3.3 v 2.8 c 0,0.7 0,1.4 0.1,1.9 h -1.8 z m -0.2,-3.9 c -1.4,0 -2.7,0.3 -2.7,1.5 0,0.8 0.5,1.1 1.1,1.1 0.8,0 1.4,-0.5 1.5,-1.1 0,-0.1 0.1,-0.3 0.1,-0.4 v -1.1 z"
   id="path97"
   inkscape:connector-curvature="0"
   style="fill:#454746" />
	<path
   d="m 695.5,428.1 c 0,-1.1 0,-1.8 -0.1,-2.5 h 1.7 l 0.1,1.5 h 0.1 c 0.4,-1.1 1.3,-1.7 2.1,-1.7 0.2,0 0.3,0 0.5,0 v 1.9 c -0.2,0 -0.3,-0.1 -0.6,-0.1 -0.9,0 -1.6,0.6 -1.8,1.5 0,0.2 -0.1,0.4 -0.1,0.6 v 4 h -2 v -5.2 z"
   id="path99"
   inkscape:connector-curvature="0"
   style="fill:#454746" />
	<path
   d="m 706.8,433.1 c -0.4,0.2 -1.2,0.4 -2.2,0.4 -2.4,0 -4,-1.6 -4,-4 0,-2.3 1.6,-4.2 4.3,-4.2 0.7,0 1.5,0.2 1.9,0.4 l -0.4,1.5 c -0.3,-0.1 -0.8,-0.3 -1.5,-0.3 -1.5,0 -2.4,1.1 -2.4,2.5 0,1.6 1,2.5 2.4,2.5 0.7,0 1.2,-0.1 1.6,-0.3 l 0.3,1.5 z"
   id="path101"
   inkscape:connector-curvature="0"
   style="fill:#454746" />
	<path
   d="m 708.2,422 h 2 v 4.6 h 0 c 0.2,-0.4 0.6,-0.7 1,-0.9 0.4,-0.2 0.8,-0.4 1.3,-0.4 1.3,0 2.7,0.9 2.7,3.4 v 4.6 h -2 V 429 c 0,-1.1 -0.4,-2 -1.5,-2 -0.8,0 -1.3,0.5 -1.5,1.1 -0.1,0.2 -0.1,0.4 -0.1,0.6 v 4.7 h -2 V 422 z"
   id="path103"
   inkscape:connector-curvature="0"
   style="fill:#454746" />
	<path
   d="m 721.8,433.4 -0.1,-0.9 h 0 c -0.5,0.6 -1.3,1 -2.3,1 -1.6,0 -2.4,-1.1 -2.4,-2.3 0,-2 1.7,-3 4.6,-2.9 v -0.1 c 0,-0.5 -0.2,-1.4 -1.6,-1.4 -0.8,0 -1.6,0.2 -2.1,0.6 l -0.4,-1.3 c 0.6,-0.4 1.6,-0.7 2.8,-0.7 2.5,0 3.2,1.6 3.2,3.3 v 2.8 c 0,0.7 0,1.4 0.1,1.9 h -1.8 z m -0.3,-3.9 c -1.4,0 -2.7,0.3 -2.7,1.5 0,0.8 0.5,1.1 1.1,1.1 0.8,0 1.4,-0.5 1.5,-1.1 0,-0.1 0.1,-0.3 0.1,-0.4 v -1.1 z"
   id="path105"
   inkscape:connector-curvature="0"
   style="fill:#454746" />
	<path
   d="m 725.4,433.4 c 0,-0.5 0.1,-1.4 0.1,-2.2 V 422 h 2 v 4.6 h 0 c 0.5,-0.8 1.3,-1.2 2.5,-1.2 1.9,0 3.3,1.6 3.2,4 0,2.8 -1.8,4.2 -3.5,4.2 -1,0 -1.9,-0.4 -2.5,-1.3 h 0 l -0.1,1.2 h -1.7 z m 2.1,-3.3 c 0,0.2 0,0.3 0,0.5 0.2,0.8 0.9,1.4 1.7,1.4 1.2,0 2,-1 2,-2.6 0,-1.4 -0.7,-2.5 -2,-2.5 -0.8,0 -1.5,0.6 -1.7,1.4 0,0.1 -0.1,0.3 -0.1,0.5 v 1.3 z"
   id="path107"
   inkscape:connector-curvature="0"
   style="fill:#454746" />
	<path
   d="m 734.9,422 h 2 v 11.4 h -2 V 422 z"
   id="path109"
   inkscape:connector-curvature="0"
   style="fill:#454746" />
	<path
   d="m 740.4,430 c 0,1.4 1.2,2 2.4,2 0.9,0 1.6,-0.1 2.2,-0.4 l 0.3,1.4 c -0.7,0.3 -1.6,0.5 -2.7,0.5 -2.5,0 -4,-1.6 -4,-3.9 0,-2.2 1.3,-4.2 3.8,-4.2 2.5,0 3.4,2.1 3.4,3.8 0,0.4 0,0.7 -0.1,0.8 h -5.3 z m 3.4,-1.4 c 0,-0.7 -0.3,-1.9 -1.6,-1.9 -1.2,0 -1.7,1.1 -1.8,1.9 h 3.4 z"
   id="path111"
   inkscape:connector-curvature="0"
   style="fill:#454746" />
</g>
<g
   id="g113"
   transform="translate(-443.4,-224.5)">
	<g
   id="g115">
		<path
   stroke-miterlimit="10"
   d="m 707.6,282.7 c -14.3,18 -71.7,-0.3 -78.9,33.6"
   id="path117"
   inkscape:connector-curvature="0"
   style="fill:none;stroke:#454746;stroke-width:1.60000002;stroke-linecap:round;stroke-miterlimit:10" />
		<g
   id="g119">
			<path
   d="m 627.9,323.9 c -0.9,-3.8 -2.7,-8.5 -4.8,-11.6 l 5.8,2.9 6.3,-1.5 c -2.7,2.6 -5.5,6.8 -7.3,10.2 z"
   id="path121"
   inkscape:connector-curvature="0"
   style="fill:#454746" />
		</g>
	</g>
</g>
<g
   id="g123"
   transform="translate(-443.4,-224.5)">
	<g
   id="g125">
		<path
   stroke-miterlimit="10"
   d="m 707.6,282.7 c 14.3,18 71.7,-0.3 78.9,33.6"
   id="path127"
   inkscape:connector-curvature="0"
   style="fill:none;stroke:#454746;stroke-width:1.60000002;stroke-linecap:round;stroke-miterlimit:10" />
		<g
   id="g129">
			<path
   d="m 787.3,323.9 c -1.7,-3.5 -4.5,-7.7 -7.3,-10.2 l 6.3,1.5 5.8,-2.9 c -2.1,3.1 -3.9,7.9 -4.8,11.6 z"
   id="path131"
   inkscape:connector-curvature="0"
   style="fill:#454746" />
		</g>
	</g>
</g>
<g
   id="g133"
   transform="translate(-443.4,-224.5)">
	<g
   id="g135">
		<path
   stroke-miterlimit="10"
   d="m 707.6,283.7 c 0,13.1 0.3,-1.8 0.3,32.6"
   id="path137"
   inkscape:connector-curvature="0"
   style="fill:none;stroke:#454746;stroke-width:1.60000002;stroke-linecap:round;stroke-miterlimit:10" />
		<g
   id="g139">
			<path
   d="m 707.9,323.9 c -1.4,-3.6 -3.7,-8.1 -6.1,-10.9 l 6.1,2.2 6.1,-2.2 c -2.5,2.8 -4.8,7.3 -6.1,10.9 z"
   id="path141"
   inkscape:connector-curvature="0"
   style="fill:#454746" />
		</g>
	</g>
</g>
<path
   stroke-miterlimit="10"
   d="m 464,171.1 v 12 c 0,1.7 -1.3,3 -3,3 H 65.7 c -1.7,0 -3,-1.3 -3,-3 v -12"
   id="path143"
   inkscape:connector-curvature="0"
   style="fill:none;stroke:#454746;stroke-width:1.60000002;stroke-linecap:round;stroke-miterlimit:10" />
<g
   id="g145"
   transform="translate(-443.4,-224.5)">
	<g
   id="g147">
		<path
   stroke-miterlimit="10"
   d="M 707.6,282.7 C 671,288.3 562.2,280.8 548.9,316.4"
   id="path149"
   inkscape:connector-curvature="0"
   style="fill:none;stroke:#454746;stroke-width:1.60000002;stroke-linecap:round;stroke-miterlimit:10" />
		<g
   id="g151">
			<path
   d="m 547.6,323.9 c -0.6,-3.8 -2,-8.7 -3.9,-11.9 l 5.6,3.3 6.4,-1 c -2.9,2.4 -6.1,6.3 -8.1,9.6 z"
   id="path153"
   inkscape:connector-curvature="0"
   style="fill:#454746" />
		</g>
	</g>
</g>
<g
   id="g155"
   transform="translate(-443.4,-224.5)">
	<g
   id="g157">
		<path
   stroke-miterlimit="10"
   d="m 707.6,282.7 c 36.6,5.6 145.4,-1.9 158.7,33.7"
   id="path159"
   inkscape:connector-curvature="0"
   style="fill:none;stroke:#454746;stroke-width:1.60000002;stroke-linecap:round;stroke-miterlimit:10" />
		<g
   id="g161">
			<path
   d="m 867.6,323.9 c -2,-3.3 -5.1,-7.3 -8.1,-9.6 l 6.4,1 5.6,-3.3 c -1.9,3.3 -3.3,8.1 -3.9,11.9 z"
   id="path163"
   inkscape:connector-curvature="0"
   style="fill:#454746" />
		</g>
	</g>
</g>
<g
   id="g165"
   transform="translate(-443.4,-224.5)">
	<path
   d="M 761.1,527.7 H 758 v -1.6 h 8.1 v 1.6 H 763 v 9.1 h -2 v -9.1 z"
   id="path167"
   inkscape:connector-curvature="0"
   style="fill:#454746" />
	<path
   d="m 766.5,531.6 c 0,-1.1 0,-1.8 -0.1,-2.5 h 1.7 l 0.1,1.5 h 0.1 c 0.4,-1.1 1.3,-1.7 2.1,-1.7 0.2,0 0.3,0 0.5,0 v 1.9 c -0.2,0 -0.3,-0.1 -0.6,-0.1 -0.9,0 -1.6,0.6 -1.8,1.5 0,0.2 -0.1,0.4 -0.1,0.6 v 4 h -2 v -5.2 z"
   id="path169"
   inkscape:connector-curvature="0"
   style="fill:#454746" />
	<path
   d="m 776.5,536.9 -0.1,-0.9 h 0 c -0.5,0.6 -1.3,1 -2.3,1 -1.6,0 -2.4,-1.1 -2.4,-2.3 0,-2 1.7,-3 4.6,-2.9 v -0.1 c 0,-0.5 -0.2,-1.4 -1.6,-1.4 -0.8,0 -1.6,0.2 -2.1,0.6 l -0.4,-1.3 c 0.6,-0.4 1.6,-0.7 2.8,-0.7 2.5,0 3.2,1.6 3.2,3.3 v 2.8 c 0,0.7 0,1.4 0.1,1.9 h -1.8 z m -0.3,-3.8 c -1.4,0 -2.7,0.3 -2.7,1.5 0,0.8 0.5,1.1 1.1,1.1 0.8,0 1.4,-0.5 1.5,-1.1 0,-0.1 0.1,-0.3 0.1,-0.4 v -1.1 z"
   id="path171"
   inkscape:connector-curvature="0"
   style="fill:#454746" />
	<path
   d="m 780.2,531.4 c 0,-0.9 0,-1.6 -0.1,-2.3 h 1.7 l 0.1,1.2 h 0 c 0.3,-0.6 1.2,-1.3 2.5,-1.3 1.4,0 2.8,0.9 2.8,3.3 v 4.6 h -2 v -4.4 c 0,-1.1 -0.4,-2 -1.5,-2 -0.8,0 -1.3,0.6 -1.5,1.2 -0.1,0.2 -0.1,0.4 -0.1,0.6 v 4.6 h -2 v -5.5 z"
   id="path173"
   inkscape:connector-curvature="0"
   style="fill:#454746" />
	<path
   d="m 789.3,535.1 c 0.4,0.3 1.3,0.6 2,0.6 0.9,0 1.2,-0.4 1.2,-0.9 0,-0.5 -0.3,-0.8 -1.3,-1.1 -1.5,-0.5 -2.2,-1.4 -2.1,-2.3 0,-1.4 1.1,-2.4 2.9,-2.4 0.9,0 1.6,0.2 2.1,0.5 l -0.4,1.4 c -0.3,-0.2 -1,-0.4 -1.6,-0.4 -0.7,0 -1.1,0.3 -1.1,0.8 0,0.5 0.4,0.7 1.4,1.1 1.4,0.5 2.1,1.2 2.1,2.4 0,1.4 -1.1,2.4 -3.2,2.4 -0.9,0 -1.8,-0.2 -2.4,-0.5 l 0.4,-1.6 z"
   id="path175"
   inkscape:connector-curvature="0"
   style="fill:#454746" />
	<path
   d="m 796,525.5 h 2 v 11.4 h -2 v -11.4 z"
   id="path177"
   inkscape:connector-curvature="0"
   style="fill:#454746" />
	<path
   d="m 807.6,532.9 c 0,2.9 -2,4.1 -4,4.1 -2.2,0 -3.9,-1.5 -3.9,-4 0,-2.6 1.7,-4.1 4,-4.1 2.3,0 3.9,1.6 3.9,4 z m -5.9,0.1 c 0,1.5 0.7,2.6 1.9,2.6 1.1,0 1.9,-1.1 1.9,-2.7 0,-1.2 -0.5,-2.6 -1.9,-2.6 -1.3,0 -1.9,1.4 -1.9,2.7 z"
   id="path179"
   inkscape:connector-curvature="0"
   style="fill:#454746" />
	<path
   d="m 816.3,529.1 c 0,0.5 -0.1,1.2 -0.1,2.2 v 4.4 c 0,1.6 -0.3,2.8 -1.2,3.5 -0.8,0.7 -1.9,0.9 -3,0.9 -1,0 -2,-0.2 -2.7,-0.6 l 0.4,-1.5 c 0.5,0.3 1.3,0.6 2.3,0.6 1.3,0 2.2,-0.7 2.2,-2.4 v -0.7 h 0 c -0.4,0.7 -1.2,1.2 -2.3,1.2 -1.9,0 -3.3,-1.6 -3.3,-3.8 0,-2.6 1.7,-4.1 3.5,-4.1 1.2,0 1.9,0.6 2.3,1.2 h 0 l 0.1,-1 h 1.8 z m -2,3.1 c 0,-0.2 0,-0.4 -0.1,-0.5 -0.2,-0.7 -0.8,-1.3 -1.6,-1.3 -1.1,0 -1.9,1 -1.9,2.5 0,1.3 0.7,2.4 1.9,2.4 0.7,0 1.4,-0.5 1.6,-1.2 0,-0.2 0.1,-0.5 0.1,-0.7 v -1.2 z"
   id="path181"
   inkscape:connector-curvature="0"
   style="fill:#454746" />
</g>
<path
   stroke-miterlimit="10"
   d="M 462,291.3 H 224.7 c -1.7,0 -3,-1.3 -3,-3 v -48 c 0,-1.7 1.3,-3 3,-3 H 462 c 1.7,0 3,1.3 3,3 v 48 c 0,1.6 -1.4,3 -3,3 z"
   id="path183"
   inkscape:connector-curvature="0"
   style="fill:#ffffff;stroke:#c6c6c6;stroke-width:1.60000002;stroke-miterlimit:10" />
</svg>