<?xml version="1.0" encoding="UTF-8" standalone="no"?>
<!-- Generator: Adobe Illustrator 18.0.0, SVG Export Plug-In . SVG Version: 6.00 Build 0)  -->

<svg
   xmlns:dc="http://purl.org/dc/elements/1.1/"
   xmlns:cc="http://creativecommons.org/ns#"
   xmlns:rdf="http://www.w3.org/1999/02/22-rdf-syntax-ns#"
   xmlns:svg="http://www.w3.org/2000/svg"
   xmlns="http://www.w3.org/2000/svg"
   xmlns:sodipodi="http://sodipodi.sourceforge.net/DTD/sodipodi-0.dtd"
   xmlns:inkscape="http://www.inkscape.org/namespaces/inkscape"
   version="1.1"
   id="Layer_1"
   x="0px"
   y="0px"
   viewBox="0 0 530 350"
   enable-background="new 0 0 1280 800"
   xml:space="preserve"
   inkscape:version="0.48.2 r9819"
   width="100%"
   height="100%"
   sodipodi:docname="graph_3.3.svg"><metadata
   id="metadata4338"><rdf:RDF><cc:Work
       rdf:about=""><dc:format>image/svg+xml</dc:format><dc:type
         rdf:resource="http://purl.org/dc/dcmitype/StillImage" /><dc:title></dc:title></cc:Work></rdf:RDF></metadata><defs
   id="defs4336" /><sodipodi:namedview
   pagecolor="#ffffff"
   bordercolor="#666666"
   borderopacity="1"
   objecttolerance="10"
   gridtolerance="10"
   guidetolerance="10"
   inkscape:pageopacity="0"
   inkscape:pageshadow="2"
   inkscape:window-width="1440"
   inkscape:window-height="852"
   id="namedview4334"
   showgrid="false"
   fit-margin-top="0"
   fit-margin-left="0"
   fit-margin-right="0"
   fit-margin-bottom="0"
   inkscape:zoom="0.275"
   inkscape:cx="265.6"
   inkscape:cy="174.5"
   inkscape:window-x="0"
   inkscape:window-y="0"
   inkscape:window-maximized="1"
   inkscape:current-layer="Layer_1" />
<path
   d="M 527,350 H 3 c -1.7,0 -3,-1.3 -3,-3 V 3 C 0,1.4 1.3,0 3,0 h 524 c 1.7,0 3,1.4 3,3 v 344 c 0,1.6 -1.3,3 -3,3 z"
   id="path3740"
   inkscape:connector-curvature="0"
   style="fill:#f8faf6" />
<g
   id="g3742"
   transform="translate(-374.4,-224.5)">
	<path
   d="m 450.6,524.5 v 10.8 h -2 v -10.8 h 2 z"
   id="path3744"
   inkscape:connector-curvature="0"
   style="fill:#454746" />
	<path
   d="m 452.9,529.8 c 0,-0.9 0,-1.6 -0.1,-2.3 h 1.7 l 0.1,1.2 h 0 c 0.3,-0.6 1.2,-1.3 2.5,-1.3 1.4,0 2.8,0.9 2.8,3.3 v 4.6 h -2 v -4.4 c 0,-1.1 -0.4,-2 -1.5,-2 -0.8,0 -1.3,0.6 -1.5,1.2 -0.1,0.2 -0.1,0.4 -0.1,0.6 v 4.6 h -2 v -5.5 z"
   id="path3746"
   inkscape:connector-curvature="0"
   style="fill:#454746" />
	<path
   d="m 465.6,530.3 v 1.4 h -4.1 v -1.4 h 4.1 z"
   id="path3748"
   inkscape:connector-curvature="0"
   style="fill:#454746" />
	<path
   d="m 467.1,529.8 c 0,-0.9 0,-1.6 -0.1,-2.3 h 1.7 l 0.1,1.2 h 0 c 0.4,-0.6 1.1,-1.3 2.4,-1.3 1,0 1.8,0.6 2.2,1.4 h 0 c 0.3,-0.4 0.6,-0.8 1,-1 0.4,-0.3 0.9,-0.5 1.6,-0.5 1.3,0 2.6,0.9 2.6,3.4 v 4.6 h -1.9 V 531 c 0,-1.3 -0.4,-2.1 -1.4,-2.1 -0.7,0 -1.2,0.5 -1.4,1 0,0.2 -0.1,0.4 -0.1,0.7 v 4.7 h -1.9 v -4.5 c 0,-1.1 -0.4,-1.9 -1.3,-1.9 -0.7,0 -1.2,0.6 -1.4,1.1 -0.1,0.2 -0.1,0.4 -0.1,0.6 v 4.6 h -1.9 v -5.4 z"
   id="path3750"
   inkscape:connector-curvature="0"
   style="fill:#454746" />
	<path
   d="m 482.1,531.9 c 0,1.4 1.2,2 2.4,2 0.9,0 1.6,-0.1 2.2,-0.4 l 0.3,1.4 c -0.7,0.3 -1.6,0.5 -2.7,0.5 -2.5,0 -4,-1.6 -4,-3.9 0,-2.2 1.3,-4.2 3.8,-4.2 2.5,0 3.4,2.1 3.4,3.8 0,0.4 0,0.7 -0.1,0.8 h -5.3 z m 3.4,-1.4 c 0,-0.7 -0.3,-1.9 -1.6,-1.9 -1.2,0 -1.7,1.1 -1.8,1.9 h 3.4 z"
   id="path3752"
   inkscape:connector-curvature="0"
   style="fill:#454746" />
	<path
   d="m 488.9,529.8 c 0,-0.9 0,-1.6 -0.1,-2.3 h 1.7 l 0.1,1.2 h 0 c 0.4,-0.6 1.1,-1.3 2.4,-1.3 1,0 1.8,0.6 2.2,1.4 h 0 c 0.3,-0.4 0.6,-0.8 1,-1 0.4,-0.3 0.9,-0.5 1.6,-0.5 1.3,0 2.6,0.9 2.6,3.4 v 4.6 h -1.9 V 531 c 0,-1.3 -0.4,-2.1 -1.4,-2.1 -0.7,0 -1.2,0.5 -1.4,1 0,0.2 -0.1,0.4 -0.1,0.7 v 4.7 h -1.9 v -4.5 c 0,-1.1 -0.4,-1.9 -1.3,-1.9 -0.7,0 -1.2,0.6 -1.4,1.1 -0.1,0.2 -0.1,0.4 -0.1,0.6 v 4.6 H 489 v -5.4 z"
   id="path3754"
   inkscape:connector-curvature="0"
   style="fill:#454746" />
	<path
   d="m 509.9,531.3 c 0,2.9 -2,4.1 -4,4.1 -2.2,0 -3.9,-1.5 -3.9,-4 0,-2.6 1.7,-4.1 4,-4.1 2.4,0 3.9,1.6 3.9,4 z m -5.9,0.1 c 0,1.5 0.7,2.6 1.9,2.6 1.1,0 1.9,-1.1 1.9,-2.7 0,-1.2 -0.5,-2.6 -1.9,-2.6 -1.3,0 -1.9,1.4 -1.9,2.7 z"
   id="path3756"
   inkscape:connector-curvature="0"
   style="fill:#454746" />
	<path
   d="m 511.5,530 c 0,-1.1 0,-1.8 -0.1,-2.5 h 1.7 l 0.1,1.5 h 0.1 c 0.4,-1.1 1.3,-1.7 2.1,-1.7 0.2,0 0.3,0 0.5,0 v 1.9 c -0.2,0 -0.3,-0.1 -0.6,-0.1 -0.9,0 -1.6,0.6 -1.8,1.5 0,0.2 -0.1,0.4 -0.1,0.6 v 4 h -2 V 530 z"
   id="path3758"
   inkscape:connector-curvature="0"
   style="fill:#454746" />
	<path
   d="m 518.8,527.5 1.4,4.2 c 0.2,0.5 0.3,1.1 0.4,1.5 h 0 c 0.1,-0.4 0.3,-1 0.4,-1.5 l 1.2,-4.2 h 2.1 l -2,5.3 c -1.1,2.9 -1.8,4.2 -2.7,5 -0.8,0.7 -1.6,0.9 -2.1,1 l -0.4,-1.7 c 0.3,-0.1 0.8,-0.3 1.2,-0.5 0.4,-0.2 0.8,-0.7 1.1,-1.2 0.1,-0.1 0.1,-0.3 0.1,-0.4 0,-0.1 0,-0.2 -0.1,-0.4 l -2.8,-7.2 h 2.2 z"
   id="path3760"
   inkscape:connector-curvature="0"
   style="fill:#454746" />
	<path
   d="m 528.8,535.3 c 0,-0.5 0.1,-1.4 0.1,-2.2 v -9.2 h 2 v 4.6 h 0 c 0.5,-0.8 1.3,-1.2 2.5,-1.2 1.9,0 3.3,1.6 3.2,4 0,2.8 -1.8,4.2 -3.5,4.2 -1,0 -1.9,-0.4 -2.5,-1.3 h 0 l -0.1,1.2 h -1.7 z m 2,-3.3 c 0,0.2 0,0.3 0,0.5 0.2,0.8 0.9,1.4 1.7,1.4 1.2,0 2,-1 2,-2.6 0,-1.4 -0.7,-2.5 -2,-2.5 -0.8,0 -1.5,0.6 -1.7,1.4 0,0.1 -0.1,0.3 -0.1,0.5 v 1.3 z"
   id="path3762"
   inkscape:connector-curvature="0"
   style="fill:#454746" />
	<path
   d="m 545.2,532.9 c 0,0.9 0,1.7 0.1,2.3 h -1.7 l -0.1,-1.2 h 0 c -0.3,0.6 -1.1,1.4 -2.5,1.4 -1.4,0 -2.7,-0.8 -2.7,-3.4 v -4.6 h 2 v 4.2 c 0,1.3 0.4,2.1 1.5,2.1 0.8,0 1.3,-0.6 1.5,-1.1 0.1,-0.2 0.1,-0.4 0.1,-0.6 v -4.7 h 2 v 5.6 z"
   id="path3764"
   inkscape:connector-curvature="0"
   style="fill:#454746" />
	<path
   d="M 552.4,535.3 V 529 h -2.8 v 6.3 h -2 V 529 h -1.1 v -1.5 h 1.1 v -0.2 c 0,-1 0.2,-1.9 0.9,-2.6 0.5,-0.5 1.2,-0.8 2.2,-0.8 0.4,0 0.8,0.1 1.1,0.2 l -0.3,1.5 c -0.2,-0.1 -0.4,-0.1 -0.7,-0.1 -0.9,0 -1.2,0.8 -1.2,1.7 v 0.3 h 2.8 v -0.3 c 0,-1 0.3,-2 1,-2.7 0.6,-0.5 1.3,-0.8 2,-0.8 0.5,0 0.9,0.1 1.2,0.2 l -0.1,1.5 c -0.2,-0.1 -0.5,-0.1 -0.8,-0.1 -1,0 -1.3,0.8 -1.3,1.8 v 0.4 h 1.7 v 1.5 h -1.7 v 6.3 h -2 z"
   id="path3766"
   inkscape:connector-curvature="0"
   style="fill:#454746" />
	<path
   d="m 558.5,531.9 c 0,1.4 1.2,2 2.4,2 0.9,0 1.6,-0.1 2.2,-0.4 l 0.3,1.4 c -0.7,0.3 -1.6,0.5 -2.7,0.5 -2.5,0 -4,-1.6 -4,-3.9 0,-2.2 1.3,-4.2 3.8,-4.2 2.5,0 3.4,2.1 3.4,3.8 0,0.4 0,0.7 -0.1,0.8 h -5.3 z m 3.4,-1.4 c 0,-0.7 -0.3,-1.9 -1.6,-1.9 -1.2,0 -1.7,1.1 -1.8,1.9 h 3.4 z"
   id="path3768"
   inkscape:connector-curvature="0"
   style="fill:#454746" />
	<path
   d="m 565.3,530 c 0,-1.1 0,-1.8 -0.1,-2.5 h 1.7 l 0.1,1.5 h 0.1 c 0.4,-1.1 1.3,-1.7 2.1,-1.7 0.2,0 0.3,0 0.5,0 v 1.9 c -0.2,0 -0.3,-0.1 -0.6,-0.1 -0.9,0 -1.6,0.6 -1.8,1.5 0,0.2 -0.1,0.4 -0.1,0.6 v 4 h -2 V 530 z"
   id="path3770"
   inkscape:connector-curvature="0"
   style="fill:#454746" />
</g>
<path
   stroke-miterlimit="10"
   d="M 202.6,289.3 H 65.8 c -1.7,0 -3.1,-1.3 -3.1,-3 v -48 c 0,-1.7 1.4,-3 3.1,-3 h 136.8 c 1.7,0 3.1,1.3 3.1,3 v 48 c 0,1.7 -1.4,3 -3.1,3 z"
   id="path3772"
   inkscape:connector-curvature="0"
   style="fill:#ffffff;stroke:#c6c6c6;stroke-width:1.60000002;stroke-linecap:round;stroke-miterlimit:10;stroke-dasharray:4" />
<g
   id="g3774"
   transform="translate(-374.4,-224.5)">
	<path
   d="m 520,270.1 c -0.5,0.2 -1.5,0.5 -2.8,0.5 -3.4,0 -5.5,-2.1 -5.5,-5.4 0,-3.6 2.5,-5.7 5.8,-5.7 1.3,0 2.2,0.3 2.6,0.5 l -0.4,1.6 c -0.5,-0.2 -1.2,-0.4 -2.1,-0.4 -2.2,0 -3.8,1.4 -3.8,4 0,2.4 1.4,3.9 3.8,3.9 0.8,0 1.6,-0.2 2.1,-0.4 l 0.3,1.4 z"
   id="path3776"
   inkscape:connector-curvature="0"
   style="fill:#454746" />
	<path
   d="m 528.8,266.5 c 0,2.9 -2,4.1 -4,4.1 -2.2,0 -3.9,-1.5 -3.9,-4 0,-2.6 1.7,-4.1 4,-4.1 2.3,0 3.9,1.6 3.9,4 z m -5.9,0.1 c 0,1.5 0.7,2.6 1.9,2.6 1.1,0 1.9,-1.1 1.9,-2.7 0,-1.2 -0.5,-2.6 -1.9,-2.6 -1.3,0 -1.9,1.4 -1.9,2.7 z"
   id="path3778"
   inkscape:connector-curvature="0"
   style="fill:#454746" />
	<path
   d="m 530.4,265 c 0,-0.9 0,-1.6 -0.1,-2.3 h 1.7 l 0.1,1.2 h 0 c 0.4,-0.6 1.1,-1.3 2.4,-1.3 1,0 1.8,0.6 2.2,1.4 h 0 c 0.3,-0.4 0.6,-0.8 1,-1 0.4,-0.3 0.9,-0.5 1.6,-0.5 1.3,0 2.6,0.9 2.6,3.4 v 4.6 H 540 v -4.3 c 0,-1.3 -0.4,-2.1 -1.4,-2.1 -0.7,0 -1.2,0.5 -1.4,1 0,0.2 -0.1,0.4 -0.1,0.7 v 4.7 h -1.9 V 266 c 0,-1.1 -0.4,-1.9 -1.3,-1.9 -0.7,0 -1.2,0.6 -1.4,1.1 -0.1,0.2 -0.1,0.4 -0.1,0.6 v 4.6 h -1.9 V 265 z"
   id="path3780"
   inkscape:connector-curvature="0"
   style="fill:#454746" />
	<path
   d="m 544,265 c 0,-0.9 0,-1.6 -0.1,-2.3 h 1.7 l 0.1,1.2 h 0 c 0.4,-0.6 1.1,-1.3 2.4,-1.3 1,0 1.8,0.6 2.2,1.4 h 0 c 0.3,-0.4 0.6,-0.8 1,-1 0.4,-0.3 0.9,-0.5 1.6,-0.5 1.3,0 2.6,0.9 2.6,3.4 v 4.6 h -1.9 v -4.3 c 0,-1.3 -0.4,-2.1 -1.4,-2.1 -0.7,0 -1.2,0.5 -1.4,1 0,0.2 -0.1,0.4 -0.1,0.7 v 4.7 h -1.9 V 266 c 0,-1.1 -0.4,-1.9 -1.3,-1.9 -0.7,0 -1.2,0.6 -1.4,1.1 -0.1,0.2 -0.1,0.4 -0.1,0.6 v 4.6 h -2 V 265 z"
   id="path3782"
   inkscape:connector-curvature="0"
   style="fill:#454746" />
	<path
   d="m 559.6,260.5 c 0,0.6 -0.4,1.1 -1.1,1.1 -0.7,0 -1.1,-0.5 -1.1,-1.1 0,-0.6 0.4,-1.1 1.1,-1.1 0.7,0 1.1,0.5 1.1,1.1 z m -2.1,10 v -7.8 h 2 v 7.8 h -2 z"
   id="path3784"
   inkscape:connector-curvature="0"
   style="fill:#454746" />
	<path
   d="m 563.9,260.4 v 2.2 h 1.9 v 1.5 h -1.9 v 3.4 c 0,0.9 0.3,1.4 1,1.4 0.3,0 0.6,0 0.8,-0.1 l 0,1.5 c -0.3,0.1 -0.8,0.2 -1.4,0.2 -0.7,0 -1.3,-0.2 -1.7,-0.6 -0.4,-0.4 -0.6,-1.2 -0.6,-2.2 V 264 h -1.1 v -1.5 h 1.1 v -1.8 l 1.9,-0.3 z"
   id="path3786"
   inkscape:connector-curvature="0"
   style="fill:#454746" />
	<path
   d="m 570.6,265.3 c 0,-1 0,-1.9 -0.1,-2.6 h 1.7 l 0.1,1.2 h 0 c 0.6,-0.9 1.5,-1.4 2.7,-1.4 1.8,0 3.3,1.5 3.3,4 0,2.8 -1.8,4.2 -3.6,4.2 -1,0 -1.8,-0.4 -2.2,-1 h 0 v 4 h -2 v -8.4 z m 1.9,1.9 c 0,0.2 0,0.4 0.1,0.5 0.2,0.8 0.9,1.4 1.7,1.4 1.2,0 2,-1 2,-2.6 0,-1.4 -0.7,-2.5 -1.9,-2.5 -0.8,0 -1.6,0.6 -1.8,1.5 0,0.2 -0.1,0.3 -0.1,0.5 v 1.2 z"
   id="path3788"
   inkscape:connector-curvature="0"
   style="fill:#454746" />
	<path
   d="m 587.3,266.5 c 0,2.9 -2,4.1 -4,4.1 -2.2,0 -3.9,-1.5 -3.9,-4 0,-2.6 1.7,-4.1 4,-4.1 2.4,0 3.9,1.6 3.9,4 z m -5.9,0.1 c 0,1.5 0.7,2.6 1.9,2.6 1.1,0 1.9,-1.1 1.9,-2.7 0,-1.2 -0.5,-2.6 -1.9,-2.6 -1.3,0 -1.9,1.4 -1.9,2.7 z"
   id="path3790"
   inkscape:connector-curvature="0"
   style="fill:#454746" />
	<path
   d="m 591,260.5 c 0,0.6 -0.4,1.1 -1.1,1.1 -0.7,0 -1.1,-0.5 -1.1,-1.1 0,-0.6 0.4,-1.1 1.1,-1.1 0.7,0 1.1,0.5 1.1,1.1 z m -2.1,10 v -7.8 h 2 v 7.8 h -2 z"
   id="path3792"
   inkscape:connector-curvature="0"
   style="fill:#454746" />
	<path
   d="m 593,265 c 0,-0.9 0,-1.6 -0.1,-2.3 h 1.7 l 0.1,1.2 h 0 c 0.3,-0.6 1.2,-1.3 2.5,-1.3 1.4,0 2.8,0.9 2.8,3.3 v 4.6 h -2 v -4.4 c 0,-1.1 -0.4,-2 -1.5,-2 -0.8,0 -1.3,0.6 -1.5,1.2 -0.1,0.2 -0.1,0.4 -0.1,0.6 v 4.6 h -2 V 265 z"
   id="path3794"
   inkscape:connector-curvature="0"
   style="fill:#454746" />
	<path
   d="m 604.4,260.4 v 2.2 h 1.9 v 1.5 h -1.9 v 3.4 c 0,0.9 0.3,1.4 1,1.4 0.3,0 0.6,0 0.8,-0.1 l 0,1.5 c -0.3,0.1 -0.8,0.2 -1.4,0.2 -0.7,0 -1.3,-0.2 -1.7,-0.6 -0.4,-0.4 -0.6,-1.2 -0.6,-2.2 V 264 h -1.1 v -1.5 h 1.1 v -1.8 l 1.9,-0.3 z"
   id="path3796"
   inkscape:connector-curvature="0"
   style="fill:#454746" />
</g>
<g
   id="g3798"
   transform="translate(-374.4,-224.5)">
	<path
   d="m 561.4,430.7 c 0.6,0.4 1.6,0.7 2.6,0.7 1.3,0 2,-0.6 2,-1.5 0,-0.8 -0.5,-1.3 -1.9,-1.8 -1.8,-0.6 -2.9,-1.6 -2.9,-3.1 0,-1.8 1.5,-3.1 3.8,-3.1 1.2,0 2,0.3 2.6,0.5 l -0.5,1.6 c -0.4,-0.2 -1.1,-0.5 -2.1,-0.5 -1.2,0 -1.8,0.7 -1.8,1.3 0,0.8 0.6,1.2 2.1,1.8 1.9,0.7 2.8,1.6 2.8,3.2 0,1.7 -1.3,3.2 -4.1,3.2 -1.1,0 -2.3,-0.3 -2.9,-0.7 l 0.3,-1.6 z"
   id="path3800"
   inkscape:connector-curvature="0"
   style="fill:#454746" />
	<path
   d="m 571.2,429.5 c 0,1.4 1.2,2 2.4,2 0.9,0 1.6,-0.1 2.2,-0.4 l 0.3,1.4 c -0.7,0.3 -1.6,0.5 -2.7,0.5 -2.5,0 -4,-1.6 -4,-3.9 0,-2.2 1.3,-4.2 3.8,-4.2 2.5,0 3.4,2.1 3.4,3.8 0,0.4 0,0.7 -0.1,0.8 h -5.3 z m 3.4,-1.3 c 0,-0.7 -0.3,-1.9 -1.6,-1.9 -1.2,0 -1.7,1.1 -1.8,1.9 h 3.4 z"
   id="path3802"
   inkscape:connector-curvature="0"
   style="fill:#454746" />
	<path
   d="m 582.4,432.9 -0.1,-0.9 h 0 c -0.5,0.6 -1.3,1 -2.3,1 -1.6,0 -2.4,-1.1 -2.4,-2.3 0,-2 1.7,-3 4.6,-2.9 v -0.1 c 0,-0.5 -0.2,-1.4 -1.6,-1.4 -0.8,0 -1.6,0.2 -2.1,0.6 l -0.4,-1.3 c 0.6,-0.4 1.6,-0.7 2.8,-0.7 2.5,0 3.2,1.6 3.2,3.3 v 2.8 c 0,0.7 0,1.4 0.1,1.9 h -1.8 z m -0.2,-3.8 c -1.4,0 -2.7,0.3 -2.7,1.5 0,0.8 0.5,1.1 1.1,1.1 0.8,0 1.4,-0.5 1.5,-1.1 0,-0.1 0.1,-0.3 0.1,-0.4 v -1.1 z"
   id="path3804"
   inkscape:connector-curvature="0"
   style="fill:#454746" />
	<path
   d="m 586.2,427.6 c 0,-1.1 0,-1.8 -0.1,-2.5 h 1.7 l 0.1,1.5 h 0.1 c 0.4,-1.1 1.3,-1.7 2.1,-1.7 0.2,0 0.3,0 0.5,0 v 1.9 c -0.2,0 -0.3,-0.1 -0.6,-0.1 -0.9,0 -1.6,0.6 -1.8,1.5 0,0.2 -0.1,0.4 -0.1,0.6 v 4 h -2 v -5.2 z"
   id="path3806"
   inkscape:connector-curvature="0"
   style="fill:#454746" />
	<path
   d="m 597.5,432.6 c -0.4,0.2 -1.2,0.4 -2.2,0.4 -2.4,0 -4,-1.6 -4,-4 0,-2.3 1.6,-4.2 4.3,-4.2 0.7,0 1.5,0.2 1.9,0.4 l -0.4,1.5 c -0.3,-0.1 -0.8,-0.3 -1.5,-0.3 -1.5,0 -2.4,1.1 -2.4,2.5 0,1.6 1,2.5 2.4,2.5 0.7,0 1.2,-0.1 1.6,-0.3 l 0.3,1.5 z"
   id="path3808"
   inkscape:connector-curvature="0"
   style="fill:#454746" />
	<path
   d="m 598.9,421.5 h 2 v 4.6 h 0 c 0.2,-0.4 0.6,-0.7 1,-0.9 0.4,-0.2 0.8,-0.4 1.3,-0.4 1.3,0 2.7,0.9 2.7,3.4 v 4.6 h -2 v -4.4 c 0,-1.1 -0.4,-2 -1.5,-2 -0.8,0 -1.3,0.5 -1.5,1.1 -0.1,0.2 -0.1,0.4 -0.1,0.6 v 4.7 h -2 v -11.3 z"
   id="path3810"
   inkscape:connector-curvature="0"
   style="fill:#454746" />
	<path
   d="m 612.5,432.9 -0.1,-0.9 h 0 c -0.5,0.6 -1.3,1 -2.3,1 -1.6,0 -2.4,-1.1 -2.4,-2.3 0,-2 1.7,-3 4.6,-2.9 v -0.1 c 0,-0.5 -0.2,-1.4 -1.6,-1.4 -0.8,0 -1.6,0.2 -2.1,0.6 l -0.4,-1.3 c 0.6,-0.4 1.6,-0.7 2.8,-0.7 2.5,0 3.2,1.6 3.2,3.3 v 2.8 c 0,0.7 0,1.4 0.1,1.9 h -1.8 z m -0.3,-3.8 c -1.4,0 -2.7,0.3 -2.7,1.5 0,0.8 0.5,1.1 1.1,1.1 0.8,0 1.4,-0.5 1.5,-1.1 0,-0.1 0.1,-0.3 0.1,-0.4 v -1.1 z"
   id="path3812"
   inkscape:connector-curvature="0"
   style="fill:#454746" />
	<path
   d="m 616.1,432.9 c 0,-0.5 0.1,-1.4 0.1,-2.2 v -9.2 h 2 v 4.6 h 0 c 0.5,-0.8 1.3,-1.2 2.5,-1.2 1.9,0 3.3,1.6 3.2,4 0,2.8 -1.8,4.2 -3.5,4.2 -1,0 -1.9,-0.4 -2.5,-1.3 h 0 l -0.1,1.2 h -1.7 z m 2.1,-3.2 c 0,0.2 0,0.3 0,0.5 0.2,0.8 0.9,1.4 1.7,1.4 1.2,0 2,-1 2,-2.6 0,-1.4 -0.7,-2.5 -2,-2.5 -0.8,0 -1.5,0.6 -1.7,1.4 0,0.1 -0.1,0.3 -0.1,0.5 v 1.3 z"
   id="path3814"
   inkscape:connector-curvature="0"
   style="fill:#454746" />
	<path
   d="m 625.6,421.5 h 2 v 11.4 h -2 v -11.4 z"
   id="path3816"
   inkscape:connector-curvature="0"
   style="fill:#454746" />
	<path
   d="m 631.1,429.5 c 0,1.4 1.2,2 2.4,2 0.9,0 1.6,-0.1 2.2,-0.4 l 0.3,1.4 c -0.7,0.3 -1.6,0.5 -2.7,0.5 -2.5,0 -4,-1.6 -4,-3.9 0,-2.2 1.3,-4.2 3.8,-4.2 2.5,0 3.4,2.1 3.4,3.8 0,0.4 0,0.7 -0.1,0.8 h -5.3 z m 3.4,-1.3 c 0,-0.7 -0.3,-1.9 -1.6,-1.9 -1.2,0 -1.7,1.1 -1.8,1.9 h 3.4 z"
   id="path3818"
   inkscape:connector-curvature="0"
   style="fill:#454746" />
</g>
<g
   id="g3820"
   transform="translate(-374.4,-224.5)">
	<g
   id="g3822">
		<path
   stroke-miterlimit="10"
   d="m 558.6,282.2 c -14.3,18 -71.7,-0.3 -78.9,33.6"
   id="path3824"
   inkscape:connector-curvature="0"
   style="fill:none;stroke:#454746;stroke-width:1.60000002;stroke-linecap:round;stroke-miterlimit:10" />
		<g
   id="g3826">
			<path
   d="m 478.9,323.5 c -0.9,-3.8 -2.7,-8.5 -4.8,-11.6 l 5.8,2.9 6.3,-1.5 c -2.7,2.5 -5.5,6.7 -7.3,10.2 z"
   id="path3828"
   inkscape:connector-curvature="0"
   style="fill:#454746" />
		</g>
	</g>
</g>
<g
   id="g3830"
   transform="translate(-374.4,-224.5)">
	<g
   id="g3832">
		<path
   stroke-miterlimit="10"
   d="m 558.6,282.2 c 14.3,18 71.7,-0.3 78.9,33.6"
   id="path3834"
   inkscape:connector-curvature="0"
   style="fill:none;stroke:#454746;stroke-width:1.60000002;stroke-linecap:round;stroke-miterlimit:10" />
		<g
   id="g3836">
			<path
   d="m 638.3,323.5 c -1.7,-3.5 -4.5,-7.7 -7.3,-10.2 l 6.3,1.5 5.8,-2.9 c -2.1,3.1 -3.9,7.8 -4.8,11.6 z"
   id="path3838"
   inkscape:connector-curvature="0"
   style="fill:#454746" />
		</g>
	</g>
</g>
<g
   id="g3840"
   transform="translate(-374.4,-224.5)">
	<g
   id="g3842">
		<path
   stroke-miterlimit="10"
   d="m 558.6,282.2 c 0,13.1 0.3,-1 0.3,33.6"
   id="path3844"
   inkscape:connector-curvature="0"
   style="fill:none;stroke:#454746;stroke-width:1.60000002;stroke-linecap:round;stroke-miterlimit:10" />
		<g
   id="g3846">
			<path
   d="m 558.9,323.5 c -1.4,-3.6 -3.7,-8.1 -6.1,-10.9 l 6.1,2.2 6.1,-2.2 c -2.5,2.7 -4.8,7.2 -6.1,10.9 z"
   id="path3848"
   inkscape:connector-curvature="0"
   style="fill:#454746" />
		</g>
	</g>
</g>
<path
   stroke-miterlimit="10"
   d="m 385.7,170.6 v 12 c 0,1.7 -1.3,3 -3,3 h -317 c -1.7,0 -3,-1.3 -3,-3 v -12"
   id="path3850"
   inkscape:connector-curvature="0"
   style="fill:none;stroke:#454746;stroke-width:1.60000002;stroke-linecap:round;stroke-miterlimit:10" />
<path
   d="m 104.2,153 c 10.2,0 19.7,-1.8 24.9,-4.7 2,-1.2 3.9,-2.5 5.1,-3.6 v -11 c -1.3,0.9 -2.5,1.6 -3.2,2 -5.8,3.2 -15.8,5.2 -26.8,5.2 -11,0 -21.1,-1.9 -26.8,-5.2 -0.7,-0.4 -1.9,-1.1 -3.2,-2 v 11 c 1.2,1.1 3.1,2.5 5.2,3.6 5.1,2.9 14.6,4.7 24.8,4.7 z"
   id="path3852"
   inkscape:connector-curvature="0"
   style="fill:#75b640" />
<path
   d="m 134.2,158 v -8.2 c -1.3,0.9 -2.5,1.6 -3.2,2 -5.8,3.2 -15.8,5.2 -26.8,5.2 -11,0 -21.1,-1.9 -26.8,-5.2 -0.7,-0.4 -1.9,-1.1 -3.2,-2 v 8.2 c 0,5.5 13.4,10 30,10 16.6,0 30,-4.5 30,-10 z"
   id="path3854"
   inkscape:connector-curvature="0"
   style="fill:#75b640" />
<path
   d="m 104.2,136.9 c 10.2,0 19.7,-1.8 24.8,-4.7 2,-1.2 3.9,-2.5 5.2,-3.6 v -4.7 c 0,-5.5 -13.4,-10 -30,-10 -16.6,0 -30,4.5 -30,10 v 4.7 c 1.2,1.1 3.1,2.5 5.1,3.6 5.2,2.9 14.7,4.7 24.9,4.7 z"
   id="path3856"
   inkscape:connector-curvature="0"
   style="fill:#75b640" />
<path
   d="m 214.2,158 v -8.2 c -1.3,0.9 -2.5,1.6 -3.2,2 -5.8,3.2 -15.8,5.2 -26.8,5.2 -11,0 -21.1,-1.9 -26.8,-5.2 -0.7,-0.4 -1.9,-1.1 -3.2,-2 v 8.2 c 0,5.5 13.4,10 30,10 16.6,0 30,-4.5 30,-10 z"
   id="path3858"
   inkscape:connector-curvature="0"
   style="fill:#75b640" />
<path
   d="m 184.2,153 c 10.2,0 19.7,-1.8 24.9,-4.7 2,-1.2 3.9,-2.5 5.1,-3.6 v -11 c -1.3,0.9 -2.5,1.6 -3.2,2 -5.8,3.2 -15.8,5.2 -26.8,5.2 -11,0 -21.1,-1.9 -26.8,-5.2 -0.7,-0.4 -1.9,-1.1 -3.2,-2 v 11 c 1.2,1.1 3.1,2.5 5.2,3.6 5.1,2.9 14.6,4.7 24.8,4.7 z"
   id="path3860"
   inkscape:connector-curvature="0"
   style="fill:#75b640" />
<path
   d="m 184.2,136.9 c 10.2,0 19.7,-1.8 24.8,-4.7 2,-1.2 3.9,-2.5 5.2,-3.6 v -4.7 c 0,-5.5 -13.4,-10 -30,-10 -16.6,0 -30,4.5 -30,10 v 4.7 c 1.2,1.1 3.1,2.5 5.1,3.6 5.2,2.9 14.7,4.7 24.9,4.7 z"
   id="path3862"
   inkscape:connector-curvature="0"
   style="fill:#75b640" />
<path
   d="m 264.2,136.9 c 10.2,0 19.7,-1.8 24.8,-4.7 2,-1.2 3.9,-2.5 5.2,-3.6 v -4.7 c 0,-5.5 -13.4,-10 -30,-10 -16.6,0 -30,4.5 -30,10 v 4.7 c 1.2,1.1 3.1,2.5 5.1,3.6 5.2,2.9 14.7,4.7 24.9,4.7 z"
   id="path3864"
   inkscape:connector-curvature="0"
   style="fill:#75b640" />
<path
   d="m 264.2,153 c 10.2,0 19.7,-1.8 24.9,-4.7 2,-1.2 3.9,-2.5 5.1,-3.6 v -11 c -1.3,0.9 -2.5,1.6 -3.2,2 -5.8,3.2 -15.8,5.2 -26.8,5.2 -11,0 -21.1,-1.9 -26.8,-5.2 -0.7,-0.4 -1.9,-1.1 -3.2,-2 v 11 c 1.2,1.1 3.1,2.5 5.2,3.6 5.1,2.9 14.6,4.7 24.8,4.7 z"
   id="path3866"
   inkscape:connector-curvature="0"
   style="fill:#75b640" />
<path
   d="m 294.2,158 v -8.2 c -1.3,0.9 -2.5,1.6 -3.2,2 -5.8,3.2 -15.8,5.2 -26.8,5.2 -11,0 -21.1,-1.9 -26.8,-5.2 -0.7,-0.4 -1.9,-1.1 -3.2,-2 v 8.2 c 0,5.5 13.4,10 30,10 16.6,0 30,-4.5 30,-10 z"
   id="path3868"
   inkscape:connector-curvature="0"
   style="fill:#75b640" />
<path
   d="m 374.2,158 v -8.2 c -1.3,0.9 -2.5,1.6 -3.2,2 -5.8,3.2 -15.8,5.2 -26.8,5.2 -11,0 -21.1,-1.9 -26.8,-5.2 -0.7,-0.4 -1.9,-1.1 -3.2,-2 v 8.2 c 0,5.5 13.4,10 30,10 16.6,0 30,-4.5 30,-10 z"
   id="path3870"
   inkscape:connector-curvature="0"
   style="fill:#d3d3d3" />
<path
   d="m 344.2,153 c 10.2,0 19.7,-1.8 24.9,-4.7 2,-1.2 3.9,-2.5 5.1,-3.6 v -11 c -1.3,0.9 -2.5,1.6 -3.2,2 -5.8,3.2 -15.8,5.2 -26.8,5.2 -11,0 -21.1,-1.9 -26.8,-5.2 -0.7,-0.4 -1.9,-1.1 -3.2,-2 v 11 c 1.2,1.1 3.1,2.5 5.2,3.6 5.1,2.9 14.6,4.7 24.8,4.7 z"
   id="path3872"
   inkscape:connector-curvature="0"
   style="fill:#d3d3d3" />
<path
   d="m 344.2,136.9 c 10.2,0 19.7,-1.8 24.8,-4.7 2,-1.2 3.9,-2.5 5.2,-3.6 v -4.7 c 0,-5.5 -13.4,-10 -30,-10 -16.6,0 -30,4.5 -30,10 v 4.7 c 1.2,1.1 3.1,2.5 5.1,3.6 5.2,2.9 14.7,4.7 24.9,4.7 z"
   id="path3874"
   inkscape:connector-curvature="0"
   style="fill:#d3d3d3" />
<g
   id="g3876"
   transform="translate(-374.4,-224.5)">
	<path
   d="M 692.1,526.1 H 689 v -1.6 h 8.1 v 1.6 H 694 v 9.1 h -2 v -9.1 z"
   id="path3878"
   inkscape:connector-curvature="0"
   style="fill:#454746" />
	<path
   d="m 697.5,530 c 0,-1.1 0,-1.8 -0.1,-2.5 h 1.7 l 0.1,1.5 h 0.1 c 0.4,-1.1 1.3,-1.7 2.1,-1.7 0.2,0 0.3,0 0.5,0 v 1.9 c -0.2,0 -0.3,-0.1 -0.6,-0.1 -0.9,0 -1.6,0.6 -1.8,1.5 0,0.2 -0.1,0.4 -0.1,0.6 v 4 h -2 V 530 z"
   id="path3880"
   inkscape:connector-curvature="0"
   style="fill:#454746" />
	<path
   d="m 707.5,535.3 -0.1,-0.9 h 0 c -0.5,0.6 -1.3,1 -2.3,1 -1.6,0 -2.4,-1.1 -2.4,-2.3 0,-2 1.7,-3 4.6,-2.9 V 530 c 0,-0.5 -0.2,-1.4 -1.6,-1.4 -0.8,0 -1.6,0.2 -2.1,0.6 l -0.4,-1.3 c 0.6,-0.4 1.6,-0.7 2.8,-0.7 2.5,0 3.2,1.6 3.2,3.3 v 2.8 c 0,0.7 0,1.4 0.1,1.9 h -1.8 z m -0.3,-3.9 c -1.4,0 -2.7,0.3 -2.7,1.5 0,0.8 0.5,1.1 1.1,1.1 0.8,0 1.4,-0.5 1.5,-1.1 0,-0.1 0.1,-0.3 0.1,-0.4 v -1.1 z"
   id="path3882"
   inkscape:connector-curvature="0"
   style="fill:#454746" />
	<path
   d="m 711.2,529.8 c 0,-0.9 0,-1.6 -0.1,-2.3 h 1.7 l 0.1,1.2 h 0 c 0.3,-0.6 1.2,-1.3 2.5,-1.3 1.4,0 2.8,0.9 2.8,3.3 v 4.6 h -2 v -4.4 c 0,-1.1 -0.4,-2 -1.5,-2 -0.8,0 -1.3,0.6 -1.5,1.2 -0.1,0.2 -0.1,0.4 -0.1,0.6 v 4.6 h -2 v -5.5 z"
   id="path3884"
   inkscape:connector-curvature="0"
   style="fill:#454746" />
	<path
   d="m 720.3,533.4 c 0.4,0.3 1.3,0.6 2,0.6 0.9,0 1.2,-0.4 1.2,-0.9 0,-0.5 -0.3,-0.8 -1.3,-1.1 -1.5,-0.5 -2.2,-1.4 -2.1,-2.3 0,-1.4 1.1,-2.4 2.9,-2.4 0.9,0 1.6,0.2 2.1,0.5 l -0.4,1.4 c -0.3,-0.2 -1,-0.4 -1.6,-0.4 -0.7,0 -1.1,0.3 -1.1,0.8 0,0.5 0.4,0.7 1.4,1.1 1.4,0.5 2.1,1.2 2.1,2.4 0,1.4 -1.1,2.4 -3.2,2.4 -0.9,0 -1.8,-0.2 -2.4,-0.5 l 0.4,-1.6 z"
   id="path3886"
   inkscape:connector-curvature="0"
   style="fill:#454746" />
	<path
   d="m 727,523.9 h 2 v 11.4 h -2 v -11.4 z"
   id="path3888"
   inkscape:connector-curvature="0"
   style="fill:#454746" />
	<path
   d="m 738.6,531.3 c 0,2.9 -2,4.1 -4,4.1 -2.2,0 -3.9,-1.5 -3.9,-4 0,-2.6 1.7,-4.1 4,-4.1 2.3,0 3.9,1.6 3.9,4 z m -5.9,0.1 c 0,1.5 0.7,2.6 1.9,2.6 1.1,0 1.9,-1.1 1.9,-2.7 0,-1.2 -0.5,-2.6 -1.9,-2.6 -1.3,0 -1.9,1.4 -1.9,2.7 z"
   id="path3890"
   inkscape:connector-curvature="0"
   style="fill:#454746" />
	<path
   d="m 747.3,527.5 c 0,0.5 -0.1,1.2 -0.1,2.2 v 4.4 c 0,1.6 -0.3,2.8 -1.2,3.5 -0.8,0.7 -1.9,0.9 -3,0.9 -1,0 -2,-0.2 -2.7,-0.6 l 0.4,-1.5 c 0.5,0.3 1.3,0.6 2.3,0.6 1.3,0 2.2,-0.7 2.2,-2.4 v -0.7 h 0 c -0.4,0.7 -1.2,1.2 -2.3,1.2 -1.9,0 -3.3,-1.6 -3.3,-3.8 0,-2.6 1.7,-4.1 3.5,-4.1 1.2,0 1.9,0.6 2.3,1.2 h 0 l 0.1,-1 h 1.8 z m -2,3.1 c 0,-0.2 0,-0.4 -0.1,-0.5 -0.2,-0.7 -0.8,-1.3 -1.6,-1.3 -1.1,0 -1.9,1 -1.9,2.5 0,1.3 0.7,2.4 1.9,2.4 0.7,0 1.4,-0.5 1.6,-1.2 0,-0.2 0.1,-0.5 0.1,-0.7 v -1.2 z"
   id="path3892"
   inkscape:connector-curvature="0"
   style="fill:#454746" />
</g>
<g
   id="g3894"
   transform="translate(-374.4,-224.5)">
	<g
   id="g3896">
		<g
   id="g3898">
			<path
   d="m 467.8,471.8 h -13 c -1.6,0 -3,1.3 -3,3 v 24 c 0,1.7 1.4,3 3,3 h 18 c 1.7,0 3,-1.3 3,-3 v -19 l -8,-8 z"
   id="path3900"
   inkscape:connector-curvature="0"
   style="fill:#ffffff;stroke:#666666;stroke-width:1.60000002;stroke-linejoin:round" />
		</g>
		<line
   x1="456.79999"
   y1="496.79999"
   x2="470.79999"
   y2="496.79999"
   id="line3902"
   style="fill:none;stroke:#75b640;stroke-width:1.60000002;stroke-linecap:round" />
		<line
   x1="456.79999"
   y1="491.79999"
   x2="470.79999"
   y2="491.79999"
   id="line3904"
   style="fill:none;stroke:#75b640;stroke-width:1.60000002;stroke-linecap:round" />
		<line
   x1="456.79999"
   y1="486.79999"
   x2="470.79999"
   y2="486.79999"
   id="line3906"
   style="fill:none;stroke:#75b640;stroke-width:1.60000002;stroke-linecap:round" />
		<line
   x1="456.79999"
   y1="481.79999"
   x2="464.79999"
   y2="481.79999"
   id="line3908"
   style="fill:none;stroke:#75b640;stroke-width:1.60000002;stroke-linecap:round" />
		<line
   x1="456.79999"
   y1="476.79999"
   x2="462.79999"
   y2="476.79999"
   id="line3910"
   style="fill:none;stroke:#75b640;stroke-width:1.60000002;stroke-linecap:round" />
		<path
   d="m 475.8,480 h -5 c -1.6,0 -3,-1.3 -3,-3 v -5"
   id="path3912"
   inkscape:connector-curvature="0"
   style="fill:none;stroke:#75b640;stroke-width:1.60000002" />
	</g>
	<g
   id="g3914">
		<g
   id="g3916">
			<path
   d="m 477.8,471.8 h -13 c -1.6,0 -3,1.3 -3,3 v 24 c 0,1.7 1.4,3 3,3 h 18 c 1.7,0 3,-1.3 3,-3 v -19 l -8,-8 z"
   id="path3918"
   inkscape:connector-curvature="0"
   style="fill:#ffffff;stroke:#666666;stroke-width:1.60000002;stroke-linejoin:round" />
		</g>
		<line
   x1="466.79999"
   y1="496.79999"
   x2="480.79999"
   y2="496.79999"
   id="line3920"
   style="fill:none;stroke:#75b640;stroke-width:1.60000002;stroke-linecap:round" />
		<line
   x1="466.79999"
   y1="491.79999"
   x2="480.79999"
   y2="491.79999"
   id="line3922"
   style="fill:none;stroke:#75b640;stroke-width:1.60000002;stroke-linecap:round" />
		<line
   x1="466.79999"
   y1="486.79999"
   x2="480.79999"
   y2="486.79999"
   id="line3924"
   style="fill:none;stroke:#75b640;stroke-width:1.60000002;stroke-linecap:round" />
		<line
   x1="466.79999"
   y1="481.79999"
   x2="474.79999"
   y2="481.79999"
   id="line3926"
   style="fill:none;stroke:#75b640;stroke-width:1.60000002;stroke-linecap:round" />
		<line
   x1="466.79999"
   y1="476.79999"
   x2="472.79999"
   y2="476.79999"
   id="line3928"
   style="fill:none;stroke:#75b640;stroke-width:1.60000002;stroke-linecap:round" />
		<path
   d="m 485.8,480 h -5 c -1.6,0 -3,-1.3 -3,-3 v -5"
   id="path3930"
   inkscape:connector-curvature="0"
   style="fill:none;stroke:#75b640;stroke-width:1.60000002" />
	</g>
	<g
   id="g3932">
		<g
   id="g3934">
			<path
   d="m 487.8,471.8 h -13 c -1.6,0 -3,1.3 -3,3 v 24 c 0,1.7 1.4,3 3,3 h 18 c 1.7,0 3,-1.3 3,-3 v -19 l -8,-8 z"
   id="path3936"
   inkscape:connector-curvature="0"
   style="fill:#ffffff;stroke:#666666;stroke-width:1.60000002;stroke-linejoin:round" />
		</g>
		<line
   x1="476.79999"
   y1="496.79999"
   x2="490.79999"
   y2="496.79999"
   id="line3938"
   style="fill:none;stroke:#75b640;stroke-width:1.60000002;stroke-linecap:round" />
		<line
   x1="476.79999"
   y1="491.79999"
   x2="490.79999"
   y2="491.79999"
   id="line3940"
   style="fill:none;stroke:#75b640;stroke-width:1.60000002;stroke-linecap:round" />
		<line
   x1="476.79999"
   y1="486.79999"
   x2="490.79999"
   y2="486.79999"
   id="line3942"
   style="fill:none;stroke:#75b640;stroke-width:1.60000002;stroke-linecap:round" />
		<line
   x1="476.79999"
   y1="481.79999"
   x2="484.79999"
   y2="481.79999"
   id="line3944"
   style="fill:none;stroke:#75b640;stroke-width:1.60000002;stroke-linecap:round" />
		<line
   x1="476.79999"
   y1="476.79999"
   x2="482.79999"
   y2="476.79999"
   id="line3946"
   style="fill:none;stroke:#75b640;stroke-width:1.60000002;stroke-linecap:round" />
		<path
   d="m 495.8,480 h -5 c -1.6,0 -3,-1.3 -3,-3 v -5"
   id="path3948"
   inkscape:connector-curvature="0"
   style="fill:none;stroke:#75b640;stroke-width:1.60000002" />
	</g>
	<g
   id="g3950">
		<g
   id="g3952">
			<path
   d="m 497.8,471.8 h -13 c -1.6,0 -3,1.3 -3,3 v 24 c 0,1.7 1.4,3 3,3 h 18 c 1.7,0 3,-1.3 3,-3 v -19 l -8,-8 z"
   id="path3954"
   inkscape:connector-curvature="0"
   style="fill:#ffffff;stroke:#666666;stroke-width:1.60000002;stroke-linejoin:round" />
		</g>
		<line
   x1="486.79999"
   y1="496.79999"
   x2="500.79999"
   y2="496.79999"
   id="line3956"
   style="fill:none;stroke:#75b640;stroke-width:1.60000002;stroke-linecap:round" />
		<line
   x1="486.79999"
   y1="491.79999"
   x2="500.79999"
   y2="491.79999"
   id="line3958"
   style="fill:none;stroke:#75b640;stroke-width:1.60000002;stroke-linecap:round" />
		<line
   x1="486.79999"
   y1="486.79999"
   x2="500.79999"
   y2="486.79999"
   id="line3960"
   style="fill:none;stroke:#75b640;stroke-width:1.60000002;stroke-linecap:round" />
		<line
   x1="486.79999"
   y1="481.79999"
   x2="494.79999"
   y2="481.79999"
   id="line3962"
   style="fill:none;stroke:#75b640;stroke-width:1.60000002;stroke-linecap:round" />
		<line
   x1="486.79999"
   y1="476.79999"
   x2="492.79999"
   y2="476.79999"
   id="line3964"
   style="fill:none;stroke:#75b640;stroke-width:1.60000002;stroke-linecap:round" />
		<path
   d="m 505.8,480 h -5 c -1.6,0 -3,-1.3 -3,-3 v -5"
   id="path3966"
   inkscape:connector-curvature="0"
   style="fill:none;stroke:#75b640;stroke-width:1.60000002" />
	</g>
	<g
   id="g3968">
		<g
   id="g3970">
			<path
   d="m 507.8,471.8 h -13 c -1.6,0 -3,1.3 -3,3 v 24 c 0,1.7 1.4,3 3,3 h 18 c 1.7,0 3,-1.3 3,-3 v -19 l -8,-8 z"
   id="path3972"
   inkscape:connector-curvature="0"
   style="fill:#ffffff;stroke:#666666;stroke-width:1.60000002;stroke-linejoin:round" />
		</g>
		<line
   x1="496.79999"
   y1="496.79999"
   x2="510.79999"
   y2="496.79999"
   id="line3974"
   style="fill:none;stroke:#75b640;stroke-width:1.60000002;stroke-linecap:round" />
		<line
   x1="496.79999"
   y1="491.79999"
   x2="510.79999"
   y2="491.79999"
   id="line3976"
   style="fill:none;stroke:#75b640;stroke-width:1.60000002;stroke-linecap:round" />
		<line
   x1="496.79999"
   y1="486.79999"
   x2="510.79999"
   y2="486.79999"
   id="line3978"
   style="fill:none;stroke:#75b640;stroke-width:1.60000002;stroke-linecap:round" />
		<line
   x1="496.79999"
   y1="481.79999"
   x2="504.79999"
   y2="481.79999"
   id="line3980"
   style="fill:none;stroke:#75b640;stroke-width:1.60000002;stroke-linecap:round" />
		<line
   x1="496.79999"
   y1="476.79999"
   x2="502.79999"
   y2="476.79999"
   id="line3982"
   style="fill:none;stroke:#75b640;stroke-width:1.60000002;stroke-linecap:round" />
		<path
   d="m 515.8,480 h -5 c -1.6,0 -3,-1.3 -3,-3 v -5"
   id="path3984"
   inkscape:connector-curvature="0"
   style="fill:none;stroke:#75b640;stroke-width:1.60000002" />
	</g>
	<g
   id="g3986">
		<g
   id="g3988">
			<path
   d="m 517.8,471.8 h -13 c -1.6,0 -3,1.3 -3,3 v 24 c 0,1.7 1.4,3 3,3 h 18 c 1.7,0 3,-1.3 3,-3 v -19 l -8,-8 z"
   id="path3990"
   inkscape:connector-curvature="0"
   style="fill:#ffffff;stroke:#666666;stroke-width:1.60000002;stroke-linejoin:round" />
		</g>
		<line
   x1="506.79999"
   y1="496.79999"
   x2="520.79999"
   y2="496.79999"
   id="line3992"
   style="fill:none;stroke:#75b640;stroke-width:1.60000002;stroke-linecap:round" />
		<line
   x1="506.79999"
   y1="491.79999"
   x2="520.79999"
   y2="491.79999"
   id="line3994"
   style="fill:none;stroke:#75b640;stroke-width:1.60000002;stroke-linecap:round" />
		<line
   x1="506.79999"
   y1="486.79999"
   x2="520.79999"
   y2="486.79999"
   id="line3996"
   style="fill:none;stroke:#75b640;stroke-width:1.60000002;stroke-linecap:round" />
		<line
   x1="506.79999"
   y1="481.79999"
   x2="514.79999"
   y2="481.79999"
   id="line3998"
   style="fill:none;stroke:#75b640;stroke-width:1.60000002;stroke-linecap:round" />
		<line
   x1="506.79999"
   y1="476.79999"
   x2="512.79999"
   y2="476.79999"
   id="line4000"
   style="fill:none;stroke:#75b640;stroke-width:1.60000002;stroke-linecap:round" />
		<path
   d="m 525.8,480 h -5 c -1.6,0 -3,-1.3 -3,-3 v -5"
   id="path4002"
   inkscape:connector-curvature="0"
   style="fill:none;stroke:#75b640;stroke-width:1.60000002" />
	</g>
	<g
   id="g4004">
		<g
   id="g4006">
			<path
   d="m 527.8,471.8 h -13 c -1.6,0 -3,1.3 -3,3 v 24 c 0,1.7 1.4,3 3,3 h 18 c 1.7,0 3,-1.3 3,-3 v -19 l -8,-8 z"
   id="path4008"
   inkscape:connector-curvature="0"
   style="fill:#ffffff;stroke:#666666;stroke-width:1.60000002;stroke-linejoin:round" />
		</g>
		<line
   x1="516.79999"
   y1="496.79999"
   x2="530.79999"
   y2="496.79999"
   id="line4010"
   style="fill:none;stroke:#75b640;stroke-width:1.60000002;stroke-linecap:round" />
		<line
   x1="516.79999"
   y1="491.79999"
   x2="530.79999"
   y2="491.79999"
   id="line4012"
   style="fill:none;stroke:#75b640;stroke-width:1.60000002;stroke-linecap:round" />
		<line
   x1="516.79999"
   y1="486.79999"
   x2="530.79999"
   y2="486.79999"
   id="line4014"
   style="fill:none;stroke:#75b640;stroke-width:1.60000002;stroke-linecap:round" />
		<line
   x1="516.79999"
   y1="481.79999"
   x2="524.79999"
   y2="481.79999"
   id="line4016"
   style="fill:none;stroke:#75b640;stroke-width:1.60000002;stroke-linecap:round" />
		<line
   x1="516.79999"
   y1="476.79999"
   x2="522.79999"
   y2="476.79999"
   id="line4018"
   style="fill:none;stroke:#75b640;stroke-width:1.60000002;stroke-linecap:round" />
		<path
   d="m 535.8,480 h -5 c -1.6,0 -3,-1.3 -3,-3 v -5"
   id="path4020"
   inkscape:connector-curvature="0"
   style="fill:none;stroke:#75b640;stroke-width:1.60000002" />
	</g>
	<g
   id="g4022">
		<g
   id="g4024">
			<path
   d="m 537.8,471.8 h -13 c -1.6,0 -3,1.3 -3,3 v 24 c 0,1.7 1.4,3 3,3 h 18 c 1.7,0 3,-1.3 3,-3 v -19 l -8,-8 z"
   id="path4026"
   inkscape:connector-curvature="0"
   style="fill:#ffffff;stroke:#666666;stroke-width:1.60000002;stroke-linejoin:round" />
		</g>
		<line
   x1="526.79999"
   y1="496.79999"
   x2="540.79999"
   y2="496.79999"
   id="line4028"
   style="fill:none;stroke:#75b640;stroke-width:1.60000002;stroke-linecap:round" />
		<line
   x1="526.79999"
   y1="491.79999"
   x2="540.79999"
   y2="491.79999"
   id="line4030"
   style="fill:none;stroke:#75b640;stroke-width:1.60000002;stroke-linecap:round" />
		<line
   x1="526.79999"
   y1="486.79999"
   x2="540.79999"
   y2="486.79999"
   id="line4032"
   style="fill:none;stroke:#75b640;stroke-width:1.60000002;stroke-linecap:round" />
		<line
   x1="526.79999"
   y1="481.79999"
   x2="534.79999"
   y2="481.79999"
   id="line4034"
   style="fill:none;stroke:#75b640;stroke-width:1.60000002;stroke-linecap:round" />
		<line
   x1="526.79999"
   y1="476.79999"
   x2="532.79999"
   y2="476.79999"
   id="line4036"
   style="fill:none;stroke:#75b640;stroke-width:1.60000002;stroke-linecap:round" />
		<path
   d="m 545.8,480 h -5 c -1.6,0 -3,-1.3 -3,-3 v -5"
   id="path4038"
   inkscape:connector-curvature="0"
   style="fill:none;stroke:#666666;stroke-width:1.60000002;stroke-linejoin:round" />
	</g>
</g>
<path
   stroke-miterlimit="10"
   d="M 462,289.7 H 224.7 c -1.7,0 -3,-1.3 -3,-3 v -48 c 0,-1.7 1.3,-3 3,-3 H 462 c 1.7,0 3,1.3 3,3 v 48 c 0,1.6 -1.4,3 -3,3 z"
   id="path4040"
   inkscape:connector-curvature="0"
   style="fill:#ffffff;stroke:#c6c6c6;stroke-width:1.60000002;stroke-miterlimit:10" />
<g
   id="g4042"
   transform="translate(-374.4,-224.5)">
	<g
   id="g4044">
		<g
   id="g4046">
			<path
   d="m 626.6,472.2 h -13 c -1.6,0 -3,1.3 -3,3 v 24 c 0,1.7 1.4,3 3,3 h 18 c 1.7,0 3,-1.3 3,-3 v -19 l -8,-8 z"
   id="path4048"
   inkscape:connector-curvature="0"
   style="fill:#ffffff;stroke:#666666;stroke-width:1.60000002;stroke-linejoin:round" />
		</g>
		<line
   x1="615.59998"
   y1="497.20001"
   x2="629.59998"
   y2="497.20001"
   id="line4050"
   style="fill:none;stroke:#75b640;stroke-width:1.60000002;stroke-linecap:round" />
		<line
   x1="615.59998"
   y1="492.20001"
   x2="629.59998"
   y2="492.20001"
   id="line4052"
   style="fill:none;stroke:#75b640;stroke-width:1.60000002;stroke-linecap:round" />
		<line
   x1="615.59998"
   y1="487.20001"
   x2="629.59998"
   y2="487.20001"
   id="line4054"
   style="fill:none;stroke:#75b640;stroke-width:1.60000002;stroke-linecap:round" />
		<line
   x1="615.59998"
   y1="482.20001"
   x2="623.59998"
   y2="482.20001"
   id="line4056"
   style="fill:none;stroke:#75b640;stroke-width:1.60000002;stroke-linecap:round" />
		<line
   x1="615.59998"
   y1="477.20001"
   x2="621.59998"
   y2="477.20001"
   id="line4058"
   style="fill:none;stroke:#75b640;stroke-width:1.60000002;stroke-linecap:round" />
		<path
   d="m 634.6,480.3 h -5 c -1.6,0 -3,-1.3 -3,-3 v -5"
   id="path4060"
   inkscape:connector-curvature="0"
   style="fill:none;stroke:#75b640;stroke-width:1.60000002" />
	</g>
	<g
   id="g4062">
		<g
   id="g4064">
			<path
   d="m 636.6,472.2 h -13 c -1.6,0 -3,1.3 -3,3 v 24 c 0,1.7 1.4,3 3,3 h 18 c 1.7,0 3,-1.3 3,-3 v -19 l -8,-8 z"
   id="path4066"
   inkscape:connector-curvature="0"
   style="fill:#ffffff;stroke:#666666;stroke-width:1.60000002;stroke-linejoin:round" />
		</g>
		<line
   x1="625.59998"
   y1="497.20001"
   x2="639.59998"
   y2="497.20001"
   id="line4068"
   style="fill:none;stroke:#75b640;stroke-width:1.60000002;stroke-linecap:round" />
		<line
   x1="625.59998"
   y1="492.20001"
   x2="639.59998"
   y2="492.20001"
   id="line4070"
   style="fill:none;stroke:#75b640;stroke-width:1.60000002;stroke-linecap:round" />
		<line
   x1="625.59998"
   y1="487.20001"
   x2="639.59998"
   y2="487.20001"
   id="line4072"
   style="fill:none;stroke:#75b640;stroke-width:1.60000002;stroke-linecap:round" />
		<line
   x1="625.59998"
   y1="482.20001"
   x2="633.59998"
   y2="482.20001"
   id="line4074"
   style="fill:none;stroke:#75b640;stroke-width:1.60000002;stroke-linecap:round" />
		<line
   x1="625.59998"
   y1="477.20001"
   x2="631.59998"
   y2="477.20001"
   id="line4076"
   style="fill:none;stroke:#75b640;stroke-width:1.60000002;stroke-linecap:round" />
		<path
   d="m 644.6,480.3 h -5 c -1.6,0 -3,-1.3 -3,-3 v -5"
   id="path4078"
   inkscape:connector-curvature="0"
   style="fill:none;stroke:#75b640;stroke-width:1.60000002" />
	</g>
	<g
   id="g4080">
		<g
   id="g4082">
			<path
   d="m 646.6,472.2 h -13 c -1.6,0 -3,1.3 -3,3 v 24 c 0,1.7 1.4,3 3,3 h 18 c 1.7,0 3,-1.3 3,-3 v -19 l -8,-8 z"
   id="path4084"
   inkscape:connector-curvature="0"
   style="fill:#ffffff;stroke:#666666;stroke-width:1.60000002;stroke-linejoin:round" />
		</g>
		<line
   x1="635.59998"
   y1="497.20001"
   x2="649.59998"
   y2="497.20001"
   id="line4086"
   style="fill:none;stroke:#75b640;stroke-width:1.60000002;stroke-linecap:round" />
		<line
   x1="635.59998"
   y1="492.20001"
   x2="649.59998"
   y2="492.20001"
   id="line4088"
   style="fill:none;stroke:#75b640;stroke-width:1.60000002;stroke-linecap:round" />
		<line
   x1="635.59998"
   y1="487.20001"
   x2="649.59998"
   y2="487.20001"
   id="line4090"
   style="fill:none;stroke:#75b640;stroke-width:1.60000002;stroke-linecap:round" />
		<line
   x1="635.59998"
   y1="482.20001"
   x2="643.59998"
   y2="482.20001"
   id="line4092"
   style="fill:none;stroke:#75b640;stroke-width:1.60000002;stroke-linecap:round" />
		<line
   x1="635.59998"
   y1="477.20001"
   x2="641.59998"
   y2="477.20001"
   id="line4094"
   style="fill:none;stroke:#75b640;stroke-width:1.60000002;stroke-linecap:round" />
		<path
   d="m 654.6,480.3 h -5 c -1.6,0 -3,-1.3 -3,-3 v -5"
   id="path4096"
   inkscape:connector-curvature="0"
   style="fill:none;stroke:#75b640;stroke-width:1.60000002" />
	</g>
	<g
   id="g4098">
		<g
   id="g4100">
			<path
   d="m 656.6,472.2 h -13 c -1.6,0 -3,1.3 -3,3 v 24 c 0,1.7 1.4,3 3,3 h 18 c 1.7,0 3,-1.3 3,-3 v -19 l -8,-8 z"
   id="path4102"
   inkscape:connector-curvature="0"
   style="fill:#ffffff;stroke:#666666;stroke-width:1.60000002;stroke-linejoin:round" />
		</g>
		<line
   x1="645.59998"
   y1="497.20001"
   x2="659.59998"
   y2="497.20001"
   id="line4104"
   style="fill:none;stroke:#75b640;stroke-width:1.60000002;stroke-linecap:round" />
		<line
   x1="645.59998"
   y1="492.20001"
   x2="659.59998"
   y2="492.20001"
   id="line4106"
   style="fill:none;stroke:#75b640;stroke-width:1.60000002;stroke-linecap:round" />
		<line
   x1="645.59998"
   y1="487.20001"
   x2="659.59998"
   y2="487.20001"
   id="line4108"
   style="fill:none;stroke:#75b640;stroke-width:1.60000002;stroke-linecap:round" />
		<line
   x1="645.59998"
   y1="482.20001"
   x2="653.59998"
   y2="482.20001"
   id="line4110"
   style="fill:none;stroke:#75b640;stroke-width:1.60000002;stroke-linecap:round" />
		<line
   x1="645.59998"
   y1="477.20001"
   x2="651.59998"
   y2="477.20001"
   id="line4112"
   style="fill:none;stroke:#75b640;stroke-width:1.60000002;stroke-linecap:round" />
		<path
   d="m 664.6,480.3 h -5 c -1.6,0 -3,-1.3 -3,-3 v -5"
   id="path4114"
   inkscape:connector-curvature="0"
   style="fill:none;stroke:#75b640;stroke-width:1.60000002" />
	</g>
	<g
   id="g4116">
		<g
   id="g4118">
			<path
   d="m 666.6,472.2 h -13 c -1.6,0 -3,1.3 -3,3 v 24 c 0,1.7 1.4,3 3,3 h 18 c 1.7,0 3,-1.3 3,-3 v -19 l -8,-8 z"
   id="path4120"
   inkscape:connector-curvature="0"
   style="fill:#ffffff;stroke:#666666;stroke-width:1.60000002;stroke-linejoin:round" />
		</g>
		<line
   x1="655.59998"
   y1="497.20001"
   x2="669.59998"
   y2="497.20001"
   id="line4122"
   style="fill:none;stroke:#75b640;stroke-width:1.60000002;stroke-linecap:round" />
		<line
   x1="655.59998"
   y1="492.20001"
   x2="669.59998"
   y2="492.20001"
   id="line4124"
   style="fill:none;stroke:#75b640;stroke-width:1.60000002;stroke-linecap:round" />
		<line
   x1="655.59998"
   y1="487.20001"
   x2="669.59998"
   y2="487.20001"
   id="line4126"
   style="fill:none;stroke:#75b640;stroke-width:1.60000002;stroke-linecap:round" />
		<line
   x1="655.59998"
   y1="482.20001"
   x2="663.59998"
   y2="482.20001"
   id="line4128"
   style="fill:none;stroke:#75b640;stroke-width:1.60000002;stroke-linecap:round" />
		<line
   x1="655.59998"
   y1="477.20001"
   x2="661.59998"
   y2="477.20001"
   id="line4130"
   style="fill:none;stroke:#75b640;stroke-width:1.60000002;stroke-linecap:round" />
		<path
   d="m 674.6,480.3 h -5 c -1.6,0 -3,-1.3 -3,-3 v -5"
   id="path4132"
   inkscape:connector-curvature="0"
   style="fill:none;stroke:#75b640;stroke-width:1.60000002" />
	</g>
	<g
   id="g4134">
		<g
   id="g4136">
			<path
   d="m 676.6,472.2 h -13 c -1.6,0 -3,1.3 -3,3 v 24 c 0,1.7 1.4,3 3,3 h 18 c 1.7,0 3,-1.3 3,-3 v -19 l -8,-8 z"
   id="path4138"
   inkscape:connector-curvature="0"
   style="fill:#ffffff;stroke:#666666;stroke-width:1.60000002;stroke-linejoin:round" />
		</g>
		<line
   x1="665.59998"
   y1="497.20001"
   x2="679.59998"
   y2="497.20001"
   id="line4140"
   style="fill:none;stroke:#75b640;stroke-width:1.60000002;stroke-linecap:round" />
		<line
   x1="665.59998"
   y1="492.20001"
   x2="679.59998"
   y2="492.20001"
   id="line4142"
   style="fill:none;stroke:#75b640;stroke-width:1.60000002;stroke-linecap:round" />
		<line
   x1="665.59998"
   y1="487.20001"
   x2="679.59998"
   y2="487.20001"
   id="line4144"
   style="fill:none;stroke:#75b640;stroke-width:1.60000002;stroke-linecap:round" />
		<line
   x1="665.59998"
   y1="482.20001"
   x2="673.59998"
   y2="482.20001"
   id="line4146"
   style="fill:none;stroke:#75b640;stroke-width:1.60000002;stroke-linecap:round" />
		<line
   x1="665.59998"
   y1="477.20001"
   x2="671.59998"
   y2="477.20001"
   id="line4148"
   style="fill:none;stroke:#75b640;stroke-width:1.60000002;stroke-linecap:round" />
		<path
   d="m 684.6,480.3 h -5 c -1.6,0 -3,-1.3 -3,-3 v -5"
   id="path4150"
   inkscape:connector-curvature="0"
   style="fill:none;stroke:#75b640;stroke-width:1.60000002" />
	</g>
	<g
   id="g4152">
		<g
   id="g4154">
			<path
   d="m 686.6,472.2 h -13 c -1.6,0 -3,1.3 -3,3 v 24 c 0,1.7 1.4,3 3,3 h 18 c 1.7,0 3,-1.3 3,-3 v -19 l -8,-8 z"
   id="path4156"
   inkscape:connector-curvature="0"
   style="fill:#ffffff;stroke:#666666;stroke-width:1.60000002;stroke-linejoin:round" />
		</g>
		<line
   x1="675.59998"
   y1="497.20001"
   x2="689.59998"
   y2="497.20001"
   id="line4158"
   style="fill:none;stroke:#75b640;stroke-width:1.60000002;stroke-linecap:round" />
		<line
   x1="675.59998"
   y1="492.20001"
   x2="689.59998"
   y2="492.20001"
   id="line4160"
   style="fill:none;stroke:#75b640;stroke-width:1.60000002;stroke-linecap:round" />
		<line
   x1="675.59998"
   y1="487.20001"
   x2="689.59998"
   y2="487.20001"
   id="line4162"
   style="fill:none;stroke:#75b640;stroke-width:1.60000002;stroke-linecap:round" />
		<line
   x1="675.59998"
   y1="482.20001"
   x2="683.59998"
   y2="482.20001"
   id="line4164"
   style="fill:none;stroke:#75b640;stroke-width:1.60000002;stroke-linecap:round" />
		<line
   x1="675.59998"
   y1="477.20001"
   x2="681.59998"
   y2="477.20001"
   id="line4166"
   style="fill:none;stroke:#75b640;stroke-width:1.60000002;stroke-linecap:round" />
		<path
   d="m 694.6,480.3 h -5 c -1.6,0 -3,-1.3 -3,-3 v -5"
   id="path4168"
   inkscape:connector-curvature="0"
   style="fill:none;stroke:#75b640;stroke-width:1.60000002" />
	</g>
	<g
   id="g4170">
		<g
   id="g4172">
			<path
   d="m 696.6,472.2 h -13 c -1.6,0 -3,1.3 -3,3 v 24 c 0,1.7 1.4,3 3,3 h 18 c 1.7,0 3,-1.3 3,-3 v -19 l -8,-8 z"
   id="path4174"
   inkscape:connector-curvature="0"
   style="fill:#ffffff;stroke:#666666;stroke-width:1.60000002;stroke-linejoin:round" />
		</g>
		<line
   x1="685.59998"
   y1="497.20001"
   x2="699.59998"
   y2="497.20001"
   id="line4176"
   style="fill:none;stroke:#75b640;stroke-width:1.60000002;stroke-linecap:round" />
		<line
   x1="685.59998"
   y1="492.20001"
   x2="699.59998"
   y2="492.20001"
   id="line4178"
   style="fill:none;stroke:#75b640;stroke-width:1.60000002;stroke-linecap:round" />
		<line
   x1="685.59998"
   y1="487.20001"
   x2="699.59998"
   y2="487.20001"
   id="line4180"
   style="fill:none;stroke:#75b640;stroke-width:1.60000002;stroke-linecap:round" />
		<line
   x1="685.59998"
   y1="482.20001"
   x2="693.59998"
   y2="482.20001"
   id="line4182"
   style="fill:none;stroke:#75b640;stroke-width:1.60000002;stroke-linecap:round" />
		<line
   x1="685.59998"
   y1="477.20001"
   x2="691.59998"
   y2="477.20001"
   id="line4184"
   style="fill:none;stroke:#75b640;stroke-width:1.60000002;stroke-linecap:round" />
		<path
   d="m 704.6,480.3 h -5 c -1.6,0 -3,-1.3 -3,-3 v -5"
   id="path4186"
   inkscape:connector-curvature="0"
   style="fill:none;stroke:#666666;stroke-width:1.60000002;stroke-linejoin:round" />
	</g>
</g>
<g
   id="g4188"
   transform="translate(-374.4,-224.5)">
	<g
   id="g4190">
		<g
   id="g4192">
			<path
   d="m 705.6,472.2 h -13 c -1.6,0 -3,1.3 -3,3 v 24 c 0,1.7 1.4,3 3,3 h 18 c 1.7,0 3,-1.3 3,-3 v -19 l -8,-8 z"
   id="path4194"
   inkscape:connector-curvature="0"
   style="fill:#ffffff;stroke:#666666;stroke-width:1.60000002;stroke-linejoin:round" />
		</g>
		<line
   x1="694.59998"
   y1="497.20001"
   x2="708.59998"
   y2="497.20001"
   id="line4196"
   style="fill:none;stroke:#75b640;stroke-width:1.60000002;stroke-linecap:round" />
		<line
   x1="694.59998"
   y1="492.20001"
   x2="708.59998"
   y2="492.20001"
   id="line4198"
   style="fill:none;stroke:#75b640;stroke-width:1.60000002;stroke-linecap:round" />
		<line
   x1="694.59998"
   y1="487.20001"
   x2="708.59998"
   y2="487.20001"
   id="line4200"
   style="fill:none;stroke:#75b640;stroke-width:1.60000002;stroke-linecap:round" />
		<line
   x1="694.59998"
   y1="482.20001"
   x2="702.59998"
   y2="482.20001"
   id="line4202"
   style="fill:none;stroke:#75b640;stroke-width:1.60000002;stroke-linecap:round" />
		<line
   x1="694.59998"
   y1="477.20001"
   x2="700.59998"
   y2="477.20001"
   id="line4204"
   style="fill:none;stroke:#75b640;stroke-width:1.60000002;stroke-linecap:round" />
		<path
   d="m 713.6,480.3 h -5 c -1.6,0 -3,-1.3 -3,-3 v -5"
   id="path4206"
   inkscape:connector-curvature="0"
   style="fill:none;stroke:#75b640;stroke-width:1.60000002" />
	</g>
	<g
   id="g4208">
		<g
   id="g4210">
			<path
   d="m 715.6,472.2 h -13 c -1.6,0 -3,1.3 -3,3 v 24 c 0,1.7 1.4,3 3,3 h 18 c 1.7,0 3,-1.3 3,-3 v -19 l -8,-8 z"
   id="path4212"
   inkscape:connector-curvature="0"
   style="fill:#ffffff;stroke:#666666;stroke-width:1.60000002;stroke-linejoin:round" />
		</g>
		<line
   x1="704.59998"
   y1="497.20001"
   x2="718.59998"
   y2="497.20001"
   id="line4214"
   style="fill:none;stroke:#75b640;stroke-width:1.60000002;stroke-linecap:round" />
		<line
   x1="704.59998"
   y1="492.20001"
   x2="718.59998"
   y2="492.20001"
   id="line4216"
   style="fill:none;stroke:#75b640;stroke-width:1.60000002;stroke-linecap:round" />
		<line
   x1="704.59998"
   y1="487.20001"
   x2="718.59998"
   y2="487.20001"
   id="line4218"
   style="fill:none;stroke:#75b640;stroke-width:1.60000002;stroke-linecap:round" />
		<line
   x1="704.59998"
   y1="482.20001"
   x2="712.59998"
   y2="482.20001"
   id="line4220"
   style="fill:none;stroke:#75b640;stroke-width:1.60000002;stroke-linecap:round" />
		<line
   x1="704.59998"
   y1="477.20001"
   x2="710.59998"
   y2="477.20001"
   id="line4222"
   style="fill:none;stroke:#75b640;stroke-width:1.60000002;stroke-linecap:round" />
		<path
   d="m 723.6,480.3 h -5 c -1.6,0 -3,-1.3 -3,-3 v -5"
   id="path4224"
   inkscape:connector-curvature="0"
   style="fill:none;stroke:#75b640;stroke-width:1.60000002" />
	</g>
	<g
   id="g4226">
		<g
   id="g4228">
			<path
   d="m 725.6,472.2 h -13 c -1.6,0 -3,1.3 -3,3 v 24 c 0,1.7 1.4,3 3,3 h 18 c 1.7,0 3,-1.3 3,-3 v -19 l -8,-8 z"
   id="path4230"
   inkscape:connector-curvature="0"
   style="fill:#ffffff;stroke:#666666;stroke-width:1.60000002;stroke-linejoin:round" />
		</g>
		<line
   x1="714.59998"
   y1="497.20001"
   x2="728.59998"
   y2="497.20001"
   id="line4232"
   style="fill:none;stroke:#75b640;stroke-width:1.60000002;stroke-linecap:round" />
		<line
   x1="714.59998"
   y1="492.20001"
   x2="728.59998"
   y2="492.20001"
   id="line4234"
   style="fill:none;stroke:#75b640;stroke-width:1.60000002;stroke-linecap:round" />
		<line
   x1="714.59998"
   y1="487.20001"
   x2="728.59998"
   y2="487.20001"
   id="line4236"
   style="fill:none;stroke:#75b640;stroke-width:1.60000002;stroke-linecap:round" />
		<line
   x1="714.59998"
   y1="482.20001"
   x2="722.59998"
   y2="482.20001"
   id="line4238"
   style="fill:none;stroke:#75b640;stroke-width:1.60000002;stroke-linecap:round" />
		<line
   x1="714.59998"
   y1="477.20001"
   x2="720.59998"
   y2="477.20001"
   id="line4240"
   style="fill:none;stroke:#75b640;stroke-width:1.60000002;stroke-linecap:round" />
		<path
   d="m 733.6,480.3 h -5 c -1.6,0 -3,-1.3 -3,-3 v -5"
   id="path4242"
   inkscape:connector-curvature="0"
   style="fill:none;stroke:#75b640;stroke-width:1.60000002" />
	</g>
	<g
   id="g4244">
		<g
   id="g4246">
			<path
   d="m 735.6,472.2 h -13 c -1.6,0 -3,1.3 -3,3 v 24 c 0,1.7 1.4,3 3,3 h 18 c 1.7,0 3,-1.3 3,-3 v -19 l -8,-8 z"
   id="path4248"
   inkscape:connector-curvature="0"
   style="fill:#ffffff;stroke:#666666;stroke-width:1.60000002;stroke-linejoin:round" />
		</g>
		<line
   x1="724.59998"
   y1="497.20001"
   x2="738.59998"
   y2="497.20001"
   id="line4250"
   style="fill:none;stroke:#75b640;stroke-width:1.60000002;stroke-linecap:round" />
		<line
   x1="724.59998"
   y1="492.20001"
   x2="738.59998"
   y2="492.20001"
   id="line4252"
   style="fill:none;stroke:#75b640;stroke-width:1.60000002;stroke-linecap:round" />
		<line
   x1="724.59998"
   y1="487.20001"
   x2="738.59998"
   y2="487.20001"
   id="line4254"
   style="fill:none;stroke:#75b640;stroke-width:1.60000002;stroke-linecap:round" />
		<line
   x1="724.59998"
   y1="482.20001"
   x2="732.59998"
   y2="482.20001"
   id="line4256"
   style="fill:none;stroke:#75b640;stroke-width:1.60000002;stroke-linecap:round" />
		<line
   x1="724.59998"
   y1="477.20001"
   x2="730.59998"
   y2="477.20001"
   id="line4258"
   style="fill:none;stroke:#75b640;stroke-width:1.60000002;stroke-linecap:round" />
		<path
   d="m 743.6,480.3 h -5 c -1.6,0 -3,-1.3 -3,-3 v -5"
   id="path4260"
   inkscape:connector-curvature="0"
   style="fill:none;stroke:#75b640;stroke-width:1.60000002" />
	</g>
	<g
   id="g4262">
		<g
   id="g4264">
			<path
   d="m 745.6,472.2 h -13 c -1.6,0 -3,1.3 -3,3 v 24 c 0,1.7 1.4,3 3,3 h 18 c 1.7,0 3,-1.3 3,-3 v -19 l -8,-8 z"
   id="path4266"
   inkscape:connector-curvature="0"
   style="fill:#ffffff;stroke:#666666;stroke-width:1.60000002;stroke-linejoin:round" />
		</g>
		<line
   x1="734.59998"
   y1="497.20001"
   x2="748.59998"
   y2="497.20001"
   id="line4268"
   style="fill:none;stroke:#75b640;stroke-width:1.60000002;stroke-linecap:round" />
		<line
   x1="734.59998"
   y1="492.20001"
   x2="748.59998"
   y2="492.20001"
   id="line4270"
   style="fill:none;stroke:#75b640;stroke-width:1.60000002;stroke-linecap:round" />
		<line
   x1="734.59998"
   y1="487.20001"
   x2="748.59998"
   y2="487.20001"
   id="line4272"
   style="fill:none;stroke:#75b640;stroke-width:1.60000002;stroke-linecap:round" />
		<line
   x1="734.59998"
   y1="482.20001"
   x2="742.59998"
   y2="482.20001"
   id="line4274"
   style="fill:none;stroke:#75b640;stroke-width:1.60000002;stroke-linecap:round" />
		<line
   x1="734.59998"
   y1="477.20001"
   x2="740.59998"
   y2="477.20001"
   id="line4276"
   style="fill:none;stroke:#75b640;stroke-width:1.60000002;stroke-linecap:round" />
		<path
   d="m 753.6,480.3 h -5 c -1.6,0 -3,-1.3 -3,-3 v -5"
   id="path4278"
   inkscape:connector-curvature="0"
   style="fill:none;stroke:#75b640;stroke-width:1.60000002" />
	</g>
	<g
   id="g4280">
		<g
   id="g4282">
			<path
   d="m 755.6,472.2 h -13 c -1.6,0 -3,1.3 -3,3 v 24 c 0,1.7 1.4,3 3,3 h 18 c 1.7,0 3,-1.3 3,-3 v -19 l -8,-8 z"
   id="path4284"
   inkscape:connector-curvature="0"
   style="fill:#ffffff;stroke:#666666;stroke-width:1.60000002;stroke-linejoin:round" />
		</g>
		<line
   x1="744.59998"
   y1="497.20001"
   x2="758.59998"
   y2="497.20001"
   id="line4286"
   style="fill:none;stroke:#75b640;stroke-width:1.60000002;stroke-linecap:round" />
		<line
   x1="744.59998"
   y1="492.20001"
   x2="758.59998"
   y2="492.20001"
   id="line4288"
   style="fill:none;stroke:#75b640;stroke-width:1.60000002;stroke-linecap:round" />
		<line
   x1="744.59998"
   y1="487.20001"
   x2="758.59998"
   y2="487.20001"
   id="line4290"
   style="fill:none;stroke:#75b640;stroke-width:1.60000002;stroke-linecap:round" />
		<line
   x1="744.59998"
   y1="482.20001"
   x2="752.59998"
   y2="482.20001"
   id="line4292"
   style="fill:none;stroke:#75b640;stroke-width:1.60000002;stroke-linecap:round" />
		<line
   x1="744.59998"
   y1="477.20001"
   x2="750.59998"
   y2="477.20001"
   id="line4294"
   style="fill:none;stroke:#75b640;stroke-width:1.60000002;stroke-linecap:round" />
		<path
   d="m 763.6,480.3 h -5 c -1.6,0 -3,-1.3 -3,-3 v -5"
   id="path4296"
   inkscape:connector-curvature="0"
   style="fill:none;stroke:#75b640;stroke-width:1.60000002" />
	</g>
	<g
   id="g4298">
		<g
   id="g4300">
			<path
   d="m 765.6,472.2 h -13 c -1.6,0 -3,1.3 -3,3 v 24 c 0,1.7 1.4,3 3,3 h 18 c 1.7,0 3,-1.3 3,-3 v -19 l -8,-8 z"
   id="path4302"
   inkscape:connector-curvature="0"
   style="fill:#ffffff;stroke:#666666;stroke-width:1.60000002;stroke-linejoin:round" />
		</g>
		<line
   x1="754.59998"
   y1="497.20001"
   x2="768.59998"
   y2="497.20001"
   id="line4304"
   style="fill:none;stroke:#75b640;stroke-width:1.60000002;stroke-linecap:round" />
		<line
   x1="754.59998"
   y1="492.20001"
   x2="768.59998"
   y2="492.20001"
   id="line4306"
   style="fill:none;stroke:#75b640;stroke-width:1.60000002;stroke-linecap:round" />
		<line
   x1="754.59998"
   y1="487.20001"
   x2="768.59998"
   y2="487.20001"
   id="line4308"
   style="fill:none;stroke:#75b640;stroke-width:1.60000002;stroke-linecap:round" />
		<line
   x1="754.59998"
   y1="482.20001"
   x2="762.59998"
   y2="482.20001"
   id="line4310"
   style="fill:none;stroke:#75b640;stroke-width:1.60000002;stroke-linecap:round" />
		<line
   x1="754.59998"
   y1="477.20001"
   x2="760.59998"
   y2="477.20001"
   id="line4312"
   style="fill:none;stroke:#75b640;stroke-width:1.60000002;stroke-linecap:round" />
		<path
   d="m 773.6,480.3 h -5 c -1.6,0 -3,-1.3 -3,-3 v -5"
   id="path4314"
   inkscape:connector-curvature="0"
   style="fill:none;stroke:#75b640;stroke-width:1.60000002" />
	</g>
	<g
   id="g4316">
		<g
   id="g4318">
			<path
   d="m 775.6,472.2 h -13 c -1.6,0 -3,1.3 -3,3 v 24 c 0,1.7 1.4,3 3,3 h 18 c 1.7,0 3,-1.3 3,-3 v -19 l -8,-8 z"
   id="path4320"
   inkscape:connector-curvature="0"
   style="fill:#ffffff;stroke:#666666;stroke-width:1.60000002;stroke-linejoin:round" />
		</g>
		<line
   x1="764.59998"
   y1="497.20001"
   x2="778.59998"
   y2="497.20001"
   id="line4322"
   style="fill:none;stroke:#75b640;stroke-width:1.60000002;stroke-linecap:round" />
		<line
   x1="764.59998"
   y1="492.20001"
   x2="778.59998"
   y2="492.20001"
   id="line4324"
   style="fill:none;stroke:#75b640;stroke-width:1.60000002;stroke-linecap:round" />
		<line
   x1="764.59998"
   y1="487.20001"
   x2="778.59998"
   y2="487.20001"
   id="line4326"
   style="fill:none;stroke:#75b640;stroke-width:1.60000002;stroke-linecap:round" />
		<line
   x1="764.59998"
   y1="482.20001"
   x2="772.59998"
   y2="482.20001"
   id="line4328"
   style="fill:none;stroke:#75b640;stroke-width:1.60000002;stroke-linecap:round" />
		<line
   x1="764.59998"
   y1="477.20001"
   x2="770.59998"
   y2="477.20001"
   id="line4330"
   style="fill:none;stroke:#75b640;stroke-width:1.60000002;stroke-linecap:round" />
		<path
   d="m 783.6,480.3 h -5 c -1.6,0 -3,-1.3 -3,-3 v -5"
   id="path4332"
   inkscape:connector-curvature="0"
   style="fill:none;stroke:#666666;stroke-width:1.60000002;stroke-linejoin:round" />
	</g>
</g>
</svg>