<?xml version="1.0" encoding="UTF-8" standalone="no"?>
<!-- Generator: Adobe Illustrator 18.0.0, SVG Export Plug-In . SVG Version: 6.00 Build 0)  -->

<svg
   xmlns:dc="http://purl.org/dc/elements/1.1/"
   xmlns:cc="http://creativecommons.org/ns#"
   xmlns:rdf="http://www.w3.org/1999/02/22-rdf-syntax-ns#"
   xmlns:svg="http://www.w3.org/2000/svg"
   xmlns="http://www.w3.org/2000/svg"
   xmlns:sodipodi="http://sodipodi.sourceforge.net/DTD/sodipodi-0.dtd"
   xmlns:inkscape="http://www.inkscape.org/namespaces/inkscape"
   version="1.1"
   id="Layer_1"
   x="0px"
   y="0px"
   viewBox="0 0 383.63636 237.27273"
   enable-background="new 0 0 1280 800"
   xml:space="preserve"
   inkscape:version="0.48.2 r9819"
   width="100%"
   height="100%"
   sodipodi:docname="075_30_index.svg"><metadata
   id="metadata287"><rdf:RDF><cc:Work
       rdf:about=""><dc:format>image/svg+xml</dc:format><dc:type
         rdf:resource="http://purl.org/dc/dcmitype/StillImage" /><dc:title></dc:title></cc:Work></rdf:RDF></metadata><defs
   id="defs285" /><sodipodi:namedview
   pagecolor="#ffffff"
   bordercolor="#666666"
   borderopacity="1"
   objecttolerance="10"
   gridtolerance="10"
   guidetolerance="10"
   inkscape:pageopacity="0"
   inkscape:pageshadow="2"
   inkscape:window-width="1440"
   inkscape:window-height="852"
   id="namedview283"
   showgrid="false"
   inkscape:zoom="1.1"
   inkscape:cx="150.50909"
   inkscape:cy="62.77273"
   inkscape:window-x="0"
   inkscape:window-y="0"
   inkscape:window-maximized="1"
   inkscape:current-layer="Layer_1"
   fit-margin-top="0"
   fit-margin-left="0"
   fit-margin-right="0"
   fit-margin-bottom="0" />
<path
   d="M 381.46484,237.27273 H 2.1715266 C 0.94099485,237.27273 0,236.39143 0,235.23896 V 2.0337662 C 0,0.94909091 0.94099485,0 2.1715266,0 H 381.46484 c 1.23053,0 2.17152,0.94909091 2.17152,2.0337662 V 235.23896 c 0,1.08468 -0.94099,2.03377 -2.17152,2.03377 z"
   id="path3"
   inkscape:connector-curvature="0"
   style="fill:#f8faf6" />

















<g
   id="g3418"
   transform="translate(8.36818,-3.113635)"><g
     transform="translate(-375.4,-225.5)"
     id="g5">
	<path
   style="fill:#454746"
   inkscape:connector-curvature="0"
   id="path7"
   d="m 520.7,271.1 c -0.5,0.2 -1.5,0.5 -2.8,0.5 -3.4,0 -5.5,-2.1 -5.5,-5.4 0,-3.6 2.5,-5.7 5.8,-5.7 1.3,0 2.2,0.3 2.6,0.5 l -0.4,1.6 c -0.5,-0.2 -1.2,-0.4 -2.1,-0.4 -2.2,0 -3.8,1.4 -3.8,4 0,2.4 1.4,3.9 3.8,3.9 0.8,0 1.6,-0.2 2.1,-0.4 l 0.3,1.4 z" />
	<path
   style="fill:#454746"
   inkscape:connector-curvature="0"
   id="path9"
   d="m 529.5,267.5 c 0,2.9 -2,4.1 -4,4.1 -2.2,0 -3.9,-1.5 -3.9,-4 0,-2.6 1.7,-4.1 4,-4.1 2.3,0 3.9,1.6 3.9,4 z m -5.9,0.1 c 0,1.5 0.7,2.6 1.9,2.6 1.1,0 1.9,-1.1 1.9,-2.7 0,-1.2 -0.5,-2.6 -1.9,-2.6 -1.3,0 -1.9,1.4 -1.9,2.7 z" />
	<path
   style="fill:#454746"
   inkscape:connector-curvature="0"
   id="path11"
   d="m 531.1,266 c 0,-0.9 0,-1.6 -0.1,-2.3 h 1.7 l 0.1,1.2 0,0 c 0.4,-0.6 1.1,-1.3 2.4,-1.3 1,0 1.8,0.6 2.2,1.4 l 0,0 c 0.3,-0.4 0.6,-0.8 1,-1 0.4,-0.3 0.9,-0.5 1.6,-0.5 1.3,0 2.6,0.9 2.6,3.4 v 4.6 h -1.9 v -4.3 c 0,-1.3 -0.4,-2.1 -1.4,-2.1 -0.7,0 -1.2,0.5 -1.4,1 0,0.2 -0.1,0.4 -0.1,0.7 v 4.7 h -1.9 V 267 c 0,-1.1 -0.4,-1.9 -1.3,-1.9 -0.7,0 -1.2,0.6 -1.4,1.1 -0.1,0.2 -0.1,0.4 -0.1,0.6 v 4.6 h -1.9 l -0.1,-5.4 0,0 z" />
	<path
   style="fill:#454746"
   inkscape:connector-curvature="0"
   id="path13"
   d="m 544.7,266 c 0,-0.9 0,-1.6 -0.1,-2.3 h 1.7 l 0.1,1.2 0,0 c 0.4,-0.6 1.1,-1.3 2.4,-1.3 1,0 1.8,0.6 2.2,1.4 l 0,0 c 0.3,-0.4 0.6,-0.8 1,-1 0.4,-0.3 0.9,-0.5 1.6,-0.5 1.3,0 2.6,0.9 2.6,3.4 v 4.6 h -1.9 v -4.3 c 0,-1.3 -0.4,-2.1 -1.4,-2.1 -0.7,0 -1.2,0.5 -1.4,1 0,0.2 -0.1,0.4 -0.1,0.7 v 4.7 h -1.9 V 267 c 0,-1.1 -0.4,-1.9 -1.3,-1.9 -0.7,0 -1.2,0.6 -1.4,1.1 -0.1,0.2 -0.1,0.4 -0.1,0.6 v 4.6 h -1.9 l -0.1,-5.4 0,0 z" />
	<path
   style="fill:#454746"
   inkscape:connector-curvature="0"
   id="path15"
   d="m 560.3,261.5 c 0,0.6 -0.4,1.1 -1.1,1.1 -0.7,0 -1.1,-0.5 -1.1,-1.1 0,-0.6 0.4,-1.1 1.1,-1.1 0.7,0 1.1,0.5 1.1,1.1 z m -2.1,10 v -7.8 h 2 v 7.8 h -2 z" />
	<path
   style="fill:#454746"
   inkscape:connector-curvature="0"
   id="path17"
   d="m 564.6,261.4 v 2.2 h 1.9 v 1.5 h -1.9 v 3.4 c 0,0.9 0.3,1.4 1,1.4 0.3,0 0.6,0 0.8,-0.1 v 1.5 c -0.3,0.1 -0.8,0.2 -1.4,0.2 -0.7,0 -1.3,-0.2 -1.7,-0.6 -0.4,-0.4 -0.6,-1.2 -0.6,-2.2 V 265 h -1.1 v -1.5 h 1.1 v -1.8 l 1.9,-0.3 z" />
	<path
   style="fill:#454746"
   inkscape:connector-curvature="0"
   id="path19"
   d="m 571.3,266.3 c 0,-1 0,-1.9 -0.1,-2.6 h 1.7 l 0.1,1.2 0,0 c 0.6,-0.9 1.5,-1.4 2.7,-1.4 1.8,0 3.3,1.5 3.3,4 0,2.8 -1.8,4.2 -3.6,4.2 -1,0 -1.8,-0.4 -2.2,-1 l 0,0 v 4 h -2 l 0.1,-8.4 0,0 z m 1.9,1.9 c 0,0.2 0,0.4 0.1,0.5 0.2,0.8 0.9,1.4 1.7,1.4 1.2,0 2,-1 2,-2.6 0,-1.4 -0.7,-2.5 -1.9,-2.5 -0.8,0 -1.6,0.6 -1.8,1.5 0,0.2 -0.1,0.3 -0.1,0.5 v 1.2 z" />
	<path
   style="fill:#454746"
   inkscape:connector-curvature="0"
   id="path21"
   d="m 588,267.5 c 0,2.9 -2,4.1 -4,4.1 -2.2,0 -3.9,-1.5 -3.9,-4 0,-2.6 1.7,-4.1 4,-4.1 2.4,0 3.9,1.6 3.9,4 z m -5.9,0.1 c 0,1.5 0.7,2.6 1.9,2.6 1.1,0 1.9,-1.1 1.9,-2.7 0,-1.2 -0.5,-2.6 -1.9,-2.6 -1.3,0 -1.9,1.4 -1.9,2.7 z" />
	<path
   style="fill:#454746"
   inkscape:connector-curvature="0"
   id="path23"
   d="m 591.7,261.5 c 0,0.6 -0.4,1.1 -1.1,1.1 -0.7,0 -1.1,-0.5 -1.1,-1.1 0,-0.6 0.4,-1.1 1.1,-1.1 0.7,0 1.1,0.5 1.1,1.1 z m -2.1,10 v -7.8 h 2 v 7.8 h -2 z" />
	<path
   style="fill:#454746"
   inkscape:connector-curvature="0"
   id="path25"
   d="m 593.7,266 c 0,-0.9 0,-1.6 -0.1,-2.3 h 1.7 l 0.1,1.2 0,0 c 0.3,-0.6 1.2,-1.3 2.5,-1.3 1.4,0 2.8,0.9 2.8,3.3 v 4.6 h -2 v -4.4 c 0,-1.1 -0.4,-2 -1.5,-2 -0.8,0 -1.3,0.6 -1.5,1.2 -0.1,0.2 -0.1,0.4 -0.1,0.6 v 4.6 h -2 l 0.1,-5.5 0,0 z" />
	<path
   style="fill:#454746"
   inkscape:connector-curvature="0"
   id="path27"
   d="m 605.1,261.4 v 2.2 h 1.9 v 1.5 h -1.9 v 3.4 c 0,0.9 0.3,1.4 1,1.4 0.3,0 0.6,0 0.8,-0.1 v 1.5 c -0.3,0.1 -0.8,0.2 -1.4,0.2 -0.7,0 -1.3,-0.2 -1.7,-0.6 -0.4,-0.4 -0.6,-1.2 -0.6,-2.2 V 265 H 602 v -1.5 h 1.1 v -1.8 l 2,-0.3 z" />
</g><g
     transform="translate(-375.4,-225.5)"
     id="g59">
	<path
   style="fill:#454746"
   inkscape:connector-curvature="0"
   id="path61"
   d="m 522.4,431.7 c 0.6,0.4 1.6,0.7 2.6,0.7 1.3,0 2,-0.6 2,-1.5 0,-0.8 -0.5,-1.3 -1.9,-1.8 -1.8,-0.6 -2.9,-1.6 -2.9,-3.1 0,-1.8 1.5,-3.1 3.8,-3.1 1.2,0 2,0.3 2.6,0.5 l -0.5,1.6 c -0.4,-0.2 -1.1,-0.5 -2.1,-0.5 -1.2,0 -1.8,0.7 -1.8,1.3 0,0.8 0.6,1.2 2.1,1.8 1.9,0.7 2.8,1.6 2.8,3.2 0,1.7 -1.3,3.2 -4.1,3.2 -1.1,0 -2.3,-0.3 -2.9,-0.7 l 0.3,-1.6 z" />
	<path
   style="fill:#454746"
   inkscape:connector-curvature="0"
   id="path63"
   d="m 532.2,430.5 c 0,1.4 1.2,2 2.4,2 0.9,0 1.6,-0.1 2.2,-0.4 l 0.3,1.4 c -0.7,0.3 -1.6,0.5 -2.7,0.5 -2.5,0 -4,-1.6 -4,-3.9 0,-2.2 1.3,-4.2 3.8,-4.2 2.5,0 3.4,2.1 3.4,3.8 0,0.4 0,0.7 -0.1,0.8 l -5.3,0 0,0 z m 3.4,-1.3 c 0,-0.7 -0.3,-1.9 -1.6,-1.9 -1.2,0 -1.7,1.1 -1.8,1.9 h 3.4 z" />
	<path
   style="fill:#454746"
   inkscape:connector-curvature="0"
   id="path65"
   d="m 543.4,433.9 -0.1,-0.9 0,0 c -0.5,0.6 -1.3,1 -2.3,1 -1.6,0 -2.4,-1.1 -2.4,-2.3 0,-2 1.7,-3 4.6,-2.9 v -0.1 c 0,-0.5 -0.2,-1.4 -1.6,-1.4 -0.8,0 -1.6,0.2 -2.1,0.6 l -0.4,-1.3 c 0.6,-0.4 1.6,-0.7 2.8,-0.7 2.5,0 3.2,1.6 3.2,3.3 v 2.8 c 0,0.7 0,1.4 0.1,1.9 h -1.8 z m -0.2,-3.8 c -1.4,0 -2.7,0.3 -2.7,1.5 0,0.8 0.5,1.1 1.1,1.1 0.8,0 1.4,-0.5 1.5,-1.1 0,-0.1 0.1,-0.3 0.1,-0.4 l 0,-1.1 0,0 z" />
	<path
   style="fill:#454746"
   inkscape:connector-curvature="0"
   id="path67"
   d="m 547.2,428.6 c 0,-1.1 0,-1.8 -0.1,-2.5 h 1.7 l 0.1,1.5 h 0.1 c 0.4,-1.1 1.3,-1.7 2.1,-1.7 0.2,0 0.3,0 0.5,0 v 1.9 c -0.2,0 -0.3,-0.1 -0.6,-0.1 -0.9,0 -1.6,0.6 -1.8,1.5 0,0.2 -0.1,0.4 -0.1,0.6 v 4 h -2 l 0.1,-5.2 0,0 z" />
	<path
   style="fill:#454746"
   inkscape:connector-curvature="0"
   id="path69"
   d="m 558.5,433.6 c -0.4,0.2 -1.2,0.4 -2.2,0.4 -2.4,0 -4,-1.6 -4,-4 0,-2.3 1.6,-4.2 4.3,-4.2 0.7,0 1.5,0.2 1.9,0.4 l -0.4,1.5 c -0.3,-0.1 -0.8,-0.3 -1.5,-0.3 -1.5,0 -2.4,1.1 -2.4,2.5 0,1.6 1,2.5 2.4,2.5 0.7,0 1.2,-0.1 1.6,-0.3 l 0.3,1.5 z" />
	<path
   style="fill:#454746"
   inkscape:connector-curvature="0"
   id="path71"
   d="m 559.9,422.5 h 2 v 4.6 l 0,0 c 0.2,-0.4 0.6,-0.7 1,-0.9 0.4,-0.2 0.8,-0.4 1.3,-0.4 1.3,0 2.7,0.9 2.7,3.4 v 4.6 h -2 v -4.4 c 0,-1.1 -0.4,-2 -1.5,-2 -0.8,0 -1.3,0.5 -1.5,1.1 -0.1,0.2 -0.1,0.4 -0.1,0.6 v 4.7 h -2 l 0.1,-11.3 0,0 z" />
	<path
   style="fill:#454746"
   inkscape:connector-curvature="0"
   id="path73"
   d="m 573.5,433.9 -0.1,-0.9 0,0 c -0.5,0.6 -1.3,1 -2.3,1 -1.6,0 -2.4,-1.1 -2.4,-2.3 0,-2 1.7,-3 4.6,-2.9 v -0.1 c 0,-0.5 -0.2,-1.4 -1.6,-1.4 -0.8,0 -1.6,0.2 -2.1,0.6 l -0.4,-1.3 c 0.6,-0.4 1.6,-0.7 2.8,-0.7 2.5,0 3.2,1.6 3.2,3.3 v 2.8 c 0,0.7 0,1.4 0.1,1.9 h -1.8 z m -0.3,-3.8 c -1.4,0 -2.7,0.3 -2.7,1.5 0,0.8 0.5,1.1 1.1,1.1 0.8,0 1.4,-0.5 1.5,-1.1 0,-0.1 0.1,-0.3 0.1,-0.4 l 0,-1.1 0,0 z" />
	<path
   style="fill:#454746"
   inkscape:connector-curvature="0"
   id="path75"
   d="m 577.1,433.9 c 0,-0.5 0.1,-1.4 0.1,-2.2 v -9.2 h 2 v 4.6 l 0,0 c 0.5,-0.8 1.3,-1.2 2.5,-1.2 1.9,0 3.3,1.6 3.2,4 0,2.8 -1.8,4.2 -3.5,4.2 -1,0 -1.9,-0.4 -2.5,-1.3 l 0,0 -0.1,1.2 h -1.7 v -0.1 z m 2.1,-3.2 c 0,0.2 0,0.3 0,0.5 0.2,0.8 0.9,1.4 1.7,1.4 1.2,0 2,-1 2,-2.6 0,-1.4 -0.7,-2.5 -2,-2.5 -0.8,0 -1.5,0.6 -1.7,1.4 0,0.1 -0.1,0.3 -0.1,0.5 l 0.1,1.3 0,0 z" />
	<path
   style="fill:#454746"
   inkscape:connector-curvature="0"
   id="path77"
   d="m 586.6,422.5 h 2 v 11.4 h -2 v -11.4 z" />
	<path
   style="fill:#454746"
   inkscape:connector-curvature="0"
   id="path79"
   d="m 592.1,430.5 c 0,1.4 1.2,2 2.4,2 0.9,0 1.6,-0.1 2.2,-0.4 l 0.3,1.4 c -0.7,0.3 -1.6,0.5 -2.7,0.5 -2.5,0 -4,-1.6 -4,-3.9 0,-2.2 1.3,-4.2 3.8,-4.2 2.5,0 3.4,2.1 3.4,3.8 0,0.4 0,0.7 -0.1,0.8 l -5.3,0 0,0 z m 3.4,-1.3 c 0,-0.7 -0.3,-1.9 -1.6,-1.9 -1.2,0 -1.7,1.1 -1.8,1.9 h 3.4 z" />
</g><g
     transform="translate(-375.4,-225.5)"
     id="g81">
	<g
   id="g83">
		<path
   style="fill:none;stroke:#454746;stroke-width:1.60000002;stroke-linecap:round;stroke-miterlimit:10"
   inkscape:connector-curvature="0"
   id="path85"
   d="m 559.3,283.2 c -14.3,18 -71.7,-0.3 -78.9,33.6"
   stroke-miterlimit="10" />
		<g
   id="g87">
			<path
   style="fill:#454746"
   inkscape:connector-curvature="0"
   id="path89"
   d="m 479.6,324.5 c -0.9,-3.8 -2.7,-8.5 -4.8,-11.6 l 5.8,2.9 6.3,-1.5 c -2.7,2.5 -5.5,6.7 -7.3,10.2 z" />
		</g>
	</g>
</g><g
     transform="translate(-375.4,-225.5)"
     id="g91">
	<g
   id="g93">
		<path
   style="fill:none;stroke:#454746;stroke-width:1.60000002;stroke-linecap:round;stroke-miterlimit:10"
   inkscape:connector-curvature="0"
   id="path95"
   d="m 559.3,283.2 c 14.3,18 71.7,-0.3 78.9,33.6"
   stroke-miterlimit="10" />
		<g
   id="g97">
			<path
   style="fill:#454746"
   inkscape:connector-curvature="0"
   id="path99"
   d="m 639,324.5 c -1.7,-3.5 -4.5,-7.7 -7.3,-10.2 l 6.3,1.5 5.8,-2.9 c -2.1,3.1 -3.9,7.8 -4.8,11.6 z" />
		</g>
	</g>
</g><g
     transform="translate(-375.4,-225.5)"
     id="g101">
	<g
   id="g103">
		<path
   style="fill:none;stroke:#454746;stroke-width:1.60000002;stroke-linecap:round;stroke-miterlimit:10"
   inkscape:connector-curvature="0"
   id="path105"
   d="m 559.3,283.2 c 0,13.1 0.3,-1 0.3,33.6"
   stroke-miterlimit="10" />
		<g
   id="g107">
			<path
   style="fill:#454746"
   inkscape:connector-curvature="0"
   id="path109"
   d="m 559.6,324.5 c -1.4,-3.6 -3.7,-8.1 -6.1,-10.9 l 6.1,2.2 6.1,-2.2 c -2.5,2.7 -4.8,7.2 -6.1,10.9 z" />
		</g>
	</g>
</g><path
     style="fill:none;stroke:#454746;stroke-width:1.60000002;stroke-linecap:round;stroke-miterlimit:10"
     inkscape:connector-curvature="0"
     id="path263"
     d="m 304.2,170.6 v 12 c 0,1.7 -1.3,3 -3,3 H 65.7 c -1.7,0 -3,-1.3 -3,-3 v -12"
     stroke-miterlimit="10" /><path
     style="fill:#75b640"
     inkscape:connector-curvature="0"
     id="path265"
     d="m 104.2,136.9 c 10.2,0 19.8,-1.8 24.8,-4.7 2,-1.2 3.9,-2.5 5.2,-3.6 v -4.7 c 0,-5.5 -13.4,-10 -30,-10 -16.6,0 -30,4.5 -30,10 v 4.7 c 1.2,1.1 3.1,2.5 5.2,3.6 5.1,2.9 14.6,4.7 24.8,4.7 z" /><path
     style="fill:#75b640"
     inkscape:connector-curvature="0"
     id="path267"
     d="m 104.2,153 c 10.2,0 19.8,-1.8 24.8,-4.7 2,-1.2 3.9,-2.5 5.2,-3.6 v -11 c -1.3,0.9 -2.5,1.6 -3.2,2 -5.8,3.2 -15.8,5.2 -26.8,5.2 -11,0 -21.1,-1.9 -26.8,-5.2 -0.7,-0.4 -1.9,-1.1 -3.2,-2 v 11 c 1.2,1.1 3.1,2.5 5.2,3.6 5.1,2.9 14.6,4.7 24.8,4.7 z" /><path
     style="fill:#75b640"
     inkscape:connector-curvature="0"
     id="path269"
     d="m 104.2,157 c -11,0 -21.1,-1.9 -26.8,-5.2 -0.7,-0.4 -1.9,-1.1 -3.2,-2 v 8.2 c 0,5.5 13.4,10 30,10 16.6,0 30,-4.5 30,-10 v -8.2 c -1.3,0.9 -2.5,1.6 -3.2,2 -5.7,3.2 -15.7,5.2 -26.8,5.2 z" /><path
     style="fill:#75b640"
     inkscape:connector-curvature="0"
     id="path271"
     d="m 184.2,153 c 10.2,0 19.8,-1.8 24.8,-4.7 2,-1.2 3.9,-2.5 5.2,-3.6 v -11 c -1.3,0.9 -2.5,1.6 -3.2,2 -5.8,3.2 -15.8,5.2 -26.8,5.2 -11,0 -21.1,-1.9 -26.8,-5.2 -0.7,-0.4 -1.9,-1.1 -3.2,-2 v 11 c 1.2,1.1 3.1,2.5 5.2,3.6 5.1,2.9 14.6,4.7 24.8,4.7 z" /><path
     style="fill:#75b640"
     inkscape:connector-curvature="0"
     id="path273"
     d="m 184.2,136.9 c 10.2,0 19.8,-1.8 24.8,-4.7 2,-1.2 3.9,-2.5 5.2,-3.6 v -4.7 c 0,-5.5 -13.4,-10 -30,-10 -16.6,0 -30,4.5 -30,10 v 4.7 c 1.2,1.1 3.1,2.5 5.2,3.6 5.1,2.9 14.6,4.7 24.8,4.7 z" /><path
     style="fill:#75b640"
     inkscape:connector-curvature="0"
     id="path275"
     d="m 184.2,157 c -11,0 -21.1,-1.9 -26.8,-5.2 -0.7,-0.4 -1.9,-1.1 -3.2,-2 v 8.2 c 0,5.5 13.4,10 30,10 16.6,0 30,-4.5 30,-10 v -8.2 c -1.3,0.9 -2.5,1.6 -3.2,2 -5.7,3.2 -15.7,5.2 -26.8,5.2 z" /><path
     style="fill:#75b640"
     inkscape:connector-curvature="0"
     id="path277"
     d="m 264.2,153 c 10.2,0 19.8,-1.8 24.8,-4.7 2,-1.2 3.9,-2.5 5.2,-3.6 v -11 c -1.3,0.9 -2.5,1.6 -3.2,2 -5.8,3.2 -15.8,5.2 -26.8,5.2 -11,0 -21.1,-1.9 -26.8,-5.2 -0.7,-0.4 -1.9,-1.1 -3.2,-2 v 11 c 1.2,1.1 3.1,2.5 5.2,3.6 5.1,2.9 14.6,4.7 24.8,4.7 z" /><path
     style="fill:#75b640"
     inkscape:connector-curvature="0"
     id="path279"
     d="m 264.2,157 c -11,0 -21.1,-1.9 -26.8,-5.2 -0.7,-0.4 -1.9,-1.1 -3.2,-2 v 8.2 c 0,5.5 13.4,10 30,10 16.6,0 30,-4.5 30,-10 v -8.2 c -1.3,0.9 -2.5,1.6 -3.2,2 -5.7,3.2 -15.7,5.2 -26.8,5.2 z" /><path
     style="fill:#75b640"
     inkscape:connector-curvature="0"
     id="path281"
     d="m 264.2,136.9 c 10.2,0 19.8,-1.8 24.8,-4.7 2,-1.2 3.9,-2.5 5.2,-3.6 v -4.7 c 0,-5.5 -13.4,-10 -30,-10 -16.6,0 -30,4.5 -30,10 v 4.7 c 1.2,1.1 3.1,2.5 5.2,3.6 5.1,2.9 14.6,4.7 24.8,4.7 z" /></g>
</svg>