<?xml version="1.0" encoding="UTF-8" standalone="no"?>
<!-- Generator: Adobe Illustrator 18.0.0, SVG Export Plug-In . SVG Version: 6.00 Build 0)  -->

<svg
   xmlns:dc="http://purl.org/dc/elements/1.1/"
   xmlns:cc="http://creativecommons.org/ns#"
   xmlns:rdf="http://www.w3.org/1999/02/22-rdf-syntax-ns#"
   xmlns:svg="http://www.w3.org/2000/svg"
   xmlns="http://www.w3.org/2000/svg"
   xmlns:sodipodi="http://sodipodi.sourceforge.net/DTD/sodipodi-0.dtd"
   xmlns:inkscape="http://www.inkscape.org/namespaces/inkscape"
   version="1.1"
   id="Layer_1"
   x="0px"
   y="0px"
   viewBox="0 0 530 260"
   enable-background="new 0 0 1280 800"
   xml:space="preserve"
   inkscape:version="0.48.2 r9819"
   width="100%"
   height="100%"
   sodipodi:docname="graph_4.2.svg"><metadata
   id="metadata3211"><rdf:RDF><cc:Work
       rdf:about=""><dc:format>image/svg+xml</dc:format><dc:type
         rdf:resource="http://purl.org/dc/dcmitype/StillImage" /><dc:title></dc:title></cc:Work></rdf:RDF></metadata><defs
   id="defs3209" /><sodipodi:namedview
   pagecolor="#ffffff"
   bordercolor="#666666"
   borderopacity="1"
   objecttolerance="10"
   gridtolerance="10"
   guidetolerance="10"
   inkscape:pageopacity="0"
   inkscape:pageshadow="2"
   inkscape:window-width="640"
   inkscape:window-height="480"
   id="namedview3207"
   showgrid="false"
   fit-margin-top="0"
   fit-margin-left="0"
   fit-margin-right="0"
   fit-margin-bottom="0"
   inkscape:zoom="0.275"
   inkscape:cx="196.6"
   inkscape:cy="129.6"
   inkscape:window-x="0"
   inkscape:window-y="0"
   inkscape:window-maximized="0"
   inkscape:current-layer="Layer_1" />
<path
   d="M 527,260 H 3 c -1.7,0 -3,-1.3 -3,-3 V 3 C 0,1.4 1.3,0 3,0 h 524 c 1.7,0 3,1.4 3,3 v 254 c 0,1.6 -1.3,3 -3,3 z"
   id="path3103"
   inkscape:connector-curvature="0"
   style="fill:#f8faf6" />
<g
   id="g3105"
   transform="translate(-443.4,-269.6)">
	<path
   d="m 662,485.8 c 0.6,0.4 1.6,0.7 2.6,0.7 1.3,0 2,-0.6 2,-1.5 0,-0.8 -0.5,-1.3 -1.9,-1.8 -1.8,-0.6 -2.9,-1.6 -2.9,-3.1 0,-1.8 1.5,-3.1 3.8,-3.1 1.2,0 2,0.3 2.6,0.5 l -0.5,1.6 c -0.4,-0.2 -1.1,-0.5 -2.1,-0.5 -1.2,0 -1.8,0.7 -1.8,1.3 0,0.8 0.6,1.2 2.1,1.8 1.9,0.7 2.8,1.6 2.8,3.2 0,1.7 -1.3,3.2 -4.1,3.2 -1.1,0 -2.3,-0.3 -2.9,-0.7 l 0.3,-1.6 z"
   id="path3107"
   inkscape:connector-curvature="0"
   style="fill:#454746" />
	<path
   d="m 671.8,484.6 c 0,1.4 1.2,2 2.4,2 0.9,0 1.6,-0.1 2.2,-0.4 l 0.3,1.4 c -0.7,0.3 -1.6,0.5 -2.7,0.5 -2.5,0 -4,-1.6 -4,-3.9 0,-2.2 1.3,-4.2 3.8,-4.2 2.5,0 3.4,2.1 3.4,3.8 0,0.4 0,0.7 -0.1,0.8 h -5.3 z m 3.4,-1.4 c 0,-0.7 -0.3,-1.9 -1.6,-1.9 -1.2,0 -1.7,1.1 -1.8,1.9 h 3.4 z"
   id="path3109"
   inkscape:connector-curvature="0"
   style="fill:#454746" />
	<path
   d="m 683,488 -0.1,-0.9 h 0 c -0.5,0.6 -1.3,1 -2.3,1 -1.6,0 -2.4,-1.1 -2.4,-2.3 0,-2 1.7,-3 4.6,-2.9 v -0.1 c 0,-0.5 -0.2,-1.4 -1.6,-1.4 -0.8,0 -1.6,0.2 -2.1,0.6 l -0.4,-1.3 c 0.6,-0.4 1.6,-0.7 2.8,-0.7 2.5,0 3.2,1.6 3.2,3.3 v 2.8 c 0,0.7 0,1.4 0.1,1.9 H 683 z m -0.2,-3.8 c -1.4,0 -2.7,0.3 -2.7,1.5 0,0.8 0.5,1.1 1.1,1.1 0.8,0 1.4,-0.5 1.5,-1.1 0,-0.1 0.1,-0.3 0.1,-0.4 v -1.1 z"
   id="path3111"
   inkscape:connector-curvature="0"
   style="fill:#454746" />
	<path
   d="m 686.8,482.7 c 0,-1.1 0,-1.8 -0.1,-2.5 h 1.7 l 0.1,1.5 h 0.1 c 0.4,-1.1 1.3,-1.7 2.1,-1.7 0.2,0 0.3,0 0.5,0 v 1.9 c -0.2,0 -0.3,-0.1 -0.6,-0.1 -0.9,0 -1.6,0.6 -1.8,1.5 0,0.2 -0.1,0.4 -0.1,0.6 v 4 h -2 v -5.2 z"
   id="path3113"
   inkscape:connector-curvature="0"
   style="fill:#454746" />
	<path
   d="m 698.1,487.7 c -0.4,0.2 -1.2,0.4 -2.2,0.4 -2.4,0 -4,-1.6 -4,-4 0,-2.3 1.6,-4.2 4.3,-4.2 0.7,0 1.5,0.2 1.9,0.4 l -0.4,1.5 c -0.3,-0.1 -0.8,-0.3 -1.5,-0.3 -1.5,0 -2.4,1.1 -2.4,2.5 0,1.6 1,2.5 2.4,2.5 0.7,0 1.2,-0.1 1.6,-0.3 l 0.3,1.5 z"
   id="path3115"
   inkscape:connector-curvature="0"
   style="fill:#454746" />
	<path
   d="m 699.5,476.6 h 2 v 4.6 h 0 c 0.2,-0.4 0.6,-0.7 1,-0.9 0.4,-0.2 0.8,-0.4 1.3,-0.4 1.3,0 2.7,0.9 2.7,3.4 v 4.6 h -2 v -4.4 c 0,-1.1 -0.4,-2 -1.5,-2 -0.8,0 -1.3,0.5 -1.5,1.1 -0.1,0.2 -0.1,0.4 -0.1,0.6 v 4.7 h -2 v -11.3 z"
   id="path3117"
   inkscape:connector-curvature="0"
   style="fill:#454746" />
	<path
   d="m 713.1,488 -0.1,-0.9 h 0 c -0.5,0.6 -1.3,1 -2.3,1 -1.6,0 -2.4,-1.1 -2.4,-2.3 0,-2 1.7,-3 4.6,-2.9 v -0.1 c 0,-0.5 -0.2,-1.4 -1.6,-1.4 -0.8,0 -1.6,0.2 -2.1,0.6 l -0.4,-1.3 c 0.6,-0.4 1.6,-0.7 2.8,-0.7 2.5,0 3.2,1.6 3.2,3.3 v 2.8 c 0,0.7 0,1.4 0.1,1.9 h -1.8 z m -0.3,-3.8 c -1.4,0 -2.7,0.3 -2.7,1.5 0,0.8 0.5,1.1 1.1,1.1 0.8,0 1.4,-0.5 1.5,-1.1 0,-0.1 0.1,-0.3 0.1,-0.4 v -1.1 z"
   id="path3119"
   inkscape:connector-curvature="0"
   style="fill:#454746" />
	<path
   d="m 716.7,488 c 0,-0.5 0.1,-1.4 0.1,-2.2 v -9.2 h 2 v 4.6 h 0 c 0.5,-0.8 1.3,-1.2 2.5,-1.2 1.9,0 3.3,1.6 3.2,4 0,2.8 -1.8,4.2 -3.5,4.2 -1,0 -1.9,-0.4 -2.5,-1.3 h 0 l -0.1,1.2 h -1.7 z m 2.1,-3.3 c 0,0.2 0,0.3 0,0.5 0.2,0.8 0.9,1.4 1.7,1.4 1.2,0 2,-1 2,-2.6 0,-1.4 -0.7,-2.5 -2,-2.5 -0.8,0 -1.5,0.6 -1.7,1.4 0,0.1 -0.1,0.3 -0.1,0.5 v 1.3 z"
   id="path3121"
   inkscape:connector-curvature="0"
   style="fill:#454746" />
	<path
   d="m 726.2,476.6 h 2 V 488 h -2 v -11.4 z"
   id="path3123"
   inkscape:connector-curvature="0"
   style="fill:#454746" />
	<path
   d="m 731.7,484.6 c 0,1.4 1.2,2 2.4,2 0.9,0 1.6,-0.1 2.2,-0.4 l 0.3,1.4 c -0.7,0.3 -1.6,0.5 -2.7,0.5 -2.5,0 -4,-1.6 -4,-3.9 0,-2.2 1.3,-4.2 3.8,-4.2 2.5,0 3.4,2.1 3.4,3.8 0,0.4 0,0.7 -0.1,0.8 h -5.3 z m 3.4,-1.4 c 0,-0.7 -0.3,-1.9 -1.6,-1.9 -1.2,0 -1.7,1.1 -1.8,1.9 h 3.4 z"
   id="path3125"
   inkscape:connector-curvature="0"
   style="fill:#454746" />
</g>
<path
   stroke-miterlimit="10"
   d="m 469.5,180.6 v 12 c 0,1.7 -1.3,3 -3,3 H 45.1 c -1.7,0 -3,-1.3 -3,-3 v -12"
   id="path3127"
   inkscape:connector-curvature="0"
   style="fill:none;stroke:#454746;stroke-width:1.60000002;stroke-linecap:round;stroke-miterlimit:10" />
<path
   stroke-miterlimit="10"
   d="m 83.6,163 c 10.2,0 19.7,-1.8 24.9,-4.7 2,-1.2 3.9,-2.5 5.1,-3.6 v -11 c -1.3,0.9 -2.5,1.6 -3.2,2 -5.8,3.2 -15.8,5.2 -26.8,5.2 -11,0 -21.1,-1.9 -26.8,-5.2 -0.7,-0.4 -1.9,-1.1 -3.2,-2 v 11 c 1.2,1.1 3.1,2.5 5.2,3.6 5,2.9 14.5,4.7 24.8,4.7 z"
   id="path3129"
   inkscape:connector-curvature="0"
   style="fill:none;stroke:#d3d3d3;stroke-linecap:round;stroke-miterlimit:10;stroke-dasharray:2" />
<path
   stroke-miterlimit="10"
   d="m 113.6,168 v -8.2 c -1.3,0.9 -2.5,1.6 -3.2,2 -5.8,3.2 -15.8,5.2 -26.8,5.2 -11,0 -21.1,-1.9 -26.8,-5.2 -0.7,-0.4 -1.9,-1.1 -3.2,-2 v 8.2 c 0,5.5 13.4,10 30,10 16.5,0 30,-4.5 30,-10 z"
   id="path3131"
   inkscape:connector-curvature="0"
   style="fill:none;stroke:#d3d3d3;stroke-linecap:round;stroke-miterlimit:10;stroke-dasharray:2" />
<path
   stroke-miterlimit="10"
   d="m 83.6,146.9 c 10.2,0 19.7,-1.8 24.8,-4.7 2,-1.2 3.9,-2.5 5.2,-3.6 v -4.7 c 0,-5.5 -13.4,-10 -30,-10 -16.6,0 -30,4.5 -30,10 v 4.7 c 1.2,1.1 3.1,2.5 5.1,3.6 5.1,2.9 14.6,4.7 24.9,4.7 z"
   id="path3133"
   inkscape:connector-curvature="0"
   style="fill:none;stroke:#d3d3d3;stroke-linecap:round;stroke-miterlimit:10;stroke-dasharray:2" />
<path
   stroke-miterlimit="10"
   d="m 193.6,168 v -8.2 c -1.3,0.9 -2.5,1.6 -3.2,2 -5.8,3.2 -15.8,5.2 -26.8,5.2 -11,0 -21.1,-1.9 -26.8,-5.2 -0.7,-0.4 -1.9,-1.1 -3.2,-2 v 8.2 c 0,5.5 13.4,10 30,10 16.5,0 30,-4.5 30,-10 z"
   id="path3135"
   inkscape:connector-curvature="0"
   style="fill:none;stroke:#d3d3d3;stroke-linecap:round;stroke-miterlimit:10;stroke-dasharray:2" />
<path
   stroke-miterlimit="10"
   d="m 163.6,163 c 10.2,0 19.7,-1.8 24.9,-4.7 2,-1.2 3.9,-2.5 5.1,-3.6 v -11 c -1.3,0.9 -2.5,1.6 -3.2,2 -5.8,3.2 -15.8,5.2 -26.8,5.2 -11,0 -21.1,-1.9 -26.8,-5.2 -0.7,-0.4 -1.9,-1.1 -3.2,-2 v 11 c 1.2,1.1 3.1,2.5 5.2,3.6 5,2.9 14.5,4.7 24.8,4.7 z"
   id="path3137"
   inkscape:connector-curvature="0"
   style="fill:none;stroke:#d3d3d3;stroke-linecap:round;stroke-miterlimit:10;stroke-dasharray:2" />
<path
   stroke-miterlimit="10"
   d="m 163.6,146.9 c 10.2,0 19.7,-1.8 24.8,-4.7 2,-1.2 3.9,-2.5 5.2,-3.6 v -4.7 c 0,-5.5 -13.4,-10 -30,-10 -16.6,0 -30,4.5 -30,10 v 4.7 c 1.2,1.1 3.1,2.5 5.1,3.6 5.1,2.9 14.6,4.7 24.9,4.7 z"
   id="path3139"
   inkscape:connector-curvature="0"
   style="fill:none;stroke:#d3d3d3;stroke-linecap:round;stroke-miterlimit:10;stroke-dasharray:2" />
<path
   stroke-miterlimit="10"
   d="m 243.6,146.9 c 10.2,0 19.7,-1.8 24.8,-4.7 2,-1.2 3.9,-2.5 5.2,-3.6 v -4.7 c 0,-5.5 -13.4,-10 -30,-10 -16.6,0 -30,4.5 -30,10 v 4.7 c 1.2,1.1 3.1,2.5 5.1,3.6 5.1,2.9 14.6,4.7 24.9,4.7 z"
   id="path3141"
   inkscape:connector-curvature="0"
   style="fill:none;stroke:#d3d3d3;stroke-linecap:round;stroke-miterlimit:10;stroke-dasharray:2" />
<path
   stroke-miterlimit="10"
   d="m 243.6,163 c 10.2,0 19.7,-1.8 24.9,-4.7 2,-1.2 3.9,-2.5 5.1,-3.6 v -11 c -1.3,0.9 -2.5,1.6 -3.2,2 -5.8,3.2 -15.8,5.2 -26.8,5.2 -11,0 -21.1,-1.9 -26.8,-5.2 -0.7,-0.4 -1.9,-1.1 -3.2,-2 v 11 c 1.2,1.1 3.1,2.5 5.2,3.6 5,2.9 14.5,4.7 24.8,4.7 z"
   id="path3143"
   inkscape:connector-curvature="0"
   style="fill:none;stroke:#d3d3d3;stroke-linecap:round;stroke-miterlimit:10;stroke-dasharray:2" />
<path
   stroke-miterlimit="10"
   d="m 273.6,168 v -8.2 c -1.3,0.9 -2.5,1.6 -3.2,2 -5.8,3.2 -15.8,5.2 -26.8,5.2 -11,0 -21.1,-1.9 -26.8,-5.2 -0.7,-0.4 -1.9,-1.1 -3.2,-2 v 8.2 c 0,5.5 13.4,10 30,10 16.5,0 30,-4.5 30,-10 z"
   id="path3145"
   inkscape:connector-curvature="0"
   style="fill:none;stroke:#d3d3d3;stroke-linecap:round;stroke-miterlimit:10;stroke-dasharray:2" />
<g
   id="g3147"
   transform="translate(-443.4,-269.6)">
	<path
   d="m 797,437.6 v -8.2 c -1.3,0.9 -2.5,1.6 -3.2,2 -5.8,3.2 -15.8,5.2 -26.8,5.2 -11,0 -21.1,-1.9 -26.8,-5.2 -0.7,-0.4 -1.9,-1.1 -3.2,-2 v 8.2 c 0,5.5 13.4,10 30,10 16.5,0 30,-4.5 30,-10 z"
   id="path3149"
   inkscape:connector-curvature="0"
   style="fill:#75b640" />
	<path
   d="m 767,432.6 c 10.2,0 19.7,-1.8 24.9,-4.7 2,-1.2 3.9,-2.5 5.1,-3.6 v -11 c -1.3,0.9 -2.5,1.6 -3.2,2 -5.8,3.2 -15.8,5.2 -26.8,5.2 -11,0 -21.1,-1.9 -26.8,-5.2 -0.7,-0.4 -1.9,-1.1 -3.2,-2 v 11 c 1.2,1.1 3.1,2.5 5.2,3.6 5,2.9 14.5,4.7 24.8,4.7 z"
   id="path3151"
   inkscape:connector-curvature="0"
   style="fill:#75b640" />
	<path
   d="m 767,416.5 c 10.2,0 19.7,-1.8 24.8,-4.7 2,-1.2 3.9,-2.5 5.2,-3.6 v -4.7 c 0,-5.5 -13.4,-10 -30,-10 -16.6,0 -30,4.5 -30,10 v 4.7 c 1.2,1.1 3.1,2.5 5.1,3.6 5.1,2.9 14.6,4.7 24.9,4.7 z"
   id="path3153"
   inkscape:connector-curvature="0"
   style="fill:#75b640" />
</g>
<g
   id="g3155"
   transform="translate(-443.4,-269.6)">
	<path
   d="M 901.4,433.5 V 416 c -1.8,1.3 -3.5,2.3 -4.5,2.8 -8.1,4.6 -22.2,7.3 -37.8,7.3 -15.6,0 -29.7,-2.7 -37.8,-7.3 -1,-0.5 -2.7,-1.5 -4.5,-2.8 v 17.5 c 0,7.8 18.9,14.1 42.2,14.1 23.5,0 42.4,-6.3 42.4,-14.1 z"
   id="path3157"
   inkscape:connector-curvature="0"
   style="fill:#75b640" />
	<path
   d="m 859.2,422.5 c 14.4,0 27.8,-2.5 35,-6.6 2.9,-1.6 5.6,-3.6 7.3,-5.1 v -21.4 c -1.8,1.3 -3.5,2.3 -4.5,2.8 -8.1,4.6 -22.2,7.3 -37.8,7.3 -15.5,0 -29.7,-2.7 -37.8,-7.3 -1,-0.5 -2.7,-1.5 -4.5,-2.8 v 21.4 c 1.7,1.5 4.4,3.5 7.3,5.1 7.2,4.1 20.6,6.6 35,6.6 z"
   id="path3159"
   inkscape:connector-curvature="0"
   style="fill:#75b640" />
	<path
   d="m 859.2,395.9 c 14.4,0 27.8,-2.5 35,-6.6 2.9,-1.6 5.6,-3.6 7.3,-5.1 v -12.5 c 0,-7.8 -18.9,-14.1 -42.2,-14.1 -23.3,0 -42.2,6.3 -42.2,14.1 v 12.5 c 1.7,1.5 4.4,3.5 7.3,5.1 7,4.1 20.4,6.6 34.8,6.6 z"
   id="path3161"
   inkscape:connector-curvature="0"
   style="fill:#75b640" />
</g>
<g
   id="g3163"
   transform="translate(-443.4,-269.6)">
	<path
   d="m 774.2,325.2 c -0.5,0.2 -1.5,0.5 -2.8,0.5 -3.4,0 -5.5,-2.1 -5.5,-5.4 0,-3.6 2.5,-5.7 5.8,-5.7 1.3,0 2.2,0.3 2.6,0.5 l -0.4,1.6 c -0.5,-0.2 -1.2,-0.4 -2.1,-0.4 -2.2,0 -3.8,1.4 -3.8,4 0,2.4 1.4,3.9 3.8,3.9 0.8,0 1.6,-0.2 2.1,-0.4 l 0.3,1.4 z"
   id="path3165"
   inkscape:connector-curvature="0"
   style="fill:#454746" />
	<path
   d="m 783,321.6 c 0,2.9 -2,4.1 -4,4.1 -2.2,0 -3.9,-1.5 -3.9,-4 0,-2.6 1.7,-4.1 4,-4.1 2.3,0 3.9,1.6 3.9,4 z m -5.9,0.1 c 0,1.5 0.7,2.6 1.9,2.6 1.1,0 1.9,-1.1 1.9,-2.7 0,-1.2 -0.5,-2.6 -1.9,-2.6 -1.3,0 -1.9,1.4 -1.9,2.7 z"
   id="path3167"
   inkscape:connector-curvature="0"
   style="fill:#454746" />
	<path
   d="m 784.6,320.1 c 0,-0.9 0,-1.6 -0.1,-2.3 h 1.7 l 0.1,1.2 h 0 c 0.4,-0.6 1.1,-1.3 2.4,-1.3 1,0 1.8,0.6 2.2,1.4 h 0 c 0.3,-0.4 0.6,-0.8 1,-1 0.4,-0.3 0.9,-0.5 1.6,-0.5 1.3,0 2.6,0.9 2.6,3.4 v 4.6 h -1.9 v -4.3 c 0,-1.3 -0.4,-2.1 -1.4,-2.1 -0.7,0 -1.2,0.5 -1.4,1 0,0.2 -0.1,0.4 -0.1,0.7 v 4.7 h -1.9 V 321 c 0,-1.1 -0.4,-1.9 -1.3,-1.9 -0.7,0 -1.2,0.6 -1.4,1.1 -0.1,0.2 -0.1,0.4 -0.1,0.6 v 4.6 h -1.9 v -5.3 z"
   id="path3169"
   inkscape:connector-curvature="0"
   style="fill:#454746" />
	<path
   d="m 798.2,320.1 c 0,-0.9 0,-1.6 -0.1,-2.3 h 1.7 l 0.1,1.2 h 0 c 0.4,-0.6 1.1,-1.3 2.4,-1.3 1,0 1.8,0.6 2.2,1.4 h 0 c 0.3,-0.4 0.6,-0.8 1,-1 0.4,-0.3 0.9,-0.5 1.6,-0.5 1.3,0 2.6,0.9 2.6,3.4 v 4.6 h -1.9 v -4.3 c 0,-1.3 -0.4,-2.1 -1.4,-2.1 -0.7,0 -1.2,0.5 -1.4,1 0,0.2 -0.1,0.4 -0.1,0.7 v 4.7 H 803 V 321 c 0,-1.1 -0.4,-1.9 -1.3,-1.9 -0.7,0 -1.2,0.6 -1.4,1.1 -0.1,0.2 -0.1,0.4 -0.1,0.6 v 4.6 h -1.9 v -5.3 z"
   id="path3171"
   inkscape:connector-curvature="0"
   style="fill:#454746" />
	<path
   d="m 813.8,315.6 c 0,0.6 -0.4,1.1 -1.1,1.1 -0.7,0 -1.1,-0.5 -1.1,-1.1 0,-0.6 0.4,-1.1 1.1,-1.1 0.7,0 1.1,0.5 1.1,1.1 z m -2.1,10 v -7.8 h 2 v 7.8 h -2 z"
   id="path3173"
   inkscape:connector-curvature="0"
   style="fill:#454746" />
	<path
   d="m 818.1,315.5 v 2.2 h 1.9 v 1.5 h -1.9 v 3.4 c 0,0.9 0.3,1.4 1,1.4 0.3,0 0.6,0 0.8,-0.1 l 0,1.5 c -0.3,0.1 -0.8,0.2 -1.4,0.2 -0.7,0 -1.3,-0.2 -1.7,-0.6 -0.4,-0.4 -0.6,-1.2 -0.6,-2.2 v -3.7 H 815 v -1.5 h 1.1 V 316 l 2,-0.5 z"
   id="path3175"
   inkscape:connector-curvature="0"
   style="fill:#454746" />
	<path
   d="m 824.8,320.4 c 0,-1 0,-1.9 -0.1,-2.6 h 1.7 l 0.1,1.2 h 0 c 0.6,-0.9 1.5,-1.4 2.7,-1.4 1.8,0 3.3,1.5 3.3,4 0,2.8 -1.8,4.2 -3.6,4.2 -1,0 -1.8,-0.4 -2.2,-1 h 0 v 4 h -2 v -8.4 z m 1.9,1.9 c 0,0.2 0,0.4 0.1,0.5 0.2,0.8 0.9,1.4 1.7,1.4 1.2,0 2,-1 2,-2.6 0,-1.4 -0.7,-2.5 -1.9,-2.5 -0.8,0 -1.6,0.6 -1.8,1.5 0,0.2 -0.1,0.3 -0.1,0.5 v 1.2 z"
   id="path3177"
   inkscape:connector-curvature="0"
   style="fill:#454746" />
	<path
   d="m 841.5,321.6 c 0,2.9 -2,4.1 -4,4.1 -2.2,0 -3.9,-1.5 -3.9,-4 0,-2.6 1.7,-4.1 4,-4.1 2.4,0 3.9,1.6 3.9,4 z m -5.8,0.1 c 0,1.5 0.7,2.6 1.9,2.6 1.1,0 1.9,-1.1 1.9,-2.7 0,-1.2 -0.5,-2.6 -1.9,-2.6 -1.4,0 -1.9,1.4 -1.9,2.7 z"
   id="path3179"
   inkscape:connector-curvature="0"
   style="fill:#454746" />
	<path
   d="m 845.2,315.6 c 0,0.6 -0.4,1.1 -1.1,1.1 -0.7,0 -1.1,-0.5 -1.1,-1.1 0,-0.6 0.4,-1.1 1.1,-1.1 0.7,0 1.1,0.5 1.1,1.1 z m -2.1,10 v -7.8 h 2 v 7.8 h -2 z"
   id="path3181"
   inkscape:connector-curvature="0"
   style="fill:#454746" />
	<path
   d="m 847.2,320.1 c 0,-0.9 0,-1.6 -0.1,-2.3 h 1.7 l 0.1,1.2 h 0 c 0.3,-0.6 1.2,-1.3 2.5,-1.3 1.4,0 2.8,0.9 2.8,3.3 v 4.6 h -2 v -4.4 c 0,-1.1 -0.4,-2 -1.5,-2 -0.8,0 -1.3,0.6 -1.5,1.2 -0.1,0.2 -0.1,0.4 -0.1,0.6 v 4.6 h -2 v -5.5 z"
   id="path3183"
   inkscape:connector-curvature="0"
   style="fill:#454746" />
	<path
   d="m 858.6,315.5 v 2.2 h 1.9 v 1.5 h -1.9 v 3.4 c 0,0.9 0.3,1.4 1,1.4 0.3,0 0.6,0 0.8,-0.1 l 0,1.5 c -0.3,0.1 -0.8,0.2 -1.4,0.2 -0.7,0 -1.3,-0.2 -1.7,-0.6 -0.4,-0.4 -0.6,-1.2 -0.6,-2.2 v -3.7 h -1.1 v -1.5 h 1.1 V 316 l 1.9,-0.5 z"
   id="path3185"
   inkscape:connector-curvature="0"
   style="fill:#454746" />
</g>
<g
   id="g3187"
   transform="translate(-443.4,-269.6)">
	<g
   id="g3189">
		<path
   stroke-miterlimit="10"
   d="m 813.1,337.3 c -31.8,26.2 -44.4,3.7 -46,33.6"
   id="path3191"
   inkscape:connector-curvature="0"
   style="fill:none;stroke:#454746;stroke-width:1.60000002;stroke-linecap:round;stroke-miterlimit:10" />
		<g
   id="g3193">
			<path
   d="m 767,378.6 c -1.2,-3.7 -3.4,-8.3 -5.7,-11.1 l 6,2.4 6.2,-2 c -2.6,2.6 -5.1,7.1 -6.5,10.7 z"
   id="path3195"
   inkscape:connector-curvature="0"
   style="fill:#454746" />
		</g>
	</g>
</g>
<g
   id="g3197"
   transform="translate(-443.4,-269.6)">
	<g
   id="g3199">
		<path
   stroke-miterlimit="10"
   d="m 813.1,337.3 c 31.8,26.2 44.4,3.7 46,33.6"
   id="path3201"
   inkscape:connector-curvature="0"
   style="fill:none;stroke:#454746;stroke-width:1.60000002;stroke-linecap:round;stroke-miterlimit:10" />
		<g
   id="g3203">
			<path
   d="m 859.3,378.6 c -1.5,-3.6 -3.9,-8 -6.4,-10.7 l 6.2,2 6,-2.4 c -2.4,2.8 -4.6,7.4 -5.8,11.1 z"
   id="path3205"
   inkscape:connector-curvature="0"
   style="fill:#454746" />
		</g>
	</g>
</g>
</svg>