<?xml version="1.0" encoding="UTF-8" standalone="no"?>
<!-- Generator: Adobe Illustrator 18.0.0, SVG Export Plug-In . SVG Version: 6.00 Build 0)  -->

<svg
   xmlns:dc="http://purl.org/dc/elements/1.1/"
   xmlns:cc="http://creativecommons.org/ns#"
   xmlns:rdf="http://www.w3.org/1999/02/22-rdf-syntax-ns#"
   xmlns:svg="http://www.w3.org/2000/svg"
   xmlns="http://www.w3.org/2000/svg"
   xmlns:sodipodi="http://sodipodi.sourceforge.net/DTD/sodipodi-0.dtd"
   xmlns:inkscape="http://www.inkscape.org/namespaces/inkscape"
   version="1.1"
   id="graphs"
   x="0px"
   y="0px"
   viewBox="0 0 778.3 514.7"
   enable-background="new 0 0 900 600"
   xml:space="preserve"
   inkscape:version="0.48.2 r9819"
   width="100%"
   height="100%"
   sodipodi:docname="170_08_term_saturation.svg"><metadata
   id="metadata4099"><rdf:RDF><cc:Work
       rdf:about=""><dc:format>image/svg+xml</dc:format><dc:type
         rdf:resource="http://purl.org/dc/dcmitype/StillImage" /></cc:Work></rdf:RDF></metadata><defs
   id="defs4097" /><sodipodi:namedview
   pagecolor="#ffffff"
   bordercolor="#666666"
   borderopacity="1"
   objecttolerance="10"
   gridtolerance="10"
   guidetolerance="10"
   inkscape:pageopacity="0"
   inkscape:pageshadow="2"
   inkscape:window-width="640"
   inkscape:window-height="480"
   id="namedview4095"
   showgrid="false"
   fit-margin-top="50"
   fit-margin-left="30"
   fit-margin-right="50"
   fit-margin-bottom="30"
   inkscape:zoom="0.39111111"
   inkscape:cx="495.17267"
   inkscape:cy="208.69984"
   inkscape:window-x="0"
   inkscape:window-y="0"
   inkscape:window-maximized="0"
   inkscape:current-layer="graphs" />
<path
   d="m 725.3,440.29999 h -654 c -1.6,0 -3,-1.4 -3,-3 V 52.999988 c 0,-1.7 1.4,-3 3,-3 h 654 c 1.7,0 3,1.3 3,3 V 437.29999 c 0,1.7 -1.3,3 -3,3 z"
   id="path3861"
   inkscape:connector-curvature="0"
   style="fill:#f8faf6" />
<g
   id="g3863"
   transform="translate(-60.7,-54.500012)">
	<line
   stroke-miterlimit="10"
   x1="134"
   y1="109.5"
   x2="134"
   y2="489.5"
   id="line3865"
   style="fill:none;stroke:#d6d6d6;stroke-miterlimit:10" />
	<line
   stroke-miterlimit="10"
   x1="199"
   y1="109.5"
   x2="199"
   y2="489.5"
   id="line3867"
   style="fill:none;stroke:#d6d6d6;stroke-miterlimit:10" />
	<line
   stroke-miterlimit="10"
   x1="264"
   y1="109.5"
   x2="264"
   y2="489.5"
   id="line3869"
   style="fill:none;stroke:#d6d6d6;stroke-miterlimit:10" />
	<line
   stroke-miterlimit="10"
   x1="329"
   y1="109.5"
   x2="329"
   y2="489.5"
   id="line3871"
   style="fill:none;stroke:#d6d6d6;stroke-miterlimit:10" />
	<line
   stroke-miterlimit="10"
   x1="394"
   y1="109.5"
   x2="394"
   y2="489.5"
   id="line3873"
   style="fill:none;stroke:#d6d6d6;stroke-miterlimit:10" />
	<line
   stroke-miterlimit="10"
   x1="459"
   y1="109.5"
   x2="459"
   y2="489.5"
   id="line3875"
   style="fill:none;stroke:#d6d6d6;stroke-miterlimit:10" />
	<line
   stroke-miterlimit="10"
   x1="524"
   y1="109.5"
   x2="524"
   y2="489.5"
   id="line3877"
   style="fill:none;stroke:#d6d6d6;stroke-miterlimit:10" />
	<line
   stroke-miterlimit="10"
   x1="589"
   y1="109.5"
   x2="589"
   y2="489.5"
   id="line3879"
   style="fill:none;stroke:#d6d6d6;stroke-miterlimit:10" />
	<line
   stroke-miterlimit="10"
   x1="654"
   y1="109.5"
   x2="654"
   y2="489.5"
   id="line3881"
   style="fill:none;stroke:#d6d6d6;stroke-miterlimit:10" />
	<line
   stroke-miterlimit="10"
   x1="719"
   y1="109.5"
   x2="719"
   y2="489.5"
   id="line3883"
   style="fill:none;stroke:#d6d6d6;stroke-miterlimit:10" />
	<line
   stroke-miterlimit="10"
   x1="784"
   y1="109.5"
   x2="784"
   y2="489.5"
   id="line3885"
   style="fill:none;stroke:#d6d6d6;stroke-miterlimit:10" />
	<line
   stroke-miterlimit="10"
   x1="134"
   y1="109.5"
   x2="784"
   y2="109.5"
   id="line3887"
   style="fill:none;stroke:#d6d6d6;stroke-miterlimit:10" />
	<line
   stroke-miterlimit="10"
   x1="134"
   y1="185.5"
   x2="784"
   y2="185.5"
   id="line3889"
   style="fill:none;stroke:#d6d6d6;stroke-miterlimit:10" />
	<line
   stroke-miterlimit="10"
   x1="134"
   y1="261.5"
   x2="784"
   y2="261.5"
   id="line3891"
   style="fill:none;stroke:#d6d6d6;stroke-miterlimit:10" />
	<line
   stroke-miterlimit="10"
   x1="134"
   y1="337.5"
   x2="784"
   y2="337.5"
   id="line3893"
   style="fill:none;stroke:#d6d6d6;stroke-miterlimit:10" />
	<line
   stroke-miterlimit="10"
   x1="134"
   y1="413.5"
   x2="784"
   y2="413.5"
   id="line3895"
   style="fill:none;stroke:#d6d6d6;stroke-miterlimit:10" />
	<line
   stroke-miterlimit="10"
   x1="134"
   y1="489.5"
   x2="784"
   y2="489.5"
   id="line3897"
   style="fill:none;stroke:#d6d6d6;stroke-miterlimit:10" />
</g>
<g
   id="g3899"
   transform="translate(-60.7,-54.500012)">
	<g
   id="g3901">
		<path
   d="m 478.1,438.5 c -1.2,0.5 -2.3,0.8 -3.5,0.8 -2.1,0 -3.1,-1.1 -3.1,-3.3 v -7.2 h -2.2 v -1.5 h 2.2 v -3.2 h 1.7 v 3.2 h 4 v 1.5 h -4 v 6.7 c 0,0.7 0.2,1.3 0.5,1.7 0.3,0.4 0.7,0.6 1.3,0.6 1,0 1.9,-0.2 2.8,-0.6 l 0.3,1.3 z"
   id="path3903"
   inkscape:connector-curvature="0"
   style="fill:#454746" />
		<path
   d="m 491.9,423.4 -0.5,1.4 c -0.8,-0.2 -1.6,-0.4 -2.2,-0.4 -0.6,0 -1.1,0.2 -1.3,0.5 -0.2,0.4 -0.4,1.1 -0.4,2.2 v 0.2 h 3.9 v 1.5 h -3.9 V 439 h -1.8 v -10.2 h -2.9 v -1.5 h 2.9 V 427 c 0,-1.5 0.3,-2.5 0.8,-3.1 0.5,-0.6 1.4,-0.9 2.6,-0.9 0.9,-0.1 1.8,0.1 2.8,0.4 z"
   id="path3905"
   inkscape:connector-curvature="0"
   style="fill:#454746" />
		<path
   d="m 504.9,441.4 -0.7,1 c -1.7,-1.3 -2.9,-2.7 -3.8,-4.4 -0.9,-1.7 -1.3,-3.4 -1.3,-5.3 0,-1.9 0.4,-3.7 1.3,-5.3 0.9,-1.7 2.1,-3.1 3.8,-4.4 l 0.7,1 c -1.4,1.2 -2.4,2.5 -3,3.9 -0.6,1.3 -0.9,3 -0.9,4.9 0,2 0.3,3.6 0.9,5 0.7,1.1 1.7,2.4 3,3.6 z"
   id="path3907"
   inkscape:connector-curvature="0"
   style="fill:#454746" />
		<path
   d="m 511.7,422.9 c 1.7,1.3 3,2.7 3.8,4.4 0.9,1.7 1.3,3.4 1.3,5.3 0,1.9 -0.4,3.6 -1.3,5.3 -0.9,1.7 -2.1,3.1 -3.8,4.4 l -0.7,-1 c 1.4,-1.2 2.4,-2.5 3,-3.9 0.6,-1.4 0.9,-3 0.9,-4.9 0,-2 -0.3,-3.6 -0.9,-4.9 -0.6,-1.3 -1.6,-2.6 -2.9,-3.8 l 0.6,-0.9 z"
   id="path3909"
   inkscape:connector-curvature="0"
   style="fill:#454746" />
		<path
   d="m 540.1,427.1 c 1.6,0 2.9,0.6 3.8,1.7 0.9,1.1 1.4,2.6 1.4,4.4 0,1.8 -0.5,3.3 -1.4,4.5 -1,1.1 -2.2,1.7 -3.8,1.7 -1.6,0 -2.9,-0.6 -3.8,-1.7 -0.9,-1.1 -1.4,-2.6 -1.4,-4.5 0,-1.8 0.5,-3.3 1.4,-4.4 0.9,-1.1 2.2,-1.7 3.8,-1.7 z m 0,10.7 c 1.1,0 1.9,-0.4 2.5,-1.3 0.6,-0.9 0.9,-2 0.9,-3.3 0,-1.3 -0.3,-2.5 -0.9,-3.3 -0.6,-0.9 -1.4,-1.3 -2.5,-1.3 -1.1,0 -1.9,0.4 -2.5,1.3 -0.6,0.9 -0.9,2 -0.9,3.3 0,1.3 0.3,2.4 0.9,3.3 0.6,0.9 1.5,1.3 2.5,1.3 z"
   id="path3911"
   inkscape:connector-curvature="0"
   style="fill:#454746" />
		<path
   d="m 558.6,423.4 -0.5,1.4 c -0.8,-0.2 -1.6,-0.4 -2.2,-0.4 -0.6,0 -1.1,0.2 -1.3,0.5 -0.2,0.4 -0.4,1.1 -0.4,2.2 v 0.2 h 3.9 v 1.5 h -3.9 V 439 h -1.8 v -10.2 h -2.9 v -1.5 h 2.9 V 427 c 0,-1.5 0.3,-2.5 0.8,-3.1 0.5,-0.6 1.4,-0.9 2.6,-0.9 0.9,-0.1 1.8,0.1 2.8,0.4 z"
   id="path3913"
   inkscape:connector-curvature="0"
   style="fill:#454746" />
		<path
   d="m 581.2,430.4 c 1.1,0.2 1.9,0.7 2.5,1.4 0.6,0.7 0.9,1.6 0.9,2.5 0,1.4 -0.5,2.6 -1.6,3.4 -1,0.9 -2.3,1.3 -3.8,1.3 h -4.5 v -15.8 h 4.4 c 1.5,0 2.7,0.3 3.6,1 0.9,0.7 1.3,1.6 1.3,2.8 0,0.7 -0.2,1.4 -0.7,2 -0.5,0.6 -1.3,1.1 -2.1,1.4 l 0,0 z m -4.7,-0.9 h 2.2 c 2.3,0 3.4,-0.8 3.4,-2.4 0,-0.7 -0.3,-1.3 -0.8,-1.7 -0.6,-0.4 -1.4,-0.6 -2.4,-0.6 h -2.3 v 4.7 z m 0,8 h 2.1 c 1.2,0 2.2,-0.3 2.9,-0.8 0.7,-0.6 1.1,-1.3 1.1,-2.3 0,-1 -0.4,-1.8 -1.1,-2.4 -0.7,-0.6 -1.7,-0.8 -3.1,-0.8 h -2 v 6.3 z"
   id="path3915"
   inkscape:connector-curvature="0"
   style="fill:#454746" />
		<path
   d="m 598.2,439.1 h -1.8 V 425.5 L 594,432 h -1.7 l -2.4,-6.5 v 13.6 h -1.8 v -15.8 h 2.4 l 2.7,7.2 2.6,-7.2 h 2.4 v 15.8 z"
   id="path3917"
   inkscape:connector-curvature="0"
   style="fill:#454746" />
		<path
   d="m 611,439.1 h -8.7 v -1.3 c 2.2,-2.5 3.6,-4.1 4.3,-5 0.7,-0.8 1.2,-1.7 1.6,-2.6 0.4,-0.9 0.6,-1.8 0.6,-2.8 0,-0.9 -0.3,-1.6 -0.8,-2.1 -0.5,-0.5 -1.3,-0.8 -2.3,-0.8 -0.7,0 -1.7,0.2 -3,0.7 l -0.3,-1.6 c 1.1,-0.5 2.3,-0.7 3.5,-0.7 1.4,0 2.6,0.4 3.4,1.2 0.9,0.8 1.3,1.9 1.3,3.2 0,1 -0.2,1.9 -0.7,2.8 -0.4,0.9 -1,1.8 -1.7,2.7 -0.7,0.9 -2.1,2.4 -4.1,4.6 h 6.7 v 1.7 z"
   id="path3919"
   inkscape:connector-curvature="0"
   style="fill:#454746" />
		<path
   d="m 618.6,429.6 c 0.5,-0.1 1,-0.2 1.5,-0.2 1.5,0 2.7,0.5 3.5,1.4 0.9,0.9 1.3,2.1 1.3,3.4 0,1.4 -0.5,2.7 -1.5,3.7 -1,1 -2.2,1.5 -3.7,1.5 -1.4,0 -2.5,-0.2 -3.5,-0.7 l 0.4,-1.6 c 1,0.4 2.1,0.6 3.2,0.6 1,0 1.7,-0.3 2.3,-0.9 0.6,-0.6 0.9,-1.5 0.9,-2.6 0,-1.1 -0.3,-1.9 -0.8,-2.4 -0.6,-0.6 -1.3,-0.9 -2.2,-0.9 -0.6,0 -1.3,0.1 -1.9,0.4 l -1.1,-0.5 v -7.6 h 7.2 v 1.6 h -5.6 v 4.8 z"
   id="path3921"
   inkscape:connector-curvature="0"
   style="fill:#454746" />
	</g>
</g>
<g
   id="g3923"
   transform="translate(-60.7,-54.500012)">
	<g
   id="g3925">
		<path
   d="m 343.4,173 c -1.2,0.5 -2.3,0.8 -3.5,0.8 -2.1,0 -3.1,-1.1 -3.1,-3.3 v -7.2 h -2.2 v -1.5 h 2.2 v -3.2 h 1.7 v 3.2 h 4 v 1.5 h -4 v 6.7 c 0,0.7 0.2,1.3 0.5,1.7 0.3,0.4 0.7,0.6 1.3,0.6 1,0 1.9,-0.2 2.8,-0.6 l 0.3,1.3 z"
   id="path3927"
   inkscape:connector-curvature="0"
   style="fill:#454746" />
		<path
   d="m 357.2,157.8 -0.5,1.4 c -0.8,-0.2 -1.6,-0.4 -2.2,-0.4 -0.6,0 -1.1,0.2 -1.3,0.5 -0.2,0.4 -0.4,1.1 -0.4,2.2 v 0.2 h 3.9 v 1.5 h -3.9 v 10.2 H 351 v -10.2 h -2.9 v -1.5 h 2.9 v -0.4 c 0,-1.5 0.3,-2.5 0.8,-3.1 0.5,-0.6 1.4,-0.9 2.6,-0.9 0.9,0.1 1.8,0.2 2.8,0.5 z"
   id="path3929"
   inkscape:connector-curvature="0"
   style="fill:#454746" />
		<path
   d="m 370.2,175.8 -0.7,1 c -1.7,-1.3 -2.9,-2.7 -3.8,-4.4 -0.9,-1.7 -1.3,-3.4 -1.3,-5.3 0,-1.9 0.4,-3.7 1.3,-5.3 0.9,-1.7 2.1,-3.1 3.8,-4.4 l 0.7,1 c -1.4,1.2 -2.4,2.5 -3,3.9 -0.6,1.3 -0.9,3 -0.9,4.9 0,2 0.3,3.6 0.9,5 0.7,1.2 1.7,2.4 3,3.6 z"
   id="path3931"
   inkscape:connector-curvature="0"
   style="fill:#454746" />
		<path
   d="m 377,157.4 c 1.7,1.3 2.9,2.7 3.8,4.4 0.9,1.7 1.3,3.4 1.3,5.3 0,1.9 -0.4,3.6 -1.3,5.3 -0.9,1.7 -2.1,3.1 -3.8,4.4 l -0.7,-1 c 1.4,-1.2 2.4,-2.5 3,-3.9 0.6,-1.4 0.9,-3 0.9,-4.9 0,-2 -0.3,-3.6 -0.9,-4.9 -0.6,-1.3 -1.6,-2.6 -2.9,-3.8 l 0.6,-0.9 z"
   id="path3933"
   inkscape:connector-curvature="0"
   style="fill:#454746" />
		<path
   d="m 405.5,161.5 c 1.6,0 2.9,0.6 3.8,1.7 0.9,1.1 1.4,2.6 1.4,4.4 0,1.8 -0.5,3.3 -1.4,4.5 -0.9,1.2 -2.2,1.7 -3.8,1.7 -1.6,0 -2.9,-0.6 -3.8,-1.7 -0.9,-1.1 -1.4,-2.6 -1.4,-4.5 0,-1.8 0.5,-3.3 1.4,-4.4 0.9,-1.1 2.2,-1.7 3.8,-1.7 z m 0,10.8 c 1.1,0 1.9,-0.4 2.5,-1.3 0.6,-0.9 0.9,-2 0.9,-3.3 0,-1.3 -0.3,-2.5 -0.9,-3.3 -0.6,-0.9 -1.4,-1.3 -2.5,-1.3 -1.1,0 -1.9,0.4 -2.5,1.3 -0.6,0.9 -0.9,2 -0.9,3.3 0,1.3 0.3,2.4 0.9,3.3 0.6,0.8 1.4,1.3 2.5,1.3 z"
   id="path3935"
   inkscape:connector-curvature="0"
   style="fill:#454746" />
		<path
   d="m 423.9,157.8 -0.5,1.4 c -0.8,-0.2 -1.6,-0.4 -2.2,-0.4 -0.6,0 -1.1,0.2 -1.3,0.5 -0.2,0.4 -0.4,1.1 -0.4,2.2 v 0.2 h 3.9 v 1.5 h -3.9 v 10.2 h -1.8 v -10.2 h -2.9 v -1.5 h 2.9 v -0.4 c 0,-1.5 0.3,-2.5 0.8,-3.1 0.5,-0.6 1.4,-0.9 2.6,-0.9 1,0.1 1.9,0.2 2.8,0.5 z"
   id="path3937"
   inkscape:connector-curvature="0"
   style="fill:#454746" />
		<path
   d="m 450.4,159.1 h -4.9 v 14.4 h -1.8 v -14.4 h -4.9 v -1.5 h 11.6 v 1.5 z"
   id="path3939"
   inkscape:connector-curvature="0"
   style="fill:#454746" />
		<path
   d="m 462.8,159.3 h -6.6 v 5.2 h 6 v 1.6 h -6 v 7.5 h -1.8 v -15.8 h 8.4 v 1.5 z"
   id="path3941"
   inkscape:connector-curvature="0"
   style="fill:#454746" />
		<path
   d="m 476.3,157.4 -6.9,16.5 h -1.7 l 6.9,-16.5 h 1.7 z"
   id="path3943"
   inkscape:connector-curvature="0"
   style="fill:#454746" />
		<path
   d="m 489.5,173.5 h -7.2 v -1.6 h 2.7 v -12.6 h -2.7 v -1.6 h 7.2 v 1.6 h -2.6 v 12.6 h 2.6 v 1.6 z"
   id="path3945"
   inkscape:connector-curvature="0"
   style="fill:#454746" />
		<path
   d="m 495.3,157.7 h 3.1 c 2.1,0 3.7,0.7 5,2.1 1.2,1.4 1.9,3.3 1.9,5.8 0,2.5 -0.6,4.5 -1.9,5.8 -1.3,1.4 -2.9,2.1 -4.9,2.1 h -3.2 v -15.8 z m 1.8,14.2 h 1.3 c 1.5,0 2.7,-0.6 3.6,-1.7 0.9,-1.1 1.3,-2.7 1.3,-4.6 0,-2 -0.4,-3.5 -1.3,-4.6 -0.9,-1.1 -2.1,-1.7 -3.6,-1.7 h -1.3 v 12.6 z"
   id="path3947"
   inkscape:connector-curvature="0"
   style="fill:#454746" />
		<path
   d="m 518,159.3 h -6.6 v 5.2 h 6 v 1.6 h -6 v 7.5 h -1.8 v -15.8 h 8.4 v 1.5 z"
   id="path3949"
   inkscape:connector-curvature="0"
   style="fill:#454746" />
	</g>
</g>
<g
   id="g3951"
   transform="translate(-60.7,-54.500012)">
	<path
   d="m 403.6,517.7 h 9.3 v 2.4 h -6.4 v 4.5 h 6 v 2.4 h -6 v 6.9 h -3 v -16.2 z"
   id="path3953"
   inkscape:connector-curvature="0"
   style="fill:#454746" />
	<path
   d="m 415.2,525.9 c 0,-1.6 0,-2.7 -0.1,-3.8 h 2.6 l 0.1,2.2 h 0.1 c 0.6,-1.7 1.9,-2.5 3.2,-2.5 0.3,0 0.5,0 0.7,0.1 v 2.8 c -0.2,0 -0.5,-0.1 -0.9,-0.1 -1.4,0 -2.4,0.9 -2.6,2.2 0,0.3 -0.1,0.6 -0.1,0.9 v 6 h -3 v -7.8 z"
   id="path3955"
   inkscape:connector-curvature="0"
   style="fill:#454746" />
	<path
   d="m 425.6,528.8 c 0.1,2.1 1.7,3 3.6,3 1.4,0 2.4,-0.2 3.2,-0.5 l 0.4,2 c -1,0.4 -2.4,0.7 -4.1,0.7 -3.8,0 -6,-2.3 -6,-5.9 0,-3.2 2,-6.3 5.7,-6.3 3.8,0 5,3.1 5,5.7 0,0.6 0,1 -0.1,1.2 h -7.7 z m 5.1,-2 c 0,-1.1 -0.5,-2.9 -2.4,-2.9 -1.8,0 -2.6,1.7 -2.7,2.9 h 5.1 z"
   id="path3957"
   inkscape:connector-curvature="0"
   style="fill:#454746" />
	<path
   d="m 443.7,532.2 0,0 c -0.7,1.1 -2,1.9 -3.7,1.9 -2.6,0 -4.9,-2.3 -4.9,-5.9 0,-4.3 2.7,-6.3 5.2,-6.3 1.6,0 2.8,0.7 3.4,1.8 l 0,0 0.1,-1.6 h 2.9 c 0,1.1 -0.1,2.2 -0.1,3.4 v 13.1 h -3 v -6.4 z m 0,-5.2 c 0,-0.2 0,-0.5 -0.1,-0.7 -0.3,-1.1 -1.2,-2 -2.5,-2 -1.9,0 -3,1.6 -3,3.8 0,2.1 1,3.7 2.9,3.7 1.2,0 2.2,-0.8 2.5,-1.9 0.1,-0.3 0.1,-0.6 0.1,-0.9 v -2 z"
   id="path3959"
   inkscape:connector-curvature="0"
   style="fill:#454746" />
	<path
   d="m 460.3,530.3 c 0,1.4 0,2.5 0.1,3.5 h -2.6 l -0.1,-1.8 h 0 c -0.5,0.8 -1.7,2 -3.7,2 -2.1,0 -4.1,-1.3 -4.1,-5.1 V 522 h 3 v 6.4 c 0,1.9 0.6,3.2 2.2,3.2 1.2,0 1.9,-0.8 2.3,-1.6 0.1,-0.3 0.2,-0.6 0.2,-0.9 V 522 h 3 v 8.3 z"
   id="path3961"
   inkscape:connector-curvature="0"
   style="fill:#454746" />
	<path
   d="m 465.6,528.8 c 0.1,2.1 1.7,3 3.6,3 1.4,0 2.4,-0.2 3.2,-0.5 l 0.4,2 c -1,0.4 -2.4,0.7 -4.1,0.7 -3.8,0 -6,-2.3 -6,-5.9 0,-3.2 2,-6.3 5.7,-6.3 3.8,0 5,3.1 5,5.7 0,0.6 0,1 -0.1,1.2 h -7.7 z m 5.1,-2 c 0,-1.1 -0.5,-2.9 -2.4,-2.9 -1.8,0 -2.6,1.7 -2.7,2.9 h 5.1 z"
   id="path3963"
   inkscape:connector-curvature="0"
   style="fill:#454746" />
	<path
   d="m 475.9,525.6 c 0,-1.3 0,-2.5 -0.1,-3.5 h 2.6 l 0.1,1.8 h 0.1 c 0.5,-0.9 1.8,-2 3.7,-2 2,0 4.2,1.3 4.2,5 v 6.9 h -3 v -6.6 c 0,-1.7 -0.6,-3 -2.2,-3 -1.2,0 -2,0.8 -2.3,1.7 -0.1,0.3 -0.1,0.6 -0.1,1 v 6.9 h -3 v -8.2 z"
   id="path3965"
   inkscape:connector-curvature="0"
   style="fill:#454746" />
	<path
   d="m 498.2,533.5 c -0.6,0.3 -1.8,0.6 -3.3,0.6 -3.6,0 -6,-2.3 -6,-6 0,-3.5 2.4,-6.2 6.5,-6.2 1.1,0 2.2,0.2 2.9,0.6 l -0.5,2.2 c -0.5,-0.2 -1.2,-0.5 -2.2,-0.5 -2.3,0 -3.6,1.7 -3.6,3.8 0,2.4 1.6,3.8 3.6,3.8 1,0 1.8,-0.2 2.3,-0.5 l 0.3,2.2 z"
   id="path3967"
   inkscape:connector-curvature="0"
   style="fill:#454746" />
	<path
   d="m 502.6,522.1 2.1,6.3 c 0.2,0.7 0.5,1.6 0.6,2.3 h 0.1 c 0.2,-0.7 0.4,-1.5 0.6,-2.3 l 1.8,-6.2 h 3.2 l -2.9,8 c -1.6,4.4 -2.7,6.3 -4.1,7.5 -1.2,1 -2.4,1.4 -3.1,1.5 l -0.7,-2.5 c 0.5,-0.1 1.1,-0.4 1.7,-0.8 0.6,-0.4 1.2,-1.1 1.6,-1.8 0.1,-0.2 0.2,-0.4 0.2,-0.5 0,-0.1 0,-0.3 -0.2,-0.6 l -4.3,-10.7 h 3.4 z"
   id="path3969"
   inkscape:connector-curvature="0"
   style="fill:#454746" />
</g>
<g
   id="g3971"
   transform="translate(-60.7,-54.500012)">
	<path
   d="m 104,326.6 c 0.6,-1 1,-2.4 1,-3.9 0,-1.9 -0.9,-3 -2.2,-3 -1.2,0 -1.9,0.8 -2.7,2.9 -1,2.7 -2.4,4.4 -4.7,4.4 -2.6,0 -4.7,-2.2 -4.7,-5.7 0,-1.8 0.4,-3 0.8,-3.9 l 2.4,0.7 c -0.3,0.6 -0.8,1.7 -0.8,3.2 0,1.9 1,2.7 1.9,2.7 1.2,0 1.8,-0.9 2.7,-3.1 1.1,-2.8 2.5,-4.2 4.8,-4.2 2.6,0 4.8,2 4.8,6.1 0,1.7 -0.5,3.5 -1,4.4 l -2.3,-0.6 z"
   id="path3973"
   inkscape:connector-curvature="0"
   style="fill:#454746" />
	<path
   d="m 106.8,305.4 c 0.3,0.6 0.6,1.8 0.6,3.3 0,3.6 -2.3,6 -6,6 -3.5,0 -6.2,-2.4 -6.2,-6.5 0,-1.1 0.2,-2.2 0.6,-2.9 l 2.2,0.5 c -0.2,0.5 -0.5,1.2 -0.5,2.2 0,2.3 1.7,3.6 3.8,3.6 2.4,0 3.8,-1.6 3.8,-3.6 0,-1 -0.2,-1.8 -0.5,-2.3 l 2.2,-0.3 z"
   id="path3975"
   inkscape:connector-curvature="0"
   style="fill:#454746" />
	<path
   d="m 101.2,292.3 c 4.3,0 6.2,3 6.2,6 0,3.3 -2.3,5.9 -6,5.9 -3.8,0 -6.2,-2.5 -6.2,-6 0,-3.5 2.5,-5.9 6,-5.9 z m 0.2,8.9 c 2.3,0 4,-1.1 4,-2.9 0,-1.7 -1.7,-2.9 -4,-2.9 -1.8,0 -3.9,0.8 -3.9,2.8 -0.1,2.1 1.9,3 3.9,3 z"
   id="path3977"
   inkscape:connector-curvature="0"
   style="fill:#454746" />
	<path
   d="m 99.3,289.9 c -1.6,0 -2.7,0 -3.8,0.1 v -2.6 l 2.2,-0.1 v -0.1 c -1.7,-0.6 -2.5,-1.9 -2.5,-3.2 0,-0.3 0,-0.5 0.1,-0.7 h 2.8 c 0,0.2 -0.1,0.5 -0.1,0.9 0,1.4 0.9,2.4 2.2,2.6 0.3,0 0.6,0.1 0.9,0.1 h 6 v 3 h -7.8 z"
   id="path3979"
   inkscape:connector-curvature="0"
   style="fill:#454746" />
	<path
   d="m 102.2,279.5 c 2.1,-0.1 3,-1.7 3,-3.6 0,-1.4 -0.2,-2.4 -0.5,-3.2 l 2,-0.4 c 0.4,1 0.7,2.4 0.7,4.1 0,3.8 -2.3,6 -5.9,6 -3.2,0 -6.3,-2 -6.3,-5.7 0,-3.8 3.1,-5 5.7,-5 0.6,0 1,0 1.2,0.1 v 7.7 z m -2.1,-5.1 c -1.1,0 -2.9,0.5 -2.9,2.4 0,1.8 1.7,2.6 2.9,2.7 v -5.1 z"
   id="path3981"
   inkscape:connector-curvature="0"
   style="fill:#454746" />
</g>
<line
   stroke-miterlimit="10"
   x1="73.300003"
   y1="54.999989"
   x2="73.300003"
   y2="435"
   id="line3983"
   style="fill:none;stroke:#454746;stroke-width:1;stroke-miterlimit:10" />
<line
   stroke-miterlimit="10"
   x1="73.300003"
   y1="435"
   x2="723.29999"
   y2="435"
   id="line3985"
   style="fill:none;stroke:#454746;stroke-width:1;stroke-miterlimit:10" />
<g
   id="g3987"
   transform="translate(-60.7,-54.500012)">
	<g
   id="g3989">
		<path
   d="m 145.9,418.5 v -1.2 l 1.2,-1.1 c 2.4,-2.3 3.6,-3.5 3.6,-4.9 0,-0.9 -0.5,-1.7 -1.9,-1.7 -0.9,0 -1.7,0.5 -2.2,0.9 l -0.6,-1.4 c 0.8,-0.6 1.9,-1.1 3.2,-1.1 2.3,0 3.4,1.5 3.4,3.2 0,1.8 -1.3,3.3 -3.1,5 l -0.9,0.8 v 0 h 4.3 v 1.6 h -7 z"
   id="path3991"
   inkscape:connector-curvature="0"
   style="fill:#454746" />
	</g>
	<g
   id="g3993">
		<path
   d="m 150.2,342.5 v -2.6 h -4.7 v -1.3 l 4.2,-6.5 h 2.3 v 6.3 h 1.3 v 1.5 H 152 v 2.6 h -1.8 z m 0,-4.1 v -2.8 c 0,-0.6 0,-1.2 0.1,-1.8 h -0.1 c -0.3,0.7 -0.6,1.2 -0.9,1.8 l -1.9,2.8 0,0 h 2.8 z"
   id="path3995"
   inkscape:connector-curvature="0"
   style="fill:#454746" />
	</g>
	<g
   id="g3997">
		<path
   d="m 152.2,257.5 c -0.3,0 -0.6,0 -1,0 -2.2,0.3 -3.2,1.6 -3.5,3 h 0 c 0.5,-0.6 1.3,-1 2.3,-1 1.8,0 3.2,1.3 3.2,3.4 0,2 -1.5,3.7 -3.7,3.7 -2.5,0 -3.9,-1.9 -3.9,-4.5 0,-2 0.7,-3.6 1.8,-4.7 1,-0.9 2.2,-1.4 3.7,-1.5 0.4,0 0.8,0 1,0 l 0.1,1.6 z m -0.9,5.6 c 0,-1.2 -0.7,-2.1 -1.8,-2.1 -0.7,0 -1.4,0.4 -1.7,1.1 -0.1,0.2 -0.1,0.4 -0.1,0.6 0,1.4 0.7,2.5 2,2.5 1,0 1.6,-0.9 1.6,-2.1 z"
   id="path3999"
   inkscape:connector-curvature="0"
   style="fill:#454746" />
	</g>
	<g
   id="g4001">
		<path
   d="m 145.8,187.8 c 0,-1.3 0.8,-2.2 2,-2.7 v 0 c -1.1,-0.5 -1.6,-1.4 -1.6,-2.3 0,-1.7 1.5,-2.8 3.5,-2.8 2.2,0 3.3,1.3 3.3,2.6 0,0.9 -0.5,1.8 -1.6,2.4 v 0 c 1.1,0.4 2,1.3 2,2.6 0,1.9 -1.6,3.1 -3.8,3.1 -2.6,0 -3.8,-1.4 -3.8,-2.9 z m 5.4,-0.1 c 0,-1.1 -0.8,-1.6 -1.9,-2 -1,0.3 -1.5,1 -1.5,1.8 0,0.9 0.6,1.7 1.7,1.7 1.1,0.1 1.7,-0.6 1.7,-1.5 z m -3.2,-5 c 0,0.8 0.7,1.4 1.7,1.6 0.7,-0.2 1.3,-0.8 1.3,-1.6 0,-0.7 -0.4,-1.5 -1.5,-1.5 -1,0.1 -1.5,0.7 -1.5,1.5 z"
   id="path4003"
   inkscape:connector-curvature="0"
   style="fill:#454746" />
	</g>
</g>
<g
   id="g4005"
   transform="translate(-60.7,-54.500012)">
	<g
   id="g4007">
		<path
   d="m 194.2,470.9 0,0 -1.9,1 -0.3,-1.5 2.5,-1.2 h 1.6 v 10.4 h -1.9 v -8.7 z"
   id="path4009"
   inkscape:connector-curvature="0"
   style="fill:#454746" />
		<path
   d="m 207,474.2 c 0,3.3 -1.3,5.4 -3.8,5.4 -2.4,0 -3.7,-2.2 -3.7,-5.3 0,-3.2 1.4,-5.4 3.8,-5.4 2.6,0 3.7,2.3 3.7,5.3 z m -5.5,0.1 c 0,2.5 0.7,3.8 1.8,3.8 1.2,0 1.8,-1.4 1.8,-3.9 0,-2.4 -0.6,-3.8 -1.8,-3.8 -1.1,0 -1.8,1.3 -1.8,3.9 z"
   id="path4011"
   inkscape:connector-curvature="0"
   style="fill:#454746" />
	</g>
	<g
   id="g4013">
		<path
   d="m 256.1,479.5 v -1.2 l 1.2,-1.1 c 2.4,-2.3 3.6,-3.5 3.6,-4.9 0,-0.9 -0.5,-1.7 -1.9,-1.7 -0.9,0 -1.7,0.5 -2.2,0.9 l -0.6,-1.4 c 0.8,-0.6 1.9,-1.1 3.2,-1.1 2.3,0 3.4,1.5 3.4,3.2 0,1.8 -1.3,3.3 -3.1,5 l -0.9,0.8 v 0 h 4.3 v 1.6 h -7 z"
   id="path4015"
   inkscape:connector-curvature="0"
   style="fill:#454746" />
		<path
   d="m 272,474.2 c 0,3.3 -1.3,5.4 -3.8,5.4 -2.4,0 -3.7,-2.2 -3.7,-5.3 0,-3.2 1.4,-5.4 3.8,-5.4 2.6,0 3.7,2.3 3.7,5.3 z m -5.5,0.1 c 0,2.5 0.7,3.8 1.8,3.8 1.2,0 1.8,-1.4 1.8,-3.9 0,-2.4 -0.6,-3.8 -1.8,-3.8 -1.1,0 -1.8,1.3 -1.8,3.9 z"
   id="path4017"
   inkscape:connector-curvature="0"
   style="fill:#454746" />
	</g>
	<g
   id="g4019">
		<path
   d="m 321.5,477.5 c 0.4,0.2 1.4,0.6 2.4,0.6 1.5,0 2.1,-0.8 2.1,-1.7 0,-1.2 -1.2,-1.8 -2.4,-1.8 h -0.9 v -1.4 h 0.9 c 0.9,0 2.1,-0.4 2.1,-1.5 0,-0.7 -0.5,-1.3 -1.7,-1.3 -0.8,0 -1.7,0.4 -2.1,0.7 l -0.4,-1.4 c 0.6,-0.4 1.7,-0.8 3,-0.8 2.1,0 3.2,1.2 3.2,2.5 0,1.1 -0.6,2 -1.9,2.4 v 0 c 1.3,0.2 2.3,1.2 2.3,2.6 0,1.8 -1.5,3.2 -4,3.2 -1.3,0 -2.4,-0.4 -2.9,-0.7 l 0.3,-1.4 z"
   id="path4021"
   inkscape:connector-curvature="0"
   style="fill:#454746" />
		<path
   d="m 337,474.2 c 0,3.3 -1.3,5.4 -3.8,5.4 -2.4,0 -3.7,-2.2 -3.7,-5.3 0,-3.2 1.4,-5.4 3.8,-5.4 2.6,0 3.7,2.3 3.7,5.3 z m -5.5,0.1 c 0,2.5 0.7,3.8 1.8,3.8 1.2,0 1.8,-1.4 1.8,-3.9 0,-2.4 -0.6,-3.8 -1.8,-3.8 -1.1,0 -1.8,1.3 -1.8,3.9 z"
   id="path4023"
   inkscape:connector-curvature="0"
   style="fill:#454746" />
	</g>
	<g
   id="g4025">
		<path
   d="m 390.5,479.5 v -2.6 h -4.7 v -1.3 l 4.2,-6.5 h 2.3 v 6.3 h 1.3 v 1.5 h -1.3 v 2.6 h -1.8 z m 0,-4.1 v -2.8 c 0,-0.6 0,-1.2 0.1,-1.8 h -0.1 c -0.3,0.7 -0.6,1.2 -0.9,1.8 l -1.9,2.8 0,0 h 2.8 z"
   id="path4027"
   inkscape:connector-curvature="0"
   style="fill:#454746" />
		<path
   d="m 402,474.2 c 0,3.3 -1.3,5.4 -3.8,5.4 -2.4,0 -3.7,-2.2 -3.7,-5.3 0,-3.2 1.4,-5.4 3.8,-5.4 2.6,0 3.7,2.3 3.7,5.3 z m -5.5,0.1 c 0,2.5 0.7,3.8 1.8,3.8 1.2,0 1.8,-1.4 1.8,-3.9 0,-2.4 -0.6,-3.8 -1.8,-3.8 -1.1,0 -1.8,1.3 -1.8,3.9 z"
   id="path4029"
   inkscape:connector-curvature="0"
   style="fill:#454746" />
	</g>
	<g
   id="g4031">
		<path
   d="m 457.7,470.7 h -4 l -0.3,2.1 c 0.2,0 0.4,0 0.8,0 0.9,0 1.8,0.2 2.5,0.7 0.8,0.5 1.4,1.4 1.4,2.6 0,2 -1.6,3.6 -4.2,3.6 -1.2,0 -2.2,-0.3 -2.8,-0.6 l 0.4,-1.5 c 0.4,0.2 1.3,0.5 2.3,0.5 1.2,0 2.3,-0.7 2.3,-1.9 0,-1.2 -0.9,-2 -3,-2 -0.6,0 -1,0 -1.4,0.1 l 0.7,-5.2 h 5.4 v 1.6 z"
   id="path4033"
   inkscape:connector-curvature="0"
   style="fill:#454746" />
		<path
   d="m 467,474.2 c 0,3.3 -1.3,5.4 -3.8,5.4 -2.4,0 -3.7,-2.2 -3.7,-5.3 0,-3.2 1.4,-5.4 3.8,-5.4 2.6,0 3.7,2.3 3.7,5.3 z m -5.5,0.1 c 0,2.5 0.7,3.8 1.8,3.8 1.2,0 1.8,-1.4 1.8,-3.9 0,-2.4 -0.6,-3.8 -1.8,-3.8 -1.1,0 -1.8,1.3 -1.8,3.9 z"
   id="path4035"
   inkscape:connector-curvature="0"
   style="fill:#454746" />
	</g>
	<g
   id="g4037">
		<path
   d="m 522.5,470.5 c -0.3,0 -0.6,0 -1,0 -2.2,0.3 -3.2,1.6 -3.5,3 h 0 c 0.5,-0.6 1.3,-1 2.3,-1 1.8,0 3.2,1.3 3.2,3.4 0,2 -1.5,3.7 -3.7,3.7 -2.5,0 -3.9,-1.9 -3.9,-4.5 0,-2 0.7,-3.6 1.8,-4.7 1,-0.9 2.2,-1.4 3.7,-1.5 0.4,0 0.8,0 1,0 l 0.1,1.6 z m -1,5.6 c 0,-1.2 -0.7,-2.1 -1.8,-2.1 -0.7,0 -1.4,0.4 -1.7,1.1 -0.1,0.2 -0.1,0.4 -0.1,0.6 0,1.4 0.7,2.5 2,2.5 1,0 1.6,-0.9 1.6,-2.1 z"
   id="path4039"
   inkscape:connector-curvature="0"
   style="fill:#454746" />
		<path
   d="m 532,474.2 c 0,3.3 -1.3,5.4 -3.8,5.4 -2.4,0 -3.7,-2.2 -3.7,-5.3 0,-3.2 1.4,-5.4 3.8,-5.4 2.6,0 3.7,2.3 3.7,5.3 z m -5.5,0.1 c 0,2.5 0.7,3.8 1.8,3.8 1.2,0 1.8,-1.4 1.8,-3.9 0,-2.4 -0.6,-3.8 -1.8,-3.8 -1.1,0 -1.8,1.3 -1.8,3.9 z"
   id="path4041"
   inkscape:connector-curvature="0"
   style="fill:#454746" />
	</g>
	<g
   id="g4043">
		<path
   d="m 588.3,469.1 v 1.3 l -4.4,9.1 h -2.1 l 4.4,-8.7 v 0 h -4.9 v -1.6 h 7 z"
   id="path4045"
   inkscape:connector-curvature="0"
   style="fill:#454746" />
		<path
   d="m 597,474.2 c 0,3.3 -1.3,5.4 -3.8,5.4 -2.4,0 -3.7,-2.2 -3.7,-5.3 0,-3.2 1.4,-5.4 3.8,-5.4 2.6,0 3.7,2.3 3.7,5.3 z m -5.5,0.1 c 0,2.5 0.7,3.8 1.8,3.8 1.2,0 1.8,-1.4 1.8,-3.9 0,-2.4 -0.6,-3.8 -1.8,-3.8 -1.1,0 -1.8,1.3 -1.8,3.9 z"
   id="path4047"
   inkscape:connector-curvature="0"
   style="fill:#454746" />
	</g>
	<g
   id="g4049">
		<path
   d="m 646,476.8 c 0,-1.3 0.8,-2.2 2,-2.7 v 0 c -1.1,-0.5 -1.6,-1.4 -1.6,-2.3 0,-1.7 1.5,-2.8 3.5,-2.8 2.2,0 3.3,1.3 3.3,2.6 0,0.9 -0.5,1.8 -1.6,2.4 v 0 c 1.1,0.4 2,1.3 2,2.6 0,1.9 -1.6,3.1 -3.8,3.1 -2.6,0 -3.8,-1.4 -3.8,-2.9 z m 5.5,-0.1 c 0,-1.1 -0.8,-1.6 -1.9,-2 -1,0.3 -1.5,1 -1.5,1.8 0,0.9 0.6,1.7 1.7,1.7 1,0.1 1.7,-0.6 1.7,-1.5 z m -3.3,-5 c 0,0.8 0.7,1.4 1.7,1.6 0.7,-0.2 1.3,-0.8 1.3,-1.6 0,-0.7 -0.4,-1.5 -1.5,-1.5 -1,0.1 -1.5,0.7 -1.5,1.5 z"
   id="path4051"
   inkscape:connector-curvature="0"
   style="fill:#454746" />
		<path
   d="m 662,474.2 c 0,3.3 -1.3,5.4 -3.8,5.4 -2.4,0 -3.7,-2.2 -3.7,-5.3 0,-3.2 1.4,-5.4 3.8,-5.4 2.6,0 3.7,2.3 3.7,5.3 z m -5.5,0.1 c 0,2.5 0.7,3.8 1.8,3.8 1.2,0 1.8,-1.4 1.8,-3.9 0,-2.4 -0.6,-3.8 -1.8,-3.8 -1.1,0 -1.8,1.3 -1.8,3.9 z"
   id="path4053"
   inkscape:connector-curvature="0"
   style="fill:#454746" />
	</g>
	<g
   id="g4055">
		<path
   d="m 711.9,478.1 c 0.3,0 0.6,0 1.1,0 0.8,-0.1 1.5,-0.3 2.1,-0.8 0.7,-0.5 1.1,-1.3 1.3,-2.3 l 0,0 c -0.5,0.6 -1.3,0.9 -2.3,0.9 -1.8,0 -3.2,-1.3 -3.2,-3.2 0,-2 1.5,-3.7 3.8,-3.7 2.4,0 3.7,1.9 3.7,4.4 0,2.2 -0.7,3.8 -1.8,4.8 -0.9,0.8 -2.2,1.3 -3.6,1.4 -0.4,0 -0.9,0 -1.2,0 v -1.5 z m 1,-5.6 c 0,1.1 0.6,1.9 1.7,1.9 0.8,0 1.4,-0.4 1.7,-0.9 0.1,-0.1 0.1,-0.3 0.1,-0.6 0,-1.4 -0.5,-2.6 -1.8,-2.6 -0.9,0.1 -1.7,1 -1.7,2.2 z"
   id="path4057"
   inkscape:connector-curvature="0"
   style="fill:#454746" />
		<path
   d="m 727,474.2 c 0,3.3 -1.3,5.4 -3.8,5.4 -2.4,0 -3.7,-2.2 -3.7,-5.3 0,-3.2 1.4,-5.4 3.8,-5.4 2.6,0 3.7,2.3 3.7,5.3 z m -5.5,0.1 c 0,2.5 0.7,3.8 1.8,3.8 1.2,0 1.8,-1.4 1.8,-3.9 0,-2.4 -0.6,-3.8 -1.8,-3.8 -1.1,0 -1.8,1.3 -1.8,3.9 z"
   id="path4059"
   inkscape:connector-curvature="0"
   style="fill:#454746" />
	</g>
</g>
<line
   stroke-miterlimit="10"
   x1="79.800003"
   y1="130.99998"
   x2="73.300003"
   y2="130.99998"
   id="line4061"
   style="fill:none;stroke:#454746;stroke-width:1;stroke-miterlimit:10" />
<line
   stroke-miterlimit="10"
   x1="79.800003"
   y1="55.299992"
   x2="73.300003"
   y2="55.299992"
   id="line4063"
   style="fill:none;stroke:#454746;stroke-width:1;stroke-miterlimit:10" />
<line
   stroke-miterlimit="10"
   x1="79.800003"
   y1="206.99998"
   x2="73.300003"
   y2="206.99998"
   id="line4065"
   style="fill:none;stroke:#454746;stroke-width:1;stroke-miterlimit:10" />
<line
   stroke-miterlimit="10"
   x1="79.800003"
   y1="283"
   x2="73.300003"
   y2="283"
   id="line4067"
   style="fill:none;stroke:#454746;stroke-width:1;stroke-miterlimit:10" />
<line
   stroke-miterlimit="10"
   x1="79.800003"
   y1="359"
   x2="73.300003"
   y2="359"
   id="line4069"
   style="fill:none;stroke:#454746;stroke-width:1;stroke-miterlimit:10" />
<line
   stroke-miterlimit="10"
   x1="138.3"
   y1="428.5"
   x2="138.3"
   y2="435"
   id="line4071"
   style="fill:none;stroke:#454746;stroke-width:1;stroke-miterlimit:10" />
<line
   stroke-miterlimit="10"
   x1="203.3"
   y1="428.5"
   x2="203.3"
   y2="435"
   id="line4073"
   style="fill:none;stroke:#454746;stroke-width:1;stroke-miterlimit:10" />
<line
   stroke-miterlimit="10"
   x1="268.29999"
   y1="428.5"
   x2="268.29999"
   y2="435"
   id="line4075"
   style="fill:none;stroke:#454746;stroke-width:1;stroke-miterlimit:10" />
<line
   stroke-miterlimit="10"
   x1="333.29999"
   y1="428.5"
   x2="333.29999"
   y2="435"
   id="line4077"
   style="fill:none;stroke:#454746;stroke-width:1;stroke-miterlimit:10" />
<line
   stroke-miterlimit="10"
   x1="398.29999"
   y1="428.5"
   x2="398.29999"
   y2="435"
   id="line4079"
   style="fill:none;stroke:#454746;stroke-width:1;stroke-miterlimit:10" />
<line
   stroke-miterlimit="10"
   x1="463.29999"
   y1="428.5"
   x2="463.29999"
   y2="435"
   id="line4081"
   style="fill:none;stroke:#454746;stroke-width:1;stroke-miterlimit:10" />
<line
   stroke-miterlimit="10"
   x1="528.29999"
   y1="428.5"
   x2="528.29999"
   y2="435"
   id="line4083"
   style="fill:none;stroke:#454746;stroke-width:1;stroke-miterlimit:10" />
<line
   stroke-miterlimit="10"
   x1="593.29999"
   y1="428.5"
   x2="593.29999"
   y2="435"
   id="line4085"
   style="fill:none;stroke:#454746;stroke-width:1;stroke-miterlimit:10" />
<line
   stroke-miterlimit="10"
   x1="658.29999"
   y1="428.5"
   x2="658.29999"
   y2="435"
   id="line4087"
   style="fill:none;stroke:#454746;stroke-width:1;stroke-miterlimit:10" />
<line
   stroke-miterlimit="10"
   x1="723.29999"
   y1="428.5"
   x2="723.29999"
   y2="435"
   id="line4089"
   style="fill:none;stroke:#454746;stroke-width:1;stroke-miterlimit:10" />
<path
   stroke-miterlimit="10"
   d="m 73.3,434.99999 c 0,-34.5 95.3,-39.3 152.7,-39.1 h 497.3"
   id="path4091"
   inkscape:connector-curvature="0"
   style="fill:none;stroke:#75b640;stroke-width:4;stroke-linecap:round;stroke-miterlimit:10" />
<path
   stroke-miterlimit="10"
   d="M 73.3,400.39999 C 73.3,274.99999 649.6,54.799988 707,54.999988"
   id="path4093"
   inkscape:connector-curvature="0"
   style="fill:none;stroke:#75b640;stroke-width:4;stroke-linecap:round;stroke-miterlimit:10" />
</svg>