<?xml version="1.0" encoding="UTF-8" standalone="no"?>
<!-- Generator: Adobe Illustrator 18.0.0, SVG Export Plug-In . SVG Version: 6.00 Build 0)  -->

<svg
   xmlns:dc="http://purl.org/dc/elements/1.1/"
   xmlns:cc="http://creativecommons.org/ns#"
   xmlns:rdf="http://www.w3.org/1999/02/22-rdf-syntax-ns#"
   xmlns:svg="http://www.w3.org/2000/svg"
   xmlns="http://www.w3.org/2000/svg"
   xmlns:sodipodi="http://sodipodi.sourceforge.net/DTD/sodipodi-0.dtd"
   xmlns:inkscape="http://www.inkscape.org/namespaces/inkscape"
   version="1.1"
   id="graphs"
   x="0px"
   y="0px"
   viewBox="0 0 779 508.7"
   enable-background="new 0 0 900 600"
   xml:space="preserve"
   inkscape:version="0.48.2 r9819"
   width="100%"
   height="100%"
   sodipodi:docname="170_05_log_factor.svg"><metadata
   id="metadata3858"><rdf:RDF><cc:Work
       rdf:about=""><dc:format>image/svg+xml</dc:format><dc:type
         rdf:resource="http://purl.org/dc/dcmitype/StillImage" /></cc:Work></rdf:RDF></metadata><defs
   id="defs3856" /><sodipodi:namedview
   pagecolor="#ffffff"
   bordercolor="#666666"
   borderopacity="1"
   objecttolerance="10"
   gridtolerance="10"
   guidetolerance="10"
   inkscape:pageopacity="0"
   inkscape:pageshadow="2"
   inkscape:window-width="640"
   inkscape:window-height="480"
   id="namedview3854"
   showgrid="false"
   fit-margin-top="50"
   fit-margin-left="30"
   fit-margin-right="50"
   fit-margin-bottom="30"
   inkscape:zoom="0.39111111"
   inkscape:cx="391"
   inkscape:cy="263.20001"
   inkscape:window-x="0"
   inkscape:window-y="0"
   inkscape:window-maximized="0"
   inkscape:current-layer="graphs" />
<path
   d="M 726,440.29999 H 72 c -1.6,0 -3,-1.4 -3,-3 V 52.999994 c 0,-1.7 1.4,-3 3,-3 h 654 c 1.7,0 3,1.3 3,3 V 437.29999 c 0,1.7 -1.3,3 -3,3 z"
   id="path3462"
   inkscape:connector-curvature="0"
   style="fill:#f8faf6" />
<g
   id="g3464"
   transform="translate(-59,-54.500006)">
	<path
   d="m 371,532.8 v -16.2 h 3.4 l 4.2,6.9 c 1.1,1.8 2,3.7 2.8,5.4 h 0 c -0.2,-2.2 -0.3,-4.2 -0.3,-6.7 v -5.6 h 2.7 v 16.2 h -3 l -4.2,-7.1 c -1,-1.8 -2.1,-3.8 -2.9,-5.6 l -0.1,0 c 0.1,2.1 0.1,4.2 0.1,6.9 v 5.8 H 371 z"
   id="path3466"
   inkscape:connector-curvature="0"
   style="fill:#454746" />
	<path
   d="m 397.6,529.3 c 0,1.4 0,2.5 0.1,3.5 h -2.6 L 395,531 h 0 c -0.5,0.8 -1.7,2 -3.7,2 -2.1,0 -4.1,-1.3 -4.1,-5.1 V 521 h 3 v 6.4 c 0,1.9 0.6,3.2 2.2,3.2 1.2,0 1.9,-0.8 2.3,-1.6 0.1,-0.3 0.2,-0.6 0.2,-0.9 V 521 h 3 v 8.3 z"
   id="path3468"
   inkscape:connector-curvature="0"
   style="fill:#454746" />
	<path
   d="m 400.8,524.6 c 0,-1.3 0,-2.5 -0.1,-3.5 h 2.5 l 0.1,1.7 h 0.1 c 0.6,-0.9 1.6,-2 3.6,-2 1.5,0 2.7,0.9 3.2,2.2 h 0 c 0.4,-0.6 0.9,-1.1 1.4,-1.5 0.6,-0.5 1.4,-0.7 2.4,-0.7 1.9,0 3.9,1.3 3.9,5.1 v 6.9 H 415 v -6.5 c 0,-1.9 -0.7,-3.1 -2.1,-3.1 -1,0 -1.8,0.7 -2.1,1.6 -0.1,0.3 -0.1,0.6 -0.1,1 v 7 H 408 V 526 c 0,-1.6 -0.6,-2.8 -2,-2.8 -1.1,0 -1.8,0.9 -2.1,1.7 -0.1,0.3 -0.2,0.6 -0.2,1 v 6.9 h -2.9 v -8.2 z"
   id="path3470"
   inkscape:connector-curvature="0"
   style="fill:#454746" />
	<path
   d="m 421,532.8 c 0,-0.8 0.1,-2.1 0.1,-3.3 v -13.8 h 3 v 7 h 0 c 0.7,-1.1 2,-1.9 3.7,-1.9 2.9,0 4.9,2.4 4.9,5.9 0,4.2 -2.7,6.3 -5.3,6.3 -1.5,0 -2.9,-0.6 -3.7,-2 h 0 l -0.1,1.8 H 421 z m 3.1,-4.8 c 0,0.2 0,0.5 0.1,0.7 0.3,1.2 1.3,2.1 2.6,2.1 1.8,0 3,-1.5 3,-3.8 0,-2.1 -1,-3.7 -3,-3.7 -1.2,0 -2.3,0.9 -2.6,2.2 0,0.2 -0.1,0.5 -0.1,0.8 v 1.7 z"
   id="path3472"
   inkscape:connector-curvature="0"
   style="fill:#454746" />
	<path
   d="m 437.3,527.8 c 0.1,2.1 1.7,3 3.6,3 1.4,0 2.4,-0.2 3.2,-0.5 l 0.4,2 c -1,0.4 -2.4,0.7 -4.1,0.7 -3.8,0 -6,-2.3 -6,-5.9 0,-3.2 2,-6.3 5.7,-6.3 3.8,0 5,3.1 5,5.7 0,0.6 0,1 -0.1,1.2 h -7.7 z m 5.1,-2 c 0,-1.1 -0.5,-2.9 -2.4,-2.9 -1.8,0 -2.6,1.7 -2.7,2.9 h 5.1 z"
   id="path3474"
   inkscape:connector-curvature="0"
   style="fill:#454746" />
	<path
   d="m 447.6,524.9 c 0,-1.6 0,-2.7 -0.1,-3.8 h 2.6 l 0.1,2.2 h 0.1 c 0.6,-1.7 1.9,-2.5 3.2,-2.5 0.3,0 0.5,0 0.7,0.1 v 2.8 c -0.2,0 -0.5,-0.1 -0.9,-0.1 -1.4,0 -2.4,0.9 -2.6,2.2 0,0.3 -0.1,0.6 -0.1,0.9 v 6 h -3 v -7.8 z"
   id="path3476"
   inkscape:connector-curvature="0"
   style="fill:#454746" />
	<path
   d="m 472.2,526.9 c 0,4.3 -3,6.2 -6,6.2 -3.3,0 -5.9,-2.3 -5.9,-6 0,-3.8 2.5,-6.2 6,-6.2 3.6,0 5.9,2.4 5.9,6 z m -8.8,0.1 c 0,2.3 1.1,4 2.9,4 1.7,0 2.9,-1.7 2.9,-4 0,-1.8 -0.8,-3.9 -2.8,-3.9 -2.2,-0.1 -3,2 -3,3.9 z"
   id="path3478"
   inkscape:connector-curvature="0"
   style="fill:#454746" />
	<path
   d="m 474.9,532.8 v -9.5 h -1.6 v -2.2 h 1.6 v -0.5 c 0,-1.5 0.4,-3 1.4,-4 0.9,-0.8 2,-1.1 3,-1.1 0.8,0 1.4,0.1 1.9,0.3 l -0.2,2.3 c -0.3,-0.1 -0.7,-0.2 -1.2,-0.2 -1.5,0 -2,1.2 -2,2.7 v 0.6 h 2.6 v 2.2 h -2.5 v 9.5 h -3 z"
   id="path3480"
   inkscape:connector-curvature="0"
   style="fill:#454746" />
	<path
   d="m 489.1,521.1 1.9,5.9 c 0.3,1 0.6,2 0.8,2.9 h 0.1 c 0.2,-1 0.5,-1.9 0.8,-2.9 l 1.8,-5.9 h 3.1 l -4.5,11.7 h -2.9 l -4.3,-11.7 h 3.2 z"
   id="path3482"
   inkscape:connector-curvature="0"
   style="fill:#454746" />
	<path
   d="m 510.2,526.9 c 0,4.3 -3,6.2 -6,6.2 -3.3,0 -5.9,-2.3 -5.9,-6 0,-3.8 2.5,-6.2 6,-6.2 3.6,0 5.9,2.4 5.9,6 z m -8.8,0.1 c 0,2.3 1.1,4 2.9,4 1.7,0 2.9,-1.7 2.9,-4 0,-1.8 -0.8,-3.9 -2.8,-3.9 -2.1,-0.1 -3,2 -3,3.9 z"
   id="path3484"
   inkscape:connector-curvature="0"
   style="fill:#454746" />
	<path
   d="m 516,517.8 v 3.3 h 2.8 v 2.2 H 516 v 5.2 c 0,1.4 0.4,2.2 1.5,2.2 0.5,0 0.9,-0.1 1.2,-0.1 l 0,2.3 c -0.4,0.2 -1.2,0.3 -2.1,0.3 -1.1,0 -2,-0.4 -2.5,-1 -0.6,-0.7 -0.9,-1.7 -0.9,-3.3 v -5.5 h -1.7 v -2.2 h 1.7 v -2.6 l 2.8,-0.8 z"
   id="path3486"
   inkscape:connector-curvature="0"
   style="fill:#454746" />
	<path
   d="m 523,527.8 c 0.1,2.1 1.7,3 3.6,3 1.4,0 2.4,-0.2 3.2,-0.5 l 0.4,2 c -1,0.4 -2.4,0.7 -4.1,0.7 -3.8,0 -6,-2.3 -6,-5.9 0,-3.2 2,-6.3 5.7,-6.3 3.8,0 5,3.1 5,5.7 0,0.6 0,1 -0.1,1.2 H 523 z m 5.2,-2 c 0,-1.1 -0.5,-2.9 -2.4,-2.9 -1.8,0 -2.6,1.7 -2.7,2.9 h 5.1 z"
   id="path3488"
   inkscape:connector-curvature="0"
   style="fill:#454746" />
	<path
   d="m 533.2,530.1 c 0.7,0.4 1.9,0.8 3,0.8 1.3,0 1.9,-0.5 1.9,-1.3 0,-0.8 -0.5,-1.2 -1.9,-1.7 -2.3,-0.8 -3.2,-2 -3.2,-3.4 0,-2.1 1.7,-3.7 4.4,-3.7 1.3,0 2.4,0.3 3.1,0.7 l -0.6,2.1 c -0.5,-0.3 -1.4,-0.7 -2.5,-0.7 -1.1,0 -1.6,0.5 -1.6,1.2 0,0.7 0.6,1.1 2,1.6 2.1,0.8 3.1,1.8 3.1,3.6 0,2.1 -1.7,3.6 -4.8,3.6 -1.4,0 -2.7,-0.3 -3.6,-0.8 l 0.7,-2 z"
   id="path3490"
   inkscape:connector-curvature="0"
   style="fill:#454746" />
</g>
<g
   id="g3492"
   transform="translate(-59,-54.500006)">
	<path
   d="M 105.2,350.9 H 89 v -3.4 l 6.9,-4.2 c 1.8,-1.1 3.7,-2 5.4,-2.8 v 0 c -2.2,0.2 -4.2,0.3 -6.7,0.3 H 89 v -2.7 h 16.2 v 3 l -7.1,4.2 c -1.8,1 -3.8,2.1 -5.6,2.9 l 0,0.1 c 2.1,-0.1 4.2,-0.1 6.9,-0.1 h 5.8 v 2.7 z"
   id="path3494"
   inkscape:connector-curvature="0"
   style="fill:#454746" />
	<path
   d="m 100.2,332.8 c 2.1,-0.1 3,-1.7 3,-3.6 0,-1.4 -0.2,-2.4 -0.5,-3.2 l 2,-0.4 c 0.4,1 0.7,2.4 0.7,4.1 0,3.8 -2.3,6 -5.9,6 -3.2,0 -6.3,-2 -6.3,-5.7 0,-3.8 3.1,-5 5.7,-5 0.6,0 1,0 1.2,0.1 v 7.7 z m -2.1,-5.2 c -1.1,0 -2.9,0.5 -2.9,2.4 0,1.8 1.7,2.6 2.9,2.7 v -5.1 z"
   id="path3496"
   inkscape:connector-curvature="0"
   style="fill:#454746" />
	<path
   d="m 93.5,320.8 5.3,-1.2 c 1.2,-0.3 2.5,-0.5 3.8,-0.7 v 0 c -1.3,-0.2 -2.6,-0.6 -3.8,-1 l -5.3,-1.5 V 314 l 5.2,-1.5 c 1.4,-0.4 2.6,-0.7 3.9,-0.9 v 0 c -1.3,-0.2 -2.5,-0.5 -3.9,-0.8 l -5.2,-1.3 v -2.9 l 11.7,3.7 v 2.7 l -4.8,1.4 c -1.2,0.4 -2.3,0.6 -3.7,0.9 v 0 c 1.4,0.2 2.6,0.6 3.7,0.9 l 4.8,1.5 v 2.8 L 93.5,324 v -3.2 z"
   id="path3498"
   inkscape:connector-curvature="0"
   style="fill:#454746" />
	<path
   d="m 102.5,299.7 c 0.4,-0.7 0.8,-1.9 0.8,-3 0,-1.3 -0.5,-1.9 -1.3,-1.9 -0.8,0 -1.2,0.5 -1.7,1.9 -0.8,2.3 -2,3.2 -3.4,3.2 -2.1,0 -3.7,-1.7 -3.7,-4.4 0,-1.3 0.3,-2.4 0.7,-3.1 L 96,293 c -0.3,0.5 -0.7,1.4 -0.7,2.5 0,1.1 0.5,1.6 1.2,1.6 0.7,0 1.1,-0.6 1.6,-2 0.8,-2.1 1.8,-3.1 3.6,-3.1 2.1,0 3.6,1.7 3.6,4.8 0,1.4 -0.3,2.7 -0.8,3.6 l -2,-0.7 z"
   id="path3500"
   inkscape:connector-curvature="0"
   style="fill:#454746" />
	<path
   d="m 104.8,281 c 0.3,0.6 0.6,1.8 0.6,3.3 0,3.6 -2.3,6 -6,6 -3.5,0 -6.2,-2.4 -6.2,-6.5 0,-1.1 0.2,-2.2 0.6,-2.9 l 2.2,0.5 c -0.2,0.5 -0.5,1.2 -0.5,2.2 0,2.3 1.7,3.6 3.8,3.6 2.4,0 3.8,-1.6 3.8,-3.6 0,-1 -0.2,-1.8 -0.5,-2.3 l 2.2,-0.3 z"
   id="path3502"
   inkscape:connector-curvature="0"
   style="fill:#454746" />
	<path
   d="m 99.2,267.9 c 4.3,0 6.2,3 6.2,6 0,3.3 -2.3,5.9 -6,5.9 -3.8,0 -6.2,-2.5 -6.2,-6 0,-3.6 2.5,-5.9 6,-5.9 z m 0.2,8.8 c 2.3,0 4,-1.1 4,-2.9 0,-1.7 -1.7,-2.9 -4,-2.9 -1.8,0 -3.9,0.8 -3.9,2.8 -0.1,2.2 1.9,3 3.9,3 z"
   id="path3504"
   inkscape:connector-curvature="0"
   style="fill:#454746" />
	<path
   d="m 97.3,265.5 c -1.6,0 -2.7,0 -3.8,0.1 V 263 l 2.2,-0.1 v -0.1 c -1.7,-0.6 -2.5,-1.9 -2.5,-3.2 0,-0.3 0,-0.5 0.1,-0.7 h 2.8 c 0,0.2 -0.1,0.5 -0.1,0.9 0,1.4 0.9,2.4 2.2,2.6 0.3,0 0.6,0.1 0.9,0.1 h 6 v 3 h -7.8 z"
   id="path3506"
   inkscape:connector-curvature="0"
   style="fill:#454746" />
	<path
   d="m 100.2,255.1 c 2.1,-0.1 3,-1.7 3,-3.6 0,-1.4 -0.2,-2.4 -0.5,-3.2 l 2,-0.4 c 0.4,1 0.7,2.4 0.7,4.1 0,3.8 -2.3,6 -5.9,6 -3.2,0 -6.3,-2 -6.3,-5.7 0,-3.8 3.1,-5 5.7,-5 0.6,0 1,0 1.2,0.1 v 7.7 z m -2.1,-5.2 c -1.1,0 -2.9,0.5 -2.9,2.4 0,1.8 1.7,2.6 2.9,2.7 v -5.1 z"
   id="path3508"
   inkscape:connector-curvature="0"
   style="fill:#454746" />
</g>
<g
   id="g3510"
   transform="translate(-59,-54.500006)">
	<line
   stroke-miterlimit="10"
   x1="133"
   y1="109.5"
   x2="133"
   y2="489.5"
   id="line3512"
   style="fill:none;stroke:#d6d6d6;stroke-miterlimit:10" />
	<line
   stroke-miterlimit="10"
   x1="198"
   y1="109.5"
   x2="198"
   y2="489.5"
   id="line3514"
   style="fill:none;stroke:#d6d6d6;stroke-miterlimit:10" />
	<line
   stroke-miterlimit="10"
   x1="263"
   y1="109.5"
   x2="263"
   y2="489.5"
   id="line3516"
   style="fill:none;stroke:#d6d6d6;stroke-miterlimit:10" />
	<line
   stroke-miterlimit="10"
   x1="328"
   y1="109.5"
   x2="328"
   y2="489.5"
   id="line3518"
   style="fill:none;stroke:#d6d6d6;stroke-miterlimit:10" />
	<line
   stroke-miterlimit="10"
   x1="393"
   y1="109.5"
   x2="393"
   y2="489.5"
   id="line3520"
   style="fill:none;stroke:#d6d6d6;stroke-miterlimit:10" />
	<line
   stroke-miterlimit="10"
   x1="458"
   y1="109.5"
   x2="458"
   y2="489.5"
   id="line3522"
   style="fill:none;stroke:#d6d6d6;stroke-miterlimit:10" />
	<line
   stroke-miterlimit="10"
   x1="523"
   y1="109.5"
   x2="523"
   y2="489.5"
   id="line3524"
   style="fill:none;stroke:#d6d6d6;stroke-miterlimit:10" />
	<line
   stroke-miterlimit="10"
   x1="588"
   y1="109.5"
   x2="588"
   y2="489.5"
   id="line3526"
   style="fill:none;stroke:#d6d6d6;stroke-miterlimit:10" />
	<line
   stroke-miterlimit="10"
   x1="653"
   y1="109.5"
   x2="653"
   y2="489.5"
   id="line3528"
   style="fill:none;stroke:#d6d6d6;stroke-miterlimit:10" />
	<line
   stroke-miterlimit="10"
   x1="718"
   y1="109.5"
   x2="718"
   y2="489.5"
   id="line3530"
   style="fill:none;stroke:#d6d6d6;stroke-miterlimit:10" />
	<line
   stroke-miterlimit="10"
   x1="783"
   y1="109.5"
   x2="783"
   y2="489.5"
   id="line3532"
   style="fill:none;stroke:#d6d6d6;stroke-miterlimit:10" />
	<line
   stroke-miterlimit="10"
   x1="133"
   y1="109.5"
   x2="783"
   y2="109.5"
   id="line3534"
   style="fill:none;stroke:#d6d6d6;stroke-miterlimit:10" />
	<line
   stroke-miterlimit="10"
   x1="133"
   y1="489.5"
   x2="783"
   y2="489.5"
   id="line3536"
   style="fill:none;stroke:#d6d6d6;stroke-miterlimit:10" />
	<line
   stroke-miterlimit="10"
   x1="133"
   y1="489.5"
   x2="783"
   y2="489.5"
   id="line3538"
   style="fill:none;stroke:#d6d6d6;stroke-miterlimit:10" />
	<path
   stroke-miterlimit="10"
   d="M 783,300"
   id="path3540"
   inkscape:connector-curvature="0"
   style="fill:none;stroke:#d6d6d6;stroke-miterlimit:10" />
	<path
   stroke-miterlimit="10"
   d="M 133,300"
   id="path3542"
   inkscape:connector-curvature="0"
   style="fill:none;stroke:#d6d6d6;stroke-miterlimit:10" />
	<line
   stroke-miterlimit="10"
   x1="133"
   y1="442"
   x2="783"
   y2="442"
   id="line3544"
   style="fill:none;stroke:#d6d6d6;stroke-miterlimit:10" />
	<line
   stroke-miterlimit="10"
   x1="133"
   y1="394.5"
   x2="783"
   y2="394.5"
   id="line3546"
   style="fill:none;stroke:#d6d6d6;stroke-miterlimit:10" />
	<line
   stroke-miterlimit="10"
   x1="133"
   y1="347"
   x2="783"
   y2="347"
   id="line3548"
   style="fill:none;stroke:#d6d6d6;stroke-miterlimit:10" />
	<line
   stroke-miterlimit="10"
   x1="133"
   y1="299.5"
   x2="783"
   y2="299.5"
   id="line3550"
   style="fill:none;stroke:#d6d6d6;stroke-miterlimit:10" />
	<line
   stroke-miterlimit="10"
   x1="133"
   y1="252"
   x2="783"
   y2="252"
   id="line3552"
   style="fill:none;stroke:#d6d6d6;stroke-miterlimit:10" />
	<line
   stroke-miterlimit="10"
   x1="133"
   y1="204.5"
   x2="783"
   y2="204.5"
   id="line3554"
   style="fill:none;stroke:#d6d6d6;stroke-miterlimit:10" />
	<line
   stroke-miterlimit="10"
   x1="133"
   y1="157"
   x2="783"
   y2="157"
   id="line3556"
   style="fill:none;stroke:#d6d6d6;stroke-miterlimit:10" />
</g>
<line
   stroke-miterlimit="10"
   x1="74"
   y1="54.999992"
   x2="74"
   y2="435"
   id="line3558"
   style="fill:none;stroke:#454746;stroke-miterlimit:10" />
<line
   stroke-miterlimit="10"
   x1="74"
   y1="435"
   x2="724"
   y2="435"
   id="line3560"
   style="fill:none;stroke:#454746;stroke-miterlimit:10" />
<g
   id="g3562"
   transform="translate(-59,-54.500006)">
	<line
   stroke-miterlimit="10"
   x1="139.5"
   y1="109.5"
   x2="133"
   y2="109.5"
   id="line3564"
   style="fill:none;stroke:#454746;stroke-miterlimit:10" />
	<line
   stroke-miterlimit="10"
   x1="139.5"
   y1="157"
   x2="133"
   y2="157"
   id="line3566"
   style="fill:none;stroke:#454746;stroke-miterlimit:10" />
	<line
   stroke-miterlimit="10"
   x1="139.5"
   y1="204.5"
   x2="133"
   y2="204.5"
   id="line3568"
   style="fill:none;stroke:#454746;stroke-miterlimit:10" />
	<line
   stroke-miterlimit="10"
   x1="139.5"
   y1="252"
   x2="133"
   y2="252"
   id="line3570"
   style="fill:none;stroke:#454746;stroke-miterlimit:10" />
	<line
   stroke-miterlimit="10"
   x1="139.5"
   y1="299.5"
   x2="133"
   y2="299.5"
   id="line3572"
   style="fill:none;stroke:#454746;stroke-miterlimit:10" />
	<line
   stroke-miterlimit="10"
   x1="139.5"
   y1="347"
   x2="133"
   y2="347"
   id="line3574"
   style="fill:none;stroke:#454746;stroke-miterlimit:10" />
	<line
   stroke-miterlimit="10"
   x1="139.5"
   y1="394.5"
   x2="133"
   y2="394.5"
   id="line3576"
   style="fill:none;stroke:#454746;stroke-miterlimit:10" />
	<line
   stroke-miterlimit="10"
   x1="139.5"
   y1="442"
   x2="133"
   y2="442"
   id="line3578"
   style="fill:none;stroke:#454746;stroke-miterlimit:10" />
</g>
<g
   id="g3580"
   transform="translate(-59,-54.500006)">
	<line
   stroke-miterlimit="10"
   x1="198"
   y1="483"
   x2="198"
   y2="489.5"
   id="line3582"
   style="fill:none;stroke:#454746;stroke-miterlimit:10" />
	<line
   stroke-miterlimit="10"
   x1="263"
   y1="483"
   x2="263"
   y2="489.5"
   id="line3584"
   style="fill:none;stroke:#454746;stroke-miterlimit:10" />
	<line
   stroke-miterlimit="10"
   x1="328"
   y1="483"
   x2="328"
   y2="489.5"
   id="line3586"
   style="fill:none;stroke:#454746;stroke-miterlimit:10" />
	<line
   stroke-miterlimit="10"
   x1="393"
   y1="483"
   x2="393"
   y2="489.5"
   id="line3588"
   style="fill:none;stroke:#454746;stroke-miterlimit:10" />
	<line
   stroke-miterlimit="10"
   x1="458"
   y1="483"
   x2="458"
   y2="489.5"
   id="line3590"
   style="fill:none;stroke:#454746;stroke-miterlimit:10" />
	<line
   stroke-miterlimit="10"
   x1="523"
   y1="483"
   x2="523"
   y2="489.5"
   id="line3592"
   style="fill:none;stroke:#454746;stroke-miterlimit:10" />
	<line
   stroke-miterlimit="10"
   x1="588"
   y1="483"
   x2="588"
   y2="489.5"
   id="line3594"
   style="fill:none;stroke:#454746;stroke-miterlimit:10" />
	<line
   stroke-miterlimit="10"
   x1="653"
   y1="483"
   x2="653"
   y2="489.5"
   id="line3596"
   style="fill:none;stroke:#454746;stroke-miterlimit:10" />
	<line
   stroke-miterlimit="10"
   x1="718"
   y1="483"
   x2="718"
   y2="489.5"
   id="line3598"
   style="fill:none;stroke:#454746;stroke-miterlimit:10" />
	<line
   stroke-miterlimit="10"
   x1="783"
   y1="483"
   x2="783"
   y2="489.5"
   id="line3600"
   style="fill:none;stroke:#454746;stroke-miterlimit:10" />
</g>
<path
   stroke-miterlimit="10"
   d="m 74,434.99999 c 195,-118 650,-147 650,-147"
   id="path3602"
   inkscape:connector-curvature="0"
   style="fill:none;stroke:#75b640;stroke-width:4;stroke-linecap:round;stroke-miterlimit:10" />
<g
   id="g3604"
   transform="translate(-59,-54.500006)">
	<g
   id="g3606">
		<path
   d="m 197.5,470.9 0,0 -1.9,1 -0.3,-1.5 2.5,-1.2 h 1.6 v 10.4 h -1.9 v -8.7 z"
   id="path3608"
   inkscape:connector-curvature="0"
   style="fill:#454746" />
	</g>
	<g
   id="g3610">
		<path
   d="m 259.4,479.5 v -1.2 l 1.2,-1.1 c 2.4,-2.3 3.6,-3.5 3.6,-4.9 0,-0.9 -0.5,-1.7 -1.9,-1.7 -0.9,0 -1.7,0.5 -2.2,0.9 l -0.6,-1.4 c 0.8,-0.6 1.9,-1.1 3.2,-1.1 2.3,0 3.4,1.5 3.4,3.2 0,1.8 -1.3,3.3 -3.1,5 l -0.9,0.8 v 0 h 4.3 v 1.6 h -7 z"
   id="path3612"
   inkscape:connector-curvature="0"
   style="fill:#454746" />
	</g>
	<g
   id="g3614">
		<path
   d="m 324.8,477.5 c 0.4,0.2 1.4,0.6 2.4,0.6 1.5,0 2.1,-0.8 2.1,-1.7 0,-1.2 -1.2,-1.8 -2.4,-1.8 H 326 v -1.4 h 0.9 c 0.9,0 2.1,-0.4 2.1,-1.5 0,-0.7 -0.5,-1.3 -1.7,-1.3 -0.8,0 -1.7,0.4 -2.1,0.7 l -0.4,-1.4 c 0.6,-0.4 1.7,-0.8 3,-0.8 2.1,0 3.2,1.2 3.2,2.5 0,1.1 -0.6,2 -1.9,2.4 v 0 c 1.3,0.2 2.3,1.2 2.3,2.6 0,1.8 -1.5,3.2 -4,3.2 -1.3,0 -2.4,-0.4 -2.9,-0.7 l 0.3,-1.4 z"
   id="path3616"
   inkscape:connector-curvature="0"
   style="fill:#454746" />
	</g>
	<g
   id="g3618">
		<path
   d="m 393.7,479.5 v -2.6 H 389 v -1.3 l 4.2,-6.5 h 2.3 v 6.3 h 1.3 v 1.5 h -1.3 v 2.6 h -1.8 z m 0,-4.1 v -2.8 c 0,-0.6 0,-1.2 0.1,-1.8 h -0.1 c -0.3,0.7 -0.6,1.2 -0.9,1.8 l -1.9,2.8 0,0 h 2.8 z"
   id="path3620"
   inkscape:connector-curvature="0"
   style="fill:#454746" />
	</g>
	<g
   id="g3622">
		<path
   d="m 461,470.7 h -4 l -0.3,2.1 c 0.2,0 0.4,0 0.8,0 0.9,0 1.8,0.2 2.5,0.7 0.8,0.5 1.4,1.4 1.4,2.6 0,2 -1.6,3.6 -4.2,3.6 -1.2,0 -2.2,-0.3 -2.8,-0.6 l 0.4,-1.5 c 0.4,0.2 1.3,0.5 2.3,0.5 1.2,0 2.3,-0.7 2.3,-1.9 0,-1.2 -0.9,-2 -3,-2 -0.6,0 -1,0 -1.4,0.1 l 0.7,-5.2 h 5.4 v 1.6 z"
   id="path3624"
   inkscape:connector-curvature="0"
   style="fill:#454746" />
	</g>
	<g
   id="g3626">
		<path
   d="m 525.7,470.5 c -0.3,0 -0.6,0 -1,0 -2.2,0.3 -3.2,1.6 -3.5,3 h 0 c 0.5,-0.6 1.3,-1 2.3,-1 1.8,0 3.2,1.3 3.2,3.4 0,2 -1.5,3.7 -3.7,3.7 -2.5,0 -3.9,-1.9 -3.9,-4.5 0,-2 0.7,-3.6 1.8,-4.7 1,-0.9 2.2,-1.4 3.7,-1.5 0.4,0 0.8,0 1,0 l 0.1,1.6 z m -0.9,5.6 c 0,-1.2 -0.7,-2.1 -1.8,-2.1 -0.7,0 -1.4,0.4 -1.7,1.1 -0.1,0.2 -0.1,0.4 -0.1,0.6 0,1.4 0.7,2.5 2,2.5 1,0 1.6,-0.9 1.6,-2.1 z"
   id="path3628"
   inkscape:connector-curvature="0"
   style="fill:#454746" />
	</g>
	<g
   id="g3630">
		<path
   d="m 591.6,469.1 v 1.3 l -4.4,9.1 h -2.1 l 4.4,-8.7 v 0 h -4.9 v -1.6 h 7 z"
   id="path3632"
   inkscape:connector-curvature="0"
   style="fill:#454746" />
	</g>
	<g
   id="g3634">
		<path
   d="m 649.3,476.8 c 0,-1.3 0.8,-2.2 2,-2.7 v 0 c -1.1,-0.5 -1.6,-1.4 -1.6,-2.3 0,-1.7 1.5,-2.8 3.5,-2.8 2.2,0 3.3,1.3 3.3,2.6 0,0.9 -0.5,1.8 -1.6,2.4 v 0 c 1.1,0.4 2,1.3 2,2.6 0,1.9 -1.6,3.1 -3.8,3.1 -2.6,0 -3.8,-1.4 -3.8,-2.9 z m 5.4,-0.1 c 0,-1.1 -0.8,-1.6 -1.9,-2 -1,0.3 -1.5,1 -1.5,1.8 0,0.9 0.6,1.7 1.7,1.7 1.1,0.1 1.7,-0.6 1.7,-1.5 z m -3.2,-5 c 0,0.8 0.7,1.4 1.7,1.6 0.7,-0.2 1.3,-0.8 1.3,-1.6 0,-0.7 -0.4,-1.5 -1.5,-1.5 -1,0.1 -1.5,0.7 -1.5,1.5 z"
   id="path3636"
   inkscape:connector-curvature="0"
   style="fill:#454746" />
	</g>
	<g
   id="g3638">
		<path
   d="m 715.2,478.1 c 0.3,0 0.6,0 1.1,0 0.8,-0.1 1.5,-0.3 2.1,-0.8 0.7,-0.5 1.1,-1.3 1.3,-2.3 l 0,0 c -0.5,0.6 -1.3,0.9 -2.3,0.9 -1.8,0 -3.2,-1.3 -3.2,-3.2 0,-2 1.5,-3.7 3.8,-3.7 2.4,0 3.7,1.9 3.7,4.4 0,2.2 -0.7,3.8 -1.8,4.8 -0.9,0.8 -2.2,1.3 -3.6,1.4 -0.4,0 -0.9,0 -1.2,0 v -1.5 z m 1,-5.6 c 0,1.1 0.6,1.9 1.7,1.9 0.8,0 1.4,-0.4 1.7,-0.9 0.1,-0.1 0.1,-0.3 0.1,-0.6 0,-1.4 -0.5,-2.6 -1.8,-2.6 -1,0.1 -1.7,1 -1.7,2.2 z"
   id="path3640"
   inkscape:connector-curvature="0"
   style="fill:#454746" />
	</g>
</g>
<g
   id="g3642"
   transform="translate(-59,-54.500006)">
	<g
   id="g3644">
		<g
   id="g3646">
			<path
   d="m 152.4,441.7 c 0,3.3 -1.3,5.4 -3.8,5.4 -2.4,0 -3.7,-2.2 -3.7,-5.3 0,-3.2 1.4,-5.4 3.8,-5.4 2.5,0 3.7,2.3 3.7,5.3 z m -5.5,0.1 c 0,2.5 0.7,3.8 1.8,3.8 1.2,0 1.8,-1.4 1.8,-3.9 0,-2.4 -0.6,-3.8 -1.8,-3.8 -1.1,0 -1.9,1.3 -1.8,3.9 z"
   id="path3648"
   inkscape:connector-curvature="0"
   style="fill:#454746" />
			<path
   d="m 153,448.9 c 0.4,-1.2 0.9,-2.9 1.1,-4.2 l 2.1,-0.2 c -0.4,1.5 -1.2,3.2 -1.8,4.3 l -1.4,0.1 z"
   id="path3650"
   inkscape:connector-curvature="0"
   style="fill:#454746" />
			<path
   d="m 164,438.2 h -4 l -0.3,2.1 c 0.2,0 0.4,0 0.8,0 0.9,0 1.8,0.2 2.5,0.7 0.8,0.5 1.4,1.4 1.4,2.6 0,2 -1.6,3.6 -4.2,3.6 -1.2,0 -2.2,-0.3 -2.8,-0.6 l 0.4,-1.5 c 0.4,0.2 1.3,0.5 2.3,0.5 1.2,0 2.3,-0.7 2.3,-1.9 0,-1.2 -0.9,-2 -3,-2 -0.6,0 -1,0 -1.4,0.1 l 0.7,-5.2 h 5.4 v 1.6 z"
   id="path3652"
   inkscape:connector-curvature="0"
   style="fill:#454746" />
		</g>
	</g>
	<g
   id="g3654">
		<g
   id="g3656">
			<path
   d="m 148.1,390.9 0,0 -1.9,1 -0.3,-1.5 2.5,-1.2 h 1.6 v 10.4 h -1.9 v -8.7 z"
   id="path3658"
   inkscape:connector-curvature="0"
   style="fill:#454746" />
		</g>
	</g>
	<g
   id="g3660">
		<g
   id="g3662">
			<path
   d="m 148.1,343.4 0,0 -1.9,1 -0.3,-1.5 2.5,-1.2 H 150 V 352 h -1.9 v -8.6 z"
   id="path3664"
   inkscape:connector-curvature="0"
   style="fill:#454746" />
			<path
   d="m 153,353.9 c 0.4,-1.2 0.9,-2.9 1.1,-4.2 l 2.1,-0.2 c -0.4,1.5 -1.2,3.2 -1.8,4.3 l -1.4,0.1 z"
   id="path3666"
   inkscape:connector-curvature="0"
   style="fill:#454746" />
			<path
   d="m 164,343.2 h -4 l -0.3,2.1 c 0.2,0 0.4,0 0.8,0 0.9,0 1.8,0.2 2.5,0.7 0.8,0.5 1.4,1.4 1.4,2.6 0,2 -1.6,3.6 -4.2,3.6 -1.2,0 -2.2,-0.3 -2.8,-0.6 l 0.4,-1.5 c 0.4,0.2 1.3,0.5 2.3,0.5 1.2,0 2.3,-0.7 2.3,-1.9 0,-1.2 -0.9,-2 -3,-2 -0.6,0 -1,0 -1.4,0.1 l 0.7,-5.2 h 5.4 v 1.6 z"
   id="path3668"
   inkscape:connector-curvature="0"
   style="fill:#454746" />
		</g>
	</g>
	<g
   id="g3670">
		<g
   id="g3672">
			<path
   d="m 145,304.5 v -1.2 l 1.2,-1.1 c 2.4,-2.3 3.6,-3.5 3.6,-4.9 0,-0.9 -0.5,-1.7 -1.9,-1.7 -0.9,0 -1.7,0.5 -2.2,0.9 l -0.6,-1.4 c 0.8,-0.6 1.9,-1.1 3.2,-1.1 2.3,0 3.4,1.5 3.4,3.2 0,1.8 -1.3,3.3 -3.1,5 l -0.9,0.8 v 0 h 4.3 v 1.6 h -7 z"
   id="path3674"
   inkscape:connector-curvature="0"
   style="fill:#454746" />
		</g>
	</g>
	<g
   id="g3676">
		<g
   id="g3678">
			<path
   d="m 145,257 v -1.2 l 1.2,-1.1 c 2.4,-2.3 3.6,-3.5 3.6,-4.9 0,-0.9 -0.5,-1.7 -1.9,-1.7 -0.9,0 -1.7,0.5 -2.2,0.9 l -0.6,-1.4 c 0.8,-0.6 1.9,-1.1 3.2,-1.1 2.3,0 3.4,1.5 3.4,3.2 0,1.8 -1.3,3.3 -3.1,5 l -0.9,0.8 v 0 h 4.3 v 1.6 h -7 z"
   id="path3680"
   inkscape:connector-curvature="0"
   style="fill:#454746" />
			<path
   d="m 153,258.9 c 0.4,-1.2 0.9,-2.9 1.1,-4.2 l 2.1,-0.2 c -0.4,1.5 -1.2,3.2 -1.8,4.3 l -1.4,0.1 z"
   id="path3682"
   inkscape:connector-curvature="0"
   style="fill:#454746" />
			<path
   d="m 164,248.2 h -4 l -0.3,2.1 c 0.2,0 0.4,0 0.8,0 0.9,0 1.8,0.2 2.5,0.7 0.8,0.5 1.4,1.4 1.4,2.6 0,2 -1.6,3.6 -4.2,3.6 -1.2,0 -2.2,-0.3 -2.8,-0.6 l 0.4,-1.5 c 0.4,0.2 1.3,0.5 2.3,0.5 1.2,0 2.3,-0.7 2.3,-1.9 0,-1.2 -0.9,-2 -3,-2 -0.6,0 -1,0 -1.4,0.1 l 0.7,-5.2 h 5.4 v 1.6 z"
   id="path3684"
   inkscape:connector-curvature="0"
   style="fill:#454746" />
		</g>
	</g>
	<g
   id="g3686">
		<g
   id="g3688">
			<path
   d="m 145.4,207.5 c 0.4,0.2 1.4,0.6 2.4,0.6 1.5,0 2.1,-0.8 2.1,-1.7 0,-1.2 -1.2,-1.8 -2.4,-1.8 h -0.9 v -1.4 h 0.9 c 0.9,0 2.1,-0.4 2.1,-1.5 0,-0.7 -0.5,-1.3 -1.7,-1.3 -0.8,0 -1.7,0.4 -2.1,0.7 l -0.4,-1.4 c 0.6,-0.4 1.7,-0.8 3,-0.8 2.1,0 3.2,1.2 3.2,2.5 0,1.1 -0.6,2 -1.9,2.4 v 0 c 1.3,0.2 2.3,1.2 2.3,2.6 0,1.8 -1.5,3.2 -4,3.2 -1.3,0 -2.4,-0.4 -2.9,-0.7 l 0.3,-1.4 z"
   id="path3690"
   inkscape:connector-curvature="0"
   style="fill:#454746" />
		</g>
	</g>
	<g
   id="g3692">
		<g
   id="g3694">
			<path
   d="m 145.4,160 c 0.4,0.2 1.4,0.6 2.4,0.6 1.5,0 2.1,-0.8 2.1,-1.7 0,-1.2 -1.2,-1.8 -2.4,-1.8 h -0.9 v -1.4 h 0.9 c 0.9,0 2.1,-0.4 2.1,-1.5 0,-0.7 -0.5,-1.3 -1.7,-1.3 -0.8,0 -1.7,0.4 -2.1,0.7 l -0.4,-1.4 c 0.6,-0.4 1.7,-0.8 3,-0.8 2.1,0 3.2,1.2 3.2,2.5 0,1.1 -0.6,2 -1.9,2.4 v 0 c 1.3,0.2 2.3,1.2 2.3,2.6 0,1.8 -1.5,3.2 -4,3.2 -1.3,0 -2.4,-0.4 -2.9,-0.7 l 0.3,-1.4 z"
   id="path3696"
   inkscape:connector-curvature="0"
   style="fill:#454746" />
			<path
   d="m 153,163.9 c 0.4,-1.2 0.9,-2.9 1.1,-4.2 l 2.1,-0.2 c -0.4,1.5 -1.2,3.2 -1.8,4.3 l -1.4,0.1 z"
   id="path3698"
   inkscape:connector-curvature="0"
   style="fill:#454746" />
			<path
   d="m 164,153.2 h -4 l -0.3,2.1 c 0.2,0 0.4,0 0.8,0 0.9,0 1.8,0.2 2.5,0.7 0.8,0.5 1.4,1.4 1.4,2.6 0,2 -1.6,3.6 -4.2,3.6 -1.2,0 -2.2,-0.3 -2.8,-0.6 l 0.4,-1.5 c 0.4,0.2 1.3,0.5 2.3,0.5 1.2,0 2.3,-0.7 2.3,-1.9 0,-1.2 -0.9,-2 -3,-2 -0.6,0 -1,0 -1.4,0.1 l 0.7,-5.2 h 5.4 v 1.6 z"
   id="path3700"
   inkscape:connector-curvature="0"
   style="fill:#454746" />
		</g>
	</g>
</g>
<path
   stroke-miterlimit="10"
   d="m 74,434.99999 c 33,-253 650,-285 650,-285"
   id="path3702"
   inkscape:connector-curvature="0"
   style="fill:none;stroke:#75b640;stroke-width:4;stroke-linecap:round;stroke-miterlimit:10" />
<rect
   x="420.5"
   y="112.49999"
   width="24.5"
   height="29"
   id="rect3704"
   style="fill:#fcf37e" />
<rect
   x="393.5"
   y="351"
   width="53"
   height="29"
   id="rect3706"
   style="fill:#fcf37e" />
<g
   id="g3708"
   transform="translate(-59,-54.500006)">
	<g
   id="g3710">
		<path
   d="m 215.9,177.5 c 1.6,0 2.9,0.6 3.8,1.7 0.9,1.1 1.4,2.6 1.4,4.4 0,1.8 -0.5,3.3 -1.4,4.5 -0.9,1.2 -2.2,1.7 -3.8,1.7 -1.6,0 -2.9,-0.6 -3.8,-1.7 -0.9,-1.1 -1.4,-2.6 -1.4,-4.5 0,-1.8 0.5,-3.3 1.4,-4.4 0.9,-1.1 2.2,-1.7 3.8,-1.7 z m 0,10.8 c 1.1,0 1.9,-0.4 2.5,-1.3 0.6,-0.9 0.9,-2 0.9,-3.3 0,-1.3 -0.3,-2.5 -0.9,-3.3 -0.6,-0.9 -1.4,-1.3 -2.5,-1.3 -1.1,0 -1.9,0.4 -2.5,1.3 -0.6,0.9 -0.9,2 -0.9,3.3 0,1.3 0.3,2.4 0.9,3.3 0.6,0.8 1.4,1.3 2.5,1.3 z"
   id="path3712"
   inkscape:connector-curvature="0"
   style="fill:#454746" />
		<path
   d="m 233.4,189.5 h -4.8 v -14.3 h -3.1 v -1.5 h 4.8 V 188 h 3 v 1.5 z"
   id="path3714"
   inkscape:connector-curvature="0"
   style="fill:#454746" />
		<path
   d="m 248,189.5 h -1.8 v -1.7 c -0.4,0.6 -0.9,1.1 -1.5,1.4 -0.6,0.3 -1.4,0.6 -2.1,0.6 -1.3,0 -2.4,-0.6 -3.2,-1.8 -0.8,-1.2 -1.2,-2.7 -1.2,-4.5 0,-1.7 0.4,-3.1 1.2,-4.3 0.8,-1.1 1.9,-1.7 3.2,-1.7 1.5,0 2.7,0.6 3.6,1.8 v -5.7 h 1.8 v 15.9 z m -1.8,-3.6 V 181 c -0.8,-1.3 -1.8,-2 -3,-2 -1,0 -1.7,0.4 -2.3,1.3 -0.6,0.9 -0.8,1.9 -0.8,3.3 0,1.3 0.3,2.5 0.8,3.3 0.5,0.9 1.3,1.3 2.2,1.3 0.4,0 0.9,-0.1 1.3,-0.4 0.4,-0.3 0.9,-0.6 1.3,-1.1 0.3,-0.4 0.5,-0.7 0.5,-0.8 z"
   id="path3716"
   inkscape:connector-curvature="0"
   style="fill:#454746" />
		<path
   d="M 264.2,194.5 H 250.4 V 193 h 13.8 v 1.5 z"
   id="path3718"
   inkscape:connector-curvature="0"
   style="fill:#454746" />
		<path
   d="m 274.4,179.5 c -1,-0.3 -1.9,-0.5 -2.8,-0.5 -1,0 -1.7,0.2 -2.3,0.5 -0.6,0.3 -0.8,0.7 -0.8,1.3 0,0.3 0.1,0.6 0.4,0.9 0.3,0.3 0.8,0.5 1.5,0.7 l 1.7,0.5 c 0.8,0.2 1.4,0.5 1.9,0.8 0.5,0.3 0.9,0.7 1.1,1.1 0.2,0.4 0.4,0.9 0.4,1.5 0,1.1 -0.5,2 -1.4,2.6 -0.9,0.6 -2.1,1 -3.6,1 -1.4,0 -2.6,-0.2 -3.6,-0.7 l 0.3,-1.5 c 1,0.5 2,0.7 3.2,0.7 1,0 1.8,-0.2 2.4,-0.5 0.6,-0.4 0.9,-0.8 0.9,-1.4 0,-0.4 -0.2,-0.8 -0.5,-1.1 -0.3,-0.3 -1,-0.6 -2.1,-1 -0.9,-0.3 -1.6,-0.5 -2,-0.6 -0.4,-0.1 -0.8,-0.3 -1.2,-0.6 -0.4,-0.3 -0.6,-0.6 -0.8,-1 -0.2,-0.4 -0.3,-0.8 -0.3,-1.3 0,-1 0.4,-1.8 1.3,-2.4 0.9,-0.6 2.1,-0.9 3.5,-0.9 0.9,0 2,0.2 3.1,0.5 l -0.3,1.4 z"
   id="path3720"
   inkscape:connector-curvature="0"
   style="fill:#454746" />
		<path
   d="m 289.4,189.1 c -1,0.5 -2.1,0.7 -3.4,0.7 -1.8,0 -3.3,-0.6 -4.4,-1.7 -1.1,-1.1 -1.6,-2.6 -1.6,-4.5 0,-1.9 0.6,-3.3 1.7,-4.5 1.1,-1.1 2.6,-1.7 4.4,-1.7 1.2,0 2.3,0.2 3.4,0.6 l -0.5,1.4 c -1.1,-0.4 -2,-0.6 -2.9,-0.6 -1.3,0 -2.3,0.4 -3.1,1.2 -0.8,0.8 -1.1,2 -1.1,3.4 0,1.3 0.4,2.4 1.2,3.3 0.8,0.9 1.8,1.3 3,1.3 1,0 2,-0.2 3.1,-0.6 l 0.2,1.7 z"
   id="path3722"
   inkscape:connector-curvature="0"
   style="fill:#454746" />
		<path
   d="m 298.7,177.5 c 1.6,0 2.9,0.6 3.8,1.7 0.9,1.1 1.4,2.6 1.4,4.4 0,1.8 -0.5,3.3 -1.4,4.5 -0.9,1.2 -2.2,1.7 -3.8,1.7 -1.6,0 -2.9,-0.6 -3.8,-1.7 -0.9,-1.1 -1.4,-2.6 -1.4,-4.5 0,-1.8 0.5,-3.3 1.4,-4.4 0.9,-1.1 2.2,-1.7 3.8,-1.7 z m 0,10.8 c 1.1,0 1.9,-0.4 2.5,-1.3 0.6,-0.9 0.9,-2 0.9,-3.3 0,-1.3 -0.3,-2.5 -0.9,-3.3 -0.6,-0.9 -1.4,-1.3 -2.5,-1.3 -1.1,0 -1.9,0.4 -2.5,1.3 -0.6,0.9 -0.9,2 -0.9,3.3 0,1.3 0.3,2.4 0.9,3.3 0.6,0.8 1.4,1.3 2.5,1.3 z"
   id="path3724"
   inkscape:connector-curvature="0"
   style="fill:#454746" />
		<path
   d="m 317.2,178.1 -0.7,1.7 c -0.8,-0.3 -1.4,-0.5 -2,-0.5 -0.5,0 -1,0.1 -1.5,0.4 -0.5,0.3 -0.9,0.7 -1.4,1.3 -0.4,0.6 -0.6,0.9 -0.6,0.9 v 7.6 h -1.7 v -11.7 h 1.7 v 2.4 c 0.9,-1.8 2.1,-2.7 3.6,-2.7 0.9,0 1.8,0.2 2.6,0.6 z"
   id="path3726"
   inkscape:connector-curvature="0"
   style="fill:#454746" />
		<path
   d="m 331.2,183.7 h -8 c 0,1.3 0.4,2.4 1.2,3.3 0.8,0.9 1.7,1.3 2.8,1.3 1.1,0 2.2,-0.2 3.3,-0.6 l 0.3,1.4 c -1,0.5 -2.2,0.7 -3.6,0.7 -1.7,0 -3.1,-0.6 -4.2,-1.7 -1.1,-1.1 -1.6,-2.6 -1.6,-4.5 0,-1.9 0.5,-3.3 1.4,-4.4 1,-1.1 2.2,-1.7 3.7,-1.7 1.3,0 2.5,0.5 3.4,1.5 0.9,1 1.4,2.4 1.4,4.1 v 0.6 z m -1.9,-1.4 c 0,-0.9 -0.3,-1.7 -0.9,-2.3 -0.6,-0.6 -1.2,-0.9 -1.9,-0.9 -0.9,0 -1.7,0.3 -2.3,0.9 -0.6,0.6 -0.9,1.4 -1,2.3 h 6.1 z"
   id="path3728"
   inkscape:connector-curvature="0"
   style="fill:#454746" />
		<path
   d="m 357.9,179.9 -0.7,1.1 -2.7,-1.8 v 3.2 h -1.2 v -3.2 l -2.7,1.8 -0.7,-1.1 2.8,-1.8 -2.8,-1.8 0.7,-1.1 2.7,1.8 v -3.2 h 1.2 v 3.2 l 2.7,-1.8 0.7,1.1 -2.8,1.8 2.8,1.8 z"
   id="path3730"
   inkscape:connector-curvature="0"
   style="fill:#454746" />
		<path
   d="m 385.2,189.5 h -4.8 v -14.3 h -3.1 v -1.5 h 4.8 V 188 h 3 v 1.5 z"
   id="path3732"
   inkscape:connector-curvature="0"
   style="fill:#454746" />
		<path
   d="m 395.3,177.5 c 1.6,0 2.9,0.6 3.8,1.7 0.9,1.1 1.4,2.6 1.4,4.4 0,1.8 -0.5,3.3 -1.4,4.5 -0.9,1.2 -2.2,1.7 -3.8,1.7 -1.6,0 -2.9,-0.6 -3.8,-1.7 -0.9,-1.1 -1.4,-2.6 -1.4,-4.5 0,-1.8 0.5,-3.3 1.4,-4.4 0.9,-1.1 2.2,-1.7 3.8,-1.7 z m 0,10.8 c 1.1,0 1.9,-0.4 2.5,-1.3 0.6,-0.9 0.9,-2 0.9,-3.3 0,-1.3 -0.3,-2.5 -0.9,-3.3 -0.6,-0.9 -1.4,-1.3 -2.5,-1.3 -1.1,0 -1.9,0.4 -2.5,1.3 -0.6,0.9 -0.9,2 -0.9,3.3 0,1.3 0.3,2.4 0.9,3.3 0.6,0.8 1.5,1.3 2.5,1.3 z"
   id="path3734"
   inkscape:connector-curvature="0"
   style="fill:#454746" />
		<path
   d="m 407.9,185.1 c -1.1,0.5 -1.6,1 -1.6,1.4 0,0.2 0.1,0.4 0.4,0.6 0.3,0.2 0.6,0.2 1,0.2 l 3.9,-0.1 c 0.9,0 1.7,0.2 2.2,0.7 0.5,0.5 0.8,1.1 0.8,1.9 0,1.3 -0.6,2.4 -1.8,3.2 -1.2,0.8 -2.6,1.2 -4.1,1.2 -1.3,0 -2.4,-0.3 -3.2,-0.8 -0.8,-0.5 -1.2,-1.2 -1.2,-2.1 0,-0.9 0.6,-1.7 1.9,-2.4 -1.1,-0.5 -1.6,-1.1 -1.6,-1.8 0,-0.8 0.7,-1.6 2,-2.3 -0.6,-0.4 -1.1,-0.9 -1.4,-1.5 -0.3,-0.6 -0.5,-1.2 -0.5,-1.9 0,-1.1 0.4,-2 1.1,-2.7 0.7,-0.7 1.7,-1.1 2.8,-1.1 0.8,0 1.5,0.2 2.2,0.5 l 3.5,-0.5 v 1.7 H 412 c 0.3,0.6 0.5,1.3 0.5,2.1 0,1.1 -0.4,2 -1.1,2.7 -0.7,0.7 -1.7,1.1 -2.8,1.1 -0.3,-0.1 -0.5,-0.1 -0.7,-0.1 z m 0.7,7.7 c 1.2,0 2.1,-0.3 2.9,-0.8 0.8,-0.5 1.2,-1.1 1.2,-1.9 0,-0.8 -0.6,-1.2 -1.7,-1.2 -0.4,0 -1,0 -2,0.1 -0.6,0 -1.1,0 -1.4,0 -0.2,0 -0.4,0.1 -0.8,0.4 -0.3,0.3 -0.6,0.5 -0.8,0.8 -0.2,0.3 -0.3,0.6 -0.3,0.8 0,0.5 0.3,0.8 0.8,1.2 0.6,0.4 1.3,0.6 2.1,0.6 z m 0,-9 c 0.6,0 1.2,-0.2 1.6,-0.7 0.4,-0.4 0.6,-1 0.6,-1.7 0,-0.8 -0.2,-1.3 -0.6,-1.8 -0.4,-0.4 -0.9,-0.6 -1.6,-0.6 -0.6,0 -1.1,0.2 -1.6,0.7 -0.4,0.4 -0.6,1 -0.6,1.7 0,0.7 0.2,1.3 0.6,1.7 0.4,0.4 1,0.7 1.6,0.7 z"
   id="path3736"
   inkscape:connector-curvature="0"
   style="fill:#454746" />
		<path
   d="m 426.8,191.8 -0.7,1 c -1.7,-1.3 -2.9,-2.7 -3.8,-4.4 -0.9,-1.7 -1.3,-3.4 -1.3,-5.3 0,-1.9 0.4,-3.7 1.3,-5.3 0.9,-1.7 2.1,-3.1 3.8,-4.4 l 0.7,1 c -1.4,1.2 -2.4,2.5 -3,3.9 -0.6,1.3 -0.9,3 -0.9,4.9 0,2 0.3,3.6 0.9,5 0.7,1.2 1.7,2.4 3,3.6 z"
   id="path3738"
   inkscape:connector-curvature="0"
   style="fill:#454746" />
		<path
   d="M 441.3,189.5 H 433 v -1.6 h 3.4 v -12.3 l -3.2,1.6 v -1.8 l 3.4,-1.8 h 1.6 v 14.3 h 3.1 v 1.6 z"
   id="path3740"
   inkscape:connector-curvature="0"
   style="fill:#454746" />
		<path
   d="m 469.6,182.1 h -4.5 v 4.6 h -1.5 v -4.6 H 459 v -1.5 h 4.6 V 176 h 1.5 v 4.6 h 4.5 v 1.5 z"
   id="path3742"
   inkscape:connector-curvature="0"
   style="fill:#454746" />
		<path
   d="m 492.9,181 c 1,0.3 1.7,0.8 2.3,1.5 0.6,0.7 0.9,1.5 0.9,2.4 0,1.4 -0.5,2.6 -1.6,3.5 -1.1,0.9 -2.4,1.4 -3.8,1.4 -1.3,0 -2.4,-0.3 -3.4,-0.8 l 0.4,-1.5 c 1,0.5 2.1,0.7 3.1,0.7 1,0 1.8,-0.3 2.5,-0.9 0.7,-0.6 1,-1.4 1,-2.3 0,-0.9 -0.4,-1.7 -1.1,-2.2 -0.7,-0.5 -1.7,-0.9 -2.9,-0.9 h -0.5 v -1.5 h 0.1 c 1.2,0 2.1,-0.3 2.9,-0.8 0.7,-0.5 1.1,-1.3 1.1,-2.2 0,-0.7 -0.3,-1.3 -0.8,-1.8 -0.5,-0.4 -1.3,-0.6 -2.2,-0.6 -0.8,0 -1.7,0.2 -2.7,0.7 l -0.2,-1.6 c 1,-0.5 2,-0.7 3.1,-0.7 1.4,0 2.6,0.4 3.5,1.1 0.9,0.7 1.4,1.7 1.4,2.9 0,0.8 -0.3,1.6 -0.8,2.3 -0.8,0.6 -1.5,1 -2.3,1.3 l 0,0 z"
   id="path3744"
   inkscape:connector-curvature="0"
   style="fill:#454746" />
		<path
   d="m 523.5,179.9 -0.7,1.1 -2.7,-1.8 v 3.2 h -1.2 v -3.2 l -2.7,1.8 -0.7,-1.1 2.8,-1.8 -2.8,-1.8 0.7,-1.1 2.7,1.8 v -3.2 h 1.2 v 3.2 l 2.7,-1.8 0.7,1.1 -2.8,1.8 2.8,1.8 z"
   id="path3746"
   inkscape:connector-curvature="0"
   style="fill:#454746" />
		<path
   d="m 551.7,189.5 h -1.8 V 182 c 0,-1 -0.2,-1.8 -0.5,-2.3 -0.3,-0.5 -0.9,-0.7 -1.6,-0.7 -1.1,0 -2.2,0.7 -3.4,2 v 8.5 h -1.8 v -11.7 h 1.8 v 1.7 c 1.3,-1.3 2.6,-2 4,-2 2.2,0 3.3,1.3 3.3,4 v 8 z"
   id="path3748"
   inkscape:connector-curvature="0"
   style="fill:#454746" />
		<path
   d="m 565.5,189.5 h -1.8 v -1.7 c -1.3,1.3 -2.6,2 -4,2 -2.2,0 -3.3,-1.3 -3.3,-4 v -8 h 1.8 v 7.5 c 0,1 0.2,1.7 0.5,2.2 0.3,0.5 0.8,0.7 1.6,0.7 1.1,0 2.2,-0.7 3.4,-2 v -8.5 h 1.8 v 11.8 z"
   id="path3750"
   inkscape:connector-curvature="0"
   style="fill:#454746" />
		<path
   d="m 580.2,189.5 h -1.8 v -7.7 c 0,-1.9 -0.3,-2.8 -1,-2.8 -0.4,0 -0.7,0.3 -1.2,1 -0.4,0.6 -0.6,1 -0.6,1.1 v 8.4 h -1.7 v -7.7 c 0,-1.9 -0.3,-2.8 -1,-2.8 -0.3,0 -0.7,0.3 -1.2,1 -0.4,0.6 -0.6,1 -0.6,1.1 v 8.4 h -1.8 v -11.7 h 1.7 v 1.8 c 0.3,-0.6 0.7,-1.1 1.2,-1.5 0.5,-0.4 0.9,-0.6 1.4,-0.6 0.5,0 0.9,0.2 1.3,0.6 0.4,0.4 0.6,0.9 0.8,1.5 0.3,-0.6 0.7,-1.1 1.2,-1.5 0.5,-0.4 0.9,-0.6 1.3,-0.6 1.4,0 2.1,1.3 2.1,3.8 v 8.2 z"
   id="path3752"
   inkscape:connector-curvature="0"
   style="fill:#454746" />
		<path
   d="m 585.8,179.3 c 0.4,-0.5 0.9,-1 1.6,-1.3 0.7,-0.3 1.4,-0.5 2.1,-0.5 1.4,0 2.4,0.5 3.2,1.6 0.8,1.1 1.1,2.5 1.1,4.3 0,1.8 -0.4,3.3 -1.2,4.5 -0.8,1.2 -1.9,1.8 -3.2,1.8 -0.7,0 -1.4,-0.2 -2,-0.5 -0.6,-0.4 -1.1,-0.8 -1.5,-1.4 v 1.7 h -1.8 v -15.8 h 1.8 v 5.6 z m 0,1.8 v 4.9 c 0.3,0.7 0.8,1.2 1.3,1.7 0.5,0.5 1.1,0.7 1.7,0.7 0.9,0 1.7,-0.4 2.3,-1.3 0.6,-0.9 0.8,-2 0.8,-3.3 0,-1.3 -0.3,-2.4 -0.8,-3.3 -0.5,-0.8 -1.3,-1.3 -2.2,-1.3 -1.2,-0.2 -2.2,0.5 -3.1,1.9 z"
   id="path3754"
   inkscape:connector-curvature="0"
   style="fill:#454746" />
		<path
   d="m 607.2,183.7 h -8 c 0,1.3 0.4,2.4 1.2,3.3 0.8,0.9 1.7,1.3 2.8,1.3 1.1,0 2.2,-0.2 3.3,-0.6 l 0.3,1.4 c -1,0.5 -2.2,0.7 -3.6,0.7 -1.7,0 -3.1,-0.6 -4.2,-1.7 -1.1,-1.1 -1.6,-2.6 -1.6,-4.5 0,-1.9 0.5,-3.3 1.4,-4.4 1,-1.1 2.2,-1.7 3.7,-1.7 1.3,0 2.5,0.5 3.4,1.5 0.9,1 1.4,2.4 1.4,4.1 v 0.6 z m -1.9,-1.4 c 0,-0.9 -0.3,-1.7 -0.9,-2.3 -0.6,-0.6 -1.2,-0.9 -1.9,-0.9 -0.9,0 -1.7,0.3 -2.3,0.9 -0.6,0.6 -0.9,1.4 -1,2.3 h 6.1 z"
   id="path3756"
   inkscape:connector-curvature="0"
   style="fill:#454746" />
		<path
   d="m 620.9,178.1 -0.7,1.7 c -0.8,-0.3 -1.4,-0.5 -2,-0.5 -0.5,0 -1,0.1 -1.5,0.4 -0.5,0.3 -0.9,0.7 -1.4,1.3 -0.4,0.6 -0.6,0.9 -0.6,0.9 v 7.6 H 613 v -11.7 h 1.7 v 2.4 c 0.9,-1.8 2.1,-2.7 3.6,-2.7 0.9,0 1.7,0.2 2.6,0.6 z"
   id="path3758"
   inkscape:connector-curvature="0"
   style="fill:#454746" />
		<path
   d="M 636.9,194.5 H 623.1 V 193 h 13.8 v 1.5 z"
   id="path3760"
   inkscape:connector-curvature="0"
   style="fill:#454746" />
		<path
   d="m 643.8,177.5 c 1.6,0 2.9,0.6 3.8,1.7 0.9,1.1 1.4,2.6 1.4,4.4 0,1.8 -0.5,3.3 -1.4,4.5 -0.9,1.2 -2.2,1.7 -3.8,1.7 -1.6,0 -2.9,-0.6 -3.8,-1.7 -0.9,-1.1 -1.4,-2.6 -1.4,-4.5 0,-1.8 0.5,-3.3 1.4,-4.4 0.9,-1.1 2.2,-1.7 3.8,-1.7 z m 0,10.8 c 1.1,0 1.9,-0.4 2.5,-1.3 0.6,-0.9 0.9,-2 0.9,-3.3 0,-1.3 -0.3,-2.5 -0.9,-3.3 -0.6,-0.9 -1.4,-1.3 -2.5,-1.3 -1.1,0 -1.9,0.4 -2.5,1.3 -0.6,0.9 -0.9,2 -0.9,3.3 0,1.3 0.3,2.4 0.9,3.3 0.6,0.8 1.4,1.3 2.5,1.3 z"
   id="path3762"
   inkscape:connector-curvature="0"
   style="fill:#454746" />
		<path
   d="m 662.2,173.8 -0.5,1.4 c -0.8,-0.2 -1.6,-0.4 -2.2,-0.4 -0.6,0 -1.1,0.2 -1.3,0.5 -0.2,0.4 -0.4,1.1 -0.4,2.2 v 0.2 h 3.9 v 1.5 h -3.9 v 10.2 H 656 v -10.2 h -2.9 v -1.5 h 2.9 v -0.4 c 0,-1.5 0.3,-2.5 0.8,-3.1 0.5,-0.6 1.4,-0.9 2.6,-0.9 0.9,0.1 1.8,0.2 2.8,0.5 z"
   id="path3764"
   inkscape:connector-curvature="0"
   style="fill:#454746" />
		<path
   d="M 678.3,194.5 H 664.5 V 193 h 13.8 v 1.5 z"
   id="path3766"
   inkscape:connector-curvature="0"
   style="fill:#454746" />
		<path
   d="m 690.2,177.8 -4.4,11.7 h -1.6 l -4.4,-11.7 h 1.9 l 3.3,9.3 3.3,-9.3 h 1.9 z"
   id="path3768"
   inkscape:connector-curvature="0"
   style="fill:#454746" />
		<path
   d="m 699,177.5 c 1.6,0 2.9,0.6 3.8,1.7 0.9,1.1 1.4,2.6 1.4,4.4 0,1.8 -0.5,3.3 -1.4,4.5 -0.9,1.2 -2.2,1.7 -3.8,1.7 -1.6,0 -2.9,-0.6 -3.8,-1.7 -0.9,-1.1 -1.4,-2.6 -1.4,-4.5 0,-1.8 0.5,-3.3 1.4,-4.4 0.9,-1.1 2.2,-1.7 3.8,-1.7 z m 0,10.8 c 1.1,0 1.9,-0.4 2.5,-1.3 0.6,-0.9 0.9,-2 0.9,-3.3 0,-1.3 -0.3,-2.5 -0.9,-3.3 -0.6,-0.9 -1.4,-1.3 -2.5,-1.3 -1.1,0 -1.9,0.4 -2.5,1.3 -0.6,0.9 -0.9,2 -0.9,3.3 0,1.3 0.3,2.4 0.9,3.3 0.6,0.8 1.4,1.3 2.5,1.3 z"
   id="path3770"
   inkscape:connector-curvature="0"
   style="fill:#454746" />
		<path
   d="m 717.4,189 c -1.2,0.5 -2.3,0.8 -3.5,0.8 -2.1,0 -3.1,-1.1 -3.1,-3.3 v -7.2 h -2.2 v -1.5 h 2.2 v -3.2 h 1.7 v 3.2 h 4 v 1.5 h -4 v 6.7 c 0,0.7 0.2,1.3 0.5,1.7 0.3,0.4 0.7,0.6 1.3,0.6 1,0 1.9,-0.2 2.8,-0.6 l 0.3,1.3 z"
   id="path3772"
   inkscape:connector-curvature="0"
   style="fill:#454746" />
		<path
   d="m 731.5,183.7 h -8 c 0,1.3 0.4,2.4 1.2,3.3 0.8,0.9 1.7,1.3 2.8,1.3 1.1,0 2.2,-0.2 3.3,-0.6 l 0.3,1.4 c -1,0.5 -2.2,0.7 -3.6,0.7 -1.7,0 -3.1,-0.6 -4.2,-1.7 -1.1,-1.1 -1.6,-2.6 -1.6,-4.5 0,-1.9 0.5,-3.3 1.4,-4.4 1,-1.1 2.2,-1.7 3.7,-1.7 1.3,0 2.5,0.5 3.4,1.5 0.9,1 1.4,2.4 1.4,4.1 v 0.6 z m -1.9,-1.4 c 0,-0.9 -0.3,-1.7 -0.9,-2.3 -0.6,-0.6 -1.2,-0.9 -1.9,-0.9 -0.9,0 -1.7,0.3 -2.3,0.9 -0.6,0.6 -0.9,1.4 -1,2.3 h 6.1 z"
   id="path3774"
   inkscape:connector-curvature="0"
   style="fill:#454746" />
		<path
   d="m 743.7,179.5 c -1,-0.3 -1.9,-0.5 -2.8,-0.5 -1,0 -1.7,0.2 -2.3,0.5 -0.6,0.3 -0.8,0.7 -0.8,1.3 0,0.3 0.1,0.6 0.4,0.9 0.3,0.3 0.8,0.5 1.5,0.7 l 1.7,0.5 c 0.8,0.2 1.4,0.5 1.9,0.8 0.5,0.3 0.9,0.7 1.1,1.1 0.2,0.4 0.4,0.9 0.4,1.5 0,1.1 -0.5,2 -1.4,2.6 -0.9,0.6 -2.1,1 -3.6,1 -1.4,0 -2.6,-0.2 -3.6,-0.7 l 0.3,-1.5 c 1,0.5 2,0.7 3.2,0.7 1,0 1.8,-0.2 2.4,-0.5 0.6,-0.4 0.9,-0.8 0.9,-1.4 0,-0.4 -0.2,-0.8 -0.5,-1.1 -0.3,-0.3 -1,-0.6 -2.1,-1 -0.9,-0.3 -1.6,-0.5 -2,-0.6 -0.4,-0.1 -0.8,-0.3 -1.2,-0.6 -0.4,-0.3 -0.6,-0.6 -0.8,-1 -0.2,-0.4 -0.3,-0.8 -0.3,-1.3 0,-1 0.4,-1.8 1.3,-2.4 0.9,-0.6 2.1,-0.9 3.5,-0.9 0.9,0 2,0.2 3.1,0.5 l -0.3,1.4 z"
   id="path3776"
   inkscape:connector-curvature="0"
   style="fill:#454746" />
		<path
   d="m 751,173.4 c 1.7,1.3 3,2.7 3.8,4.4 0.9,1.7 1.3,3.4 1.3,5.3 0,1.9 -0.4,3.6 -1.3,5.3 -0.9,1.7 -2.1,3.1 -3.8,4.4 l -0.7,-1 c 1.4,-1.2 2.4,-2.5 3,-3.9 0.6,-1.4 0.9,-3 0.9,-4.9 0,-2 -0.3,-3.6 -0.9,-4.9 -0.6,-1.3 -1.6,-2.6 -2.9,-3.8 l 0.6,-0.9 z"
   id="path3778"
   inkscape:connector-curvature="0"
   style="fill:#454746" />
	</g>
</g>
<g
   id="g3780"
   transform="translate(-59,-54.500006)">
	<path
   d="m 189.9,415.5 c 1.6,0 2.9,0.6 3.8,1.7 0.9,1.1 1.4,2.6 1.4,4.4 0,1.8 -0.5,3.3 -1.4,4.5 -1,1.1 -2.2,1.7 -3.8,1.7 -1.6,0 -2.9,-0.6 -3.8,-1.7 -0.9,-1.1 -1.4,-2.6 -1.4,-4.5 0,-1.8 0.5,-3.3 1.4,-4.4 0.9,-1.1 2.2,-1.7 3.8,-1.7 z m 0,10.8 c 1.1,0 1.9,-0.4 2.5,-1.3 0.6,-0.9 0.9,-2 0.9,-3.3 0,-1.3 -0.3,-2.5 -0.9,-3.3 -0.6,-0.9 -1.4,-1.3 -2.5,-1.3 -1.1,0 -1.9,0.4 -2.5,1.3 -0.6,0.9 -0.9,2 -0.9,3.3 0,1.3 0.3,2.4 0.9,3.3 0.6,0.8 1.4,1.3 2.5,1.3 z"
   id="path3782"
   inkscape:connector-curvature="0"
   style="fill:#454746" />
	<path
   d="m 207.4,427.5 h -4.8 v -14.3 h -3.1 v -1.5 h 4.8 V 426 h 3 v 1.5 z"
   id="path3784"
   inkscape:connector-curvature="0"
   style="fill:#454746" />
	<path
   d="m 222,427.5 h -1.8 v -1.7 c -0.4,0.6 -0.9,1.1 -1.5,1.4 -0.7,0.4 -1.4,0.6 -2.1,0.6 -1.3,0 -2.4,-0.6 -3.2,-1.8 -0.8,-1.2 -1.2,-2.7 -1.2,-4.5 0,-1.7 0.4,-3.1 1.2,-4.3 0.8,-1.1 1.9,-1.7 3.2,-1.7 1.5,0 2.7,0.6 3.6,1.8 v -5.7 h 1.8 v 15.9 z m -1.8,-3.6 V 419 c -0.8,-1.3 -1.8,-2 -3,-2 -1,0 -1.7,0.4 -2.3,1.3 -0.6,0.9 -0.8,1.9 -0.8,3.3 0,1.3 0.3,2.5 0.8,3.3 0.5,0.9 1.3,1.3 2.2,1.3 0.4,0 0.9,-0.1 1.3,-0.4 0.4,-0.2 0.9,-0.6 1.3,-1.1 0.3,-0.4 0.5,-0.7 0.5,-0.8 z"
   id="path3786"
   inkscape:connector-curvature="0"
   style="fill:#454746" />
	<path
   d="M 238.2,432.5 H 224.4 V 431 h 13.8 v 1.5 z"
   id="path3788"
   inkscape:connector-curvature="0"
   style="fill:#454746" />
	<path
   d="m 248.4,417.5 c -1,-0.3 -1.9,-0.5 -2.8,-0.5 -1,0 -1.7,0.2 -2.3,0.5 -0.6,0.3 -0.8,0.7 -0.8,1.3 0,0.3 0.1,0.6 0.4,0.9 0.3,0.3 0.8,0.5 1.5,0.7 l 1.7,0.5 c 0.8,0.2 1.4,0.5 1.9,0.8 0.5,0.3 0.9,0.7 1.1,1.1 0.2,0.4 0.4,0.9 0.4,1.5 0,1.1 -0.5,2 -1.4,2.6 -0.9,0.6 -2.1,1 -3.6,1 -1.4,0 -2.6,-0.2 -3.6,-0.7 l 0.3,-1.5 c 1,0.5 2,0.7 3.2,0.7 1,0 1.8,-0.2 2.4,-0.5 0.6,-0.4 0.9,-0.8 0.9,-1.4 0,-0.4 -0.2,-0.8 -0.5,-1.1 -0.3,-0.3 -1,-0.6 -2.1,-1 -0.9,-0.3 -1.6,-0.5 -2,-0.6 -0.4,-0.1 -0.8,-0.3 -1.2,-0.6 -0.4,-0.3 -0.6,-0.6 -0.8,-1 -0.2,-0.4 -0.3,-0.8 -0.3,-1.3 0,-1 0.4,-1.8 1.3,-2.4 0.9,-0.6 2.1,-0.9 3.5,-0.9 0.9,0 2,0.2 3.1,0.5 l -0.3,1.4 z"
   id="path3790"
   inkscape:connector-curvature="0"
   style="fill:#454746" />
	<path
   d="m 263.4,427.1 c -1,0.5 -2.1,0.7 -3.4,0.7 -1.8,0 -3.3,-0.6 -4.4,-1.7 -1.1,-1.1 -1.6,-2.6 -1.6,-4.5 0,-1.9 0.6,-3.3 1.7,-4.5 1.1,-1.2 2.6,-1.7 4.4,-1.7 1.2,0 2.3,0.2 3.4,0.6 l -0.5,1.4 c -1.1,-0.4 -2,-0.6 -2.9,-0.6 -1.3,0 -2.3,0.4 -3.1,1.2 -0.8,0.8 -1.1,2 -1.1,3.4 0,1.3 0.4,2.4 1.2,3.3 0.8,0.9 1.8,1.3 3,1.3 1,0 2,-0.2 3.1,-0.6 l 0.2,1.7 z"
   id="path3792"
   inkscape:connector-curvature="0"
   style="fill:#454746" />
	<path
   d="m 272.7,415.5 c 1.6,0 2.9,0.6 3.8,1.7 0.9,1.1 1.4,2.6 1.4,4.4 0,1.8 -0.5,3.3 -1.4,4.5 -1,1.1 -2.2,1.7 -3.8,1.7 -1.6,0 -2.9,-0.6 -3.8,-1.7 -0.9,-1.1 -1.4,-2.6 -1.4,-4.5 0,-1.8 0.5,-3.3 1.4,-4.4 0.9,-1.1 2.2,-1.7 3.8,-1.7 z m 0,10.8 c 1.1,0 1.9,-0.4 2.5,-1.3 0.6,-0.9 0.9,-2 0.9,-3.3 0,-1.3 -0.3,-2.5 -0.9,-3.3 -0.6,-0.9 -1.4,-1.3 -2.5,-1.3 -1.1,0 -1.9,0.4 -2.5,1.3 -0.6,0.9 -0.9,2 -0.9,3.3 0,1.3 0.3,2.4 0.9,3.3 0.6,0.8 1.4,1.3 2.5,1.3 z"
   id="path3794"
   inkscape:connector-curvature="0"
   style="fill:#454746" />
	<path
   d="m 291.2,416.1 -0.7,1.7 c -0.8,-0.3 -1.4,-0.5 -2,-0.5 -0.5,0 -1,0.1 -1.5,0.4 -0.5,0.3 -0.9,0.7 -1.4,1.3 -0.4,0.6 -0.6,0.9 -0.6,0.9 v 7.6 h -1.7 v -11.7 h 1.7 v 2.4 c 0.9,-1.8 2.1,-2.7 3.6,-2.7 0.9,0 1.8,0.2 2.6,0.6 z"
   id="path3796"
   inkscape:connector-curvature="0"
   style="fill:#454746" />
	<path
   d="m 305.2,421.7 h -8 c 0,1.3 0.4,2.4 1.2,3.3 0.8,0.9 1.7,1.3 2.8,1.3 1.1,0 2.2,-0.2 3.3,-0.6 l 0.3,1.4 c -1,0.5 -2.2,0.7 -3.6,0.7 -1.7,0 -3.1,-0.6 -4.2,-1.7 -1.1,-1.1 -1.6,-2.6 -1.6,-4.5 0,-1.9 0.5,-3.3 1.4,-4.4 1,-1.1 2.2,-1.7 3.7,-1.7 1.3,0 2.5,0.5 3.4,1.5 0.9,1 1.4,2.4 1.4,4.1 v 0.6 z m -1.9,-1.4 c 0,-0.9 -0.3,-1.7 -0.9,-2.3 -0.6,-0.6 -1.2,-0.9 -1.9,-0.9 -0.9,0 -1.7,0.3 -2.3,0.9 -0.6,0.6 -0.9,1.4 -1,2.3 h 6.1 z"
   id="path3798"
   inkscape:connector-curvature="0"
   style="fill:#454746" />
	<path
   d="m 331.9,417.9 -0.7,1.1 -2.7,-1.8 v 3.2 h -1.2 v -3.2 l -2.7,1.8 -0.7,-1.1 2.8,-1.8 -2.8,-1.8 0.7,-1.1 2.7,1.8 v -3.2 h 1.2 v 3.2 l 2.7,-1.8 0.7,1.1 -2.8,1.8 2.8,1.8 z"
   id="path3800"
   inkscape:connector-curvature="0"
   style="fill:#454746" />
	<path
   d="m 359.2,427.5 h -4.8 v -14.3 h -3.1 v -1.5 h 4.8 V 426 h 3 v 1.5 z"
   id="path3802"
   inkscape:connector-curvature="0"
   style="fill:#454746" />
	<path
   d="m 369.3,415.5 c 1.6,0 2.9,0.6 3.8,1.7 0.9,1.1 1.4,2.6 1.4,4.4 0,1.8 -0.5,3.3 -1.4,4.5 -1,1.1 -2.2,1.7 -3.8,1.7 -1.6,0 -2.9,-0.6 -3.8,-1.7 -0.9,-1.1 -1.4,-2.6 -1.4,-4.5 0,-1.8 0.5,-3.3 1.4,-4.4 0.9,-1.1 2.2,-1.7 3.8,-1.7 z m 0,10.8 c 1.1,0 1.9,-0.4 2.5,-1.3 0.6,-0.9 0.9,-2 0.9,-3.3 0,-1.3 -0.3,-2.5 -0.9,-3.3 -0.6,-0.9 -1.4,-1.3 -2.5,-1.3 -1.1,0 -1.9,0.4 -2.5,1.3 -0.6,0.9 -0.9,2 -0.9,3.3 0,1.3 0.3,2.4 0.9,3.3 0.6,0.8 1.5,1.3 2.5,1.3 z"
   id="path3804"
   inkscape:connector-curvature="0"
   style="fill:#454746" />
	<path
   d="m 381.9,423.1 c -1.1,0.5 -1.6,1 -1.6,1.4 0,0.2 0.1,0.4 0.4,0.6 0.3,0.1 0.6,0.2 1,0.2 l 3.9,-0.1 c 0.9,0 1.7,0.2 2.2,0.7 0.5,0.5 0.8,1.1 0.8,1.9 0,1.3 -0.6,2.4 -1.8,3.2 -1.2,0.8 -2.6,1.2 -4.1,1.2 -1.3,0 -2.4,-0.3 -3.2,-0.8 -0.8,-0.5 -1.2,-1.2 -1.2,-2.1 0,-0.9 0.6,-1.7 1.9,-2.4 -1.1,-0.5 -1.6,-1.1 -1.6,-1.8 0,-0.8 0.7,-1.6 2,-2.3 -0.6,-0.4 -1.1,-0.9 -1.4,-1.5 -0.3,-0.6 -0.5,-1.2 -0.5,-1.9 0,-1.1 0.4,-2 1.1,-2.7 0.7,-0.7 1.7,-1.1 2.8,-1.1 0.8,0 1.5,0.2 2.2,0.5 l 3.5,-0.5 v 1.7 H 386 c 0.3,0.6 0.5,1.3 0.5,2.1 0,1.1 -0.4,2 -1.1,2.7 -0.7,0.7 -1.7,1.1 -2.8,1.1 -0.3,-0.1 -0.5,-0.1 -0.7,-0.1 z m 0.7,7.7 c 1.2,0 2.1,-0.3 2.9,-0.8 0.8,-0.5 1.2,-1.1 1.2,-1.9 0,-0.8 -0.6,-1.2 -1.7,-1.2 -0.4,0 -1,0 -2,0.1 -0.6,0 -1.1,0 -1.4,0 -0.2,0 -0.4,0.1 -0.8,0.4 -0.3,0.3 -0.6,0.5 -0.8,0.8 -0.2,0.3 -0.3,0.6 -0.3,0.8 0,0.5 0.3,0.8 0.8,1.2 0.6,0.4 1.3,0.6 2.1,0.6 z m 0,-9 c 0.6,0 1.2,-0.2 1.6,-0.7 0.4,-0.5 0.6,-1 0.6,-1.7 0,-0.8 -0.2,-1.3 -0.6,-1.8 -0.4,-0.4 -0.9,-0.6 -1.6,-0.6 -0.6,0 -1.1,0.2 -1.6,0.7 -0.4,0.4 -0.6,1 -0.6,1.7 0,0.7 0.2,1.3 0.6,1.7 0.4,0.4 1,0.7 1.6,0.7 z"
   id="path3806"
   inkscape:connector-curvature="0"
   style="fill:#454746" />
	<path
   d="m 400.8,429.8 -0.7,1 c -1.7,-1.3 -2.9,-2.7 -3.8,-4.4 -0.9,-1.7 -1.3,-3.4 -1.3,-5.3 0,-1.9 0.4,-3.7 1.3,-5.3 0.9,-1.7 2.1,-3.1 3.8,-4.4 l 0.7,1 c -1.4,1.2 -2.4,2.5 -3,3.9 -0.6,1.3 -0.9,3 -0.9,4.9 0,2 0.3,3.6 0.9,5 0.7,1.2 1.7,2.4 3,3.6 z"
   id="path3808"
   inkscape:connector-curvature="0"
   style="fill:#454746" />
	<path
   d="M 415.3,427.5 H 407 v -1.6 h 3.4 v -12.3 l -3.2,1.6 v -1.8 l 3.4,-1.8 h 1.6 v 14.3 h 3.1 v 1.6 z"
   id="path3810"
   inkscape:connector-curvature="0"
   style="fill:#454746" />
	<path
   d="m 443.6,420.1 h -4.5 v 4.6 h -1.5 v -4.6 H 433 v -1.5 h 4.6 V 414 h 1.5 v 4.6 h 4.5 v 1.5 z"
   id="path3812"
   inkscape:connector-curvature="0"
   style="fill:#454746" />
	<path
   d="m 465.9,411.4 c 1.7,0 3,0.7 3.9,2.2 0.9,1.5 1.4,3.5 1.4,6.1 0,2.5 -0.4,4.5 -1.3,6 -0.9,1.5 -2.2,2.2 -3.9,2.2 -1.7,0 -3,-0.7 -3.9,-2.2 -0.9,-1.5 -1.4,-3.5 -1.4,-6.1 0,-2.5 0.4,-4.5 1.3,-6 0.9,-1.5 2.2,-2.2 3.9,-2.2 z m 0,14.8 c 1.1,0 1.9,-0.5 2.5,-1.6 0.6,-1.1 0.8,-2.7 0.8,-5 0,-2.3 -0.3,-4 -0.8,-5 -0.5,-1 -1.4,-1.6 -2.5,-1.6 -1.1,0 -1.9,0.5 -2.4,1.6 -0.5,1.1 -0.8,2.7 -0.8,5 0,2.3 0.3,4 0.8,5 0.5,1.1 1.3,1.6 2.4,1.6 z m 0,-8.3 c 0.5,0 0.9,0.2 1.2,0.5 0.3,0.3 0.5,0.7 0.5,1.2 0,0.5 -0.2,0.9 -0.5,1.3 -0.3,0.3 -0.7,0.5 -1.2,0.5 -0.5,0 -0.8,-0.2 -1.2,-0.5 -0.3,-0.3 -0.5,-0.8 -0.5,-1.3 0,-0.5 0.2,-0.9 0.5,-1.2 0.3,-0.3 0.7,-0.5 1.2,-0.5 z"
   id="path3814"
   inkscape:connector-curvature="0"
   style="fill:#454746" />
	<path
   d="m 479.7,424.9 c 0.4,0 0.7,0.1 1,0.4 0.3,0.3 0.4,0.6 0.4,1 0,0.4 -0.1,0.8 -0.4,1 -0.3,0.2 -0.6,0.4 -1,0.4 -0.4,0 -0.7,-0.1 -1,-0.4 -0.3,-0.3 -0.4,-0.6 -0.4,-1 0,-0.4 0.1,-0.7 0.4,-1 0.3,-0.3 0.6,-0.4 1,-0.4 z"
   id="path3816"
   inkscape:connector-curvature="0"
   style="fill:#454746" />
	<path
   d="m 491.5,418 c 0.5,-0.1 1,-0.2 1.5,-0.2 1.5,0 2.7,0.5 3.5,1.4 0.9,0.9 1.3,2.1 1.3,3.4 0,1.4 -0.5,2.7 -1.5,3.7 -1,1 -2.2,1.5 -3.7,1.5 -1.4,0 -2.5,-0.2 -3.5,-0.7 l 0.4,-1.6 c 1,0.4 2.1,0.6 3.2,0.6 1,0 1.7,-0.3 2.3,-0.9 0.6,-0.6 0.9,-1.5 0.9,-2.6 0,-1.1 -0.3,-1.9 -0.8,-2.4 -0.6,-0.6 -1.3,-0.9 -2.2,-0.9 -0.6,0 -1.3,0.1 -1.9,0.4 l -1.1,-0.5 v -7.6 h 7.2 v 1.6 h -5.6 v 4.8 z"
   id="path3818"
   inkscape:connector-curvature="0"
   style="fill:#454746" />
	<path
   d="m 525.1,417.9 -0.7,1.1 -2.7,-1.8 v 3.2 h -1.2 v -3.2 l -2.7,1.8 -0.7,-1.1 2.8,-1.8 -2.8,-1.8 0.7,-1.1 2.7,1.8 v -3.2 h 1.2 v 3.2 l 2.7,-1.8 0.7,1.1 -2.8,1.8 2.8,1.8 z"
   id="path3820"
   inkscape:connector-curvature="0"
   style="fill:#454746" />
	<path
   d="m 553.3,427.5 h -1.8 V 420 c 0,-1 -0.2,-1.8 -0.5,-2.3 -0.3,-0.5 -0.9,-0.7 -1.6,-0.7 -1.1,0 -2.2,0.7 -3.4,2 v 8.5 h -1.8 v -11.7 h 1.8 v 1.7 c 1.3,-1.3 2.6,-2 4,-2 2.2,0 3.3,1.3 3.3,4 v 8 z"
   id="path3822"
   inkscape:connector-curvature="0"
   style="fill:#454746" />
	<path
   d="m 567.1,427.5 h -1.8 v -1.7 c -1.3,1.3 -2.6,2 -4,2 -2.2,0 -3.3,-1.3 -3.3,-4 v -8 h 1.8 v 7.5 c 0,1 0.2,1.7 0.5,2.2 0.3,0.5 0.8,0.7 1.6,0.7 1.1,0 2.2,-0.7 3.4,-2 v -8.5 h 1.8 v 11.8 z"
   id="path3824"
   inkscape:connector-curvature="0"
   style="fill:#454746" />
	<path
   d="M 581.8,427.5 H 580 v -7.7 c 0,-1.9 -0.3,-2.8 -1,-2.8 -0.4,0 -0.7,0.3 -1.2,1 -0.4,0.6 -0.6,1 -0.6,1.1 v 8.4 h -1.7 v -7.7 c 0,-1.9 -0.3,-2.8 -1,-2.8 -0.3,0 -0.7,0.3 -1.2,1 -0.4,0.6 -0.6,1 -0.6,1.1 v 8.4 h -1.8 v -11.7 h 1.7 v 1.8 c 0.3,-0.6 0.7,-1.1 1.2,-1.5 0.5,-0.4 0.9,-0.6 1.4,-0.6 0.5,0 0.9,0.2 1.3,0.6 0.4,0.4 0.6,0.9 0.8,1.5 0.3,-0.6 0.7,-1.1 1.2,-1.5 0.5,-0.4 0.9,-0.6 1.3,-0.6 1.4,0 2.1,1.3 2.1,3.8 v 8.2 z"
   id="path3826"
   inkscape:connector-curvature="0"
   style="fill:#454746" />
	<path
   d="m 587.4,417.3 c 0.4,-0.5 0.9,-1 1.6,-1.3 0.7,-0.3 1.4,-0.5 2.1,-0.5 1.4,0 2.4,0.5 3.2,1.6 0.8,1.1 1.1,2.5 1.1,4.3 0,1.8 -0.4,3.3 -1.2,4.5 -0.8,1.2 -1.9,1.8 -3.2,1.8 -0.7,0 -1.4,-0.2 -2,-0.5 -0.6,-0.3 -1.1,-0.8 -1.5,-1.4 v 1.7 h -1.8 v -15.8 h 1.8 v 5.6 z m 0,1.8 v 4.9 c 0.3,0.7 0.8,1.2 1.3,1.7 0.6,0.4 1.1,0.7 1.7,0.7 0.9,0 1.7,-0.4 2.3,-1.3 0.6,-0.9 0.8,-2 0.8,-3.3 0,-1.3 -0.3,-2.4 -0.8,-3.3 -0.5,-0.8 -1.3,-1.3 -2.2,-1.3 -1.2,-0.2 -2.2,0.5 -3.1,1.9 z"
   id="path3828"
   inkscape:connector-curvature="0"
   style="fill:#454746" />
	<path
   d="m 608.8,421.7 h -8 c 0,1.3 0.4,2.4 1.2,3.3 0.8,0.9 1.7,1.3 2.8,1.3 1.1,0 2.2,-0.2 3.3,-0.6 l 0.3,1.4 c -1,0.5 -2.2,0.7 -3.6,0.7 -1.7,0 -3.1,-0.6 -4.2,-1.7 -1.1,-1.1 -1.6,-2.6 -1.6,-4.5 0,-1.9 0.5,-3.3 1.4,-4.4 1,-1.1 2.2,-1.7 3.7,-1.7 1.3,0 2.5,0.5 3.4,1.5 0.9,1 1.4,2.4 1.4,4.1 v 0.6 z m -1.9,-1.4 c 0,-0.9 -0.3,-1.7 -0.9,-2.3 -0.6,-0.6 -1.2,-0.9 -1.9,-0.9 -0.9,0 -1.7,0.3 -2.3,0.9 -0.6,0.6 -0.9,1.4 -1,2.3 h 6.1 z"
   id="path3830"
   inkscape:connector-curvature="0"
   style="fill:#454746" />
	<path
   d="m 622.5,416.1 -0.7,1.7 c -0.8,-0.3 -1.4,-0.5 -2,-0.5 -0.5,0 -1,0.1 -1.5,0.4 -0.5,0.3 -0.9,0.7 -1.4,1.3 -0.4,0.6 -0.6,0.9 -0.6,0.9 v 7.6 h -1.7 v -11.7 h 1.7 v 2.4 c 0.9,-1.8 2.1,-2.7 3.6,-2.7 0.9,0 1.7,0.2 2.6,0.6 z"
   id="path3832"
   inkscape:connector-curvature="0"
   style="fill:#454746" />
	<path
   d="M 638.5,432.5 H 624.7 V 431 h 13.8 v 1.5 z"
   id="path3834"
   inkscape:connector-curvature="0"
   style="fill:#454746" />
	<path
   d="m 645.4,415.5 c 1.6,0 2.9,0.6 3.8,1.7 0.9,1.1 1.4,2.6 1.4,4.4 0,1.8 -0.5,3.3 -1.4,4.5 -1,1.1 -2.2,1.7 -3.8,1.7 -1.6,0 -2.9,-0.6 -3.8,-1.7 -0.9,-1.1 -1.4,-2.6 -1.4,-4.5 0,-1.8 0.5,-3.3 1.4,-4.4 0.9,-1.1 2.2,-1.7 3.8,-1.7 z m 0,10.8 c 1.1,0 1.9,-0.4 2.5,-1.3 0.6,-0.9 0.9,-2 0.9,-3.3 0,-1.3 -0.3,-2.5 -0.9,-3.3 -0.6,-0.9 -1.4,-1.3 -2.5,-1.3 -1.1,0 -1.9,0.4 -2.5,1.3 -0.6,0.9 -0.9,2 -0.9,3.3 0,1.3 0.3,2.4 0.9,3.3 0.6,0.8 1.4,1.3 2.5,1.3 z"
   id="path3836"
   inkscape:connector-curvature="0"
   style="fill:#454746" />
	<path
   d="m 663.8,411.8 -0.5,1.4 c -0.8,-0.2 -1.6,-0.4 -2.2,-0.4 -0.6,0 -1.1,0.2 -1.3,0.5 -0.2,0.4 -0.4,1.1 -0.4,2.2 v 0.2 h 3.9 v 1.5 h -3.9 v 10.2 h -1.8 v -10.2 h -2.9 v -1.5 h 2.9 v -0.4 c 0,-1.5 0.3,-2.5 0.8,-3.1 0.5,-0.6 1.4,-0.9 2.6,-0.9 0.9,0.1 1.8,0.2 2.8,0.5 z"
   id="path3838"
   inkscape:connector-curvature="0"
   style="fill:#454746" />
	<path
   d="M 679.9,432.5 H 666.1 V 431 h 13.8 v 1.5 z"
   id="path3840"
   inkscape:connector-curvature="0"
   style="fill:#454746" />
	<path
   d="m 691.8,415.8 -4.4,11.7 h -1.6 l -4.4,-11.7 h 1.9 l 3.3,9.3 3.3,-9.3 h 1.9 z"
   id="path3842"
   inkscape:connector-curvature="0"
   style="fill:#454746" />
	<path
   d="m 700.6,415.5 c 1.6,0 2.9,0.6 3.8,1.7 0.9,1.1 1.4,2.6 1.4,4.4 0,1.8 -0.5,3.3 -1.4,4.5 -1,1.1 -2.2,1.7 -3.8,1.7 -1.6,0 -2.9,-0.6 -3.8,-1.7 -0.9,-1.1 -1.4,-2.6 -1.4,-4.5 0,-1.8 0.5,-3.3 1.4,-4.4 0.9,-1.1 2.2,-1.7 3.8,-1.7 z m 0,10.8 c 1.1,0 1.9,-0.4 2.5,-1.3 0.6,-0.9 0.9,-2 0.9,-3.3 0,-1.3 -0.3,-2.5 -0.9,-3.3 -0.6,-0.9 -1.4,-1.3 -2.5,-1.3 -1.1,0 -1.9,0.4 -2.5,1.3 -0.6,0.9 -0.9,2 -0.9,3.3 0,1.3 0.3,2.4 0.9,3.3 0.6,0.8 1.4,1.3 2.5,1.3 z"
   id="path3844"
   inkscape:connector-curvature="0"
   style="fill:#454746" />
	<path
   d="m 719,427 c -1.2,0.5 -2.3,0.8 -3.5,0.8 -2.1,0 -3.1,-1.1 -3.1,-3.3 v -7.2 h -2.2 v -1.5 h 2.2 v -3.2 h 1.7 v 3.2 h 4 v 1.5 h -4 v 6.7 c 0,0.7 0.2,1.3 0.5,1.7 0.3,0.4 0.7,0.6 1.3,0.6 1,0 1.9,-0.2 2.8,-0.6 l 0.3,1.3 z"
   id="path3846"
   inkscape:connector-curvature="0"
   style="fill:#454746" />
	<path
   d="m 733.1,421.7 h -8 c 0,1.3 0.4,2.4 1.2,3.3 0.8,0.9 1.7,1.3 2.8,1.3 1.1,0 2.2,-0.2 3.3,-0.6 l 0.3,1.4 c -1,0.5 -2.2,0.7 -3.6,0.7 -1.7,0 -3.1,-0.6 -4.2,-1.7 -1.1,-1.1 -1.6,-2.6 -1.6,-4.5 0,-1.9 0.5,-3.3 1.4,-4.4 1,-1.1 2.2,-1.7 3.7,-1.7 1.3,0 2.5,0.5 3.4,1.5 0.9,1 1.4,2.4 1.4,4.1 v 0.6 z m -1.9,-1.4 c 0,-0.9 -0.3,-1.7 -0.9,-2.3 -0.6,-0.6 -1.2,-0.9 -1.9,-0.9 -0.9,0 -1.7,0.3 -2.3,0.9 -0.6,0.6 -0.9,1.4 -1,2.3 h 6.1 z"
   id="path3848"
   inkscape:connector-curvature="0"
   style="fill:#454746" />
	<path
   d="m 745.3,417.5 c -1,-0.3 -1.9,-0.5 -2.8,-0.5 -1,0 -1.7,0.2 -2.3,0.5 -0.6,0.3 -0.8,0.7 -0.8,1.3 0,0.3 0.1,0.6 0.4,0.9 0.3,0.3 0.8,0.5 1.5,0.7 l 1.7,0.5 c 0.8,0.2 1.4,0.5 1.9,0.8 0.5,0.3 0.9,0.7 1.1,1.1 0.2,0.4 0.4,0.9 0.4,1.5 0,1.1 -0.5,2 -1.4,2.6 -0.9,0.6 -2.1,1 -3.6,1 -1.4,0 -2.6,-0.2 -3.6,-0.7 l 0.3,-1.5 c 1,0.5 2,0.7 3.2,0.7 1,0 1.8,-0.2 2.4,-0.5 0.6,-0.4 0.9,-0.8 0.9,-1.4 0,-0.4 -0.2,-0.8 -0.5,-1.1 -0.3,-0.3 -1,-0.6 -2.1,-1 -0.9,-0.3 -1.6,-0.5 -2,-0.6 -0.4,-0.1 -0.8,-0.3 -1.2,-0.6 -0.4,-0.3 -0.6,-0.6 -0.8,-1 -0.2,-0.4 -0.3,-0.8 -0.3,-1.3 0,-1 0.4,-1.8 1.3,-2.4 0.9,-0.6 2.1,-0.9 3.5,-0.9 0.9,0 2,0.2 3.1,0.5 l -0.3,1.4 z"
   id="path3850"
   inkscape:connector-curvature="0"
   style="fill:#454746" />
	<path
   d="m 752.6,411.4 c 1.7,1.3 3,2.7 3.8,4.4 0.9,1.7 1.3,3.4 1.3,5.3 0,1.9 -0.4,3.6 -1.3,5.3 -0.9,1.7 -2.1,3.1 -3.8,4.4 l -0.7,-1 c 1.4,-1.2 2.4,-2.5 3,-3.9 0.6,-1.4 0.9,-3 0.9,-4.9 0,-2 -0.3,-3.6 -0.9,-4.9 -0.6,-1.3 -1.6,-2.6 -2.9,-3.8 l 0.6,-0.9 z"
   id="path3852"
   inkscape:connector-curvature="0"
   style="fill:#454746" />
</g>
</svg>