<?xml version="1.0" encoding="UTF-8" standalone="no"?>
<!-- Generator: Adobe Illustrator 18.0.0, SVG Export Plug-In . SVG Version: 6.00 Build 0)  -->

<svg
   xmlns:dc="http://purl.org/dc/elements/1.1/"
   xmlns:cc="http://creativecommons.org/ns#"
   xmlns:rdf="http://www.w3.org/1999/02/22-rdf-syntax-ns#"
   xmlns:svg="http://www.w3.org/2000/svg"
   xmlns="http://www.w3.org/2000/svg"
   xmlns:sodipodi="http://sodipodi.sourceforge.net/DTD/sodipodi-0.dtd"
   xmlns:inkscape="http://www.inkscape.org/namespaces/inkscape"
   version="1.1"
   id="graphs"
   x="0px"
   y="0px"
   viewBox="0 0 778 509.7"
   enable-background="new 0 0 900 600"
   xml:space="preserve"
   inkscape:version="0.48.2 r9819"
   width="100%"
   height="100%"
   sodipodi:docname="170_03_linear_popularity.svg"><metadata
   id="metadata233"><rdf:RDF><cc:Work
       rdf:about=""><dc:format>image/svg+xml</dc:format><dc:type
         rdf:resource="http://purl.org/dc/dcmitype/StillImage" /></cc:Work></rdf:RDF></metadata><defs
   id="defs231" /><sodipodi:namedview
   pagecolor="#ffffff"
   bordercolor="#666666"
   borderopacity="1"
   objecttolerance="10"
   gridtolerance="10"
   guidetolerance="10"
   inkscape:pageopacity="0"
   inkscape:pageshadow="2"
   inkscape:window-width="640"
   inkscape:window-height="480"
   id="namedview229"
   showgrid="false"
   fit-margin-top="50"
   fit-margin-left="30"
   fit-margin-right="50"
   fit-margin-bottom="30"
   inkscape:zoom="0.39111111"
   inkscape:cx="386"
   inkscape:cy="264.2"
   inkscape:window-x="0"
   inkscape:window-y="0"
   inkscape:window-maximized="0"
   inkscape:current-layer="graphs" />
<path
   d="M 725,440.3 H 71 c -1.6,0 -3,-1.4 -3,-3 V 53 c 0,-1.7 1.4,-3 3,-3 h 654 c 1.7,0 3,1.3 3,3 v 384.3 c 0,1.7 -1.3,3 -3,3 z"
   id="path3"
   inkscape:connector-curvature="0"
   style="fill:#f8faf6" />
<g
   id="g5"
   transform="translate(-64,-54.5)">
	<path
   d="m 375,533.8 v -16.2 h 3.4 l 4.2,6.9 c 1.1,1.8 2,3.7 2.8,5.4 h 0 c -0.2,-2.2 -0.3,-4.2 -0.3,-6.7 v -5.6 h 2.7 v 16.2 h -3 l -4.2,-7.1 c -1,-1.8 -2.1,-3.8 -2.9,-5.6 l -0.1,0 c 0.1,2.1 0.1,4.2 0.1,6.9 v 5.8 H 375 z"
   id="path7"
   inkscape:connector-curvature="0"
   style="fill:#454746" />
	<path
   d="m 401.6,530.3 c 0,1.4 0,2.5 0.1,3.5 h -2.6 L 399,532 h 0 c -0.5,0.8 -1.7,2 -3.7,2 -2.1,0 -4.1,-1.3 -4.1,-5.1 V 522 h 3 v 6.4 c 0,1.9 0.6,3.2 2.2,3.2 1.2,0 1.9,-0.8 2.3,-1.6 0.1,-0.3 0.2,-0.6 0.2,-0.9 V 522 h 3 v 8.3 z"
   id="path9"
   inkscape:connector-curvature="0"
   style="fill:#454746" />
	<path
   d="m 404.8,525.6 c 0,-1.3 0,-2.5 -0.1,-3.5 h 2.5 l 0.1,1.7 h 0.1 c 0.6,-0.9 1.6,-2 3.6,-2 1.5,0 2.7,0.9 3.2,2.2 h 0 c 0.4,-0.6 0.9,-1.1 1.4,-1.5 0.6,-0.5 1.4,-0.7 2.4,-0.7 1.9,0 3.9,1.3 3.9,5.1 v 6.9 H 419 v -6.5 c 0,-1.9 -0.7,-3.1 -2.1,-3.1 -1,0 -1.8,0.7 -2.1,1.6 -0.1,0.3 -0.1,0.6 -0.1,1 v 7 H 412 V 527 c 0,-1.6 -0.6,-2.8 -2,-2.8 -1.1,0 -1.8,0.9 -2.1,1.7 -0.1,0.3 -0.2,0.6 -0.2,1 v 6.9 h -2.9 v -8.2 z"
   id="path11"
   inkscape:connector-curvature="0"
   style="fill:#454746" />
	<path
   d="m 425,533.8 c 0,-0.8 0.1,-2.1 0.1,-3.3 v -13.8 h 3 v 7 h 0 c 0.7,-1.1 2,-1.9 3.7,-1.9 2.9,0 4.9,2.4 4.9,5.9 0,4.2 -2.7,6.3 -5.3,6.3 -1.5,0 -2.9,-0.6 -3.7,-2 h 0 l -0.1,1.8 H 425 z m 3.1,-4.8 c 0,0.2 0,0.5 0.1,0.7 0.3,1.2 1.3,2.1 2.6,2.1 1.8,0 3,-1.5 3,-3.8 0,-2.1 -1,-3.7 -3,-3.7 -1.2,0 -2.3,0.9 -2.6,2.2 0,0.2 -0.1,0.5 -0.1,0.8 v 1.7 z"
   id="path13"
   inkscape:connector-curvature="0"
   style="fill:#454746" />
	<path
   d="m 441.3,528.8 c 0.1,2.1 1.7,3 3.6,3 1.4,0 2.4,-0.2 3.2,-0.5 l 0.4,2 c -1,0.4 -2.4,0.7 -4.1,0.7 -3.8,0 -6,-2.3 -6,-5.9 0,-3.2 2,-6.3 5.7,-6.3 3.8,0 5,3.1 5,5.7 0,0.6 0,1 -0.1,1.2 h -7.7 z m 5.1,-2 c 0,-1.1 -0.5,-2.9 -2.4,-2.9 -1.8,0 -2.6,1.7 -2.7,2.9 h 5.1 z"
   id="path15"
   inkscape:connector-curvature="0"
   style="fill:#454746" />
	<path
   d="m 451.6,525.9 c 0,-1.6 0,-2.7 -0.1,-3.8 h 2.6 l 0.1,2.2 h 0.1 c 0.6,-1.7 1.9,-2.5 3.2,-2.5 0.3,0 0.5,0 0.7,0.1 v 2.8 c -0.2,0 -0.5,-0.1 -0.9,-0.1 -1.4,0 -2.4,0.9 -2.6,2.2 0,0.3 -0.1,0.6 -0.1,0.9 v 6 h -3 v -7.8 z"
   id="path17"
   inkscape:connector-curvature="0"
   style="fill:#454746" />
	<path
   d="m 476.2,527.9 c 0,4.3 -3,6.2 -6,6.2 -3.3,0 -5.9,-2.3 -5.9,-6 0,-3.8 2.5,-6.2 6,-6.2 3.6,0 5.9,2.4 5.9,6 z m -8.8,0.1 c 0,2.3 1.1,4 2.9,4 1.7,0 2.9,-1.7 2.9,-4 0,-1.8 -0.8,-3.9 -2.8,-3.9 -2.2,-0.1 -3,2 -3,3.9 z"
   id="path19"
   inkscape:connector-curvature="0"
   style="fill:#454746" />
	<path
   d="m 478.9,533.8 v -9.5 h -1.6 v -2.2 h 1.6 v -0.5 c 0,-1.5 0.4,-3 1.4,-4 0.9,-0.8 2,-1.1 3,-1.1 0.8,0 1.4,0.1 1.9,0.3 l -0.2,2.3 c -0.3,-0.1 -0.7,-0.2 -1.2,-0.2 -1.5,0 -2,1.2 -2,2.7 v 0.6 h 2.6 v 2.2 h -2.5 v 9.5 h -3 z"
   id="path21"
   inkscape:connector-curvature="0"
   style="fill:#454746" />
	<path
   d="m 493.1,522.1 1.9,5.9 c 0.3,1 0.6,2 0.8,2.9 h 0.1 c 0.2,-1 0.5,-1.9 0.8,-2.9 l 1.8,-5.9 h 3.1 l -4.5,11.7 h -2.9 l -4.3,-11.7 h 3.2 z"
   id="path23"
   inkscape:connector-curvature="0"
   style="fill:#454746" />
	<path
   d="m 514.2,527.9 c 0,4.3 -3,6.2 -6,6.2 -3.3,0 -5.9,-2.3 -5.9,-6 0,-3.8 2.5,-6.2 6,-6.2 3.6,0 5.9,2.4 5.9,6 z m -8.8,0.1 c 0,2.3 1.1,4 2.9,4 1.7,0 2.9,-1.7 2.9,-4 0,-1.8 -0.8,-3.9 -2.8,-3.9 -2.1,-0.1 -3,2 -3,3.9 z"
   id="path25"
   inkscape:connector-curvature="0"
   style="fill:#454746" />
	<path
   d="m 520,518.8 v 3.3 h 2.8 v 2.2 H 520 v 5.2 c 0,1.4 0.4,2.2 1.5,2.2 0.5,0 0.9,-0.1 1.2,-0.1 l 0,2.3 c -0.4,0.2 -1.2,0.3 -2.1,0.3 -1.1,0 -2,-0.4 -2.5,-1 -0.6,-0.7 -0.9,-1.7 -0.9,-3.3 v -5.5 h -1.7 v -2.2 h 1.7 v -2.6 l 2.8,-0.8 z"
   id="path27"
   inkscape:connector-curvature="0"
   style="fill:#454746" />
	<path
   d="m 527,528.8 c 0.1,2.1 1.7,3 3.6,3 1.4,0 2.4,-0.2 3.2,-0.5 l 0.4,2 c -1,0.4 -2.4,0.7 -4.1,0.7 -3.8,0 -6,-2.3 -6,-5.9 0,-3.2 2,-6.3 5.7,-6.3 3.8,0 5,3.1 5,5.7 0,0.6 0,1 -0.1,1.2 H 527 z m 5.2,-2 c 0,-1.1 -0.5,-2.9 -2.4,-2.9 -1.8,0 -2.6,1.7 -2.7,2.9 h 5.1 z"
   id="path29"
   inkscape:connector-curvature="0"
   style="fill:#454746" />
	<path
   d="m 537.2,531.1 c 0.7,0.4 1.9,0.8 3,0.8 1.3,0 1.9,-0.5 1.9,-1.3 0,-0.8 -0.5,-1.2 -1.9,-1.7 -2.3,-0.8 -3.2,-2 -3.2,-3.4 0,-2.1 1.7,-3.7 4.4,-3.7 1.3,0 2.4,0.3 3.1,0.7 l -0.6,2.1 c -0.5,-0.3 -1.4,-0.7 -2.5,-0.7 -1.1,0 -1.6,0.5 -1.6,1.2 0,0.7 0.6,1.1 2,1.6 2.1,0.8 3.1,1.8 3.1,3.6 0,2.1 -1.7,3.6 -4.8,3.6 -1.4,0 -2.7,-0.3 -3.6,-0.8 l 0.7,-2 z"
   id="path31"
   inkscape:connector-curvature="0"
   style="fill:#454746" />
</g>
<g
   id="g33"
   transform="translate(-64,-54.5)">
	<path
   d="M 110.2,350.9 H 94 v -3.4 l 6.9,-4.2 c 1.8,-1.1 3.7,-2 5.4,-2.8 v 0 c -2.2,0.2 -4.2,0.3 -6.7,0.3 H 94 v -2.7 h 16.2 v 3 l -7.1,4.2 c -1.8,1 -3.8,2.1 -5.6,2.9 l 0,0.1 c 2.1,-0.1 4.2,-0.1 6.9,-0.1 h 5.8 v 2.7 z"
   id="path35"
   inkscape:connector-curvature="0"
   style="fill:#454746" />
	<path
   d="m 105.2,332.8 c 2.1,-0.1 3,-1.7 3,-3.6 0,-1.4 -0.2,-2.4 -0.5,-3.2 l 2,-0.4 c 0.4,1 0.7,2.4 0.7,4.1 0,3.8 -2.3,6 -5.9,6 -3.2,0 -6.3,-2 -6.3,-5.7 0,-3.8 3.1,-5 5.7,-5 0.6,0 1,0 1.2,0.1 v 7.7 z m -2.1,-5.2 c -1.1,0 -2.9,0.5 -2.9,2.4 0,1.8 1.7,2.6 2.9,2.7 v -5.1 z"
   id="path37"
   inkscape:connector-curvature="0"
   style="fill:#454746" />
	<path
   d="m 98.5,320.8 5.3,-1.2 c 1.2,-0.3 2.5,-0.5 3.8,-0.7 v 0 c -1.3,-0.2 -2.6,-0.6 -3.8,-1 l -5.3,-1.5 V 314 l 5.2,-1.5 c 1.4,-0.4 2.6,-0.7 3.9,-0.9 v 0 c -1.3,-0.2 -2.5,-0.5 -3.9,-0.8 l -5.2,-1.3 v -2.9 l 11.7,3.7 v 2.7 l -4.8,1.4 c -1.2,0.4 -2.3,0.6 -3.7,0.9 v 0 c 1.4,0.2 2.6,0.6 3.7,0.9 l 4.8,1.5 v 2.8 L 98.5,324 v -3.2 z"
   id="path39"
   inkscape:connector-curvature="0"
   style="fill:#454746" />
	<path
   d="m 107.5,299.7 c 0.4,-0.7 0.8,-1.9 0.8,-3 0,-1.3 -0.5,-1.9 -1.3,-1.9 -0.8,0 -1.2,0.5 -1.7,1.9 -0.8,2.3 -2,3.2 -3.4,3.2 -2.1,0 -3.7,-1.7 -3.7,-4.4 0,-1.3 0.3,-2.4 0.7,-3.1 l 2.1,0.6 c -0.3,0.5 -0.7,1.4 -0.7,2.5 0,1.1 0.5,1.6 1.2,1.6 0.7,0 1.1,-0.6 1.6,-2 0.8,-2.1 1.8,-3.1 3.6,-3.1 2.1,0 3.6,1.7 3.6,4.8 0,1.4 -0.3,2.7 -0.8,3.6 l -2,-0.7 z"
   id="path41"
   inkscape:connector-curvature="0"
   style="fill:#454746" />
	<path
   d="m 109.8,281 c 0.3,0.6 0.6,1.8 0.6,3.3 0,3.6 -2.3,6 -6,6 -3.5,0 -6.2,-2.4 -6.2,-6.5 0,-1.1 0.2,-2.2 0.6,-2.9 l 2.2,0.5 c -0.2,0.5 -0.5,1.2 -0.5,2.2 0,2.3 1.7,3.6 3.8,3.6 2.4,0 3.8,-1.6 3.8,-3.6 0,-1 -0.2,-1.8 -0.5,-2.3 l 2.2,-0.3 z"
   id="path43"
   inkscape:connector-curvature="0"
   style="fill:#454746" />
	<path
   d="m 104.2,267.9 c 4.3,0 6.2,3 6.2,6 0,3.3 -2.3,5.9 -6,5.9 -3.8,0 -6.2,-2.5 -6.2,-6 0,-3.6 2.5,-5.9 6,-5.9 z m 0.2,8.8 c 2.3,0 4,-1.1 4,-2.9 0,-1.7 -1.7,-2.9 -4,-2.9 -1.8,0 -3.9,0.8 -3.9,2.8 -0.1,2.2 1.9,3 3.9,3 z"
   id="path45"
   inkscape:connector-curvature="0"
   style="fill:#454746" />
	<path
   d="m 102.3,265.5 c -1.6,0 -2.7,0 -3.8,0.1 V 263 l 2.2,-0.1 v -0.1 c -1.7,-0.6 -2.5,-1.9 -2.5,-3.2 0,-0.3 0,-0.5 0.1,-0.7 h 2.8 c 0,0.2 -0.1,0.5 -0.1,0.9 0,1.4 0.9,2.4 2.2,2.6 0.3,0 0.6,0.1 0.9,0.1 h 6 v 3 h -7.8 z"
   id="path47"
   inkscape:connector-curvature="0"
   style="fill:#454746" />
	<path
   d="m 105.2,255.1 c 2.1,-0.1 3,-1.7 3,-3.6 0,-1.4 -0.2,-2.4 -0.5,-3.2 l 2,-0.4 c 0.4,1 0.7,2.4 0.7,4.1 0,3.8 -2.3,6 -5.9,6 -3.2,0 -6.3,-2 -6.3,-5.7 0,-3.8 3.1,-5 5.7,-5 0.6,0 1,0 1.2,0.1 v 7.7 z m -2.1,-5.2 c -1.1,0 -2.9,0.5 -2.9,2.4 0,1.8 1.7,2.6 2.9,2.7 v -5.1 z"
   id="path49"
   inkscape:connector-curvature="0"
   style="fill:#454746" />
</g>
<g
   id="g51"
   transform="translate(-64,-54.5)">
	<line
   stroke-miterlimit="10"
   x1="137"
   y1="109.5"
   x2="137"
   y2="489.5"
   id="line53"
   style="fill:none;stroke:#454746;stroke-miterlimit:10" />
	<line
   stroke-miterlimit="10"
   x1="202"
   y1="109.5"
   x2="202"
   y2="489.5"
   id="line55"
   style="fill:none;stroke:#d6d6d6;stroke-miterlimit:10" />
	<line
   stroke-miterlimit="10"
   x1="267"
   y1="109.5"
   x2="267"
   y2="489.5"
   id="line57"
   style="fill:none;stroke:#d6d6d6;stroke-miterlimit:10" />
	<line
   stroke-miterlimit="10"
   x1="332"
   y1="109.5"
   x2="332"
   y2="489.5"
   id="line59"
   style="fill:none;stroke:#d6d6d6;stroke-miterlimit:10" />
	<line
   stroke-miterlimit="10"
   x1="397"
   y1="109.5"
   x2="397"
   y2="489.5"
   id="line61"
   style="fill:none;stroke:#d6d6d6;stroke-miterlimit:10" />
	<line
   stroke-miterlimit="10"
   x1="462"
   y1="109.5"
   x2="462"
   y2="489.5"
   id="line63"
   style="fill:none;stroke:#d6d6d6;stroke-miterlimit:10" />
	<line
   stroke-miterlimit="10"
   x1="527"
   y1="109.5"
   x2="527"
   y2="489.5"
   id="line65"
   style="fill:none;stroke:#d6d6d6;stroke-miterlimit:10" />
	<line
   stroke-miterlimit="10"
   x1="592"
   y1="109.5"
   x2="592"
   y2="489.5"
   id="line67"
   style="fill:none;stroke:#d6d6d6;stroke-miterlimit:10" />
	<line
   stroke-miterlimit="10"
   x1="657"
   y1="109.5"
   x2="657"
   y2="489.5"
   id="line69"
   style="fill:none;stroke:#d6d6d6;stroke-miterlimit:10" />
	<line
   stroke-miterlimit="10"
   x1="722"
   y1="109.5"
   x2="722"
   y2="489.5"
   id="line71"
   style="fill:none;stroke:#d6d6d6;stroke-miterlimit:10" />
	<line
   stroke-miterlimit="10"
   x1="787"
   y1="109.5"
   x2="787"
   y2="489.5"
   id="line73"
   style="fill:none;stroke:#d6d6d6;stroke-miterlimit:10" />
	<line
   stroke-miterlimit="10"
   x1="137"
   y1="109.5"
   x2="787"
   y2="109.5"
   id="line75"
   style="fill:none;stroke:#d6d6d6;stroke-miterlimit:10" />
	<line
   stroke-miterlimit="10"
   x1="137"
   y1="185.5"
   x2="787"
   y2="185.5"
   id="line77"
   style="fill:none;stroke:#d6d6d6;stroke-miterlimit:10" />
	<line
   stroke-miterlimit="10"
   x1="137"
   y1="261.5"
   x2="787"
   y2="261.5"
   id="line79"
   style="fill:none;stroke:#d6d6d6;stroke-miterlimit:10" />
	<line
   stroke-miterlimit="10"
   x1="137"
   y1="337.5"
   x2="787"
   y2="337.5"
   id="line81"
   style="fill:none;stroke:#d6d6d6;stroke-miterlimit:10" />
	<line
   stroke-miterlimit="10"
   x1="137"
   y1="413.5"
   x2="787"
   y2="413.5"
   id="line83"
   style="fill:none;stroke:#d6d6d6;stroke-miterlimit:10" />
	<line
   stroke-miterlimit="10"
   x1="137"
   y1="489.5"
   x2="787"
   y2="489.5"
   id="line85"
   style="fill:none;stroke:#454746;stroke-miterlimit:10" />
</g>
<g
   id="g87"
   transform="translate(-64,-54.5)">
	<g
   id="g89">
		<path
   d="m 149.9,418.5 v -1.2 l 1.2,-1.1 c 2.4,-2.3 3.6,-3.5 3.6,-4.9 0,-0.9 -0.5,-1.7 -1.9,-1.7 -0.9,0 -1.7,0.5 -2.2,0.9 l -0.6,-1.4 c 0.8,-0.6 1.9,-1.1 3.2,-1.1 2.3,0 3.4,1.5 3.4,3.2 0,1.8 -1.3,3.3 -3.1,5 l -0.9,0.8 v 0 h 4.3 v 1.6 h -7 z"
   id="path91"
   inkscape:connector-curvature="0"
   style="fill:#454746" />
	</g>
	<g
   id="g93">
		<path
   d="m 154.2,342.5 v -2.6 h -4.7 v -1.3 l 4.2,-6.5 h 2.3 v 6.3 h 1.3 v 1.5 H 156 v 2.6 h -1.8 z m 0,-4.1 v -2.8 c 0,-0.6 0,-1.2 0.1,-1.8 h -0.1 c -0.3,0.7 -0.6,1.2 -0.9,1.8 l -1.9,2.8 0,0 h 2.8 z"
   id="path95"
   inkscape:connector-curvature="0"
   style="fill:#454746" />
	</g>
	<g
   id="g97">
		<path
   d="m 156.2,257.5 c -0.3,0 -0.6,0 -1,0 -2.2,0.3 -3.2,1.6 -3.5,3 h 0 c 0.5,-0.6 1.3,-1 2.3,-1 1.8,0 3.2,1.3 3.2,3.4 0,2 -1.5,3.7 -3.7,3.7 -2.5,0 -3.9,-1.9 -3.9,-4.5 0,-2 0.7,-3.6 1.8,-4.7 1,-0.9 2.2,-1.4 3.7,-1.5 0.4,0 0.8,0 1,0 l 0.1,1.6 z m -0.9,5.6 c 0,-1.2 -0.7,-2.1 -1.8,-2.1 -0.7,0 -1.4,0.4 -1.7,1.1 -0.1,0.2 -0.1,0.4 -0.1,0.6 0,1.4 0.7,2.5 2,2.5 1,0 1.6,-0.9 1.6,-2.1 z"
   id="path99"
   inkscape:connector-curvature="0"
   style="fill:#454746" />
	</g>
	<g
   id="g101">
		<path
   d="m 149.8,187.8 c 0,-1.3 0.8,-2.2 2,-2.7 v 0 c -1.1,-0.5 -1.6,-1.4 -1.6,-2.3 0,-1.7 1.5,-2.8 3.5,-2.8 2.2,0 3.3,1.3 3.3,2.6 0,0.9 -0.5,1.8 -1.6,2.4 v 0 c 1.1,0.4 2,1.3 2,2.6 0,1.9 -1.6,3.1 -3.8,3.1 -2.6,0 -3.8,-1.4 -3.8,-2.9 z m 5.4,-0.1 c 0,-1.1 -0.8,-1.6 -1.9,-2 -1,0.3 -1.5,1 -1.5,1.8 0,0.9 0.6,1.7 1.7,1.7 1.1,0.1 1.7,-0.6 1.7,-1.5 z m -3.2,-5 c 0,0.8 0.7,1.4 1.7,1.6 0.7,-0.2 1.3,-0.8 1.3,-1.6 0,-0.7 -0.4,-1.5 -1.5,-1.5 -1,0.1 -1.5,0.7 -1.5,1.5 z"
   id="path103"
   inkscape:connector-curvature="0"
   style="fill:#454746" />
	</g>
</g>
<g
   id="g105"
   transform="translate(-64,-54.5)">
	<g
   id="g107">
		<path
   d="m 201.5,469.9 0,0 -1.9,1 -0.3,-1.5 2.5,-1.2 h 1.6 v 10.4 h -1.9 v -8.7 z"
   id="path109"
   inkscape:connector-curvature="0"
   style="fill:#454746" />
	</g>
	<g
   id="g111">
		<path
   d="m 263.4,478.5 v -1.2 l 1.2,-1.1 c 2.4,-2.3 3.6,-3.5 3.6,-4.9 0,-0.9 -0.5,-1.7 -1.9,-1.7 -0.9,0 -1.7,0.5 -2.2,0.9 l -0.6,-1.4 c 0.8,-0.6 1.9,-1.1 3.2,-1.1 2.3,0 3.4,1.5 3.4,3.2 0,1.8 -1.3,3.3 -3.1,5 l -0.9,0.8 v 0 h 4.3 v 1.6 h -7 z"
   id="path113"
   inkscape:connector-curvature="0"
   style="fill:#454746" />
	</g>
	<g
   id="g115">
		<path
   d="m 328.8,476.5 c 0.4,0.2 1.4,0.6 2.4,0.6 1.5,0 2.1,-0.8 2.1,-1.7 0,-1.2 -1.2,-1.8 -2.4,-1.8 H 330 v -1.4 h 0.9 c 0.9,0 2.1,-0.4 2.1,-1.5 0,-0.7 -0.5,-1.3 -1.7,-1.3 -0.8,0 -1.7,0.4 -2.1,0.7 l -0.4,-1.4 c 0.6,-0.4 1.7,-0.8 3,-0.8 2.1,0 3.2,1.2 3.2,2.5 0,1.1 -0.6,2 -1.9,2.4 v 0 c 1.3,0.2 2.3,1.2 2.3,2.6 0,1.8 -1.5,3.2 -4,3.2 -1.3,0 -2.4,-0.4 -2.9,-0.7 l 0.3,-1.4 z"
   id="path117"
   inkscape:connector-curvature="0"
   style="fill:#454746" />
	</g>
	<g
   id="g119">
		<path
   d="m 397.7,478.5 v -2.6 H 393 v -1.3 l 4.2,-6.5 h 2.3 v 6.3 h 1.3 v 1.5 h -1.3 v 2.6 h -1.8 z m 0,-4.1 v -2.8 c 0,-0.6 0,-1.2 0.1,-1.8 h -0.1 c -0.3,0.7 -0.6,1.2 -0.9,1.8 l -1.9,2.8 0,0 h 2.8 z"
   id="path121"
   inkscape:connector-curvature="0"
   style="fill:#454746" />
	</g>
	<g
   id="g123">
		<path
   d="m 465,469.7 h -4 l -0.3,2.1 c 0.2,0 0.4,0 0.8,0 0.9,0 1.8,0.2 2.5,0.7 0.8,0.5 1.4,1.4 1.4,2.6 0,2 -1.6,3.6 -4.2,3.6 -1.2,0 -2.2,-0.3 -2.8,-0.6 l 0.4,-1.5 c 0.4,0.2 1.3,0.5 2.3,0.5 1.2,0 2.3,-0.7 2.3,-1.9 0,-1.2 -0.9,-2 -3,-2 -0.6,0 -1,0 -1.4,0.1 l 0.7,-5.2 h 5.4 v 1.6 z"
   id="path125"
   inkscape:connector-curvature="0"
   style="fill:#454746" />
	</g>
	<g
   id="g127">
		<path
   d="m 529.7,469.5 c -0.3,0 -0.6,0 -1,0 -2.2,0.3 -3.2,1.6 -3.5,3 h 0 c 0.5,-0.6 1.3,-1 2.3,-1 1.8,0 3.2,1.3 3.2,3.4 0,2 -1.5,3.7 -3.7,3.7 -2.5,0 -3.9,-1.9 -3.9,-4.5 0,-2 0.7,-3.6 1.8,-4.7 1,-0.9 2.2,-1.4 3.7,-1.5 0.4,0 0.8,0 1,0 l 0.1,1.6 z m -0.9,5.6 c 0,-1.2 -0.7,-2.1 -1.8,-2.1 -0.7,0 -1.4,0.4 -1.7,1.1 -0.1,0.2 -0.1,0.4 -0.1,0.6 0,1.4 0.7,2.5 2,2.5 1,0 1.6,-0.9 1.6,-2.1 z"
   id="path129"
   inkscape:connector-curvature="0"
   style="fill:#454746" />
	</g>
	<g
   id="g131">
		<path
   d="m 595.6,468.1 v 1.3 l -4.4,9.1 h -2.1 l 4.4,-8.7 v 0 h -4.9 v -1.6 h 7 z"
   id="path133"
   inkscape:connector-curvature="0"
   style="fill:#454746" />
	</g>
	<g
   id="g135">
		<path
   d="m 653.3,475.8 c 0,-1.3 0.8,-2.2 2,-2.7 v 0 c -1.1,-0.5 -1.6,-1.4 -1.6,-2.3 0,-1.7 1.5,-2.8 3.5,-2.8 2.2,0 3.3,1.3 3.3,2.6 0,0.9 -0.5,1.8 -1.6,2.4 v 0 c 1.1,0.4 2,1.3 2,2.6 0,1.9 -1.6,3.1 -3.8,3.1 -2.6,0 -3.8,-1.4 -3.8,-2.9 z m 5.4,-0.1 c 0,-1.1 -0.8,-1.6 -1.9,-2 -1,0.3 -1.5,1 -1.5,1.8 0,0.9 0.6,1.7 1.7,1.7 1.1,0.1 1.7,-0.6 1.7,-1.5 z m -3.2,-5 c 0,0.8 0.7,1.4 1.7,1.6 0.7,-0.2 1.3,-0.8 1.3,-1.6 0,-0.7 -0.4,-1.5 -1.5,-1.5 -1,0.1 -1.5,0.7 -1.5,1.5 z"
   id="path137"
   inkscape:connector-curvature="0"
   style="fill:#454746" />
	</g>
	<g
   id="g139">
		<path
   d="m 719.2,477.1 c 0.3,0 0.6,0 1.1,0 0.8,-0.1 1.5,-0.3 2.1,-0.8 0.7,-0.5 1.1,-1.3 1.3,-2.3 l 0,0 c -0.5,0.6 -1.3,0.9 -2.3,0.9 -1.8,0 -3.2,-1.3 -3.2,-3.2 0,-2 1.5,-3.7 3.8,-3.7 2.4,0 3.7,1.9 3.7,4.4 0,2.2 -0.7,3.8 -1.8,4.8 -0.9,0.8 -2.2,1.3 -3.6,1.4 -0.4,0 -0.9,0 -1.2,0 v -1.5 z m 1,-5.6 c 0,1.1 0.6,1.9 1.7,1.9 0.8,0 1.4,-0.4 1.7,-0.9 0.1,-0.1 0.1,-0.3 0.1,-0.6 0,-1.4 -0.5,-2.6 -1.8,-2.6 -1,0.1 -1.7,1 -1.7,2.2 z"
   id="path141"
   inkscape:connector-curvature="0"
   style="fill:#454746" />
	</g>
</g>
<line
   stroke-miterlimit="10"
   x1="73"
   y1="435"
   x2="398"
   y2="55"
   id="line143"
   style="fill:#ffffff;stroke:#75b640;stroke-width:4;stroke-linecap:round;stroke-miterlimit:10" />
<g
   id="g145"
   transform="translate(-64,-54.5)">
	<g
   id="g147">
		<path
   d="m 354.6,286.2 c 1.6,0 2.9,0.6 3.8,1.7 0.9,1.1 1.4,2.6 1.4,4.4 0,1.8 -0.5,3.3 -1.4,4.5 -0.9,1.2 -2.2,1.7 -3.8,1.7 -1.6,0 -2.9,-0.6 -3.8,-1.7 -0.9,-1.1 -1.4,-2.6 -1.4,-4.5 0,-1.8 0.5,-3.3 1.4,-4.4 0.9,-1.2 2.2,-1.7 3.8,-1.7 z m 0,10.7 c 1.1,0 1.9,-0.4 2.5,-1.3 0.6,-0.9 0.9,-2 0.9,-3.3 0,-1.3 -0.3,-2.5 -0.9,-3.3 -0.6,-0.9 -1.4,-1.3 -2.5,-1.3 -1.1,0 -1.9,0.4 -2.5,1.3 -0.6,0.9 -0.9,2 -0.9,3.3 0,1.3 0.3,2.4 0.9,3.3 0.6,0.9 1.4,1.3 2.5,1.3 z"
   id="path149"
   inkscape:connector-curvature="0"
   style="fill:#454746" />
		<path
   d="m 372,298.2 h -4.8 v -14.3 h -3.1 v -1.5 h 4.8 v 14.3 h 3 v 1.5 z"
   id="path151"
   inkscape:connector-curvature="0"
   style="fill:#454746" />
		<path
   d="m 386.7,298.2 h -1.8 v -1.7 c -0.4,0.6 -0.9,1.1 -1.5,1.4 -0.6,0.3 -1.4,0.6 -2.1,0.6 -1.3,0 -2.4,-0.6 -3.2,-1.8 -0.8,-1.2 -1.2,-2.7 -1.2,-4.5 0,-1.7 0.4,-3.1 1.2,-4.3 0.8,-1.1 1.9,-1.7 3.2,-1.7 1.5,0 2.7,0.6 3.6,1.8 v -5.7 h 1.8 v 15.9 z m -1.8,-3.6 v -4.9 c -0.8,-1.3 -1.8,-2 -3,-2 -1,0 -1.7,0.4 -2.3,1.3 -0.6,0.9 -0.8,1.9 -0.8,3.3 0,1.3 0.3,2.5 0.8,3.3 0.5,0.9 1.3,1.3 2.2,1.3 0.4,0 0.9,-0.1 1.3,-0.4 0.4,-0.3 0.9,-0.6 1.3,-1.1 0.3,-0.4 0.5,-0.7 0.5,-0.8 z"
   id="path153"
   inkscape:connector-curvature="0"
   style="fill:#454746" />
		<path
   d="m 402.9,303.2 h -13.8 v -1.5 h 13.8 v 1.5 z"
   id="path155"
   inkscape:connector-curvature="0"
   style="fill:#454746" />
		<path
   d="m 413.1,288.1 c -1,-0.3 -1.9,-0.5 -2.8,-0.5 -1,0 -1.7,0.2 -2.3,0.5 -0.6,0.3 -0.8,0.7 -0.8,1.3 0,0.3 0.1,0.6 0.4,0.9 0.3,0.3 0.8,0.5 1.5,0.7 l 1.7,0.5 c 0.8,0.2 1.4,0.5 1.9,0.8 0.5,0.3 0.9,0.7 1.1,1.1 0.2,0.4 0.4,0.9 0.4,1.5 0,1.1 -0.5,2 -1.4,2.6 -0.9,0.6 -2.1,1 -3.6,1 -1.4,0 -2.6,-0.2 -3.6,-0.7 l 0.3,-1.5 c 1,0.5 2,0.7 3.2,0.7 1,0 1.8,-0.2 2.4,-0.5 0.6,-0.4 0.9,-0.8 0.9,-1.4 0,-0.4 -0.2,-0.8 -0.5,-1.1 -0.3,-0.3 -1,-0.6 -2.1,-1 -0.9,-0.3 -1.6,-0.5 -2,-0.6 -0.4,-0.1 -0.8,-0.3 -1.2,-0.6 -0.4,-0.3 -0.6,-0.6 -0.8,-1 -0.2,-0.4 -0.3,-0.8 -0.3,-1.3 0,-1 0.4,-1.8 1.3,-2.4 0.9,-0.6 2.1,-0.9 3.5,-0.9 0.9,0 2,0.2 3.1,0.5 l -0.3,1.4 z"
   id="path157"
   inkscape:connector-curvature="0"
   style="fill:#454746" />
		<path
   d="m 428.1,297.8 c -1,0.5 -2.1,0.7 -3.4,0.7 -1.8,0 -3.3,-0.6 -4.4,-1.7 -1.1,-1.1 -1.6,-2.6 -1.6,-4.5 0,-1.9 0.6,-3.3 1.7,-4.5 1.1,-1.1 2.6,-1.7 4.4,-1.7 1.2,0 2.3,0.2 3.4,0.6 l -0.5,1.4 c -1.1,-0.4 -2,-0.6 -2.9,-0.6 -1.3,0 -2.3,0.4 -3.1,1.2 -0.8,0.8 -1.1,2 -1.1,3.4 0,1.3 0.4,2.4 1.2,3.3 0.8,0.9 1.8,1.3 3,1.3 1,0 2,-0.2 3.1,-0.6 l 0.2,1.7 z"
   id="path159"
   inkscape:connector-curvature="0"
   style="fill:#454746" />
		<path
   d="m 437.4,286.2 c 1.6,0 2.9,0.6 3.8,1.7 0.9,1.1 1.4,2.6 1.4,4.4 0,1.8 -0.5,3.3 -1.4,4.5 -0.9,1.2 -2.2,1.7 -3.8,1.7 -1.6,0 -2.9,-0.6 -3.8,-1.7 -0.9,-1.1 -1.4,-2.6 -1.4,-4.5 0,-1.8 0.5,-3.3 1.4,-4.4 0.9,-1.2 2.2,-1.7 3.8,-1.7 z m 0,10.7 c 1.1,0 1.9,-0.4 2.5,-1.3 0.6,-0.9 0.9,-2 0.9,-3.3 0,-1.3 -0.3,-2.5 -0.9,-3.3 -0.6,-0.9 -1.4,-1.3 -2.5,-1.3 -1.1,0 -1.9,0.4 -2.5,1.3 -0.6,0.9 -0.9,2 -0.9,3.3 0,1.3 0.3,2.4 0.9,3.3 0.6,0.9 1.4,1.3 2.5,1.3 z"
   id="path161"
   inkscape:connector-curvature="0"
   style="fill:#454746" />
		<path
   d="m 455.9,286.8 -0.7,1.7 c -0.8,-0.3 -1.4,-0.5 -2,-0.5 -0.5,0 -1,0.1 -1.5,0.4 -0.5,0.3 -0.9,0.7 -1.4,1.3 -0.4,0.6 -0.6,0.9 -0.6,0.9 v 7.6 H 448 v -11.7 h 1.7 v 2.4 c 0.9,-1.8 2.1,-2.7 3.6,-2.7 0.9,0 1.8,0.2 2.6,0.6 z"
   id="path163"
   inkscape:connector-curvature="0"
   style="fill:#454746" />
		<path
   d="m 469.9,292.4 h -8 c 0,1.3 0.4,2.4 1.2,3.3 0.8,0.9 1.7,1.3 2.8,1.3 1.1,0 2.2,-0.2 3.3,-0.6 l 0.3,1.4 c -1,0.5 -2.2,0.7 -3.6,0.7 -1.7,0 -3.1,-0.6 -4.2,-1.7 -1.1,-1.1 -1.6,-2.6 -1.6,-4.5 0,-1.9 0.5,-3.3 1.4,-4.4 1,-1.1 2.2,-1.7 3.7,-1.7 1.3,0 2.5,0.5 3.4,1.5 0.9,1 1.4,2.4 1.4,4.1 v 0.6 z m -1.9,-1.5 c 0,-0.9 -0.3,-1.7 -0.9,-2.3 -0.6,-0.6 -1.2,-0.9 -1.9,-0.9 -0.9,0 -1.7,0.3 -2.3,0.9 -0.6,0.6 -0.9,1.4 -1,2.3 h 6.1 z"
   id="path165"
   inkscape:connector-curvature="0"
   style="fill:#454746" />
		<path
   d="m 496.5,288.5 -0.7,1.1 -2.7,-1.8 V 291 H 492 v -3.2 l -2.7,1.8 -0.7,-1.1 2.8,-1.8 -2.8,-1.8 0.7,-1.1 2.7,1.8 v -3.2 h 1.2 v 3.2 l 2.7,-1.8 0.7,1.1 -2.8,1.8 2.7,1.8 z"
   id="path167"
   inkscape:connector-curvature="0"
   style="fill:#454746" />
		<path
   d="M 524.7,298.2 H 523 v -7.5 c 0,-1 -0.2,-1.8 -0.5,-2.3 -0.3,-0.5 -0.9,-0.7 -1.6,-0.7 -1.1,0 -2.2,0.7 -3.4,2 v 8.5 h -1.8 v -11.7 h 1.8 v 1.7 c 1.3,-1.3 2.6,-2 4,-2 2.2,0 3.3,1.3 3.3,4 v 8 z"
   id="path169"
   inkscape:connector-curvature="0"
   style="fill:#454746" />
		<path
   d="m 538.5,298.2 h -1.8 v -1.7 c -1.3,1.3 -2.6,2 -4,2 -2.2,0 -3.3,-1.3 -3.3,-4 v -8 h 1.8 v 7.5 c 0,1 0.2,1.7 0.5,2.2 0.3,0.5 0.8,0.7 1.6,0.7 1.1,0 2.2,-0.7 3.4,-2 v -8.5 h 1.8 v 11.8 z"
   id="path171"
   inkscape:connector-curvature="0"
   style="fill:#454746" />
		<path
   d="m 553.3,298.2 h -1.8 v -7.7 c 0,-1.9 -0.3,-2.8 -1,-2.8 -0.4,0 -0.7,0.3 -1.2,1 -0.4,0.6 -0.6,1 -0.6,1.1 v 8.4 H 547 v -7.7 c 0,-1.9 -0.3,-2.8 -1,-2.8 -0.3,0 -0.7,0.3 -1.2,1 -0.4,0.6 -0.6,1 -0.6,1.1 v 8.4 h -1.8 v -11.7 h 1.7 v 1.8 c 0.3,-0.6 0.7,-1.1 1.2,-1.5 0.5,-0.4 0.9,-0.6 1.4,-0.6 0.5,0 0.9,0.2 1.3,0.6 0.4,0.4 0.6,0.9 0.8,1.5 0.3,-0.6 0.7,-1.1 1.2,-1.5 0.5,-0.4 0.9,-0.6 1.3,-0.6 1.4,0 2.1,1.3 2.1,3.8 v 8.2 z"
   id="path173"
   inkscape:connector-curvature="0"
   style="fill:#454746" />
		<path
   d="m 558.9,288 c 0.4,-0.5 0.9,-1 1.6,-1.3 0.7,-0.3 1.4,-0.5 2.1,-0.5 1.4,0 2.4,0.5 3.2,1.6 0.8,1.1 1.1,2.5 1.1,4.3 0,1.8 -0.4,3.3 -1.2,4.5 -0.8,1.2 -1.9,1.8 -3.2,1.8 -0.7,0 -1.4,-0.2 -2,-0.5 -0.6,-0.4 -1.1,-0.8 -1.5,-1.4 v 1.7 h -1.8 v -15.8 h 1.8 v 5.6 z m 0,1.7 v 4.9 c 0.3,0.7 0.8,1.2 1.3,1.7 0.5,0.5 1.1,0.7 1.7,0.7 0.9,0 1.7,-0.4 2.3,-1.3 0.6,-0.9 0.8,-2 0.8,-3.3 0,-1.3 -0.3,-2.4 -0.8,-3.3 -0.5,-0.8 -1.3,-1.3 -2.2,-1.3 -1.2,-0.1 -2.3,0.6 -3.1,1.9 z"
   id="path175"
   inkscape:connector-curvature="0"
   style="fill:#454746" />
		<path
   d="m 580.3,292.4 h -8 c 0,1.3 0.4,2.4 1.2,3.3 0.8,0.9 1.7,1.3 2.8,1.3 1.1,0 2.2,-0.2 3.3,-0.6 l 0.3,1.4 c -1,0.5 -2.2,0.7 -3.6,0.7 -1.7,0 -3.1,-0.6 -4.2,-1.7 -1.1,-1.1 -1.6,-2.6 -1.6,-4.5 0,-1.9 0.5,-3.3 1.4,-4.4 1,-1.1 2.2,-1.7 3.7,-1.7 1.3,0 2.5,0.5 3.4,1.5 0.9,1 1.4,2.4 1.4,4.1 v 0.6 z m -1.9,-1.5 c 0,-0.9 -0.3,-1.7 -0.9,-2.3 -0.6,-0.6 -1.2,-0.9 -1.9,-0.9 -0.9,0 -1.7,0.3 -2.3,0.9 -0.6,0.6 -0.9,1.4 -1,2.3 h 6.1 z"
   id="path177"
   inkscape:connector-curvature="0"
   style="fill:#454746" />
		<path
   d="m 593.9,286.8 -0.7,1.7 c -0.8,-0.3 -1.4,-0.5 -2,-0.5 -0.5,0 -1,0.1 -1.5,0.4 -0.5,0.3 -0.9,0.7 -1.4,1.3 -0.4,0.6 -0.6,0.9 -0.6,0.9 v 7.6 H 586 v -11.7 h 1.7 v 2.4 c 0.9,-1.8 2.1,-2.7 3.6,-2.7 0.9,0 1.8,0.2 2.6,0.6 z"
   id="path179"
   inkscape:connector-curvature="0"
   style="fill:#454746" />
		<path
   d="m 609.9,303.2 h -13.8 v -1.5 h 13.8 v 1.5 z"
   id="path181"
   inkscape:connector-curvature="0"
   style="fill:#454746" />
		<path
   d="m 616.8,286.2 c 1.6,0 2.9,0.6 3.8,1.7 0.9,1.1 1.4,2.6 1.4,4.4 0,1.8 -0.5,3.3 -1.4,4.5 -0.9,1.2 -2.2,1.7 -3.8,1.7 -1.6,0 -2.9,-0.6 -3.8,-1.7 -0.9,-1.1 -1.4,-2.6 -1.4,-4.5 0,-1.8 0.5,-3.3 1.4,-4.4 0.9,-1.2 2.2,-1.7 3.8,-1.7 z m 0,10.7 c 1.1,0 1.9,-0.4 2.5,-1.3 0.6,-0.9 0.9,-2 0.9,-3.3 0,-1.3 -0.3,-2.5 -0.9,-3.3 -0.6,-0.9 -1.4,-1.3 -2.5,-1.3 -1.1,0 -1.9,0.4 -2.5,1.3 -0.6,0.9 -0.9,2 -0.9,3.3 0,1.3 0.3,2.4 0.9,3.3 0.6,0.9 1.4,1.3 2.5,1.3 z"
   id="path183"
   inkscape:connector-curvature="0"
   style="fill:#454746" />
		<path
   d="m 635.3,282.5 -0.5,1.4 c -0.8,-0.2 -1.6,-0.4 -2.2,-0.4 -0.6,0 -1.1,0.2 -1.3,0.5 -0.2,0.4 -0.4,1.1 -0.4,2.2 v 0.2 h 3.9 v 1.5 h -3.9 v 10.2 h -1.8 V 288 h -2.9 v -1.5 h 2.9 v -0.4 c 0,-1.5 0.3,-2.5 0.8,-3.1 0.5,-0.6 1.4,-0.9 2.6,-0.9 0.9,-0.1 1.8,0.1 2.8,0.4 z"
   id="path185"
   inkscape:connector-curvature="0"
   style="fill:#454746" />
		<path
   d="m 651.3,303.2 h -13.8 v -1.5 h 13.8 v 1.5 z"
   id="path187"
   inkscape:connector-curvature="0"
   style="fill:#454746" />
		<path
   d="m 663.3,286.5 -4.4,11.7 h -1.6 l -4.4,-11.7 h 1.9 l 3.3,9.3 3.3,-9.3 h 1.9 z"
   id="path189"
   inkscape:connector-curvature="0"
   style="fill:#454746" />
		<path
   d="m 672,286.2 c 1.6,0 2.9,0.6 3.8,1.7 0.9,1.1 1.4,2.6 1.4,4.4 0,1.8 -0.5,3.3 -1.4,4.5 -0.9,1.2 -2.2,1.7 -3.8,1.7 -1.6,0 -2.9,-0.6 -3.8,-1.7 -0.9,-1.1 -1.4,-2.6 -1.4,-4.5 0,-1.8 0.5,-3.3 1.4,-4.4 0.9,-1.2 2.2,-1.7 3.8,-1.7 z m 0,10.7 c 1.1,0 1.9,-0.4 2.5,-1.3 0.6,-0.9 0.9,-2 0.9,-3.3 0,-1.3 -0.3,-2.5 -0.9,-3.3 -0.6,-0.9 -1.4,-1.3 -2.5,-1.3 -1.1,0 -1.9,0.4 -2.5,1.3 -0.6,0.9 -0.9,2 -0.9,3.3 0,1.3 0.3,2.4 0.9,3.3 0.6,0.9 1.4,1.3 2.5,1.3 z"
   id="path191"
   inkscape:connector-curvature="0"
   style="fill:#454746" />
		<path
   d="m 690.5,297.6 c -1.2,0.5 -2.3,0.8 -3.5,0.8 -2.1,0 -3.1,-1.1 -3.1,-3.3 V 288 h -2.2 v -1.5 h 2.2 v -3.2 h 1.7 v 3.2 h 4 v 1.5 h -4 v 6.7 c 0,0.7 0.2,1.3 0.5,1.7 0.3,0.4 0.7,0.6 1.3,0.6 1,0 1.9,-0.2 2.8,-0.6 l 0.3,1.2 z"
   id="path193"
   inkscape:connector-curvature="0"
   style="fill:#454746" />
		<path
   d="m 704.5,292.4 h -8 c 0,1.3 0.4,2.4 1.2,3.3 0.8,0.9 1.7,1.3 2.8,1.3 1.1,0 2.2,-0.2 3.3,-0.6 l 0.3,1.4 c -1,0.5 -2.2,0.7 -3.6,0.7 -1.7,0 -3.1,-0.6 -4.2,-1.7 -1.1,-1.1 -1.6,-2.6 -1.6,-4.5 0,-1.9 0.5,-3.3 1.4,-4.4 1,-1.1 2.2,-1.7 3.7,-1.7 1.3,0 2.5,0.5 3.4,1.5 0.9,1 1.4,2.4 1.4,4.1 v 0.6 z m -1.9,-1.5 c 0,-0.9 -0.3,-1.7 -0.9,-2.3 -0.6,-0.6 -1.2,-0.9 -1.9,-0.9 -0.9,0 -1.7,0.3 -2.3,0.9 -0.6,0.6 -0.9,1.4 -1,2.3 h 6.1 z"
   id="path195"
   inkscape:connector-curvature="0"
   style="fill:#454746" />
		<path
   d="m 716.7,288.1 c -1,-0.3 -1.9,-0.5 -2.8,-0.5 -1,0 -1.7,0.2 -2.3,0.5 -0.6,0.3 -0.8,0.7 -0.8,1.3 0,0.3 0.1,0.6 0.4,0.9 0.3,0.3 0.8,0.5 1.5,0.7 l 1.7,0.5 c 0.8,0.2 1.4,0.5 1.9,0.8 0.5,0.3 0.9,0.7 1.1,1.1 0.2,0.4 0.4,0.9 0.4,1.5 0,1.1 -0.5,2 -1.4,2.6 -0.9,0.6 -2.1,1 -3.6,1 -1.4,0 -2.6,-0.2 -3.6,-0.7 l 0.3,-1.5 c 1,0.5 2,0.7 3.2,0.7 1,0 1.8,-0.2 2.4,-0.5 0.6,-0.4 0.9,-0.8 0.9,-1.4 0,-0.4 -0.2,-0.8 -0.5,-1.1 -0.3,-0.3 -1,-0.6 -2.1,-1 -0.9,-0.3 -1.6,-0.5 -2,-0.6 -0.4,-0.1 -0.8,-0.3 -1.2,-0.6 -0.4,-0.3 -0.6,-0.6 -0.8,-1 -0.2,-0.4 -0.3,-0.8 -0.3,-1.3 0,-1 0.4,-1.8 1.3,-2.4 0.9,-0.6 2.1,-0.9 3.5,-0.9 0.9,0 2,0.2 3.1,0.5 l -0.3,1.4 z"
   id="path197"
   inkscape:connector-curvature="0"
   style="fill:#454746" />
	</g>
</g>
<line
   stroke-miterlimit="10"
   x1="79.5"
   y1="131"
   x2="73"
   y2="131"
   id="line199"
   style="fill:none;stroke:#454746;stroke-miterlimit:10" />
<line
   stroke-miterlimit="10"
   x1="79.5"
   y1="55.300003"
   x2="73"
   y2="55.300003"
   id="line201"
   style="fill:none;stroke:#454746;stroke-miterlimit:10" />
<line
   stroke-miterlimit="10"
   x1="79.5"
   y1="207"
   x2="73"
   y2="207"
   id="line203"
   style="fill:none;stroke:#454746;stroke-miterlimit:10" />
<line
   stroke-miterlimit="10"
   x1="79.5"
   y1="283"
   x2="73"
   y2="283"
   id="line205"
   style="fill:none;stroke:#454746;stroke-miterlimit:10" />
<line
   stroke-miterlimit="10"
   x1="79.5"
   y1="359"
   x2="73"
   y2="359"
   id="line207"
   style="fill:none;stroke:#454746;stroke-miterlimit:10" />
<line
   stroke-miterlimit="10"
   x1="138"
   y1="428.5"
   x2="138"
   y2="435"
   id="line209"
   style="fill:none;stroke:#454746;stroke-miterlimit:10" />
<line
   stroke-miterlimit="10"
   x1="203"
   y1="428.5"
   x2="203"
   y2="435"
   id="line211"
   style="fill:none;stroke:#454746;stroke-miterlimit:10" />
<line
   stroke-miterlimit="10"
   x1="268"
   y1="428.5"
   x2="268"
   y2="435"
   id="line213"
   style="fill:none;stroke:#454746;stroke-miterlimit:10" />
<line
   stroke-miterlimit="10"
   x1="333"
   y1="428.5"
   x2="333"
   y2="435"
   id="line215"
   style="fill:none;stroke:#454746;stroke-miterlimit:10" />
<line
   stroke-miterlimit="10"
   x1="398"
   y1="428.5"
   x2="398"
   y2="435"
   id="line217"
   style="fill:none;stroke:#454746;stroke-miterlimit:10" />
<line
   stroke-miterlimit="10"
   x1="463"
   y1="428.5"
   x2="463"
   y2="435"
   id="line219"
   style="fill:none;stroke:#454746;stroke-miterlimit:10" />
<line
   stroke-miterlimit="10"
   x1="528"
   y1="428.5"
   x2="528"
   y2="435"
   id="line221"
   style="fill:none;stroke:#454746;stroke-miterlimit:10" />
<line
   stroke-miterlimit="10"
   x1="593"
   y1="428.5"
   x2="593"
   y2="435"
   id="line223"
   style="fill:none;stroke:#454746;stroke-miterlimit:10" />
<line
   stroke-miterlimit="10"
   x1="658"
   y1="428.5"
   x2="658"
   y2="435"
   id="line225"
   style="fill:none;stroke:#454746;stroke-miterlimit:10" />
<line
   stroke-miterlimit="10"
   x1="723"
   y1="428.5"
   x2="723"
   y2="435"
   id="line227"
   style="fill:none;stroke:#454746;stroke-miterlimit:10" />
</svg>