<?xml version="1.0" encoding="UTF-8" standalone="no"?>
<!-- Generator: Adobe Illustrator 18.0.0, SVG Export Plug-In . SVG Version: 6.00 Build 0)  -->

<svg
   xmlns:dc="http://purl.org/dc/elements/1.1/"
   xmlns:cc="http://creativecommons.org/ns#"
   xmlns:rdf="http://www.w3.org/1999/02/22-rdf-syntax-ns#"
   xmlns:svg="http://www.w3.org/2000/svg"
   xmlns="http://www.w3.org/2000/svg"
   xmlns:sodipodi="http://sodipodi.sourceforge.net/DTD/sodipodi-0.dtd"
   xmlns:inkscape="http://www.inkscape.org/namespaces/inkscape"
   version="1.1"
   id="graphs"
   x="0px"
   y="0px"
   viewBox="0 0 776.5 519.9"
   enable-background="new 0 0 900 600"
   xml:space="preserve"
   inkscape:version="0.48.2 r9819"
   width="100%"
   height="100%"
   sodipodi:docname="170_07_decay.svg"><metadata
   id="metadata3979"><rdf:RDF><cc:Work
       rdf:about=""><dc:format>image/svg+xml</dc:format><dc:type
         rdf:resource="http://purl.org/dc/dcmitype/StillImage" /><dc:title></dc:title></cc:Work></rdf:RDF></metadata><defs
   id="defs3977" /><sodipodi:namedview
   pagecolor="#ffffff"
   bordercolor="#666666"
   borderopacity="1"
   objecttolerance="10"
   gridtolerance="10"
   guidetolerance="10"
   inkscape:pageopacity="0"
   inkscape:pageshadow="2"
   inkscape:window-width="715"
   inkscape:window-height="480"
   id="namedview3975"
   showgrid="false"
   fit-margin-top="50"
   fit-margin-left="30"
   fit-margin-right="50"
   fit-margin-bottom="30"
   inkscape:zoom="0.39111111"
   inkscape:cx="528.36818"
   inkscape:cy="248.3"
   inkscape:window-x="288"
   inkscape:window-y="55"
   inkscape:window-maximized="0"
   inkscape:current-layer="graphs" />
<path
   d="M 723.5,414.8 H 104.6 c -1.6,0 -3,-1.3 -3,-3 v -314 c 0,-1.7 1.4,-3 3,-3 h 618.9 c 1.7,0 3,1.3 3,3 v 314 c 0,1.6 -1.3,3 -3,3 z"
   id="path3669"
   inkscape:connector-curvature="0"
   style="fill:#f8faf6" />
<g
   id="g3671"
   transform="translate(-59.7,-28.4)">
	<path
   d="m 103,326.6 c 0.6,-1 1,-2.4 1,-3.9 0,-1.9 -0.9,-3 -2.2,-3 -1.2,0 -1.9,0.8 -2.7,2.9 -1,2.7 -2.4,4.4 -4.7,4.4 -2.6,0 -4.7,-2.2 -4.7,-5.7 0,-1.8 0.4,-3 0.8,-3.9 l 2.4,0.7 c -0.3,0.6 -0.8,1.7 -0.8,3.2 0,1.9 1,2.7 1.9,2.7 1.2,0 1.8,-0.9 2.7,-3.1 1.1,-2.8 2.5,-4.2 4.8,-4.2 2.6,0 4.8,2 4.8,6.1 0,1.7 -0.5,3.5 -1,4.4 l -2.3,-0.6 z"
   id="path3673"
   inkscape:connector-curvature="0"
   style="fill:#454746" />
	<path
   d="m 105.8,305.4 c 0.3,0.6 0.6,1.8 0.6,3.3 0,3.6 -2.3,6 -6,6 -3.5,0 -6.2,-2.4 -6.2,-6.5 0,-1.1 0.2,-2.2 0.6,-2.9 l 2.2,0.5 c -0.2,0.5 -0.5,1.2 -0.5,2.2 0,2.3 1.7,3.6 3.8,3.6 2.4,0 3.8,-1.6 3.8,-3.6 0,-1 -0.2,-1.8 -0.5,-2.3 l 2.2,-0.3 z"
   id="path3675"
   inkscape:connector-curvature="0"
   style="fill:#454746" />
	<path
   d="m 100.2,292.3 c 4.3,0 6.2,3 6.2,6 0,3.3 -2.3,5.9 -6,5.9 -3.8,0 -6.2,-2.5 -6.2,-6 0,-3.5 2.5,-5.9 6,-5.9 z m 0.2,8.9 c 2.3,0 4,-1.1 4,-2.9 0,-1.7 -1.7,-2.9 -4,-2.9 -1.8,0 -3.9,0.8 -3.9,2.8 -0.1,2.1 1.9,3 3.9,3 z"
   id="path3677"
   inkscape:connector-curvature="0"
   style="fill:#454746" />
	<path
   d="m 98.3,289.9 c -1.6,0 -2.7,0 -3.8,0.1 v -2.6 l 2.2,-0.1 v -0.1 c -1.7,-0.6 -2.5,-1.9 -2.5,-3.2 0,-0.3 0,-0.5 0.1,-0.7 h 2.8 c 0,0.2 -0.1,0.5 -0.1,0.9 0,1.4 0.9,2.4 2.2,2.6 0.3,0 0.6,0.1 0.9,0.1 h 6 v 3 h -7.8 z"
   id="path3679"
   inkscape:connector-curvature="0"
   style="fill:#454746" />
	<path
   d="m 101.2,279.5 c 2.1,-0.1 3,-1.7 3,-3.6 0,-1.4 -0.2,-2.4 -0.5,-3.2 l 2,-0.4 c 0.4,1 0.7,2.4 0.7,4.1 0,3.8 -2.3,6 -5.9,6 -3.2,0 -6.3,-2 -6.3,-5.7 0,-3.8 3.1,-5 5.7,-5 0.6,0 1,0 1.2,0.1 v 7.7 z m -2.1,-5.1 c -1.1,0 -2.9,0.5 -2.9,2.4 0,1.8 1.7,2.6 2.9,2.7 v -5.1 z"
   id="path3681"
   inkscape:connector-curvature="0"
   style="fill:#454746" />
</g>
<g
   id="g3683"
   transform="translate(-59.7,-28.4)">
	<rect
   x="166.3"
   y="128.2"
   stroke-miterlimit="10"
   width="615"
   height="310"
   id="rect3685"
   style="fill:none;stroke:#d6d6d6;stroke-miterlimit:10" />
	<line
   stroke-miterlimit="10"
   x1="227.7"
   y1="128.2"
   x2="227.7"
   y2="134.7"
   id="line3687"
   style="fill:none;stroke:#d6d6d6;stroke-miterlimit:10" />
	<line
   stroke-miterlimit="10"
   x1="350.29999"
   y1="128.2"
   x2="350.29999"
   y2="134.7"
   id="line3689"
   style="fill:none;stroke:#d6d6d6;stroke-miterlimit:10" />
	<line
   stroke-miterlimit="10"
   x1="473"
   y1="128.2"
   x2="473"
   y2="134.7"
   id="line3691"
   style="fill:none;stroke:#d6d6d6;stroke-miterlimit:10" />
	<line
   stroke-miterlimit="10"
   x1="596.29999"
   y1="128.2"
   x2="596.29999"
   y2="134.7"
   id="line3693"
   style="fill:none;stroke:#d6d6d6;stroke-miterlimit:10" />
	<line
   stroke-miterlimit="10"
   x1="719"
   y1="128.2"
   x2="719"
   y2="134.7"
   id="line3695"
   style="fill:none;stroke:#d6d6d6;stroke-miterlimit:10" />
	<line
   stroke-miterlimit="10"
   x1="227.7"
   y1="431.70001"
   x2="227.7"
   y2="438.20001"
   id="line3697"
   style="fill:none;stroke:#d6d6d6;stroke-miterlimit:10" />
	<line
   stroke-miterlimit="10"
   x1="350.29999"
   y1="431.70001"
   x2="350.29999"
   y2="438.20001"
   id="line3699"
   style="fill:none;stroke:#d6d6d6;stroke-miterlimit:10" />
	<line
   stroke-miterlimit="10"
   x1="473"
   y1="431.70001"
   x2="473"
   y2="438.20001"
   id="line3701"
   style="fill:none;stroke:#d6d6d6;stroke-miterlimit:10" />
	<line
   stroke-miterlimit="10"
   x1="596.29999"
   y1="431.70001"
   x2="596.29999"
   y2="438.20001"
   id="line3703"
   style="fill:none;stroke:#d6d6d6;stroke-miterlimit:10" />
	<line
   stroke-miterlimit="10"
   x1="719"
   y1="431.70001"
   x2="719"
   y2="438.20001"
   id="line3705"
   style="fill:none;stroke:#d6d6d6;stroke-miterlimit:10" />
	<line
   stroke-miterlimit="10"
   x1="166.3"
   y1="156.5"
   x2="172.8"
   y2="156.5"
   id="line3707"
   style="fill:none;stroke:#d6d6d6;stroke-miterlimit:10" />
	<line
   stroke-miterlimit="10"
   x1="166.3"
   y1="212.5"
   x2="172.8"
   y2="212.5"
   id="line3709"
   style="fill:none;stroke:#d6d6d6;stroke-miterlimit:10" />
	<line
   stroke-miterlimit="10"
   x1="166.3"
   y1="268.5"
   x2="172.8"
   y2="268.5"
   id="line3711"
   style="fill:none;stroke:#d6d6d6;stroke-miterlimit:10" />
	<line
   stroke-miterlimit="10"
   x1="166.3"
   y1="324.5"
   x2="172.8"
   y2="324.5"
   id="line3713"
   style="fill:none;stroke:#d6d6d6;stroke-miterlimit:10" />
	<line
   stroke-miterlimit="10"
   x1="166.3"
   y1="380.5"
   x2="172.8"
   y2="380.5"
   id="line3715"
   style="fill:none;stroke:#d6d6d6;stroke-miterlimit:10" />
	<line
   stroke-miterlimit="10"
   x1="774.79999"
   y1="156.5"
   x2="781.29999"
   y2="156.5"
   id="line3717"
   style="fill:none;stroke:#d6d6d6;stroke-miterlimit:10" />
	<line
   stroke-miterlimit="10"
   x1="774.79999"
   y1="212.5"
   x2="781.29999"
   y2="212.5"
   id="line3719"
   style="fill:none;stroke:#d6d6d6;stroke-miterlimit:10" />
	<line
   stroke-miterlimit="10"
   x1="774.79999"
   y1="268.5"
   x2="781.29999"
   y2="268.5"
   id="line3721"
   style="fill:none;stroke:#d6d6d6;stroke-miterlimit:10" />
	<line
   stroke-miterlimit="10"
   x1="774.79999"
   y1="324.5"
   x2="781.29999"
   y2="324.5"
   id="line3723"
   style="fill:none;stroke:#d6d6d6;stroke-miterlimit:10" />
	<line
   stroke-miterlimit="10"
   x1="774.79999"
   y1="380.5"
   x2="781.29999"
   y2="380.5"
   id="line3725"
   style="fill:none;stroke:#d6d6d6;stroke-miterlimit:10" />
</g>
<g
   id="g3727"
   transform="translate(-59.7,-28.4)">
	<path
   d="m 155.7,437.2 c 0,3.8 -1.5,6.1 -4.3,6.1 -2.7,0 -4.1,-2.4 -4.2,-6 0,-3.6 1.5,-6.1 4.3,-6.1 2.9,0.1 4.2,2.6 4.2,6 z m -6.2,0.2 c 0,2.8 0.8,4.3 2,4.3 1.3,0 2,-1.6 2,-4.4 0,-2.7 -0.6,-4.3 -2,-4.3 -1.2,0 -2,1.4 -2,4.4 z"
   id="path3729"
   inkscape:connector-curvature="0"
   style="fill:#454746" />
</g>
<g
   id="g3731"
   transform="translate(-59.7,-28.4)">
	<path
   d="m 141.8,379.6 c 0,3.8 -1.5,6.1 -4.3,6.1 -2.7,0 -4.1,-2.4 -4.2,-6 0,-3.6 1.5,-6.1 4.3,-6.1 2.9,0 4.2,2.5 4.2,6 z m -6.2,0.1 c 0,2.8 0.8,4.3 2,4.3 1.3,0 2,-1.6 2,-4.4 0,-2.7 -0.6,-4.3 -2,-4.3 -1.2,0 -2,1.5 -2,4.4 z"
   id="path3733"
   inkscape:connector-curvature="0"
   style="fill:#454746" />
	<path
   d="m 143.4,384.3 c 0,-0.8 0.6,-1.4 1.4,-1.4 0.8,0 1.4,0.6 1.4,1.4 0,0.8 -0.5,1.4 -1.4,1.4 -0.9,0 -1.4,-0.6 -1.4,-1.4 z"
   id="path3735"
   inkscape:connector-curvature="0"
   style="fill:#454746" />
	<path
   d="m 147.5,385.5 v -1.4 l 1.4,-1.3 c 2.8,-2.6 4.1,-4 4.1,-5.5 0,-1 -0.6,-2 -2.1,-2 -1,0 -1.9,0.5 -2.5,1 l -0.6,-1.6 c 0.8,-0.7 2.1,-1.2 3.6,-1.2 2.6,0 3.9,1.6 3.9,3.5 0,2.1 -1.5,3.7 -3.5,5.6 l -1,0.9 v 0 h 4.8 v 1.8 h -8.1 z"
   id="path3737"
   inkscape:connector-curvature="0"
   style="fill:#454746" />
</g>
<g
   id="g3739"
   transform="translate(-59.7,-28.4)">
	<path
   d="m 141.8,323.6 c 0,3.8 -1.5,6.1 -4.3,6.1 -2.7,0 -4.1,-2.4 -4.2,-6 0,-3.6 1.5,-6.1 4.3,-6.1 2.9,0 4.2,2.5 4.2,6 z m -6.2,0.1 c 0,2.8 0.8,4.3 2,4.3 1.3,0 2,-1.6 2,-4.4 0,-2.7 -0.6,-4.3 -2,-4.3 -1.2,0 -2,1.4 -2,4.4 z"
   id="path3741"
   inkscape:connector-curvature="0"
   style="fill:#454746" />
	<path
   d="m 143.4,328.3 c 0,-0.8 0.6,-1.4 1.4,-1.4 0.8,0 1.4,0.6 1.4,1.4 0,0.8 -0.5,1.4 -1.4,1.4 -0.9,0 -1.4,-0.6 -1.4,-1.4 z"
   id="path3743"
   inkscape:connector-curvature="0"
   style="fill:#454746" />
	<path
   d="m 152.3,329.5 v -3 H 147 v -1.4 l 4.8,-7.3 h 2.6 v 7.1 h 1.5 v 1.7 h -1.5 v 3 h -2.1 z m 0,-4.6 v -3.2 c 0,-0.7 0,-1.4 0.1,-2 h -0.1 c -0.4,0.7 -0.7,1.3 -1,2 l -2.1,3.2 0,0 h 3.1 z"
   id="path3745"
   inkscape:connector-curvature="0"
   style="fill:#454746" />
</g>
<g
   id="g3747"
   transform="translate(-59.7,-28.4)">
	<path
   d="m 141.8,267.6 c 0,3.8 -1.5,6.1 -4.3,6.1 -2.7,0 -4.1,-2.4 -4.2,-6 0,-3.6 1.5,-6.1 4.3,-6.1 2.9,0 4.2,2.5 4.2,6 z m -6.2,0.1 c 0,2.8 0.8,4.3 2,4.3 1.3,0 2,-1.6 2,-4.4 0,-2.7 -0.6,-4.3 -2,-4.3 -1.2,0 -2,1.4 -2,4.4 z"
   id="path3749"
   inkscape:connector-curvature="0"
   style="fill:#454746" />
	<path
   d="m 143.4,272.3 c 0,-0.8 0.6,-1.4 1.4,-1.4 0.8,0 1.4,0.6 1.4,1.4 0,0.8 -0.5,1.4 -1.4,1.4 -0.9,0 -1.4,-0.6 -1.4,-1.4 z"
   id="path3751"
   inkscape:connector-curvature="0"
   style="fill:#454746" />
	<path
   d="m 154.6,263.4 c -0.3,0 -0.7,0 -1.1,0.1 -2.4,0.3 -3.6,1.8 -3.9,3.4 h 0.1 c 0.6,-0.7 1.5,-1.1 2.6,-1.1 2,0 3.6,1.4 3.6,3.8 0,2.2 -1.6,4.2 -4.1,4.2 -2.8,0 -4.4,-2.2 -4.4,-5 0,-2.3 0.8,-4.1 2,-5.3 1.1,-1 2.5,-1.6 4.2,-1.7 0.5,-0.1 0.8,-0.1 1.1,0 l -0.1,1.6 z m -1.1,6.2 c 0,-1.4 -0.7,-2.3 -2,-2.3 -0.8,0 -1.6,0.5 -1.9,1.2 -0.1,0.2 -0.1,0.4 -0.1,0.7 0,1.5 0.8,2.8 2.2,2.8 1.1,0 1.8,-0.9 1.8,-2.4 z"
   id="path3753"
   inkscape:connector-curvature="0"
   style="fill:#454746" />
</g>
<g
   id="g3755"
   transform="translate(-59.7,-28.4)">
	<path
   d="m 141.8,211.6 c 0,3.8 -1.5,6.1 -4.3,6.1 -2.7,0 -4.1,-2.4 -4.2,-6 0,-3.6 1.5,-6.1 4.3,-6.1 2.9,0 4.2,2.5 4.2,6 z m -6.2,0.1 c 0,2.8 0.8,4.3 2,4.3 1.3,0 2,-1.6 2,-4.4 0,-2.7 -0.6,-4.3 -2,-4.3 -1.2,0 -2,1.4 -2,4.4 z"
   id="path3757"
   inkscape:connector-curvature="0"
   style="fill:#454746" />
	<path
   d="m 143.4,216.3 c 0,-0.8 0.6,-1.4 1.4,-1.4 0.8,0 1.4,0.6 1.4,1.4 0,0.8 -0.5,1.4 -1.4,1.4 -0.9,0 -1.4,-0.6 -1.4,-1.4 z"
   id="path3759"
   inkscape:connector-curvature="0"
   style="fill:#454746" />
	<path
   d="m 147.3,214.5 c 0,-1.5 0.8,-2.4 2.2,-3 v -0.1 c -1.2,-0.6 -1.8,-1.6 -1.8,-2.6 0,-1.9 1.7,-3.2 3.9,-3.2 2.5,0 3.7,1.5 3.7,3 0,1 -0.5,2 -1.8,2.6 v 0.1 c 1.3,0.5 2.2,1.5 2.2,3 0,2.1 -1.8,3.5 -4.3,3.5 -2.7,-0.1 -4.1,-1.7 -4.1,-3.3 z m 6.2,-0.1 c 0,-1.2 -0.9,-1.8 -2.2,-2.2 -1.1,0.3 -1.7,1.1 -1.7,2.1 0,1 0.7,1.9 2,1.9 1.1,-0.1 1.9,-0.8 1.9,-1.8 z m -3.7,-5.7 c 0,1 0.8,1.5 1.9,1.8 0.8,-0.2 1.5,-0.9 1.5,-1.8 0,-0.8 -0.5,-1.7 -1.7,-1.7 -1.1,0.1 -1.7,0.9 -1.7,1.7 z"
   id="path3761"
   inkscape:connector-curvature="0"
   style="fill:#454746" />
</g>
<g
   id="g3763"
   transform="translate(-59.7,-28.4)">
	<path
   d="m 150.9,151.8 0,0 -2.2,1.1 -0.4,-1.7 2.8,-1.4 h 1.9 v 11.7 h -2.1 v -9.7 z"
   id="path3765"
   inkscape:connector-curvature="0"
   style="fill:#454746" />
</g>
<g
   id="g3767"
   transform="translate(-59.7,-28.4)">
	<path
   d="m 218.8,460.2 v -1.4 l 1.4,-1.3 c 2.8,-2.6 4.1,-4 4.1,-5.5 0,-1 -0.6,-2 -2.1,-2 -1,0 -1.9,0.5 -2.5,1 l -0.6,-1.6 c 0.8,-0.7 2.1,-1.2 3.6,-1.2 2.6,0 3.9,1.6 3.9,3.5 0,2.1 -1.5,3.7 -3.5,5.6 l -1,0.9 v 0 h 4.8 v 1.8 h -8.1 z"
   id="path3769"
   inkscape:connector-curvature="0"
   style="fill:#454746" />
	<path
   d="m 236.7,454.2 c 0,3.8 -1.5,6.1 -4.3,6.1 -2.7,0 -4.1,-2.4 -4.2,-6 0,-3.6 1.5,-6.1 4.3,-6.1 2.9,0.1 4.2,2.6 4.2,6 z m -6.2,0.2 c 0,2.8 0.8,4.3 2,4.3 1.3,0 2,-1.6 2,-4.4 0,-2.7 -0.6,-4.3 -2,-4.3 -1.2,0 -2,1.4 -2,4.4 z"
   id="path3771"
   inkscape:connector-curvature="0"
   style="fill:#454746" />
</g>
<g
   id="g3773"
   transform="translate(-59.7,-28.4)">
	<path
   d="m 341.9,457.9 c 0.5,0.3 1.5,0.7 2.7,0.7 1.7,0 2.4,-1 2.4,-1.9 0,-1.4 -1.3,-2 -2.6,-2 h -1 v -1.6 h 1 c 1,0 2.3,-0.5 2.3,-1.6 0,-0.8 -0.6,-1.5 -1.9,-1.5 -1,0 -1.9,0.4 -2.4,0.7 l -0.5,-1.6 c 0.7,-0.5 2,-0.9 3.4,-0.9 2.4,0 3.7,1.3 3.7,2.9 0,1.2 -0.7,2.2 -2.2,2.7 v 0 c 1.4,0.3 2.6,1.3 2.6,2.9 0,2 -1.7,3.5 -4.6,3.5 -1.4,0 -2.6,-0.4 -3.3,-0.8 l 0.4,-1.5 z"
   id="path3775"
   inkscape:connector-curvature="0"
   style="fill:#454746" />
	<path
   d="m 359.4,454.2 c 0,3.8 -1.5,6.1 -4.3,6.1 -2.7,0 -4.1,-2.4 -4.2,-6 0,-3.6 1.5,-6.1 4.3,-6.1 2.9,0.1 4.2,2.6 4.2,6 z m -6.2,0.2 c 0,2.8 0.8,4.3 2,4.3 1.3,0 2,-1.6 2,-4.4 0,-2.7 -0.6,-4.3 -2,-4.3 -1.2,0 -2,1.4 -2,4.4 z"
   id="path3777"
   inkscape:connector-curvature="0"
   style="fill:#454746" />
</g>
<g
   id="g3779"
   transform="translate(-59.7,-28.4)">
	<path
   d="m 469,460.2 v -3 h -5.3 v -1.4 l 4.8,-7.3 h 2.6 v 7.1 h 1.5 v 1.7 h -1.5 v 3 H 469 z m 0,-4.7 v -3.2 c 0,-0.7 0,-1.3 0.1,-2 H 469 c -0.4,0.7 -0.7,1.3 -1,2 l -2.1,3.2 0,0 h 3.1 z"
   id="path3781"
   inkscape:connector-curvature="0"
   style="fill:#454746" />
	<path
   d="m 482,454.2 c 0,3.8 -1.5,6.1 -4.3,6.1 -2.7,0 -4.1,-2.4 -4.2,-6 0,-3.6 1.5,-6.1 4.3,-6.1 2.9,0.1 4.2,2.6 4.2,6 z m -6.2,0.2 c 0,2.8 0.8,4.3 2,4.3 1.3,0 2,-1.6 2,-4.4 0,-2.7 -0.6,-4.3 -2,-4.3 -1.1,0 -2,1.4 -2,4.4 z"
   id="path3783"
   inkscape:connector-curvature="0"
   style="fill:#454746" />
</g>
<g
   id="g3785"
   transform="translate(-59.7,-28.4)">
	<path
   d="m 594.2,450.3 h -4.5 l -0.3,2.3 c 0.3,0 0.5,-0.1 0.8,-0.1 1,0 2.1,0.2 2.8,0.8 0.9,0.6 1.5,1.5 1.5,3 0,2.2 -1.9,4.1 -4.7,4.1 -1.4,0 -2.5,-0.3 -3.1,-0.7 l 0.5,-1.7 c 0.5,0.3 1.5,0.6 2.6,0.6 1.3,0 2.5,-0.7 2.5,-2.1 0,-1.3 -1,-2.2 -3.3,-2.2 -0.6,0 -1.1,0 -1.6,0.1 l 0.8,-5.9 h 6.1 v 1.8 z"
   id="path3787"
   inkscape:connector-curvature="0"
   style="fill:#454746" />
	<path
   d="m 604.7,454.2 c 0,3.8 -1.5,6.1 -4.3,6.1 -2.7,0 -4.1,-2.4 -4.2,-6 0,-3.6 1.5,-6.1 4.3,-6.1 2.9,0.1 4.2,2.6 4.2,6 z m -6.2,0.2 c 0,2.8 0.8,4.3 2,4.3 1.3,0 2,-1.6 2,-4.4 0,-2.7 -0.6,-4.3 -2,-4.3 -1.2,0 -2,1.4 -2,4.4 z"
   id="path3789"
   inkscape:connector-curvature="0"
   style="fill:#454746" />
</g>
<g
   id="g3791"
   transform="translate(-59.7,-28.4)">
	<path
   d="m 716.6,450 c -0.3,0 -0.7,0 -1.1,0.1 -2.4,0.3 -3.6,1.8 -3.9,3.4 h 0.1 c 0.6,-0.7 1.5,-1.1 2.6,-1.1 2,0 3.6,1.4 3.6,3.8 0,2.2 -1.6,4.2 -4.1,4.2 -2.8,0 -4.4,-2.2 -4.4,-5 0,-2.3 0.8,-4.1 2,-5.3 1.1,-1 2.5,-1.6 4.2,-1.7 0.5,-0.1 0.8,-0.1 1.1,0 l -0.1,1.6 z m -1.1,6.3 c 0,-1.4 -0.7,-2.3 -2,-2.3 -0.8,0 -1.6,0.5 -1.9,1.2 -0.1,0.2 -0.1,0.4 -0.1,0.7 0,1.5 0.8,2.8 2.2,2.8 1.1,0 1.8,-1 1.8,-2.4 z"
   id="path3793"
   inkscape:connector-curvature="0"
   style="fill:#454746" />
	<path
   d="m 727.4,454.2 c 0,3.8 -1.5,6.1 -4.3,6.1 -2.7,0 -4.1,-2.4 -4.2,-6 0,-3.6 1.5,-6.1 4.3,-6.1 2.9,0.1 4.2,2.6 4.2,6 z m -6.2,0.2 c 0,2.8 0.8,4.3 2,4.3 1.3,0 2,-1.6 2,-4.4 0,-2.7 -0.6,-4.3 -2,-4.3 -1.2,0 -2,1.4 -2,4.4 z"
   id="path3795"
   inkscape:connector-curvature="0"
   style="fill:#454746" />
</g>
<g
   id="g3797"
   transform="translate(-59.7,-28.4)">
	<g
   id="g3799">
		<line
   stroke-miterlimit="10"
   x1="166.3"
   y1="296.5"
   x2="168.3"
   y2="296.5"
   id="line3801"
   style="fill:none;stroke:#454746;stroke-miterlimit:10" />
		<line
   stroke-miterlimit="10"
   x1="172.3"
   y1="296.5"
   x2="346.29999"
   y2="296.5"
   id="line3803"
   style="fill:none;stroke:#454746;stroke-miterlimit:10;stroke-dasharray:4, 4" />
		<polyline
   stroke-miterlimit="10"
   points="348.3,296.5 350.3,296.5 350.3,298.5   "
   id="polyline3805"
   style="fill:none;stroke:#454746;stroke-miterlimit:10" />
		
			<line
   stroke-miterlimit="10"
   x1="350.29999"
   y1="302.39999"
   x2="350.29999"
   y2="434.20001"
   id="line3807"
   style="fill:none;stroke:#454746;stroke-miterlimit:10;stroke-dasharray:3.9333, 3.9333" />
		<line
   stroke-miterlimit="10"
   x1="350.29999"
   y1="436.20001"
   x2="350.29999"
   y2="438.20001"
   id="line3809"
   style="fill:none;stroke:#454746;stroke-miterlimit:10" />
	</g>
</g>
<line
   stroke-miterlimit="10"
   x1="352"
   y1="409.80002"
   x2="352"
   y2="128.10001"
   id="line3811"
   style="fill:none;stroke:#454746;stroke-miterlimit:10;stroke-dasharray:4" />
<line
   stroke-miterlimit="10"
   x1="413.29999"
   y1="409.80002"
   x2="413.29999"
   y2="128.10001"
   id="line3813"
   style="fill:none;stroke:#454746;stroke-miterlimit:10;stroke-dasharray:4" />
<g
   id="g3815"
   transform="translate(-59.7,-28.4)">
	<line
   stroke-miterlimit="10"
   x1="411.70001"
   y1="221.2"
   x2="473"
   y2="221.2"
   id="line3817"
   style="fill:none;stroke:#454746;stroke-width:4;stroke-miterlimit:10" />
	<line
   stroke-miterlimit="10"
   x1="473"
   y1="212.8"
   x2="473"
   y2="229.60001"
   id="line3819"
   style="fill:none;stroke:#454746;stroke-width:4;stroke-miterlimit:10" />
	<line
   stroke-miterlimit="10"
   x1="411.70001"
   y1="212.8"
   x2="411.70001"
   y2="229.60001"
   id="line3821"
   style="fill:none;stroke:#454746;stroke-width:4;stroke-miterlimit:10" />
</g>
<g
   id="g3823"
   transform="translate(-59.7,-28.4)">
	<line
   stroke-miterlimit="10"
   x1="350.29999"
   y1="397.5"
   x2="411.70001"
   y2="397.5"
   id="line3825"
   style="fill:none;stroke:#454746;stroke-width:4;stroke-miterlimit:10" />
	<line
   stroke-miterlimit="10"
   x1="411.70001"
   y1="389.10001"
   x2="411.70001"
   y2="405.89999"
   id="line3827"
   style="fill:none;stroke:#454746;stroke-width:4;stroke-miterlimit:10" />
	<line
   stroke-miterlimit="10"
   x1="350.29999"
   y1="389.10001"
   x2="350.29999"
   y2="405.89999"
   id="line3829"
   style="fill:none;stroke:#454746;stroke-width:4;stroke-miterlimit:10" />
</g>
<path
   stroke-miterlimit="10"
   d="m 106.6,390.1 c 184,-12.6 245.3,-262 245.3,-262"
   id="path3831"
   inkscape:connector-curvature="0"
   style="fill:none;stroke:#75b640;stroke-width:4;stroke-linecap:round;stroke-miterlimit:10" />
<path
   stroke-miterlimit="10"
   d="m 720.6,390.1 c -184,-12.6 -245.3,-262 -245.3,-262"
   id="path3833"
   inkscape:connector-curvature="0"
   style="fill:none;stroke:#75b640;stroke-width:4;stroke-linecap:round;stroke-miterlimit:10" />
<line
   stroke-miterlimit="10"
   x1="352"
   y1="128.10001"
   x2="229.3"
   y2="409.80002"
   id="line3835"
   style="fill:none;stroke:#3288d2;stroke-width:4;stroke-linecap:round;stroke-miterlimit:10" />
<line
   stroke-miterlimit="10"
   x1="475.29999"
   y1="128.10001"
   x2="598"
   y2="409.80002"
   id="line3837"
   style="fill:none;stroke:#3288d2;stroke-width:4;stroke-linecap:round;stroke-miterlimit:10" />
<path
   stroke-miterlimit="10"
   d="M 720.6,409.8 H 672.9 C 498.4,409.8 550.4,128.1 471.2,128.1 H 356 c -79.2,0 -27.2,281.7 -201.7,281.7 h -47.7"
   id="path3839"
   inkscape:connector-curvature="0"
   style="fill:none;stroke:#454746;stroke-width:4;stroke-linecap:round;stroke-miterlimit:10" />
<g
   id="g3841"
   transform="translate(-59.7,-28.4)">
	<g
   id="g3843">
		<path
   d="m 647.2,166.9 c 0.5,-1.6 1.3,-3.5 1.9,-4.6 l 1.3,-0.1 c -0.5,1.3 -0.9,3.1 -1.2,4.6 l -2,0.1 z m 3.1,0 c 0.5,-1.6 1.3,-3.5 1.9,-4.6 l 1.4,-0.1 c -0.5,1.3 -1,3.1 -1.2,4.6 l -2.1,0.1 z"
   id="path3845"
   inkscape:connector-curvature="0"
   style="fill:#454746" />
		<path
   d="m 662.1,165.7 c 0,0.6 -0.1,1.3 -0.1,2.5 v 5 c 0,1.8 -0.4,3.2 -1.3,4 -0.9,0.8 -2.2,1.1 -3.4,1.1 -1.1,0 -2.3,-0.2 -3.1,-0.7 l 0.5,-1.7 c 0.6,0.3 1.5,0.7 2.6,0.7 1.4,0 2.5,-0.8 2.5,-2.6 v -0.8 h 0 c -0.5,0.8 -1.4,1.3 -2.6,1.3 -2.2,0 -3.7,-1.8 -3.7,-4.3 0,-2.9 1.9,-4.6 4,-4.6 1.3,0 2.1,0.6 2.5,1.4 h 0 l 0.1,-1.2 h 2 z m -2.3,3.5 c 0,-0.2 0,-0.4 -0.1,-0.6 -0.2,-0.8 -0.9,-1.4 -1.8,-1.4 -1.2,0 -2.2,1.1 -2.2,2.9 0,1.5 0.8,2.7 2.1,2.7 0.8,0 1.5,-0.5 1.8,-1.3 0.1,-0.2 0.1,-0.5 0.1,-0.8 v -1.5 z"
   id="path3847"
   inkscape:connector-curvature="0"
   style="fill:#454746" />
		<path
   d="m 669.3,174.5 -0.1,-1 h -0.1 c -0.5,0.7 -1.5,1.2 -2.6,1.2 -1.8,0 -2.8,-1.3 -2.8,-2.6 0,-2.2 2,-3.3 5.2,-3.3 v -0.1 c 0,-0.6 -0.2,-1.5 -1.8,-1.5 -0.9,0 -1.8,0.3 -2.4,0.6 l -0.4,-1.4 c 0.6,-0.4 1.8,-0.8 3.2,-0.8 2.8,0 3.6,1.8 3.6,3.7 v 3.2 c 0,0.8 0,1.6 0.1,2.1 h -1.9 z m -0.3,-4.3 c -1.6,0 -3.1,0.3 -3.1,1.6 0,0.9 0.6,1.3 1.3,1.3 0.9,0 1.5,-0.6 1.7,-1.2 0.1,-0.2 0.1,-0.3 0.1,-0.5 v -1.2 z"
   id="path3849"
   inkscape:connector-curvature="0"
   style="fill:#454746" />
		<path
   d="m 681.4,171.9 c 0,1 0,1.9 0.1,2.6 h -1.9 l -0.1,-1.3 h 0 c -0.4,0.6 -1.2,1.5 -2.8,1.5 -1.6,0 -3.1,-1 -3.1,-3.8 v -5.1 h 2.2 v 4.8 c 0,1.5 0.5,2.4 1.6,2.4 0.9,0 1.5,-0.6 1.7,-1.2 0.1,-0.2 0.1,-0.4 0.1,-0.7 v -5.3 h 2.2 v 6.1 z"
   id="path3851"
   inkscape:connector-curvature="0"
   style="fill:#454746" />
		<path
   d="m 683.7,172.5 c 0.5,0.3 1.5,0.6 2.3,0.6 1,0 1.4,-0.4 1.4,-1 0,-0.6 -0.4,-0.9 -1.4,-1.3 -1.7,-0.6 -2.4,-1.5 -2.4,-2.6 0,-1.5 1.3,-2.8 3.3,-2.8 1,0 1.8,0.3 2.3,0.5 l -0.4,1.6 c -0.4,-0.2 -1.1,-0.5 -1.9,-0.5 -0.8,0 -1.2,0.4 -1.2,0.9 0,0.6 0.4,0.8 1.5,1.2 1.6,0.6 2.3,1.4 2.3,2.7 0,1.6 -1.2,2.7 -3.6,2.7 -1.1,0 -2,-0.3 -2.7,-0.6 l 0.5,-1.4 z"
   id="path3853"
   inkscape:connector-curvature="0"
   style="fill:#454746" />
		<path
   d="m 691.2,172.5 c 0.5,0.3 1.5,0.6 2.3,0.6 1,0 1.4,-0.4 1.4,-1 0,-0.6 -0.4,-0.9 -1.4,-1.3 -1.7,-0.6 -2.4,-1.5 -2.4,-2.6 0,-1.5 1.3,-2.8 3.3,-2.8 1,0 1.8,0.3 2.3,0.5 l -0.4,1.6 c -0.4,-0.2 -1.1,-0.5 -1.9,-0.5 -0.8,0 -1.2,0.4 -1.2,0.9 0,0.6 0.4,0.8 1.5,1.2 1.6,0.6 2.3,1.4 2.3,2.7 0,1.6 -1.2,2.7 -3.6,2.7 -1.1,0 -2,-0.3 -2.7,-0.6 l 0.5,-1.4 z"
   id="path3855"
   inkscape:connector-curvature="0"
   style="fill:#454746" />
		<path
   d="m 701.2,162.2 c -0.5,1.6 -1.3,3.5 -1.9,4.6 l -1.4,0.1 c 0.5,-1.3 0.9,-3.1 1.2,-4.6 l 2.1,-0.1 z m 3.1,0 c -0.5,1.6 -1.3,3.5 -1.9,4.6 l -1.4,0.1 c 0.5,-1.3 1,-3.1 1.2,-4.6 l 2.1,-0.1 z"
   id="path3857"
   inkscape:connector-curvature="0"
   style="fill:#454746" />
		<path
   d="m 663.6,188.5 c 0.5,-1.6 1.3,-3.5 1.9,-4.6 l 1.3,-0.1 c -0.5,1.3 -0.9,3.1 -1.2,4.6 l -2,0.1 z m 3.2,0 c 0.5,-1.6 1.3,-3.5 1.9,-4.6 l 1.4,-0.1 c -0.5,1.3 -1,3.1 -1.2,4.6 l -2.1,0.1 z"
   id="path3859"
   inkscape:connector-curvature="0"
   style="fill:#454746" />
		<path
   d="m 672.1,192.3 c 0.1,1.6 1.3,2.3 2.7,2.3 1,0 1.8,-0.1 2.4,-0.4 l 0.3,1.5 c -0.8,0.3 -1.8,0.5 -3.1,0.5 -2.8,0 -4.5,-1.7 -4.5,-4.4 0,-2.4 1.5,-4.7 4.3,-4.7 2.8,0 3.8,2.3 3.8,4.3 0,0.4 0,0.7 -0.1,0.9 h -5.8 z m 3.8,-1.5 c 0,-0.8 -0.3,-2.1 -1.8,-2.1 -1.4,0 -1.9,1.2 -2,2.1 h 3.8 z"
   id="path3861"
   inkscape:connector-curvature="0"
   style="fill:#454746" />
		<path
   d="m 681.1,187.3 1,1.7 c 0.3,0.5 0.5,0.9 0.8,1.4 h 0.1 c 0.3,-0.5 0.5,-0.9 0.8,-1.4 l 1,-1.6 h 2.4 l -2.9,4.2 3,4.6 h -2.5 l -1.1,-1.7 c -0.3,-0.5 -0.5,-0.9 -0.8,-1.4 h 0 c -0.3,0.5 -0.5,0.9 -0.8,1.4 l -1,1.7 h -2.4 l 3,-4.5 -2.9,-4.3 h 2.3 z"
   id="path3863"
   inkscape:connector-curvature="0"
   style="fill:#454746" />
		<path
   d="m 688.5,190.2 c 0,-1.2 0,-2.1 -0.1,-2.9 h 1.9 l 0.1,1.3 h 0 c 0.6,-1 1.7,-1.5 3,-1.5 2,0 3.7,1.7 3.7,4.5 0,3.2 -2,4.7 -4,4.7 -1.1,0 -2,-0.5 -2.5,-1.2 h 0 v 4.5 h -2.2 v -9.4 z m 2.2,2.2 c 0,0.2 0,0.4 0.1,0.6 0.2,0.9 1,1.5 1.9,1.5 1.4,0 2.2,-1.2 2.2,-2.9 0,-1.5 -0.8,-2.8 -2.2,-2.8 -0.9,0 -1.8,0.7 -2,1.6 -0.1,0.2 -0.1,0.4 -0.1,0.6 v 1.4 z"
   id="path3865"
   inkscape:connector-curvature="0"
   style="fill:#454746" />
		<path
   d="m 701.2,183.8 c -0.5,1.6 -1.3,3.5 -1.9,4.6 l -1.4,0.1 c 0.5,-1.3 0.9,-3.1 1.2,-4.6 l 2.1,-0.1 z m 3.1,0 c -0.5,1.6 -1.3,3.5 -1.9,4.6 l -1.4,0.1 c 0.5,-1.3 1,-3.1 1.2,-4.6 l 2.1,-0.1 z"
   id="path3867"
   inkscape:connector-curvature="0"
   style="fill:#454746" />
		<path
   d="m 671.4,210.1 c 0.5,-1.6 1.3,-3.5 1.9,-4.6 l 1.3,-0.1 c -0.5,1.3 -0.9,3.1 -1.2,4.6 l -2,0.1 z m 3.2,0 c 0.5,-1.6 1.3,-3.5 1.9,-4.6 l 1.4,-0.1 c -0.5,1.3 -1,3.1 -1.2,4.6 l -2.1,0.1 z"
   id="path3869"
   inkscape:connector-curvature="0"
   style="fill:#454746" />
		<path
   d="m 679.5,204.9 h 2.2 v 12.8 h -2.2 v -12.8 z"
   id="path3871"
   inkscape:connector-curvature="0"
   style="fill:#454746" />
		<path
   d="m 686.5,206.5 c 0,0.7 -0.5,1.2 -1.3,1.2 -0.7,0 -1.2,-0.5 -1.2,-1.2 0,-0.7 0.5,-1.2 1.2,-1.2 0.8,0 1.3,0.5 1.3,1.2 z m -2.4,11.2 v -8.8 h 2.2 v 8.8 h -2.2 z"
   id="path3873"
   inkscape:connector-curvature="0"
   style="fill:#454746" />
		<path
   d="m 688.8,211.5 c 0,-1 0,-1.9 -0.1,-2.6 h 1.9 l 0.1,1.3 h 0.1 c 0.4,-0.7 1.3,-1.5 2.8,-1.5 1.5,0 3.1,1 3.1,3.8 v 5.2 h -2.2 v -5 c 0,-1.3 -0.5,-2.2 -1.7,-2.2 -0.9,0 -1.5,0.6 -1.7,1.3 -0.1,0.2 -0.1,0.5 -0.1,0.7 v 5.1 h -2.2 v -6.1 z"
   id="path3875"
   inkscape:connector-curvature="0"
   style="fill:#454746" />
		<path
   d="m 701.2,205.4 c -0.5,1.6 -1.3,3.5 -1.9,4.6 l -1.4,0.1 c 0.5,-1.3 0.9,-3.1 1.2,-4.6 l 2.1,-0.1 z m 3.1,0 c -0.5,1.6 -1.3,3.5 -1.9,4.6 l -1.4,0.1 c 0.5,-1.3 1,-3.1 1.2,-4.6 l 2.1,-0.1 z"
   id="path3877"
   inkscape:connector-curvature="0"
   style="fill:#454746" />
	</g>
	
		<line
   stroke-miterlimit="10"
   x1="716.20001"
   y1="169.5"
   x2="744.20001"
   y2="169.5"
   id="line3879"
   style="fill:none;stroke:#454746;stroke-width:5;stroke-linecap:round;stroke-miterlimit:10" />
	
		<line
   stroke-miterlimit="10"
   x1="716.20001"
   y1="191"
   x2="744.20001"
   y2="191"
   id="line3881"
   style="fill:none;stroke:#75b640;stroke-width:5;stroke-linecap:round;stroke-miterlimit:10" />
	
		<line
   stroke-miterlimit="10"
   x1="716.20001"
   y1="212.60001"
   x2="744.20001"
   y2="212.60001"
   id="line3883"
   style="fill:none;stroke:#3288d2;stroke-width:5;stroke-linecap:round;stroke-miterlimit:10" />
</g>
<g
   id="g3885"
   transform="translate(-59.7,-28.4)">
	<path
   d="m 558.1,506.1 c 0,3.6 -2.5,7.3 -6.4,7.3 -2.9,0 -4.5,-2.2 -4.5,-4.8 0,-3.8 2.7,-7.4 6.4,-7.4 3.1,0.1 4.5,2.5 4.5,4.9 z m -8.9,2.5 c 0,1.9 1,3.3 2.7,3.3 2.4,0 4.1,-3 4.1,-5.7 0,-1.3 -0.6,-3.2 -2.7,-3.2 -2.5,-0.1 -4.2,2.9 -4.1,5.6 z"
   id="path3887"
   inkscape:connector-curvature="0"
   style="fill:#666666" />
	<path
   d="m 559.5,513.2 1.4,-7.5 c 0.3,-1.5 0.5,-3 0.6,-4.1 h 1.8 c -0.1,0.8 -0.2,1.6 -0.3,2.5 h 0.1 c 0.7,-1.6 2,-2.8 3.6,-2.8 0.2,0 0.4,0 0.6,0 l -0.4,2 c -0.1,0 -0.3,0 -0.5,0 -1.7,0 -3.3,2.1 -3.8,4.8 l -1,5.1 h -2.1 z"
   id="path3889"
   inkscape:connector-curvature="0"
   style="fill:#666666" />
	<path
   d="m 567.1,513.2 2.2,-11.6 h 2 l -2.2,11.6 h -2 z m 2.6,-14.9 c 0,-0.8 0.6,-1.3 1.3,-1.3 0.7,0 1.2,0.5 1.2,1.2 0,0.8 -0.6,1.3 -1.3,1.3 -0.8,0.1 -1.2,-0.5 -1.2,-1.2 z"
   id="path3891"
   inkscape:connector-curvature="0"
   style="fill:#666666" />
	<path
   d="m 572.7,515.8 c 0.7,0.4 1.8,0.8 3.1,0.8 1.9,0 3.5,-1 4.2,-4.2 l 0.4,-1.7 h -0.1 c -1,1.7 -2.4,2.5 -4,2.5 -2.3,0 -3.5,-2 -3.5,-4 0,-3.9 2.9,-7.8 7.4,-7.8 1.3,0 2.8,0.4 3.7,0.8 l -1.8,9.6 c -0.5,2.4 -1.1,4.2 -2.4,5.2 -1.2,1 -2.7,1.3 -4.1,1.3 -1.4,0 -2.7,-0.3 -3.5,-0.8 l 0.6,-1.7 z m 8.9,-12.5 c -0.4,-0.2 -1.1,-0.4 -1.9,-0.4 -2.9,0 -4.9,3 -4.9,5.9 0,1.3 0.5,2.8 2.2,2.8 1.7,0 3.4,-2.2 3.9,-4.4 l 0.7,-3.9 z"
   id="path3893"
   inkscape:connector-curvature="0"
   style="fill:#666666" />
	<path
   d="m 585.2,513.2 2.2,-11.6 h 2 l -2.2,11.6 h -2 z m 2.6,-14.9 c 0,-0.8 0.6,-1.3 1.3,-1.3 0.7,0 1.2,0.5 1.2,1.2 0,0.8 -0.6,1.3 -1.3,1.3 -0.8,0.1 -1.2,-0.5 -1.2,-1.2 z"
   id="path3895"
   inkscape:connector-curvature="0"
   style="fill:#666666" />
	<path
   d="m 590.7,513.2 1.6,-8.2 c 0.3,-1.3 0.4,-2.4 0.6,-3.4 h 1.8 l -0.3,2.3 h 0 c 1,-1.6 2.6,-2.5 4.3,-2.5 1.4,0 3,0.8 3,3.2 0,0.5 -0.1,1.2 -0.2,1.9 l -1.3,6.8 h -2 l 1.3,-6.7 c 0.1,-0.5 0.2,-1 0.2,-1.5 0,-1.2 -0.5,-2 -1.8,-2 -1.4,0 -3.4,1.7 -4,4.6 l -1.1,5.6 h -2.1 z"
   id="path3897"
   inkscape:connector-curvature="0"
   style="fill:#666666" />
</g>
<g
   id="g3899"
   transform="translate(-59.7,-28.4)">
	<path
   d="m 239.5,504.8 c 0.6,0.3 1.6,0.7 2.5,0.7 1.3,0 2.2,-0.9 2.2,-1.9 0,-0.9 -0.4,-1.5 -1.6,-2.1 -1.3,-0.7 -2.1,-1.8 -2.1,-3 0,-2 1.8,-3.6 4.2,-3.6 1.1,0 2,0.3 2.4,0.6 l -0.6,1.5 c -0.4,-0.2 -1.2,-0.5 -2,-0.5 -1.2,0 -2.1,0.7 -2.1,1.8 0,0.8 0.6,1.4 1.6,1.9 1.3,0.7 2.2,1.8 2.2,3 0,2.4 -2,3.8 -4.4,3.8 -1.2,0 -2.4,-0.4 -2.9,-0.8 l 0.6,-1.4 z"
   id="path3901"
   inkscape:connector-curvature="0"
   style="fill:#666666" />
	<path
   d="m 256.3,506.4 c -0.6,0.3 -1.8,0.7 -3.4,0.7 -3,0 -4.5,-2 -4.5,-4.5 0,-4 2.9,-7.6 7.1,-7.6 1.1,0 2.1,0.3 2.4,0.5 l -0.6,1.6 c -0.5,-0.2 -1.1,-0.4 -2,-0.4 -3,0 -4.9,3 -4.9,5.7 0,1.9 1,3.1 2.9,3.1 1.2,0 2.1,-0.4 2.7,-0.6 l 0.3,1.5 z"
   id="path3903"
   inkscape:connector-curvature="0"
   style="fill:#666666" />
	<path
   d="m 265.8,506.8 c 0,-0.7 0.1,-1.8 0.3,-3 h 0 c -1.3,2.4 -2.9,3.3 -4.5,3.3 -2,0 -3.3,-1.6 -3.3,-3.8 0,-4 3,-8.3 8,-8.3 1.1,0 2.3,0.2 3.1,0.5 l -1.2,6 c -0.4,2 -0.6,4.1 -0.5,5.4 h -1.9 z m 1.3,-10.1 c -0.3,-0.1 -0.7,-0.2 -1.4,-0.2 -3,0 -5.4,3.1 -5.5,6.4 0,1.3 0.5,2.6 2,2.6 1.7,0 3.6,-2.2 4.2,-5.3 l 0.7,-3.5 z"
   id="path3905"
   inkscape:connector-curvature="0"
   style="fill:#666666" />
	<path
   d="m 270.7,506.8 3.2,-17 h 2 l -3.3,17 h -1.9 z"
   id="path3907"
   inkscape:connector-curvature="0"
   style="fill:#666666" />
	<path
   d="m 284.5,506.2 c -0.9,0.5 -2.3,0.9 -3.8,0.9 -3.1,0 -4.4,-2.1 -4.4,-4.7 0,-3.5 2.6,-7.5 6.3,-7.5 2.2,0 3.4,1.3 3.4,3 0,3 -3.4,3.9 -7.7,3.8 -0.1,0.5 0,1.6 0.2,2.2 0.5,1 1.4,1.6 2.6,1.6 1.4,0 2.4,-0.4 3.1,-0.8 l 0.3,1.5 z m -2.2,-9.7 c -1.9,0 -3.3,1.8 -3.8,3.7 3.1,0 5.6,-0.4 5.6,-2.2 0,-1 -0.7,-1.5 -1.8,-1.5 z"
   id="path3909"
   inkscape:connector-curvature="0"
   style="fill:#666666" />
</g>
<g
   id="g3911"
   transform="translate(-59.7,-28.4)">
	<path
   d="m 222,210 -2.5,13.4 c -0.2,1.2 -0.4,2.5 -0.5,3.7 h -1.8 l 0.3,-2.3 h 0 c -1.1,1.7 -2.5,2.6 -4.2,2.6 -2.3,0 -3.5,-1.8 -3.5,-4.2 0,-4.1 3.1,-7.9 7.2,-7.9 0.7,0 1.6,0.2 2.1,0.4 l 1,-5.6 h 1.9 z m -3.3,7.2 c -0.4,-0.3 -1.1,-0.5 -1.9,-0.5 -2.8,0 -4.9,3 -4.9,6 0,1.4 0.5,2.9 2.2,2.9 1.5,0 3.4,-1.8 3.9,-4.4 l 0.7,-4 z"
   id="path3913"
   inkscape:connector-curvature="0"
   style="fill:#666666" />
	<path
   d="m 230.7,226.3 c -0.9,0.5 -2.3,0.9 -3.8,0.9 -3.1,0 -4.4,-2.1 -4.4,-4.7 0,-3.5 2.6,-7.5 6.3,-7.5 2.2,0 3.4,1.3 3.4,3 0,3 -3.4,3.9 -7.7,3.8 -0.1,0.5 0,1.6 0.2,2.2 0.5,1 1.4,1.6 2.6,1.6 1.4,0 2.4,-0.4 3.1,-0.8 l 0.3,1.5 z m -2.2,-9.6 c -1.9,0 -3.3,1.8 -3.8,3.7 3.1,0 5.6,-0.4 5.6,-2.2 -0.1,-1 -0.8,-1.5 -1.8,-1.5 z"
   id="path3915"
   inkscape:connector-curvature="0"
   style="fill:#666666" />
	<path
   d="m 241.2,226.5 c -0.6,0.3 -1.8,0.7 -3.4,0.7 -3,0 -4.5,-2 -4.5,-4.5 0,-4 2.9,-7.6 7.1,-7.6 1.1,0 2.1,0.3 2.4,0.5 l -0.6,1.6 c -0.5,-0.2 -1.1,-0.4 -2,-0.4 -3,0 -4.9,3 -4.9,5.7 0,1.9 1,3.1 2.9,3.1 1.2,0 2.1,-0.4 2.7,-0.6 l 0.3,1.5 z"
   id="path3917"
   inkscape:connector-curvature="0"
   style="fill:#666666" />
	<path
   d="m 250.7,227 c 0,-0.7 0.1,-1.8 0.3,-3 h 0 c -1.3,2.4 -2.9,3.3 -4.5,3.3 -2,0 -3.3,-1.6 -3.3,-3.8 0,-4 3,-8.3 8,-8.3 1.1,0 2.3,0.2 3.1,0.5 l -1.2,6 c -0.4,2 -0.6,4.1 -0.5,5.4 h -1.9 z m 1.2,-10.1 c -0.3,-0.1 -0.7,-0.2 -1.4,-0.2 -3,0 -5.4,3.1 -5.5,6.4 0,1.3 0.5,2.6 2,2.6 1.7,0 3.6,-2.2 4.2,-5.3 l 0.7,-3.5 z"
   id="path3919"
   inkscape:connector-curvature="0"
   style="fill:#666666" />
	<path
   d="m 258,215.4 1.2,6.3 c 0.3,1.3 0.4,2.2 0.5,3 h 0 c 0.3,-0.7 0.6,-1.6 1.2,-2.8 l 3,-6.5 h 2.1 l -4.3,8.8 c -1.2,2.5 -2.4,4.6 -4,6.1 -1.3,1.3 -2.7,1.9 -3.4,2 l -0.5,-1.7 c 0.5,-0.2 1.3,-0.5 2.1,-1.1 0.8,-0.6 1.6,-1.5 2.2,-2.7 0.1,-0.2 0.1,-0.3 0.1,-0.5 l -2.3,-10.9 h 2.1 z"
   id="path3921"
   inkscape:connector-curvature="0"
   style="fill:#666666" />
</g>
<g
   id="g3923"
   transform="translate(-59.7,-28.4)">
	<path
   d="m 395.5,88.5 c 0,3.6 -2.5,7.3 -6.4,7.3 -2.9,0 -4.5,-2.2 -4.5,-4.8 0,-3.8 2.7,-7.4 6.4,-7.4 3.1,0 4.5,2.4 4.5,4.9 z m -8.9,2.4 c 0,1.9 1,3.3 2.7,3.3 2.4,0 4.1,-3 4.1,-5.7 0,-1.3 -0.6,-3.2 -2.7,-3.2 -2.5,-0.1 -4.1,3 -4.1,5.6 z"
   id="path3925"
   inkscape:connector-curvature="0"
   style="fill:#666666" />
	<path
   d="m 412,80.1 c -0.3,-0.1 -0.7,-0.2 -1.2,-0.2 -1.6,0 -2.4,1.5 -2.7,3.5 L 408,84 h 2.6 l -0.3,1.6 h -2.6 l -1.9,10.1 h -2 l 1.9,-10.1 H 401 l -1.9,10.1 h -2 L 399,85.6 h -1.5 l 0.3,-1.6 h 1.6 l 0.1,-0.5 c 0.3,-1.4 0.8,-2.8 1.8,-3.8 0.7,-0.7 1.6,-1.1 2.8,-1.1 0.6,0 1.1,0.1 1.5,0.3 l -0.6,1.6 c -0.2,-0.1 -0.6,-0.2 -1,-0.2 -1.6,0 -2.2,1.6 -2.5,3.3 l -0.1,0.5 h 4.7 l 0.1,-0.6 c 0.3,-1.6 0.9,-3.1 1.9,-4.1 0.7,-0.7 1.8,-1 2.8,-1 0.8,0 1.3,0.1 1.6,0.3 l -0.5,1.4 z"
   id="path3927"
   inkscape:connector-curvature="0"
   style="fill:#666666" />
	<path
   d="m 410.4,93.5 c 0.6,0.3 1.6,0.7 2.5,0.7 1.3,0 2.2,-0.9 2.2,-1.9 0,-0.9 -0.4,-1.5 -1.6,-2.1 -1.3,-0.7 -2.1,-1.8 -2.1,-3 0,-2 1.8,-3.6 4.2,-3.6 1.1,0 2,0.3 2.4,0.6 l -0.6,1.5 c -0.4,-0.2 -1.2,-0.5 -2,-0.5 -1.2,0 -2.1,0.7 -2.1,1.8 0,0.8 0.6,1.4 1.6,1.9 1.3,0.7 2.2,1.8 2.2,3 0,2.4 -2,3.8 -4.4,3.8 -1.2,0 -2.4,-0.4 -2.9,-0.8 l 0.6,-1.4 z"
   id="path3929"
   inkscape:connector-curvature="0"
   style="fill:#666666" />
	<path
   d="m 427.7,94.8 c -0.9,0.5 -2.3,0.9 -3.8,0.9 -3.1,0 -4.4,-2.1 -4.4,-4.7 0,-3.5 2.6,-7.5 6.3,-7.5 2.2,0 3.4,1.3 3.4,3 0,3 -3.4,3.9 -7.7,3.8 -0.1,0.5 0,1.6 0.2,2.2 0.5,1 1.4,1.6 2.6,1.6 1.4,0 2.4,-0.4 3.1,-0.8 l 0.3,1.5 z m -2.2,-9.6 c -1.9,0 -3.3,1.8 -3.8,3.7 3.1,0 5.6,-0.4 5.6,-2.2 -0.1,-1 -0.8,-1.5 -1.8,-1.5 z"
   id="path3931"
   inkscape:connector-curvature="0"
   style="fill:#666666" />
	<path
   d="m 435.4,80.8 -0.6,3.1 h 2.8 l -0.3,1.6 h -2.8 l -1.1,5.6 c -0.1,0.6 -0.2,1.2 -0.2,1.9 0,0.7 0.3,1.1 1.1,1.1 0.3,0 0.7,0 0.9,-0.1 l -0.1,1.6 c -0.4,0.1 -1,0.2 -1.5,0.2 -1.8,0 -2.4,-1.1 -2.4,-2.3 0,-0.7 0.1,-1.3 0.2,-2.2 l 1.2,-5.9 h -1.7 l 0.3,-1.6 h 1.7 l 0.5,-2.6 2,-0.4 z"
   id="path3933"
   inkscape:connector-curvature="0"
   style="fill:#666666" />
</g>
<g
   id="g3935"
   transform="translate(-59.7,-28.4)">
	<g
   id="g3937">
		<path
   stroke-miterlimit="10"
   d="m 414.3,104.5 c 0,12.4 23.8,38.3 27.6,93.3"
   id="path3939"
   inkscape:connector-curvature="0"
   style="fill:none;stroke:#454746;stroke-width:1.60000002;stroke-linecap:round;stroke-miterlimit:10" />
		<g
   id="g3941">
			<path
   d="m 442.3,205.5 c -1.6,-3.5 -4.1,-7.9 -6.7,-10.6 l 6.2,1.8 5.9,-2.6 c -2.2,3.1 -4.2,7.7 -5.4,11.4 z"
   id="path3943"
   inkscape:connector-curvature="0"
   style="fill:#454746" />
		</g>
	</g>
</g>
<g
   id="g3945"
   transform="translate(-59.7,-28.4)">
	<g
   id="g3947">
		<path
   stroke-miterlimit="10"
   d="m 234.5,237.5 c 0,25.3 -28.6,21.4 -49,42.7"
   id="path3949"
   inkscape:connector-curvature="0"
   style="fill:none;stroke:#454746;stroke-width:1.60000002;stroke-linecap:round;stroke-miterlimit:10" />
		<g
   id="g3951">
			<path
   d="m 180.5,286.2 c 1.3,-3.6 2.5,-8.6 2.4,-12.3 l 3.2,5.6 6.1,2.3 c -3.6,0.5 -8.3,2.5 -11.7,4.4 z"
   id="path3953"
   inkscape:connector-curvature="0"
   style="fill:#454746" />
		</g>
	</g>
</g>
<g
   id="g3955"
   transform="translate(-59.7,-28.4)">
	<g
   id="g3957">
		<path
   stroke-miterlimit="10"
   d="m 262.7,482.8 c 3.7,-21.9 92.1,-45.2 114,-67.9"
   id="path3959"
   inkscape:connector-curvature="0"
   style="fill:none;stroke:#454746;stroke-width:1.60000002;stroke-linecap:round;stroke-miterlimit:10" />
		<g
   id="g3961">
			<path
   d="m 381,408.5 c -1,3.8 -1.6,8.8 -1.2,12.5 l -3.8,-5.3 -6.3,-1.7 c 3.7,-0.9 8.1,-3.3 11.3,-5.5 z"
   id="path3963"
   inkscape:connector-curvature="0"
   style="fill:#454746" />
		</g>
	</g>
</g>
<g
   id="g3965"
   transform="translate(-59.7,-28.4)">
	<g
   id="g3967">
		<path
   stroke-miterlimit="10"
   d="m 569.7,489.5 c -11.2,-22 -49.4,-25 -78.3,-43"
   id="path3969"
   inkscape:connector-curvature="0"
   style="fill:none;stroke:#454746;stroke-width:1.60000002;stroke-linecap:round;stroke-miterlimit:10" />
		<g
   id="g3971">
			<path
   d="m 485,442.2 c 3.8,0.9 8.8,1.5 12.5,1 l -5.2,3.8 -1.6,6.3 c -1,-3.6 -3.4,-8 -5.7,-11.1 z"
   id="path3973"
   inkscape:connector-curvature="0"
   style="fill:#454746" />
		</g>
	</g>
</g>
</svg>