<?xml version="1.0" encoding="UTF-8" standalone="no"?>
<!-- Generator: Adobe Illustrator 18.0.0, SVG Export Plug-In . SVG Version: 6.00 Build 0)  -->

<svg
   xmlns:dc="http://purl.org/dc/elements/1.1/"
   xmlns:cc="http://creativecommons.org/ns#"
   xmlns:rdf="http://www.w3.org/1999/02/22-rdf-syntax-ns#"
   xmlns:svg="http://www.w3.org/2000/svg"
   xmlns="http://www.w3.org/2000/svg"
   xmlns:sodipodi="http://sodipodi.sourceforge.net/DTD/sodipodi-0.dtd"
   xmlns:inkscape="http://www.inkscape.org/namespaces/inkscape"
   version="1.1"
   id="graphs"
   x="0px"
   y="0px"
   viewBox="0 0 650.3 457"
   enable-background="new 0 0 900 600"
   xml:space="preserve"
   inkscape:version="0.48.2 r9819"
   width="100%"
   height="100%"
   sodipodi:docname="170_01_query.svg"><metadata
   id="metadata141"><rdf:RDF><cc:Work
       rdf:about=""><dc:format>image/svg+xml</dc:format><dc:type
         rdf:resource="http://purl.org/dc/dcmitype/StillImage" /></cc:Work></rdf:RDF></metadata><defs
   id="defs139" /><sodipodi:namedview
   pagecolor="#ffffff"
   bordercolor="#666666"
   borderopacity="1"
   objecttolerance="10"
   gridtolerance="10"
   guidetolerance="10"
   inkscape:pageopacity="0"
   inkscape:pageshadow="2"
   inkscape:window-width="640"
   inkscape:window-height="480"
   id="namedview137"
   showgrid="false"
   fit-margin-top="50"
   fit-margin-left="30"
   fit-margin-right="50"
   fit-margin-bottom="30"
   inkscape:zoom="0.39111111"
   inkscape:cx="332.2"
   inkscape:cy="220.5"
   inkscape:window-x="0"
   inkscape:window-y="0"
   inkscape:window-maximized="0"
   inkscape:current-layer="graphs" />
<path
   d="m 597.3,362.5 h -504 c -1.6,0 -3,-1.4 -3,-3 v -304 c 0,-1.7 1.4,-3 3,-3 h 504 c 1.7,0 3,1.3 3,3 v 304 c 0,1.7 -1.3,3 -3,3 z"
   id="path3"
   inkscape:connector-curvature="0"
   style="fill:#f8faf6" />
<g
   id="g5"
   transform="translate(-117.8,-63.5)">
	<line
   stroke-miterlimit="10"
   x1="213.10001"
   y1="120.5"
   x2="213.10001"
   y2="420.5"
   id="line7"
   style="fill:none;stroke:#d6d6d6;stroke-miterlimit:10" />
	<line
   stroke-miterlimit="10"
   x1="313.10001"
   y1="120.5"
   x2="313.10001"
   y2="420.5"
   id="line9"
   style="fill:none;stroke:#d6d6d6;stroke-miterlimit:10" />
	<line
   stroke-miterlimit="10"
   x1="413.10001"
   y1="120.5"
   x2="413.10001"
   y2="420.5"
   id="line11"
   style="fill:none;stroke:#d6d6d6;stroke-miterlimit:10" />
	<line
   stroke-miterlimit="10"
   x1="513.09998"
   y1="120.5"
   x2="513.09998"
   y2="420.5"
   id="line13"
   style="fill:none;stroke:#d6d6d6;stroke-miterlimit:10" />
	<line
   stroke-miterlimit="10"
   x1="613.09998"
   y1="120.5"
   x2="613.09998"
   y2="420.5"
   id="line15"
   style="fill:none;stroke:#d6d6d6;stroke-miterlimit:10" />
	<line
   stroke-miterlimit="10"
   x1="713.09998"
   y1="120.5"
   x2="713.09998"
   y2="420.5"
   id="line17"
   style="fill:none;stroke:#d6d6d6;stroke-miterlimit:10" />
	<line
   stroke-miterlimit="10"
   x1="213.10001"
   y1="120.5"
   x2="713.09998"
   y2="120.5"
   id="line19"
   style="fill:none;stroke:#d6d6d6;stroke-miterlimit:10" />
	<line
   stroke-miterlimit="10"
   x1="213.10001"
   y1="220.5"
   x2="713.09998"
   y2="220.5"
   id="line21"
   style="fill:none;stroke:#d6d6d6;stroke-miterlimit:10" />
	<line
   stroke-miterlimit="10"
   x1="213.10001"
   y1="320.5"
   x2="713.09998"
   y2="320.5"
   id="line23"
   style="fill:none;stroke:#d6d6d6;stroke-miterlimit:10" />
	<line
   stroke-miterlimit="10"
   x1="213.10001"
   y1="420.5"
   x2="713.09998"
   y2="420.5"
   id="line25"
   style="fill:none;stroke:#d6d6d6;stroke-miterlimit:10" />
</g>
<g
   id="g27"
   transform="translate(-117.8,-63.5)">
	<path
   d="m 217.3,438.6 c 0,3.8 -1.5,6.1 -4.3,6.1 -2.7,0 -4.1,-2.4 -4.2,-6 0,-3.6 1.5,-6.1 4.3,-6.1 2.9,0 4.2,2.5 4.2,6 z m -6.1,0.1 c 0,2.8 0.8,4.3 2,4.3 1.3,0 2,-1.6 2,-4.4 0,-2.7 -0.6,-4.3 -2,-4.3 -1.2,0 -2.1,1.5 -2,4.4 z"
   id="path29"
   inkscape:connector-curvature="0"
   style="fill:#454746" />
</g>
<g
   id="g31"
   transform="translate(-117.8,-63.5)">
	<path
   d="m 312.6,434.8 0,0 -2.2,1.1 -0.4,-1.7 2.8,-1.4 h 1.9 v 11.7 h -2.1 v -9.7 z"
   id="path33"
   inkscape:connector-curvature="0"
   style="fill:#454746" />
</g>
<g
   id="g35"
   transform="translate(-117.8,-63.5)">
	<path
   d="m 409.1,444.5 v -1.4 l 1.4,-1.3 c 2.8,-2.6 4.1,-4 4.1,-5.5 0,-1 -0.6,-2 -2.1,-2 -1,0 -1.9,0.5 -2.5,1 l -0.6,-1.6 c 0.8,-0.7 2.1,-1.2 3.6,-1.2 2.6,0 3.9,1.6 3.9,3.5 0,2.1 -1.5,3.7 -3.5,5.6 l -1,0.9 v 0 h 4.8 v 1.8 h -8.1 z"
   id="path37"
   inkscape:connector-curvature="0"
   style="fill:#454746" />
</g>
<g
   id="g39"
   transform="translate(-117.8,-63.5)">
	<path
   d="m 509.5,442.2 c 0.5,0.3 1.5,0.7 2.7,0.7 1.7,0 2.4,-1 2.4,-1.9 0,-1.4 -1.3,-2 -2.6,-2 h -1 v -1.6 h 1 c 1,0 2.3,-0.5 2.3,-1.6 0,-0.8 -0.6,-1.5 -1.9,-1.5 -1,0 -1.9,0.4 -2.4,0.7 l -0.5,-1.6 c 0.7,-0.5 2,-0.9 3.4,-0.9 2.4,0 3.7,1.3 3.7,2.9 0,1.2 -0.7,2.2 -2.2,2.7 v 0 c 1.4,0.3 2.6,1.3 2.6,2.9 0,2 -1.7,3.5 -4.6,3.5 -1.4,0 -2.6,-0.4 -3.3,-0.8 l 0.4,-1.5 z"
   id="path41"
   inkscape:connector-curvature="0"
   style="fill:#454746" />
</g>
<g
   id="g43"
   transform="translate(-117.8,-63.5)">
	<path
   d="m 614,444.5 v -3 h -5.3 v -1.4 l 4.8,-7.3 h 2.6 v 7.1 h 1.5 v 1.7 h -1.5 v 3 H 614 z m 0,-4.6 v -3.2 c 0,-0.7 0,-1.4 0.1,-2 H 614 c -0.4,0.7 -0.7,1.3 -1,2 l -2.1,3.2 0,0 h 3.1 z"
   id="path45"
   inkscape:connector-curvature="0"
   style="fill:#454746" />
</g>
<g
   id="g47"
   transform="translate(-117.8,-63.5)">
	<path
   d="M 716.5,434.6 H 712 l -0.3,2.3 c 0.3,0 0.5,-0.1 0.8,-0.1 1,0 2.1,0.2 2.8,0.8 0.9,0.6 1.5,1.5 1.5,3 0,2.2 -1.9,4.1 -4.7,4.1 -1.4,0 -2.5,-0.3 -3.1,-0.7 l 0.5,-1.7 c 0.5,0.3 1.5,0.6 2.6,0.6 1.3,0 2.5,-0.7 2.5,-2.1 0,-1.3 -1,-2.2 -3.3,-2.2 -0.6,0 -1.1,0 -1.6,0.1 l 0.8,-5.9 h 6 v 1.8 z"
   id="path49"
   inkscape:connector-curvature="0"
   style="fill:#454746" />
</g>
<g
   id="g51"
   transform="translate(-117.8,-63.5)">
	<path
   d="m 192.5,123.2 c 0.5,0.3 1.5,0.7 2.7,0.7 1.7,0 2.4,-1 2.4,-1.9 0,-1.4 -1.3,-2 -2.6,-2 h -1 v -1.6 h 1 c 1,0 2.3,-0.5 2.3,-1.6 0,-0.8 -0.6,-1.5 -1.9,-1.5 -1,0 -1.9,0.4 -2.4,0.7 l -0.5,-1.6 c 0.7,-0.5 2,-0.9 3.4,-0.9 2.4,0 3.7,1.3 3.7,2.9 0,1.2 -0.7,2.2 -2.2,2.7 v 0 c 1.4,0.3 2.6,1.3 2.6,2.9 0,2 -1.7,3.5 -4.6,3.5 -1.4,0 -2.6,-0.4 -3.3,-0.8 l 0.4,-1.5 z"
   id="path53"
   inkscape:connector-curvature="0"
   style="fill:#454746" />
</g>
<g
   id="g55"
   transform="translate(-117.8,-63.5)">
	<path
   d="m 192.1,225.5 v -1.4 l 1.4,-1.3 c 2.8,-2.6 4.1,-4 4.1,-5.5 0,-1 -0.6,-2 -2.1,-2 -1,0 -1.9,0.5 -2.5,1 l -0.6,-1.6 c 0.8,-0.7 2.1,-1.2 3.6,-1.2 2.6,0 3.9,1.6 3.9,3.5 0,2.1 -1.5,3.7 -3.5,5.6 l -1,0.9 v 0 h 4.8 v 1.8 h -8.1 z"
   id="path57"
   inkscape:connector-curvature="0"
   style="fill:#454746" />
</g>
<g
   id="g59"
   transform="translate(-117.8,-63.5)">
	<path
   d="m 195.6,315.8 0,0 -2.2,1.1 -0.4,-1.7 2.8,-1.4 h 1.9 v 11.7 h -2.1 v -9.7 z"
   id="path61"
   inkscape:connector-curvature="0"
   style="fill:#454746" />
</g>
<g
   id="g63"
   transform="translate(-117.8,-63.5)">
	<path
   d="m 200.3,419.6 c 0,3.8 -1.5,6.1 -4.3,6.1 -2.7,0 -4.1,-2.4 -4.2,-6 0,-3.6 1.5,-6.1 4.3,-6.1 2.9,0 4.2,2.5 4.2,6 z m -6.1,0.1 c 0,2.8 0.8,4.3 2,4.3 1.3,0 2,-1.6 2,-4.4 0,-2.7 -0.6,-4.3 -2,-4.3 -1.2,0 -2.1,1.5 -2,4.4 z"
   id="path65"
   inkscape:connector-curvature="0"
   style="fill:#454746" />
</g>
<g
   id="g67"
   transform="translate(-117.8,-63.5)">
	<path
   d="m 378.2,475.7 c 0.6,-2.2 1.7,-4.7 2.6,-6.1 l 1.8,-0.2 c -0.6,1.8 -1.2,4.2 -1.6,6.1 l -2.8,0.2 z m 4.2,0 c 0.6,-2.2 1.7,-4.7 2.6,-6.1 l 1.8,-0.2 c -0.6,1.8 -1.3,4.2 -1.6,6.1 l -2.8,0.2 z"
   id="path69"
   inkscape:connector-curvature="0"
   style="fill:#454746" />
	<path
   d="m 389,468.8 h 3 v 7 h 0 c 0.4,-0.6 0.8,-1 1.5,-1.3 0.6,-0.3 1.3,-0.5 2,-0.5 2,0 4.1,1.3 4.1,5.1 v 6.9 h -3 v -6.6 c 0,-1.7 -0.6,-3 -2.3,-3 -1.2,0 -2,0.8 -2.3,1.7 -0.1,0.2 -0.1,0.6 -0.1,0.9 v 7 h -3 v -17.2 z"
   id="path71"
   inkscape:connector-curvature="0"
   style="fill:#454746" />
	<path
   d="m 405.9,470.9 c 0,0.9 -0.6,1.6 -1.7,1.6 -1,0 -1.6,-0.7 -1.6,-1.6 0,-0.9 0.7,-1.6 1.7,-1.6 0.9,0 1.6,0.7 1.6,1.6 z m -3.2,14.9 v -11.7 h 3 v 11.7 h -3 z"
   id="path73"
   inkscape:connector-curvature="0"
   style="fill:#454746" />
	<path
   d="m 408.9,478 c 0,-1.5 0,-2.8 -0.1,-3.9 h 2.6 l 0.1,1.8 h 0 c 0.9,-1.3 2.2,-2.1 4,-2.1 2.7,0 4.9,2.3 4.9,6 0,4.2 -2.7,6.3 -5.3,6.3 -1.5,0 -2.7,-0.6 -3.3,-1.6 h 0 v 6 h -3 V 478 z m 2.9,2.9 c 0,0.3 0,0.6 0.1,0.8 0.3,1.2 1.3,2.1 2.6,2.1 1.9,0 3,-1.6 3,-3.9 0,-2.1 -1,-3.7 -2.9,-3.7 -1.2,0 -2.4,0.9 -2.6,2.2 -0.1,0.2 -0.1,0.5 -0.1,0.7 v 1.8 z"
   id="path75"
   inkscape:connector-curvature="0"
   style="fill:#454746" />
	<path
   d="m 422.9,478 c 0,-1.5 0,-2.8 -0.1,-3.9 h 2.6 l 0.1,1.8 h 0 c 0.9,-1.3 2.2,-2.1 4,-2.1 2.7,0 4.9,2.3 4.9,6 0,4.2 -2.7,6.3 -5.3,6.3 -1.5,0 -2.7,-0.6 -3.3,-1.6 h 0 v 6 h -3 V 478 z m 3,2.9 c 0,0.3 0,0.6 0.1,0.8 0.3,1.2 1.3,2.1 2.6,2.1 1.9,0 3,-1.6 3,-3.9 0,-2.1 -1,-3.7 -2.9,-3.7 -1.2,0 -2.4,0.9 -2.6,2.2 -0.1,0.2 -0.1,0.5 -0.1,0.7 v 1.8 z"
   id="path77"
   inkscape:connector-curvature="0"
   style="fill:#454746" />
	<path
   d="m 448.1,479.9 c 0,4.3 -3,6.2 -6,6.2 -3.3,0 -5.9,-2.3 -5.9,-6 0,-3.8 2.5,-6.2 6,-6.2 3.5,0 5.9,2.4 5.9,6 z m -8.8,0.1 c 0,2.3 1.1,4 2.9,4 1.7,0 2.9,-1.7 2.9,-4 0,-1.8 -0.8,-3.9 -2.8,-3.9 -2.2,-0.1 -3,2 -3,3.9 z"
   id="path79"
   inkscape:connector-curvature="0"
   style="fill:#454746" />
	<path
   d="m 450.5,478 c 0,-1.5 0,-2.8 -0.1,-3.9 h 2.6 l 0.1,1.8 h 0 c 0.9,-1.3 2.2,-2.1 4,-2.1 2.7,0 4.9,2.3 4.9,6 0,4.2 -2.7,6.3 -5.3,6.3 -1.5,0 -2.7,-0.6 -3.3,-1.6 h 0 v 6 h -3 V 478 z m 3,2.9 c 0,0.3 0,0.6 0.1,0.8 0.3,1.2 1.3,2.1 2.6,2.1 1.9,0 3,-1.6 3,-3.9 0,-2.1 -1,-3.7 -2.9,-3.7 -1.2,0 -2.4,0.9 -2.6,2.2 -0.1,0.2 -0.1,0.5 -0.1,0.7 v 1.8 z"
   id="path81"
   inkscape:connector-curvature="0"
   style="fill:#454746" />
	<path
   d="m 475.7,479.9 c 0,4.3 -3,6.2 -6,6.2 -3.3,0 -5.9,-2.3 -5.9,-6 0,-3.8 2.5,-6.2 6,-6.2 3.5,0 5.9,2.4 5.9,6 z m -8.9,0.1 c 0,2.3 1.1,4 2.9,4 1.7,0 2.9,-1.7 2.9,-4 0,-1.8 -0.8,-3.9 -2.8,-3.9 -2.1,-0.1 -3,2 -3,3.9 z"
   id="path83"
   inkscape:connector-curvature="0"
   style="fill:#454746" />
	<path
   d="m 481.5,470.8 v 3.3 h 2.8 v 2.2 h -2.8 v 5.2 c 0,1.4 0.4,2.2 1.5,2.2 0.5,0 0.9,-0.1 1.2,-0.1 l 0,2.3 c -0.4,0.2 -1.2,0.3 -2.1,0.3 -1.1,0 -2,-0.4 -2.5,-1 -0.6,-0.7 -0.9,-1.7 -0.9,-3.3 v -5.5 H 477 v -2.2 h 1.7 v -2.6 l 2.8,-0.8 z"
   id="path85"
   inkscape:connector-curvature="0"
   style="fill:#454746" />
	<path
   d="m 493.1,485.8 -0.2,-1.3 h -0.1 c -0.7,0.9 -1.9,1.6 -3.5,1.6 -2.4,0 -3.7,-1.7 -3.7,-3.5 0,-3 2.6,-4.4 6.9,-4.4 V 478 c 0,-0.8 -0.3,-2 -2.4,-2 -1.2,0 -2.4,0.4 -3.1,0.9 l -0.6,-1.9 c 0.9,-0.5 2.4,-1 4.2,-1 3.7,0 4.8,2.4 4.8,4.9 v 4.2 c 0,1.1 0,2.1 0.2,2.8 h -2.5 z m -0.4,-5.7 c -2.1,0 -4.1,0.4 -4.1,2.2 0,1.2 0.7,1.7 1.7,1.7 1.2,0 2,-0.8 2.3,-1.6 0.1,-0.2 0.1,-0.5 0.1,-0.6 v -1.7 z"
   id="path87"
   inkscape:connector-curvature="0"
   style="fill:#454746" />
	<path
   d="m 498.7,477.6 c 0,-1.3 0,-2.5 -0.1,-3.5 h 2.5 l 0.1,1.7 h 0.1 c 0.6,-0.9 1.6,-2 3.6,-2 1.5,0 2.7,0.9 3.2,2.2 h 0 c 0.4,-0.6 0.9,-1.1 1.4,-1.5 0.6,-0.5 1.4,-0.7 2.4,-0.7 1.9,0 3.9,1.3 3.9,5.1 v 6.9 H 513 v -6.5 c 0,-1.9 -0.7,-3.1 -2.1,-3.1 -1,0 -1.8,0.7 -2.1,1.6 -0.1,0.3 -0.1,0.6 -0.1,1 v 7 h -2.9 V 479 c 0,-1.6 -0.6,-2.8 -2,-2.8 -1.1,0 -1.8,0.9 -2.1,1.7 -0.1,0.3 -0.2,0.6 -0.2,1 v 6.9 h -2.9 v -8.2 z"
   id="path89"
   inkscape:connector-curvature="0"
   style="fill:#454746" />
	<path
   d="m 529.5,482.3 c 0,1.4 0,2.5 0.1,3.5 H 527 l -0.1,-1.8 h 0 c -0.5,0.8 -1.7,2 -3.7,2 -2.1,0 -4.1,-1.3 -4.1,-5.1 V 474 h 3 v 6.4 c 0,1.9 0.6,3.2 2.2,3.2 1.2,0 1.9,-0.8 2.3,-1.6 0.1,-0.3 0.2,-0.6 0.2,-0.9 V 474 h 3 v 8.3 z"
   id="path91"
   inkscape:connector-curvature="0"
   style="fill:#454746" />
	<path
   d="m 532.6,483.1 c 0.7,0.4 1.9,0.8 3,0.8 1.3,0 1.9,-0.5 1.9,-1.3 0,-0.8 -0.5,-1.2 -1.9,-1.7 -2.3,-0.8 -3.2,-2 -3.2,-3.4 0,-2.1 1.7,-3.7 4.4,-3.7 1.3,0 2.4,0.3 3.1,0.7 l -0.6,2.1 c -0.5,-0.3 -1.4,-0.7 -2.5,-0.7 -1.1,0 -1.6,0.5 -1.6,1.2 0,0.7 0.6,1.1 2,1.6 2.1,0.8 3.1,1.8 3.1,3.6 0,2.1 -1.7,3.6 -4.8,3.6 -1.4,0 -2.7,-0.3 -3.6,-0.8 l 0.7,-2 z"
   id="path93"
   inkscape:connector-curvature="0"
   style="fill:#454746" />
	<path
   d="m 545.9,469.4 c -0.7,2.2 -1.7,4.7 -2.6,6.1 l -1.8,0.2 c 0.6,-1.8 1.2,-4.2 1.6,-6.1 l 2.8,-0.2 z m 4.2,0 c -0.6,2.2 -1.7,4.7 -2.6,6.1 l -1.8,0.2 c 0.6,-1.8 1.3,-4.2 1.6,-6.1 l 2.8,-0.2 z"
   id="path95"
   inkscape:connector-curvature="0"
   style="fill:#454746" />
</g>
<g
   id="g97"
   transform="translate(-117.8,-63.5)">
	<path
   d="m 155.7,308.2 c -2.2,-0.6 -4.7,-1.7 -6.1,-2.6 l -0.2,-1.8 c 1.8,0.6 4.2,1.3 6.1,1.6 l 0.2,2.8 z m 0,4.2 c -2.2,-0.6 -4.7,-1.7 -6.1,-2.6 l -0.2,-1.8 c 1.8,0.6 4.2,1.2 6.1,1.6 l 0.2,2.8 z"
   id="path99"
   inkscape:connector-curvature="0"
   style="fill:#454746" />
	<path
   d="m 147.8,301.7 v -3 h 7 v 0 c -0.6,-0.4 -1,-0.8 -1.3,-1.5 -0.3,-0.6 -0.5,-1.3 -0.5,-2 0,-2 1.3,-4.1 5.1,-4.1 h 6.9 v 3 h -6.6 c -1.7,0 -3,0.6 -3,2.3 0,1.2 0.8,2 1.7,2.3 0.2,0.1 0.6,0.1 0.9,0.1 h 7 v 3 h -17.2 z"
   id="path101"
   inkscape:connector-curvature="0"
   style="fill:#454746" />
	<path
   d="m 164.8,281.4 -1.3,0.2 v 0.1 c 0.9,0.7 1.6,1.9 1.6,3.5 0,2.4 -1.7,3.7 -3.5,3.7 -3,0 -4.4,-2.6 -4.4,-6.9 H 157 c -0.8,0 -2,0.3 -2,2.4 0,1.2 0.4,2.4 0.9,3.1 l -1.9,0.6 c -0.5,-0.9 -1,-2.4 -1,-4.2 0,-3.7 2.4,-4.8 4.9,-4.8 h 4.2 c 1.1,0 2.1,0 2.8,-0.2 v 2.5 z m -5.7,0.4 c 0,2.1 0.4,4.1 2.2,4.1 1.2,0 1.7,-0.7 1.7,-1.7 0,-1.2 -0.8,-2 -1.6,-2.3 -0.2,-0.1 -0.5,-0.1 -0.6,-0.1 h -1.7 z"
   id="path103"
   inkscape:connector-curvature="0"
   style="fill:#454746" />
	<path
   d="m 157,275.8 c -1.5,0 -2.8,0 -3.9,0.1 v -2.6 l 1.8,-0.1 v 0 c -1.3,-0.9 -2.1,-2.2 -2.1,-4 0,-2.7 2.3,-4.9 6,-4.9 4.2,0 6.3,2.7 6.3,5.3 0,1.5 -0.6,2.7 -1.6,3.3 v 0 h 6 v 3 H 157 z m 2.9,-3 c 0.3,0 0.6,0 0.8,-0.1 1.2,-0.3 2.1,-1.3 2.1,-2.6 0,-1.9 -1.6,-3 -3.9,-3 -2.1,0 -3.7,1 -3.7,2.9 0,1.2 0.9,2.4 2.2,2.6 0.2,0.1 0.5,0.1 0.7,0.1 h 1.8 z"
   id="path105"
   inkscape:connector-curvature="0"
   style="fill:#454746" />
	<path
   d="m 157,261.7 c -1.5,0 -2.8,0 -3.9,0.1 v -2.6 l 1.8,-0.1 v 0 c -1.3,-0.9 -2.1,-2.2 -2.1,-4 0,-2.7 2.3,-4.9 6,-4.9 4.2,0 6.3,2.7 6.3,5.3 0,1.5 -0.6,2.7 -1.6,3.3 v 0 h 6 v 3 H 157 z m 2.9,-2.9 c 0.3,0 0.6,0 0.8,-0.1 1.2,-0.3 2.1,-1.3 2.1,-2.6 0,-1.9 -1.6,-3 -3.9,-3 -2.1,0 -3.7,1 -3.7,2.9 0,1.2 0.9,2.4 2.2,2.6 0.2,0.1 0.5,0.1 0.7,0.1 h 1.8 z"
   id="path107"
   inkscape:connector-curvature="0"
   style="fill:#454746" />
	<path
   d="m 153.1,246.1 6.3,-2.1 c 0.7,-0.2 1.6,-0.5 2.3,-0.6 v -0.1 c -0.7,-0.2 -1.5,-0.4 -2.3,-0.6 l -6.2,-1.8 v -3.2 l 8,2.9 c 4.4,1.6 6.3,2.7 7.5,4.1 1,1.2 1.4,2.4 1.5,3.1 l -2.5,0.7 c -0.1,-0.5 -0.4,-1.1 -0.8,-1.7 -0.4,-0.6 -1.1,-1.2 -1.8,-1.6 -0.2,-0.1 -0.4,-0.2 -0.5,-0.2 -0.1,0 -0.3,0 -0.6,0.2 l -10.7,4.3 v -3.4 z"
   id="path109"
   inkscape:connector-curvature="0"
   style="fill:#454746" />
	<path
   d="m 148.4,227.6 c 2.2,0.6 4.7,1.7 6.1,2.6 l 0.2,1.8 c -1.8,-0.6 -4.2,-1.3 -6.1,-1.6 l -0.2,-2.8 z m 0,4.2 c 2.2,0.7 4.7,1.7 6.1,2.6 l 0.2,1.8 c -1.8,-0.6 -4.2,-1.2 -6.1,-1.6 l -0.2,-2.8 z"
   id="path111"
   inkscape:connector-curvature="0"
   style="fill:#454746" />
</g>
<line
   stroke-miterlimit="10"
   x1="95.300003"
   y1="357"
   x2="595.29999"
   y2="157"
   id="line113"
   style="fill:#ffffff;stroke:#75b640;stroke-width:4;stroke-linecap:round;stroke-miterlimit:10" />
<g
   id="g115"
   transform="translate(-117.8,-63.5)">
	<path
   d="m 577.5,253.5 0,0 c -0.3,1.3 -1.1,2.5 -2.7,3.1 -2.4,1 -5.4,-0.3 -6.7,-3.7 -1.6,-4 0.2,-6.9 2.5,-7.8 1.5,-0.6 2.8,-0.4 3.8,0.4 l 0.1,0 -0.5,-1.5 2.7,-1.1 c 0.3,1 0.7,2 1.2,3.2 l 4.8,12.1 -2.7,1.1 -2.5,-5.8 z m -2,-4.8 c -0.1,-0.2 -0.2,-0.5 -0.3,-0.6 -0.7,-0.9 -1.9,-1.4 -3.1,-1 -1.8,0.7 -2.2,2.6 -1.3,4.6 0.8,2 2.3,3.1 4.1,2.4 1.1,-0.4 1.7,-1.5 1.6,-2.7 0,-0.3 -0.1,-0.6 -0.2,-0.9 l -0.8,-1.8 z"
   id="path117"
   inkscape:connector-curvature="0"
   style="fill:#75b640" />
	<path
   d="m 592.2,245.6 c 0.5,1.3 1,2.3 1.4,3.2 l -2.4,1 -0.8,-1.6 0,0 c -0.2,1 -0.8,2.5 -2.7,3.3 -2,0.8 -4.3,0.3 -5.7,-3.2 l -2.5,-6.4 2.7,-1.1 2.4,5.9 c 0.7,1.8 1.8,2.7 3.2,2.2 1.1,-0.4 1.5,-1.5 1.5,-2.3 0,-0.3 -0.1,-0.6 -0.2,-0.9 l -2.6,-6.5 2.7,-1.1 3,7.5 z"
   id="path119"
   inkscape:connector-curvature="0"
   style="fill:#75b640" />
	<path
   d="m 596.5,242.3 c 0.9,1.9 2.7,2.2 4.5,1.5 1.3,-0.5 2.1,-1.1 2.8,-1.7 l 1.2,1.7 c -0.8,0.8 -2,1.6 -3.5,2.2 -3.5,1.4 -6.5,0.1 -7.8,-3.2 -1.2,-3 -0.5,-6.6 3,-8 3.5,-1.4 5.8,1 6.8,3.4 0.2,0.5 0.3,0.9 0.4,1.2 l -7.4,2.9 z m 4,-3.9 c -0.4,-1 -1.5,-2.5 -3.3,-1.8 -1.7,0.7 -1.8,2.5 -1.5,3.7 l 4.8,-1.9 z"
   id="path121"
   inkscape:connector-curvature="0"
   style="fill:#75b640" />
	<path
   d="m 605,235.7 c -0.6,-1.5 -1,-2.5 -1.5,-3.5 l 2.4,-1 0.9,2 0.1,0 c -0.1,-1.8 0.9,-3 2,-3.5 0.3,-0.1 0.4,-0.1 0.7,-0.2 l 1,2.6 c -0.2,0 -0.5,0.1 -0.8,0.2 -1.3,0.5 -1.9,1.7 -1.6,3.1 0.1,0.3 0.1,0.6 0.2,0.9 l 2.2,5.6 -2.7,1.1 -2.9,-7.3 z"
   id="path123"
   inkscape:connector-curvature="0"
   style="fill:#75b640" />
	<path
   d="m 613.7,228.2 4.3,5 c 0.5,0.6 1,1.3 1.4,1.9 l 0.1,0 c -0.1,-0.7 -0.2,-1.6 -0.3,-2.4 l -0.6,-6.5 2.9,-1.2 0.2,8.5 c 0.1,4.7 -0.2,6.9 -1,8.5 -0.7,1.4 -1.7,2.2 -2.3,2.6 l -1.6,-2.1 c 0.4,-0.3 0.9,-0.8 1.3,-1.4 0.4,-0.5 0.7,-1.4 0.8,-2.3 0,-0.2 0,-0.4 0,-0.6 0,-0.1 -0.1,-0.3 -0.4,-0.5 l -7.9,-8.4 3.1,-1.1 z"
   id="path125"
   inkscape:connector-curvature="0"
   style="fill:#75b640" />
	<path
   d="m 633.3,235.8 -7.1,-17.8 4.3,-1.7 0.6,1.6 -2.3,0.9 5.8,14.6 2.3,-0.9 0.6,1.6 -4.2,1.7 z"
   id="path127"
   inkscape:connector-curvature="0"
   style="fill:#75b640" />
	<path
   d="m 638.3,230.9 -0.7,-1.7 1.1,-2.3 c 2.1,-4.5 3.1,-6.9 2.3,-8.8 -0.5,-1.3 -1.7,-2.2 -3.6,-1.4 -1.3,0.5 -2.1,1.6 -2.6,2.4 l -1.6,-1.6 c 0.7,-1.3 2,-2.5 3.9,-3.3 3.2,-1.3 5.6,0.1 6.5,2.5 1,2.5 0,5.3 -1.6,8.7 l -0.8,1.6 0,0 5.9,-2.4 0.9,2.3 -9.7,4 z"
   id="path129"
   inkscape:connector-curvature="0"
   style="fill:#75b640" />
	<path
   d="m 650.6,229.2 c -0.1,-1.9 -0.4,-4.5 -0.9,-6.5 l 2.8,-1.4 c 0.2,2.3 0.2,5.2 -0.1,6.9 l -1.8,1 z"
   id="path131"
   inkscape:connector-curvature="0"
   style="fill:#75b640" />
	<path
   d="m 659.8,208.2 -5.6,2.2 0.7,3.1 c 0.3,-0.2 0.6,-0.3 1,-0.5 1.3,-0.5 2.7,-0.7 3.9,-0.5 1.4,0.3 2.7,1.2 3.4,2.9 1.1,2.8 -0.3,5.9 -3.9,7.4 -1.7,0.7 -3.2,0.8 -4.2,0.7 l -0.3,-2.3 c 0.8,0.1 2.2,0 3.5,-0.5 1.6,-0.6 2.8,-2.2 2.1,-3.9 -0.7,-1.6 -2.3,-2.3 -5.2,-1.1 -0.8,0.3 -1.4,0.6 -1.9,0.9 l -2,-7.7 7.5,-3 1,2.3 z"
   id="path133"
   inkscape:connector-curvature="0"
   style="fill:#75b640" />
	<path
   d="m 665.4,202.4 7.1,17.8 -4.3,1.7 -0.6,-1.6 2.3,-0.9 -5.8,-14.6 -2.3,0.9 -0.6,-1.6 4.2,-1.7 z"
   id="path135"
   inkscape:connector-curvature="0"
   style="fill:#75b640" />
</g>
</svg>