<?xml version="1.0" encoding="UTF-8" standalone="no"?>
<!-- Generator: Adobe Illustrator 18.0.0, SVG Export Plug-In . SVG Version: 6.00 Build 0)  -->

<svg
   xmlns:dc="http://purl.org/dc/elements/1.1/"
   xmlns:cc="http://creativecommons.org/ns#"
   xmlns:rdf="http://www.w3.org/1999/02/22-rdf-syntax-ns#"
   xmlns:svg="http://www.w3.org/2000/svg"
   xmlns="http://www.w3.org/2000/svg"
   xmlns:sodipodi="http://sodipodi.sourceforge.net/DTD/sodipodi-0.dtd"
   xmlns:inkscape="http://www.inkscape.org/namespaces/inkscape"
   version="1.1"
   id="graphs"
   x="0px"
   y="0px"
   viewBox="0 0 778 509.7"
   enable-background="new 0 0 900 600"
   xml:space="preserve"
   inkscape:version="0.48.2 r9819"
   width="100%"
   height="100%"
   sodipodi:docname="170_04_log_popularity.svg"><metadata
   id="metadata3459"><rdf:RDF><cc:Work
       rdf:about=""><dc:format>image/svg+xml</dc:format><dc:type
         rdf:resource="http://purl.org/dc/dcmitype/StillImage" /></cc:Work></rdf:RDF></metadata><defs
   id="defs3457" /><sodipodi:namedview
   pagecolor="#ffffff"
   bordercolor="#666666"
   borderopacity="1"
   objecttolerance="10"
   gridtolerance="10"
   guidetolerance="10"
   inkscape:pageopacity="0"
   inkscape:pageshadow="2"
   inkscape:window-width="640"
   inkscape:window-height="480"
   id="namedview3455"
   showgrid="false"
   fit-margin-top="50"
   fit-margin-left="30"
   fit-margin-right="50"
   fit-margin-bottom="30"
   inkscape:zoom="0.39111111"
   inkscape:cx="389"
   inkscape:cy="264.2"
   inkscape:window-x="0"
   inkscape:window-y="0"
   inkscape:window-maximized="0"
   inkscape:current-layer="graphs" />
<path
   d="M 725,440.3 H 71 c -1.6,0 -3,-1.4 -3,-3 V 53 c 0,-1.7 1.4,-3 3,-3 h 654 c 1.7,0 3,1.3 3,3 v 384.3 c 0,1.7 -1.3,3 -3,3 z"
   id="path3211"
   inkscape:connector-curvature="0"
   style="fill:#f8faf6" />
<g
   id="g3213"
   transform="translate(-61,-54.5)">
	<line
   stroke-miterlimit="10"
   x1="134"
   y1="109.5"
   x2="134"
   y2="489.5"
   id="line3215"
   style="fill:none;stroke:#d6d6d6;stroke-miterlimit:10" />
	<line
   stroke-miterlimit="10"
   x1="199"
   y1="109.5"
   x2="199"
   y2="489.5"
   id="line3217"
   style="fill:none;stroke:#d6d6d6;stroke-miterlimit:10" />
	<line
   stroke-miterlimit="10"
   x1="264"
   y1="109.5"
   x2="264"
   y2="489.5"
   id="line3219"
   style="fill:none;stroke:#d6d6d6;stroke-miterlimit:10" />
	<line
   stroke-miterlimit="10"
   x1="329"
   y1="109.5"
   x2="329"
   y2="489.5"
   id="line3221"
   style="fill:none;stroke:#d6d6d6;stroke-miterlimit:10" />
	<line
   stroke-miterlimit="10"
   x1="394"
   y1="109.5"
   x2="394"
   y2="489.5"
   id="line3223"
   style="fill:none;stroke:#d6d6d6;stroke-miterlimit:10" />
	<line
   stroke-miterlimit="10"
   x1="459"
   y1="109.5"
   x2="459"
   y2="489.5"
   id="line3225"
   style="fill:none;stroke:#d6d6d6;stroke-miterlimit:10" />
	<line
   stroke-miterlimit="10"
   x1="524"
   y1="109.5"
   x2="524"
   y2="489.5"
   id="line3227"
   style="fill:none;stroke:#d6d6d6;stroke-miterlimit:10" />
	<line
   stroke-miterlimit="10"
   x1="589"
   y1="109.5"
   x2="589"
   y2="489.5"
   id="line3229"
   style="fill:none;stroke:#d6d6d6;stroke-miterlimit:10" />
	<line
   stroke-miterlimit="10"
   x1="654"
   y1="109.5"
   x2="654"
   y2="489.5"
   id="line3231"
   style="fill:none;stroke:#d6d6d6;stroke-miterlimit:10" />
	<line
   stroke-miterlimit="10"
   x1="719"
   y1="109.5"
   x2="719"
   y2="489.5"
   id="line3233"
   style="fill:none;stroke:#d6d6d6;stroke-miterlimit:10" />
	<line
   stroke-miterlimit="10"
   x1="784"
   y1="109.5"
   x2="784"
   y2="489.5"
   id="line3235"
   style="fill:none;stroke:#d6d6d6;stroke-miterlimit:10" />
	<line
   stroke-miterlimit="10"
   x1="134"
   y1="109.5"
   x2="784"
   y2="109.5"
   id="line3237"
   style="fill:none;stroke:#d6d6d6;stroke-miterlimit:10" />
	<line
   stroke-miterlimit="10"
   x1="134"
   y1="185.5"
   x2="784"
   y2="185.5"
   id="line3239"
   style="fill:none;stroke:#d6d6d6;stroke-miterlimit:10" />
	<line
   stroke-miterlimit="10"
   x1="134"
   y1="261.5"
   x2="784"
   y2="261.5"
   id="line3241"
   style="fill:none;stroke:#d6d6d6;stroke-miterlimit:10" />
	<line
   stroke-miterlimit="10"
   x1="134"
   y1="337.5"
   x2="784"
   y2="337.5"
   id="line3243"
   style="fill:none;stroke:#d6d6d6;stroke-miterlimit:10" />
	<line
   stroke-miterlimit="10"
   x1="134"
   y1="413.5"
   x2="784"
   y2="413.5"
   id="line3245"
   style="fill:none;stroke:#d6d6d6;stroke-miterlimit:10" />
	<line
   stroke-miterlimit="10"
   x1="134"
   y1="489.5"
   x2="784"
   y2="489.5"
   id="line3247"
   style="fill:none;stroke:#d6d6d6;stroke-miterlimit:10" />
</g>
<g
   id="g3249"
   transform="translate(-61,-54.5)">
	<g
   id="g3251">
		<path
   d="m 225.8,368.1 c 1.6,0 2.9,0.6 3.8,1.7 0.9,1.1 1.4,2.6 1.4,4.4 0,1.8 -0.5,3.3 -1.4,4.5 -1,1.1 -2.2,1.7 -3.8,1.7 -1.6,0 -2.9,-0.6 -3.8,-1.7 -0.9,-1.1 -1.4,-2.6 -1.4,-4.5 0,-1.8 0.5,-3.3 1.4,-4.4 0.9,-1.2 2.2,-1.7 3.8,-1.7 z m 0,10.7 c 1.1,0 1.9,-0.4 2.5,-1.3 0.6,-0.9 0.9,-2 0.9,-3.3 0,-1.3 -0.3,-2.5 -0.9,-3.3 -0.6,-0.9 -1.4,-1.3 -2.5,-1.3 -1.1,0 -1.9,0.4 -2.5,1.3 -0.6,0.9 -0.9,2 -0.9,3.3 0,1.3 0.3,2.4 0.9,3.3 0.6,0.9 1.4,1.3 2.5,1.3 z"
   id="path3253"
   inkscape:connector-curvature="0"
   style="fill:#454746" />
		<path
   d="m 243.3,380.1 h -4.8 v -14.3 h -3.1 v -1.5 h 4.8 v 14.3 h 3 v 1.5 z"
   id="path3255"
   inkscape:connector-curvature="0"
   style="fill:#454746" />
		<path
   d="m 257.9,380.1 h -1.8 v -1.7 c -0.4,0.6 -0.9,1.1 -1.5,1.4 -0.7,0.4 -1.4,0.6 -2.1,0.6 -1.3,0 -2.4,-0.6 -3.2,-1.8 -0.8,-1.2 -1.2,-2.7 -1.2,-4.5 0,-1.7 0.4,-3.1 1.2,-4.3 0.8,-1.1 1.9,-1.7 3.2,-1.7 1.5,0 2.7,0.6 3.6,1.8 v -5.7 h 1.8 v 15.9 z m -1.8,-3.6 v -4.9 c -0.8,-1.3 -1.8,-2 -3,-2 -1,0 -1.7,0.4 -2.3,1.3 -0.6,0.9 -0.8,1.9 -0.8,3.3 0,1.3 0.3,2.5 0.8,3.3 0.5,0.9 1.3,1.3 2.2,1.3 0.4,0 0.9,-0.1 1.3,-0.4 0.4,-0.2 0.9,-0.6 1.3,-1.1 0.3,-0.4 0.5,-0.7 0.5,-0.8 z"
   id="path3257"
   inkscape:connector-curvature="0"
   style="fill:#454746" />
		<path
   d="m 274.1,385.1 h -13.8 v -1.5 h 13.8 v 1.5 z"
   id="path3259"
   inkscape:connector-curvature="0"
   style="fill:#454746" />
		<path
   d="m 284.3,370 c -1,-0.3 -1.9,-0.5 -2.8,-0.5 -1,0 -1.7,0.2 -2.3,0.5 -0.6,0.3 -0.8,0.7 -0.8,1.3 0,0.3 0.1,0.6 0.4,0.9 0.3,0.3 0.8,0.5 1.5,0.7 l 1.7,0.5 c 0.8,0.2 1.4,0.5 1.9,0.8 0.5,0.3 0.9,0.7 1.1,1.1 0.2,0.4 0.4,0.9 0.4,1.5 0,1.1 -0.5,2 -1.4,2.6 -0.9,0.6 -2.1,1 -3.6,1 -1.4,0 -2.6,-0.2 -3.6,-0.7 l 0.3,-1.5 c 1,0.5 2,0.7 3.2,0.7 1,0 1.8,-0.2 2.4,-0.5 0.6,-0.4 0.9,-0.8 0.9,-1.4 0,-0.4 -0.2,-0.8 -0.5,-1.1 -0.3,-0.3 -1,-0.6 -2.1,-1 -0.9,-0.3 -1.6,-0.5 -2,-0.6 -0.4,-0.1 -0.8,-0.3 -1.2,-0.6 -0.4,-0.3 -0.6,-0.6 -0.8,-1 -0.2,-0.4 -0.3,-0.8 -0.3,-1.3 0,-1 0.4,-1.8 1.3,-2.4 0.9,-0.6 2.1,-0.9 3.5,-0.9 0.9,0 2,0.2 3.1,0.5 l -0.3,1.4 z"
   id="path3261"
   inkscape:connector-curvature="0"
   style="fill:#454746" />
		<path
   d="m 299.3,379.7 c -1,0.5 -2.1,0.7 -3.4,0.7 -1.8,0 -3.3,-0.6 -4.4,-1.7 -1.1,-1.1 -1.6,-2.6 -1.6,-4.5 0,-1.9 0.6,-3.3 1.7,-4.5 1.1,-1.1 2.6,-1.7 4.4,-1.7 1.2,0 2.3,0.2 3.4,0.6 l -0.5,1.4 c -1.1,-0.4 -2,-0.6 -2.9,-0.6 -1.3,0 -2.3,0.4 -3.1,1.2 -0.8,0.8 -1.1,2 -1.1,3.4 0,1.3 0.4,2.4 1.2,3.3 0.8,0.9 1.8,1.3 3,1.3 1,0 2,-0.2 3.1,-0.6 l 0.2,1.7 z"
   id="path3263"
   inkscape:connector-curvature="0"
   style="fill:#454746" />
		<path
   d="m 308.6,368.1 c 1.6,0 2.9,0.6 3.8,1.7 0.9,1.1 1.4,2.6 1.4,4.4 0,1.8 -0.5,3.3 -1.4,4.5 -1,1.1 -2.2,1.7 -3.8,1.7 -1.6,0 -2.9,-0.6 -3.8,-1.7 -0.9,-1.1 -1.4,-2.6 -1.4,-4.5 0,-1.8 0.5,-3.3 1.4,-4.4 0.9,-1.2 2.2,-1.7 3.8,-1.7 z m 0,10.7 c 1.1,0 1.9,-0.4 2.5,-1.3 0.6,-0.9 0.9,-2 0.9,-3.3 0,-1.3 -0.3,-2.5 -0.9,-3.3 -0.6,-0.9 -1.4,-1.3 -2.5,-1.3 -1.1,0 -1.9,0.4 -2.5,1.3 -0.6,0.9 -0.9,2 -0.9,3.3 0,1.3 0.3,2.4 0.9,3.3 0.6,0.9 1.4,1.3 2.5,1.3 z"
   id="path3265"
   inkscape:connector-curvature="0"
   style="fill:#454746" />
		<path
   d="m 327.1,368.7 -0.7,1.7 c -0.8,-0.3 -1.4,-0.5 -2,-0.5 -0.5,0 -1,0.1 -1.5,0.4 -0.5,0.3 -0.9,0.7 -1.4,1.3 -0.4,0.6 -0.6,0.9 -0.6,0.9 v 7.6 h -1.7 v -11.7 h 1.7 v 2.4 c 0.9,-1.8 2.1,-2.7 3.6,-2.7 0.9,0 1.8,0.2 2.6,0.6 z"
   id="path3267"
   inkscape:connector-curvature="0"
   style="fill:#454746" />
		<path
   d="m 341.1,374.3 h -8 c 0,1.3 0.4,2.4 1.2,3.3 0.8,0.9 1.7,1.3 2.8,1.3 1.1,0 2.2,-0.2 3.3,-0.6 l 0.3,1.4 c -1,0.5 -2.2,0.7 -3.6,0.7 -1.7,0 -3.1,-0.6 -4.2,-1.7 -1.1,-1.1 -1.6,-2.6 -1.6,-4.5 0,-1.9 0.5,-3.3 1.4,-4.4 1,-1.1 2.2,-1.7 3.7,-1.7 1.3,0 2.5,0.5 3.4,1.5 0.9,1 1.4,2.4 1.4,4.1 v 0.6 z m -1.9,-1.5 c 0,-0.9 -0.3,-1.7 -0.9,-2.3 -0.6,-0.6 -1.2,-0.9 -1.9,-0.9 -0.9,0 -1.7,0.3 -2.3,0.9 -0.6,0.6 -0.9,1.4 -1,2.3 h 6.1 z"
   id="path3269"
   inkscape:connector-curvature="0"
   style="fill:#454746" />
		<path
   d="m 367.8,370.4 -0.7,1.1 -2.7,-1.8 v 3.2 h -1.2 v -3.2 l -2.7,1.8 -0.7,-1.1 2.8,-1.8 -2.8,-1.8 0.7,-1.1 2.7,1.8 v -3.2 h 1.2 v 3.2 l 2.7,-1.8 0.7,1.1 -2.8,1.8 2.8,1.8 z"
   id="path3271"
   inkscape:connector-curvature="0"
   style="fill:#454746" />
		<path
   d="m 395.1,380.1 h -4.8 v -14.3 h -3.1 v -1.5 h 4.8 v 14.3 h 3 v 1.5 z"
   id="path3273"
   inkscape:connector-curvature="0"
   style="fill:#454746" />
		<path
   d="m 405.2,368.1 c 1.6,0 2.9,0.6 3.8,1.7 0.9,1.1 1.4,2.6 1.4,4.4 0,1.8 -0.5,3.3 -1.4,4.5 -1,1.1 -2.2,1.7 -3.8,1.7 -1.6,0 -2.9,-0.6 -3.8,-1.7 -0.9,-1.1 -1.4,-2.6 -1.4,-4.5 0,-1.8 0.5,-3.3 1.4,-4.4 0.9,-1.2 2.2,-1.7 3.8,-1.7 z m 0,10.7 c 1.1,0 1.9,-0.4 2.5,-1.3 0.6,-0.9 0.9,-2 0.9,-3.3 0,-1.3 -0.3,-2.5 -0.9,-3.3 -0.6,-0.9 -1.4,-1.3 -2.5,-1.3 -1.1,0 -1.9,0.4 -2.5,1.3 -0.6,0.9 -0.9,2 -0.9,3.3 0,1.3 0.3,2.4 0.9,3.3 0.6,0.9 1.4,1.3 2.5,1.3 z"
   id="path3275"
   inkscape:connector-curvature="0"
   style="fill:#454746" />
		<path
   d="m 417.8,375.6 c -1.1,0.5 -1.6,1 -1.6,1.4 0,0.2 0.1,0.4 0.4,0.6 0.3,0.1 0.6,0.2 1,0.2 l 3.9,-0.1 c 0.9,0 1.7,0.2 2.2,0.7 0.5,0.5 0.8,1.1 0.8,1.9 0,1.3 -0.6,2.4 -1.8,3.2 -1.2,0.8 -2.6,1.2 -4.1,1.2 -1.3,0 -2.4,-0.3 -3.2,-0.8 -0.8,-0.5 -1.2,-1.2 -1.2,-2.1 0,-0.9 0.6,-1.7 1.9,-2.4 -1.1,-0.5 -1.6,-1.1 -1.6,-1.8 0,-0.8 0.7,-1.6 2,-2.3 -0.6,-0.4 -1.1,-0.9 -1.4,-1.5 -0.3,-0.6 -0.5,-1.2 -0.5,-1.9 0,-1.1 0.4,-2 1.1,-2.7 0.7,-0.7 1.7,-1.1 2.8,-1.1 0.8,0 1.5,0.2 2.2,0.5 l 3.5,-0.5 v 1.7 H 422 c 0.3,0.6 0.5,1.3 0.5,2.1 0,1.1 -0.4,2 -1.1,2.7 -0.7,0.7 -1.7,1.1 -2.8,1.1 -0.4,0 -0.6,0 -0.8,-0.1 z m 0.7,7.7 c 1.2,0 2.1,-0.3 2.9,-0.8 0.8,-0.5 1.2,-1.1 1.2,-1.9 0,-0.8 -0.6,-1.2 -1.7,-1.2 -0.4,0 -1,0 -2,0.1 -0.6,0 -1.1,0 -1.4,0 -0.2,0 -0.4,0.1 -0.8,0.4 -0.3,0.3 -0.6,0.5 -0.8,0.8 -0.2,0.3 -0.3,0.6 -0.3,0.8 0,0.5 0.3,0.8 0.8,1.2 0.6,0.5 1.3,0.6 2.1,0.6 z m 0,-9 c 0.6,0 1.2,-0.2 1.6,-0.7 0.4,-0.5 0.6,-1 0.6,-1.7 0,-0.8 -0.2,-1.3 -0.6,-1.8 -0.4,-0.4 -0.9,-0.6 -1.6,-0.6 -0.6,0 -1.1,0.2 -1.6,0.7 -0.4,0.4 -0.6,1 -0.6,1.7 0,0.7 0.2,1.3 0.6,1.7 0.4,0.5 0.9,0.7 1.6,0.7 z"
   id="path3277"
   inkscape:connector-curvature="0"
   style="fill:#454746" />
		<path
   d="m 436.7,382.4 -0.7,1 c -1.7,-1.3 -2.9,-2.7 -3.8,-4.4 -0.9,-1.7 -1.3,-3.4 -1.3,-5.3 0,-1.9 0.4,-3.7 1.3,-5.3 0.9,-1.7 2.1,-3.1 3.8,-4.4 l 0.7,1 c -1.4,1.2 -2.4,2.5 -3,3.9 -0.6,1.3 -0.9,3 -0.9,4.9 0,2 0.3,3.6 0.9,5 0.7,1.1 1.7,2.4 3,3.6 z"
   id="path3279"
   inkscape:connector-curvature="0"
   style="fill:#454746" />
		<path
   d="m 451.2,380.1 h -8.3 v -1.6 h 3.4 v -12.3 l -3.2,1.6 V 366 l 3.4,-1.8 h 1.6 v 14.3 h 3.1 v 1.6 z"
   id="path3281"
   inkscape:connector-curvature="0"
   style="fill:#454746" />
		<path
   d="M 479.5,372.7 H 475 v 4.6 h -1.5 v -4.6 h -4.6 v -1.5 h 4.6 v -4.6 h 1.5 v 4.6 h 4.5 v 1.5 z"
   id="path3283"
   inkscape:connector-curvature="0"
   style="fill:#454746" />
		<path
   d="m 506.4,380.1 h -1.8 v -7.5 c 0,-1 -0.2,-1.8 -0.5,-2.3 -0.3,-0.5 -0.9,-0.7 -1.6,-0.7 -1.1,0 -2.2,0.7 -3.4,2 v 8.5 h -1.8 v -11.7 h 1.8 v 1.7 c 1.3,-1.3 2.6,-2 4,-2 2.2,0 3.3,1.3 3.3,4 v 8 z"
   id="path3285"
   inkscape:connector-curvature="0"
   style="fill:#454746" />
		<path
   d="m 520.1,380.1 h -1.8 v -1.7 c -1.3,1.3 -2.6,2 -4,2 -2.2,0 -3.3,-1.3 -3.3,-4 v -8 h 1.8 v 7.5 c 0,1 0.2,1.7 0.5,2.2 0.3,0.5 0.8,0.7 1.6,0.7 1.1,0 2.2,-0.7 3.4,-2 v -8.5 h 1.8 v 11.8 z"
   id="path3287"
   inkscape:connector-curvature="0"
   style="fill:#454746" />
		<path
   d="m 534.9,380.1 h -1.8 v -7.7 c 0,-1.9 -0.3,-2.8 -1,-2.8 -0.4,0 -0.7,0.3 -1.2,1 -0.4,0.6 -0.6,1 -0.6,1.1 v 8.4 h -1.7 v -7.7 c 0,-1.9 -0.3,-2.8 -1,-2.8 -0.3,0 -0.7,0.3 -1.2,1 -0.4,0.6 -0.6,1 -0.6,1.1 v 8.4 H 524 v -11.7 h 1.7 v 1.8 c 0.3,-0.6 0.7,-1.1 1.2,-1.5 0.5,-0.4 0.9,-0.6 1.4,-0.6 0.5,0 0.9,0.2 1.3,0.6 0.4,0.4 0.6,0.9 0.8,1.5 0.3,-0.6 0.7,-1.1 1.2,-1.5 0.5,-0.4 0.9,-0.6 1.3,-0.6 1.4,0 2.1,1.3 2.1,3.8 v 8.2 z"
   id="path3289"
   inkscape:connector-curvature="0"
   style="fill:#454746" />
		<path
   d="m 540.5,369.9 c 0.4,-0.5 0.9,-1 1.6,-1.3 0.7,-0.3 1.4,-0.5 2.1,-0.5 1.4,0 2.4,0.5 3.2,1.6 0.8,1.1 1.1,2.5 1.1,4.3 0,1.8 -0.4,3.3 -1.2,4.5 -0.8,1.2 -1.9,1.8 -3.2,1.8 -0.7,0 -1.4,-0.2 -2,-0.5 -0.6,-0.3 -1.1,-0.8 -1.5,-1.4 v 1.7 h -1.8 v -15.8 h 1.8 v 5.6 z m 0,1.7 v 4.9 c 0.3,0.7 0.8,1.2 1.3,1.7 0.6,0.4 1.1,0.7 1.7,0.7 0.9,0 1.7,-0.4 2.3,-1.3 0.6,-0.9 0.8,-2 0.8,-3.3 0,-1.3 -0.3,-2.4 -0.8,-3.3 -0.5,-0.8 -1.3,-1.3 -2.2,-1.3 -1.2,-0.1 -2.2,0.6 -3.1,1.9 z"
   id="path3291"
   inkscape:connector-curvature="0"
   style="fill:#454746" />
		<path
   d="m 561.9,374.3 h -8 c 0,1.3 0.4,2.4 1.2,3.3 0.8,0.9 1.7,1.3 2.8,1.3 1.1,0 2.2,-0.2 3.3,-0.6 l 0.3,1.4 c -1,0.5 -2.2,0.7 -3.6,0.7 -1.7,0 -3.1,-0.6 -4.2,-1.7 -1.1,-1.1 -1.6,-2.6 -1.6,-4.5 0,-1.9 0.5,-3.3 1.4,-4.4 1,-1.1 2.2,-1.7 3.7,-1.7 1.3,0 2.5,0.5 3.4,1.5 0.9,1 1.4,2.4 1.4,4.1 v 0.6 z m -1.9,-1.5 c 0,-0.9 -0.3,-1.7 -0.9,-2.3 -0.6,-0.6 -1.2,-0.9 -1.9,-0.9 -0.9,0 -1.7,0.3 -2.3,0.9 -0.6,0.6 -0.9,1.4 -1,2.3 h 6.1 z"
   id="path3293"
   inkscape:connector-curvature="0"
   style="fill:#454746" />
		<path
   d="m 575.6,368.7 -0.7,1.7 c -0.8,-0.3 -1.4,-0.5 -2,-0.5 -0.5,0 -1,0.1 -1.5,0.4 -0.5,0.3 -0.9,0.7 -1.4,1.3 -0.4,0.6 -0.6,0.9 -0.6,0.9 v 7.6 h -1.7 v -11.7 h 1.7 v 2.4 c 0.9,-1.8 2.1,-2.7 3.6,-2.7 0.9,0 1.7,0.2 2.6,0.6 z"
   id="path3295"
   inkscape:connector-curvature="0"
   style="fill:#454746" />
		<path
   d="m 591.5,385.1 h -13.8 v -1.5 h 13.8 v 1.5 z"
   id="path3297"
   inkscape:connector-curvature="0"
   style="fill:#454746" />
		<path
   d="m 598.4,368.1 c 1.6,0 2.9,0.6 3.8,1.7 0.9,1.1 1.4,2.6 1.4,4.4 0,1.8 -0.5,3.3 -1.4,4.5 -1,1.1 -2.2,1.7 -3.8,1.7 -1.6,0 -2.9,-0.6 -3.8,-1.7 -0.9,-1.1 -1.4,-2.6 -1.4,-4.5 0,-1.8 0.5,-3.3 1.4,-4.4 1,-1.2 2.2,-1.7 3.8,-1.7 z m 0,10.7 c 1.1,0 1.9,-0.4 2.5,-1.3 0.6,-0.9 0.9,-2 0.9,-3.3 0,-1.3 -0.3,-2.5 -0.9,-3.3 -0.6,-0.9 -1.4,-1.3 -2.5,-1.3 -1.1,0 -1.9,0.4 -2.5,1.3 -0.6,0.9 -0.9,2 -0.9,3.3 0,1.3 0.3,2.4 0.9,3.3 0.6,0.9 1.5,1.3 2.5,1.3 z"
   id="path3299"
   inkscape:connector-curvature="0"
   style="fill:#454746" />
		<path
   d="m 616.9,364.4 -0.5,1.4 c -0.8,-0.2 -1.6,-0.4 -2.2,-0.4 -0.6,0 -1.1,0.2 -1.3,0.5 -0.2,0.4 -0.4,1.1 -0.4,2.2 v 0.2 h 3.9 v 1.5 h -3.9 V 380 h -1.8 v -10.2 h -2.9 v -1.5 h 2.9 V 368 c 0,-1.5 0.3,-2.5 0.8,-3.1 0.5,-0.6 1.4,-0.9 2.6,-0.9 0.9,-0.1 1.8,0.1 2.8,0.4 z"
   id="path3301"
   inkscape:connector-curvature="0"
   style="fill:#454746" />
		<path
   d="m 633,385.1 h -13.8 v -1.5 H 633 v 1.5 z"
   id="path3303"
   inkscape:connector-curvature="0"
   style="fill:#454746" />
		<path
   d="m 644.9,368.4 -4.4,11.7 h -1.6 l -4.4,-11.7 h 1.9 l 3.3,9.3 3.3,-9.3 h 1.9 z"
   id="path3305"
   inkscape:connector-curvature="0"
   style="fill:#454746" />
		<path
   d="m 653.7,368.1 c 1.6,0 2.9,0.6 3.8,1.7 0.9,1.1 1.4,2.6 1.4,4.4 0,1.8 -0.5,3.3 -1.4,4.5 -1,1.1 -2.2,1.7 -3.8,1.7 -1.6,0 -2.9,-0.6 -3.8,-1.7 -0.9,-1.1 -1.4,-2.6 -1.4,-4.5 0,-1.8 0.5,-3.3 1.4,-4.4 0.9,-1.2 2.1,-1.7 3.8,-1.7 z m 0,10.7 c 1.1,0 1.9,-0.4 2.5,-1.3 0.6,-0.9 0.9,-2 0.9,-3.3 0,-1.3 -0.3,-2.5 -0.9,-3.3 -0.6,-0.9 -1.4,-1.3 -2.5,-1.3 -1.1,0 -1.9,0.4 -2.5,1.3 -0.6,0.9 -0.9,2 -0.9,3.3 0,1.3 0.3,2.4 0.9,3.3 0.5,0.9 1.4,1.3 2.5,1.3 z"
   id="path3307"
   inkscape:connector-curvature="0"
   style="fill:#454746" />
		<path
   d="m 672.1,379.5 c -1.2,0.5 -2.3,0.8 -3.5,0.8 -2.1,0 -3.1,-1.1 -3.1,-3.3 v -7.2 h -2.2 v -1.5 h 2.2 v -3.2 h 1.7 v 3.2 h 4 v 1.5 h -4 v 6.7 c 0,0.7 0.2,1.3 0.5,1.7 0.3,0.4 0.7,0.6 1.3,0.6 1,0 1.9,-0.2 2.8,-0.6 l 0.3,1.3 z"
   id="path3309"
   inkscape:connector-curvature="0"
   style="fill:#454746" />
		<path
   d="m 686.1,374.3 h -8 c 0,1.3 0.4,2.4 1.2,3.3 0.8,0.9 1.7,1.3 2.8,1.3 1.1,0 2.2,-0.2 3.3,-0.6 l 0.3,1.4 c -1,0.5 -2.2,0.7 -3.6,0.7 -1.7,0 -3.1,-0.6 -4.2,-1.7 -1.1,-1.1 -1.6,-2.6 -1.6,-4.5 0,-1.9 0.5,-3.3 1.4,-4.4 1,-1.1 2.2,-1.7 3.7,-1.7 1.3,0 2.5,0.5 3.4,1.5 0.9,1 1.4,2.4 1.4,4.1 v 0.6 z m -1.9,-1.5 c 0,-0.9 -0.3,-1.7 -0.9,-2.3 -0.6,-0.6 -1.2,-0.9 -1.9,-0.9 -0.9,0 -1.7,0.3 -2.3,0.9 -0.6,0.6 -0.9,1.4 -1,2.3 h 6.1 z"
   id="path3311"
   inkscape:connector-curvature="0"
   style="fill:#454746" />
		<path
   d="m 698.4,370 c -1,-0.3 -1.9,-0.5 -2.8,-0.5 -1,0 -1.7,0.2 -2.3,0.5 -0.6,0.3 -0.8,0.7 -0.8,1.3 0,0.3 0.1,0.6 0.4,0.9 0.3,0.3 0.8,0.5 1.5,0.7 l 1.7,0.5 c 0.8,0.2 1.4,0.5 1.9,0.8 0.5,0.3 0.9,0.7 1.1,1.1 0.2,0.4 0.4,0.9 0.4,1.5 0,1.1 -0.5,2 -1.4,2.6 -0.9,0.6 -2.1,1 -3.6,1 -1.4,0 -2.6,-0.2 -3.6,-0.7 l 0.3,-1.5 c 1,0.5 2,0.7 3.2,0.7 1,0 1.8,-0.2 2.4,-0.5 0.6,-0.4 0.9,-0.8 0.9,-1.4 0,-0.4 -0.2,-0.8 -0.5,-1.1 -0.3,-0.3 -1,-0.6 -2.1,-1 -0.9,-0.3 -1.6,-0.5 -2,-0.6 -0.4,-0.1 -0.8,-0.3 -1.2,-0.6 -0.4,-0.3 -0.6,-0.6 -0.8,-1 -0.2,-0.4 -0.3,-0.8 -0.3,-1.3 0,-1 0.4,-1.8 1.3,-2.4 0.9,-0.6 2.1,-0.9 3.5,-0.9 0.9,0 2,0.2 3.1,0.5 l -0.3,1.4 z"
   id="path3313"
   inkscape:connector-curvature="0"
   style="fill:#454746" />
		<path
   d="m 705.7,363.9 c 1.7,1.3 3,2.7 3.8,4.4 0.9,1.7 1.3,3.4 1.3,5.3 0,1.9 -0.4,3.6 -1.3,5.3 -0.9,1.7 -2.1,3.1 -3.8,4.4 l -0.7,-1 c 1.4,-1.2 2.4,-2.5 3,-3.9 0.6,-1.4 0.9,-3 0.9,-4.9 0,-2 -0.3,-3.6 -0.9,-4.9 -0.6,-1.3 -1.6,-2.6 -2.9,-3.8 l 0.6,-0.9 z"
   id="path3315"
   inkscape:connector-curvature="0"
   style="fill:#454746" />
	</g>
</g>
<g
   id="g3317"
   transform="translate(-61,-54.5)">
	<path
   d="m 372,533.8 v -16.2 h 3.4 l 4.2,6.9 c 1.1,1.8 2,3.7 2.8,5.4 h 0 c -0.2,-2.2 -0.3,-4.2 -0.3,-6.7 v -5.6 h 2.7 v 16.2 h -3 l -4.2,-7.1 c -1,-1.8 -2.1,-3.8 -2.9,-5.6 l -0.1,0 c 0.1,2.1 0.1,4.2 0.1,6.9 v 5.8 H 372 z"
   id="path3319"
   inkscape:connector-curvature="0"
   style="fill:#454746" />
	<path
   d="m 398.6,530.3 c 0,1.4 0,2.5 0.1,3.5 h -2.6 L 396,532 h 0 c -0.5,0.8 -1.7,2 -3.7,2 -2.1,0 -4.1,-1.3 -4.1,-5.1 V 522 h 3 v 6.4 c 0,1.9 0.6,3.2 2.2,3.2 1.2,0 1.9,-0.8 2.3,-1.6 0.1,-0.3 0.2,-0.6 0.2,-0.9 V 522 h 3 v 8.3 z"
   id="path3321"
   inkscape:connector-curvature="0"
   style="fill:#454746" />
	<path
   d="m 401.8,525.6 c 0,-1.3 0,-2.5 -0.1,-3.5 h 2.5 l 0.1,1.7 h 0.1 c 0.6,-0.9 1.6,-2 3.6,-2 1.5,0 2.7,0.9 3.2,2.2 h 0 c 0.4,-0.6 0.9,-1.1 1.4,-1.5 0.6,-0.5 1.4,-0.7 2.4,-0.7 1.9,0 3.9,1.3 3.9,5.1 v 6.9 H 416 v -6.5 c 0,-1.9 -0.7,-3.1 -2.1,-3.1 -1,0 -1.8,0.7 -2.1,1.6 -0.1,0.3 -0.1,0.6 -0.1,1 v 7 H 409 V 527 c 0,-1.6 -0.6,-2.8 -2,-2.8 -1.1,0 -1.8,0.9 -2.1,1.7 -0.1,0.3 -0.2,0.6 -0.2,1 v 6.9 h -2.9 v -8.2 z"
   id="path3323"
   inkscape:connector-curvature="0"
   style="fill:#454746" />
	<path
   d="m 422,533.8 c 0,-0.8 0.1,-2.1 0.1,-3.3 v -13.8 h 3 v 7 h 0 c 0.7,-1.1 2,-1.9 3.7,-1.9 2.9,0 4.9,2.4 4.9,5.9 0,4.2 -2.7,6.3 -5.3,6.3 -1.5,0 -2.9,-0.6 -3.7,-2 h 0 l -0.1,1.8 H 422 z m 3.1,-4.8 c 0,0.2 0,0.5 0.1,0.7 0.3,1.2 1.3,2.1 2.6,2.1 1.8,0 3,-1.5 3,-3.8 0,-2.1 -1,-3.7 -3,-3.7 -1.2,0 -2.3,0.9 -2.6,2.2 0,0.2 -0.1,0.5 -0.1,0.8 v 1.7 z"
   id="path3325"
   inkscape:connector-curvature="0"
   style="fill:#454746" />
	<path
   d="m 438.3,528.8 c 0.1,2.1 1.7,3 3.6,3 1.4,0 2.4,-0.2 3.2,-0.5 l 0.4,2 c -1,0.4 -2.4,0.7 -4.1,0.7 -3.8,0 -6,-2.3 -6,-5.9 0,-3.2 2,-6.3 5.7,-6.3 3.8,0 5,3.1 5,5.7 0,0.6 0,1 -0.1,1.2 h -7.7 z m 5.1,-2 c 0,-1.1 -0.5,-2.9 -2.4,-2.9 -1.8,0 -2.6,1.7 -2.7,2.9 h 5.1 z"
   id="path3327"
   inkscape:connector-curvature="0"
   style="fill:#454746" />
	<path
   d="m 448.6,525.9 c 0,-1.6 0,-2.7 -0.1,-3.8 h 2.6 l 0.1,2.2 h 0.1 c 0.6,-1.7 1.9,-2.5 3.2,-2.5 0.3,0 0.5,0 0.7,0.1 v 2.8 c -0.2,0 -0.5,-0.1 -0.9,-0.1 -1.4,0 -2.4,0.9 -2.6,2.2 0,0.3 -0.1,0.6 -0.1,0.9 v 6 h -3 v -7.8 z"
   id="path3329"
   inkscape:connector-curvature="0"
   style="fill:#454746" />
	<path
   d="m 473.2,527.9 c 0,4.3 -3,6.2 -6,6.2 -3.3,0 -5.9,-2.3 -5.9,-6 0,-3.8 2.5,-6.2 6,-6.2 3.6,0 5.9,2.4 5.9,6 z m -8.8,0.1 c 0,2.3 1.1,4 2.9,4 1.7,0 2.9,-1.7 2.9,-4 0,-1.8 -0.8,-3.9 -2.8,-3.9 -2.2,-0.1 -3,2 -3,3.9 z"
   id="path3331"
   inkscape:connector-curvature="0"
   style="fill:#454746" />
	<path
   d="m 475.9,533.8 v -9.5 h -1.6 v -2.2 h 1.6 v -0.5 c 0,-1.5 0.4,-3 1.4,-4 0.9,-0.8 2,-1.1 3,-1.1 0.8,0 1.4,0.1 1.9,0.3 l -0.2,2.3 c -0.3,-0.1 -0.7,-0.2 -1.2,-0.2 -1.5,0 -2,1.2 -2,2.7 v 0.6 h 2.6 v 2.2 h -2.5 v 9.5 h -3 z"
   id="path3333"
   inkscape:connector-curvature="0"
   style="fill:#454746" />
	<path
   d="m 490.1,522.1 1.9,5.9 c 0.3,1 0.6,2 0.8,2.9 h 0.1 c 0.2,-1 0.5,-1.9 0.8,-2.9 l 1.8,-5.9 h 3.1 l -4.5,11.7 h -2.9 l -4.3,-11.7 h 3.2 z"
   id="path3335"
   inkscape:connector-curvature="0"
   style="fill:#454746" />
	<path
   d="m 511.2,527.9 c 0,4.3 -3,6.2 -6,6.2 -3.3,0 -5.9,-2.3 -5.9,-6 0,-3.8 2.5,-6.2 6,-6.2 3.6,0 5.9,2.4 5.9,6 z m -8.8,0.1 c 0,2.3 1.1,4 2.9,4 1.7,0 2.9,-1.7 2.9,-4 0,-1.8 -0.8,-3.9 -2.8,-3.9 -2.1,-0.1 -3,2 -3,3.9 z"
   id="path3337"
   inkscape:connector-curvature="0"
   style="fill:#454746" />
	<path
   d="m 517,518.8 v 3.3 h 2.8 v 2.2 H 517 v 5.2 c 0,1.4 0.4,2.2 1.5,2.2 0.5,0 0.9,-0.1 1.2,-0.1 l 0,2.3 c -0.4,0.2 -1.2,0.3 -2.1,0.3 -1.1,0 -2,-0.4 -2.5,-1 -0.6,-0.7 -0.9,-1.7 -0.9,-3.3 v -5.5 h -1.7 v -2.2 h 1.7 v -2.6 l 2.8,-0.8 z"
   id="path3339"
   inkscape:connector-curvature="0"
   style="fill:#454746" />
	<path
   d="m 524,528.8 c 0.1,2.1 1.7,3 3.6,3 1.4,0 2.4,-0.2 3.2,-0.5 l 0.4,2 c -1,0.4 -2.4,0.7 -4.1,0.7 -3.8,0 -6,-2.3 -6,-5.9 0,-3.2 2,-6.3 5.7,-6.3 3.8,0 5,3.1 5,5.7 0,0.6 0,1 -0.1,1.2 H 524 z m 5.2,-2 c 0,-1.1 -0.5,-2.9 -2.4,-2.9 -1.8,0 -2.6,1.7 -2.7,2.9 h 5.1 z"
   id="path3341"
   inkscape:connector-curvature="0"
   style="fill:#454746" />
	<path
   d="m 534.2,531.1 c 0.7,0.4 1.9,0.8 3,0.8 1.3,0 1.9,-0.5 1.9,-1.3 0,-0.8 -0.5,-1.2 -1.9,-1.7 -2.3,-0.8 -3.2,-2 -3.2,-3.4 0,-2.1 1.7,-3.7 4.4,-3.7 1.3,0 2.4,0.3 3.1,0.7 l -0.6,2.1 c -0.5,-0.3 -1.4,-0.7 -2.5,-0.7 -1.1,0 -1.6,0.5 -1.6,1.2 0,0.7 0.6,1.1 2,1.6 2.1,0.8 3.1,1.8 3.1,3.6 0,2.1 -1.7,3.6 -4.8,3.6 -1.4,0 -2.7,-0.3 -3.6,-0.8 l 0.7,-2 z"
   id="path3343"
   inkscape:connector-curvature="0"
   style="fill:#454746" />
</g>
<g
   id="g3345"
   transform="translate(-61,-54.5)">
	<path
   d="M 107.2,350.9 H 91 v -3.4 l 6.9,-4.2 c 1.8,-1.1 3.7,-2 5.4,-2.8 v 0 c -2.2,0.2 -4.2,0.3 -6.7,0.3 H 91 v -2.7 h 16.2 v 3 l -7.1,4.2 c -1.8,1 -3.8,2.1 -5.6,2.9 l 0,0.1 c 2.1,-0.1 4.2,-0.1 6.9,-0.1 h 5.8 v 2.7 z"
   id="path3347"
   inkscape:connector-curvature="0"
   style="fill:#454746" />
	<path
   d="m 102.2,332.8 c 2.1,-0.1 3,-1.7 3,-3.6 0,-1.4 -0.2,-2.4 -0.5,-3.2 l 2,-0.4 c 0.4,1 0.7,2.4 0.7,4.1 0,3.8 -2.3,6 -5.9,6 -3.2,0 -6.3,-2 -6.3,-5.7 0,-3.8 3.1,-5 5.7,-5 0.6,0 1,0 1.2,0.1 v 7.7 z m -2.1,-5.2 c -1.1,0 -2.9,0.5 -2.9,2.4 0,1.8 1.7,2.6 2.9,2.7 v -5.1 z"
   id="path3349"
   inkscape:connector-curvature="0"
   style="fill:#454746" />
	<path
   d="m 95.5,320.8 5.3,-1.2 c 1.2,-0.3 2.5,-0.5 3.8,-0.7 v 0 c -1.3,-0.2 -2.6,-0.6 -3.8,-1 l -5.3,-1.5 V 314 l 5.2,-1.5 c 1.4,-0.4 2.6,-0.7 3.9,-0.9 v 0 c -1.3,-0.2 -2.5,-0.5 -3.9,-0.8 l -5.2,-1.3 v -2.9 l 11.7,3.7 v 2.7 l -4.8,1.4 c -1.2,0.4 -2.3,0.6 -3.7,0.9 v 0 c 1.4,0.2 2.6,0.6 3.7,0.9 l 4.8,1.5 v 2.8 L 95.5,324 v -3.2 z"
   id="path3351"
   inkscape:connector-curvature="0"
   style="fill:#454746" />
	<path
   d="m 104.5,299.7 c 0.4,-0.7 0.8,-1.9 0.8,-3 0,-1.3 -0.5,-1.9 -1.3,-1.9 -0.8,0 -1.2,0.5 -1.7,1.9 -0.8,2.3 -2,3.2 -3.4,3.2 -2.1,0 -3.7,-1.7 -3.7,-4.4 0,-1.3 0.3,-2.4 0.7,-3.1 L 98,293 c -0.3,0.5 -0.7,1.4 -0.7,2.5 0,1.1 0.5,1.6 1.2,1.6 0.7,0 1.1,-0.6 1.6,-2 0.8,-2.1 1.8,-3.1 3.6,-3.1 2.1,0 3.6,1.7 3.6,4.8 0,1.4 -0.3,2.7 -0.8,3.6 l -2,-0.7 z"
   id="path3353"
   inkscape:connector-curvature="0"
   style="fill:#454746" />
	<path
   d="m 106.8,281 c 0.3,0.6 0.6,1.8 0.6,3.3 0,3.6 -2.3,6 -6,6 -3.5,0 -6.2,-2.4 -6.2,-6.5 0,-1.1 0.2,-2.2 0.6,-2.9 l 2.2,0.5 c -0.2,0.5 -0.5,1.2 -0.5,2.2 0,2.3 1.7,3.6 3.8,3.6 2.4,0 3.8,-1.6 3.8,-3.6 0,-1 -0.2,-1.8 -0.5,-2.3 l 2.2,-0.3 z"
   id="path3355"
   inkscape:connector-curvature="0"
   style="fill:#454746" />
	<path
   d="m 101.2,267.9 c 4.3,0 6.2,3 6.2,6 0,3.3 -2.3,5.9 -6,5.9 -3.8,0 -6.2,-2.5 -6.2,-6 0,-3.6 2.5,-5.9 6,-5.9 z m 0.2,8.8 c 2.3,0 4,-1.1 4,-2.9 0,-1.7 -1.7,-2.9 -4,-2.9 -1.8,0 -3.9,0.8 -3.9,2.8 -0.1,2.2 1.9,3 3.9,3 z"
   id="path3357"
   inkscape:connector-curvature="0"
   style="fill:#454746" />
	<path
   d="m 99.3,265.5 c -1.6,0 -2.7,0 -3.8,0.1 V 263 l 2.2,-0.1 v -0.1 c -1.7,-0.6 -2.5,-1.9 -2.5,-3.2 0,-0.3 0,-0.5 0.1,-0.7 h 2.8 c 0,0.2 -0.1,0.5 -0.1,0.9 0,1.4 0.9,2.4 2.2,2.6 0.3,0 0.6,0.1 0.9,0.1 h 6 v 3 h -7.8 z"
   id="path3359"
   inkscape:connector-curvature="0"
   style="fill:#454746" />
	<path
   d="m 102.2,255.1 c 2.1,-0.1 3,-1.7 3,-3.6 0,-1.4 -0.2,-2.4 -0.5,-3.2 l 2,-0.4 c 0.4,1 0.7,2.4 0.7,4.1 0,3.8 -2.3,6 -5.9,6 -3.2,0 -6.3,-2 -6.3,-5.7 0,-3.8 3.1,-5 5.7,-5 0.6,0 1,0 1.2,0.1 v 7.7 z m -2.1,-5.2 c -1.1,0 -2.9,0.5 -2.9,2.4 0,1.8 1.7,2.6 2.9,2.7 v -5.1 z"
   id="path3361"
   inkscape:connector-curvature="0"
   style="fill:#454746" />
</g>
<line
   stroke-miterlimit="10"
   x1="73"
   y1="55"
   x2="73"
   y2="435"
   id="line3363"
   style="fill:none;stroke:#454746;stroke-miterlimit:10" />
<line
   stroke-miterlimit="10"
   x1="73"
   y1="435"
   x2="723"
   y2="435"
   id="line3365"
   style="fill:none;stroke:#454746;stroke-miterlimit:10" />
<g
   id="g3367"
   transform="translate(-61,-54.5)">
	<g
   id="g3369">
		<path
   d="m 145.9,418.5 v -1.2 l 1.2,-1.1 c 2.4,-2.3 3.6,-3.5 3.6,-4.9 0,-0.9 -0.5,-1.7 -1.9,-1.7 -0.9,0 -1.7,0.5 -2.2,0.9 l -0.6,-1.4 c 0.8,-0.6 1.9,-1.1 3.2,-1.1 2.3,0 3.4,1.5 3.4,3.2 0,1.8 -1.3,3.3 -3.1,5 l -0.9,0.8 v 0 h 4.3 v 1.6 h -7 z"
   id="path3371"
   inkscape:connector-curvature="0"
   style="fill:#454746" />
	</g>
	<g
   id="g3373">
		<path
   d="m 150.2,342.5 v -2.6 h -4.7 v -1.3 l 4.2,-6.5 h 2.3 v 6.3 h 1.3 v 1.5 H 152 v 2.6 h -1.8 z m 0,-4.1 v -2.8 c 0,-0.6 0,-1.2 0.1,-1.8 h -0.1 c -0.3,0.7 -0.6,1.2 -0.9,1.8 l -1.9,2.8 0,0 h 2.8 z"
   id="path3375"
   inkscape:connector-curvature="0"
   style="fill:#454746" />
	</g>
	<g
   id="g3377">
		<path
   d="m 152.2,257.5 c -0.3,0 -0.6,0 -1,0 -2.2,0.3 -3.2,1.6 -3.5,3 h 0 c 0.5,-0.6 1.3,-1 2.3,-1 1.8,0 3.2,1.3 3.2,3.4 0,2 -1.5,3.7 -3.7,3.7 -2.5,0 -3.9,-1.9 -3.9,-4.5 0,-2 0.7,-3.6 1.8,-4.7 1,-0.9 2.2,-1.4 3.7,-1.5 0.4,0 0.8,0 1,0 l 0.1,1.6 z m -0.9,5.6 c 0,-1.2 -0.7,-2.1 -1.8,-2.1 -0.7,0 -1.4,0.4 -1.7,1.1 -0.1,0.2 -0.1,0.4 -0.1,0.6 0,1.4 0.7,2.5 2,2.5 1,0 1.6,-0.9 1.6,-2.1 z"
   id="path3379"
   inkscape:connector-curvature="0"
   style="fill:#454746" />
	</g>
	<g
   id="g3381">
		<path
   d="m 145.8,187.8 c 0,-1.3 0.8,-2.2 2,-2.7 v 0 c -1.1,-0.5 -1.6,-1.4 -1.6,-2.3 0,-1.7 1.5,-2.8 3.5,-2.8 2.2,0 3.3,1.3 3.3,2.6 0,0.9 -0.5,1.8 -1.6,2.4 v 0 c 1.1,0.4 2,1.3 2,2.6 0,1.9 -1.6,3.1 -3.8,3.1 -2.6,0 -3.8,-1.4 -3.8,-2.9 z m 5.4,-0.1 c 0,-1.1 -0.8,-1.6 -1.9,-2 -1,0.3 -1.5,1 -1.5,1.8 0,0.9 0.6,1.7 1.7,1.7 1.1,0.1 1.7,-0.6 1.7,-1.5 z m -3.2,-5 c 0,0.8 0.7,1.4 1.7,1.6 0.7,-0.2 1.3,-0.8 1.3,-1.6 0,-0.7 -0.4,-1.5 -1.5,-1.5 -1,0.1 -1.5,0.7 -1.5,1.5 z"
   id="path3383"
   inkscape:connector-curvature="0"
   style="fill:#454746" />
	</g>
</g>
<g
   id="g3385"
   transform="translate(-61,-54.5)">
	<g
   id="g3387">
		<path
   d="m 198.5,470.9 0,0 -1.9,1 -0.3,-1.5 2.5,-1.2 h 1.6 v 10.4 h -1.9 v -8.7 z"
   id="path3389"
   inkscape:connector-curvature="0"
   style="fill:#454746" />
	</g>
	<g
   id="g3391">
		<path
   d="m 260.4,479.5 v -1.2 l 1.2,-1.1 c 2.4,-2.3 3.6,-3.5 3.6,-4.9 0,-0.9 -0.5,-1.7 -1.9,-1.7 -0.9,0 -1.7,0.5 -2.2,0.9 l -0.6,-1.4 c 0.8,-0.6 1.9,-1.1 3.2,-1.1 2.3,0 3.4,1.5 3.4,3.2 0,1.8 -1.3,3.3 -3.1,5 l -0.9,0.8 v 0 h 4.3 v 1.6 h -7 z"
   id="path3393"
   inkscape:connector-curvature="0"
   style="fill:#454746" />
	</g>
	<g
   id="g3395">
		<path
   d="m 325.8,477.5 c 0.4,0.2 1.4,0.6 2.4,0.6 1.5,0 2.1,-0.8 2.1,-1.7 0,-1.2 -1.2,-1.8 -2.4,-1.8 H 327 v -1.4 h 0.9 c 0.9,0 2.1,-0.4 2.1,-1.5 0,-0.7 -0.5,-1.3 -1.7,-1.3 -0.8,0 -1.7,0.4 -2.1,0.7 l -0.4,-1.4 c 0.6,-0.4 1.7,-0.8 3,-0.8 2.1,0 3.2,1.2 3.2,2.5 0,1.1 -0.6,2 -1.9,2.4 v 0 c 1.3,0.2 2.3,1.2 2.3,2.6 0,1.8 -1.5,3.2 -4,3.2 -1.3,0 -2.4,-0.4 -2.9,-0.7 l 0.3,-1.4 z"
   id="path3397"
   inkscape:connector-curvature="0"
   style="fill:#454746" />
	</g>
	<g
   id="g3399">
		<path
   d="m 394.7,479.5 v -2.6 H 390 v -1.3 l 4.2,-6.5 h 2.3 v 6.3 h 1.3 v 1.5 h -1.3 v 2.6 h -1.8 z m 0,-4.1 v -2.8 c 0,-0.6 0,-1.2 0.1,-1.8 h -0.1 c -0.3,0.7 -0.6,1.2 -0.9,1.8 l -1.9,2.8 0,0 h 2.8 z"
   id="path3401"
   inkscape:connector-curvature="0"
   style="fill:#454746" />
	</g>
	<g
   id="g3403">
		<path
   d="m 462,470.7 h -4 l -0.3,2.1 c 0.2,0 0.4,0 0.8,0 0.9,0 1.8,0.2 2.5,0.7 0.8,0.5 1.4,1.4 1.4,2.6 0,2 -1.6,3.6 -4.2,3.6 -1.2,0 -2.2,-0.3 -2.8,-0.6 l 0.4,-1.5 c 0.4,0.2 1.3,0.5 2.3,0.5 1.2,0 2.3,-0.7 2.3,-1.9 0,-1.2 -0.9,-2 -3,-2 -0.6,0 -1,0 -1.4,0.1 l 0.7,-5.2 h 5.4 v 1.6 z"
   id="path3405"
   inkscape:connector-curvature="0"
   style="fill:#454746" />
	</g>
	<g
   id="g3407">
		<path
   d="m 526.7,470.5 c -0.3,0 -0.6,0 -1,0 -2.2,0.3 -3.2,1.6 -3.5,3 h 0 c 0.5,-0.6 1.3,-1 2.3,-1 1.8,0 3.2,1.3 3.2,3.4 0,2 -1.5,3.7 -3.7,3.7 -2.5,0 -3.9,-1.9 -3.9,-4.5 0,-2 0.7,-3.6 1.8,-4.7 1,-0.9 2.2,-1.4 3.7,-1.5 0.4,0 0.8,0 1,0 l 0.1,1.6 z m -0.9,5.6 c 0,-1.2 -0.7,-2.1 -1.8,-2.1 -0.7,0 -1.4,0.4 -1.7,1.1 -0.1,0.2 -0.1,0.4 -0.1,0.6 0,1.4 0.7,2.5 2,2.5 1,0 1.6,-0.9 1.6,-2.1 z"
   id="path3409"
   inkscape:connector-curvature="0"
   style="fill:#454746" />
	</g>
	<g
   id="g3411">
		<path
   d="m 592.6,469.1 v 1.3 l -4.4,9.1 h -2.1 l 4.4,-8.7 v 0 h -4.9 v -1.6 h 7 z"
   id="path3413"
   inkscape:connector-curvature="0"
   style="fill:#454746" />
	</g>
	<g
   id="g3415">
		<path
   d="m 650.3,476.8 c 0,-1.3 0.8,-2.2 2,-2.7 v 0 c -1.1,-0.5 -1.6,-1.4 -1.6,-2.3 0,-1.7 1.5,-2.8 3.5,-2.8 2.2,0 3.3,1.3 3.3,2.6 0,0.9 -0.5,1.8 -1.6,2.4 v 0 c 1.1,0.4 2,1.3 2,2.6 0,1.9 -1.6,3.1 -3.8,3.1 -2.6,0 -3.8,-1.4 -3.8,-2.9 z m 5.4,-0.1 c 0,-1.1 -0.8,-1.6 -1.9,-2 -1,0.3 -1.5,1 -1.5,1.8 0,0.9 0.6,1.7 1.7,1.7 1.1,0.1 1.7,-0.6 1.7,-1.5 z m -3.2,-5 c 0,0.8 0.7,1.4 1.7,1.6 0.7,-0.2 1.3,-0.8 1.3,-1.6 0,-0.7 -0.4,-1.5 -1.5,-1.5 -1,0.1 -1.5,0.7 -1.5,1.5 z"
   id="path3417"
   inkscape:connector-curvature="0"
   style="fill:#454746" />
	</g>
	<g
   id="g3419">
		<path
   d="m 716.2,478.1 c 0.3,0 0.6,0 1.1,0 0.8,-0.1 1.5,-0.3 2.1,-0.8 0.7,-0.5 1.1,-1.3 1.3,-2.3 l 0,0 c -0.5,0.6 -1.3,0.9 -2.3,0.9 -1.8,0 -3.2,-1.3 -3.2,-3.2 0,-2 1.5,-3.7 3.8,-3.7 2.4,0 3.7,1.9 3.7,4.4 0,2.2 -0.7,3.8 -1.8,4.8 -0.9,0.8 -2.2,1.3 -3.6,1.4 -0.4,0 -0.9,0 -1.2,0 v -1.5 z m 1,-5.6 c 0,1.1 0.6,1.9 1.7,1.9 0.8,0 1.4,-0.4 1.7,-0.9 0.1,-0.1 0.1,-0.3 0.1,-0.6 0,-1.4 -0.5,-2.6 -1.8,-2.6 -1,0.1 -1.7,1 -1.7,2.2 z"
   id="path3421"
   inkscape:connector-curvature="0"
   style="fill:#454746" />
	</g>
</g>
<line
   stroke-miterlimit="10"
   x1="79.5"
   y1="131"
   x2="73"
   y2="131"
   id="line3423"
   style="fill:none;stroke:#454746;stroke-miterlimit:10" />
<line
   stroke-miterlimit="10"
   x1="79.5"
   y1="55.300003"
   x2="73"
   y2="55.300003"
   id="line3425"
   style="fill:none;stroke:#454746;stroke-miterlimit:10" />
<line
   stroke-miterlimit="10"
   x1="79.5"
   y1="207"
   x2="73"
   y2="207"
   id="line3427"
   style="fill:none;stroke:#454746;stroke-miterlimit:10" />
<line
   stroke-miterlimit="10"
   x1="79.5"
   y1="283"
   x2="73"
   y2="283"
   id="line3429"
   style="fill:none;stroke:#454746;stroke-miterlimit:10" />
<line
   stroke-miterlimit="10"
   x1="79.5"
   y1="359"
   x2="73"
   y2="359"
   id="line3431"
   style="fill:none;stroke:#454746;stroke-miterlimit:10" />
<line
   stroke-miterlimit="10"
   x1="138"
   y1="428.5"
   x2="138"
   y2="435"
   id="line3433"
   style="fill:none;stroke:#454746;stroke-miterlimit:10" />
<line
   stroke-miterlimit="10"
   x1="203"
   y1="428.5"
   x2="203"
   y2="435"
   id="line3435"
   style="fill:none;stroke:#454746;stroke-miterlimit:10" />
<line
   stroke-miterlimit="10"
   x1="268"
   y1="428.5"
   x2="268"
   y2="435"
   id="line3437"
   style="fill:none;stroke:#454746;stroke-miterlimit:10" />
<line
   stroke-miterlimit="10"
   x1="333"
   y1="428.5"
   x2="333"
   y2="435"
   id="line3439"
   style="fill:none;stroke:#454746;stroke-miterlimit:10" />
<line
   stroke-miterlimit="10"
   x1="398"
   y1="428.5"
   x2="398"
   y2="435"
   id="line3441"
   style="fill:none;stroke:#454746;stroke-miterlimit:10" />
<line
   stroke-miterlimit="10"
   x1="463"
   y1="428.5"
   x2="463"
   y2="435"
   id="line3443"
   style="fill:none;stroke:#454746;stroke-miterlimit:10" />
<line
   stroke-miterlimit="10"
   x1="528"
   y1="428.5"
   x2="528"
   y2="435"
   id="line3445"
   style="fill:none;stroke:#454746;stroke-miterlimit:10" />
<line
   stroke-miterlimit="10"
   x1="593"
   y1="428.5"
   x2="593"
   y2="435"
   id="line3447"
   style="fill:none;stroke:#454746;stroke-miterlimit:10" />
<line
   stroke-miterlimit="10"
   x1="658"
   y1="428.5"
   x2="658"
   y2="435"
   id="line3449"
   style="fill:none;stroke:#454746;stroke-miterlimit:10" />
<line
   stroke-miterlimit="10"
   x1="723"
   y1="428.5"
   x2="723"
   y2="435"
   id="line3451"
   style="fill:none;stroke:#454746;stroke-miterlimit:10" />
<path
   stroke-miterlimit="10"
   d="M 73,435 C 97,380.5 723,355 723,355"
   id="path3453"
   inkscape:connector-curvature="0"
   style="fill:none;stroke:#75b640;stroke-width:4;stroke-linecap:round;stroke-miterlimit:10" />
</svg>