<?xml version="1.0" encoding="UTF-8" standalone="no"?>
<!-- Generator: Adobe Illustrator 18.0.0, SVG Export Plug-In . SVG Version: 6.00 Build 0)  -->

<svg
   xmlns:dc="http://purl.org/dc/elements/1.1/"
   xmlns:cc="http://creativecommons.org/ns#"
   xmlns:rdf="http://www.w3.org/1999/02/22-rdf-syntax-ns#"
   xmlns:svg="http://www.w3.org/2000/svg"
   xmlns="http://www.w3.org/2000/svg"
   xmlns:sodipodi="http://sodipodi.sourceforge.net/DTD/sodipodi-0.dtd"
   xmlns:inkscape="http://www.inkscape.org/namespaces/inkscape"
   version="1.1"
   id="graphs"
   x="0px"
   y="0px"
   viewBox="0 0 779 508.7"
   enable-background="new 0 0 900 600"
   xml:space="preserve"
   inkscape:version="0.48.5 r10040"
   width="100%"
   height="100%"
   sodipodi:docname="170_06_log_sum.svg"><metadata
     id="metadata3666"><rdf:RDF><cc:Work
         rdf:about=""><dc:format>image/svg+xml</dc:format><dc:type
           rdf:resource="http://purl.org/dc/dcmitype/StillImage" /></cc:Work></rdf:RDF></metadata><defs
     id="defs3664" /><sodipodi:namedview
     pagecolor="#ffffff"
     bordercolor="#666666"
     borderopacity="1"
     objecttolerance="10"
     gridtolerance="10"
     guidetolerance="10"
     inkscape:pageopacity="0"
     inkscape:pageshadow="2"
     inkscape:window-width="1440"
     inkscape:window-height="851"
     id="namedview3662"
     showgrid="false"
     fit-margin-left="30"
     fit-margin-right="50"
     fit-margin-bottom="30"
     fit-margin-top="50"
     inkscape:zoom="1.2350799"
     inkscape:cx="292.5"
     inkscape:cy="183.2"
     inkscape:window-x="0"
     inkscape:window-y="0"
     inkscape:window-maximized="1"
     inkscape:current-layer="g3444" /><path
     d="M 726,440.3 H 72 c -1.7,0 -3,-1.4 -3,-3 V 53 c 0,-1.7 1.3,-3 3,-3 h 654 c 1.7,0 3,1.3 3,3 v 384.3 c 0,1.7 -1.3,3 -3,3 z"
     id="path3346"
     inkscape:connector-curvature="0"
     style="fill:#f8faf6" /><g
     id="g3348"
     transform="translate(-57,-54.5)"><path
       d="m 369,532.8 v -16.2 h 3.4 l 4.2,6.9 c 1.1,1.8 2,3.7 2.8,5.4 h 0 c -0.2,-2.2 -0.3,-4.2 -0.3,-6.7 v -5.6 h 2.7 v 16.2 h -3 l -4.2,-7.1 c -1,-1.8 -2.1,-3.8 -2.9,-5.6 l -0.1,0 c 0.1,2.1 0.1,4.2 0.1,6.9 v 5.8 H 369 z"
       id="path3350"
       inkscape:connector-curvature="0"
       style="fill:#454746" /><path
       d="m 395.6,529.3 c 0,1.4 0,2.5 0.1,3.5 h -2.6 L 393,531 h 0 c -0.5,0.8 -1.7,2 -3.7,2 -2.1,0 -4.1,-1.3 -4.1,-5.1 V 521 h 3 v 6.4 c 0,1.9 0.6,3.2 2.2,3.2 1.2,0 1.9,-0.8 2.3,-1.6 0.1,-0.3 0.2,-0.6 0.2,-0.9 V 521 h 3 v 8.3 z"
       id="path3352"
       inkscape:connector-curvature="0"
       style="fill:#454746" /><path
       d="m 398.8,524.6 c 0,-1.3 0,-2.5 -0.1,-3.5 h 2.5 l 0.1,1.7 h 0.1 c 0.6,-0.9 1.6,-2 3.6,-2 1.5,0 2.7,0.9 3.2,2.2 h 0 c 0.4,-0.6 0.9,-1.1 1.4,-1.5 0.6,-0.5 1.4,-0.7 2.4,-0.7 1.9,0 3.9,1.3 3.9,5.1 v 6.9 H 413 v -6.5 c 0,-1.9 -0.7,-3.1 -2.1,-3.1 -1,0 -1.8,0.7 -2.1,1.6 -0.1,0.3 -0.1,0.6 -0.1,1 v 7 H 406 V 526 c 0,-1.6 -0.6,-2.8 -2,-2.8 -1.1,0 -1.8,0.9 -2.1,1.7 -0.1,0.3 -0.2,0.6 -0.2,1 v 6.9 h -2.9 v -8.2 z"
       id="path3354"
       inkscape:connector-curvature="0"
       style="fill:#454746" /><path
       d="m 419,532.8 c 0,-0.8 0.1,-2.1 0.1,-3.3 v -13.8 h 3 v 7 h 0 c 0.7,-1.1 2,-1.9 3.7,-1.9 2.9,0 4.9,2.4 4.9,5.9 0,4.2 -2.7,6.3 -5.3,6.3 -1.5,0 -2.9,-0.6 -3.7,-2 h 0 l -0.1,1.8 H 419 z m 3.1,-4.8 c 0,0.2 0,0.5 0.1,0.7 0.3,1.2 1.3,2.1 2.6,2.1 1.8,0 3,-1.5 3,-3.8 0,-2.1 -1,-3.7 -3,-3.7 -1.2,0 -2.3,0.9 -2.6,2.2 0,0.2 -0.1,0.5 -0.1,0.8 v 1.7 z"
       id="path3356"
       inkscape:connector-curvature="0"
       style="fill:#454746" /><path
       d="m 435.3,527.8 c 0.1,2.1 1.7,3 3.6,3 1.4,0 2.4,-0.2 3.2,-0.5 l 0.4,2 c -1,0.4 -2.4,0.7 -4.1,0.7 -3.8,0 -6,-2.3 -6,-5.9 0,-3.2 2,-6.3 5.7,-6.3 3.8,0 5,3.1 5,5.7 0,0.6 0,1 -0.1,1.2 h -7.7 z m 5.1,-2 c 0,-1.1 -0.5,-2.9 -2.4,-2.9 -1.8,0 -2.6,1.7 -2.7,2.9 h 5.1 z"
       id="path3358"
       inkscape:connector-curvature="0"
       style="fill:#454746" /><path
       d="m 445.6,524.9 c 0,-1.6 0,-2.7 -0.1,-3.8 h 2.6 l 0.1,2.2 h 0.1 c 0.6,-1.7 1.9,-2.5 3.2,-2.5 0.3,0 0.5,0 0.7,0.1 v 2.8 c -0.2,0 -0.5,-0.1 -0.9,-0.1 -1.4,0 -2.4,0.9 -2.6,2.2 0,0.3 -0.1,0.6 -0.1,0.9 v 6 h -3 v -7.8 z"
       id="path3360"
       inkscape:connector-curvature="0"
       style="fill:#454746" /><path
       d="m 470.2,526.9 c 0,4.3 -3,6.2 -6,6.2 -3.3,0 -5.9,-2.3 -5.9,-6 0,-3.8 2.5,-6.2 6,-6.2 3.6,0 5.9,2.4 5.9,6 z m -8.8,0.1 c 0,2.3 1.1,4 2.9,4 1.7,0 2.9,-1.7 2.9,-4 0,-1.8 -0.8,-3.9 -2.8,-3.9 -2.2,-0.1 -3,2 -3,3.9 z"
       id="path3362"
       inkscape:connector-curvature="0"
       style="fill:#454746" /><path
       d="m 472.9,532.8 v -9.5 h -1.6 v -2.2 h 1.6 v -0.5 c 0,-1.5 0.4,-3 1.4,-4 0.9,-0.8 2,-1.1 3,-1.1 0.8,0 1.4,0.1 1.9,0.3 l -0.2,2.3 c -0.3,-0.1 -0.7,-0.2 -1.2,-0.2 -1.5,0 -2,1.2 -2,2.7 v 0.6 h 2.6 v 2.2 h -2.5 v 9.5 h -3 z"
       id="path3364"
       inkscape:connector-curvature="0"
       style="fill:#454746" /><path
       d="m 487.1,521.1 1.9,5.9 c 0.3,1 0.6,2 0.8,2.9 h 0.1 c 0.2,-1 0.5,-1.9 0.8,-2.9 l 1.8,-5.9 h 3.1 l -4.5,11.7 h -2.9 l -4.3,-11.7 h 3.2 z"
       id="path3366"
       inkscape:connector-curvature="0"
       style="fill:#454746" /><path
       d="m 508.2,526.9 c 0,4.3 -3,6.2 -6,6.2 -3.3,0 -5.9,-2.3 -5.9,-6 0,-3.8 2.5,-6.2 6,-6.2 3.6,0 5.9,2.4 5.9,6 z m -8.8,0.1 c 0,2.3 1.1,4 2.9,4 1.7,0 2.9,-1.7 2.9,-4 0,-1.8 -0.8,-3.9 -2.8,-3.9 -2.1,-0.1 -3,2 -3,3.9 z"
       id="path3368"
       inkscape:connector-curvature="0"
       style="fill:#454746" /><path
       d="m 514,517.8 v 3.3 h 2.8 v 2.2 H 514 v 5.2 c 0,1.4 0.4,2.2 1.5,2.2 0.5,0 0.9,-0.1 1.2,-0.1 l 0,2.3 c -0.4,0.2 -1.2,0.3 -2.1,0.3 -1.1,0 -2,-0.4 -2.5,-1 -0.6,-0.7 -0.9,-1.7 -0.9,-3.3 v -5.5 h -1.7 v -2.2 h 1.7 v -2.6 l 2.8,-0.8 z"
       id="path3370"
       inkscape:connector-curvature="0"
       style="fill:#454746" /><path
       d="m 521,527.8 c 0.1,2.1 1.7,3 3.6,3 1.4,0 2.4,-0.2 3.2,-0.5 l 0.4,2 c -1,0.4 -2.4,0.7 -4.1,0.7 -3.8,0 -6,-2.3 -6,-5.9 0,-3.2 2,-6.3 5.7,-6.3 3.8,0 5,3.1 5,5.7 0,0.6 0,1 -0.1,1.2 H 521 z m 5.2,-2 c 0,-1.1 -0.5,-2.9 -2.4,-2.9 -1.8,0 -2.6,1.7 -2.7,2.9 h 5.1 z"
       id="path3372"
       inkscape:connector-curvature="0"
       style="fill:#454746" /><path
       d="m 531.2,530.1 c 0.7,0.4 1.9,0.8 3,0.8 1.3,0 1.9,-0.5 1.9,-1.3 0,-0.8 -0.5,-1.2 -1.9,-1.7 -2.3,-0.8 -3.2,-2 -3.2,-3.4 0,-2.1 1.7,-3.7 4.4,-3.7 1.3,0 2.4,0.3 3.1,0.7 l -0.6,2.1 c -0.5,-0.3 -1.4,-0.7 -2.5,-0.7 -1.1,0 -1.6,0.5 -1.6,1.2 0,0.7 0.6,1.1 2,1.6 2.1,0.8 3.1,1.8 3.1,3.6 0,2.1 -1.7,3.6 -4.8,3.6 -1.4,0 -2.7,-0.3 -3.6,-0.8 l 0.7,-2 z"
       id="path3374"
       inkscape:connector-curvature="0"
       style="fill:#454746" /></g><g
     id="g3376"
     transform="translate(-57,-54.5)"><path
       d="M 103.2,350.9 H 87 v -3.4 l 6.9,-4.2 c 1.8,-1.1 3.7,-2 5.4,-2.8 v 0 c -2.2,0.2 -4.2,0.3 -6.7,0.3 H 87 v -2.7 h 16.2 v 3 l -7.1,4.2 c -1.8,1 -3.8,2.1 -5.6,2.9 l 0,0.1 c 2.1,-0.1 4.2,-0.1 6.9,-0.1 h 5.8 v 2.7 z"
       id="path3378"
       inkscape:connector-curvature="0"
       style="fill:#454746" /><path
       d="m 98.2,332.8 c 2.1,-0.1 3,-1.7 3,-3.6 0,-1.4 -0.2,-2.4 -0.5,-3.2 l 2,-0.4 c 0.4,1 0.7,2.4 0.7,4.1 0,3.8 -2.3,6 -5.9,6 -3.2,0 -6.3,-2 -6.3,-5.7 0,-3.8 3.1,-5 5.7,-5 0.6,0 1,0 1.2,0.1 v 7.7 z m -2.1,-5.2 c -1.1,0 -2.9,0.5 -2.9,2.4 0,1.8 1.7,2.6 2.9,2.7 v -5.1 z"
       id="path3380"
       inkscape:connector-curvature="0"
       style="fill:#454746" /><path
       d="m 91.5,320.8 5.3,-1.2 c 1.2,-0.3 2.5,-0.5 3.8,-0.7 v 0 c -1.3,-0.2 -2.6,-0.6 -3.8,-1 l -5.3,-1.5 V 314 l 5.2,-1.5 c 1.4,-0.4 2.6,-0.7 3.9,-0.9 v 0 c -1.3,-0.2 -2.5,-0.5 -3.9,-0.8 l -5.2,-1.3 v -2.9 l 11.7,3.7 v 2.7 l -4.8,1.4 c -1.2,0.4 -2.3,0.6 -3.7,0.9 v 0 c 1.4,0.2 2.6,0.6 3.7,0.9 l 4.8,1.5 v 2.8 L 91.5,324 v -3.2 z"
       id="path3382"
       inkscape:connector-curvature="0"
       style="fill:#454746" /><path
       d="m 100.5,299.7 c 0.4,-0.7 0.8,-1.9 0.8,-3 0,-1.3 -0.5,-1.9 -1.3,-1.9 -0.8,0 -1.2,0.5 -1.7,1.9 -0.8,2.3 -2,3.2 -3.4,3.2 -2.1,0 -3.7,-1.7 -3.7,-4.4 0,-1.3 0.3,-2.4 0.7,-3.1 L 94,293 c -0.3,0.5 -0.7,1.4 -0.7,2.5 0,1.1 0.5,1.6 1.2,1.6 0.7,0 1.1,-0.6 1.6,-2 0.8,-2.1 1.8,-3.1 3.6,-3.1 2.1,0 3.6,1.7 3.6,4.8 0,1.4 -0.3,2.7 -0.8,3.6 l -2,-0.7 z"
       id="path3384"
       inkscape:connector-curvature="0"
       style="fill:#454746" /><path
       d="m 102.8,281 c 0.3,0.6 0.6,1.8 0.6,3.3 0,3.6 -2.3,6 -6,6 -3.5,0 -6.2,-2.4 -6.2,-6.5 0,-1.1 0.2,-2.2 0.6,-2.9 l 2.2,0.5 c -0.2,0.5 -0.5,1.2 -0.5,2.2 0,2.3 1.7,3.6 3.8,3.6 2.4,0 3.8,-1.6 3.8,-3.6 0,-1 -0.2,-1.8 -0.5,-2.3 l 2.2,-0.3 z"
       id="path3386"
       inkscape:connector-curvature="0"
       style="fill:#454746" /><path
       d="m 97.2,267.9 c 4.3,0 6.2,3 6.2,6 0,3.3 -2.3,5.9 -6,5.9 -3.8,0 -6.2,-2.5 -6.2,-6 0,-3.6 2.5,-5.9 6,-5.9 z m 0.2,8.8 c 2.3,0 4,-1.1 4,-2.9 0,-1.7 -1.7,-2.9 -4,-2.9 -1.8,0 -3.9,0.8 -3.9,2.8 -0.1,2.2 1.9,3 3.9,3 z"
       id="path3388"
       inkscape:connector-curvature="0"
       style="fill:#454746" /><path
       d="m 95.3,265.5 c -1.6,0 -2.7,0 -3.8,0.1 V 263 l 2.2,-0.1 v -0.1 c -1.7,-0.6 -2.5,-1.9 -2.5,-3.2 0,-0.3 0,-0.5 0.1,-0.7 h 2.8 c 0,0.2 -0.1,0.5 -0.1,0.9 0,1.4 0.9,2.4 2.2,2.6 0.3,0 0.6,0.1 0.9,0.1 h 6 v 3 h -7.8 z"
       id="path3390"
       inkscape:connector-curvature="0"
       style="fill:#454746" /><path
       d="m 98.2,255.1 c 2.1,-0.1 3,-1.7 3,-3.6 0,-1.4 -0.2,-2.4 -0.5,-3.2 l 2,-0.4 c 0.4,1 0.7,2.4 0.7,4.1 0,3.8 -2.3,6 -5.9,6 -3.2,0 -6.3,-2 -6.3,-5.7 0,-3.8 3.1,-5 5.7,-5 0.6,0 1,0 1.2,0.1 v 7.7 z m -2.1,-5.2 c -1.1,0 -2.9,0.5 -2.9,2.4 0,1.8 1.7,2.6 2.9,2.7 v -5.1 z"
       id="path3392"
       inkscape:connector-curvature="0"
       style="fill:#454746" /></g><g
     id="g3394"
     transform="translate(-57,-54.5)"><line
       stroke-miterlimit="10"
       x1="131"
       y1="109.5"
       x2="131"
       y2="489.5"
       id="line3396"
       style="fill:none;stroke:#d6d6d6;stroke-miterlimit:10" /><line
       stroke-miterlimit="10"
       x1="196"
       y1="109.5"
       x2="196"
       y2="489.5"
       id="line3398"
       style="fill:none;stroke:#d6d6d6;stroke-miterlimit:10" /><line
       stroke-miterlimit="10"
       x1="261"
       y1="109.5"
       x2="261"
       y2="489.5"
       id="line3400"
       style="fill:none;stroke:#d6d6d6;stroke-miterlimit:10" /><line
       stroke-miterlimit="10"
       x1="326"
       y1="109.5"
       x2="326"
       y2="489.5"
       id="line3402"
       style="fill:none;stroke:#d6d6d6;stroke-miterlimit:10" /><line
       stroke-miterlimit="10"
       x1="391"
       y1="109.5"
       x2="391"
       y2="489.5"
       id="line3404"
       style="fill:none;stroke:#d6d6d6;stroke-miterlimit:10" /><line
       stroke-miterlimit="10"
       x1="456"
       y1="109.5"
       x2="456"
       y2="489.5"
       id="line3406"
       style="fill:none;stroke:#d6d6d6;stroke-miterlimit:10" /><line
       stroke-miterlimit="10"
       x1="521"
       y1="109.5"
       x2="521"
       y2="489.5"
       id="line3408"
       style="fill:none;stroke:#d6d6d6;stroke-miterlimit:10" /><line
       stroke-miterlimit="10"
       x1="586"
       y1="109.5"
       x2="586"
       y2="489.5"
       id="line3410"
       style="fill:none;stroke:#d6d6d6;stroke-miterlimit:10" /><line
       stroke-miterlimit="10"
       x1="651"
       y1="109.5"
       x2="651"
       y2="489.5"
       id="line3412"
       style="fill:none;stroke:#d6d6d6;stroke-miterlimit:10" /><line
       stroke-miterlimit="10"
       x1="716"
       y1="109.5"
       x2="716"
       y2="489.5"
       id="line3414"
       style="fill:none;stroke:#d6d6d6;stroke-miterlimit:10" /><line
       stroke-miterlimit="10"
       x1="781"
       y1="109.5"
       x2="781"
       y2="489.5"
       id="line3416"
       style="fill:none;stroke:#d6d6d6;stroke-miterlimit:10" /><line
       stroke-miterlimit="10"
       x1="131"
       y1="109.5"
       x2="781"
       y2="109.5"
       id="line3418"
       style="fill:none;stroke:#d6d6d6;stroke-miterlimit:10" /><line
       stroke-miterlimit="10"
       x1="131"
       y1="489.5"
       x2="781"
       y2="489.5"
       id="line3420"
       style="fill:none;stroke:#d6d6d6;stroke-miterlimit:10" /><line
       stroke-miterlimit="10"
       x1="131"
       y1="489.5"
       x2="781"
       y2="489.5"
       id="line3422"
       style="fill:none;stroke:#d6d6d6;stroke-miterlimit:10" /><path
       stroke-miterlimit="10"
       d="M 781,300"
       id="path3424"
       inkscape:connector-curvature="0"
       style="fill:none;stroke:#d6d6d6;stroke-miterlimit:10" /><path
       stroke-miterlimit="10"
       d="M 131,300"
       id="path3426"
       inkscape:connector-curvature="0"
       style="fill:none;stroke:#d6d6d6;stroke-miterlimit:10" /><line
       stroke-miterlimit="10"
       x1="131"
       y1="442"
       x2="781"
       y2="442"
       id="line3428"
       style="fill:none;stroke:#d6d6d6;stroke-miterlimit:10" /><line
       stroke-miterlimit="10"
       x1="131"
       y1="394.5"
       x2="781"
       y2="394.5"
       id="line3430"
       style="fill:none;stroke:#d6d6d6;stroke-miterlimit:10" /><line
       stroke-miterlimit="10"
       x1="131"
       y1="347"
       x2="781"
       y2="347"
       id="line3432"
       style="fill:none;stroke:#d6d6d6;stroke-miterlimit:10" /><line
       stroke-miterlimit="10"
       x1="131"
       y1="299.5"
       x2="781"
       y2="299.5"
       id="line3434"
       style="fill:none;stroke:#d6d6d6;stroke-miterlimit:10" /><line
       stroke-miterlimit="10"
       x1="131"
       y1="252"
       x2="781"
       y2="252"
       id="line3436"
       style="fill:none;stroke:#d6d6d6;stroke-miterlimit:10" /><line
       stroke-miterlimit="10"
       x1="131"
       y1="204.5"
       x2="781"
       y2="204.5"
       id="line3438"
       style="fill:none;stroke:#d6d6d6;stroke-miterlimit:10" /><line
       stroke-miterlimit="10"
       x1="131"
       y1="157"
       x2="781"
       y2="157"
       id="line3440"
       style="fill:none;stroke:#d6d6d6;stroke-miterlimit:10" /></g><g
     id="g3442"
     transform="translate(-57,-54.5)"><g
       id="g3444"><path
         d="m 208.6,225.2 c 1.6,0 2.9,0.6 3.8,1.7 0.9,1.1 1.4,2.6 1.4,4.4 0,1.8 -0.5,3.3 -1.4,4.5 -0.9,1.2 -2.2,1.7 -3.8,1.7 -1.6,0 -2.9,-0.6 -3.8,-1.7 -0.9,-1.1 -1.4,-2.6 -1.4,-4.5 0,-1.8 0.5,-3.3 1.4,-4.4 0.9,-1.2 2.2,-1.7 3.8,-1.7 z m 0,10.7 c 1.1,0 1.9,-0.4 2.5,-1.3 0.6,-0.9 0.9,-2 0.9,-3.3 0,-1.3 -0.3,-2.5 -0.9,-3.3 -0.6,-0.9 -1.4,-1.3 -2.5,-1.3 -1.1,0 -1.9,0.4 -2.5,1.3 -0.6,0.9 -0.9,2 -0.9,3.3 0,1.3 0.3,2.4 0.9,3.3 0.6,0.9 1.4,1.3 2.5,1.3 z"
         id="path3446"
         inkscape:connector-curvature="0"
         style="fill:#454746" /><path
         d="m 226,237.2 h -4.8 v -14.3 h -3.1 v -1.5 h 4.8 v 14.3 h 3 v 1.5 z"
         id="path3448"
         inkscape:connector-curvature="0"
         style="fill:#454746" /><path
         d="m 240.7,237.2 h -1.8 v -1.7 c -0.4,0.6 -0.9,1.1 -1.5,1.4 -0.6,0.3 -1.4,0.6 -2.1,0.6 -1.3,0 -2.4,-0.6 -3.2,-1.8 -0.8,-1.2 -1.2,-2.7 -1.2,-4.5 0,-1.7 0.4,-3.1 1.2,-4.3 0.8,-1.1 1.9,-1.7 3.2,-1.7 1.5,0 2.7,0.6 3.6,1.8 v -5.7 h 1.8 v 15.9 z m -1.8,-3.6 v -4.9 c -0.8,-1.3 -1.8,-2 -3,-2 -1,0 -1.7,0.4 -2.3,1.3 -0.6,0.9 -0.8,1.9 -0.8,3.3 0,1.3 0.3,2.5 0.8,3.3 0.5,0.9 1.3,1.3 2.2,1.3 0.4,0 0.9,-0.1 1.3,-0.4 0.4,-0.3 0.9,-0.6 1.3,-1.1 0.3,-0.4 0.5,-0.7 0.5,-0.8 z"
         id="path3450"
         inkscape:connector-curvature="0"
         style="fill:#454746" /><path
         d="m 256.9,242.2 h -13.8 v -1.5 h 13.8 v 1.5 z"
         id="path3452"
         inkscape:connector-curvature="0"
         style="fill:#454746" /><path
         d="m 267.1,227.1 c -1,-0.3 -1.9,-0.5 -2.8,-0.5 -1,0 -1.7,0.2 -2.3,0.5 -0.6,0.3 -0.8,0.7 -0.8,1.3 0,0.3 0.1,0.6 0.4,0.9 0.3,0.3 0.8,0.5 1.5,0.7 l 1.7,0.5 c 0.8,0.2 1.4,0.5 1.9,0.8 0.5,0.3 0.9,0.7 1.1,1.1 0.2,0.4 0.4,0.9 0.4,1.5 0,1.1 -0.5,2 -1.4,2.6 -0.9,0.6 -2.1,1 -3.6,1 -1.4,0 -2.6,-0.2 -3.6,-0.7 l 0.3,-1.5 c 1,0.5 2,0.7 3.2,0.7 1,0 1.8,-0.2 2.4,-0.5 0.6,-0.4 0.9,-0.8 0.9,-1.4 0,-0.4 -0.2,-0.8 -0.5,-1.1 -0.3,-0.3 -1,-0.6 -2.1,-1 -0.9,-0.3 -1.6,-0.5 -2,-0.6 -0.4,-0.1 -0.8,-0.3 -1.2,-0.6 -0.4,-0.3 -0.6,-0.6 -0.8,-1 -0.2,-0.4 -0.3,-0.8 -0.3,-1.3 0,-1 0.4,-1.8 1.3,-2.4 0.9,-0.6 2.1,-0.9 3.5,-0.9 0.9,0 2,0.2 3.1,0.5 l -0.3,1.4 z"
         id="path3454"
         inkscape:connector-curvature="0"
         style="fill:#454746" /><path
         d="m 282.1,236.8 c -1,0.5 -2.1,0.7 -3.4,0.7 -1.8,0 -3.3,-0.6 -4.4,-1.7 -1.1,-1.1 -1.6,-2.6 -1.6,-4.5 0,-1.9 0.6,-3.3 1.7,-4.5 1.1,-1.1 2.6,-1.7 4.4,-1.7 1.2,0 2.3,0.2 3.4,0.6 l -0.5,1.4 c -1.1,-0.4 -2,-0.6 -2.9,-0.6 -1.3,0 -2.3,0.4 -3.1,1.2 -0.8,0.8 -1.1,2 -1.1,3.4 0,1.3 0.4,2.4 1.2,3.3 0.8,0.9 1.8,1.3 3,1.3 1,0 2,-0.2 3.1,-0.6 l 0.2,1.7 z"
         id="path3456"
         inkscape:connector-curvature="0"
         style="fill:#454746" /><path
         d="m 291.4,225.2 c 1.6,0 2.9,0.6 3.8,1.7 0.9,1.1 1.4,2.6 1.4,4.4 0,1.8 -0.5,3.3 -1.4,4.5 -0.9,1.2 -2.2,1.7 -3.8,1.7 -1.6,0 -2.9,-0.6 -3.8,-1.7 -0.9,-1.1 -1.4,-2.6 -1.4,-4.5 0,-1.8 0.5,-3.3 1.4,-4.4 0.9,-1.2 2.2,-1.7 3.8,-1.7 z m 0,10.7 c 1.1,0 1.9,-0.4 2.5,-1.3 0.6,-0.9 0.9,-2 0.9,-3.3 0,-1.3 -0.3,-2.5 -0.9,-3.3 -0.6,-0.9 -1.4,-1.3 -2.5,-1.3 -1.1,0 -1.9,0.4 -2.5,1.3 -0.6,0.9 -0.9,2 -0.9,3.3 0,1.3 0.3,2.4 0.9,3.3 0.6,0.9 1.4,1.3 2.5,1.3 z"
         id="path3458"
         inkscape:connector-curvature="0"
         style="fill:#454746" /><path
         d="m 309.9,225.8 -0.7,1.7 c -0.8,-0.3 -1.4,-0.5 -2,-0.5 -0.5,0 -1,0.1 -1.5,0.4 -0.5,0.3 -0.9,0.7 -1.4,1.3 -0.4,0.6 -0.6,0.9 -0.6,0.9 v 7.6 H 302 v -11.7 h 1.7 v 2.4 c 0.9,-1.8 2.1,-2.7 3.6,-2.7 0.9,0 1.8,0.2 2.6,0.6 z"
         id="path3460"
         inkscape:connector-curvature="0"
         style="fill:#454746" /><path
         d="m 323.9,231.4 h -8 c 0,1.3 0.4,2.4 1.2,3.3 0.8,0.9 1.7,1.3 2.8,1.3 1.1,0 2.2,-0.2 3.3,-0.6 l 0.3,1.4 c -1,0.5 -2.2,0.7 -3.6,0.7 -1.7,0 -3.1,-0.6 -4.2,-1.7 -1.1,-1.1 -1.6,-2.6 -1.6,-4.5 0,-1.9 0.5,-3.3 1.4,-4.4 1,-1.1 2.2,-1.7 3.7,-1.7 1.3,0 2.5,0.5 3.4,1.5 0.9,1 1.4,2.4 1.4,4.1 v 0.6 z m -1.9,-1.5 c 0,-0.9 -0.3,-1.7 -0.9,-2.3 -0.6,-0.6 -1.2,-0.9 -1.9,-0.9 -0.9,0 -1.7,0.3 -2.3,0.9 -0.6,0.6 -0.9,1.4 -1,2.3 h 6.1 z"
         id="path3462"
         inkscape:connector-curvature="0"
         style="fill:#454746" /><path
         d="m 375.6,237.2 h -4.8 v -14.3 h -3.1 v -1.5 h 4.8 v 14.3 h 3 v 1.5 z"
         id="path3466"
         inkscape:connector-curvature="0"
         style="fill:#454746" /><path
         d="m 385.7,225.2 c 1.6,0 2.9,0.6 3.8,1.7 0.9,1.1 1.4,2.6 1.4,4.4 0,1.8 -0.5,3.3 -1.4,4.5 -0.9,1.2 -2.2,1.7 -3.8,1.7 -1.6,0 -2.9,-0.6 -3.8,-1.7 -0.9,-1.1 -1.4,-2.6 -1.4,-4.5 0,-1.8 0.5,-3.3 1.4,-4.4 0.9,-1.2 2.2,-1.7 3.8,-1.7 z m 0,10.7 c 1.1,0 1.9,-0.4 2.5,-1.3 0.6,-0.9 0.9,-2 0.9,-3.3 0,-1.3 -0.3,-2.5 -0.9,-3.3 -0.6,-0.9 -1.4,-1.3 -2.5,-1.3 -1.1,0 -1.9,0.4 -2.5,1.3 -0.6,0.9 -0.9,2 -0.9,3.3 0,1.3 0.3,2.4 0.9,3.3 0.6,0.9 1.4,1.3 2.5,1.3 z"
         id="path3468"
         inkscape:connector-curvature="0"
         style="fill:#454746" /><path
         d="m 398.3,232.8 c -1.1,0.5 -1.6,1 -1.6,1.4 0,0.2 0.1,0.4 0.4,0.6 0.3,0.2 0.6,0.2 1,0.2 l 3.9,-0.1 c 0.9,0 1.7,0.2 2.2,0.7 0.5,0.5 0.8,1.1 0.8,1.9 0,1.3 -0.6,2.4 -1.8,3.2 -1.2,0.8 -2.6,1.2 -4.1,1.2 -1.3,0 -2.4,-0.3 -3.2,-0.8 -0.8,-0.5 -1.2,-1.2 -1.2,-2.1 0,-0.9 0.6,-1.7 1.9,-2.4 -1.1,-0.5 -1.6,-1.1 -1.6,-1.8 0,-0.8 0.7,-1.6 2,-2.3 -0.6,-0.4 -1.1,-0.9 -1.4,-1.5 -0.3,-0.6 -0.5,-1.2 -0.5,-1.9 0,-1.1 0.4,-2 1.1,-2.7 0.7,-0.7 1.7,-1.1 2.8,-1.1 0.8,0 1.5,0.2 2.2,0.5 l 3.5,-0.5 v 1.7 h -2.2 c 0.3,0.6 0.5,1.3 0.5,2.1 0,1.1 -0.4,2 -1.1,2.7 -0.7,0.7 -1.7,1.1 -2.8,1.1 -0.4,-0.1 -0.6,-0.1 -0.8,-0.1 z m 0.7,7.6 c 1.2,0 2.1,-0.3 2.9,-0.8 0.8,-0.5 1.2,-1.1 1.2,-1.9 0,-0.8 -0.6,-1.2 -1.7,-1.2 -0.4,0 -1,0 -2,0.1 -0.6,0 -1.1,0 -1.4,0 -0.2,0 -0.4,0.1 -0.8,0.4 -0.3,0.3 -0.6,0.5 -0.8,0.8 -0.2,0.3 -0.3,0.6 -0.3,0.8 0,0.5 0.3,0.8 0.8,1.2 0.6,0.5 1.3,0.6 2.1,0.6 z m -0.1,-9 c 0.6,0 1.2,-0.2 1.6,-0.7 0.4,-0.4 0.6,-1 0.6,-1.7 0,-0.8 -0.2,-1.3 -0.6,-1.8 -0.4,-0.4 -0.9,-0.6 -1.6,-0.6 -0.6,0 -1.1,0.2 -1.6,0.7 -0.4,0.4 -0.6,1 -0.6,1.7 0,0.7 0.2,1.3 0.6,1.7 0.5,0.5 1,0.7 1.6,0.7 z"
         id="path3470"
         inkscape:connector-curvature="0"
         style="fill:#454746" /><path
         d="m 417.2,239.5 -0.7,1 c -1.7,-1.3 -2.9,-2.7 -3.8,-4.4 -0.9,-1.7 -1.3,-3.4 -1.3,-5.3 0,-1.9 0.4,-3.7 1.3,-5.3 0.9,-1.7 2.1,-3.1 3.8,-4.4 l 0.7,1 c -1.4,1.2 -2.4,2.5 -3,3.9 -0.6,1.3 -0.9,3 -0.9,4.9 0,2 0.3,3.6 0.9,5 0.7,1.1 1.6,2.4 3,3.6 z"
         id="path3472"
         inkscape:connector-curvature="0"
         style="fill:#454746" /><path
         d="m 431.6,237.2 h -8.3 v -1.6 h 3.4 v -12.3 l -3.2,1.6 V 223 l 3.4,-1.8 h 1.6 v 14.3 h 3.1 v 1.7 z"
         id="path3474"
         inkscape:connector-curvature="0"
         style="fill:#454746" /><path
         d="m 458.9,229.8 h -4.5 v 4.6 h -1.5 v -4.6 h -4.6 v -1.5 h 4.6 v -4.6 h 1.5 v 4.6 h 4.5 v 1.5 z"
         id="path3476"
         inkscape:connector-curvature="0"
         style="fill:#454746" /><path
         d="m 480,221 c 1.7,0 3,0.7 3.9,2.2 0.9,1.4 1.4,3.5 1.4,6.1 0,2.5 -0.4,4.5 -1.3,6 -0.9,1.5 -2.2,2.2 -3.9,2.2 -1.7,0 -3,-0.7 -3.9,-2.2 -0.9,-1.5 -1.4,-3.5 -1.4,-6.1 0,-2.5 0.4,-4.5 1.3,-6 0.9,-1.4 2.2,-2.2 3.9,-2.2 z m 0,14.9 c 1.1,0 1.9,-0.5 2.5,-1.6 0.5,-1.1 0.8,-2.7 0.8,-5 0,-2.3 -0.3,-4 -0.8,-5 -0.5,-1 -1.4,-1.6 -2.5,-1.6 -1.1,0 -1.9,0.5 -2.4,1.6 -0.5,1.1 -0.8,2.7 -0.8,5 0,2.3 0.3,4 0.8,5 0.5,1 1.3,1.6 2.4,1.6 z m -0.1,-8.3 c 0.5,0 0.9,0.2 1.2,0.5 0.3,0.3 0.5,0.7 0.5,1.2 0,0.5 -0.2,0.9 -0.5,1.3 -0.3,0.3 -0.7,0.5 -1.2,0.5 -0.5,0 -0.8,-0.2 -1.2,-0.5 -0.3,-0.3 -0.5,-0.8 -0.5,-1.3 0,-0.5 0.2,-0.9 0.5,-1.2 0.3,-0.3 0.8,-0.5 1.2,-0.5 z"
         id="path3478"
         inkscape:connector-curvature="0"
         style="fill:#454746" /><path
         d="m 493.7,234.6 c 0.4,0 0.7,0.1 1,0.4 0.3,0.3 0.4,0.6 0.4,1 0,0.4 -0.1,0.8 -0.4,1 -0.3,0.3 -0.6,0.4 -1,0.4 -0.4,0 -0.7,-0.1 -1,-0.4 -0.3,-0.3 -0.4,-0.6 -0.4,-1 0,-0.4 0.1,-0.7 0.4,-1 0.3,-0.3 0.7,-0.4 1,-0.4 z"
         id="path3480"
         inkscape:connector-curvature="0"
         style="fill:#454746" /><path
         d="m 512.1,237.2 h -8.3 v -1.6 h 3.4 v -12.3 l -3.2,1.6 V 223 l 3.4,-1.8 h 1.6 v 14.3 h 3.1 v 1.7 z"
         id="path3482"
         inkscape:connector-curvature="0"
         style="fill:#454746" /><path
         d="m 538,227.5 -0.7,1.1 -2.7,-1.8 v 3.2 h -1.2 v -3.2 l -2.7,1.8 -0.7,-1.1 2.8,-1.8 -2.8,-1.8 0.7,-1.1 2.7,1.8 v -3.2 h 1.2 v 3.2 l 2.7,-1.8 0.7,1.1 -2.8,1.8 2.8,1.8 z"
         id="path3484"
         inkscape:connector-curvature="0"
         style="fill:#454746" /><path
         d="m 565.1,237.2 h -1.8 v -7.5 c 0,-1 -0.2,-1.8 -0.5,-2.3 -0.3,-0.5 -0.9,-0.7 -1.6,-0.7 -1.1,0 -2.2,0.7 -3.4,2 v 8.5 H 556 v -11.7 h 1.8 v 1.7 c 1.3,-1.3 2.6,-2 4,-2 2.2,0 3.3,1.3 3.3,4 v 8 z"
         id="path3486"
         inkscape:connector-curvature="0"
         style="fill:#454746" /><path
         d="M 578.8,237.2 H 577 v -1.7 c -1.3,1.3 -2.6,2 -4,2 -2.2,0 -3.3,-1.3 -3.3,-4 v -8 h 1.8 v 7.5 c 0,1 0.2,1.7 0.5,2.2 0.3,0.5 0.8,0.7 1.6,0.7 1.1,0 2.2,-0.7 3.4,-2 v -8.5 h 1.8 v 11.8 z"
         id="path3488"
         inkscape:connector-curvature="0"
         style="fill:#454746" /><path
         d="m 593.6,237.2 h -1.8 v -7.7 c 0,-1.9 -0.3,-2.8 -1,-2.8 -0.4,0 -0.7,0.3 -1.2,1 -0.4,0.6 -0.6,1 -0.6,1.1 v 8.4 h -1.7 v -7.7 c 0,-1.9 -0.3,-2.8 -1,-2.8 -0.3,0 -0.7,0.3 -1.2,1 -0.4,0.6 -0.6,1 -0.6,1.1 v 8.4 h -1.8 v -11.7 h 1.7 v 1.8 c 0.3,-0.6 0.7,-1.1 1.2,-1.5 0.5,-0.4 0.9,-0.6 1.4,-0.6 0.5,0 0.9,0.2 1.3,0.6 0.4,0.4 0.6,0.9 0.8,1.5 0.3,-0.6 0.7,-1.1 1.2,-1.5 0.5,-0.4 0.9,-0.6 1.3,-0.6 1.4,0 2.1,1.3 2.1,3.8 v 8.2 z"
         id="path3490"
         inkscape:connector-curvature="0"
         style="fill:#454746" /><path
         d="m 599.2,227 c 0.4,-0.5 0.9,-1 1.6,-1.3 0.7,-0.3 1.4,-0.5 2.1,-0.5 1.4,0 2.4,0.5 3.2,1.6 0.8,1.1 1.1,2.5 1.1,4.3 0,1.8 -0.4,3.3 -1.2,4.5 -0.8,1.2 -1.9,1.8 -3.2,1.8 -0.7,0 -1.4,-0.2 -2,-0.5 -0.6,-0.4 -1.1,-0.8 -1.5,-1.4 v 1.7 h -1.8 v -15.8 h 1.8 v 5.6 z m 0,1.7 v 4.9 c 0.3,0.7 0.8,1.2 1.3,1.7 0.5,0.5 1.1,0.7 1.7,0.7 0.9,0 1.7,-0.4 2.3,-1.3 0.6,-0.9 0.8,-2 0.8,-3.3 0,-1.3 -0.3,-2.4 -0.8,-3.3 -0.5,-0.8 -1.3,-1.3 -2.2,-1.3 -1.2,-0.1 -2.2,0.6 -3.1,1.9 z"
         id="path3492"
         inkscape:connector-curvature="0"
         style="fill:#454746" /><path
         d="m 620.6,231.4 h -8 c 0,1.3 0.4,2.4 1.2,3.3 0.8,0.9 1.7,1.3 2.8,1.3 1.1,0 2.2,-0.2 3.3,-0.6 l 0.3,1.4 c -1,0.5 -2.2,0.7 -3.6,0.7 -1.7,0 -3.1,-0.6 -4.2,-1.7 -1.1,-1.1 -1.6,-2.6 -1.6,-4.5 0,-1.9 0.5,-3.3 1.4,-4.4 1,-1.1 2.2,-1.7 3.7,-1.7 1.3,0 2.5,0.5 3.4,1.5 0.9,1 1.4,2.4 1.4,4.1 v 0.6 z m -1.9,-1.5 c 0,-0.9 -0.3,-1.7 -0.9,-2.3 -0.6,-0.6 -1.2,-0.9 -1.9,-0.9 -0.9,0 -1.7,0.3 -2.3,0.9 -0.6,0.6 -0.9,1.4 -1,2.3 h 6.1 z"
         id="path3494"
         inkscape:connector-curvature="0"
         style="fill:#454746" /><path
         d="m 634.2,225.8 -0.7,1.7 c -0.8,-0.3 -1.4,-0.5 -2,-0.5 -0.5,0 -1,0.1 -1.5,0.4 -0.5,0.3 -0.9,0.7 -1.4,1.3 -0.4,0.6 -0.6,0.9 -0.6,0.9 v 7.6 h -1.7 v -11.7 h 1.7 v 2.4 c 0.9,-1.8 2.1,-2.7 3.6,-2.7 1,0 1.8,0.2 2.6,0.6 z"
         id="path3496"
         inkscape:connector-curvature="0"
         style="fill:#454746" /><path
         d="m 650.2,242.2 h -13.8 v -1.5 h 13.8 v 1.5 z"
         id="path3498"
         inkscape:connector-curvature="0"
         style="fill:#454746" /><path
         d="m 657.1,225.2 c 1.6,0 2.9,0.6 3.8,1.7 0.9,1.1 1.4,2.6 1.4,4.4 0,1.8 -0.5,3.3 -1.4,4.5 -0.9,1.2 -2.2,1.7 -3.8,1.7 -1.6,0 -2.9,-0.6 -3.8,-1.7 -0.9,-1.1 -1.4,-2.6 -1.4,-4.5 0,-1.8 0.5,-3.3 1.4,-4.4 0.9,-1.2 2.2,-1.7 3.8,-1.7 z m 0,10.7 c 1.1,0 1.9,-0.4 2.5,-1.3 0.6,-0.9 0.9,-2 0.9,-3.3 0,-1.3 -0.3,-2.5 -0.9,-3.3 -0.6,-0.9 -1.4,-1.3 -2.5,-1.3 -1.1,0 -1.9,0.4 -2.5,1.3 -0.6,0.9 -0.9,2 -0.9,3.3 0,1.3 0.3,2.4 0.9,3.3 0.6,0.9 1.5,1.3 2.5,1.3 z"
         id="path3500"
         inkscape:connector-curvature="0"
         style="fill:#454746" /><path
         d="m 675.6,221.5 -0.5,1.4 c -0.8,-0.2 -1.6,-0.4 -2.2,-0.4 -0.6,0 -1.1,0.2 -1.3,0.5 -0.2,0.4 -0.4,1.1 -0.4,2.2 v 0.2 h 3.9 v 1.5 h -3.9 v 10.2 h -1.8 V 227 h -2.9 v -1.5 h 2.9 v -0.4 c 0,-1.5 0.3,-2.5 0.8,-3.1 0.5,-0.6 1.4,-0.9 2.6,-0.9 0.9,-0.1 1.8,0.1 2.8,0.4 z"
         id="path3502"
         inkscape:connector-curvature="0"
         style="fill:#454746" /><path
         d="m 691.6,242.2 h -13.8 v -1.5 h 13.8 v 1.5 z"
         id="path3504"
         inkscape:connector-curvature="0"
         style="fill:#454746" /><path
         d="m 703.6,225.5 -4.4,11.7 h -1.6 l -4.4,-11.7 h 1.9 l 3.3,9.3 3.3,-9.3 h 1.9 z"
         id="path3506"
         inkscape:connector-curvature="0"
         style="fill:#454746" /><path
         d="m 712.3,225.2 c 1.6,0 2.9,0.6 3.8,1.7 0.9,1.1 1.4,2.6 1.4,4.4 0,1.8 -0.5,3.3 -1.4,4.5 -0.9,1.2 -2.2,1.7 -3.8,1.7 -1.6,0 -2.9,-0.6 -3.8,-1.7 -0.9,-1.1 -1.4,-2.6 -1.4,-4.5 0,-1.8 0.5,-3.3 1.4,-4.4 1,-1.2 2.2,-1.7 3.8,-1.7 z m 0,10.7 c 1.1,0 1.9,-0.4 2.5,-1.3 0.6,-0.9 0.9,-2 0.9,-3.3 0,-1.3 -0.3,-2.5 -0.9,-3.3 -0.6,-0.9 -1.4,-1.3 -2.5,-1.3 -1.1,0 -1.9,0.4 -2.5,1.3 -0.6,0.9 -0.9,2 -0.9,3.3 0,1.3 0.3,2.4 0.9,3.3 0.6,0.9 1.5,1.3 2.5,1.3 z"
         id="path3508"
         inkscape:connector-curvature="0"
         style="fill:#454746" /><path
         d="m 730.8,236.6 c -1.2,0.5 -2.3,0.8 -3.5,0.8 -2.1,0 -3.1,-1.1 -3.1,-3.3 V 227 H 722 v -1.5 h 2.2 v -3.2 h 1.7 v 3.2 h 4 v 1.5 h -4 v 6.7 c 0,0.7 0.2,1.3 0.5,1.7 0.3,0.4 0.7,0.6 1.3,0.6 1,0 1.9,-0.2 2.8,-0.6 l 0.3,1.2 z"
         id="path3510"
         inkscape:connector-curvature="0"
         style="fill:#454746" /><path
         d="m 744.8,231.4 h -8 c 0,1.3 0.4,2.4 1.2,3.3 0.8,0.9 1.7,1.3 2.8,1.3 1.1,0 2.2,-0.2 3.3,-0.6 l 0.3,1.4 c -1,0.5 -2.2,0.7 -3.6,0.7 -1.7,0 -3.1,-0.6 -4.2,-1.7 -1.1,-1.1 -1.6,-2.6 -1.6,-4.5 0,-1.9 0.5,-3.3 1.4,-4.4 1,-1.1 2.2,-1.7 3.7,-1.7 1.3,0 2.5,0.5 3.4,1.5 0.9,1 1.4,2.4 1.4,4.1 v 0.6 z m -1.9,-1.5 c 0,-0.9 -0.3,-1.7 -0.9,-2.3 -0.6,-0.6 -1.2,-0.9 -1.9,-0.9 -0.9,0 -1.7,0.3 -2.3,0.9 -0.6,0.6 -0.9,1.4 -1,2.3 h 6.1 z"
         id="path3512"
         inkscape:connector-curvature="0"
         style="fill:#454746" /><path
         d="m 757.1,227.1 c -1,-0.3 -1.9,-0.5 -2.8,-0.5 -1,0 -1.7,0.2 -2.3,0.5 -0.6,0.3 -0.8,0.7 -0.8,1.3 0,0.3 0.1,0.6 0.4,0.9 0.3,0.3 0.8,0.5 1.5,0.7 l 1.7,0.5 c 0.8,0.2 1.4,0.5 1.9,0.8 0.5,0.3 0.9,0.7 1.1,1.1 0.2,0.4 0.4,0.9 0.4,1.5 0,1.1 -0.5,2 -1.4,2.6 -0.9,0.6 -2.1,1 -3.6,1 -1.4,0 -2.6,-0.2 -3.6,-0.7 l 0.3,-1.5 c 1,0.5 2,0.7 3.2,0.7 1,0 1.8,-0.2 2.4,-0.5 0.6,-0.4 0.9,-0.8 0.9,-1.4 0,-0.4 -0.2,-0.8 -0.5,-1.1 -0.3,-0.3 -1,-0.6 -2.1,-1 -0.9,-0.3 -1.6,-0.5 -2,-0.6 -0.4,-0.1 -0.8,-0.3 -1.2,-0.6 -0.4,-0.3 -0.6,-0.6 -0.8,-1 -0.2,-0.4 -0.3,-0.8 -0.3,-1.3 0,-1 0.4,-1.8 1.3,-2.4 0.9,-0.6 2.1,-0.9 3.5,-0.9 0.9,0 2,0.2 3.1,0.5 l -0.3,1.4 z"
         id="path3514"
         inkscape:connector-curvature="0"
         style="fill:#454746" /><path
         d="m 764.4,221 c 1.7,1.3 3,2.7 3.8,4.4 0.9,1.7 1.3,3.4 1.3,5.3 0,1.9 -0.4,3.6 -1.3,5.3 -0.9,1.7 -2.1,3.1 -3.8,4.4 l -0.7,-1 c 1.4,-1.2 2.4,-2.5 3,-3.9 0.6,-1.4 0.9,-3 0.9,-4.9 0,-2 -0.3,-3.6 -0.9,-4.9 -0.6,-1.3 -1.6,-2.6 -2.9,-3.8 l 0.6,-0.9 z"
         id="path3516"
         inkscape:connector-curvature="0"
         style="fill:#454746" /><path
         style="fill:#454746"
         inkscape:connector-curvature="0"
         id="path3385"
         d="m 350.9,229.8 h -4.5 v 4.6 h -1.5 v -4.6 h -4.6 v -1.5 h 4.6 v -4.6 h 1.5 v 4.6 h 4.5 v 1.5 z" /></g></g><line
     stroke-miterlimit="10"
     x1="74"
     y1="55"
     x2="74"
     y2="435"
     id="line3518"
     style="fill:none;stroke:#454746;stroke-miterlimit:10" /><line
     stroke-miterlimit="10"
     x1="74"
     y1="435"
     x2="724"
     y2="435"
     id="line3520"
     style="fill:none;stroke:#454746;stroke-miterlimit:10" /><g
     id="g3522"
     transform="translate(-57,-54.5)"><line
       stroke-miterlimit="10"
       x1="137.5"
       y1="109.5"
       x2="131"
       y2="109.5"
       id="line3524"
       style="fill:none;stroke:#454746;stroke-miterlimit:10" /><line
       stroke-miterlimit="10"
       x1="137.5"
       y1="157"
       x2="131"
       y2="157"
       id="line3526"
       style="fill:none;stroke:#454746;stroke-miterlimit:10" /><line
       stroke-miterlimit="10"
       x1="137.5"
       y1="204.5"
       x2="131"
       y2="204.5"
       id="line3528"
       style="fill:none;stroke:#454746;stroke-miterlimit:10" /><line
       stroke-miterlimit="10"
       x1="137.5"
       y1="252"
       x2="131"
       y2="252"
       id="line3530"
       style="fill:none;stroke:#454746;stroke-miterlimit:10" /><line
       stroke-miterlimit="10"
       x1="137.5"
       y1="299.5"
       x2="131"
       y2="299.5"
       id="line3532"
       style="fill:none;stroke:#454746;stroke-miterlimit:10" /><line
       stroke-miterlimit="10"
       x1="137.5"
       y1="347"
       x2="131"
       y2="347"
       id="line3534"
       style="fill:none;stroke:#454746;stroke-miterlimit:10" /><line
       stroke-miterlimit="10"
       x1="137.5"
       y1="394.5"
       x2="131"
       y2="394.5"
       id="line3536"
       style="fill:none;stroke:#454746;stroke-miterlimit:10" /><line
       stroke-miterlimit="10"
       x1="137.5"
       y1="442"
       x2="131"
       y2="442"
       id="line3538"
       style="fill:none;stroke:#454746;stroke-miterlimit:10" /></g><g
     id="g3540"
     transform="translate(-57,-54.5)"><line
       stroke-miterlimit="10"
       x1="196"
       y1="483"
       x2="196"
       y2="489.5"
       id="line3542"
       style="fill:none;stroke:#454746;stroke-miterlimit:10" /><line
       stroke-miterlimit="10"
       x1="261"
       y1="483"
       x2="261"
       y2="489.5"
       id="line3544"
       style="fill:none;stroke:#454746;stroke-miterlimit:10" /><line
       stroke-miterlimit="10"
       x1="326"
       y1="483"
       x2="326"
       y2="489.5"
       id="line3546"
       style="fill:none;stroke:#454746;stroke-miterlimit:10" /><line
       stroke-miterlimit="10"
       x1="391"
       y1="483"
       x2="391"
       y2="489.5"
       id="line3548"
       style="fill:none;stroke:#454746;stroke-miterlimit:10" /><line
       stroke-miterlimit="10"
       x1="456"
       y1="483"
       x2="456"
       y2="489.5"
       id="line3550"
       style="fill:none;stroke:#454746;stroke-miterlimit:10" /><line
       stroke-miterlimit="10"
       x1="521"
       y1="483"
       x2="521"
       y2="489.5"
       id="line3552"
       style="fill:none;stroke:#454746;stroke-miterlimit:10" /><line
       stroke-miterlimit="10"
       x1="586"
       y1="483"
       x2="586"
       y2="489.5"
       id="line3554"
       style="fill:none;stroke:#454746;stroke-miterlimit:10" /><line
       stroke-miterlimit="10"
       x1="651"
       y1="483"
       x2="651"
       y2="489.5"
       id="line3556"
       style="fill:none;stroke:#454746;stroke-miterlimit:10" /><line
       stroke-miterlimit="10"
       x1="716"
       y1="483"
       x2="716"
       y2="489.5"
       id="line3558"
       style="fill:none;stroke:#454746;stroke-miterlimit:10" /><line
       stroke-miterlimit="10"
       x1="781"
       y1="483"
       x2="781"
       y2="489.5"
       id="line3560"
       style="fill:none;stroke:#454746;stroke-miterlimit:10" /></g><g
     id="g3562"
     transform="translate(-57,-54.5)"><g
       id="g3564"><path
         d="m 195.5,470.9 0,0 -1.9,1 -0.3,-1.5 2.5,-1.2 h 1.6 v 10.4 h -1.9 v -8.7 z"
         id="path3566"
         inkscape:connector-curvature="0"
         style="fill:#454746" /></g><g
       id="g3568"><path
         d="m 257.4,479.5 v -1.2 l 1.2,-1.1 c 2.4,-2.3 3.6,-3.5 3.6,-4.9 0,-0.9 -0.5,-1.7 -1.9,-1.7 -0.9,0 -1.7,0.5 -2.2,0.9 l -0.6,-1.4 c 0.8,-0.6 1.9,-1.1 3.2,-1.1 2.3,0 3.4,1.5 3.4,3.2 0,1.8 -1.3,3.3 -3.1,5 l -0.9,0.8 v 0 h 4.3 v 1.6 h -7 z"
         id="path3570"
         inkscape:connector-curvature="0"
         style="fill:#454746" /></g><g
       id="g3572"><path
         d="m 322.8,477.5 c 0.4,0.2 1.4,0.6 2.4,0.6 1.5,0 2.1,-0.8 2.1,-1.7 0,-1.2 -1.2,-1.8 -2.4,-1.8 H 324 v -1.4 h 0.9 c 0.9,0 2.1,-0.4 2.1,-1.5 0,-0.7 -0.5,-1.3 -1.7,-1.3 -0.8,0 -1.7,0.4 -2.1,0.7 l -0.4,-1.4 c 0.6,-0.4 1.7,-0.8 3,-0.8 2.1,0 3.2,1.2 3.2,2.5 0,1.1 -0.6,2 -1.9,2.4 v 0 c 1.3,0.2 2.3,1.2 2.3,2.6 0,1.8 -1.5,3.2 -4,3.2 -1.3,0 -2.4,-0.4 -2.9,-0.7 l 0.3,-1.4 z"
         id="path3574"
         inkscape:connector-curvature="0"
         style="fill:#454746" /></g><g
       id="g3576"><path
         d="m 391.7,479.5 v -2.6 H 387 v -1.3 l 4.2,-6.5 h 2.3 v 6.3 h 1.3 v 1.5 h -1.3 v 2.6 h -1.8 z m 0,-4.1 v -2.8 c 0,-0.6 0,-1.2 0.1,-1.8 h -0.1 c -0.3,0.7 -0.6,1.2 -0.9,1.8 l -1.9,2.8 0,0 h 2.8 z"
         id="path3578"
         inkscape:connector-curvature="0"
         style="fill:#454746" /></g><g
       id="g3580"><path
         d="m 459,470.7 h -4 l -0.3,2.1 c 0.2,0 0.4,0 0.8,0 0.9,0 1.8,0.2 2.5,0.7 0.8,0.5 1.4,1.4 1.4,2.6 0,2 -1.6,3.6 -4.2,3.6 -1.2,0 -2.2,-0.3 -2.8,-0.6 l 0.4,-1.5 c 0.4,0.2 1.3,0.5 2.3,0.5 1.2,0 2.3,-0.7 2.3,-1.9 0,-1.2 -0.9,-2 -3,-2 -0.6,0 -1,0 -1.4,0.1 l 0.7,-5.2 h 5.4 v 1.6 z"
         id="path3582"
         inkscape:connector-curvature="0"
         style="fill:#454746" /></g><g
       id="g3584"><path
         d="m 523.7,470.5 c -0.3,0 -0.6,0 -1,0 -2.2,0.3 -3.2,1.6 -3.5,3 h 0 c 0.5,-0.6 1.3,-1 2.3,-1 1.8,0 3.2,1.3 3.2,3.4 0,2 -1.5,3.7 -3.7,3.7 -2.5,0 -3.9,-1.9 -3.9,-4.5 0,-2 0.7,-3.6 1.8,-4.7 1,-0.9 2.2,-1.4 3.7,-1.5 0.4,0 0.8,0 1,0 l 0.1,1.6 z m -0.9,5.6 c 0,-1.2 -0.7,-2.1 -1.8,-2.1 -0.7,0 -1.4,0.4 -1.7,1.1 -0.1,0.2 -0.1,0.4 -0.1,0.6 0,1.4 0.7,2.5 2,2.5 1,0 1.6,-0.9 1.6,-2.1 z"
         id="path3586"
         inkscape:connector-curvature="0"
         style="fill:#454746" /></g><g
       id="g3588"><path
         d="m 589.6,469.1 v 1.3 l -4.4,9.1 h -2.1 l 4.4,-8.7 v 0 h -4.9 v -1.6 h 7 z"
         id="path3590"
         inkscape:connector-curvature="0"
         style="fill:#454746" /></g><g
       id="g3592"><path
         d="m 647.3,476.8 c 0,-1.3 0.8,-2.2 2,-2.7 v 0 c -1.1,-0.5 -1.6,-1.4 -1.6,-2.3 0,-1.7 1.5,-2.8 3.5,-2.8 2.2,0 3.3,1.3 3.3,2.6 0,0.9 -0.5,1.8 -1.6,2.4 v 0 c 1.1,0.4 2,1.3 2,2.6 0,1.9 -1.6,3.1 -3.8,3.1 -2.6,0 -3.8,-1.4 -3.8,-2.9 z m 5.4,-0.1 c 0,-1.1 -0.8,-1.6 -1.9,-2 -1,0.3 -1.5,1 -1.5,1.8 0,0.9 0.6,1.7 1.7,1.7 1.1,0.1 1.7,-0.6 1.7,-1.5 z m -3.2,-5 c 0,0.8 0.7,1.4 1.7,1.6 0.7,-0.2 1.3,-0.8 1.3,-1.6 0,-0.7 -0.4,-1.5 -1.5,-1.5 -1,0.1 -1.5,0.7 -1.5,1.5 z"
         id="path3594"
         inkscape:connector-curvature="0"
         style="fill:#454746" /></g><g
       id="g3596"><path
         d="m 713.2,478.1 c 0.3,0 0.6,0 1.1,0 0.8,-0.1 1.5,-0.3 2.1,-0.8 0.7,-0.5 1.1,-1.3 1.3,-2.3 l 0,0 c -0.5,0.6 -1.3,0.9 -2.3,0.9 -1.8,0 -3.2,-1.3 -3.2,-3.2 0,-2 1.5,-3.7 3.8,-3.7 2.4,0 3.7,1.9 3.7,4.4 0,2.2 -0.7,3.8 -1.8,4.8 -0.9,0.8 -2.2,1.3 -3.6,1.4 -0.4,0 -0.9,0 -1.2,0 v -1.5 z m 1,-5.6 c 0,1.1 0.6,1.9 1.7,1.9 0.8,0 1.4,-0.4 1.7,-0.9 0.1,-0.1 0.1,-0.3 0.1,-0.6 0,-1.4 -0.5,-2.6 -1.8,-2.6 -1,0.1 -1.7,1 -1.7,2.2 z"
         id="path3598"
         inkscape:connector-curvature="0"
         style="fill:#454746" /></g></g><g
     id="g3600"
     transform="translate(-57,-54.5)"><g
       id="g3602"><g
         id="g3604"><path
           d="m 150.4,441.7 c 0,3.3 -1.3,5.4 -3.8,5.4 -2.4,0 -3.7,-2.2 -3.7,-5.3 0,-3.2 1.4,-5.4 3.8,-5.4 2.5,0 3.7,2.3 3.7,5.3 z m -5.5,0.1 c 0,2.5 0.7,3.8 1.8,3.8 1.2,0 1.8,-1.4 1.8,-3.9 0,-2.4 -0.6,-3.8 -1.8,-3.8 -1.1,0 -1.9,1.3 -1.8,3.9 z"
           id="path3606"
           inkscape:connector-curvature="0"
           style="fill:#454746" /><path
           d="m 151,448.9 c 0.4,-1.2 0.9,-2.9 1.1,-4.2 l 2.1,-0.2 c -0.4,1.5 -1.2,3.2 -1.8,4.3 l -1.4,0.1 z"
           id="path3608"
           inkscape:connector-curvature="0"
           style="fill:#454746" /><path
           d="m 162,438.2 h -4 l -0.3,2.1 c 0.2,0 0.4,0 0.8,0 0.9,0 1.8,0.2 2.5,0.7 0.8,0.5 1.4,1.4 1.4,2.6 0,2 -1.6,3.6 -4.2,3.6 -1.2,0 -2.2,-0.3 -2.8,-0.6 l 0.4,-1.5 c 0.4,0.2 1.3,0.5 2.3,0.5 1.2,0 2.3,-0.7 2.3,-1.9 0,-1.2 -0.9,-2 -3,-2 -0.6,0 -1,0 -1.4,0.1 l 0.7,-5.2 h 5.4 v 1.6 z"
           id="path3610"
           inkscape:connector-curvature="0"
           style="fill:#454746" /></g></g><g
       id="g3612"><g
         id="g3614"><path
           d="m 146.1,390.9 0,0 -1.9,1 -0.3,-1.5 2.5,-1.2 h 1.6 v 10.4 h -1.9 v -8.7 z"
           id="path3616"
           inkscape:connector-curvature="0"
           style="fill:#454746" /></g></g><g
       id="g3618"><g
         id="g3620"><path
           d="m 146.1,343.4 0,0 -1.9,1 -0.3,-1.5 2.5,-1.2 H 148 V 352 h -1.9 v -8.6 z"
           id="path3622"
           inkscape:connector-curvature="0"
           style="fill:#454746" /><path
           d="m 151,353.9 c 0.4,-1.2 0.9,-2.9 1.1,-4.2 l 2.1,-0.2 c -0.4,1.5 -1.2,3.2 -1.8,4.3 l -1.4,0.1 z"
           id="path3624"
           inkscape:connector-curvature="0"
           style="fill:#454746" /><path
           d="m 162,343.2 h -4 l -0.3,2.1 c 0.2,0 0.4,0 0.8,0 0.9,0 1.8,0.2 2.5,0.7 0.8,0.5 1.4,1.4 1.4,2.6 0,2 -1.6,3.6 -4.2,3.6 -1.2,0 -2.2,-0.3 -2.8,-0.6 l 0.4,-1.5 c 0.4,0.2 1.3,0.5 2.3,0.5 1.2,0 2.3,-0.7 2.3,-1.9 0,-1.2 -0.9,-2 -3,-2 -0.6,0 -1,0 -1.4,0.1 l 0.7,-5.2 h 5.4 v 1.6 z"
           id="path3626"
           inkscape:connector-curvature="0"
           style="fill:#454746" /></g></g><g
       id="g3628"><g
         id="g3630"><path
           d="m 143,304.5 v -1.2 l 1.2,-1.1 c 2.4,-2.3 3.6,-3.5 3.6,-4.9 0,-0.9 -0.5,-1.7 -1.9,-1.7 -0.9,0 -1.7,0.5 -2.2,0.9 l -0.6,-1.4 c 0.8,-0.6 1.9,-1.1 3.2,-1.1 2.3,0 3.4,1.5 3.4,3.2 0,1.8 -1.3,3.3 -3.1,5 l -0.9,0.8 v 0 h 4.3 v 1.6 h -7 z"
           id="path3632"
           inkscape:connector-curvature="0"
           style="fill:#454746" /></g></g><g
       id="g3634"><g
         id="g3636"><path
           d="m 143,257 v -1.2 l 1.2,-1.1 c 2.4,-2.3 3.6,-3.5 3.6,-4.9 0,-0.9 -0.5,-1.7 -1.9,-1.7 -0.9,0 -1.7,0.5 -2.2,0.9 l -0.6,-1.4 c 0.8,-0.6 1.9,-1.1 3.2,-1.1 2.3,0 3.4,1.5 3.4,3.2 0,1.8 -1.3,3.3 -3.1,5 l -0.9,0.8 v 0 h 4.3 v 1.6 h -7 z"
           id="path3638"
           inkscape:connector-curvature="0"
           style="fill:#454746" /><path
           d="m 151,258.9 c 0.4,-1.2 0.9,-2.9 1.1,-4.2 l 2.1,-0.2 c -0.4,1.5 -1.2,3.2 -1.8,4.3 l -1.4,0.1 z"
           id="path3640"
           inkscape:connector-curvature="0"
           style="fill:#454746" /><path
           d="m 162,248.2 h -4 l -0.3,2.1 c 0.2,0 0.4,0 0.8,0 0.9,0 1.8,0.2 2.5,0.7 0.8,0.5 1.4,1.4 1.4,2.6 0,2 -1.6,3.6 -4.2,3.6 -1.2,0 -2.2,-0.3 -2.8,-0.6 l 0.4,-1.5 c 0.4,0.2 1.3,0.5 2.3,0.5 1.2,0 2.3,-0.7 2.3,-1.9 0,-1.2 -0.9,-2 -3,-2 -0.6,0 -1,0 -1.4,0.1 l 0.7,-5.2 h 5.4 v 1.6 z"
           id="path3642"
           inkscape:connector-curvature="0"
           style="fill:#454746" /></g></g><g
       id="g3644"><g
         id="g3646"><path
           d="m 143.4,207.5 c 0.4,0.2 1.4,0.6 2.4,0.6 1.5,0 2.1,-0.8 2.1,-1.7 0,-1.2 -1.2,-1.8 -2.4,-1.8 h -0.9 v -1.4 h 0.9 c 0.9,0 2.1,-0.4 2.1,-1.5 0,-0.7 -0.5,-1.3 -1.7,-1.3 -0.8,0 -1.7,0.4 -2.1,0.7 l -0.4,-1.4 c 0.6,-0.4 1.7,-0.8 3,-0.8 2.1,0 3.2,1.2 3.2,2.5 0,1.1 -0.6,2 -1.9,2.4 v 0 c 1.3,0.2 2.3,1.2 2.3,2.6 0,1.8 -1.5,3.2 -4,3.2 -1.3,0 -2.4,-0.4 -2.9,-0.7 l 0.3,-1.4 z"
           id="path3648"
           inkscape:connector-curvature="0"
           style="fill:#454746" /></g></g><g
       id="g3650"><g
         id="g3652"><path
           d="m 143.4,160 c 0.4,0.2 1.4,0.6 2.4,0.6 1.5,0 2.1,-0.8 2.1,-1.7 0,-1.2 -1.2,-1.8 -2.4,-1.8 h -0.9 v -1.4 h 0.9 c 0.9,0 2.1,-0.4 2.1,-1.5 0,-0.7 -0.5,-1.3 -1.7,-1.3 -0.8,0 -1.7,0.4 -2.1,0.7 l -0.4,-1.4 c 0.6,-0.4 1.7,-0.8 3,-0.8 2.1,0 3.2,1.2 3.2,2.5 0,1.1 -0.6,2 -1.9,2.4 v 0 c 1.3,0.2 2.3,1.2 2.3,2.6 0,1.8 -1.5,3.2 -4,3.2 -1.3,0 -2.4,-0.4 -2.9,-0.7 l 0.3,-1.4 z"
           id="path3654"
           inkscape:connector-curvature="0"
           style="fill:#454746" /><path
           d="m 151,163.9 c 0.4,-1.2 0.9,-2.9 1.1,-4.2 l 2.1,-0.2 c -0.4,1.5 -1.2,3.2 -1.8,4.3 l -1.4,0.1 z"
           id="path3656"
           inkscape:connector-curvature="0"
           style="fill:#454746" /><path
           d="m 162,153.2 h -4 l -0.3,2.1 c 0.2,0 0.4,0 0.8,0 0.9,0 1.8,0.2 2.5,0.7 0.8,0.5 1.4,1.4 1.4,2.6 0,2 -1.6,3.6 -4.2,3.6 -1.2,0 -2.2,-0.3 -2.8,-0.6 l 0.4,-1.5 c 0.4,0.2 1.3,0.5 2.3,0.5 1.2,0 2.3,-0.7 2.3,-1.9 0,-1.2 -0.9,-2 -3,-2 -0.6,0 -1,0 -1.4,0.1 l 0.7,-5.2 h 5.4 v 1.6 z"
           id="path3658"
           inkscape:connector-curvature="0"
           style="fill:#454746" /></g></g></g><line
     stroke-miterlimit="10"
     x1="74"
     y1="245.5"
     x2="724"
     y2="212"
     id="line3660"
     style="fill:none;stroke:#75b640;stroke-width:4;stroke-linecap:round;stroke-miterlimit:10" /></svg>