<?xml version="1.0" encoding="UTF-8" standalone="no"?>
<!-- Generator: Adobe Illustrator 18.0.0, SVG Export Plug-In . SVG Version: 6.00 Build 0)  -->

<svg
   xmlns:dc="http://purl.org/dc/elements/1.1/"
   xmlns:cc="http://creativecommons.org/ns#"
   xmlns:rdf="http://www.w3.org/1999/02/22-rdf-syntax-ns#"
   xmlns:svg="http://www.w3.org/2000/svg"
   xmlns="http://www.w3.org/2000/svg"
   xmlns:sodipodi="http://sodipodi.sourceforge.net/DTD/sodipodi-0.dtd"
   xmlns:inkscape="http://www.inkscape.org/namespaces/inkscape"
   version="1.1"
   id="Layer_1"
   x="0px"
   y="0px"
   viewBox="0 0 453.2 185.7"
   enable-background="new 0 0 510 250"
   xml:space="preserve"
   inkscape:version="0.48.2 r9819"
   width="100%"
   height="100%"
   sodipodi:docname="410_35_three_nodes.svg"><metadata
   id="metadata3497"><rdf:RDF><cc:Work
       rdf:about=""><dc:format>image/svg+xml</dc:format><dc:type
         rdf:resource="http://purl.org/dc/dcmitype/StillImage" /></cc:Work></rdf:RDF></metadata><defs
   id="defs3495" /><sodipodi:namedview
   pagecolor="#ffffff"
   bordercolor="#666666"
   borderopacity="1"
   objecttolerance="10"
   gridtolerance="10"
   guidetolerance="10"
   inkscape:pageopacity="0"
   inkscape:pageshadow="2"
   inkscape:window-width="1041"
   inkscape:window-height="718"
   id="namedview3493"
   showgrid="false"
   fit-margin-top="0"
   fit-margin-left="0"
   fit-margin-right="0"
   fit-margin-bottom="0"
   inkscape:zoom="0.69019608"
   inkscape:cx="225"
   inkscape:cy="90.7"
   inkscape:window-x="0"
   inkscape:window-y="0"
   inkscape:window-maximized="0"
   inkscape:current-layer="Layer_1" />
<path
   d="M 450.2,185.7 H 3 c -1.7,0 -3,-1.3 -3,-3 V 3 C 0,1.3 1.3,0 3,0 h 447.2 c 1.7,0 3,1.3 3,3 v 179.7 c 0,1.7 -1.3,3 -3,3 z"
   id="path3335"
   inkscape:connector-curvature="0"
   style="fill:#f8faf6" />
<g
   id="g3337"
   transform="translate(-30,-30)">
	<path
   d="m 51.7,194.9 c -0.5,0 -0.9,-0.4 -0.9,-0.9 V 63.8 c 0,-1.4 1.1,-2.5 2.5,-2.5 H 135 c 1.4,0 2.5,1.1 2.5,2.5 V 194 c 0,0.5 -0.4,0.9 -0.9,0.9 H 51.7 z"
   id="path3339"
   inkscape:connector-curvature="0"
   style="fill:#ffffff" />
	<path
   d="m 135,62.2 c 0.9,0 1.7,0.8 1.7,1.7 V 194 c 0,0.1 -0.1,0.1 -0.1,0.1 H 51.7 c -0.1,0 -0.1,-0.1 -0.1,-0.1 V 63.8 c 0,-0.9 0.8,-1.7 1.7,-1.7 H 135 m 0,-1.5 H 53.3 c -1.8,0 -3.3,1.5 -3.3,3.3 V 194 c 0,1 0.8,1.7 1.7,1.7 h 84.8 c 1,0 1.7,-0.8 1.7,-1.7 V 63.8 c 0.1,-1.8 -1.4,-3.2 -3.2,-3.2 l 0,0 z"
   id="path3341"
   inkscape:connector-curvature="0"
   style="fill:#75b640" />
</g>
<path
   d="M 20,41.9 V 23.3 C 20,21.5 21.5,20 23.3,20 H 105 c 1.8,0 3.3,1.5 3.3,3.3 V 41.9 H 20 z"
   id="path3343"
   inkscape:connector-curvature="0"
   style="fill:#75b640" />
<g
   id="g3345"
   transform="translate(-30,-30)">
	<path
   d="m 73.3,65.8 v -8.6 h 2.3 l 1.8,3.2 c 0.5,0.9 1,2 1.4,3 h 0 c -0.1,-1.1 -0.2,-2.3 -0.2,-3.6 v -2.5 h 1.8 v 8.6 h -2 l -1.8,-3.3 c -0.5,-0.9 -1.1,-2 -1.5,-3 l 0,0 c 0.1,1.1 0.1,2.4 0.1,3.8 V 66 h -1.9 z"
   id="path3347"
   inkscape:connector-curvature="0"
   style="fill:#ffffff" />
	<path
   d="m 90,61.4 c 0,2.8 -1.7,4.5 -4.2,4.5 -2.6,0 -4.1,-1.9 -4.1,-4.4 0,-2.6 1.7,-4.5 4.2,-4.5 2.7,0 4.1,2 4.1,4.4 z m -6.2,0.1 c 0,1.7 0.8,2.9 2.1,2.9 1.3,0 2.1,-1.3 2.1,-2.9 0,-1.5 -0.7,-2.9 -2.1,-2.9 -1.4,-0.1 -2.1,1.2 -2.1,2.9 z"
   id="path3349"
   inkscape:connector-curvature="0"
   style="fill:#ffffff" />
	<path
   d="m 91.3,57.3 c 0.7,-0.1 1.7,-0.2 2.6,-0.2 1.6,0 2.7,0.3 3.5,0.9 0.9,0.7 1.5,1.7 1.5,3.3 0,1.7 -0.6,2.8 -1.4,3.5 -0.9,0.8 -2.3,1.1 -4,1.1 -1,0 -1.7,-0.1 -2.2,-0.1 v -8.5 z m 1.9,7 c 0.2,0 0.4,0 0.7,0 1.8,0 2.9,-1 2.9,-3 0,-1.8 -1,-2.7 -2.7,-2.7 -0.4,0 -0.7,0 -0.9,0.1 v 5.6 z"
   id="path3351"
   inkscape:connector-curvature="0"
   style="fill:#ffffff" />
	<path
   d="m 105.3,62.1 h -3.2 v 2 h 3.5 v 1.6 h -5.5 v -8.6 h 5.3 v 1.6 H 102 v 1.8 h 3.2 v 1.6 z"
   id="path3353"
   inkscape:connector-curvature="0"
   style="fill:#ffffff" />
	<path
   d="m 111.8,59.2 0,0 -1.6,0.8 -0.3,-1.5 2.2,-1 h 1.6 v 8.3 h -1.9 v -6.6 z"
   id="path3355"
   inkscape:connector-curvature="0"
   style="fill:#ffffff" />
</g>
<g
   id="g3357"
   transform="translate(-30,-30)">
	<path
   d="m 83.6,125.8 c -2.3,0 -4.2,-1.9 -4.2,-4.2 v -21.1 c 0,-2.3 1.9,-4.2 4.2,-4.2 h 21.1 c 2.3,0 4.2,1.9 4.2,4.2 v 21.1 c 0,2.3 -1.9,4.2 -4.2,4.2 H 83.6 z"
   id="path3359"
   inkscape:connector-curvature="0"
   style="fill:#ffffff" />
	<g
   id="g3361">
		<path
   d="m 104.7,98.2 c 1.2,0 2.2,1 2.2,2.2 v 21.1 c 0,1.2 -1,2.2 -2.2,2.2 H 83.6 c -1.2,0 -2.2,-1 -2.2,-2.2 v -21.1 c 0,-1.2 1,-2.2 2.2,-2.2 h 21.1 m 0,-4 H 83.6 c -3.4,0 -6.2,2.8 -6.2,6.2 v 21.1 c 0,3.4 2.8,6.2 6.2,6.2 h 21.1 c 3.4,0 6.2,-2.8 6.2,-6.2 v -21.1 c 0,-3.5 -2.7,-6.2 -6.2,-6.2 l 0,0 z"
   id="path3363"
   inkscape:connector-curvature="0"
   style="fill:#75b640" />
	</g>
</g>
<g
   id="g3365"
   transform="translate(-30,-30)">
	<path
   d="m 87.7,106.2 c 0.6,-0.1 1.4,-0.2 2.6,-0.2 1.2,0 2.1,0.2 2.6,0.7 0.6,0.4 0.9,1.2 0.9,2 0,0.8 -0.3,1.6 -0.8,2 -0.7,0.6 -1.7,0.9 -2.8,0.9 -0.3,0 -0.5,0 -0.7,0 v 3.1 h -1.9 v -8.5 z m 2,4 c 0.2,0 0.4,0.1 0.7,0.1 1,0 1.7,-0.5 1.7,-1.4 0,-0.8 -0.6,-1.3 -1.5,-1.3 -0.4,0 -0.7,0 -0.8,0.1 v 2.5 z"
   id="path3367"
   inkscape:connector-curvature="0"
   style="fill:#454746" />
	<path
   d="m 101,110.6 c 0,2.6 -1,4.3 -3.2,4.3 -2.2,0 -3.1,-1.9 -3.1,-4.3 0,-2.4 1,-4.3 3.2,-4.3 2.2,0 3.1,2 3.1,4.3 z m -4.3,0 c 0,1.9 0.4,2.8 1.2,2.8 0.8,0 1.2,-0.9 1.2,-2.8 0,-1.8 -0.4,-2.8 -1.2,-2.8 -0.7,0 -1.2,0.9 -1.2,2.8 z"
   id="path3369"
   inkscape:connector-curvature="0"
   style="fill:#454746" />
</g>
<g
   id="g3371"
   transform="translate(-30,-30)">
	<path
   d="m 160,194.9 c -0.5,0 -0.9,-0.4 -0.9,-0.9 V 63.8 c 0,-1.4 1.1,-2.5 2.5,-2.5 h 81.7 c 1.4,0 2.5,1.1 2.5,2.5 V 194 c 0,0.5 -0.4,0.9 -0.9,0.9 H 160 z"
   id="path3373"
   inkscape:connector-curvature="0"
   style="fill:#ffffff" />
	<path
   d="m 243.3,62.2 c 0.9,0 1.7,0.8 1.7,1.7 V 194 c 0,0.1 -0.1,0.1 -0.1,0.1 H 160 c -0.1,0 -0.1,-0.1 -0.1,-0.1 V 63.8 c 0,-0.9 0.8,-1.7 1.7,-1.7 h 81.7 m 0,-1.5 h -81.7 c -1.8,0 -3.3,1.5 -3.3,3.3 V 194 c 0,1 0.8,1.7 1.7,1.7 h 84.8 c 1,0 1.7,-0.8 1.7,-1.7 V 63.8 c 0.1,-1.8 -1.4,-3.2 -3.2,-3.2 l 0,0 z"
   id="path3375"
   inkscape:connector-curvature="0"
   style="fill:#75b640" />
</g>
<path
   d="M 128.3,41.9 V 23.3 c 0,-1.8 1.5,-3.3 3.3,-3.3 h 81.7 c 1.8,0 3.3,1.5 3.3,3.3 v 18.6 h -88.3 z"
   id="path3377"
   inkscape:connector-curvature="0"
   style="fill:#75b640" />
<g
   id="g3379"
   transform="translate(-30,-30)">
	<path
   d="m 181.6,65.8 v -8.6 h 2.3 l 1.8,3.2 c 0.5,0.9 1,2 1.4,3 h 0 c -0.1,-1.1 -0.2,-2.3 -0.2,-3.6 v -2.5 h 1.8 v 8.6 h -2 l -1.8,-3.3 c -0.5,-0.9 -1.1,-2 -1.5,-3 l 0,0 c 0.1,1.1 0.1,2.4 0.1,3.8 V 66 h -1.9 z"
   id="path3381"
   inkscape:connector-curvature="0"
   style="fill:#ffffff" />
	<path
   d="m 198.3,61.4 c 0,2.8 -1.7,4.5 -4.2,4.5 -2.6,0 -4.1,-1.9 -4.1,-4.4 0,-2.6 1.7,-4.5 4.2,-4.5 2.7,0 4.1,2 4.1,4.4 z m -6.2,0.1 c 0,1.7 0.8,2.9 2.1,2.9 1.3,0 2.1,-1.3 2.1,-2.9 0,-1.5 -0.7,-2.9 -2.1,-2.9 -1.4,-0.1 -2.1,1.2 -2.1,2.9 z"
   id="path3383"
   inkscape:connector-curvature="0"
   style="fill:#ffffff" />
	<path
   d="m 199.6,57.3 c 0.7,-0.1 1.7,-0.2 2.6,-0.2 1.6,0 2.7,0.3 3.5,0.9 0.9,0.7 1.5,1.7 1.5,3.3 0,1.7 -0.6,2.8 -1.4,3.5 -0.9,0.8 -2.3,1.1 -4,1.1 -1,0 -1.7,-0.1 -2.2,-0.1 v -8.5 z m 1.9,7 c 0.2,0 0.4,0 0.7,0 1.8,0 2.9,-1 2.9,-3 0,-1.8 -1,-2.7 -2.7,-2.7 -0.4,0 -0.7,0 -0.9,0.1 v 5.6 z"
   id="path3385"
   inkscape:connector-curvature="0"
   style="fill:#ffffff" />
	<path
   d="m 213.6,62.1 h -3.2 v 2 h 3.5 v 1.6 h -5.5 v -8.6 h 5.3 v 1.6 h -3.4 v 1.8 h 3.2 v 1.6 z"
   id="path3387"
   inkscape:connector-curvature="0"
   style="fill:#ffffff" />
	<path
   d="m 217.6,65.8 v -1.2 l 1.1,-1 c 1.8,-1.6 2.7,-2.6 2.7,-3.5 0,-0.7 -0.4,-1.2 -1.4,-1.2 -0.7,0 -1.3,0.4 -1.8,0.7 l -0.5,-1.4 c 0.6,-0.5 1.6,-0.9 2.7,-0.9 1.9,0 2.9,1.1 2.9,2.6 0,1.4 -1,2.5 -2.2,3.6 l -0.8,0.6 v 0 h 3.1 v 1.6 h -5.8 z"
   id="path3389"
   inkscape:connector-curvature="0"
   style="fill:#ffffff" />
</g>
<g
   id="g3391"
   transform="translate(-30,-30)">
	<path
   d="m 191.9,171.4 c -2.3,0 -4.2,-1.9 -4.2,-4.2 V 146 c 0,-2.3 1.9,-4.2 4.2,-4.2 H 213 c 2.3,0 4.2,1.9 4.2,4.2 v 21.1 c 0,2.3 -1.9,4.2 -4.2,4.2 h -21.1 z"
   id="path3393"
   inkscape:connector-curvature="0"
   style="fill:#ffffff" />
	<g
   id="g3395">
		<path
   d="m 213,143.8 c 1.2,0 2.2,1 2.2,2.2 v 21.1 c 0,1.2 -1,2.2 -2.2,2.2 h -21.1 c -1.2,0 -2.2,-1 -2.2,-2.2 V 146 c 0,-1.2 1,-2.2 2.2,-2.2 H 213 m 0,-4 h -21.1 c -3.4,0 -6.2,2.8 -6.2,6.2 v 21.1 c 0,3.4 2.8,6.2 6.2,6.2 H 213 c 3.4,0 6.2,-2.8 6.2,-6.2 V 146 c 0,-3.5 -2.7,-6.2 -6.2,-6.2 l 0,0 z"
   id="path3397"
   inkscape:connector-curvature="0"
   style="fill:#75b640" />
	</g>
</g>
<g
   id="g3399"
   transform="translate(-30,-30)">
	<path
   d="m 196,151.8 c 0.6,-0.1 1.4,-0.2 2.6,-0.2 1.2,0 2.1,0.2 2.6,0.7 0.6,0.4 0.9,1.2 0.9,2 0,0.8 -0.3,1.6 -0.8,2 -0.7,0.6 -1.7,0.9 -2.8,0.9 -0.3,0 -0.5,0 -0.7,0 v 3.1 H 196 v -8.5 z m 2,4 c 0.2,0 0.4,0.1 0.7,0.1 1,0 1.7,-0.5 1.7,-1.4 0,-0.8 -0.6,-1.3 -1.5,-1.3 -0.4,0 -0.7,0 -0.8,0.1 v 2.5 z"
   id="path3401"
   inkscape:connector-curvature="0"
   style="fill:#454746" />
	<path
   d="m 205.6,153.8 0,0 -1.6,0.8 -0.3,-1.5 2.2,-1 h 1.6 v 8.3 h -1.9 v -6.6 z"
   id="path3403"
   inkscape:connector-curvature="0"
   style="fill:#454746" />
</g>
<g
   id="g3405"
   transform="translate(-30,-30)">
	<path
   d="m 268.3,194.9 c -0.5,0 -0.9,-0.4 -0.9,-0.9 V 63.8 c 0,-1.4 1.1,-2.5 2.5,-2.5 h 81.7 c 1.4,0 2.5,1.1 2.5,2.5 V 194 c 0,0.5 -0.4,0.9 -0.9,0.9 h -84.9 z"
   id="path3407"
   inkscape:connector-curvature="0"
   style="fill:#ffffff" />
	<path
   d="m 351.6,62.2 c 0.9,0 1.7,0.8 1.7,1.7 V 194 c 0,0.1 -0.1,0.1 -0.1,0.1 h -84.8 c -0.1,0 -0.1,-0.1 -0.1,-0.1 V 63.8 c 0,-0.9 0.8,-1.7 1.7,-1.7 h 81.6 m 0,-1.5 h -81.7 c -1.8,0 -3.3,1.5 -3.3,3.3 V 194 c 0,1 0.8,1.7 1.7,1.7 h 84.8 c 1,0 1.7,-0.8 1.7,-1.7 V 63.8 c 0.1,-1.8 -1.4,-3.2 -3.2,-3.2 l 0,0 z"
   id="path3409"
   inkscape:connector-curvature="0"
   style="fill:#75b640" />
</g>
<path
   d="M 236.6,41.9 V 23.3 c 0,-1.8 1.5,-3.3 3.3,-3.3 h 81.7 c 1.8,0 3.3,1.5 3.3,3.3 v 18.6 h -88.3 z"
   id="path3411"
   inkscape:connector-curvature="0"
   style="fill:#75b640" />
<g
   id="g3413"
   transform="translate(-30,-30)">
	<path
   d="m 289.9,65.8 v -8.6 h 2.3 l 1.8,3.2 c 0.5,0.9 1,2 1.4,3 h 0 c -0.1,-1.1 -0.2,-2.3 -0.2,-3.6 v -2.5 h 1.8 v 8.6 h -2 l -1.8,-3.3 c -0.5,-0.9 -1.1,-2 -1.5,-3 l 0,0 c 0.1,1.1 0.1,2.4 0.1,3.8 V 66 h -1.9 z"
   id="path3415"
   inkscape:connector-curvature="0"
   style="fill:#ffffff" />
	<path
   d="m 306.6,61.4 c 0,2.8 -1.7,4.5 -4.2,4.5 -2.6,0 -4.1,-1.9 -4.1,-4.4 0,-2.6 1.7,-4.5 4.2,-4.5 2.7,0 4.1,2 4.1,4.4 z m -6.2,0.1 c 0,1.7 0.8,2.9 2.1,2.9 1.3,0 2.1,-1.3 2.1,-2.9 0,-1.5 -0.7,-2.9 -2.1,-2.9 -1.4,-0.1 -2.1,1.2 -2.1,2.9 z"
   id="path3417"
   inkscape:connector-curvature="0"
   style="fill:#ffffff" />
	<path
   d="m 307.9,57.3 c 0.7,-0.1 1.7,-0.2 2.6,-0.2 1.6,0 2.7,0.3 3.5,0.9 0.9,0.7 1.5,1.7 1.5,3.3 0,1.7 -0.6,2.8 -1.4,3.5 -0.9,0.8 -2.3,1.1 -4,1.1 -1,0 -1.7,-0.1 -2.2,-0.1 v -8.5 z m 1.9,7 c 0.2,0 0.4,0 0.7,0 1.8,0 2.9,-1 2.9,-3 0,-1.8 -1,-2.7 -2.7,-2.7 -0.4,0 -0.7,0 -0.9,0.1 v 5.6 z"
   id="path3419"
   inkscape:connector-curvature="0"
   style="fill:#ffffff" />
	<path
   d="m 321.9,62.1 h -3.2 v 2 h 3.5 v 1.6 h -5.5 v -8.6 h 5.3 v 1.6 h -3.4 v 1.8 h 3.2 v 1.6 z"
   id="path3421"
   inkscape:connector-curvature="0"
   style="fill:#ffffff" />
	<path
   d="m 326.2,63.9 c 0.3,0.2 1.1,0.5 1.9,0.5 1,0 1.5,-0.5 1.5,-1.1 0,-0.8 -0.8,-1.2 -1.7,-1.2 h -0.8 v -1.4 h 0.8 c 0.7,0 1.5,-0.3 1.5,-1 0,-0.5 -0.4,-0.9 -1.2,-0.9 -0.7,0 -1.4,0.3 -1.7,0.5 l -0.4,-1.4 c 0.5,-0.3 1.5,-0.6 2.6,-0.6 1.8,0 2.8,0.9 2.8,2.1 0,0.9 -0.5,1.6 -1.5,1.9 v 0 c 1,0.2 1.8,0.9 1.8,2 0,1.5 -1.3,2.5 -3.4,2.5 -1.1,0 -2,-0.3 -2.5,-0.6 l 0.3,-1.3 z"
   id="path3423"
   inkscape:connector-curvature="0"
   style="fill:#ffffff" />
</g>
<g
   id="g3425"
   transform="translate(-30,-30)">
	<path
   d="m 300.2,125.8 c -2.3,0 -4.2,-1.9 -4.2,-4.2 v -21.1 c 0,-2.3 1.9,-4.2 4.2,-4.2 h 21.1 c 2.3,0 4.2,1.9 4.2,4.2 v 21.1 c 0,2.3 -1.9,4.2 -4.2,4.2 h -21.1 z"
   id="path3427"
   inkscape:connector-curvature="0"
   style="fill:#ffffff" />
	<g
   id="g3429">
		<path
   d="m 321.3,98.2 c 1.2,0 2.2,1 2.2,2.2 v 21.1 c 0,1.2 -1,2.2 -2.2,2.2 h -21.1 c -1.2,0 -2.2,-1 -2.2,-2.2 v -21.1 c 0,-1.2 1,-2.2 2.2,-2.2 h 21.1 m 0,-4 h -21.1 c -3.4,0 -6.2,2.8 -6.2,6.2 v 21.1 c 0,3.4 2.8,6.2 6.2,6.2 h 21.1 c 3.4,0 6.2,-2.8 6.2,-6.2 v -21.1 c 0,-3.5 -2.7,-6.2 -6.2,-6.2 l 0,0 z"
   id="path3431"
   inkscape:connector-curvature="0"
   style="fill:#c6c6c6" />
	</g>
</g>
<g
   id="g3433"
   transform="translate(-30,-30)">
	<path
   d="m 304.2,106.2 c 0.6,-0.1 1.6,-0.2 2.6,-0.2 1.3,0 2.2,0.2 2.8,0.7 0.5,0.4 0.8,1 0.8,1.8 0,1.1 -0.8,1.9 -1.5,2.1 v 0 c 0.6,0.2 0.9,0.8 1.2,1.6 0.3,1 0.5,2.1 0.7,2.4 h -2 c -0.1,-0.2 -0.3,-0.9 -0.6,-2 -0.2,-1.1 -0.6,-1.4 -1.4,-1.4 h -0.6 v 3.4 h -1.9 v -8.4 z m 2,3.8 h 0.8 c 1,0 1.5,-0.5 1.5,-1.2 0,-0.8 -0.5,-1.2 -1.4,-1.2 -0.5,0 -0.7,0 -0.9,0.1 v 2.3 z"
   id="path3435"
   inkscape:connector-curvature="0"
   style="fill:#454746" />
	<path
   d="m 317.7,110.6 c 0,2.6 -1,4.3 -3.2,4.3 -2.2,0 -3.1,-1.9 -3.1,-4.3 0,-2.4 1,-4.3 3.2,-4.3 2.2,0 3.1,2 3.1,4.3 z m -4.3,0 c 0,1.9 0.4,2.8 1.2,2.8 0.8,0 1.2,-0.9 1.2,-2.8 0,-1.8 -0.4,-2.8 -1.2,-2.8 -0.8,0 -1.3,0.9 -1.2,2.8 z"
   id="path3437"
   inkscape:connector-curvature="0"
   style="fill:#454746" />
</g>
<g
   id="g3439"
   transform="translate(-30,-30)">
	<path
   d="m 376.6,194.9 c -0.5,0 -0.9,-0.4 -0.9,-0.9 V 63.8 c 0,-1.4 1.1,-2.5 2.5,-2.5 h 81.7 c 1.4,0 2.5,1.1 2.5,2.5 V 194 c 0,0.5 -0.4,0.9 -0.9,0.9 h -84.9 z"
   id="path3441"
   inkscape:connector-curvature="0"
   style="fill:#ffffff" />
	<path
   d="m 459.9,62.2 c 0.9,0 1.7,0.8 1.7,1.7 V 194 c 0,0.1 -0.1,0.1 -0.1,0.1 h -84.8 c -0.1,0 -0.1,-0.1 -0.1,-0.1 V 63.8 c 0,-0.9 0.8,-1.7 1.7,-1.7 h 81.6 m 0,-1.5 h -81.7 c -1.8,0 -3.3,1.5 -3.3,3.3 V 194 c 0,1 0.8,1.7 1.7,1.7 h 84.8 c 1,0 1.7,-0.8 1.7,-1.7 V 63.8 c 0.1,-1.8 -1.4,-3.2 -3.2,-3.2 l 0,0 z"
   id="path3443"
   inkscape:connector-curvature="0"
   style="fill:#75b640" />
</g>
<path
   d="M 344.9,41.9 V 23.3 c 0,-1.8 1.5,-3.3 3.3,-3.3 h 81.7 c 1.8,0 3.3,1.5 3.3,3.3 v 18.6 h -88.3 z"
   id="path3445"
   inkscape:connector-curvature="0"
   style="fill:#75b640" />
<g
   id="g3447"
   transform="translate(-30,-30)">
	<path
   d="m 398.2,65.8 v -8.6 h 2.3 l 1.8,3.2 c 0.5,0.9 1,2 1.4,3 h 0 c -0.1,-1.1 -0.2,-2.3 -0.2,-3.6 v -2.5 h 1.8 v 8.6 h -2 l -1.8,-3.3 c -0.5,-0.9 -1.1,-2 -1.5,-3 l 0,0 c 0.1,1.1 0.1,2.4 0.1,3.8 V 66 h -1.9 z"
   id="path3449"
   inkscape:connector-curvature="0"
   style="fill:#ffffff" />
	<path
   d="m 414.9,61.4 c 0,2.8 -1.7,4.5 -4.2,4.5 -2.6,0 -4.1,-1.9 -4.1,-4.4 0,-2.6 1.7,-4.5 4.2,-4.5 2.7,0 4.1,2 4.1,4.4 z m -6.2,0.1 c 0,1.7 0.8,2.9 2.1,2.9 1.3,0 2.1,-1.3 2.1,-2.9 0,-1.5 -0.7,-2.9 -2.1,-2.9 -1.4,-0.1 -2.1,1.2 -2.1,2.9 z"
   id="path3451"
   inkscape:connector-curvature="0"
   style="fill:#ffffff" />
	<path
   d="m 416.2,57.3 c 0.7,-0.1 1.7,-0.2 2.6,-0.2 1.6,0 2.7,0.3 3.5,0.9 0.9,0.7 1.5,1.7 1.5,3.3 0,1.7 -0.6,2.8 -1.4,3.5 -0.9,0.8 -2.3,1.1 -4,1.1 -1,0 -1.7,-0.1 -2.2,-0.1 v -8.5 z m 1.9,7 c 0.2,0 0.4,0 0.7,0 1.8,0 2.9,-1 2.9,-3 0,-1.8 -1,-2.7 -2.7,-2.7 -0.4,0 -0.7,0 -0.9,0.1 v 5.6 z"
   id="path3453"
   inkscape:connector-curvature="0"
   style="fill:#ffffff" />
	<path
   d="M 430.2,62.1 H 427 v 2 h 3.5 v 1.6 H 425 v -8.6 h 5.3 v 1.6 H 427 v 1.8 h 3.2 v 1.6 z"
   id="path3455"
   inkscape:connector-curvature="0"
   style="fill:#ffffff" />
	<path
   d="m 437.6,65.8 v -2 H 434 v -1.3 l 3.1,-5.1 h 2.4 v 4.9 h 1 v 1.5 h -1 v 2 h -1.9 z m 0,-3.5 v -1.8 c 0,-0.5 0,-1 0.1,-1.5 h -0.1 c -0.3,0.5 -0.5,1 -0.8,1.5 l -1.1,1.8 v 0 h 1.9 z"
   id="path3457"
   inkscape:connector-curvature="0"
   style="fill:#ffffff" />
</g>
<g
   id="g3459"
   transform="translate(-30,-30)">
	<path
   d="m 408.5,171.4 c -2.3,0 -4.2,-1.9 -4.2,-4.2 V 146 c 0,-2.3 1.9,-4.2 4.2,-4.2 h 21.1 c 2.3,0 4.2,1.9 4.2,4.2 v 21.1 c 0,2.3 -1.9,4.2 -4.2,4.2 h -21.1 z"
   id="path3461"
   inkscape:connector-curvature="0"
   style="fill:#ffffff" />
	<g
   id="g3463">
		<path
   d="m 429.6,143.8 c 1.2,0 2.2,1 2.2,2.2 v 21.1 c 0,1.2 -1,2.2 -2.2,2.2 h -21.1 c -1.2,0 -2.2,-1 -2.2,-2.2 V 146 c 0,-1.2 1,-2.2 2.2,-2.2 h 21.1 m 0,-4 h -21.1 c -3.4,0 -6.2,2.8 -6.2,6.2 v 21.1 c 0,3.4 2.8,6.2 6.2,6.2 h 21.1 c 3.4,0 6.2,-2.8 6.2,-6.2 V 146 c 0,-3.5 -2.7,-6.2 -6.2,-6.2 l 0,0 z"
   id="path3465"
   inkscape:connector-curvature="0"
   style="fill:#c6c6c6" />
	</g>
</g>
<g
   id="g3467"
   transform="translate(-30,-30)">
	<path
   d="m 412.5,151.8 c 0.6,-0.1 1.6,-0.2 2.6,-0.2 1.3,0 2.2,0.2 2.8,0.7 0.5,0.4 0.8,1 0.8,1.8 0,1.1 -0.8,1.9 -1.5,2.1 v 0 c 0.6,0.2 0.9,0.8 1.2,1.6 0.3,1 0.5,2.1 0.7,2.4 h -2 c -0.1,-0.2 -0.3,-0.9 -0.6,-2 -0.2,-1.1 -0.6,-1.4 -1.4,-1.4 h -0.6 v 3.4 h -1.9 v -8.4 z m 2,3.8 h 0.8 c 1,0 1.5,-0.5 1.5,-1.2 0,-0.8 -0.5,-1.2 -1.4,-1.2 -0.5,0 -0.7,0 -0.9,0.1 v 2.3 z"
   id="path3469"
   inkscape:connector-curvature="0"
   style="fill:#454746" />
	<path
   d="m 422.3,153.8 0,0 -1.6,0.8 -0.3,-1.5 2.2,-1 h 1.6 v 8.3 h -1.9 v -6.6 z"
   id="path3471"
   inkscape:connector-curvature="0"
   style="fill:#454746" />
</g>
<g
   id="g3473"
   transform="translate(-30,-30)">
	<g
   id="g3475">
		<path
   stroke-miterlimit="10"
   d="m 116.9,110.9 c 0,0 106.8,0.2 163.3,0.2"
   id="path3477"
   inkscape:connector-curvature="0"
   style="fill:none;stroke:#454746;stroke-width:1.60000002;stroke-linecap:round;stroke-miterlimit:10" />
		<g
   id="g3479">
			<path
   d="m 287.9,111.1 c -3.6,1.3 -8.2,3.6 -10.9,6.1 l 2.2,-6.1 -2.2,-6.1 c 2.8,2.4 7.3,4.7 10.9,6.1 z"
   id="path3481"
   inkscape:connector-curvature="0"
   style="fill:#454746" />
		</g>
	</g>
</g>
<g
   id="g3483"
   transform="translate(-30,-30)">
	<g
   id="g3485">
		<path
   stroke-miterlimit="10"
   d="m 225.2,156.4 c 0,0 106.8,0.2 163.3,0.2"
   id="path3487"
   inkscape:connector-curvature="0"
   style="fill:none;stroke:#454746;stroke-width:1.60000002;stroke-linecap:round;stroke-miterlimit:10" />
		<g
   id="g3489">
			<path
   d="m 396.2,156.7 c -3.6,1.3 -8.2,3.6 -10.9,6.1 l 2.2,-6.1 -2.2,-6.1 c 2.8,2.4 7.3,4.7 10.9,6.1 z"
   id="path3491"
   inkscape:connector-curvature="0"
   style="fill:#454746" />
		</g>
	</g>
</g>
</svg>