<?xml version="1.0" encoding="UTF-8" standalone="no"?>
<!-- Generator: Adobe Illustrator 18.0.0, SVG Export Plug-In . SVG Version: 6.00 Build 0)  -->

<svg
   xmlns:dc="http://purl.org/dc/elements/1.1/"
   xmlns:cc="http://creativecommons.org/ns#"
   xmlns:rdf="http://www.w3.org/1999/02/22-rdf-syntax-ns#"
   xmlns:svg="http://www.w3.org/2000/svg"
   xmlns="http://www.w3.org/2000/svg"
   xmlns:sodipodi="http://sodipodi.sourceforge.net/DTD/sodipodi-0.dtd"
   xmlns:inkscape="http://www.inkscape.org/namespaces/inkscape"
   version="1.1"
   id="Layer_1"
   x="0px"
   y="0px"
   viewBox="0 0 453.2 185.7"
   enable-background="new 0 0 510 250"
   xml:space="preserve"
   inkscape:version="0.48.2 r9819"
   width="100%"
   height="100%"
   sodipodi:docname="410_20_two_shards.svg"><metadata
   id="metadata3139"><rdf:RDF><cc:Work
       rdf:about=""><dc:format>image/svg+xml</dc:format><dc:type
         rdf:resource="http://purl.org/dc/dcmitype/StillImage" /></cc:Work></rdf:RDF></metadata><defs
   id="defs3137" /><sodipodi:namedview
   pagecolor="#ffffff"
   bordercolor="#666666"
   borderopacity="1"
   objecttolerance="10"
   gridtolerance="10"
   guidetolerance="10"
   inkscape:pageopacity="0"
   inkscape:pageshadow="2"
   inkscape:window-width="640"
   inkscape:window-height="480"
   id="namedview3135"
   showgrid="false"
   fit-margin-top="0"
   fit-margin-left="0"
   fit-margin-right="0"
   fit-margin-bottom="0"
   inkscape:zoom="0.69019608"
   inkscape:cx="225"
   inkscape:cy="90.7"
   inkscape:window-x="0"
   inkscape:window-y="0"
   inkscape:window-maximized="0"
   inkscape:current-layer="Layer_1" />
<path
   d="M 233.6,185.7 H 3 c -1.7,0 -3,-1.3 -3,-3 V 3 C 0,1.3 1.3,0 3,0 h 230.6 c 1.7,0 3,1.3 3,3 v 179.7 c 0,1.7 -1.3,3 -3,3 z"
   id="path3041"
   inkscape:connector-curvature="0"
   style="fill:#f8faf6" />
<g
   id="g3043"
   transform="translate(-30,-30)">
	<path
   d="m 51.7,194.9 c -0.5,0 -0.9,-0.4 -0.9,-0.9 V 63.8 c 0,-1.4 1.1,-2.5 2.5,-2.5 H 135 c 1.4,0 2.5,1.1 2.5,2.5 V 194 c 0,0.5 -0.4,0.9 -0.9,0.9 H 51.7 z"
   id="path3045"
   inkscape:connector-curvature="0"
   style="fill:#ffffff" />
	<path
   d="m 135,62.2 c 0.9,0 1.7,0.8 1.7,1.7 V 194 c 0,0.1 -0.1,0.1 -0.1,0.1 H 51.7 c -0.1,0 -0.1,-0.1 -0.1,-0.1 V 63.8 c 0,-0.9 0.8,-1.7 1.7,-1.7 H 135 m 0,-1.5 H 53.3 c -1.8,0 -3.3,1.5 -3.3,3.3 V 194 c 0,1 0.8,1.7 1.7,1.7 h 84.8 c 1,0 1.7,-0.8 1.7,-1.7 V 63.8 c 0.1,-1.8 -1.4,-3.2 -3.2,-3.2 l 0,0 z"
   id="path3047"
   inkscape:connector-curvature="0"
   style="fill:#75b640" />
</g>
<path
   d="M 20,41.9 V 23.3 C 20,21.5 21.5,20 23.3,20 H 105 c 1.8,0 3.3,1.5 3.3,3.3 V 41.9 H 20 z"
   id="path3049"
   inkscape:connector-curvature="0"
   style="fill:#75b640" />
<g
   id="g3051"
   transform="translate(-30,-30)">
	<path
   d="m 73.3,65.8 v -8.6 h 2.3 l 1.8,3.2 c 0.5,0.9 1,2 1.4,3 h 0 c -0.1,-1.1 -0.2,-2.3 -0.2,-3.6 v -2.5 h 1.8 v 8.6 h -2 l -1.8,-3.3 c -0.5,-0.9 -1.1,-2 -1.5,-3 l 0,0 c 0.1,1.1 0.1,2.4 0.1,3.8 V 66 h -1.9 z"
   id="path3053"
   inkscape:connector-curvature="0"
   style="fill:#ffffff" />
	<path
   d="m 90,61.4 c 0,2.8 -1.7,4.5 -4.2,4.5 -2.6,0 -4.1,-1.9 -4.1,-4.4 0,-2.6 1.7,-4.5 4.2,-4.5 2.7,0 4.1,2 4.1,4.4 z m -6.2,0.1 c 0,1.7 0.8,2.9 2.1,2.9 1.3,0 2.1,-1.3 2.1,-2.9 0,-1.5 -0.7,-2.9 -2.1,-2.9 -1.4,-0.1 -2.1,1.2 -2.1,2.9 z"
   id="path3055"
   inkscape:connector-curvature="0"
   style="fill:#ffffff" />
	<path
   d="m 91.3,57.3 c 0.7,-0.1 1.7,-0.2 2.6,-0.2 1.6,0 2.7,0.3 3.5,0.9 0.9,0.7 1.5,1.7 1.5,3.3 0,1.7 -0.6,2.8 -1.4,3.5 -0.9,0.8 -2.3,1.1 -4,1.1 -1,0 -1.7,-0.1 -2.2,-0.1 v -8.5 z m 1.9,7 c 0.2,0 0.4,0 0.7,0 1.8,0 2.9,-1 2.9,-3 0,-1.8 -1,-2.7 -2.7,-2.7 -0.4,0 -0.7,0 -0.9,0.1 v 5.6 z"
   id="path3057"
   inkscape:connector-curvature="0"
   style="fill:#ffffff" />
	<path
   d="m 105.3,62.1 h -3.2 v 2 h 3.5 v 1.6 h -5.5 v -8.6 h 5.3 v 1.6 H 102 v 1.8 h 3.2 v 1.6 z"
   id="path3059"
   inkscape:connector-curvature="0"
   style="fill:#ffffff" />
	<path
   d="m 111.8,59.2 0,0 -1.6,0.8 -0.3,-1.5 2.2,-1 h 1.6 v 8.3 h -1.9 v -6.6 z"
   id="path3061"
   inkscape:connector-curvature="0"
   style="fill:#ffffff" />
</g>
<g
   id="g3063"
   transform="translate(-30,-30)">
	<path
   d="m 83.6,125.8 c -2.3,0 -4.2,-1.9 -4.2,-4.2 v -21.1 c 0,-2.3 1.9,-4.2 4.2,-4.2 h 21.1 c 2.3,0 4.2,1.9 4.2,4.2 v 21.1 c 0,2.3 -1.9,4.2 -4.2,4.2 H 83.6 z"
   id="path3065"
   inkscape:connector-curvature="0"
   style="fill:#ffffff" />
	<g
   id="g3067">
		<path
   d="m 104.7,98.2 c 1.2,0 2.2,1 2.2,2.2 v 21.1 c 0,1.2 -1,2.2 -2.2,2.2 H 83.6 c -1.2,0 -2.2,-1 -2.2,-2.2 v -21.1 c 0,-1.2 1,-2.2 2.2,-2.2 h 21.1 m 0,-4 H 83.6 c -3.4,0 -6.2,2.8 -6.2,6.2 v 21.1 c 0,3.4 2.8,6.2 6.2,6.2 h 21.1 c 3.4,0 6.2,-2.8 6.2,-6.2 v -21.1 c 0,-3.5 -2.7,-6.2 -6.2,-6.2 l 0,0 z"
   id="path3069"
   inkscape:connector-curvature="0"
   style="fill:#75b640" />
	</g>
</g>
<g
   id="g3071"
   transform="translate(-30,-30)">
	<path
   d="m 87.7,106.2 c 0.6,-0.1 1.4,-0.2 2.6,-0.2 1.2,0 2.1,0.2 2.6,0.7 0.6,0.4 0.9,1.2 0.9,2 0,0.8 -0.3,1.6 -0.8,2 -0.7,0.6 -1.7,0.9 -2.8,0.9 -0.3,0 -0.5,0 -0.7,0 v 3.1 h -1.9 v -8.5 z m 2,4 c 0.2,0 0.4,0.1 0.7,0.1 1,0 1.7,-0.5 1.7,-1.4 0,-0.8 -0.6,-1.3 -1.5,-1.3 -0.4,0 -0.7,0 -0.8,0.1 v 2.5 z"
   id="path3073"
   inkscape:connector-curvature="0"
   style="fill:#454746" />
	<path
   d="m 101,110.6 c 0,2.6 -1,4.3 -3.2,4.3 -2.2,0 -3.1,-1.9 -3.1,-4.3 0,-2.4 1,-4.3 3.2,-4.3 2.2,0 3.1,2 3.1,4.3 z m -4.3,0 c 0,1.9 0.4,2.8 1.2,2.8 0.8,0 1.2,-0.9 1.2,-2.8 0,-1.8 -0.4,-2.8 -1.2,-2.8 -0.7,0 -1.2,0.9 -1.2,2.8 z"
   id="path3075"
   inkscape:connector-curvature="0"
   style="fill:#454746" />
</g>
<g
   id="g3077"
   style="opacity:0.4"
   transform="translate(-30,-30)">
	<path
   d="m 106.9,167.1 c 0,1.2 -1,2.2 -2.2,2.2 H 83.6 c -1.2,0 -2.2,-1 -2.2,-2.2 V 146 c 0,-1.2 1,-2.2 2.2,-2.2 h 21.1 c 1.2,0 2.2,1 2.2,2.2 v 21.1 z"
   id="path3079"
   inkscape:connector-curvature="0"
   style="fill:#ffffff" />
	<g
   id="g3081">
		<path
   d="m 104.7,141.8 h -0.5 c -0.6,0 -1,0.4 -1,1 0,0.6 0.4,1 1,1 h 0.5 c 0,0 0,0 0,0 0,0 0,0 0,0 0.1,0 0.1,0 0.2,0 l 0,0 c 0,0 0,0 0,0 0,0 0,0 0,0 0,0 0,0 0,0 0,0 0,0 0,0 0,0 0,0 0,0 l 0,0 c 0,0 0,0 0,0 0,0 0,0 0,0 0,0 0,0 0,0 0,0 0,0 0,0 0,0 0,0 0,0 0,0 0,0 0,0 0,0 0,0 0,0 l 0,0 c 0,0 0,0 0,0 0,0 0,0 0,0 0,0 0,0 0,0 0,0 0,0 0,0 0,0 0,0 0,0 0,0 0,0 0,0 l 0,0 c 0,0 0,0 0,0 l 0,0 c 0,0 0,0 0,0 0,0 0,0 0,0 0,0 0,0 0,0 l 0,0 c 0,0 0,0 0,0 l 0,0 c 0,0 0,0 0,0 0,0 0,0 0,0 0,0 0,0 0,0 0,0 0,0 0,0 0,0 0,0 0,0 0,0 0,0 0,0 0,0 0,0 0,0 l 0,0 c 0,0 0,0 0,0 l 0,0 c 0,0 0,0 0,0 l 0,0 c 0,0 0,0 0,0 0,0 0,0 0,0 0,0 0,0 0,0 l 0,0 c 0,0 0,0 0,0 l 0,0 c 0,0 0,0 0,0 l 0,0 c 0,0 0,0 0,0 l 0,0 c 0,0 0,0 0,0 l 0,0 c 0,0 0,0 0,0 l 0,0 c 0,0 0,0 0,0 l 0,0 c 0,0 0,0 0,0 0,0 0,0 0,0 0,0 0,0 0,0 l 0,0 c 0,0 0,0 0,0 l 0,0 c 0,0 0,0 0,0 l 0,0 c 0,0 0,0 0,0 l 0,0 c 0,0 0,0 0,0 0,0 0,0 0,0 0,0 0,0 0,0 l 0,0 c 0,0 0,0 0,0 0,0 0,0 0,0 0,0 0,0 0,0 0,0 0,0 0,0 0,0 0,0 0,0 0,0 0,0 0,0 0,0 0,0 0,0 0,0 0,0 0,0 0,0 0,0 0,0 0,0 0,0 0,0 l 0,0 c 0,0 0,0 0,0 0,0 0,0 0,0 0,0 0,0 0,0 0,0 0,0 0,0 0,0 0,0 0,0 0,0 0,0 0,0 0,0 0,0 0,0 l 0,0 c 0,0 0,0 0,0 0,0 0,0 0,0 0,0 0,0 0,0 l 0,0 c 0,0 0.1,0 0.1,0 0.1,0 0.2,0 0.3,0 0.4,0 0.8,-0.3 1,-0.7 0.1,-0.5 -0.2,-1.1 -0.7,-1.2 -0.3,-0.1 -0.6,-0.1 -0.9,-0.1 0,0 0,0 0,0 0.1,0 0.1,0 0,0 0.1,0 0,0 0,0 l 0,0 z m -3.5,0 h -0.5 c -0.6,0 -1,0.4 -1,1 0,0.6 0.4,1 1,1 h 0.5 c 0.6,0 1,-0.4 1,-1 0,-0.6 -0.4,-1 -1,-1 l 0,0 z m -3.5,0 h -0.5 c -0.6,0 -1,0.4 -1,1 0,0.6 0.4,1 1,1 h 0.5 c 0.6,0 1,-0.4 1,-1 0,-0.6 -0.4,-1 -1,-1 l 0,0 z m -3.5,0 h -0.5 c -0.6,0 -1,0.4 -1,1 0,0.6 0.4,1 1,1 h 0.5 c 0.6,0 1,-0.4 1,-1 0,-0.6 -0.4,-1 -1,-1 l 0,0 z m -3.5,0 h -0.5 c -0.6,0 -1,0.4 -1,1 0,0.6 0.4,1 1,1 h 0.5 c 0.6,0 1,-0.4 1,-1 0,-0.6 -0.4,-1 -1,-1 l 0,0 z m -3.5,0 h -0.5 c -0.6,0 -1,0.4 -1,1 0,0.6 0.4,1 1,1 h 0.5 c 0.6,0 1,-0.4 1,-1 0,-0.6 -0.4,-1 -1,-1 l 0,0 z m -3.5,0 h -0.1 c -0.2,0 -0.4,0 -0.7,0.1 -0.5,0.1 -0.9,0.6 -0.8,1.1 0.1,0.5 0.5,0.8 1,0.8 0.1,0 0.1,0 0.2,0 l 0,0 c 0,0 0,0 0,0 0,0 0,0 0,0 0,0 0,0 0,0 0,0 0,0 0,0 l 0,0 c 0,0 0,0 0,0 0,0 0,0 0,0 0,0 0,0 0,0 l 0,0 c 0,0 0,0 0,0 l 0,0 c 0.1,0 0.2,0 0.2,0 h 0 c 0,0 0,0 0,0 h 0 c 0,0 0,0 0,0 h 0 c 0,0 0,0 0,0 h 0 c 0,0 0,0 0,0 l 0,0 c 0,0 0,0 0,0 h 0 c 0,0 0,0 0,0 l 0,0 c 0,0 0,0 0,0 h 0 c 0,0 0,0 0,0 l 0,0 c 0,0 0,0 0,0 0,0 0,0 0,0 0,0 0,0 0,0 h 0 c 0,0 0,0 0,0 h 0 c 0,0 0,0 0,0 0,0 0,0 0,0 0,0 0,0 0,0 h 0 c 0,0 0,0 0,0 h 0 c 0,0 0,0 0,0 h 0 c 0,0 0,0 0,0 0,0 0,0 0,0 0,0 0,0 0,0 h 0 c 0,0 0,0 0,0 0,0 0,0 0,0 0,0 0,0 0,0 h 0 c 0,0 0,0 0,0 h 0.1 c 0.6,0 1,-0.4 1,-1 0.1,-0.6 -0.3,-1 -0.9,-1 l 0,0 z m -3.3,3 c -0.5,0 -1,0.4 -1,0.9 0,0.1 0,0.2 0,0.3 v 0.4 c 0,0.6 0.4,1 1,1 0.6,0 1,-0.4 1,-1 V 146 l 0,0 0,0 0,0 c 0,0 0,0 0,0 0,0 0,0 0,0 0,0 0,0 0,0 0,0 0,0 0,0 0,0 0,0 0,0 v 0 c 0,0 0,0 0,0 0,0 0,0 0,0 0,0 0,0 0,0 0,0 0,0 0,0 0,0 0,0 0,0 0,0 0,0 0,0 0,0 0,0 0,0 v 0 c 0,0 0,0 0,0 0,0 0,0 0,0 0,0 0,0 0,0 0,0 0,0 0,0 0,0 0,0 0,0 0,0 0,0 0,0 0,0 0,0 0,0 0,0 0,0 0,0 l 0,0 c 0,0 0,0 0,0 0,0 0,0 0,0 0,0 0,0 0,0 0,0 0,0 0,0 0,0 0,0 0,0 v 0 c 0,0 0,0 0,0 v 0 c 0,0 0,0 0,0 l 0,0 c 0,0 0,0 0,0 v 0 c 0,0 0,0 0,0 0,0 0,0 0,0 0,0 0,0 0,0 0,0 0,0 0,0 0,0 0,0 0,0 0,0 0,0 0,0 0,0 0,0 0,0 0,0 0,0 0,0 l 0,0 c 0,0 0,0 0,0 0,0 0,0 0,0 0,-0.7 -0.4,-1.2 -1,-1.2 0,0 0,0 0,0 l 0,0 z m -0.1,3.5 c -0.6,0 -1,0.4 -1,1 v 0.5 c 0,0.6 0.4,1 1,1 0.6,0 1,-0.4 1,-1 v -0.5 c 0,-0.5 -0.4,-1 -1,-1 l 0,0 z m 0,3.5 c -0.6,0 -1,0.4 -1,1 v 0.5 c 0,0.6 0.4,1 1,1 0.6,0 1,-0.4 1,-1 v -0.5 c 0,-0.5 -0.4,-1 -1,-1 l 0,0 z m 0,3.5 c -0.6,0 -1,0.4 -1,1 v 0.5 c 0,0.6 0.4,1 1,1 0.6,0 1,-0.4 1,-1 v -0.5 c 0,-0.5 -0.4,-1 -1,-1 l 0,0 z m 0,3.5 c -0.6,0 -1,0.4 -1,1 v 0.5 c 0,0.6 0.4,1 1,1 0.6,0 1,-0.4 1,-1 v -0.5 c 0,-0.5 -0.4,-1 -1,-1 l 0,0 z m 0,3.5 c -0.6,0 -1,0.4 -1,1 v 0.5 c 0,0.6 0.4,1 1,1 0.6,0 1,-0.4 1,-1 v -0.5 c 0,-0.5 -0.4,-1 -1,-1 l 0,0 z m 0,3.5 c -0.6,0 -1,0.4 -1,1 v 0.3 c 0,0.1 0,0.3 0,0.4 0,0.5 0.5,0.9 1,0.9 0,0 0.1,0 0.1,0 0.5,-0.1 1,-0.5 0.9,-1.1 0,0 0,-0.1 0,-0.1 v 0 c 0,0 0,0 0,0 l 0,0 c 0,0 0,0 0,0 v 0 c 0,0 0,0 0,0 v 0 c 0,0 0,0 0,0 v 0 c 0,0 0,0 0,0 l 0,0 c 0,0 0,0 0,0 v 0 c 0,0 0,0 0,0 l 0,0 c 0,0 0,0 0,0 0,0 0,0 0,0 0,0 0,0 0,0 0,0 0,0 0,0 0,0 0,0 0,0 0,0 0,0 0,0 0,0 0,0 0,0 v 0 c 0,0 0,0 0,0 0,0 0,0 0,0 0,0 0,0 0,0 0,0 0,0 0,0 0,0 0,0 0,0 v 0 c 0,0 0,0 0,0 0,0 0,0 0,0 0,0 0,0 0,0 l 0,0 v -0.3 c 0,-0.6 -0.4,-1.1 -1,-1.1 l 0,0 z m 2.9,3.5 c -0.5,0 -0.9,0.4 -1,0.9 -0.1,0.5 0.3,1 0.9,1.1 0.2,0 0.4,0 0.5,0 h 0.2 c 0.6,0 1,-0.4 1,-1 0,-0.6 -0.4,-1 -1,-1 h -0.2 c 0,0 0,0 0,0 h 0 c 0,0 0,0 0,0 l 0,0 c 0,0 0,0 0,0 0,0 0,0 0,0 0,0 0,0 0,0 0,0 0,0 0,0 0,0 0,0 0,0 h 0 c 0,0 0,0 0,0 0,0 0,0 0,0 0,0 0,0 0,0 h 0 c 0,0 0,0 0,0 l 0,0 c 0,0 0,0 0,0 0,0 0,0 0,0 0,0 0,0 0,0 0,0 0,0 0,0 0,0 0,0 0,0 l 0,0 c 0,0 0,0 0,0 0,0 0,0 0,0 0,0 0,0 0,0 0,0 0,0 0,0 0,0 0,0 0,0 l 0,0 c 0,0 0,0 0,0 l 0,0 c 0,0 0,0 0,0 0,0 0,0 0,0 0,0 0,0 0,0 0,0 0,0 0,0 0,0 0,0 0,0 l 0,0 c 0,0 0,0 0,0 0,0 0,0 0,0 0,0 0,0 0,0 0,0 0,0 0,0 0,0 0,0 0,0 0,0 0,0 0,0 0,0 0,0 0,0 0,0 0,0 0,0 0,0 0,0 0,0 0,0 0,0 0,0 0,0 0,0 0,0 0,0 0,0 0,0 0,0 0,0 0,0 0,0 0,0 0,0 0,0 0,0 0,0 0,0 0,0 0,0 0,0 0,0 0,0 0,0 0,0 0,0 0,0 0,0 0,0 0,0 0,0 0,0 0,0 0,0 0,0 0,0 0,0 0,0 l 0,0 c 0,0 0,0 0,0 0,0 0,0 0,0 0,0 0,0 0,0 l 0,0 c 0,0 0,0 0,0 h 0 c 0,0 0,0 0,0 0,0 0,0 0,0 0,0 -0.1,0 -0.1,0 -0.3,0 -0.3,0 -0.3,0 l 0,0 z m 4.1,0.1 h -0.5 c -0.6,0 -1,0.4 -1,1 0,0.6 0.4,1 1,1 h 0.5 c 0.6,0 1,-0.4 1,-1 0,-0.6 -0.5,-1 -1,-1 l 0,0 z m 3.5,0 h -0.5 c -0.6,0 -1,0.4 -1,1 0,0.6 0.4,1 1,1 h 0.5 c 0.6,0 1,-0.4 1,-1 0,-0.6 -0.5,-1 -1,-1 l 0,0 z m 3.5,0 h -0.5 c -0.6,0 -1,0.4 -1,1 0,0.6 0.4,1 1,1 h 0.5 c 0.6,0 1,-0.4 1,-1 0,-0.6 -0.5,-1 -1,-1 l 0,0 z m 3.5,0 h -0.5 c -0.6,0 -1,0.4 -1,1 0,0.6 0.4,1 1,1 h 0.5 c 0.6,0 1,-0.4 1,-1 0,-0.6 -0.5,-1 -1,-1 l 0,0 z m 3.5,0 h -0.5 c -0.6,0 -1,0.4 -1,1 0,0.6 0.4,1 1,1 h 0.5 c 0.6,0 1,-0.4 1,-1 0,-0.6 -0.5,-1 -1,-1 l 0,0 z m 3.5,0 c 0,0 0,0 0,0 0,0 0,0 0,0 0,0 0,0 0,0 l 0,0 c 0,0 0,0 0,0 l 0,0 c -0.1,0 -0.1,0 0,0 l 0,0 c -0.1,0 -0.1,0 0,0 l 0,0 c -0.1,0 -0.1,0 0,0 -0.1,0 -0.1,0 0,0 -0.1,0 -0.1,0 0,0 l 0,0 c -0.1,0 -0.1,0 0,0 l 0,0 c -0.1,0 -0.1,0 0,0 l -0.5,0 c -0.6,0 -1,0.4 -1,1 0,0.6 0.4,1 1,1 h 0.4 l 0.1,0 c 0.6,0 1,-0.5 1,-1 0,-0.6 -0.5,-1 -1,-1 l 0,0 z m 3.1,-3.3 c -0.6,0 -1,0.4 -1,1 v 0.1 l 0,0 0,0 0,0 c 0,0 0,0 0,0 0,0 0,0 0,0 0,0 0,0 0,0 v 0 c 0,0 0,0 0,0 0,0 0,0 0,0 0,0 0,0 0,0 l 0,0 c 0,0 0,0 0,0 0,0 0,0 0,0 0,0 0,0 0,0 l 0,0 c 0,0 0,0 0,0 0,0 0,0 0,0 0,0 0,0 0,0 0,0 0,0 0,0 0,0 0,0 0,0 l 0,0 c 0,0 0,0 0,0 0,0 0,0 0,0 l 0,0 c 0,0 0,0 0,0 0,0 0,0 0,0 0,0 0,0 0,0 0,0 0,0 0,0 l 0,0 c 0,0 0,0 0,0 0,0 0,0 0,0 0,0 0,0 0,0 l 0,0 c 0,0 0,0 0,0 0,0 0,0 0,0 0,0 0,0 0,0 l 0,0 c 0,0 0,0 0,0 0,0 0,0 0,0 l 0,0 c 0,0 0,0 0,0 0,0 0,0 0,0 0,0 0,0 0,0 l 0,0 c 0,0 0,0 0,0 0,0 0,0 0,0 0,0 0,0 0,0 l 0,0 c 0,0 0,0 0,0 0,0 0,0 0,0 0,0 0,0 0,0 v 0 c 0,0 0,0 0,0 0,0 0,0 0,0 0,0 0,0 0,0 0,0 0,0 0,0 0,0 0,0 0,0 l 0,0 c 0,0 0,0 0,0 0,0 0,0 0,0 0,0 0,0 0,0 l 0,0 c 0,0 0,0 0,0 0,0 0,0 0,0 0,0 0,0 0,0 l 0,0 c 0,0 0,0 0,0 l 0,0 c 0,0 0,0 0,0 l 0,0 c 0,0 0,0 0,0 0,0 0,0 0,0 0,0 0,0 0,0 l 0,0 c 0,0 0,0 0,0 0,0 0,0 0,0 0,0 0,0 0,0 0,0 0,0 0,0 0,0 0,0 0,0 0,0 0,0 0,0 0,0 0,0 0,0 l 0,0 c 0,0 0,0 0,0 l 0,0 c 0,0 0,0 0,0 l 0,0 c 0,0 0,0 0,0 v 0 c 0,0 0,0 0,0 l 0,0 c 0,0 0,0 0,0 v 0 c 0,0 0,0 0,0 v 0 c 0,0 0,0 0,0 l 0,0 c 0,0 0,0 0,0 0,0 0,0 0,0 0,0 0,0 0,0 l 0,0 c 0,0 0,0 0,0 l 0,0 c 0,0 0,0 0,0 0,0 0,0 0,0 0,0 0,0 0,0 v 0 c 0,0 0,0 0,0 0,0 0,0 0,0 0,0 0,0 0,0 v 0 c 0,0 0,0 0,0 l 0,0 c 0,0 0,0 0,0 0,0 0,0 0,0 0,0 0,0 0,0 l 0,0 c 0,0 0,0 0,0 l 0,0 c 0,0 0,0 0,0 0,0 0,0 0,0 0,0 0,0 0,0 l 0,0 c 0,0 0,0 0,0 l 0,0 c 0,0 0,0 0,0 l 0,0 c 0,0 0,0 0,0 l 0,0 c 0,0 0,0 0,0 0,0 0,0 0,0 0,0 0,0 0,0 l 0,0 c 0,0 0,0 0,0 0,0 0,0 0,0 l 0,0 c 0,0 0,0 0,0 0,0 0,0 0,0 0,0 0,0 0,0 l 0,0 c 0,0 0,0 0,0 0,0 0,0 0,0 0,0 0,0 0,0 0,0 0,0 0,0 0,0 0,0 0,0 l 0,0 c 0,0 0,0 0,0 l 0,0 c 0,0 0,0 0,0 0,0 0,0 0,0 0,0 0,0.1 0,0.1 -0.1,0.5 0.2,1.1 0.8,1.2 0.1,0 0.1,0 0.2,0 0.5,0 0.9,-0.3 1,-0.8 0.1,-0.3 0.1,-0.5 0.1,-0.8 v -0.1 c -0.1,-0.3 -0.5,-0.7 -1.1,-0.7 l 0,0 z m 0,-3.5 c -0.6,0 -1,0.4 -1,1 v 0.5 c 0,0.6 0.4,1 1,1 0.6,0 1,-0.4 1,-1 v -0.5 c 0,-0.6 -0.4,-1 -1,-1 l 0,0 z m 0,-3.5 c -0.6,0 -1,0.4 -1,1 v 0.5 c 0,0.6 0.4,1 1,1 0.6,0 1,-0.4 1,-1 v -0.5 c 0,-0.6 -0.4,-1 -1,-1 l 0,0 z m 0,-3.5 c -0.6,0 -1,0.4 -1,1 v 0.5 c 0,0.6 0.4,1 1,1 0.6,0 1,-0.4 1,-1 v -0.5 c 0,-0.6 -0.4,-1 -1,-1 l 0,0 z m 0,-3.5 c -0.6,0 -1,0.4 -1,1 v 0.5 c 0,0.6 0.4,1 1,1 0.6,0 1,-0.4 1,-1 v -0.5 c 0,-0.6 -0.4,-1 -1,-1 l 0,0 z m 0,-3.5 c -0.6,0 -1,0.4 -1,1 v 0.5 c 0,0.6 0.4,1 1,1 0.6,0 1,-0.4 1,-1 v -0.5 c 0,-0.6 -0.4,-1 -1,-1 l 0,0 z m 0,-3.5 c -0.6,0 -1,0.4 -1,1 v 0.5 c 0,0.6 0.4,1 1,1 0.6,0 1,-0.4 1,-1 v -0.5 c 0,-0.6 -0.4,-1 -1,-1 l 0,0 z"
   id="path3083"
   inkscape:connector-curvature="0"
   style="fill:#75b640" />
	</g>
</g>
<g
   id="g3085"
   transform="translate(-30,-30)">
	<path
   d="m 87.7,151.8 c 0.6,-0.1 1.4,-0.2 2.6,-0.2 1.2,0 2.1,0.2 2.6,0.7 0.6,0.4 0.9,1.2 0.9,2 0,0.8 -0.3,1.6 -0.8,2 -0.7,0.6 -1.7,0.9 -2.8,0.9 -0.3,0 -0.5,0 -0.7,0 v 3.1 h -1.9 v -8.5 z m 2,4 c 0.2,0 0.4,0.1 0.7,0.1 1,0 1.7,-0.5 1.7,-1.4 0,-0.8 -0.6,-1.3 -1.5,-1.3 -0.4,0 -0.7,0 -0.8,0.1 v 2.5 z"
   id="path3087"
   inkscape:connector-curvature="0"
   style="fill:#d5d8d2" />
	<path
   d="m 97.3,153.8 0,0 -1.6,0.8 -0.3,-1.5 2.2,-1 h 1.6 v 8.3 h -1.9 v -6.6 z"
   id="path3089"
   inkscape:connector-curvature="0"
   style="fill:#d5d8d2" />
</g>
<g
   id="g3091"
   transform="translate(-30,-30)">
	<path
   d="m 160,194.9 c -0.5,0 -0.9,-0.4 -0.9,-0.9 V 63.8 c 0,-1.4 1.1,-2.5 2.5,-2.5 h 81.7 c 1.4,0 2.5,1.1 2.5,2.5 V 194 c 0,0.5 -0.4,0.9 -0.9,0.9 H 160 z"
   id="path3093"
   inkscape:connector-curvature="0"
   style="fill:#ffffff" />
	<path
   d="m 243.3,62.2 c 0.9,0 1.7,0.8 1.7,1.7 V 194 c 0,0.1 -0.1,0.1 -0.1,0.1 H 160 c -0.1,0 -0.1,-0.1 -0.1,-0.1 V 63.8 c 0,-0.9 0.8,-1.7 1.7,-1.7 h 81.7 m 0,-1.5 h -81.7 c -1.8,0 -3.3,1.5 -3.3,3.3 V 194 c 0,1 0.8,1.7 1.7,1.7 h 84.8 c 1,0 1.7,-0.8 1.7,-1.7 V 63.8 c 0.1,-1.8 -1.4,-3.2 -3.2,-3.2 l 0,0 z"
   id="path3095"
   inkscape:connector-curvature="0"
   style="fill:#75b640" />
</g>
<path
   d="M 128.3,41.9 V 23.3 c 0,-1.8 1.5,-3.3 3.3,-3.3 h 81.7 c 1.8,0 3.3,1.5 3.3,3.3 v 18.6 h -88.3 z"
   id="path3097"
   inkscape:connector-curvature="0"
   style="fill:#75b640" />
<g
   id="g3099"
   transform="translate(-30,-30)">
	<path
   d="m 181.6,65.8 v -8.6 h 2.3 l 1.8,3.2 c 0.5,0.9 1,2 1.4,3 h 0 c -0.1,-1.1 -0.2,-2.3 -0.2,-3.6 v -2.5 h 1.8 v 8.6 h -2 l -1.8,-3.3 c -0.5,-0.9 -1.1,-2 -1.5,-3 l 0,0 c 0.1,1.1 0.1,2.4 0.1,3.8 V 66 h -1.9 z"
   id="path3101"
   inkscape:connector-curvature="0"
   style="fill:#ffffff" />
	<path
   d="m 198.3,61.4 c 0,2.8 -1.7,4.5 -4.2,4.5 -2.6,0 -4.1,-1.9 -4.1,-4.4 0,-2.6 1.7,-4.5 4.2,-4.5 2.7,0 4.1,2 4.1,4.4 z m -6.2,0.1 c 0,1.7 0.8,2.9 2.1,2.9 1.3,0 2.1,-1.3 2.1,-2.9 0,-1.5 -0.7,-2.9 -2.1,-2.9 -1.4,-0.1 -2.1,1.2 -2.1,2.9 z"
   id="path3103"
   inkscape:connector-curvature="0"
   style="fill:#ffffff" />
	<path
   d="m 199.6,57.3 c 0.7,-0.1 1.7,-0.2 2.6,-0.2 1.6,0 2.7,0.3 3.5,0.9 0.9,0.7 1.5,1.7 1.5,3.3 0,1.7 -0.6,2.8 -1.4,3.5 -0.9,0.8 -2.3,1.1 -4,1.1 -1,0 -1.7,-0.1 -2.2,-0.1 v -8.5 z m 1.9,7 c 0.2,0 0.4,0 0.7,0 1.8,0 2.9,-1 2.9,-3 0,-1.8 -1,-2.7 -2.7,-2.7 -0.4,0 -0.7,0 -0.9,0.1 v 5.6 z"
   id="path3105"
   inkscape:connector-curvature="0"
   style="fill:#ffffff" />
	<path
   d="m 213.6,62.1 h -3.2 v 2 h 3.5 v 1.6 h -5.5 v -8.6 h 5.3 v 1.6 h -3.4 v 1.8 h 3.2 v 1.6 z"
   id="path3107"
   inkscape:connector-curvature="0"
   style="fill:#ffffff" />
	<path
   d="m 217.6,65.8 v -1.2 l 1.1,-1 c 1.8,-1.6 2.7,-2.6 2.7,-3.5 0,-0.7 -0.4,-1.2 -1.4,-1.2 -0.7,0 -1.3,0.4 -1.8,0.7 l -0.6,-1.4 c 0.6,-0.5 1.6,-0.9 2.7,-0.9 1.9,0 2.9,1.1 2.9,2.6 0,1.4 -1,2.5 -2.2,3.6 l -0.8,0.6 v 0 h 3.1 v 1.6 h -5.7 z"
   id="path3109"
   inkscape:connector-curvature="0"
   style="fill:#ffffff" />
</g>
<g
   id="g3111"
   transform="translate(-30,-30)">
	<path
   d="m 191.9,171.4 c -2.3,0 -4.2,-1.9 -4.2,-4.2 V 146 c 0,-2.3 1.9,-4.2 4.2,-4.2 H 213 c 2.3,0 4.2,1.9 4.2,4.2 v 21.1 c 0,2.3 -1.9,4.2 -4.2,4.2 h -21.1 z"
   id="path3113"
   inkscape:connector-curvature="0"
   style="fill:#ffffff" />
	<g
   id="g3115">
		<path
   d="m 213,143.8 c 1.2,0 2.2,1 2.2,2.2 v 21.1 c 0,1.2 -1,2.2 -2.2,2.2 h -21.1 c -1.2,0 -2.2,-1 -2.2,-2.2 V 146 c 0,-1.2 1,-2.2 2.2,-2.2 H 213 m 0,-4 h -21.1 c -3.4,0 -6.2,2.8 -6.2,6.2 v 21.1 c 0,3.4 2.8,6.2 6.2,6.2 H 213 c 3.4,0 6.2,-2.8 6.2,-6.2 V 146 c 0,-3.5 -2.7,-6.2 -6.2,-6.2 l 0,0 z"
   id="path3117"
   inkscape:connector-curvature="0"
   style="fill:#75b640" />
	</g>
</g>
<g
   id="g3119"
   transform="translate(-30,-30)">
	<path
   d="m 196,151.8 c 0.6,-0.1 1.4,-0.2 2.6,-0.2 1.2,0 2.1,0.2 2.6,0.7 0.6,0.4 0.9,1.2 0.9,2 0,0.8 -0.3,1.6 -0.8,2 -0.7,0.6 -1.7,0.9 -2.8,0.9 -0.3,0 -0.5,0 -0.7,0 v 3.1 H 196 v -8.5 z m 2,4 c 0.2,0 0.4,0.1 0.7,0.1 1,0 1.7,-0.5 1.7,-1.4 0,-0.8 -0.6,-1.3 -1.5,-1.3 -0.4,0 -0.7,0 -0.8,0.1 v 2.5 z"
   id="path3121"
   inkscape:connector-curvature="0"
   style="fill:#454746" />
	<path
   d="m 205.6,153.8 0,0 -1.6,0.8 -0.3,-1.5 2.2,-1 h 1.6 v 8.3 h -1.9 v -6.6 z"
   id="path3123"
   inkscape:connector-curvature="0"
   style="fill:#454746" />
</g>
<g
   id="g3125"
   transform="translate(-30,-30)">
	<g
   id="g3127">
		<path
   stroke-miterlimit="10"
   d="m 116.9,156.6 c 0,0 8.1,0.2 55,0.2"
   id="path3129"
   inkscape:connector-curvature="0"
   style="fill:none;stroke:#454746;stroke-width:1.60000002;stroke-linecap:round;stroke-miterlimit:10" />
		<g
   id="g3131">
			<path
   d="m 179.6,156.8 c -3.6,1.3 -8.2,3.6 -11,6 l 2.2,-6.1 -2.2,-6.1 c 2.9,2.5 7.4,4.8 11,6.2 z"
   id="path3133"
   inkscape:connector-curvature="0"
   style="fill:#454746" />
		</g>
	</g>
</g>
</svg>