<?xml version="1.0" encoding="utf-8"?>
<!-- Generator: Adobe Illustrator 18.0.0, SVG Export Plug-In . SVG Version: 6.00 Build 0)  -->
<!DOCTYPE svg PUBLIC "-//W3C//DTD SVG 1.1//EN" "http://www.w3.org/Graphics/SVG/1.1/DTD/svg11.dtd">
<svg version="1.1" id="graphs" xmlns="http://www.w3.org/2000/svg" xmlns:xlink="http://www.w3.org/1999/xlink" x="0px" y="0px"
	 viewBox="0 0 900 600" enable-background="new 0 0 900 600" xml:space="preserve">
<path fill="#F8FAF6" d="M694.7,471.6H171.5c-1.3,0-2.4-1.1-2.4-2.4V161.7c0-1.3,1.1-2.4,2.4-2.4h523.2c1.3,0,2.4,1.1,2.4,2.4v307.5
	C697.1,470.5,696,471.6,694.7,471.6z"/>
<g>
	<line fill="none" stroke="#D6D6D6" stroke-miterlimit="10" x1="173.1" y1="163.3" x2="693.1" y2="163.3"/>
	<line fill="none" stroke="#D6D6D6" stroke-miterlimit="10" x1="173.1" y1="264.7" x2="693.1" y2="264.7"/>
	<line fill="none" stroke="#D6D6D6" stroke-miterlimit="10" x1="173.1" y1="366" x2="693.1" y2="366"/>
	<line fill="none" stroke="#D6D6D6" stroke-miterlimit="10" x1="173.1" y1="467.3" x2="693.1" y2="467.3"/>
</g>
<line fill="none" stroke="#454746" stroke-miterlimit="10" x1="173.1" y1="467.3" x2="693.1" y2="467.3"/>
<g>
	<path fill="#454746" d="M360.9,141.2c-0.6,0.3-1.8,0.6-3.3,0.6c-4.1,0-6.6-2.6-6.6-6.5c0-4.3,3-6.8,6.9-6.8c1.6,0,2.7,0.3,3.1,0.6
		l-0.5,1.9c-0.6-0.3-1.5-0.5-2.5-0.5c-2.6,0-4.5,1.7-4.5,4.8c0,2.8,1.7,4.7,4.5,4.7c1,0,2-0.2,2.6-0.5L360.9,141.2z"/>
	<path fill="#454746" d="M367.9,141.6l-0.2-1h-0.1c-0.6,0.7-1.6,1.2-2.8,1.2c-1.9,0-2.9-1.4-2.9-2.8c0-2.4,2.1-3.6,5.5-3.5v-0.2
		c0-0.6-0.2-1.6-1.9-1.6c-0.9,0-1.9,0.3-2.5,0.7l-0.5-1.5c0.7-0.4,1.9-0.8,3.4-0.8c3,0,3.9,1.9,3.9,3.9v3.4c0,0.8,0,1.7,0.1,2.2
		H367.9z M367.6,137c-1.7,0-3.3,0.3-3.3,1.7c0,0.9,0.6,1.3,1.3,1.3c0.9,0,1.6-0.6,1.8-1.3c0.1-0.2,0.1-0.4,0.1-0.5V137z"/>
	<path fill="#454746" d="M372.4,135.3c0-1.3,0-2.2-0.1-3h2.1l0.1,1.8h0.1c0.5-1.3,1.6-2,2.6-2c0.2,0,0.4,0,0.6,0.1v2.2
		c-0.2,0-0.4-0.1-0.7-0.1c-1.1,0-1.9,0.7-2.1,1.8c0,0.2-0.1,0.5-0.1,0.7v4.8h-2.4V135.3z"/>
	<path fill="#454746" d="M379.1,139.4c0.5,0.3,1.6,0.7,2.4,0.7c1,0,1.5-0.4,1.5-1c0-0.6-0.4-1-1.5-1.4c-1.8-0.6-2.6-1.6-2.6-2.7
		c0-1.7,1.4-2.9,3.5-2.9c1,0,1.9,0.3,2.5,0.6l-0.5,1.7c-0.4-0.2-1.2-0.5-2-0.5c-0.8,0-1.3,0.4-1.3,1c0,0.6,0.4,0.9,1.6,1.3
		c1.7,0.6,2.5,1.5,2.5,2.9c0,1.7-1.3,2.9-3.8,2.9c-1.1,0-2.2-0.3-2.8-0.7L379.1,139.4z"/>
	<path fill="#454746" d="M391.3,139c0.8,0.4,1.9,0.8,3.1,0.8c1.5,0,2.4-0.7,2.4-1.8c0-1-0.7-1.6-2.3-2.1c-2.1-0.8-3.5-1.9-3.5-3.8
		c0-2.1,1.8-3.7,4.6-3.7c1.4,0,2.4,0.3,3.1,0.7l-0.6,1.9c-0.5-0.2-1.4-0.6-2.6-0.6c-1.5,0-2.2,0.8-2.2,1.6c0,1,0.7,1.5,2.5,2.1
		c2.2,0.8,3.3,2,3.3,3.8c0,2.1-1.6,3.9-4.9,3.9c-1.4,0-2.8-0.4-3.5-0.8L391.3,139z"/>
	<path fill="#454746" d="M410.2,136.9c0,3.4-2.4,5-4.8,5c-2.6,0-4.7-1.8-4.7-4.8c0-3.1,2-5,4.8-5C408.3,132.1,410.2,134,410.2,136.9
		z M403.2,136.9c0,1.8,0.9,3.2,2.3,3.2c1.3,0,2.3-1.3,2.3-3.2c0-1.5-0.7-3.1-2.3-3.1C403.8,133.8,403.2,135.4,403.2,136.9z"/>
	<path fill="#454746" d="M412.2,128h2.4v13.6h-2.4V128z"/>
	<path fill="#454746" d="M425.7,128v11c0,1,0,2,0.1,2.6h-2.1l-0.1-1.5h0c-0.6,1-1.7,1.7-3.1,1.7c-2.2,0-4-1.9-4-4.8
		c0-3.1,1.9-5,4.2-5c1.3,0,2.2,0.5,2.6,1.2h0V128H425.7z M423.3,136.2c0-0.2,0-0.4-0.1-0.6c-0.2-0.9-1-1.7-2-1.7
		c-1.5,0-2.4,1.3-2.4,3.1c0,1.7,0.8,3,2.3,3c1,0,1.8-0.7,2-1.7c0.1-0.2,0.1-0.4,0.1-0.7V136.2z"/>
	<path fill="#454746" d="M441.1,136.9c0,3.4-2.4,5-4.8,5c-2.6,0-4.7-1.8-4.7-4.8c0-3.1,2-5,4.8-5C439.2,132.1,441.1,134,441.1,136.9
		z M434.1,136.9c0,1.8,0.9,3.2,2.3,3.2c1.3,0,2.3-1.3,2.3-3.2c0-1.5-0.7-3.1-2.3-3.1C434.7,133.8,434.1,135.4,434.1,136.9z"/>
	<path fill="#454746" d="M444.4,132.3l1.5,4.7c0.3,0.8,0.5,1.6,0.6,2.3h0.1c0.2-0.8,0.4-1.5,0.6-2.3l1.5-4.7h2.5l-3.6,9.3h-2.3
		l-3.5-9.3H444.4z"/>
	<path fill="#454746" d="M454.1,137.6c0.1,1.7,1.4,2.4,2.9,2.4c1.1,0,1.9-0.2,2.6-0.4l0.3,1.6c-0.8,0.3-1.9,0.6-3.3,0.6
		c-3,0-4.8-1.9-4.8-4.7c0-2.6,1.6-5,4.6-5c3,0,4,2.5,4,4.5c0,0.4,0,0.8-0.1,1H454.1z M458.2,136c0-0.9-0.4-2.3-1.9-2.3
		c-1.5,0-2.1,1.3-2.2,2.3H458.2z"/>
	<path fill="#454746" d="M462.3,135.3c0-1.3,0-2.2-0.1-3h2.1l0.1,1.8h0.1c0.5-1.3,1.6-2,2.6-2c0.2,0,0.4,0,0.6,0.1v2.2
		c-0.2,0-0.4-0.1-0.7-0.1c-1.1,0-1.9,0.7-2.1,1.8c0,0.2-0.1,0.5-0.1,0.7v4.8h-2.4V135.3z"/>
	<path fill="#454746" d="M474.9,130.7h-3.7v-2h9.8v2h-3.7v11h-2.4V130.7z"/>
	<path fill="#454746" d="M484.6,129.7c0,0.7-0.5,1.3-1.3,1.3c-0.8,0-1.3-0.6-1.3-1.3c0-0.7,0.5-1.3,1.3-1.3
		C484.1,128.4,484.6,128.9,484.6,129.7z M482.1,141.6v-9.3h2.4v9.3H482.1z"/>
	<path fill="#454746" d="M487,135c0-1.1,0-2-0.1-2.8h2l0.1,1.4h0.1c0.5-0.7,1.3-1.6,2.9-1.6c1.2,0,2.2,0.7,2.6,1.7h0
		c0.3-0.5,0.7-0.9,1.2-1.2c0.5-0.4,1.1-0.6,1.9-0.6c1.6,0,3.1,1.1,3.1,4.1v5.5h-2.3v-5.2c0-1.6-0.5-2.5-1.7-2.5
		c-0.8,0-1.4,0.6-1.7,1.2c-0.1,0.2-0.1,0.5-0.1,0.8v5.6h-2.3v-5.4c0-1.3-0.5-2.2-1.6-2.2c-0.9,0-1.5,0.7-1.7,1.3
		c-0.1,0.2-0.1,0.5-0.1,0.8v5.5H487V135z"/>
	<path fill="#454746" d="M504.9,137.6c0.1,1.7,1.4,2.4,2.9,2.4c1.1,0,1.9-0.2,2.6-0.4l0.3,1.6c-0.8,0.3-1.9,0.6-3.3,0.6
		c-3,0-4.8-1.9-4.8-4.7c0-2.6,1.6-5,4.6-5c3,0,4,2.5,4,4.5c0,0.4,0,0.8-0.1,1H504.9z M509.1,136c0-0.9-0.4-2.3-1.9-2.3
		c-1.5,0-2.1,1.3-2.2,2.3H509.1z"/>
</g>
<g>
	<line fill="none" stroke="#454746" stroke-miterlimit="10" x1="173.1" y1="163.3" x2="169.1" y2="163.3"/>
	<line fill="none" stroke="#454746" stroke-miterlimit="10" x1="173.1" y1="264.7" x2="169.1" y2="264.7"/>
	<line fill="none" stroke="#454746" stroke-miterlimit="10" x1="173.1" y1="366" x2="169.1" y2="366"/>
</g>
<line fill="none" stroke="#454746" stroke-miterlimit="10" x1="173.1" y1="467.3" x2="173.1" y2="471.6"/>
<line fill="none" stroke="#454746" stroke-miterlimit="10" x1="238.1" y1="467.3" x2="238.1" y2="471.6"/>
<line fill="none" stroke="#454746" stroke-miterlimit="10" x1="303.1" y1="467.3" x2="303.1" y2="471.6"/>
<line fill="none" stroke="#454746" stroke-miterlimit="10" x1="368.1" y1="467.3" x2="368.1" y2="471.6"/>
<line fill="none" stroke="#454746" stroke-miterlimit="10" x1="693.1" y1="467.3" x2="693.1" y2="471.6"/>
<g>
	<g>
		<path fill="#454746" d="M151.2,482.1L151.2,482.1l-1.5,0.8l-0.3-1.2l2-1h1.3v8.3h-1.5V482.1z"/>
		<path fill="#454746" d="M158.1,482.1L158.1,482.1l-1.5,0.8l-0.3-1.2l2-1h1.3v8.3h-1.5V482.1z"/>
		<path fill="#454746" d="M162,489.5l3.1-9.3h1.1l-3.1,9.3H162z"/>
		<path fill="#454746" d="M166.8,489v-1l1-0.9c2-1.8,2.9-2.8,2.9-3.9c0-0.7-0.4-1.4-1.5-1.4c-0.7,0-1.4,0.4-1.8,0.7l-0.5-1.1
			c0.6-0.5,1.5-0.9,2.6-0.9c1.8,0,2.7,1.2,2.7,2.5c0,1.5-1,2.6-2.5,4l-0.7,0.6v0h3.4v1.3H166.8z"/>
		<path fill="#454746" d="M173.6,489v-1l1-0.9c2-1.8,2.9-2.8,2.9-3.9c0-0.7-0.4-1.4-1.5-1.4c-0.7,0-1.4,0.4-1.8,0.7l-0.5-1.1
			c0.6-0.5,1.5-0.9,2.6-0.9c1.8,0,2.7,1.2,2.7,2.5c0,1.5-1,2.6-2.5,4l-0.7,0.6v0h3.4v1.3H173.6z"/>
		<path fill="#454746" d="M180,489.5l3.1-9.3h1.1l-3.1,9.3H180z"/>
		<path fill="#454746" d="M187.3,482.1L187.3,482.1l-1.5,0.8l-0.3-1.2l2-1h1.3v8.3h-1.5V482.1z"/>
		<path fill="#454746" d="M192,487.4c0.3,0.2,1.1,0.5,1.9,0.5c1.2,0,1.7-0.7,1.7-1.3c0-1-0.9-1.4-1.9-1.4h-0.7V484h0.7
			c0.7,0,1.7-0.3,1.7-1.2c0-0.6-0.4-1-1.3-1c-0.7,0-1.4,0.3-1.7,0.5l-0.4-1.1c0.5-0.3,1.4-0.6,2.4-0.6c1.7,0,2.6,0.9,2.6,2
			c0,0.9-0.5,1.6-1.5,1.9v0c1,0.2,1.8,0.9,1.8,2.1c0,1.4-1.2,2.5-3.2,2.5c-1,0-1.9-0.3-2.3-0.6L192,487.4z"/>
	</g>
</g>
<g>
	<g>
		<path fill="#454746" d="M219.6,482.1L219.6,482.1l-1.5,0.8l-0.3-1.2l2-1h1.3v8.3h-1.5V482.1z"/>
		<path fill="#454746" d="M223.6,489.5l3.1-9.3h1.1l-3.1,9.3H223.6z"/>
		<path fill="#454746" d="M230.8,482.1L230.8,482.1l-1.5,0.8l-0.3-1.2l2-1h1.3v8.3h-1.5V482.1z"/>
		<path fill="#454746" d="M237.7,482.1L237.7,482.1l-1.5,0.8l-0.3-1.2l2-1h1.3v8.3h-1.5V482.1z"/>
		<path fill="#454746" d="M241.6,489.5l3.1-9.3h1.1l-3.1,9.3H241.6z"/>
		<path fill="#454746" d="M248.8,482.1L248.8,482.1l-1.5,0.8l-0.3-1.2l2-1h1.3v8.3h-1.5V482.1z"/>
		<path fill="#454746" d="M256.7,489v-2.1h-3.8v-1l3.4-5.2h1.9v5h1.1v1.2h-1.1v2.1H256.7z M256.7,485.7v-2.3c0-0.5,0-1,0.1-1.4h-0.1
			c-0.3,0.5-0.5,0.9-0.7,1.4l-1.5,2.3l0,0H256.7z"/>
	</g>
</g>
<g>
	<g>
		<path fill="#454746" d="M285.9,487.4c0.3,0.2,1.1,0.5,1.9,0.5c1.2,0,1.7-0.7,1.7-1.3c0-1-0.9-1.4-1.9-1.4h-0.7V484h0.7
			c0.7,0,1.7-0.3,1.7-1.2c0-0.6-0.4-1-1.3-1c-0.7,0-1.4,0.3-1.7,0.5l-0.4-1.1c0.5-0.3,1.4-0.6,2.4-0.6c1.7,0,2.6,0.9,2.6,2
			c0,0.9-0.5,1.6-1.5,1.9v0c1,0.2,1.8,0.9,1.8,2.1c0,1.4-1.2,2.5-3.2,2.5c-1,0-1.9-0.3-2.3-0.6L285.9,487.4z"/>
		<path fill="#454746" d="M292,489.5l3.1-9.3h1.1l-3.1,9.3H292z"/>
		<path fill="#454746" d="M296.8,489v-1l1-0.9c2-1.8,2.9-2.8,2.9-3.9c0-0.7-0.4-1.4-1.5-1.4c-0.7,0-1.4,0.4-1.8,0.7l-0.5-1.1
			c0.6-0.5,1.5-0.9,2.6-0.9c1.8,0,2.7,1.2,2.7,2.5c0,1.5-1,2.6-2.5,4l-0.7,0.6v0h3.4v1.3H296.8z"/>
		<path fill="#454746" d="M303.2,489.5l3.1-9.3h1.1l-3.1,9.3H303.2z"/>
		<path fill="#454746" d="M310.4,482.1L310.4,482.1l-1.5,0.8l-0.3-1.2l2-1h1.3v8.3h-1.5V482.1z"/>
		<path fill="#454746" d="M318.3,489v-2.1h-3.8v-1l3.4-5.2h1.9v5h1.1v1.2h-1.1v2.1H318.3z M318.3,485.7v-2.3c0-0.5,0-1,0.1-1.4h-0.1
			c-0.3,0.5-0.5,0.9-0.7,1.4l-1.5,2.3l0,0H318.3z"/>
	</g>
</g>
<g>
	<g>
		<path fill="#454746" d="M350.6,489v-2.1h-3.8v-1l3.4-5.2h1.9v5h1.1v1.2h-1.1v2.1H350.6z M350.6,485.7v-2.3c0-0.5,0-1,0.1-1.4h-0.1
			c-0.3,0.5-0.5,0.9-0.7,1.4l-1.5,2.3l0,0H350.6z"/>
		<path fill="#454746" d="M353.6,489.5l3.1-9.3h1.1l-3.1,9.3H353.6z"/>
		<path fill="#454746" d="M358.3,489v-1l1-0.9c2-1.8,2.9-2.8,2.9-3.9c0-0.7-0.4-1.4-1.5-1.4c-0.7,0-1.4,0.4-1.8,0.7l-0.5-1.1
			c0.6-0.5,1.5-0.9,2.6-0.9c1.8,0,2.7,1.2,2.7,2.5c0,1.5-1,2.6-2.5,4l-0.7,0.6v0h3.4v1.3H358.3z"/>
		<path fill="#454746" d="M367.7,482.1L367.7,482.1l-1.5,0.8l-0.3-1.2l2-1h1.3v8.3h-1.5V482.1z"/>
		<path fill="#454746" d="M371.6,489.5l3.1-9.3h1.1l-3.1,9.3H371.6z"/>
		<path fill="#454746" d="M378.8,482.1L378.8,482.1l-1.5,0.8l-0.3-1.2l2-1h1.3v8.3h-1.5V482.1z"/>
		<path fill="#454746" d="M386.7,489v-2.1h-3.8v-1l3.4-5.2h1.9v5h1.1v1.2h-1.1v2.1H386.7z M386.7,485.7v-2.3c0-0.5,0-1,0.1-1.4h-0.1
			c-0.3,0.5-0.5,0.9-0.7,1.4l-1.5,2.3l0,0H386.7z"/>
	</g>
</g>
<g>
	<g>
		<path fill="#454746" d="M417.2,481.8c-0.2,0-0.5,0-0.8,0c-1.7,0.2-2.6,1.3-2.8,2.4h0c0.4-0.5,1-0.8,1.9-0.8c1.4,0,2.5,1,2.5,2.7
			c0,1.6-1.2,3-2.9,3c-2,0-3.1-1.5-3.1-3.6c0-1.6,0.6-2.9,1.4-3.7c0.8-0.7,1.8-1.1,3-1.2c0.3,0,0.6,0,0.8,0L417.2,481.8z
			 M416.5,486.3c0-1-0.5-1.7-1.4-1.7c-0.6,0-1.1,0.4-1.4,0.9c-0.1,0.1-0.1,0.3-0.1,0.5c0,1.1,0.6,2,1.6,2
			C416,488,416.5,487.3,416.5,486.3z"/>
		<path fill="#454746" d="M418.6,489.5l3.1-9.3h1.1l-3.1,9.3H418.6z"/>
		<path fill="#454746" d="M425.8,482.1L425.8,482.1l-1.5,0.8l-0.3-1.2l2-1h1.3v8.3h-1.5V482.1z"/>
		<path fill="#454746" d="M436.1,484.8c0,2.7-1,4.4-3,4.4c-1.9,0-2.9-1.7-3-4.3c0-2.6,1.1-4.3,3-4.3
			C435.1,480.5,436.1,482.3,436.1,484.8z M431.7,484.9c0,2,0.6,3.1,1.4,3.1c0.9,0,1.4-1.1,1.4-3.1c0-1.9-0.5-3.1-1.4-3.1
			C432.2,481.7,431.7,482.8,431.7,484.9z"/>
		<path fill="#454746" d="M436.6,489.5l3.1-9.3h1.1l-3.1,9.3H436.6z"/>
		<path fill="#454746" d="M443.8,482.1L443.8,482.1l-1.5,0.8l-0.3-1.2l2-1h1.3v8.3h-1.5V482.1z"/>
		<path fill="#454746" d="M451.7,489v-2.1h-3.8v-1l3.4-5.2h1.9v5h1.1v1.2h-1.1v2.1H451.7z M451.7,485.7v-2.3c0-0.5,0-1,0.1-1.4h-0.1
			c-0.3,0.5-0.5,0.9-0.7,1.4l-1.5,2.3l0,0H451.7z"/>
	</g>
</g>
<g>
	<g>
		<path fill="#454746" d="M482.9,480.7v1l-3.5,7.3h-1.7l3.5-7v0h-3.9v-1.3H482.9z"/>
		<path fill="#454746" d="M483.6,489.5l3.1-9.3h1.1l-3.1,9.3H483.6z"/>
		<path fill="#454746" d="M488.7,487.4c0.3,0.2,1.1,0.5,1.9,0.5c1.2,0,1.7-0.7,1.7-1.3c0-1-0.9-1.4-1.9-1.4h-0.7V484h0.7
			c0.7,0,1.7-0.3,1.7-1.2c0-0.6-0.4-1-1.3-1c-0.7,0-1.4,0.3-1.7,0.5l-0.4-1.1c0.5-0.3,1.4-0.6,2.4-0.6c1.7,0,2.6,0.9,2.6,2
			c0,0.9-0.5,1.6-1.5,1.9v0c1,0.2,1.8,0.9,1.8,2.1c0,1.4-1.2,2.5-3.2,2.5c-1,0-1.9-0.3-2.3-0.6L488.7,487.4z"/>
		<path fill="#454746" d="M501.1,484.8c0,2.7-1,4.4-3,4.4c-1.9,0-2.9-1.7-3-4.3c0-2.6,1.1-4.3,3-4.3
			C500.1,480.5,501.1,482.3,501.1,484.8z M496.7,484.9c0,2,0.6,3.1,1.4,3.1c0.9,0,1.4-1.1,1.4-3.1c0-1.9-0.5-3.1-1.4-3.1
			C497.2,481.7,496.7,482.8,496.7,484.9z"/>
		<path fill="#454746" d="M501.6,489.5l3.1-9.3h1.1l-3.1,9.3H501.6z"/>
		<path fill="#454746" d="M508.8,482.1L508.8,482.1l-1.5,0.8l-0.3-1.2l2-1h1.3v8.3h-1.5V482.1z"/>
		<path fill="#454746" d="M516.7,489v-2.1h-3.8v-1l3.4-5.2h1.9v5h1.1v1.2h-1.1v2.1H516.7z M516.7,485.7v-2.3c0-0.5,0-1,0.1-1.4h-0.1
			c-0.3,0.5-0.5,0.9-0.7,1.4l-1.5,2.3l0,0H516.7z"/>
	</g>
</g>
<g>
	<g>
		<path fill="#454746" d="M542.8,487.9c0.2,0,0.5,0,0.9,0c0.6-0.1,1.2-0.3,1.7-0.6c0.5-0.4,0.9-1.1,1.1-1.8l0,0
			c-0.4,0.5-1,0.7-1.8,0.7c-1.4,0-2.5-1-2.5-2.6c0-1.6,1.2-3,3-3c1.9,0,3,1.5,3,3.5c0,1.8-0.6,3-1.4,3.9c-0.7,0.7-1.7,1.1-2.8,1.1
			c-0.4,0-0.7,0-0.9,0V487.9z M543.6,483.4c0,0.9,0.5,1.5,1.4,1.5c0.6,0,1.1-0.3,1.3-0.7c0.1-0.1,0.1-0.2,0.1-0.4
			c0-1.1-0.4-2.1-1.4-2.1C544.2,481.7,543.6,482.4,543.6,483.4z"/>
		<path fill="#454746" d="M548.6,489.5l3.1-9.3h1.1l-3.1,9.3H548.6z"/>
		<path fill="#454746" d="M555.8,482.1L555.8,482.1l-1.5,0.8l-0.3-1.2l2-1h1.3v8.3h-1.5V482.1z"/>
		<path fill="#454746" d="M560.1,486.9c0-1,0.6-1.7,1.6-2.2v0c-0.9-0.4-1.3-1.1-1.3-1.8c0-1.4,1.2-2.3,2.8-2.3
			c1.8,0,2.6,1.1,2.6,2.1c0,0.7-0.4,1.4-1.3,1.9v0c0.9,0.3,1.6,1.1,1.6,2.1c0,1.5-1.3,2.5-3,2.5C561.1,489.1,560.1,488,560.1,486.9z
			 M564.5,486.8c0-0.8-0.6-1.3-1.5-1.6c-0.8,0.2-1.2,0.8-1.2,1.5c0,0.7,0.5,1.3,1.4,1.3C563.9,488,564.5,487.5,564.5,486.8z
			 M561.9,482.7c0,0.7,0.6,1.1,1.4,1.3c0.6-0.2,1-0.6,1-1.3c0-0.6-0.3-1.2-1.2-1.2C562.3,481.6,561.9,482.1,561.9,482.7z"/>
		<path fill="#454746" d="M566.6,489.5l3.1-9.3h1.1l-3.1,9.3H566.6z"/>
		<path fill="#454746" d="M573.8,482.1L573.8,482.1l-1.5,0.8l-0.3-1.2l2-1h1.3v8.3h-1.5V482.1z"/>
		<path fill="#454746" d="M581.7,489v-2.1h-3.8v-1l3.4-5.2h1.9v5h1.1v1.2h-1.1v2.1H581.7z M581.7,485.7v-2.3c0-0.5,0-1,0.1-1.4h-0.1
			c-0.3,0.5-0.5,0.9-0.7,1.4l-1.5,2.3l0,0H581.7z"/>
	</g>
</g>
<g>
	<g>
		<path fill="#454746" d="M609.6,482.1L609.6,482.1l-1.5,0.8l-0.3-1.2l2-1h1.3v8.3h-1.5V482.1z"/>
		<path fill="#454746" d="M616.5,482.1L616.5,482.1l-1.5,0.8l-0.3-1.2l2-1h1.3v8.3h-1.5V482.1z"/>
		<path fill="#454746" d="M620.4,489.5l3.1-9.3h1.1l-3.1,9.3H620.4z"/>
		<path fill="#454746" d="M630.9,480.7v1l-3.5,7.3h-1.7l3.5-7v0h-3.9v-1.3H630.9z"/>
		<path fill="#454746" d="M631.6,489.5l3.1-9.3h1.1l-3.1,9.3H631.6z"/>
		<path fill="#454746" d="M638.8,482.1L638.8,482.1l-1.5,0.8l-0.3-1.2l2-1h1.3v8.3h-1.5V482.1z"/>
		<path fill="#454746" d="M646.7,489v-2.1h-3.8v-1l3.4-5.2h1.9v5h1.1v1.2h-1.1v2.1H646.7z M646.7,485.7v-2.3c0-0.5,0-1,0.1-1.4h-0.1
			c-0.3,0.5-0.5,0.9-0.7,1.4l-1.5,2.3l0,0H646.7z"/>
	</g>
</g>
<g>
	<g>
		<path fill="#454746" d="M671.2,482.1L671.2,482.1l-1.5,0.8l-0.3-1.2l2-1h1.3v8.3h-1.5V482.1z"/>
		<path fill="#454746" d="M675.6,489v-1l1-0.9c2-1.8,2.9-2.8,2.9-3.9c0-0.7-0.4-1.4-1.5-1.4c-0.7,0-1.4,0.4-1.8,0.7l-0.5-1.1
			c0.6-0.5,1.5-0.9,2.6-0.9c1.8,0,2.7,1.2,2.7,2.5c0,1.5-1,2.6-2.5,4l-0.7,0.6v0h3.4v1.3H675.6z"/>
		<path fill="#454746" d="M682,489.5l3.1-9.3h1.1l-3.1,9.3H682z"/>
		<path fill="#454746" d="M686.8,489v-1l1-0.9c2-1.8,2.9-2.8,2.9-3.9c0-0.7-0.4-1.4-1.5-1.4c-0.7,0-1.4,0.4-1.8,0.7l-0.5-1.1
			c0.6-0.5,1.5-0.9,2.6-0.9c1.8,0,2.7,1.2,2.7,2.5c0,1.5-1,2.6-2.5,4l-0.7,0.6v0h3.4v1.3H686.8z"/>
		<path fill="#454746" d="M699.3,480.7v1l-3.5,7.3h-1.7l3.5-7v0h-3.9v-1.3H699.3z"/>
		<path fill="#454746" d="M700,489.5l3.1-9.3h1.1l-3.1,9.3H700z"/>
		<path fill="#454746" d="M707.3,482.1L707.3,482.1l-1.5,0.8l-0.3-1.2l2-1h1.3v8.3h-1.5V482.1z"/>
		<path fill="#454746" d="M715.1,489v-2.1h-3.8v-1l3.4-5.2h1.9v5h1.1v1.2h-1.1v2.1H715.1z M715.1,485.7v-2.3c0-0.5,0-1,0.1-1.4h-0.1
			c-0.3,0.5-0.5,0.9-0.7,1.4l-1.5,2.3l0,0H715.1z"/>
	</g>
</g>
<g>
	<g>
		<g>
			<path fill="#454746" d="M155.7,363.1L155.7,363.1l-1.5,0.8l-0.3-1.2l2-1h1.3v8.3h-1.5V363.1z"/>
		</g>
	</g>
</g>
<g>
	<g>
		<g>
			<path fill="#454746" d="M158.2,468.4c0,2.7-1,4.4-3,4.4c-1.9,0-2.9-1.7-3-4.3c0-2.6,1.1-4.3,3-4.3
				C157.3,464.1,158.2,465.9,158.2,468.4z M153.8,468.5c0,2,0.6,3.1,1.4,3.1c0.9,0,1.4-1.1,1.4-3.1c0-1.9-0.5-3.1-1.4-3.1
				C154.4,465.3,153.8,466.4,153.8,468.5z"/>
		</g>
	</g>
</g>
<g>
	<g>
		<g>
			<path fill="#454746" d="M152.4,268.7v-1l1-0.9c2-1.8,2.9-2.8,2.9-3.9c0-0.7-0.4-1.4-1.5-1.4c-0.7,0-1.4,0.4-1.8,0.7l-0.5-1.1
				c0.6-0.5,1.5-0.9,2.6-0.9c1.8,0,2.7,1.2,2.7,2.5c0,1.5-1,2.6-2.5,4l-0.7,0.6v0h3.4v1.3H152.4z"/>
		</g>
	</g>
</g>
<g>
	<g>
		<g>
			<path fill="#454746" d="M152.7,166.4c0.3,0.2,1.1,0.5,1.9,0.5c1.2,0,1.7-0.7,1.7-1.3c0-1-0.9-1.4-1.9-1.4h-0.7V163h0.7
				c0.7,0,1.7-0.3,1.7-1.2c0-0.6-0.4-1-1.3-1c-0.7,0-1.4,0.3-1.7,0.5l-0.4-1.1c0.5-0.3,1.4-0.6,2.4-0.6c1.7,0,2.6,0.9,2.6,2
				c0,0.9-0.5,1.6-1.5,1.9v0c1,0.2,1.8,0.9,1.8,2.1c0,1.4-1.2,2.5-3.2,2.5c-1,0-1.9-0.3-2.3-0.6L152.7,166.4z"/>
		</g>
	</g>
</g>
<line fill="none" stroke="#454746" stroke-miterlimit="10" x1="173.1" y1="163.3" x2="173.1" y2="467.3"/>
<line fill="none" stroke="#454746" stroke-miterlimit="10" x1="628.1" y1="467.3" x2="628.1" y2="471.6"/>
<line fill="none" stroke="#454746" stroke-miterlimit="10" x1="563.1" y1="467.3" x2="563.1" y2="471.6"/>
<line fill="none" stroke="#454746" stroke-miterlimit="10" x1="498.1" y1="467.3" x2="498.1" y2="471.6"/>
<line fill="none" stroke="#454746" stroke-miterlimit="10" x1="433.1" y1="467.3" x2="433.1" y2="471.6"/>
<polyline fill="none" stroke="#75B640" stroke-width="4" stroke-linecap="round" stroke-linejoin="round" stroke-miterlimit="10" points="
	223.5,366 269.9,366 303.1,465.7 342.7,465.7 381.1,366 421.1,465.7 456.7,366 502.7,366 541.9,465.7 617.1,264.7 658.7,465.7 "/>
<circle fill="#75B640" cx="269.9" cy="366" r="4"/>
<circle fill="#75B640" cx="223.5" cy="366" r="4"/>
<circle fill="#75B640" cx="303.1" cy="465.7" r="4"/>
<circle fill="#75B640" cx="342.7" cy="465.7" r="4"/>
<circle fill="#75B640" cx="381.1" cy="366" r="4"/>
<circle fill="#75B640" cx="421.1" cy="465.7" r="4"/>
<circle fill="#75B640" cx="456.7" cy="366" r="4"/>
<circle fill="#75B640" cx="502.7" cy="366" r="4"/>
<circle fill="#75B640" cx="541.9" cy="465.7" r="4"/>
<circle fill="#75B640" cx="617.1" cy="264.7" r="4"/>
<circle fill="#75B640" cx="579.2" cy="366" r="4"/>
<circle fill="#75B640" cx="658.7" cy="465.7" r="4"/>
<g>
	<g>
		<path fill="#454746" d="M765.7,173.5c-0.4,0.2-1.3,0.4-2.4,0.4c-3,0-4.8-1.9-4.8-4.7c0-3.1,2.2-5,5-5c1.1,0,1.9,0.2,2.3,0.4
			l-0.4,1.4c-0.4-0.2-1.1-0.4-1.8-0.4c-1.9,0-3.3,1.2-3.3,3.5c0,2.1,1.2,3.4,3.3,3.4c0.7,0,1.4-0.1,1.9-0.4L765.7,173.5z"/>
		<path fill="#454746" d="M773.3,170.3c0,2.5-1.8,3.6-3.5,3.6c-1.9,0-3.4-1.3-3.4-3.5c0-2.2,1.5-3.6,3.5-3.6
			C772,166.8,773.3,168.2,773.3,170.3z M768.2,170.3c0,1.3,0.6,2.3,1.7,2.3c1,0,1.7-1,1.7-2.3c0-1.1-0.5-2.3-1.7-2.3
			C768.7,168,768.2,169.2,768.2,170.3z"/>
		<path fill="#454746" d="M780.9,171.7c0,0.8,0,1.5,0.1,2h-1.5l-0.1-1h0c-0.3,0.5-1,1.2-2.2,1.2c-1.2,0-2.4-0.7-2.4-3v-4h1.7v3.7
			c0,1.1,0.4,1.9,1.3,1.9c0.7,0,1.1-0.5,1.3-0.9c0.1-0.2,0.1-0.3,0.1-0.5v-4.1h1.7V171.7z"/>
		<path fill="#454746" d="M782.7,169c0-0.8,0-1.4-0.1-2h1.5l0.1,1h0c0.3-0.5,1-1.2,2.2-1.2c1.2,0,2.4,0.8,2.4,2.9v4h-1.7v-3.9
			c0-1-0.4-1.7-1.3-1.7c-0.7,0-1.2,0.5-1.3,1c-0.1,0.2-0.1,0.4-0.1,0.6v4h-1.7V169z"/>
		<path fill="#454746" d="M792.6,165v1.9h1.6v1.3h-1.6v3c0,0.8,0.2,1.3,0.9,1.3c0.3,0,0.5,0,0.7-0.1l0,1.3c-0.3,0.1-0.7,0.2-1.2,0.2
			c-0.6,0-1.2-0.2-1.5-0.6c-0.4-0.4-0.5-1-0.5-1.9v-3.2h-1v-1.3h1v-1.5L792.6,165z"/>
	</g>
	
		<line fill="none" stroke="#75B640" stroke-width="4" stroke-linecap="round" stroke-linejoin="round" stroke-miterlimit="10" x1="721.8" y1="168.7" x2="744.8" y2="168.7"/>
</g>
<circle fill="#75B640" cx="733.3" cy="168.8" r="4"/>
</svg>
