<?xml version="1.0" encoding="utf-8"?>
<!-- Generator: Adobe Illustrator 18.0.0, SVG Export Plug-In . SVG Version: 6.00 Build 0)  -->
<!DOCTYPE svg PUBLIC "-//W3C//DTD SVG 1.1//EN" "http://www.w3.org/Graphics/SVG/1.1/DTD/svg11.dtd">
<svg version="1.1" id="Layer_1" xmlns="http://www.w3.org/2000/svg" xmlns:xlink="http://www.w3.org/1999/xlink" x="0px" y="0px"
	 width="500px" height="200px" viewBox="0 0 500 200" enable-background="new 0 0 500 200" xml:space="preserve">
<path fill="#F8FAF6" d="M476.2,173.8H25c-2.7,0-4.8-2.1-4.8-4.8V31.8c0-2.7,2.1-4.8,4.8-4.8h451.2c2.7,0,4.8,2.1,4.8,4.8V169
	C481,171.7,478.8,173.8,476.2,173.8z"/>
<path fill="#E5EAE4" d="M20.2,59V31.8c0-2.7,2.1-4.8,4.8-4.8h451.2c2.7,0,4.8,2.1,4.8,4.8V59H20.2z"/>
<g>
	<g>
		<path fill="#454746" d="M55.1,38.6c0.7-0.1,1.5-0.2,2.6-0.2c1.3,0,2.3,0.3,2.9,0.9c0.6,0.5,0.9,1.3,0.9,2.2c0,1-0.3,1.7-0.8,2.2
			c-0.7,0.8-1.9,1.2-3.2,1.2c-0.4,0-0.8,0-1.1-0.1V49h-1.4V38.6z M56.4,43.7c0.3,0.1,0.7,0.1,1.1,0.1c1.6,0,2.6-0.8,2.6-2.2
			c0-1.4-1-2.1-2.5-2.1c-0.6,0-1,0-1.3,0.1V43.7z"/>
		<path fill="#454746" d="M69.8,45.2c0,2.8-1.9,4-3.8,4c-2,0-3.6-1.5-3.6-3.9c0-2.5,1.7-4,3.7-4C68.3,41.3,69.8,42.9,69.8,45.2z
			 M63.8,45.3c0,1.7,1,2.9,2.3,2.9c1.3,0,2.3-1.2,2.3-2.9c0-1.3-0.6-2.9-2.3-2.9C64.5,42.3,63.8,43.8,63.8,45.3z"/>
		<path fill="#454746" d="M71.5,43.9c0-1,0-1.7-0.1-2.5h1.2l0.1,1.3h0c0.6-0.9,1.5-1.5,2.7-1.5c1.8,0,3.2,1.5,3.2,3.8
			c0,2.7-1.7,4.1-3.4,4.1c-1,0-1.9-0.4-2.3-1.2h0v4.1h-1.4V43.9z M72.9,46c0,0.2,0,0.4,0.1,0.6c0.2,1,1.1,1.6,2.1,1.6
			c1.5,0,2.3-1.2,2.3-2.9c0-1.5-0.8-2.8-2.2-2.8c-0.9,0-1.8,0.7-2.1,1.7c0,0.2-0.1,0.4-0.1,0.6V46z"/>
		<path fill="#454746" d="M86.7,47c0,0.8,0,1.5,0.1,2.1h-1.2l-0.1-1.2h0c-0.4,0.6-1.2,1.4-2.5,1.4c-1.2,0-2.6-0.7-2.6-3.3v-4.4h1.4
			v4.2c0,1.4,0.4,2.4,1.7,2.4c0.9,0,1.6-0.6,1.8-1.2c0.1-0.2,0.1-0.5,0.1-0.7v-4.6h1.4V47z"/>
		<path fill="#454746" d="M89,38h1.4V49H89V38z"/>
		<path fill="#454746" d="M96.8,49l-0.1-1h0c-0.4,0.6-1.2,1.1-2.3,1.1c-1.5,0-2.3-1.1-2.3-2.2c0-1.8,1.6-2.8,4.5-2.8v-0.2
			c0-0.6-0.2-1.7-1.7-1.7c-0.7,0-1.4,0.2-2,0.6L92.6,42c0.6-0.4,1.5-0.7,2.5-0.7c2.3,0,2.9,1.6,2.9,3.1v2.8c0,0.7,0,1.3,0.1,1.8
			H96.8z M96.6,45.2c-1.5,0-3.2,0.2-3.2,1.7c0,0.9,0.6,1.3,1.3,1.3c1,0,1.6-0.6,1.8-1.3c0-0.1,0.1-0.3,0.1-0.4V45.2z"/>
		<path fill="#454746" d="M101.8,39.3v2.2h2v1h-2v4.1c0,0.9,0.3,1.5,1,1.5c0.4,0,0.6,0,0.8-0.1l0.1,1c-0.3,0.1-0.7,0.2-1.2,0.2
			c-0.6,0-1.2-0.2-1.5-0.6c-0.4-0.4-0.5-1.1-0.5-2v-4.1h-1.2v-1h1.2v-1.8L101.8,39.3z"/>
		<path fill="#454746" d="M106,45.5c0,1.9,1.2,2.6,2.6,2.6c1,0,1.6-0.2,2.1-0.4l0.2,1c-0.5,0.2-1.3,0.5-2.5,0.5
			c-2.3,0-3.7-1.5-3.7-3.8c0-2.3,1.3-4.1,3.5-4.1c2.5,0,3.1,2.2,3.1,3.6c0,0.3,0,0.5,0,0.6H106z M110,44.5c0-0.9-0.4-2.2-1.9-2.2
			c-1.4,0-2,1.3-2.1,2.2H110z"/>
		<path fill="#454746" d="M118,39.3v2.2h2v1h-2v4.1c0,0.9,0.3,1.5,1,1.5c0.4,0,0.6,0,0.8-0.1l0.1,1c-0.3,0.1-0.7,0.2-1.2,0.2
			c-0.6,0-1.2-0.2-1.5-0.6c-0.4-0.4-0.5-1.1-0.5-2v-4.1h-1.2v-1h1.2v-1.8L118,39.3z"/>
		<path fill="#454746" d="M121.5,43.8c0-0.9,0-1.7-0.1-2.4h1.2l0,1.5h0.1c0.3-1,1.2-1.7,2.1-1.7c0.2,0,0.3,0,0.4,0v1.3
			c-0.1,0-0.3,0-0.5,0c-1,0-1.7,0.7-1.8,1.8c0,0.2-0.1,0.4-0.1,0.6v4h-1.4V43.8z"/>
		<path fill="#454746" d="M127.2,45.5c0,1.9,1.2,2.6,2.6,2.6c1,0,1.6-0.2,2.1-0.4l0.2,1c-0.5,0.2-1.3,0.5-2.5,0.5
			c-2.3,0-3.7-1.5-3.7-3.8c0-2.3,1.3-4.1,3.5-4.1c2.5,0,3.1,2.2,3.1,3.6c0,0.3,0,0.5,0,0.6H127.2z M131.2,44.5
			c0-0.9-0.4-2.2-1.9-2.2c-1.4,0-2,1.3-2.1,2.2H131.2z"/>
		<path fill="#454746" d="M135,45.5c0,1.9,1.2,2.6,2.6,2.6c1,0,1.6-0.2,2.1-0.4l0.2,1c-0.5,0.2-1.3,0.5-2.5,0.5
			c-2.3,0-3.7-1.5-3.7-3.8c0-2.3,1.3-4.1,3.5-4.1c2.5,0,3.1,2.2,3.1,3.6c0,0.3,0,0.5,0,0.6H135z M139,44.5c0-0.9-0.4-2.2-1.9-2.2
			c-1.4,0-2,1.3-2.1,2.2H139z"/>
		<path fill="#454746" d="M141.9,47.6c0.4,0.3,1.1,0.5,1.8,0.5c1,0,1.5-0.5,1.5-1.1c0-0.7-0.4-1-1.4-1.4c-1.4-0.5-2-1.2-2-2.1
			c0-1.2,1-2.2,2.6-2.2c0.8,0,1.4,0.2,1.9,0.5l-0.3,1c-0.3-0.2-0.8-0.4-1.5-0.4c-0.8,0-1.3,0.5-1.3,1c0,0.6,0.5,0.9,1.4,1.3
			c1.3,0.5,2,1.2,2,2.3c0,1.3-1,2.3-2.8,2.3c-0.8,0-1.6-0.2-2.1-0.5L141.9,47.6z"/>
	</g>
</g>
<circle opacity="0.8" fill="#7C7C7C" cx="38" cy="43.8" r="8.6"/>
<g>
	<g>
		<path fill="#FFFFFF" d="M38.4,48v-2.1h-3.7v-1l3.3-5.1h1.8v4.9h1v1.2h-1V48H38.4z M38.4,44.8v-2.2c0-0.5,0-0.9,0-1.4h0
			c-0.2,0.5-0.5,0.9-0.7,1.4l-1.5,2.2v0H38.4z"/>
	</g>
</g>
<g opacity="0.7">
	<g>
		<path fill="#454746" d="M298,133.2c-0.4,0.2-1.3,0.4-2.5,0.4c-2.7,0-4.7-1.7-4.7-4.8c0-3,2-5,4.9-5c1.2,0,1.9,0.3,2.2,0.4l-0.3,1
			c-0.5-0.2-1.1-0.4-1.9-0.4c-2.2,0-3.7,1.4-3.7,3.9c0,2.3,1.3,3.8,3.6,3.8c0.7,0,1.5-0.2,2-0.4L298,133.2z"/>
		<path fill="#454746" d="M305.4,130.1c0,2.5-1.7,3.6-3.4,3.6c-1.8,0-3.2-1.3-3.2-3.5c0-2.3,1.5-3.6,3.4-3.6
			C304.1,126.6,305.4,128,305.4,130.1z M300,130.1c0,1.5,0.9,2.6,2.1,2.6c1.2,0,2.1-1.1,2.1-2.6c0-1.1-0.6-2.6-2-2.6
			S300,128.8,300,130.1z"/>
		<path fill="#454746" d="M310,129.3v0.9h-3.5v-0.9H310z"/>
		<path fill="#454746" d="M311.4,132c0.5,0.3,1.3,0.6,2.2,0.6c1.2,0,2-0.7,2-1.6c0-0.9-0.5-1.4-1.8-1.9c-1.5-0.5-2.5-1.3-2.5-2.7
			c0-1.5,1.2-2.6,3.1-2.6c1,0,1.7,0.2,2.1,0.5l-0.3,1c-0.3-0.2-0.9-0.4-1.8-0.4c-1.3,0-1.8,0.8-1.8,1.4c0,0.9,0.6,1.3,1.9,1.8
			c1.6,0.6,2.4,1.4,2.4,2.8c0,1.5-1.1,2.7-3.3,2.7c-0.9,0-1.9-0.3-2.4-0.6L311.4,132z"/>
		<path fill="#454746" d="M319.8,124.8v1.9h1.8v0.9h-1.8v3.7c0,0.8,0.2,1.3,0.9,1.3c0.3,0,0.6,0,0.7-0.1l0.1,0.9
			c-0.2,0.1-0.6,0.2-1.1,0.2c-0.6,0-1-0.2-1.3-0.5c-0.3-0.4-0.5-1-0.5-1.8v-3.7h-1.1v-0.9h1.1v-1.6L319.8,124.8z"/>
		<path fill="#454746" d="M326.7,133.5l-0.1-0.9h0c-0.4,0.5-1.1,1-2.1,1c-1.4,0-2.1-1-2.1-1.9c0-1.6,1.5-2.5,4.1-2.5v-0.1
			c0-0.6-0.2-1.6-1.5-1.6c-0.6,0-1.3,0.2-1.8,0.5l-0.3-0.8c0.6-0.4,1.4-0.6,2.2-0.6c2.1,0,2.6,1.4,2.6,2.8v2.5c0,0.6,0,1.2,0.1,1.6
			H326.7z M326.5,130.1c-1.3,0-2.9,0.2-2.9,1.5c0,0.8,0.5,1.2,1.2,1.2c0.9,0,1.4-0.6,1.6-1.1c0-0.1,0.1-0.3,0.1-0.4V130.1z"/>
		<path fill="#454746" d="M329.7,128.8c0-0.8,0-1.5-0.1-2.1h1.1l0,1.3h0.1c0.3-0.9,1.1-1.5,1.9-1.5c0.1,0,0.2,0,0.4,0v1.2
			c-0.1,0-0.3,0-0.4,0c-0.9,0-1.5,0.7-1.7,1.6c0,0.2-0.1,0.4-0.1,0.6v3.6h-1.2V128.8z"/>
		<path fill="#454746" d="M334.1,132.3c0.4,0.2,1,0.5,1.6,0.5c0.9,0,1.3-0.4,1.3-1c0-0.6-0.3-0.9-1.3-1.2c-1.2-0.4-1.8-1.1-1.8-1.9
			c0-1.1,0.9-2,2.3-2c0.7,0,1.3,0.2,1.7,0.4l-0.3,0.9c-0.3-0.2-0.8-0.4-1.4-0.4c-0.7,0-1.1,0.4-1.1,0.9c0,0.6,0.4,0.8,1.3,1.1
			c1.2,0.4,1.8,1,1.8,2c0,1.2-0.9,2-2.5,2c-0.7,0-1.4-0.2-1.9-0.5L334.1,132.3z"/>
	</g>
</g>
<g opacity="0.7">
	<g>
		<path fill="none" stroke="#454746" stroke-width="1.0721" stroke-miterlimit="10" d="M283.4,129.5c-14.6,3.9-27,4-41,2.5"/>
		<g>
			<path fill="#454746" d="M237.3,131.5c2.5-0.7,5.7-1.9,7.7-3.3l-1.9,3.9l1.1,4.2C242.4,134.5,239.6,132.6,237.3,131.5z"/>
		</g>
	</g>
</g>
<line fill="none" stroke="#75B640" stroke-width="2" stroke-miterlimit="10" x1="73.7" y1="98.2" x2="73.7" y2="133.9"/>
<line fill="none" stroke="#75B640" stroke-width="2" stroke-miterlimit="10" x1="73.7" y1="98.2" x2="54.9" y2="133.9"/>
<line fill="none" stroke="#75B640" stroke-width="2" stroke-miterlimit="10" x1="73.7" y1="98.2" x2="92.5" y2="133.9"/>
<g>
	<path fill="#FFFFFF" d="M73.7,110.5c-6.8,0-12.3-5.5-12.3-12.3s5.5-12.3,12.3-12.3S86,91.4,86,98.2S80.5,110.5,73.7,110.5z"/>
	<g>
		<path fill="#75B640" d="M73.7,87.4c6,0,10.8,4.8,10.8,10.8S79.7,109,73.7,109s-10.8-4.8-10.8-10.8S67.7,87.4,73.7,87.4 M73.7,84.4
			c-7.6,0-13.8,6.2-13.8,13.8c0,7.6,6.2,13.8,13.8,13.8s13.8-6.2,13.8-13.8C87.5,90.6,81.3,84.4,73.7,84.4L73.7,84.4z"/>
	</g>
</g>
<g>
	<path fill="#FFFFFF" d="M54.9,139.8c-3.3,0-5.9-2.6-5.9-5.9c0-3.3,2.6-5.9,5.9-5.9s5.9,2.6,5.9,5.9
		C60.8,137.1,58.2,139.8,54.9,139.8z"/>
	<g>
		<path fill="#75B640" d="M54.9,129c2.7,0,4.9,2.2,4.9,4.9s-2.2,4.9-4.9,4.9s-4.9-2.2-4.9-4.9S52.2,129,54.9,129 M54.9,127
			c-3.8,0-6.9,3.1-6.9,6.9s3.1,6.9,6.9,6.9c3.8,0,6.9-3.1,6.9-6.9S58.7,127,54.9,127L54.9,127z"/>
	</g>
</g>
<g>
	<path fill="#FFFFFF" d="M73.7,139.8c-3.3,0-5.9-2.6-5.9-5.9c0-3.3,2.6-5.9,5.9-5.9s5.9,2.6,5.9,5.9C79.6,137.1,77,139.8,73.7,139.8
		z"/>
	<g>
		<path fill="#75B640" d="M73.7,129c2.7,0,4.9,2.2,4.9,4.9s-2.2,4.9-4.9,4.9s-4.9-2.2-4.9-4.9S71,129,73.7,129 M73.7,127
			c-3.8,0-6.9,3.1-6.9,6.9s3.1,6.9,6.9,6.9c3.8,0,6.9-3.1,6.9-6.9S77.5,127,73.7,127L73.7,127z"/>
	</g>
</g>
<g>
	<path fill="#FFFFFF" d="M92.5,139.8c-3.3,0-5.9-2.6-5.9-5.9c0-3.3,2.6-5.9,5.9-5.9s5.9,2.6,5.9,5.9
		C98.4,137.1,95.8,139.8,92.5,139.8z"/>
	<g>
		<path fill="#75B640" d="M92.5,129c2.7,0,4.9,2.2,4.9,4.9s-2.2,4.9-4.9,4.9s-4.9-2.2-4.9-4.9S89.8,129,92.5,129 M92.5,127
			c-3.8,0-6.9,3.1-6.9,6.9s3.1,6.9,6.9,6.9c3.8,0,6.9-3.1,6.9-6.9S96.3,127,92.5,127L92.5,127z"/>
	</g>
</g>
<line fill="none" stroke="#75B640" stroke-width="2" stroke-miterlimit="10" x1="141.3" y1="98.2" x2="141.3" y2="133.9"/>
<line fill="none" stroke="#75B640" stroke-width="2" stroke-miterlimit="10" x1="141.3" y1="98.2" x2="122.5" y2="133.9"/>
<line fill="none" stroke="#75B640" stroke-width="2" stroke-miterlimit="10" x1="141.3" y1="98.2" x2="160.1" y2="133.9"/>
<g>
	<path fill="#FFFFFF" d="M122.5,139.8c-3.3,0-5.9-2.6-5.9-5.9c0-3.3,2.6-5.9,5.9-5.9s5.9,2.6,5.9,5.9
		C128.4,137.1,125.8,139.8,122.5,139.8z"/>
	<g>
		<path fill="#75B640" d="M122.5,129c2.7,0,4.9,2.2,4.9,4.9s-2.2,4.9-4.9,4.9c-2.7,0-4.9-2.2-4.9-4.9S119.8,129,122.5,129
			 M122.5,127c-3.8,0-6.9,3.1-6.9,6.9s3.1,6.9,6.9,6.9c3.8,0,6.9-3.1,6.9-6.9S126.3,127,122.5,127L122.5,127z"/>
	</g>
</g>
<g>
	<path fill="#FFFFFF" d="M141.3,139.8c-3.3,0-5.9-2.6-5.9-5.9c0-3.3,2.6-5.9,5.9-5.9s5.9,2.6,5.9,5.9
		C147.2,137.1,144.6,139.8,141.3,139.8z"/>
	<g>
		<path fill="#75B640" d="M141.3,129c2.7,0,4.9,2.2,4.9,4.9s-2.2,4.9-4.9,4.9c-2.7,0-4.9-2.2-4.9-4.9S138.6,129,141.3,129
			 M141.3,127c-3.8,0-6.9,3.1-6.9,6.9s3.1,6.9,6.9,6.9c3.8,0,6.9-3.1,6.9-6.9S145.1,127,141.3,127L141.3,127z"/>
	</g>
</g>
<g>
	<path fill="#FFFFFF" d="M160.1,139.8c-3.3,0-5.9-2.6-5.9-5.9c0-3.3,2.6-5.9,5.9-5.9s5.9,2.6,5.9,5.9
		C166,137.1,163.4,139.8,160.1,139.8z"/>
	<g>
		<path fill="#75B640" d="M160.1,129c2.7,0,4.9,2.2,4.9,4.9s-2.2,4.9-4.9,4.9c-2.7,0-4.9-2.2-4.9-4.9S157.4,129,160.1,129
			 M160.1,127c-3.8,0-6.9,3.1-6.9,6.9s3.1,6.9,6.9,6.9c3.8,0,6.9-3.1,6.9-6.9S163.9,127,160.1,127L160.1,127z"/>
	</g>
</g>
<g>
	<path fill="#FFFFFF" d="M141.3,110.5c-6.8,0-12.3-5.5-12.3-12.3s5.5-12.3,12.3-12.3s12.3,5.5,12.3,12.3S148.1,110.5,141.3,110.5z"
		/>
	<g>
		<path fill="#75B640" d="M141.3,87.4c6,0,10.8,4.8,10.8,10.8s-4.8,10.8-10.8,10.8s-10.8-4.8-10.8-10.8S135.3,87.4,141.3,87.4
			 M141.3,84.4c-7.6,0-13.8,6.2-13.8,13.8c0,7.6,6.2,13.8,13.8,13.8c7.6,0,13.8-6.2,13.8-13.8C155.1,90.6,148.9,84.4,141.3,84.4
			L141.3,84.4z"/>
	</g>
</g>
<line fill="none" stroke="#75B640" stroke-width="2" stroke-miterlimit="10" x1="208.9" y1="98.2" x2="199.5" y2="133.9"/>
<line fill="none" stroke="#75B640" stroke-width="2" stroke-miterlimit="10" x1="208.9" y1="98.2" x2="218.3" y2="133.9"/>
<g>
	<path fill="#FFFFFF" d="M208.9,110.5c-6.8,0-12.3-5.5-12.3-12.3s5.5-12.3,12.3-12.3s12.3,5.5,12.3,12.3S215.7,110.5,208.9,110.5z"
		/>
	<g>
		<path fill="#75B640" d="M208.9,87.4c6,0,10.8,4.8,10.8,10.8s-4.8,10.8-10.8,10.8s-10.8-4.8-10.8-10.8S202.9,87.4,208.9,87.4
			 M208.9,84.4c-7.6,0-13.8,6.2-13.8,13.8c0,7.6,6.2,13.8,13.8,13.8s13.8-6.2,13.8-13.8C222.7,90.6,216.5,84.4,208.9,84.4
			L208.9,84.4z"/>
	</g>
</g>
<g>
	<path fill="#FFFFFF" d="M199.5,139.8c-3.3,0-5.9-2.6-5.9-5.9c0-3.3,2.6-5.9,5.9-5.9s5.9,2.6,5.9,5.9
		C205.4,137.1,202.8,139.8,199.5,139.8z"/>
	<g>
		<path fill="#75B640" d="M199.5,129c2.7,0,4.9,2.2,4.9,4.9s-2.2,4.9-4.9,4.9c-2.7,0-4.9-2.2-4.9-4.9S196.8,129,199.5,129
			 M199.5,127c-3.8,0-6.9,3.1-6.9,6.9s3.1,6.9,6.9,6.9c3.8,0,6.9-3.1,6.9-6.9S203.3,127,199.5,127L199.5,127z"/>
	</g>
</g>
<g>
	<path fill="#FFFFFF" d="M218.3,139.8c-3.3,0-5.9-2.6-5.9-5.9c0-3.3,2.6-5.9,5.9-5.9s5.9,2.6,5.9,5.9
		C224.2,137.1,221.6,139.8,218.3,139.8z"/>
	<g>
		<path fill="#75B640" d="M218.3,129c2.7,0,4.9,2.2,4.9,4.9s-2.2,4.9-4.9,4.9s-4.9-2.2-4.9-4.9S215.6,129,218.3,129 M218.3,127
			c-3.8,0-6.9,3.1-6.9,6.9s3.1,6.9,6.9,6.9c3.8,0,6.9-3.1,6.9-6.9S222.1,127,218.3,127L218.3,127z"/>
	</g>
</g>
<g opacity="0.7">
	<g>
		<path fill="#454746" d="M291.6,89.9l-1,3h-1.3l3.2-9.4h1.5l3.2,9.4h-1.3l-1-3H291.6z M294.7,89l-0.9-2.7c-0.2-0.6-0.4-1.2-0.5-1.7
			h0c-0.1,0.6-0.3,1.1-0.5,1.7l-0.9,2.7H294.7z"/>
		<path fill="#454746" d="M303.2,92.6c-0.3,0.2-1,0.4-1.9,0.4c-2,0-3.4-1.4-3.4-3.5c0-2.1,1.4-3.6,3.6-3.6c0.7,0,1.4,0.2,1.7,0.4
			l-0.3,1c-0.3-0.2-0.8-0.3-1.4-0.3c-1.6,0-2.4,1.1-2.4,2.6c0,1.6,1,2.5,2.4,2.5c0.7,0,1.2-0.2,1.5-0.3L303.2,92.6z"/>
		<path fill="#454746" d="M306.3,84.2v1.9h1.8v0.9h-1.8v3.7c0,0.8,0.2,1.3,0.9,1.3c0.3,0,0.6,0,0.7-0.1l0.1,0.9
			c-0.2,0.1-0.6,0.2-1.1,0.2c-0.6,0-1-0.2-1.3-0.5c-0.4-0.4-0.5-1-0.5-1.8v-3.7h-1.1v-0.9h1.1v-1.6L306.3,84.2z"/>
		<path fill="#454746" d="M315.5,89.5c0,2.5-1.7,3.6-3.4,3.6c-1.8,0-3.2-1.3-3.2-3.5c0-2.3,1.5-3.6,3.4-3.6
			C314.2,86,315.5,87.4,315.5,89.5z M310.2,89.5c0,1.5,0.9,2.6,2.1,2.6c1.2,0,2.1-1.1,2.1-2.6c0-1.1-0.6-2.6-2-2.6
			S310.2,88.2,310.2,89.5z"/>
		<path fill="#454746" d="M317.1,88.2c0-0.8,0-1.5-0.1-2.1h1.1l0,1.3h0.1c0.3-0.9,1.1-1.5,1.9-1.5c0.1,0,0.2,0,0.4,0v1.2
			c-0.1,0-0.3,0-0.4,0c-0.9,0-1.5,0.7-1.7,1.6c0,0.2-0.1,0.4-0.1,0.6v3.6h-1.2V88.2z"/>
		<path fill="#454746" d="M321.5,91.6c0.4,0.2,1,0.5,1.6,0.5c0.9,0,1.3-0.4,1.3-1c0-0.6-0.3-0.9-1.3-1.2c-1.2-0.4-1.8-1.1-1.8-1.9
			c0-1.1,0.9-2,2.3-2c0.7,0,1.3,0.2,1.7,0.4l-0.3,0.9c-0.3-0.2-0.8-0.4-1.4-0.4c-0.7,0-1.1,0.4-1.1,0.9c0,0.6,0.4,0.8,1.3,1.1
			c1.2,0.4,1.8,1,1.8,2c0,1.2-0.9,2-2.5,2c-0.7,0-1.4-0.2-1.9-0.5L321.5,91.6z"/>
	</g>
</g>
<g opacity="0.7">
	<g>
		<path fill="none" stroke="#454746" stroke-width="1.0721" stroke-miterlimit="10" d="M280.4,89.4c-15.4-1.1-26.3,0.5-37.8,4.3"/>
		<g>
			<path fill="#454746" d="M237.7,95.3c2-1.6,4.4-4.1,5.6-6.2l-0.1,4.3l2.7,3.4C243.6,95.9,240.3,95.4,237.7,95.3z"/>
		</g>
	</g>
</g>
</svg>
