<?xml version="1.0" encoding="utf-8"?>
<!-- Generator: Adobe Illustrator 18.0.0, SVG Export Plug-In . SVG Version: 6.00 Build 0)  -->
<!DOCTYPE svg PUBLIC "-//W3C//DTD SVG 1.1//EN" "http://www.w3.org/Graphics/SVG/1.1/DTD/svg11.dtd">
<svg version="1.1" id="graphs" xmlns="http://www.w3.org/2000/svg" xmlns:xlink="http://www.w3.org/1999/xlink" x="0px" y="0px"
	 viewBox="0 0 900 600" enable-background="new 0 0 900 600" xml:space="preserve">
<path fill="#F8FAF6" d="M694.3,472.3H171.1c-1.3,0-2.4-1.1-2.4-2.4V162.4c0-1.3,1.1-2.4,2.4-2.4h523.2c1.3,0,2.4,1.1,2.4,2.4v307.5
	C696.7,471.2,695.6,472.3,694.3,472.3z"/>
<g>
	<line fill="none" stroke="#D6D6D6" stroke-miterlimit="10" x1="172.7" y1="164" x2="692.7" y2="164"/>
	<line fill="none" stroke="#D6D6D6" stroke-miterlimit="10" x1="172.7" y1="194.4" x2="692.7" y2="194.4"/>
	<line fill="none" stroke="#D6D6D6" stroke-miterlimit="10" x1="172.7" y1="255.2" x2="692.7" y2="255.2"/>
	<line fill="none" stroke="#D6D6D6" stroke-miterlimit="10" x1="172.7" y1="285.6" x2="692.7" y2="285.6"/>
	<line fill="none" stroke="#D6D6D6" stroke-miterlimit="10" x1="172.7" y1="316" x2="692.7" y2="316"/>
	<line fill="none" stroke="#D6D6D6" stroke-miterlimit="10" x1="172.7" y1="346.4" x2="692.7" y2="346.4"/>
	<line fill="none" stroke="#D6D6D6" stroke-miterlimit="10" x1="172.7" y1="376.8" x2="692.7" y2="376.8"/>
	<line fill="none" stroke="#D6D6D6" stroke-miterlimit="10" x1="172.7" y1="407.2" x2="692.7" y2="407.2"/>
	<line fill="none" stroke="#D6D6D6" stroke-miterlimit="10" x1="172.7" y1="437.6" x2="692.7" y2="437.6"/>
	<line fill="none" stroke="#D6D6D6" stroke-miterlimit="10" x1="172.7" y1="468" x2="692.7" y2="468"/>
	<line fill="none" stroke="#D6D6D6" stroke-miterlimit="10" x1="172.7" y1="224.8" x2="692.7" y2="224.8"/>
</g>
<line fill="none" stroke="#454746" stroke-miterlimit="10" x1="172.7" y1="164" x2="172.7" y2="468"/>
<line fill="none" stroke="#454746" stroke-miterlimit="10" x1="172.7" y1="468" x2="692.7" y2="468"/>
<g>
	<line fill="none" stroke="#454746" stroke-miterlimit="10" x1="172.7" y1="437.6" x2="168.7" y2="437.6"/>
</g>
<g>
	<line fill="none" stroke="#454746" stroke-miterlimit="10" x1="172.7" y1="407.2" x2="168.7" y2="407.2"/>
</g>
<g>
	<line fill="none" stroke="#454746" stroke-miterlimit="10" x1="172.7" y1="376.8" x2="168.7" y2="376.8"/>
</g>
<g>
	<line fill="none" stroke="#454746" stroke-miterlimit="10" x1="172.7" y1="346.4" x2="168.7" y2="346.4"/>
</g>
<g>
	<line fill="none" stroke="#454746" stroke-miterlimit="10" x1="172.7" y1="316" x2="168.7" y2="316"/>
</g>
<g>
	<line fill="none" stroke="#454746" stroke-miterlimit="10" x1="172.7" y1="285.6" x2="168.7" y2="285.6"/>
</g>
<g>
	<line fill="none" stroke="#454746" stroke-miterlimit="10" x1="172.7" y1="255.2" x2="168.7" y2="255.2"/>
</g>
<g>
	<line fill="none" stroke="#454746" stroke-miterlimit="10" x1="172.7" y1="224.8" x2="168.7" y2="224.8"/>
</g>
<g>
	<line fill="none" stroke="#454746" stroke-miterlimit="10" x1="172.7" y1="194.4" x2="168.7" y2="194.4"/>
</g>
<g>
	<line fill="none" stroke="#454746" stroke-miterlimit="10" x1="172.7" y1="164" x2="168.7" y2="164"/>
</g>
<line fill="none" stroke="#454746" stroke-miterlimit="10" x1="172.7" y1="468" x2="172.7" y2="472.3"/>
<line fill="none" stroke="#454746" stroke-miterlimit="10" x1="259.3" y1="468" x2="259.3" y2="472.3"/>
<line fill="none" stroke="#454746" stroke-miterlimit="10" x1="346" y1="468" x2="346" y2="472.3"/>
<line fill="none" stroke="#454746" stroke-miterlimit="10" x1="606" y1="468" x2="606" y2="472.3"/>
<line fill="none" stroke="#454746" stroke-miterlimit="10" x1="692.7" y1="468" x2="692.7" y2="472.3"/>
<g>
	<g>
		<path fill="#454746" d="M167.3,485.5c0,2.7-1,4.4-3,4.4c-1.9,0-2.9-1.7-3-4.3c0-2.6,1.1-4.3,3-4.3
			C166.4,481.2,167.3,483,167.3,485.5z M162.9,485.5c0,2,0.6,3.1,1.4,3.1c0.9,0,1.4-1.1,1.4-3.1c0-1.9-0.5-3.1-1.4-3.1
			C163.5,482.4,162.9,483.5,162.9,485.5z"/>
		<path fill="#454746" d="M168.4,484.5c0-0.6,0.4-1,1-1c0.6,0,1,0.4,1,1c0,0.6-0.4,1-1,1C168.8,485.5,168.4,485.1,168.4,484.5z
			 M168.4,488.8c0-0.6,0.4-1,1-1c0.6,0,1,0.4,1,1c0,0.6-0.4,1-1,1C168.8,489.8,168.4,489.4,168.4,488.8z"/>
		<path fill="#454746" d="M177.2,485.5c0,2.7-1,4.4-3,4.4c-1.9,0-2.9-1.7-3-4.3c0-2.6,1.1-4.3,3-4.3
			C176.2,481.2,177.2,483,177.2,485.5z M172.8,485.5c0,2,0.6,3.1,1.4,3.1c0.9,0,1.4-1.1,1.4-3.1c0-1.9-0.5-3.1-1.4-3.1
			C173.3,482.4,172.8,483.5,172.8,485.5z"/>
		<path fill="#454746" d="M184,485.5c0,2.7-1,4.4-3,4.4c-1.9,0-2.9-1.7-3-4.3c0-2.6,1.1-4.3,3-4.3C183.1,481.2,184,483,184,485.5z
			 M179.6,485.5c0,2,0.6,3.1,1.4,3.1c0.9,0,1.4-1.1,1.4-3.1c0-1.9-0.5-3.1-1.4-3.1C180.2,482.4,179.6,483.5,179.6,485.5z"/>
	</g>
</g>
<g>
	<g>
		<path fill="#454746" d="M248.1,489.7v-1l1-0.9c2-1.8,2.9-2.8,2.9-3.9c0-0.7-0.4-1.4-1.5-1.4c-0.7,0-1.4,0.4-1.8,0.7l-0.5-1.1
			c0.6-0.5,1.5-0.9,2.6-0.9c1.8,0,2.7,1.2,2.7,2.5c0,1.5-1,2.6-2.5,4l-0.7,0.6v0h3.4v1.3H248.1z"/>
		<path fill="#454746" d="M255,484.5c0-0.6,0.4-1,1-1c0.6,0,1,0.4,1,1c0,0.6-0.4,1-1,1C255.4,485.5,255,485.1,255,484.5z M255,488.8
			c0-0.6,0.4-1,1-1c0.6,0,1,0.4,1,1c0,0.6-0.4,1-1,1C255.4,489.8,255,489.4,255,488.8z"/>
		<path fill="#454746" d="M258,489.7v-1l1-0.9c2-1.8,2.9-2.8,2.9-3.9c0-0.7-0.4-1.4-1.5-1.4c-0.7,0-1.4,0.4-1.8,0.7l-0.5-1.1
			c0.6-0.5,1.5-0.9,2.6-0.9c1.8,0,2.7,1.2,2.7,2.5c0,1.5-1,2.6-2.5,4l-0.7,0.6v0h3.4v1.3H258z"/>
		<path fill="#454746" d="M268.3,489.7v-2.1h-3.8v-1l3.4-5.2h1.9v5h1.1v1.2h-1.1v2.1H268.3z M268.3,486.4v-2.3c0-0.5,0-1,0.1-1.4
			h-0.1c-0.3,0.5-0.5,0.9-0.7,1.4l-1.5,2.3l0,0H268.3z"/>
	</g>
</g>
<g>
	<g>
		<path fill="#454746" d="M338.2,489.7v-2.1h-3.8v-1l3.4-5.2h1.9v5h1.1v1.2h-1.1v2.1H338.2z M338.2,486.4v-2.3c0-0.5,0-1,0.1-1.4
			h-0.1c-0.3,0.5-0.5,0.9-0.7,1.4l-1.5,2.3l0,0H338.2z"/>
		<path fill="#454746" d="M341.7,484.5c0-0.6,0.4-1,1-1c0.6,0,1,0.4,1,1c0,0.6-0.4,1-1,1C342.1,485.5,341.7,485.1,341.7,484.5z
			 M341.7,488.8c0-0.6,0.4-1,1-1c0.6,0,1,0.4,1,1c0,0.6-0.4,1-1,1C342.1,489.8,341.7,489.4,341.7,488.8z"/>
		<path fill="#454746" d="M348.1,489.7v-2.1h-3.8v-1l3.4-5.2h1.9v5h1.1v1.2h-1.1v2.1H348.1z M348.1,486.4v-2.3c0-0.5,0-1,0.1-1.4
			h-0.1c-0.3,0.5-0.5,0.9-0.7,1.4l-1.5,2.3l0,0H348.1z"/>
		<path fill="#454746" d="M351.4,487.5c0-1,0.6-1.7,1.6-2.2v0c-0.9-0.4-1.3-1.1-1.3-1.8c0-1.4,1.2-2.3,2.8-2.3
			c1.8,0,2.6,1.1,2.6,2.1c0,0.7-0.4,1.4-1.3,1.9v0c0.9,0.3,1.6,1.1,1.6,2.1c0,1.5-1.3,2.5-3,2.5
			C352.4,489.8,351.4,488.7,351.4,487.5z M355.8,487.5c0-0.8-0.6-1.3-1.5-1.6c-0.8,0.2-1.2,0.8-1.2,1.5c0,0.7,0.5,1.3,1.4,1.3
			C355.2,488.7,355.8,488.2,355.8,487.5z M353.2,483.4c0,0.7,0.6,1.1,1.4,1.3c0.6-0.2,1-0.6,1-1.3c0-0.6-0.3-1.2-1.2-1.2
			C353.6,482.3,353.2,482.8,353.2,483.4z"/>
	</g>
</g>
<g>
	<g>
		<path fill="#454746" d="M427.1,481.4v1l-3.5,7.3H422l3.5-7v0h-3.9v-1.3H427.1z"/>
		<path fill="#454746" d="M428.4,484.5c0-0.6,0.4-1,1-1c0.6,0,1,0.4,1,1c0,0.6-0.4,1-1,1C428.8,485.5,428.4,485.1,428.4,484.5z
			 M428.4,488.8c0-0.6,0.4-1,1-1c0.6,0,1,0.4,1,1c0,0.6-0.4,1-1,1C428.8,489.8,428.4,489.4,428.4,488.8z"/>
		<path fill="#454746" d="M433.8,482.8L433.8,482.8l-1.5,0.8l-0.3-1.2l2-1h1.3v8.3h-1.5V482.8z"/>
		<path fill="#454746" d="M438.2,489.7v-1l1-0.9c2-1.8,2.9-2.8,2.9-3.9c0-0.7-0.4-1.4-1.5-1.4c-0.7,0-1.4,0.4-1.8,0.7l-0.5-1.1
			c0.6-0.5,1.5-0.9,2.6-0.9c1.8,0,2.7,1.2,2.7,2.5c0,1.5-1,2.6-2.5,4l-0.7,0.6v0h3.4v1.3H438.2z"/>
	</g>
</g>
<g>
	<g>
		<path fill="#454746" d="M421.2,505.4h-2.3v-1.6h6.6v1.6h-2.4v7h-2V505.4z"/>
		<path fill="#454746" d="M428.2,504.3c0,0.5-0.4,1-1,1c-0.6,0-1-0.4-1-1c0-0.6,0.4-1,1-1S428.2,503.8,428.2,504.3z M426.2,512.3
			v-6.3h1.9v6.3H426.2z"/>
		<path fill="#454746" d="M429.7,508.1c0-0.8,0-1.4-0.1-2h1.6l0.1,0.8h0c0.3-0.4,0.8-1,1.9-1c0.8,0,1.4,0.4,1.7,1.1h0
			c0.2-0.3,0.5-0.6,0.8-0.8c0.3-0.2,0.7-0.3,1.2-0.3c1.2,0,2.1,0.8,2.1,2.7v3.7h-1.9v-3.4c0-0.9-0.3-1.4-0.9-1.4
			c-0.4,0-0.8,0.3-0.9,0.7c-0.1,0.1-0.1,0.3-0.1,0.5v3.7h-1.9v-3.5c0-0.8-0.3-1.3-0.9-1.3c-0.5,0-0.8,0.4-0.9,0.7
			c-0.1,0.2-0.1,0.3-0.1,0.5v3.6h-1.9V508.1z"/>
		<path fill="#454746" d="M442.2,509.8c0.1,0.8,0.9,1.2,1.8,1.2c0.7,0,1.2-0.1,1.7-0.3l0.3,1.3c-0.6,0.3-1.4,0.4-2.3,0.4
			c-2.1,0-3.3-1.2-3.3-3.2c0-1.6,1-3.3,3.2-3.3c2,0,2.8,1.6,2.8,3.1c0,0.3,0,0.6-0.1,0.8H442.2z M444.5,508.5c0-0.5-0.2-1.3-1.1-1.3
			c-0.8,0-1.2,0.7-1.2,1.3H444.5z"/>
	</g>
</g>
<g>
	<g>
		<path fill="#454746" d="M508.7,488.6c0.2,0,0.5,0,0.9,0c0.6-0.1,1.2-0.3,1.7-0.6c0.5-0.4,0.9-1.1,1.1-1.8l0,0
			c-0.4,0.5-1,0.7-1.8,0.7c-1.4,0-2.5-1-2.5-2.6c0-1.6,1.2-3,3-3c1.9,0,3,1.5,3,3.5c0,1.8-0.6,3-1.4,3.9c-0.7,0.7-1.7,1.1-2.8,1.1
			c-0.4,0-0.7,0-0.9,0V488.6z M509.5,484.1c0,0.9,0.5,1.5,1.4,1.5c0.6,0,1.1-0.3,1.3-0.7c0.1-0.1,0.1-0.2,0.1-0.4
			c0-1.1-0.4-2.1-1.4-2.1C510.1,482.4,509.5,483.1,509.5,484.1z"/>
		<path fill="#454746" d="M515,484.5c0-0.6,0.4-1,1-1c0.6,0,1,0.4,1,1c0,0.6-0.4,1-1,1C515.4,485.5,515,485.1,515,484.5z M515,488.8
			c0-0.6,0.4-1,1-1c0.6,0,1,0.4,1,1c0,0.6-0.4,1-1,1C515.4,489.8,515,489.4,515,488.8z"/>
		<path fill="#454746" d="M518.3,488.1c0.3,0.2,1.1,0.5,1.9,0.5c1.2,0,1.7-0.7,1.7-1.3c0-1-0.9-1.4-1.9-1.4h-0.7v-1.2h0.7
			c0.7,0,1.7-0.3,1.7-1.2c0-0.6-0.4-1-1.3-1c-0.7,0-1.4,0.3-1.7,0.5l-0.4-1.1c0.5-0.3,1.4-0.6,2.4-0.6c1.7,0,2.6,0.9,2.6,2
			c0,0.9-0.5,1.6-1.5,1.9v0c1,0.2,1.8,0.9,1.8,2.1c0,1.4-1.2,2.5-3.2,2.5c-1,0-1.9-0.3-2.3-0.6L518.3,488.1z"/>
		<path fill="#454746" d="M529.9,482.5c-0.2,0-0.5,0-0.8,0c-1.7,0.2-2.6,1.3-2.8,2.4h0c0.4-0.5,1-0.8,1.9-0.8c1.4,0,2.5,1,2.5,2.7
			c0,1.6-1.2,3-2.9,3c-2,0-3.1-1.5-3.1-3.6c0-1.6,0.6-2.9,1.4-3.7c0.8-0.7,1.8-1.1,3-1.2c0.3,0,0.6,0,0.8,0L529.9,482.5z
			 M529.2,486.9c0-1-0.5-1.7-1.4-1.7c-0.6,0-1.1,0.4-1.4,0.9c-0.1,0.1-0.1,0.3-0.1,0.5c0,1.1,0.6,2,1.6,2
			C528.6,488.6,529.2,487.9,529.2,486.9z"/>
	</g>
</g>
<g>
	<g>
		<path fill="#454746" d="M593.8,482.8L593.8,482.8l-1.5,0.8l-0.3-1.2l2-1h1.3v8.3h-1.5V482.8z"/>
		<path fill="#454746" d="M598.2,489.7v-1l1-0.9c2-1.8,2.9-2.8,2.9-3.9c0-0.7-0.4-1.4-1.5-1.4c-0.7,0-1.4,0.4-1.8,0.7l-0.5-1.1
			c0.6-0.5,1.5-0.9,2.6-0.9c1.8,0,2.7,1.2,2.7,2.5c0,1.5-1,2.6-2.5,4l-0.7,0.6v0h3.4v1.3H598.2z"/>
		<path fill="#454746" d="M605.1,484.5c0-0.6,0.4-1,1-1c0.6,0,1,0.4,1,1c0,0.6-0.4,1-1,1C605.5,485.5,605.1,485.1,605.1,484.5z
			 M605.1,488.8c0-0.6,0.4-1,1-1c0.6,0,1,0.4,1,1c0,0.6-0.4,1-1,1C605.5,489.8,605.1,489.4,605.1,488.8z"/>
		<path fill="#454746" d="M613.9,485.5c0,2.7-1,4.4-3,4.4c-1.9,0-2.9-1.7-3-4.3c0-2.6,1.1-4.3,3-4.3
			C613,481.2,613.9,483,613.9,485.5z M609.5,485.5c0,2,0.6,3.1,1.4,3.1c0.9,0,1.4-1.1,1.4-3.1c0-1.9-0.5-3.1-1.4-3.1
			C610.1,482.4,609.5,483.5,609.5,485.5z"/>
		<path fill="#454746" d="M620.8,485.5c0,2.7-1,4.4-3,4.4c-1.9,0-2.9-1.7-3-4.3c0-2.6,1.1-4.3,3-4.3
			C619.9,481.2,620.8,483,620.8,485.5z M616.4,485.5c0,2,0.6,3.1,1.4,3.1c0.9,0,1.4-1.1,1.4-3.1c0-1.9-0.5-3.1-1.4-3.1
			C617,482.4,616.4,483.5,616.4,485.5z"/>
	</g>
</g>
<g>
	<g>
		<path fill="#454746" d="M680.5,482.8L680.5,482.8l-1.5,0.8l-0.3-1.2l2-1h1.3v8.3h-1.5V482.8z"/>
		<path fill="#454746" d="M688.3,489.7v-2.1h-3.8v-1l3.4-5.2h1.9v5h1.1v1.2h-1.1v2.1H688.3z M688.3,486.4v-2.3c0-0.5,0-1,0.1-1.4
			h-0.1c-0.3,0.5-0.5,0.9-0.7,1.4l-1.5,2.3l0,0H688.3z"/>
		<path fill="#454746" d="M691.8,484.5c0-0.6,0.4-1,1-1c0.6,0,1,0.4,1,1c0,0.6-0.4,1-1,1C692.2,485.5,691.8,485.1,691.8,484.5z
			 M691.8,488.8c0-0.6,0.4-1,1-1c0.6,0,1,0.4,1,1c0,0.6-0.4,1-1,1C692.2,489.8,691.8,489.4,691.8,488.8z"/>
		<path fill="#454746" d="M694.7,489.7v-1l1-0.9c2-1.8,2.9-2.8,2.9-3.9c0-0.7-0.4-1.4-1.5-1.4c-0.7,0-1.4,0.4-1.8,0.7l-0.5-1.1
			c0.6-0.5,1.5-0.9,2.6-0.9c1.8,0,2.7,1.2,2.7,2.5c0,1.5-1,2.6-2.5,4l-0.7,0.6v0h3.4v1.3H694.7z"/>
		<path fill="#454746" d="M705.1,489.7v-2.1h-3.8v-1l3.4-5.2h1.9v5h1.1v1.2h-1.1v2.1H705.1z M705.1,486.4v-2.3c0-0.5,0-1,0.1-1.4
			h-0.1c-0.3,0.5-0.5,0.9-0.7,1.4l-1.5,2.3l0,0H705.1z"/>
	</g>
</g>
<g>
	<g>
		<g>
			<path fill="#454746" d="M140.7,434.7L140.7,434.7l-1.5,0.8l-0.3-1.2l2-1h1.3v8.3h-1.5V434.7z"/>
			<path fill="#454746" d="M151,437.4c0,2.7-1,4.4-3,4.4c-1.9,0-2.9-1.7-3-4.3c0-2.6,1.1-4.3,3-4.3C150,433.2,151,434.9,151,437.4z
				 M146.6,437.5c0,2,0.6,3.1,1.4,3.1c0.9,0,1.4-1.1,1.4-3.1c0-1.9-0.5-3.1-1.4-3.1C147.1,434.4,146.6,435.4,146.6,437.5z"/>
			<path fill="#454746" d="M157.8,437.4c0,2.7-1,4.4-3,4.4c-1.9,0-2.9-1.7-3-4.3c0-2.6,1.1-4.3,3-4.3
				C156.9,433.2,157.8,434.9,157.8,437.4z M153.4,437.5c0,2,0.6,3.1,1.4,3.1c0.9,0,1.4-1.1,1.4-3.1c0-1.9-0.5-3.1-1.4-3.1
				C154,434.4,153.4,435.4,153.4,437.5z"/>
		</g>
	</g>
</g>
<g>
	<g>
		<g>
			<path fill="#454746" d="M138.2,411.2v-1l1-0.9c2-1.8,2.9-2.8,2.9-3.9c0-0.7-0.4-1.4-1.5-1.4c-0.7,0-1.4,0.4-1.8,0.7l-0.5-1.1
				c0.6-0.5,1.5-0.9,2.6-0.9c1.8,0,2.7,1.2,2.7,2.5c0,1.5-1,2.6-2.5,4l-0.7,0.6v0h3.4v1.3H138.2z"/>
			<path fill="#454746" d="M151,407c0,2.7-1,4.4-3,4.4c-1.9,0-2.9-1.7-3-4.3c0-2.6,1.1-4.3,3-4.3C150,402.8,151,404.5,151,407z
				 M146.6,407.1c0,2,0.6,3.1,1.4,3.1c0.9,0,1.4-1.1,1.4-3.1c0-1.9-0.5-3.1-1.4-3.1C147.1,404,146.6,405,146.6,407.1z"/>
			<path fill="#454746" d="M157.8,407c0,2.7-1,4.4-3,4.4c-1.9,0-2.9-1.7-3-4.3c0-2.6,1.1-4.3,3-4.3
				C156.9,402.8,157.8,404.5,157.8,407z M153.4,407.1c0,2,0.6,3.1,1.4,3.1c0.9,0,1.4-1.1,1.4-3.1c0-1.9-0.5-3.1-1.4-3.1
				C154,404,153.4,405,153.4,407.1z"/>
		</g>
	</g>
</g>
<g>
	<g>
		<g>
			<path fill="#454746" d="M138.6,379.2c0.3,0.2,1.1,0.5,1.9,0.5c1.2,0,1.7-0.7,1.7-1.3c0-1-0.9-1.4-1.9-1.4h-0.7v-1.2h0.7
				c0.7,0,1.7-0.3,1.7-1.2c0-0.6-0.4-1-1.3-1c-0.7,0-1.4,0.3-1.7,0.5l-0.4-1.1c0.5-0.3,1.4-0.6,2.4-0.6c1.7,0,2.6,0.9,2.6,2
				c0,0.9-0.5,1.6-1.5,1.9v0c1,0.2,1.8,0.9,1.8,2.1c0,1.4-1.2,2.5-3.2,2.5c-1,0-1.9-0.3-2.3-0.6L138.6,379.2z"/>
			<path fill="#454746" d="M151,376.6c0,2.7-1,4.4-3,4.4c-1.9,0-2.9-1.7-3-4.3c0-2.6,1.1-4.3,3-4.3C150,372.3,151,374.1,151,376.6z
				 M146.6,376.7c0,2,0.6,3.1,1.4,3.1c0.9,0,1.4-1.1,1.4-3.1c0-1.9-0.5-3.1-1.4-3.1C147.1,373.6,146.6,374.6,146.6,376.7z"/>
			<path fill="#454746" d="M157.8,376.6c0,2.7-1,4.4-3,4.4c-1.9,0-2.9-1.7-3-4.3c0-2.6,1.1-4.3,3-4.3
				C156.9,372.3,157.8,374.1,157.8,376.6z M153.4,376.7c0,2,0.6,3.1,1.4,3.1c0.9,0,1.4-1.1,1.4-3.1c0-1.9-0.5-3.1-1.4-3.1
				C154,373.6,153.4,374.6,153.4,376.7z"/>
		</g>
	</g>
</g>
<g>
	<g>
		<g>
			<path fill="#454746" d="M141.7,350.4v-2.1h-3.8v-1l3.4-5.2h1.9v5h1.1v1.2h-1.1v2.1H141.7z M141.7,347.1v-2.3c0-0.5,0-1,0.1-1.4
				h-0.1c-0.3,0.5-0.5,0.9-0.7,1.4l-1.5,2.3l0,0H141.7z"/>
			<path fill="#454746" d="M151,346.2c0,2.7-1,4.4-3,4.4c-1.9,0-2.9-1.7-3-4.3c0-2.6,1.1-4.3,3-4.3C150,342,151,343.7,151,346.2z
				 M146.6,346.3c0,2,0.6,3.1,1.4,3.1c0.9,0,1.4-1.1,1.4-3.1c0-1.9-0.5-3.1-1.4-3.1C147.1,343.2,146.6,344.2,146.6,346.3z"/>
			<path fill="#454746" d="M157.8,346.2c0,2.7-1,4.4-3,4.4c-1.9,0-2.9-1.7-3-4.3c0-2.6,1.1-4.3,3-4.3
				C156.9,342,157.8,343.7,157.8,346.2z M153.4,346.3c0,2,0.6,3.1,1.4,3.1c0.9,0,1.4-1.1,1.4-3.1c0-1.9-0.5-3.1-1.4-3.1
				C154,343.2,153.4,344.2,153.4,346.3z"/>
		</g>
	</g>
</g>
<g>
	<g>
		<g>
			<path fill="#454746" d="M143.5,313.1h-3.2l-0.2,1.7c0.2,0,0.4,0,0.6,0c0.7,0,1.5,0.2,2,0.5c0.6,0.4,1.1,1.1,1.1,2.1
				c0,1.6-1.3,2.9-3.4,2.9c-1,0-1.8-0.2-2.2-0.5l0.3-1.2c0.4,0.2,1.1,0.4,1.8,0.4c0.9,0,1.8-0.5,1.8-1.5c0-0.9-0.7-1.6-2.4-1.6
				c-0.5,0-0.8,0-1.1,0.1l0.6-4.2h4.3V313.1z"/>
			<path fill="#454746" d="M151,315.9c0,2.7-1,4.4-3,4.4c-1.9,0-2.9-1.7-3-4.3c0-2.6,1.1-4.3,3-4.3C150,311.7,151,313.5,151,315.9z
				 M146.6,316c0,2,0.6,3.1,1.4,3.1c0.9,0,1.4-1.1,1.4-3.1c0-1.9-0.5-3.1-1.4-3.1C147.1,312.9,146.6,313.9,146.6,316z"/>
			<path fill="#454746" d="M157.8,315.9c0,2.7-1,4.4-3,4.4c-1.9,0-2.9-1.7-3-4.3c0-2.6,1.1-4.3,3-4.3
				C156.9,311.7,157.8,313.5,157.8,315.9z M153.4,316c0,2,0.6,3.1,1.4,3.1c0.9,0,1.4-1.1,1.4-3.1c0-1.9-0.5-3.1-1.4-3.1
				C154,312.9,153.4,313.9,153.4,316z"/>
		</g>
	</g>
</g>
<g>
	<g>
		<g>
			<path fill="#454746" d="M143.3,282.4c-0.2,0-0.5,0-0.8,0c-1.7,0.2-2.6,1.3-2.8,2.4h0c0.4-0.5,1-0.8,1.9-0.8c1.4,0,2.5,1,2.5,2.7
				c0,1.6-1.2,3-2.9,3c-2,0-3.1-1.5-3.1-3.6c0-1.6,0.6-2.9,1.4-3.7c0.8-0.7,1.8-1.1,3-1.2c0.3,0,0.6,0,0.8,0L143.3,282.4z
				 M142.6,286.9c0-1-0.5-1.7-1.4-1.7c-0.6,0-1.1,0.4-1.4,0.9c-0.1,0.1-0.1,0.3-0.1,0.5c0,1.1,0.6,2,1.6,2
				C142,288.6,142.6,287.9,142.6,286.9z"/>
			<path fill="#454746" d="M151,285.4c0,2.7-1,4.4-3,4.4c-1.9,0-2.9-1.7-3-4.3c0-2.6,1.1-4.3,3-4.3C150,281.1,151,282.9,151,285.4z
				 M146.6,285.5c0,2,0.6,3.1,1.4,3.1c0.9,0,1.4-1.1,1.4-3.1c0-1.9-0.5-3.1-1.4-3.1C147.1,282.4,146.6,283.4,146.6,285.5z"/>
			<path fill="#454746" d="M157.8,285.4c0,2.7-1,4.4-3,4.4c-1.9,0-2.9-1.7-3-4.3c0-2.6,1.1-4.3,3-4.3
				C156.9,281.1,157.8,282.9,157.8,285.4z M153.4,285.5c0,2,0.6,3.1,1.4,3.1c0.9,0,1.4-1.1,1.4-3.1c0-1.9-0.5-3.1-1.4-3.1
				C154,282.4,153.4,283.4,153.4,285.5z"/>
		</g>
	</g>
</g>
<g>
	<g>
		<g>
			<path fill="#454746" d="M144,250.9v1l-3.5,7.3h-1.7l3.5-7v0h-3.9v-1.3H144z"/>
			<path fill="#454746" d="M151,255c0,2.7-1,4.4-3,4.4c-1.9,0-2.9-1.7-3-4.3c0-2.6,1.1-4.3,3-4.3C150,250.8,151,252.5,151,255z
				 M146.6,255.1c0,2,0.6,3.1,1.4,3.1c0.9,0,1.4-1.1,1.4-3.1c0-1.9-0.5-3.1-1.4-3.1C147.1,252,146.6,253,146.6,255.1z"/>
			<path fill="#454746" d="M157.8,255c0,2.7-1,4.4-3,4.4c-1.9,0-2.9-1.7-3-4.3c0-2.6,1.1-4.3,3-4.3
				C156.9,250.8,157.8,252.5,157.8,255z M153.4,255.1c0,2,0.6,3.1,1.4,3.1c0.9,0,1.4-1.1,1.4-3.1c0-1.9-0.5-3.1-1.4-3.1
				C154,252,153.4,253,153.4,255.1z"/>
		</g>
	</g>
</g>
<g>
	<g>
		<g>
			<path fill="#454746" d="M138.1,226.7c0-1,0.6-1.7,1.6-2.2v0c-0.9-0.4-1.3-1.1-1.3-1.8c0-1.4,1.2-2.3,2.8-2.3
				c1.8,0,2.6,1.1,2.6,2.1c0,0.7-0.4,1.4-1.3,1.9v0c0.9,0.3,1.6,1.1,1.6,2.1c0,1.5-1.3,2.5-3,2.5C139.1,229,138.1,227.8,138.1,226.7
				z M142.5,226.6c0-0.8-0.6-1.3-1.5-1.6c-0.8,0.2-1.2,0.8-1.2,1.5c0,0.7,0.5,1.3,1.4,1.3C142,227.8,142.5,227.3,142.5,226.6z
				 M139.9,222.6c0,0.7,0.6,1.1,1.4,1.3c0.6-0.2,1-0.6,1-1.3c0-0.6-0.3-1.2-1.2-1.2C140.3,221.4,139.9,222,139.9,222.6z"/>
			<path fill="#454746" d="M151,224.6c0,2.7-1,4.4-3,4.4c-1.9,0-2.9-1.7-3-4.3c0-2.6,1.1-4.3,3-4.3C150,220.4,151,222.1,151,224.6z
				 M146.6,224.7c0,2,0.6,3.1,1.4,3.1c0.9,0,1.4-1.1,1.4-3.1c0-1.9-0.5-3.1-1.4-3.1C147.1,221.6,146.6,222.6,146.6,224.7z"/>
			<path fill="#454746" d="M157.8,224.6c0,2.7-1,4.4-3,4.4c-1.9,0-2.9-1.7-3-4.3c0-2.6,1.1-4.3,3-4.3
				C156.9,220.4,157.8,222.1,157.8,224.6z M153.4,224.7c0,2,0.6,3.1,1.4,3.1c0.9,0,1.4-1.1,1.4-3.1c0-1.9-0.5-3.1-1.4-3.1
				C154,221.6,153.4,222.6,153.4,224.7z"/>
		</g>
	</g>
</g>
<g>
	<g>
		<g>
			<path fill="#454746" d="M138.9,197.3c0.2,0,0.5,0,0.9,0c0.6-0.1,1.2-0.3,1.7-0.6c0.5-0.4,0.9-1.1,1.1-1.8l0,0
				c-0.4,0.5-1,0.7-1.8,0.7c-1.4,0-2.5-1-2.5-2.6c0-1.6,1.2-3,3-3c1.9,0,3,1.5,3,3.5c0,1.8-0.6,3-1.4,3.9c-0.7,0.7-1.7,1.1-2.8,1.1
				c-0.4,0-0.7,0-0.9,0V197.3z M139.7,192.8c0,0.9,0.5,1.5,1.4,1.5c0.6,0,1.1-0.3,1.3-0.7c0.1-0.1,0.1-0.2,0.1-0.4
				c0-1.1-0.4-2.1-1.4-2.1C140.3,191.1,139.7,191.8,139.7,192.8z"/>
			<path fill="#454746" d="M151,194.2c0,2.7-1,4.4-3,4.4c-1.9,0-2.9-1.7-3-4.3c0-2.6,1.1-4.3,3-4.3C150,190,151,191.7,151,194.2z
				 M146.6,194.3c0,2,0.6,3.1,1.4,3.1c0.9,0,1.4-1.1,1.4-3.1c0-1.9-0.5-3.1-1.4-3.1C147.1,191.2,146.6,192.2,146.6,194.3z"/>
			<path fill="#454746" d="M157.8,194.2c0,2.7-1,4.4-3,4.4c-1.9,0-2.9-1.7-3-4.3c0-2.6,1.1-4.3,3-4.3
				C156.9,190,157.8,191.7,157.8,194.2z M153.4,194.3c0,2,0.6,3.1,1.4,3.1c0.9,0,1.4-1.1,1.4-3.1c0-1.9-0.5-3.1-1.4-3.1
				C154,191.2,153.4,192.2,153.4,194.3z"/>
		</g>
	</g>
</g>
<g>
	<g>
		<g>
			<path fill="#454746" d="M133.8,161.1L133.8,161.1l-1.5,0.8l-0.3-1.2l2-1h1.3v8.3h-1.5V161.1z"/>
			<path fill="#454746" d="M144.1,163.8c0,2.7-1,4.4-3,4.4c-1.9,0-2.9-1.7-3-4.3c0-2.6,1.1-4.3,3-4.3
				C143.2,159.6,144.1,161.3,144.1,163.8z M139.7,163.9c0,2,0.6,3.1,1.4,3.1c0.9,0,1.4-1.1,1.4-3.1c0-1.9-0.5-3.1-1.4-3.1
				C140.3,160.8,139.7,161.8,139.7,163.9z"/>
			<path fill="#454746" d="M151,163.8c0,2.7-1,4.4-3,4.4c-1.9,0-2.9-1.7-3-4.3c0-2.6,1.1-4.3,3-4.3C150,159.6,151,161.3,151,163.8z
				 M146.6,163.9c0,2,0.6,3.1,1.4,3.1c0.9,0,1.4-1.1,1.4-3.1c0-1.9-0.5-3.1-1.4-3.1C147.1,160.8,146.6,161.8,146.6,163.9z"/>
			<path fill="#454746" d="M157.8,163.8c0,2.7-1,4.4-3,4.4c-1.9,0-2.9-1.7-3-4.3c0-2.6,1.1-4.3,3-4.3
				C156.9,159.6,157.8,161.3,157.8,163.8z M153.4,163.9c0,2,0.6,3.1,1.4,3.1c0.9,0,1.4-1.1,1.4-3.1c0-1.9-0.5-3.1-1.4-3.1
				C154,160.8,153.4,161.8,153.4,163.9z"/>
		</g>
	</g>
</g>
<g>
	<g>
		<g>
			<path fill="#454746" d="M157.8,469.1c0,2.7-1,4.4-3,4.4c-1.9,0-2.9-1.7-3-4.3c0-2.6,1.1-4.3,3-4.3
				C156.9,464.8,157.8,466.6,157.8,469.1z M153.4,469.1c0,2,0.6,3.1,1.4,3.1c0.9,0,1.4-1.1,1.4-3.1c0-1.9-0.5-3.1-1.4-3.1
				C154,466,153.4,467.1,153.4,469.1z"/>
		</g>
	</g>
</g>
<line fill="none" stroke="#454746" stroke-miterlimit="10" x1="519.3" y1="468" x2="519.3" y2="472.3"/>
<line fill="none" stroke="#454746" stroke-miterlimit="10" x1="432.7" y1="468" x2="432.7" y2="472.3"/>
<g>
	
		<polyline fill="none" stroke="#54B6CC" stroke-width="4" stroke-linecap="round" stroke-linejoin="round" stroke-miterlimit="10" points="
		174.5,455.1 260.7,455.1 314.5,452.7 410.5,455.1 430.1,453.9 459.9,449.8 495.9,441.2 543.4,448.1 568.4,455.1 637.8,455.1 	"/>
	<g>
		<g>
			
				<line fill="none" stroke="#D65151" stroke-width="4" stroke-linecap="round" stroke-linejoin="round" x1="174.5" y1="455.2" x2="180.4" y2="455.3"/>
			
				<polyline fill="none" stroke="#D65151" stroke-width="4" stroke-linecap="round" stroke-linejoin="round" stroke-dasharray="12.2051,12.2051" points="
				192.7,455.6 271.3,457.6 320.5,455.2 397.5,457.6 432.1,455.2 502.6,455.2 570.8,456.4 625.7,455.4 			"/>
			
				<line fill="none" stroke="#D65151" stroke-width="4" stroke-linecap="round" stroke-linejoin="round" x1="631.8" y1="455.3" x2="637.8" y2="455.2"/>
		</g>
	</g>
</g>
<g>
	<g>
		<path fill="#454746" d="M766.9,169.9c-0.1-1.2-0.1-2.7-0.1-4h0c-0.3,1.1-0.7,2.4-1.1,3.6l-1.4,4.1h-1.3l-1.3-4
			c-0.4-1.2-0.7-2.5-1-3.7h0c0,1.2-0.1,2.7-0.2,4l-0.2,3.8h-1.6l0.6-9.4h2.3l1.2,3.8c0.3,1.1,0.6,2.2,0.9,3.3h0
			c0.3-1,0.6-2.2,0.9-3.3l1.3-3.8h2.2l0.5,9.4h-1.7L766.9,169.9z"/>
		<path fill="#454746" d="M771.7,170.8c0,1.2,1,1.8,2.1,1.8c0.8,0,1.4-0.1,1.9-0.3l0.3,1.2c-0.6,0.2-1.4,0.4-2.4,0.4
			c-2.2,0-3.5-1.4-3.5-3.4c0-1.9,1.1-3.7,3.3-3.7c2.2,0,2.9,1.8,2.9,3.3c0,0.3,0,0.6-0.1,0.7H771.7z M774.7,169.6
			c0-0.6-0.3-1.7-1.4-1.7c-1.1,0-1.5,1-1.6,1.7H774.7z"/>
		<path fill="#454746" d="M781.6,173.8l-0.1-0.8h0c-0.4,0.5-1.1,0.9-2,0.9c-1.4,0-2.1-1-2.1-2c0-1.7,1.5-2.6,4-2.6v-0.1
			c0-0.4-0.2-1.2-1.4-1.2c-0.7,0-1.4,0.2-1.8,0.5l-0.3-1.1c0.5-0.3,1.4-0.6,2.5-0.6c2.2,0,2.8,1.4,2.8,2.9v2.5c0,0.6,0,1.2,0.1,1.6
			H781.6z M781.3,170.4c-1.2,0-2.4,0.2-2.4,1.3c0,0.7,0.4,1,1,1c0.7,0,1.2-0.4,1.3-0.9c0-0.1,0.1-0.3,0.1-0.4V170.4z"/>
		<path fill="#454746" d="M784.8,169c0-0.8,0-1.4-0.1-2h1.5l0.1,1h0c0.3-0.5,1-1.2,2.2-1.2c1.2,0,2.4,0.8,2.4,2.9v4h-1.7v-3.9
			c0-1-0.4-1.7-1.3-1.7c-0.7,0-1.2,0.5-1.3,1c-0.1,0.2-0.1,0.4-0.1,0.6v4h-1.7V169z"/>
		<path fill="#454746" d="M766.9,188.4c-0.1-1.2-0.1-2.7-0.1-4h0c-0.3,1.1-0.7,2.4-1.1,3.6l-1.4,4.1h-1.3l-1.3-4
			c-0.4-1.2-0.7-2.5-1-3.7h0c0,1.2-0.1,2.7-0.2,4l-0.2,3.8h-1.6l0.6-9.4h2.3l1.2,3.8c0.3,1.1,0.6,2.2,0.9,3.3h0
			c0.3-1,0.6-2.2,0.9-3.3l1.3-3.8h2.2l0.5,9.4h-1.7L766.9,188.4z"/>
		<path fill="#454746" d="M771.7,189.3c0,1.2,1,1.8,2.1,1.8c0.8,0,1.4-0.1,1.9-0.3l0.3,1.2c-0.6,0.2-1.4,0.4-2.4,0.4
			c-2.2,0-3.5-1.4-3.5-3.4c0-1.9,1.1-3.7,3.3-3.7c2.2,0,2.9,1.8,2.9,3.3c0,0.3,0,0.6-0.1,0.7H771.7z M774.7,188.1
			c0-0.6-0.3-1.7-1.4-1.7c-1.1,0-1.5,1-1.6,1.7H774.7z"/>
		<path fill="#454746" d="M784,182.3v8c0,0.7,0,1.5,0.1,1.9h-1.5l-0.1-1.1h0c-0.4,0.8-1.2,1.2-2.2,1.2c-1.6,0-2.9-1.4-2.9-3.5
			c0-2.3,1.4-3.6,3.1-3.6c0.9,0,1.6,0.4,1.9,0.9h0v-3.9H784z M782.3,188.3c0-0.1,0-0.3,0-0.4c-0.2-0.7-0.7-1.2-1.5-1.2
			c-1.1,0-1.7,1-1.7,2.3c0,1.2,0.6,2.2,1.7,2.2c0.7,0,1.3-0.5,1.5-1.2c0-0.2,0.1-0.3,0.1-0.5V188.3z"/>
		<path fill="#454746" d="M787.7,183.5c0,0.5-0.4,0.9-1,0.9c-0.6,0-1-0.4-1-0.9c0-0.5,0.4-0.9,1-0.9
			C787.3,182.6,787.7,183,787.7,183.5z M785.9,192.2v-6.8h1.7v6.8H785.9z"/>
		<path fill="#454746" d="M793.3,192.2l-0.1-0.8h0c-0.4,0.5-1.1,0.9-2,0.9c-1.4,0-2.1-1-2.1-2c0-1.7,1.5-2.6,4-2.6v-0.1
			c0-0.4-0.2-1.2-1.4-1.2c-0.7,0-1.4,0.2-1.8,0.5l-0.3-1.1c0.5-0.3,1.4-0.6,2.5-0.6c2.2,0,2.8,1.4,2.8,2.9v2.5c0,0.6,0,1.2,0.1,1.6
			H793.3z M793.1,188.9c-1.2,0-2.4,0.2-2.4,1.3c0,0.7,0.4,1,1,1c0.7,0,1.2-0.4,1.3-0.9c0-0.1,0.1-0.3,0.1-0.4V188.9z"/>
		<path fill="#454746" d="M796.6,187.5c0-0.8,0-1.4-0.1-2h1.5l0.1,1h0c0.3-0.5,1-1.2,2.2-1.2c1.2,0,2.4,0.8,2.4,2.9v4H801v-3.9
			c0-1-0.4-1.7-1.3-1.7c-0.7,0-1.2,0.5-1.3,1c-0.1,0.2-0.1,0.4-0.1,0.6v4h-1.7V187.5z"/>
	</g>
	
		<line fill="none" stroke="#54B6CC" stroke-width="4" stroke-linecap="round" stroke-linejoin="round" stroke-miterlimit="10" x1="721.8" y1="168.7" x2="744.8" y2="168.7"/>
	<g>
		<g>
			
				<line fill="none" stroke="#D65151" stroke-width="4" stroke-linecap="round" stroke-linejoin="round" x1="721.8" y1="187.2" x2="724.8" y2="187.2"/>
			
				<line fill="none" stroke="#D65151" stroke-width="4" stroke-linecap="round" stroke-linejoin="round" stroke-dasharray="5.6667,5.6667" x1="730.5" y1="187.2" x2="739" y2="187.2"/>
			
				<line fill="none" stroke="#D65151" stroke-width="4" stroke-linecap="round" stroke-linejoin="round" x1="741.8" y1="187.2" x2="744.8" y2="187.2"/>
		</g>
	</g>
</g>
</svg>
