<?xml version="1.0" encoding="utf-8"?>
<!-- Generator: Adobe Illustrator 18.0.0, SVG Export Plug-In . SVG Version: 6.00 Build 0)  -->
<!DOCTYPE svg PUBLIC "-//W3C//DTD SVG 1.1//EN" "http://www.w3.org/Graphics/SVG/1.1/DTD/svg11.dtd">
<svg version="1.1" id="graphs" xmlns="http://www.w3.org/2000/svg" xmlns:xlink="http://www.w3.org/1999/xlink" x="0px" y="0px"
	 viewBox="0 0 900 600" enable-background="new 0 0 900 600" xml:space="preserve">
<path fill="#F8FAF6" d="M694.7,471.6H171.5c-1.3,0-2.4-1.1-2.4-2.4V161.7c0-1.3,1.1-2.4,2.4-2.4h523.2c1.3,0,2.4,1.1,2.4,2.4v307.5
	C697.1,470.5,696,471.6,694.7,471.6z"/>
<g>
	<line fill="none" stroke="#D6D6D6" stroke-miterlimit="10" x1="173.1" y1="163.3" x2="693.1" y2="163.3"/>
	<line fill="none" stroke="#D6D6D6" stroke-miterlimit="10" x1="173.1" y1="224.1" x2="693.1" y2="224.1"/>
	<line fill="none" stroke="#D6D6D6" stroke-miterlimit="10" x1="173.1" y1="284.9" x2="693.1" y2="284.9"/>
	<line fill="none" stroke="#D6D6D6" stroke-miterlimit="10" x1="173.1" y1="345.7" x2="693.1" y2="345.7"/>
	<line fill="none" stroke="#D6D6D6" stroke-miterlimit="10" x1="173.1" y1="406.5" x2="693.1" y2="406.5"/>
</g>
<g>
	<path fill="#454746" d="M320.7,130.7H317v-2h9.8v2H323v11h-2.4V130.7z"/>
	<path fill="#454746" d="M335.6,136.9c0,3.4-2.4,5-4.8,5c-2.6,0-4.7-1.8-4.7-4.8c0-3.1,2-5,4.8-5C333.7,132.1,335.6,134,335.6,136.9
		z M328.5,136.9c0,1.8,0.9,3.2,2.3,3.2c1.3,0,2.3-1.3,2.3-3.2c0-1.5-0.7-3.1-2.3-3.1C329.2,133.8,328.5,135.4,328.5,136.9z"/>
	<path fill="#454746" d="M337.5,135.4c0-1.2,0-2.2-0.1-3.1h2.1l0.1,1.4h0c0.7-1.1,1.8-1.7,3.2-1.7c2.2,0,3.9,1.8,3.9,4.8
		c0,3.4-2.1,5-4.3,5c-1.2,0-2.1-0.5-2.6-1.2h0v4.8h-2.4V135.4z M339.9,137.7c0,0.2,0,0.4,0.1,0.7c0.2,1,1.1,1.7,2.1,1.7
		c1.5,0,2.4-1.2,2.4-3.1c0-1.7-0.8-3-2.3-3c-1,0-1.9,0.7-2.1,1.7c-0.1,0.2-0.1,0.4-0.1,0.6V137.7z"/>
	<path fill="#454746" d="M359.6,141.3c-0.5,0.2-1.5,0.5-2.6,0.5c-2.9,0-4.8-1.9-4.8-4.8c0-2.8,1.9-5,5.2-5c0.9,0,1.7,0.2,2.3,0.4
		l-0.4,1.8c-0.4-0.2-0.9-0.4-1.8-0.4c-1.8,0-2.9,1.3-2.9,3c0,1.9,1.2,3,2.9,3c0.8,0,1.4-0.2,1.9-0.4L359.6,141.3z"/>
	<path fill="#454746" d="M366.6,141.6l-0.2-1h-0.1c-0.6,0.7-1.6,1.2-2.8,1.2c-1.9,0-2.9-1.4-2.9-2.8c0-2.4,2.1-3.6,5.5-3.5v-0.2
		c0-0.6-0.2-1.6-1.9-1.6c-0.9,0-1.9,0.3-2.5,0.7l-0.5-1.5c0.7-0.4,1.9-0.8,3.4-0.8c3,0,3.9,1.9,3.9,3.9v3.4c0,0.8,0,1.7,0.1,2.2
		H366.6z M366.3,137c-1.7,0-3.3,0.3-3.3,1.7c0,0.9,0.6,1.3,1.3,1.3c0.9,0,1.6-0.6,1.8-1.3c0.1-0.2,0.1-0.4,0.1-0.5V137z"/>
	<path fill="#454746" d="M371.1,135.3c0-1.3,0-2.2-0.1-3h2.1l0.1,1.8h0.1c0.5-1.3,1.6-2,2.6-2c0.2,0,0.4,0,0.6,0.1v2.2
		c-0.2,0-0.4-0.1-0.7-0.1c-1.1,0-1.9,0.7-2.1,1.8c0,0.2-0.1,0.5-0.1,0.7v4.8h-2.4V135.3z"/>
	<path fill="#454746" d="M377.8,139.4c0.5,0.3,1.6,0.7,2.4,0.7c1,0,1.5-0.4,1.5-1c0-0.6-0.4-1-1.5-1.4c-1.8-0.6-2.6-1.6-2.6-2.7
		c0-1.7,1.4-2.9,3.5-2.9c1,0,1.9,0.3,2.5,0.6l-0.5,1.7c-0.4-0.2-1.2-0.5-2-0.5c-0.8,0-1.3,0.4-1.3,1c0,0.6,0.4,0.9,1.6,1.3
		c1.7,0.6,2.5,1.5,2.5,2.9c0,1.7-1.3,2.9-3.8,2.9c-1.1,0-2.2-0.3-2.8-0.7L377.8,139.4z"/>
	<path fill="#454746" d="M392.4,129.7c0,0.7-0.5,1.3-1.3,1.3c-0.8,0-1.3-0.6-1.3-1.3c0-0.7,0.5-1.3,1.3-1.3
		C391.9,128.4,392.4,128.9,392.4,129.7z M389.9,141.6v-9.3h2.4v9.3H389.9z"/>
	<path fill="#454746" d="M394.8,135c0-1.1,0-2-0.1-2.8h2.1l0.1,1.4h0.1c0.4-0.7,1.4-1.6,3-1.6c1.6,0,3.3,1.1,3.3,4v5.5h-2.4v-5.3
		c0-1.3-0.5-2.4-1.8-2.4c-0.9,0-1.6,0.7-1.8,1.4c-0.1,0.2-0.1,0.5-0.1,0.8v5.5h-2.4V135z"/>
	<path fill="#454746" d="M411.5,137.6c0.1,1.7,1.4,2.4,2.9,2.4c1.1,0,1.9-0.2,2.6-0.4l0.3,1.6c-0.8,0.3-1.9,0.6-3.3,0.6
		c-3,0-4.8-1.9-4.8-4.7c0-2.6,1.6-5,4.6-5c3,0,4,2.5,4,4.5c0,0.4,0,0.8-0.1,1H411.5z M415.6,136c0-0.9-0.4-2.3-1.9-2.3
		c-1.5,0-2.1,1.3-2.2,2.3H415.6z"/>
	<path fill="#454746" d="M425,141.6l-0.2-1h-0.1c-0.6,0.7-1.6,1.2-2.8,1.2c-1.9,0-2.9-1.4-2.9-2.8c0-2.4,2.1-3.6,5.5-3.5v-0.2
		c0-0.6-0.2-1.6-1.9-1.6c-0.9,0-1.9,0.3-2.5,0.7l-0.5-1.5c0.7-0.4,1.9-0.8,3.4-0.8c3,0,3.9,1.9,3.9,3.9v3.4c0,0.8,0,1.7,0.1,2.2H425
		z M424.6,137c-1.7,0-3.3,0.3-3.3,1.7c0,0.9,0.6,1.3,1.3,1.3c0.9,0,1.6-0.6,1.8-1.3c0.1-0.2,0.1-0.4,0.1-0.5V137z"/>
	<path fill="#454746" d="M436.3,141.3c-0.5,0.2-1.5,0.5-2.6,0.5c-2.9,0-4.8-1.9-4.8-4.8c0-2.8,1.9-5,5.2-5c0.9,0,1.7,0.2,2.3,0.4
		l-0.4,1.8c-0.4-0.2-0.9-0.4-1.8-0.4c-1.8,0-2.9,1.3-2.9,3c0,1.9,1.2,3,2.9,3c0.8,0,1.4-0.2,1.9-0.4L436.3,141.3z"/>
	<path fill="#454746" d="M438.1,128h2.4v5.6h0c0.3-0.4,0.7-0.8,1.2-1.1c0.5-0.3,1-0.4,1.6-0.4c1.6,0,3.3,1.1,3.3,4.1v5.5h-2.4v-5.2
		c0-1.4-0.5-2.4-1.8-2.4c-0.9,0-1.6,0.6-1.8,1.3c-0.1,0.2-0.1,0.4-0.1,0.7v5.6h-2.4V128z"/>
	<path fill="#454746" d="M453,135.4c0-1.2,0-2.2-0.1-3.1h2.1l0.1,1.4h0c0.7-1.1,1.8-1.7,3.2-1.7c2.2,0,3.9,1.8,3.9,4.8
		c0,3.4-2.1,5-4.3,5c-1.2,0-2.1-0.5-2.6-1.2h0v4.8H453V135.4z M455.4,137.7c0,0.2,0,0.4,0.1,0.7c0.2,1,1.1,1.7,2.1,1.7
		c1.5,0,2.4-1.2,2.4-3.1c0-1.7-0.8-3-2.3-3c-1,0-1.9,0.7-2.1,1.7c-0.1,0.2-0.1,0.4-0.1,0.6V137.7z"/>
	<path fill="#454746" d="M464.3,135.3c0-1.3,0-2.2-0.1-3h2.1l0.1,1.8h0.1c0.5-1.3,1.6-2,2.6-2c0.2,0,0.4,0,0.6,0.1v2.2
		c-0.2,0-0.4-0.1-0.7-0.1c-1.1,0-1.9,0.7-2.1,1.8c0,0.2-0.1,0.5-0.1,0.7v4.8h-2.4V135.3z"/>
	<path fill="#454746" d="M473.6,129.7c0,0.7-0.5,1.3-1.3,1.3c-0.8,0-1.3-0.6-1.3-1.3c0-0.7,0.5-1.3,1.3-1.3
		C473.1,128.4,473.6,128.9,473.6,129.7z M471.1,141.6v-9.3h2.4v9.3H471.1z"/>
	<path fill="#454746" d="M482.9,141.3c-0.5,0.2-1.5,0.5-2.6,0.5c-2.9,0-4.8-1.9-4.8-4.8c0-2.8,1.9-5,5.2-5c0.9,0,1.7,0.2,2.3,0.4
		l-0.4,1.8c-0.4-0.2-0.9-0.4-1.8-0.4c-1.8,0-2.9,1.3-2.9,3c0,1.9,1.2,3,2.9,3c0.8,0,1.4-0.2,1.9-0.4L482.9,141.3z"/>
	<path fill="#454746" d="M486.1,137.6c0.1,1.7,1.4,2.4,2.9,2.4c1.1,0,1.9-0.2,2.6-0.4l0.3,1.6c-0.8,0.3-1.9,0.6-3.3,0.6
		c-3,0-4.8-1.9-4.8-4.7c0-2.6,1.6-5,4.6-5c3,0,4,2.5,4,4.5c0,0.4,0,0.8-0.1,1H486.1z M490.2,136c0-0.9-0.4-2.3-1.9-2.3
		c-1.5,0-2.1,1.3-2.2,2.3H490.2z"/>
	<path fill="#454746" d="M498.3,135.3c0-1.3,0-2.2-0.1-3h2.1l0.1,1.8h0.1c0.5-1.3,1.6-2,2.6-2c0.2,0,0.4,0,0.6,0.1v2.2
		c-0.2,0-0.4-0.1-0.7-0.1c-1.1,0-1.9,0.7-2.1,1.8c0,0.2-0.1,0.5-0.1,0.7v4.8h-2.4V135.3z"/>
	<path fill="#454746" d="M510.3,141.6l-0.2-1H510c-0.6,0.7-1.6,1.2-2.8,1.2c-1.9,0-2.9-1.4-2.9-2.8c0-2.4,2.1-3.6,5.5-3.5v-0.2
		c0-0.6-0.2-1.6-1.9-1.6c-0.9,0-1.9,0.3-2.5,0.7l-0.5-1.5c0.7-0.4,1.9-0.8,3.4-0.8c3,0,3.9,1.9,3.9,3.9v3.4c0,0.8,0,1.7,0.1,2.2
		H510.3z M510,137c-1.7,0-3.3,0.3-3.3,1.7c0,0.9,0.6,1.3,1.3,1.3c0.9,0,1.6-0.6,1.8-1.3c0.1-0.2,0.1-0.4,0.1-0.5V137z"/>
	<path fill="#454746" d="M514.8,135c0-1.1,0-2-0.1-2.8h2.1l0.1,1.4h0.1c0.4-0.7,1.4-1.6,3-1.6c1.6,0,3.3,1.1,3.3,4v5.5h-2.4v-5.3
		c0-1.3-0.5-2.4-1.8-2.4c-0.9,0-1.6,0.7-1.8,1.4c-0.1,0.2-0.1,0.5-0.1,0.8v5.5h-2.4V135z"/>
	<path fill="#454746" d="M534.3,132.3c0,0.6-0.1,1.4-0.1,2.7v5.3c0,2-0.4,3.4-1.4,4.2c-1,0.9-2.3,1.1-3.6,1.1
		c-1.2,0-2.5-0.2-3.3-0.7l0.5-1.8c0.6,0.3,1.6,0.7,2.7,0.7c1.5,0,2.7-0.8,2.7-2.8v-0.8h0c-0.5,0.8-1.5,1.4-2.7,1.4
		c-2.3,0-4-1.9-4-4.6c0-3.1,2-4.9,4.2-4.9c1.4,0,2.3,0.7,2.7,1.5h0l0.1-1.2H534.3z M531.8,136c0-0.2,0-0.4-0.1-0.6
		c-0.2-0.9-0.9-1.5-1.9-1.5c-1.3,0-2.3,1.2-2.3,3.1c0,1.6,0.8,2.9,2.3,2.9c0.9,0,1.7-0.6,1.9-1.4c0.1-0.2,0.1-0.6,0.1-0.8V136z"/>
	<path fill="#454746" d="M538.4,137.6c0.1,1.7,1.4,2.4,2.9,2.4c1.1,0,1.9-0.2,2.6-0.4l0.3,1.6c-0.8,0.3-1.9,0.6-3.3,0.6
		c-3,0-4.8-1.9-4.8-4.7c0-2.6,1.6-5,4.6-5c3,0,4,2.5,4,4.5c0,0.4,0,0.8-0.1,1H538.4z M542.5,136c0-0.9-0.4-2.3-1.9-2.3
		c-1.5,0-2.1,1.3-2.2,2.3H542.5z"/>
</g>
<g>
	<line fill="none" stroke="#454746" stroke-miterlimit="10" x1="173.1" y1="163.3" x2="169.1" y2="163.3"/>
	<line fill="none" stroke="#454746" stroke-miterlimit="10" x1="173.1" y1="224.1" x2="169.1" y2="224.1"/>
	<line fill="none" stroke="#454746" stroke-miterlimit="10" x1="173.1" y1="284.9" x2="169.1" y2="284.9"/>
	<line fill="none" stroke="#454746" stroke-miterlimit="10" x1="173.1" y1="345.7" x2="169.1" y2="345.7"/>
	<line fill="none" stroke="#454746" stroke-miterlimit="10" x1="173.1" y1="406.5" x2="169.1" y2="406.5"/>
</g>
<line fill="none" stroke="#454746" stroke-miterlimit="10" x1="173.1" y1="467.3" x2="173.1" y2="471.6"/>
<line fill="none" stroke="#454746" stroke-miterlimit="10" x1="277.1" y1="467.3" x2="277.1" y2="471.6"/>
<line fill="none" stroke="#454746" stroke-miterlimit="10" x1="381.1" y1="467.3" x2="381.1" y2="471.6"/>
<line fill="none" stroke="#454746" stroke-miterlimit="10" x1="485.1" y1="467.3" x2="485.1" y2="471.6"/>
<line fill="none" stroke="#454746" stroke-miterlimit="10" x1="693.1" y1="467.3" x2="693.1" y2="471.6"/>
<g>
	<g>
		<path fill="#454746" d="M207.4,484.8c0,2.7-1,4.4-3,4.4c-1.9,0-2.9-1.7-3-4.3c0-2.6,1.1-4.3,3-4.3
			C206.5,480.5,207.4,482.3,207.4,484.8z M203,484.9c0,2,0.6,3.1,1.4,3.1c0.9,0,1.4-1.1,1.4-3.1c0-1.9-0.5-3.1-1.4-3.1
			C203.6,481.7,203,482.8,203,484.9z"/>
		<path fill="#454746" d="M211.5,485v1.1h-3.3V485H211.5z"/>
		<path fill="#454746" d="M212.4,489v-1l1-0.9c2-1.8,2.9-2.8,2.9-3.9c0-0.7-0.4-1.4-1.5-1.4c-0.7,0-1.4,0.4-1.8,0.7l-0.5-1.1
			c0.6-0.5,1.5-0.9,2.6-0.9c1.8,0,2.7,1.2,2.7,2.5c0,1.5-1,2.6-2.5,4l-0.7,0.6v0h3.4v1.3H212.4z"/>
		<path fill="#454746" d="M225.1,484.8c0,2.7-1,4.4-3,4.4c-1.9,0-2.9-1.7-3-4.3c0-2.6,1.1-4.3,3-4.3
			C224.2,480.5,225.1,482.3,225.1,484.8z M220.7,484.9c0,2,0.6,3.1,1.4,3.1c0.9,0,1.4-1.1,1.4-3.1c0-1.9-0.5-3.1-1.4-3.1
			C221.3,481.7,220.7,482.8,220.7,484.9z"/>
		<path fill="#454746" d="M225.7,490.5c0.3-1,0.7-2.3,0.9-3.4l1.7-0.1c-0.4,1.2-0.9,2.6-1.4,3.4L225.7,490.5z"/>
		<path fill="#454746" d="M235,484.8c0,2.7-1,4.4-3,4.4c-1.9,0-2.9-1.7-3-4.3c0-2.6,1.1-4.3,3-4.3C234.1,480.5,235,482.3,235,484.8z
			 M230.6,484.9c0,2,0.6,3.1,1.4,3.1c0.9,0,1.4-1.1,1.4-3.1c0-1.9-0.5-3.1-1.4-3.1C231.2,481.7,230.6,482.8,230.6,484.9z"/>
		<path fill="#454746" d="M241.9,484.8c0,2.7-1,4.4-3,4.4c-1.9,0-2.9-1.7-3-4.3c0-2.6,1.1-4.3,3-4.3
			C241,480.5,241.9,482.3,241.9,484.8z M237.5,484.9c0,2,0.6,3.1,1.4,3.1c0.9,0,1.4-1.1,1.4-3.1c0-1.9-0.5-3.1-1.4-3.1
			C238.1,481.7,237.5,482.8,237.5,484.9z"/>
		<path fill="#454746" d="M248.7,484.8c0,2.7-1,4.4-3,4.4c-1.9,0-2.9-1.7-3-4.3c0-2.6,1.1-4.3,3-4.3
			C247.8,480.5,248.7,482.3,248.7,484.8z M244.3,484.9c0,2,0.6,3.1,1.4,3.1c0.9,0,1.4-1.1,1.4-3.1c0-1.9-0.5-3.1-1.4-3.1
			C244.9,481.7,244.3,482.8,244.3,484.9z"/>
	</g>
</g>
<g>
	<g>
		<g>
			<path fill="#454746" d="M155.7,403.4L155.7,403.4l-1.5,0.8l-0.3-1.2l2-1h1.3v8.3h-1.5V403.4z"/>
		</g>
	</g>
</g>
<g>
	<g>
		<g>
			<path fill="#454746" d="M158.2,468.4c0,2.7-1,4.4-3,4.4c-1.9,0-2.9-1.7-3-4.3c0-2.6,1.1-4.3,3-4.3
				C157.3,464.1,158.2,465.9,158.2,468.4z M153.8,468.5c0,2,0.6,3.1,1.4,3.1c0.9,0,1.4-1.1,1.4-3.1c0-1.9-0.5-3.1-1.4-3.1
				C154.4,465.3,153.8,466.4,153.8,468.5z"/>
		</g>
	</g>
</g>
<g>
	<g>
		<g>
			<path fill="#454746" d="M152.4,349.7v-1l1-0.9c2-1.8,2.9-2.8,2.9-3.9c0-0.7-0.4-1.4-1.5-1.4c-0.7,0-1.4,0.4-1.8,0.7l-0.5-1.1
				c0.6-0.5,1.5-0.9,2.6-0.9c1.8,0,2.7,1.2,2.7,2.5c0,1.5-1,2.6-2.5,4l-0.7,0.6v0h3.4v1.3H152.4z"/>
		</g>
	</g>
</g>
<g>
	<g>
		<g>
			<path fill="#454746" d="M152.7,287.3c0.3,0.2,1.1,0.5,1.9,0.5c1.2,0,1.7-0.7,1.7-1.3c0-1-0.9-1.4-1.9-1.4h-0.7v-1.2h0.7
				c0.7,0,1.7-0.3,1.7-1.2c0-0.6-0.4-1-1.3-1c-0.7,0-1.4,0.3-1.7,0.5l-0.4-1.1c0.5-0.3,1.4-0.6,2.4-0.6c1.7,0,2.6,0.9,2.6,2
				c0,0.9-0.5,1.6-1.5,1.9v0c1,0.2,1.8,0.9,1.8,2.1c0,1.4-1.2,2.5-3.2,2.5c-1,0-1.9-0.3-2.3-0.6L152.7,287.3z"/>
		</g>
	</g>
</g>
<g>
	<g>
		<g>
			<path fill="#454746" d="M155.8,228.1V226h-3.8v-1l3.4-5.2h1.9v5h1.1v1.2h-1.1v2.1H155.8z M155.8,224.8v-2.3c0-0.5,0-1,0.1-1.4
				h-0.1c-0.3,0.5-0.5,0.9-0.7,1.4l-1.5,2.3l0,0H155.8z"/>
		</g>
	</g>
</g>
<g>
	<g>
		<g>
			<path fill="#454746" d="M157.7,161h-3.2l-0.2,1.7c0.2,0,0.4,0,0.6,0c0.7,0,1.5,0.2,2,0.5c0.6,0.4,1.1,1.1,1.1,2.1
				c0,1.6-1.3,2.9-3.4,2.9c-1,0-1.8-0.2-2.2-0.5l0.3-1.2c0.4,0.2,1.1,0.4,1.8,0.4c0.9,0,1.8-0.5,1.8-1.5c0-0.9-0.7-1.6-2.4-1.6
				c-0.5,0-0.8,0-1.1,0.1l0.6-4.2h4.3V161z"/>
		</g>
	</g>
</g>
<g>
	<g>
		<path fill="#454746" d="M290.3,489v-1l1-0.9c2-1.8,2.9-2.8,2.9-3.9c0-0.7-0.4-1.4-1.5-1.4c-0.7,0-1.4,0.4-1.8,0.7l-0.5-1.1
			c0.6-0.5,1.5-0.9,2.6-0.9c1.8,0,2.7,1.2,2.7,2.5c0,1.5-1,2.6-2.5,4l-0.7,0.6v0h3.4v1.3H290.3z"/>
		<path fill="#454746" d="M303,484.8c0,2.7-1,4.4-3,4.4c-1.9,0-2.9-1.7-3-4.3c0-2.6,1.1-4.3,3-4.3C302.1,480.5,303,482.3,303,484.8z
			 M298.6,484.9c0,2,0.6,3.1,1.4,3.1c0.9,0,1.4-1.1,1.4-3.1c0-1.9-0.5-3.1-1.4-3.1C299.2,481.7,298.6,482.8,298.6,484.9z"/>
		<path fill="#454746" d="M303.6,490.5c0.3-1,0.7-2.3,0.9-3.4l1.7-0.1c-0.4,1.2-0.9,2.6-1.4,3.4L303.6,490.5z"/>
		<path fill="#454746" d="M312.9,484.8c0,2.7-1,4.4-3,4.4c-1.9,0-2.9-1.7-3-4.3c0-2.6,1.1-4.3,3-4.3
			C312,480.5,312.9,482.3,312.9,484.8z M308.5,484.9c0,2,0.6,3.1,1.4,3.1c0.9,0,1.4-1.1,1.4-3.1c0-1.9-0.5-3.1-1.4-3.1
			C309.1,481.7,308.5,482.8,308.5,484.9z"/>
		<path fill="#454746" d="M319.8,484.8c0,2.7-1,4.4-3,4.4c-1.9,0-2.9-1.7-3-4.3c0-2.6,1.1-4.3,3-4.3
			C318.8,480.5,319.8,482.3,319.8,484.8z M315.4,484.9c0,2,0.6,3.1,1.4,3.1c0.9,0,1.4-1.1,1.4-3.1c0-1.9-0.5-3.1-1.4-3.1
			C315.9,481.7,315.3,482.8,315.4,484.9z"/>
		<path fill="#454746" d="M326.6,484.8c0,2.7-1,4.4-3,4.4c-1.9,0-2.9-1.7-3-4.3c0-2.6,1.1-4.3,3-4.3
			C325.7,480.5,326.6,482.3,326.6,484.8z M322.2,484.9c0,2,0.6,3.1,1.4,3.1c0.9,0,1.4-1.1,1.4-3.1c0-1.9-0.5-3.1-1.4-3.1
			C322.8,481.7,322.2,482.8,322.2,484.9z"/>
		<path fill="#454746" d="M330.7,485v1.1h-3.3V485H330.7z"/>
		<path fill="#454746" d="M335.1,489v-2.1h-3.8v-1l3.4-5.2h1.9v5h1.1v1.2h-1.1v2.1H335.1z M335.1,485.7v-2.3c0-0.5,0-1,0.1-1.4h-0.1
			c-0.3,0.5-0.5,0.9-0.7,1.4l-1.5,2.3l0,0H335.1z"/>
		<path fill="#454746" d="M344.4,484.8c0,2.7-1,4.4-3,4.4c-1.9,0-2.9-1.7-3-4.3c0-2.6,1.1-4.3,3-4.3
			C343.4,480.5,344.4,482.3,344.4,484.8z M340,484.9c0,2,0.6,3.1,1.4,3.1c0.9,0,1.4-1.1,1.4-3.1c0-1.9-0.5-3.1-1.4-3.1
			C340.5,481.7,340,482.8,340,484.9z"/>
		<path fill="#454746" d="M344.9,490.5c0.3-1,0.7-2.3,0.9-3.4l1.7-0.1c-0.4,1.2-0.9,2.6-1.4,3.4L344.9,490.5z"/>
		<path fill="#454746" d="M354.3,484.8c0,2.7-1,4.4-3,4.4c-1.9,0-2.9-1.7-3-4.3c0-2.6,1.1-4.3,3-4.3
			C353.3,480.5,354.3,482.3,354.3,484.8z M349.9,484.9c0,2,0.6,3.1,1.4,3.1c0.9,0,1.4-1.1,1.4-3.1c0-1.9-0.5-3.1-1.4-3.1
			C350.4,481.7,349.8,482.8,349.9,484.9z"/>
		<path fill="#454746" d="M361.1,484.8c0,2.7-1,4.4-3,4.4c-1.9,0-2.9-1.7-3-4.3c0-2.6,1.1-4.3,3-4.3
			C360.2,480.5,361.1,482.3,361.1,484.8z M356.7,484.9c0,2,0.6,3.1,1.4,3.1c0.9,0,1.4-1.1,1.4-3.1c0-1.9-0.5-3.1-1.4-3.1
			C357.3,481.7,356.7,482.8,356.7,484.9z"/>
		<path fill="#454746" d="M368,484.8c0,2.7-1,4.4-3,4.4c-1.9,0-2.9-1.7-3-4.3c0-2.6,1.1-4.3,3-4.3C367,480.5,368,482.3,368,484.8z
			 M363.6,484.9c0,2,0.6,3.1,1.4,3.1c0.9,0,1.4-1.1,1.4-3.1c0-1.9-0.5-3.1-1.4-3.1C364.1,481.7,363.6,482.8,363.6,484.9z"/>
	</g>
</g>
<line fill="none" stroke="#454746" stroke-miterlimit="10" x1="173.1" y1="163.3" x2="173.1" y2="467.3"/>
<line fill="none" stroke="#454746" stroke-miterlimit="10" x1="589.1" y1="467.3" x2="589.1" y2="471.6"/>
<g>
	<g>
		<path fill="#454746" d="M397.8,489v-2.1H394v-1l3.4-5.2h1.9v5h1.1v1.2h-1.1v2.1H397.8z M397.8,485.7v-2.3c0-0.5,0-1,0.1-1.4h-0.1
			c-0.3,0.5-0.5,0.9-0.7,1.4l-1.5,2.3l0,0H397.8z"/>
		<path fill="#454746" d="M407,484.8c0,2.7-1,4.4-3,4.4c-1.9,0-2.9-1.7-3-4.3c0-2.6,1.1-4.3,3-4.3C406.1,480.5,407,482.3,407,484.8z
			 M402.6,484.9c0,2,0.6,3.1,1.4,3.1c0.9,0,1.4-1.1,1.4-3.1c0-1.9-0.5-3.1-1.4-3.1C403.2,481.7,402.6,482.8,402.6,484.9z"/>
		<path fill="#454746" d="M407.6,490.5c0.3-1,0.7-2.3,0.9-3.4l1.7-0.1c-0.4,1.2-0.9,2.6-1.4,3.4L407.6,490.5z"/>
		<path fill="#454746" d="M416.9,484.8c0,2.7-1,4.4-3,4.4c-1.9,0-2.9-1.7-3-4.3c0-2.6,1.1-4.3,3-4.3
			C416,480.5,416.9,482.3,416.9,484.8z M412.5,484.9c0,2,0.6,3.1,1.4,3.1c0.9,0,1.4-1.1,1.4-3.1c0-1.9-0.5-3.1-1.4-3.1
			C413.1,481.7,412.5,482.8,412.5,484.9z"/>
		<path fill="#454746" d="M423.8,484.8c0,2.7-1,4.4-3,4.4c-1.9,0-2.9-1.7-3-4.3c0-2.6,1.1-4.3,3-4.3
			C422.8,480.5,423.8,482.3,423.8,484.8z M419.4,484.9c0,2,0.6,3.1,1.4,3.1c0.9,0,1.4-1.1,1.4-3.1c0-1.9-0.5-3.1-1.4-3.1
			C419.9,481.7,419.3,482.8,419.4,484.9z"/>
		<path fill="#454746" d="M430.6,484.8c0,2.7-1,4.4-3,4.4c-1.9,0-2.9-1.7-3-4.3c0-2.6,1.1-4.3,3-4.3
			C429.7,480.5,430.6,482.3,430.6,484.8z M426.2,484.9c0,2,0.6,3.1,1.4,3.1c0.9,0,1.4-1.1,1.4-3.1c0-1.9-0.5-3.1-1.4-3.1
			C426.8,481.7,426.2,482.8,426.2,484.9z"/>
		<path fill="#454746" d="M434.7,485v1.1h-3.3V485H434.7z"/>
		<path fill="#454746" d="M440.7,481.8c-0.2,0-0.5,0-0.8,0c-1.7,0.2-2.6,1.3-2.8,2.4h0c0.4-0.5,1-0.8,1.9-0.8c1.4,0,2.5,1,2.5,2.7
			c0,1.6-1.2,3-2.9,3c-2,0-3.1-1.5-3.1-3.6c0-1.6,0.6-2.9,1.4-3.7c0.8-0.7,1.8-1.1,3-1.2c0.3,0,0.6,0,0.8,0L440.7,481.8z M440,486.3
			c0-1-0.5-1.7-1.4-1.7c-0.6,0-1.1,0.4-1.4,0.9c-0.1,0.1-0.1,0.3-0.1,0.5c0,1.1,0.6,2,1.6,2C439.4,488,440,487.3,440,486.3z"/>
		<path fill="#454746" d="M448.4,484.8c0,2.7-1,4.4-3,4.4c-1.9,0-2.9-1.7-3-4.3c0-2.6,1.1-4.3,3-4.3
			C447.4,480.5,448.4,482.3,448.4,484.8z M444,484.9c0,2,0.6,3.1,1.4,3.1c0.9,0,1.4-1.1,1.4-3.1c0-1.9-0.5-3.1-1.4-3.1
			C444.5,481.7,444,482.8,444,484.9z"/>
		<path fill="#454746" d="M448.9,490.5c0.3-1,0.7-2.3,0.9-3.4l1.7-0.1c-0.4,1.2-0.9,2.6-1.4,3.4L448.9,490.5z"/>
		<path fill="#454746" d="M458.3,484.8c0,2.7-1,4.4-3,4.4c-1.9,0-2.9-1.7-3-4.3c0-2.6,1.1-4.3,3-4.3
			C457.3,480.5,458.3,482.3,458.3,484.8z M453.9,484.9c0,2,0.6,3.1,1.4,3.1c0.9,0,1.4-1.1,1.4-3.1c0-1.9-0.5-3.1-1.4-3.1
			C454.4,481.7,453.8,482.8,453.9,484.9z"/>
		<path fill="#454746" d="M465.1,484.8c0,2.7-1,4.4-3,4.4c-1.9,0-2.9-1.7-3-4.3c0-2.6,1.1-4.3,3-4.3
			C464.2,480.5,465.1,482.3,465.1,484.8z M460.7,484.9c0,2,0.6,3.1,1.4,3.1c0.9,0,1.4-1.1,1.4-3.1c0-1.9-0.5-3.1-1.4-3.1
			C461.3,481.7,460.7,482.8,460.7,484.9z"/>
		<path fill="#454746" d="M472,484.8c0,2.7-1,4.4-3,4.4c-1.9,0-2.9-1.7-3-4.3c0-2.6,1.1-4.3,3-4.3C471,480.5,472,482.3,472,484.8z
			 M467.6,484.9c0,2,0.6,3.1,1.4,3.1c0.9,0,1.4-1.1,1.4-3.1c0-1.9-0.5-3.1-1.4-3.1C468.1,481.7,467.6,482.8,467.6,484.9z"/>
	</g>
</g>
<g>
	<g>
		<path fill="#454746" d="M503.4,481.8c-0.2,0-0.5,0-0.8,0c-1.7,0.2-2.6,1.3-2.8,2.4h0c0.4-0.5,1-0.8,1.9-0.8c1.4,0,2.5,1,2.5,2.7
			c0,1.6-1.2,3-2.9,3c-2,0-3.1-1.5-3.1-3.6c0-1.6,0.6-2.9,1.4-3.7c0.8-0.7,1.8-1.1,3-1.2c0.3,0,0.6,0,0.8,0L503.4,481.8z
			 M502.6,486.3c0-1-0.5-1.7-1.4-1.7c-0.6,0-1.1,0.4-1.4,0.9c-0.1,0.1-0.1,0.3-0.1,0.5c0,1.1,0.6,2,1.6,2
			C502.1,488,502.6,487.3,502.6,486.3z"/>
		<path fill="#454746" d="M511,484.8c0,2.7-1,4.4-3,4.4c-1.9,0-2.9-1.7-3-4.3c0-2.6,1.1-4.3,3-4.3C510.1,480.5,511,482.3,511,484.8z
			 M506.6,484.9c0,2,0.6,3.1,1.4,3.1c0.9,0,1.4-1.1,1.4-3.1c0-1.9-0.5-3.1-1.4-3.1C507.2,481.7,506.6,482.8,506.6,484.9z"/>
		<path fill="#454746" d="M511.6,490.5c0.3-1,0.7-2.3,0.9-3.4l1.7-0.1c-0.4,1.2-0.9,2.6-1.4,3.4L511.6,490.5z"/>
		<path fill="#454746" d="M520.9,484.8c0,2.7-1,4.4-3,4.4c-1.9,0-2.9-1.7-3-4.3c0-2.6,1.1-4.3,3-4.3
			C520,480.5,520.9,482.3,520.9,484.8z M516.5,484.9c0,2,0.6,3.1,1.4,3.1c0.9,0,1.4-1.1,1.4-3.1c0-1.9-0.5-3.1-1.4-3.1
			C517.1,481.7,516.5,482.8,516.5,484.9z"/>
		<path fill="#454746" d="M527.8,484.8c0,2.7-1,4.4-3,4.4c-1.9,0-2.9-1.7-3-4.3c0-2.6,1.1-4.3,3-4.3
			C526.8,480.5,527.8,482.3,527.8,484.8z M523.4,484.9c0,2,0.6,3.1,1.4,3.1c0.9,0,1.4-1.1,1.4-3.1c0-1.9-0.5-3.1-1.4-3.1
			C523.9,481.7,523.3,482.8,523.4,484.9z"/>
		<path fill="#454746" d="M534.6,484.8c0,2.7-1,4.4-3,4.4c-1.9,0-2.9-1.7-3-4.3c0-2.6,1.1-4.3,3-4.3
			C533.7,480.5,534.6,482.3,534.6,484.8z M530.2,484.9c0,2,0.6,3.1,1.4,3.1c0.9,0,1.4-1.1,1.4-3.1c0-1.9-0.5-3.1-1.4-3.1
			C530.8,481.7,530.2,482.8,530.2,484.9z"/>
		<path fill="#454746" d="M538.7,485v1.1h-3.3V485H538.7z"/>
		<path fill="#454746" d="M539.5,486.9c0-1,0.6-1.7,1.6-2.2v0c-0.9-0.4-1.3-1.1-1.3-1.8c0-1.4,1.2-2.3,2.8-2.3
			c1.8,0,2.6,1.1,2.6,2.1c0,0.7-0.4,1.4-1.3,1.9v0c0.9,0.3,1.6,1.1,1.6,2.1c0,1.5-1.3,2.5-3,2.5C540.5,489.1,539.5,488,539.5,486.9z
			 M543.9,486.8c0-0.8-0.6-1.3-1.5-1.6c-0.8,0.2-1.2,0.8-1.2,1.5c0,0.7,0.5,1.3,1.4,1.3C543.4,488,543.9,487.5,543.9,486.8z
			 M541.3,482.7c0,0.7,0.6,1.1,1.4,1.3c0.6-0.2,1-0.6,1-1.3c0-0.6-0.3-1.2-1.2-1.2C541.7,481.6,541.3,482.1,541.3,482.7z"/>
		<path fill="#454746" d="M552.4,484.8c0,2.7-1,4.4-3,4.4c-1.9,0-2.9-1.7-3-4.3c0-2.6,1.1-4.3,3-4.3
			C551.4,480.5,552.4,482.3,552.4,484.8z M548,484.9c0,2,0.6,3.1,1.4,3.1c0.9,0,1.4-1.1,1.4-3.1c0-1.9-0.5-3.1-1.4-3.1
			C548.5,481.7,548,482.8,548,484.9z"/>
		<path fill="#454746" d="M552.9,490.5c0.3-1,0.7-2.3,0.9-3.4l1.7-0.1c-0.4,1.2-0.9,2.6-1.4,3.4L552.9,490.5z"/>
		<path fill="#454746" d="M562.3,484.8c0,2.7-1,4.4-3,4.4c-1.9,0-2.9-1.7-3-4.3c0-2.6,1.1-4.3,3-4.3
			C561.3,480.5,562.3,482.3,562.3,484.8z M557.9,484.9c0,2,0.6,3.1,1.4,3.1c0.9,0,1.4-1.1,1.4-3.1c0-1.9-0.5-3.1-1.4-3.1
			C558.4,481.7,557.8,482.8,557.9,484.9z"/>
		<path fill="#454746" d="M569.1,484.8c0,2.7-1,4.4-3,4.4c-1.9,0-2.9-1.7-3-4.3c0-2.6,1.1-4.3,3-4.3
			C568.2,480.5,569.1,482.3,569.1,484.8z M564.7,484.9c0,2,0.6,3.1,1.4,3.1c0.9,0,1.4-1.1,1.4-3.1c0-1.9-0.5-3.1-1.4-3.1
			C565.3,481.7,564.7,482.8,564.7,484.9z"/>
		<path fill="#454746" d="M576,484.8c0,2.7-1,4.4-3,4.4c-1.9,0-2.9-1.7-3-4.3c0-2.6,1.1-4.3,3-4.3C575,480.5,576,482.3,576,484.8z
			 M571.6,484.9c0,2,0.6,3.1,1.4,3.1c0.9,0,1.4-1.1,1.4-3.1c0-1.9-0.5-3.1-1.4-3.1C572.1,481.7,571.6,482.8,571.6,484.9z"/>
	</g>
</g>
<g>
	<g>
		<path fill="#454746" d="M598.7,486.9c0-1,0.6-1.7,1.6-2.2v0c-0.9-0.4-1.3-1.1-1.3-1.8c0-1.4,1.2-2.3,2.8-2.3
			c1.8,0,2.6,1.1,2.6,2.1c0,0.7-0.4,1.4-1.3,1.9v0c0.9,0.3,1.6,1.1,1.6,2.1c0,1.5-1.3,2.5-3,2.5C599.8,489.1,598.7,488,598.7,486.9z
			 M603.1,486.8c0-0.8-0.6-1.3-1.5-1.6c-0.8,0.2-1.2,0.8-1.2,1.5c0,0.7,0.5,1.3,1.4,1.3C602.6,488,603.1,487.5,603.1,486.8z
			 M600.5,482.7c0,0.7,0.6,1.1,1.4,1.3c0.6-0.2,1-0.6,1-1.3c0-0.6-0.3-1.2-1.2-1.2C600.9,481.6,600.5,482.1,600.5,482.7z"/>
		<path fill="#454746" d="M611.6,484.8c0,2.7-1,4.4-3,4.4c-1.9,0-2.9-1.7-3-4.3c0-2.6,1.1-4.3,3-4.3
			C610.7,480.5,611.6,482.3,611.6,484.8z M607.2,484.9c0,2,0.6,3.1,1.4,3.1c0.9,0,1.4-1.1,1.4-3.1c0-1.9-0.5-3.1-1.4-3.1
			C607.8,481.7,607.2,482.8,607.2,484.9z"/>
		<path fill="#454746" d="M612.1,490.5c0.3-1,0.7-2.3,0.9-3.4l1.7-0.1c-0.4,1.2-0.9,2.6-1.4,3.4L612.1,490.5z"/>
		<path fill="#454746" d="M621.5,484.8c0,2.7-1,4.4-3,4.4c-1.9,0-2.9-1.7-3-4.3c0-2.6,1.1-4.3,3-4.3
			C620.5,480.5,621.5,482.3,621.5,484.8z M617.1,484.9c0,2,0.6,3.1,1.4,3.1c0.9,0,1.4-1.1,1.4-3.1c0-1.9-0.5-3.1-1.4-3.1
			C617.6,481.7,617.1,482.8,617.1,484.9z"/>
		<path fill="#454746" d="M628.3,484.8c0,2.7-1,4.4-3,4.4c-1.9,0-2.9-1.7-3-4.3c0-2.6,1.1-4.3,3-4.3
			C627.4,480.5,628.3,482.3,628.3,484.8z M623.9,484.9c0,2,0.6,3.1,1.4,3.1c0.9,0,1.4-1.1,1.4-3.1c0-1.9-0.5-3.1-1.4-3.1
			C624.5,481.7,623.9,482.8,623.9,484.9z"/>
		<path fill="#454746" d="M635.2,484.8c0,2.7-1,4.4-3,4.4c-1.9,0-2.9-1.7-3-4.3c0-2.6,1.1-4.3,3-4.3
			C634.3,480.5,635.2,482.3,635.2,484.8z M630.8,484.9c0,2,0.6,3.1,1.4,3.1c0.9,0,1.4-1.1,1.4-3.1c0-1.9-0.5-3.1-1.4-3.1
			C631.4,481.7,630.8,482.8,630.8,484.9z"/>
		<path fill="#454746" d="M639.3,485v1.1H636V485H639.3z"/>
		<path fill="#454746" d="M642.7,482.1L642.7,482.1l-1.5,0.8l-0.3-1.2l2-1h1.3v8.3h-1.5V482.1z"/>
		<path fill="#454746" d="M652.9,484.8c0,2.7-1,4.4-3,4.4c-1.9,0-2.9-1.7-3-4.3c0-2.6,1.1-4.3,3-4.3
			C652,480.5,652.9,482.3,652.9,484.8z M648.5,484.9c0,2,0.6,3.1,1.4,3.1c0.9,0,1.4-1.1,1.4-3.1c0-1.9-0.5-3.1-1.4-3.1
			C649.1,481.7,648.5,482.8,648.5,484.9z"/>
		<path fill="#454746" d="M659.8,484.8c0,2.7-1,4.4-3,4.4c-1.9,0-2.9-1.7-3-4.3c0-2.6,1.1-4.3,3-4.3
			C658.9,480.5,659.8,482.3,659.8,484.8z M655.4,484.9c0,2,0.6,3.1,1.4,3.1c0.9,0,1.4-1.1,1.4-3.1c0-1.9-0.5-3.1-1.4-3.1
			C656,481.7,655.4,482.8,655.4,484.9z"/>
		<path fill="#454746" d="M660.3,490.5c0.3-1,0.7-2.3,0.9-3.4l1.7-0.1c-0.4,1.2-0.9,2.6-1.4,3.4L660.3,490.5z"/>
		<path fill="#454746" d="M669.7,484.8c0,2.7-1,4.4-3,4.4c-1.9,0-2.9-1.7-3-4.3c0-2.6,1.1-4.3,3-4.3
			C668.8,480.5,669.7,482.3,669.7,484.8z M665.3,484.9c0,2,0.6,3.1,1.4,3.1c0.9,0,1.4-1.1,1.4-3.1c0-1.9-0.5-3.1-1.4-3.1
			C665.9,481.7,665.3,482.8,665.3,484.9z"/>
		<path fill="#454746" d="M676.5,484.8c0,2.7-1,4.4-3,4.4c-1.9,0-2.9-1.7-3-4.3c0-2.6,1.1-4.3,3-4.3
			C675.6,480.5,676.5,482.3,676.5,484.8z M672.1,484.9c0,2,0.6,3.1,1.4,3.1c0.9,0,1.4-1.1,1.4-3.1c0-1.9-0.5-3.1-1.4-3.1
			C672.7,481.7,672.1,482.8,672.1,484.9z"/>
		<path fill="#454746" d="M683.4,484.8c0,2.7-1,4.4-3,4.4c-1.9,0-2.9-1.7-3-4.3c0-2.6,1.1-4.3,3-4.3
			C682.5,480.5,683.4,482.3,683.4,484.8z M679,484.9c0,2,0.6,3.1,1.4,3.1c0.9,0,1.4-1.1,1.4-3.1c0-1.9-0.5-3.1-1.4-3.1
			C679.6,481.7,679,482.8,679,484.9z"/>
	</g>
</g>
<rect x="197.1" y="284.9" fill="#54B6CC" width="28" height="182.4"/>
<rect x="293.1" y="224.1" fill="#54B6CC" width="28" height="243.2"/>
<rect x="225.1" y="345.7" fill="#D65151" width="28" height="121.6"/>
<rect x="337.1" y="345.7" fill="#FCC25B" width="28" height="121.6"/>
<rect x="649.1" y="406.5" fill="#9178CE" width="28" height="60.8"/>
<rect x="605.1" y="406.5" fill="#54B6CC" width="28" height="60.8"/>
<line fill="none" stroke="#454746" stroke-miterlimit="10" x1="173.1" y1="467.3" x2="693.1" y2="467.3"/>
<g>
	<g>
		<path fill="#454746" d="M747.7,165.8H745v-1.4h7.1v1.4h-2.7v8h-1.7V165.8z"/>
		<path fill="#454746" d="M758.6,170.3c0,2.5-1.8,3.6-3.5,3.6c-1.9,0-3.4-1.3-3.4-3.5c0-2.2,1.5-3.6,3.5-3.6
			C757.2,166.8,758.6,168.2,758.6,170.3z M753.5,170.3c0,1.3,0.6,2.3,1.7,2.3c1,0,1.7-1,1.7-2.3c0-1.1-0.5-2.3-1.7-2.3
			C754,168,753.5,169.2,753.5,170.3z"/>
		<path fill="#454746" d="M762,165v1.9h1.6v1.3H762v3c0,0.8,0.2,1.3,0.9,1.3c0.3,0,0.5,0,0.7-0.1l0,1.3c-0.3,0.1-0.7,0.2-1.2,0.2
			c-0.6,0-1.2-0.2-1.5-0.6c-0.4-0.4-0.5-1-0.5-1.9v-3.2h-1v-1.3h1v-1.5L762,165z"/>
		<path fill="#454746" d="M768.8,173.8l-0.1-0.8h0c-0.4,0.5-1.1,0.9-2,0.9c-1.4,0-2.1-1-2.1-2c0-1.7,1.5-2.6,4-2.6v-0.1
			c0-0.4-0.2-1.2-1.4-1.2c-0.7,0-1.4,0.2-1.8,0.5l-0.3-1.1c0.5-0.3,1.4-0.6,2.5-0.6c2.2,0,2.8,1.4,2.8,2.9v2.5c0,0.6,0,1.2,0.1,1.6
			H768.8z M768.5,170.4c-1.2,0-2.4,0.2-2.4,1.3c0,0.7,0.4,1,1,1c0.7,0,1.2-0.4,1.3-0.9c0-0.1,0.1-0.3,0.1-0.4V170.4z"/>
		<path fill="#454746" d="M772,163.8h1.7v9.9H772V163.8z"/>
		<path fill="#454746" d="M785.4,173.5c-0.4,0.2-1.3,0.4-2.4,0.4c-3,0-4.8-1.9-4.8-4.7c0-3.1,2.2-5,5-5c1.1,0,1.9,0.2,2.3,0.4
			l-0.4,1.4c-0.4-0.2-1.1-0.4-1.8-0.4c-1.9,0-3.3,1.2-3.3,3.5c0,2.1,1.2,3.4,3.3,3.4c0.7,0,1.4-0.1,1.9-0.4L785.4,173.5z"/>
		<path fill="#454746" d="M793,170.3c0,2.5-1.8,3.6-3.5,3.6c-1.9,0-3.4-1.3-3.4-3.5c0-2.2,1.5-3.6,3.5-3.6
			C791.7,166.8,793,168.2,793,170.3z M787.9,170.3c0,1.3,0.6,2.3,1.7,2.3c1,0,1.7-1,1.7-2.3c0-1.1-0.5-2.3-1.7-2.3
			C788.4,168,787.9,169.2,787.9,170.3z"/>
		<path fill="#454746" d="M800.6,171.7c0,0.8,0,1.5,0.1,2h-1.5l-0.1-1h0c-0.3,0.5-1,1.2-2.2,1.2c-1.2,0-2.4-0.7-2.4-3v-4h1.7v3.7
			c0,1.1,0.4,1.9,1.3,1.9c0.7,0,1.1-0.5,1.3-0.9c0.1-0.2,0.1-0.3,0.1-0.5v-4.1h1.7V171.7z"/>
		<path fill="#454746" d="M802.4,169c0-0.8,0-1.4-0.1-2h1.5l0.1,1h0c0.3-0.5,1-1.2,2.2-1.2c1.2,0,2.4,0.8,2.4,2.9v4h-1.7v-3.9
			c0-1-0.4-1.7-1.3-1.7c-0.7,0-1.2,0.5-1.3,1c-0.1,0.2-0.1,0.4-0.1,0.6v4h-1.7V169z"/>
		<path fill="#454746" d="M812.3,165v1.9h1.6v1.3h-1.6v3c0,0.8,0.2,1.3,0.9,1.3c0.3,0,0.5,0,0.7-0.1l0,1.3c-0.3,0.1-0.7,0.2-1.2,0.2
			c-0.6,0-1.2-0.2-1.5-0.6c-0.4-0.4-0.5-1-0.5-1.9v-3.2h-1v-1.3h1v-1.5L812.3,165z"/>
		<path fill="#454746" d="M747.7,184.3H745v-1.4h7.1v1.4h-2.7v8h-1.7V184.3z"/>
		<path fill="#454746" d="M758.6,188.8c0,2.5-1.8,3.6-3.5,3.6c-1.9,0-3.4-1.3-3.4-3.5c0-2.2,1.5-3.6,3.5-3.6
			C757.2,185.3,758.6,186.7,758.6,188.8z M753.5,188.8c0,1.3,0.6,2.3,1.7,2.3c1,0,1.7-1,1.7-2.3c0-1.1-0.5-2.3-1.7-2.3
			C754,186.5,753.5,187.7,753.5,188.8z"/>
		<path fill="#454746" d="M761,185.4l1.2,3.7c0.1,0.4,0.3,0.9,0.4,1.3h0c0.1-0.4,0.2-0.9,0.4-1.3l1.1-3.6h1.8l-1.7,4.7
			c-0.9,2.5-1.6,3.7-2.4,4.4c-0.7,0.6-1.4,0.8-1.8,0.9l-0.4-1.5c0.3-0.1,0.7-0.2,1-0.5c0.3-0.2,0.7-0.6,0.9-1.1
			c0.1-0.1,0.1-0.2,0.1-0.3c0-0.1,0-0.2-0.1-0.3l-2.5-6.3H761z"/>
		<path fill="#454746" d="M773.2,188.8c0,2.5-1.8,3.6-3.5,3.6c-1.9,0-3.4-1.3-3.4-3.5c0-2.2,1.5-3.6,3.5-3.6
			C771.9,185.3,773.2,186.7,773.2,188.8z M768.1,188.8c0,1.3,0.6,2.3,1.7,2.3c1,0,1.7-1,1.7-2.3c0-1.1-0.5-2.3-1.7-2.3
			C768.6,186.5,768.1,187.7,768.1,188.8z"/>
		<path fill="#454746" d="M776.6,183.5v1.9h1.6v1.3h-1.6v3c0,0.8,0.2,1.3,0.9,1.3c0.3,0,0.5,0,0.7-0.1l0,1.3
			c-0.3,0.1-0.7,0.2-1.2,0.2c-0.6,0-1.2-0.2-1.5-0.6c-0.4-0.4-0.5-1-0.5-1.9v-3.2h-1v-1.3h1v-1.5L776.6,183.5z"/>
		<path fill="#454746" d="M783.4,192.2l-0.1-0.8h0c-0.4,0.5-1.1,0.9-2,0.9c-1.4,0-2.1-1-2.1-2c0-1.7,1.5-2.6,4-2.6v-0.1
			c0-0.4-0.2-1.2-1.4-1.2c-0.7,0-1.4,0.2-1.8,0.5l-0.3-1.1c0.5-0.3,1.4-0.6,2.5-0.6c2.2,0,2.8,1.4,2.8,2.9v2.5c0,0.6,0,1.2,0.1,1.6
			H783.4z M783.1,188.9c-1.2,0-2.4,0.2-2.4,1.3c0,0.7,0.4,1,1,1c0.7,0,1.2-0.4,1.3-0.9c0-0.1,0.1-0.3,0.1-0.4V188.9z"/>
		<path fill="#454746" d="M747.6,201.3v3.8h4v-3.8h1.7v9.4h-1.7v-4.2h-4v4.2h-1.7v-9.4H747.6z"/>
		<path fill="#454746" d="M761.7,207.3c0,2.5-1.8,3.6-3.5,3.6c-1.9,0-3.4-1.3-3.4-3.5c0-2.2,1.5-3.6,3.5-3.6
			C760.4,203.8,761.7,205.2,761.7,207.3z M756.6,207.3c0,1.3,0.6,2.3,1.7,2.3c1,0,1.7-1,1.7-2.3c0-1.1-0.5-2.3-1.7-2.3
			C757.1,205,756.6,206.2,756.6,207.3z"/>
		<path fill="#454746" d="M763.2,206c0-0.8,0-1.4-0.1-2h1.5l0.1,1h0c0.3-0.5,1-1.2,2.2-1.2c1.2,0,2.4,0.8,2.4,2.9v4h-1.7v-3.9
			c0-1-0.4-1.7-1.3-1.7c-0.7,0-1.2,0.5-1.3,1c-0.1,0.2-0.1,0.4-0.1,0.6v4h-1.7V206z"/>
		<path fill="#454746" d="M777.5,200.8v8c0,0.7,0,1.5,0.1,1.9H776l-0.1-1.1h0c-0.4,0.8-1.2,1.2-2.2,1.2c-1.6,0-2.9-1.4-2.9-3.5
			c0-2.3,1.4-3.6,3.1-3.6c0.9,0,1.6,0.4,1.9,0.9h0v-3.9H777.5z M775.7,206.8c0-0.1,0-0.3,0-0.4c-0.2-0.7-0.7-1.2-1.5-1.2
			c-1.1,0-1.7,1-1.7,2.3c0,1.2,0.6,2.2,1.7,2.2c0.7,0,1.3-0.5,1.5-1.2c0-0.2,0.1-0.3,0.1-0.5V206.8z"/>
		<path fill="#454746" d="M783.1,210.8L783,210h0c-0.4,0.5-1.1,0.9-2,0.9c-1.4,0-2.1-1-2.1-2c0-1.7,1.5-2.6,4-2.6v-0.1
			c0-0.4-0.2-1.2-1.4-1.2c-0.7,0-1.4,0.2-1.8,0.5l-0.3-1.1c0.5-0.3,1.4-0.6,2.5-0.6c2.2,0,2.8,1.4,2.8,2.9v2.5c0,0.6,0,1.2,0.1,1.6
			H783.1z M782.9,207.4c-1.2,0-2.4,0.2-2.4,1.3c0,0.7,0.4,1,1,1c0.7,0,1.2-0.4,1.3-0.9c0-0.1,0.1-0.3,0.1-0.4V207.4z"/>
		<path fill="#454746" d="M745.9,219.9c0.5-0.1,1.5-0.2,2.5-0.2c1.3,0,2.1,0.2,2.7,0.6c0.6,0.4,1,1,1,1.8c0,0.9-0.5,1.7-1.6,2v0
			c1,0.3,1.9,1,1.9,2.3c0,0.8-0.4,1.5-0.9,1.9c-0.7,0.6-1.8,0.9-3.5,0.9c-1,0-1.7-0.1-2.1-0.1V219.9z M747.6,223.7h0.9
			c1.2,0,1.9-0.6,1.9-1.4c0-0.9-0.7-1.3-1.8-1.3c-0.5,0-0.8,0-1,0.1V223.7z M747.6,228c0.2,0,0.5,0,0.9,0c1.1,0,2.1-0.4,2.1-1.6
			c0-1.1-1-1.5-2.1-1.5h-0.9V228z"/>
		<path fill="#454746" d="M762,225.4c-0.1-1.2-0.1-2.7-0.1-4h0c-0.3,1.1-0.7,2.4-1.1,3.6l-1.4,4.1H758l-1.3-4
			c-0.4-1.2-0.7-2.5-1-3.7h0c0,1.2-0.1,2.7-0.2,4l-0.2,3.8h-1.6l0.6-9.4h2.3l1.2,3.8c0.3,1.1,0.6,2.2,0.9,3.3h0
			c0.3-1,0.6-2.2,0.9-3.3l1.3-3.8h2.2l0.5,9.4h-1.7L762,225.4z"/>
		<path fill="#454746" d="M767.1,229.2l-2.3-9.4h1.8l0.9,4.3c0.2,1.1,0.5,2.4,0.6,3.3h0c0.2-1,0.4-2.1,0.7-3.3l1-4.3h1.8l0.9,4.3
			c0.2,1.1,0.4,2.2,0.6,3.2h0c0.2-1,0.4-2.1,0.6-3.3l1-4.3h1.8l-2.5,9.4h-1.8l-1-4.4c-0.2-1.1-0.4-2-0.5-3h0c-0.2,1-0.4,1.9-0.6,3
			l-1.1,4.4H767.1z"/>
	</g>
</g>
<rect x="719.8" y="161.8" fill="#54B6CC" width="14" height="14"/>
<rect x="719.8" y="180.2" fill="#D65151" width="14" height="14"/>
<rect x="719.8" y="198.7" fill="#FCC25B" width="14" height="14"/>
<rect x="719.8" y="217.2" fill="#9178CE" width="14" height="14"/>
</svg>
