<?xml version="1.0" encoding="utf-8"?>
<!-- Generator: Adobe Illustrator 18.0.0, SVG Export Plug-In . SVG Version: 6.00 Build 0)  -->
<!DOCTYPE svg PUBLIC "-//W3C//DTD SVG 1.1//EN" "http://www.w3.org/Graphics/SVG/1.1/DTD/svg11.dtd">
<svg version="1.1" id="Layer_1" xmlns="http://www.w3.org/2000/svg" xmlns:xlink="http://www.w3.org/1999/xlink" x="0px" y="0px"
	 width="500px" height="200px" viewBox="0 0 500 200" enable-background="new 0 0 500 200" xml:space="preserve">
<path fill="#F8FAF6" d="M476.2,163.5H25c-2.7,0-4.8-2.1-4.8-4.8V41.5c0-2.7,2.1-4.8,4.8-4.8h451.2c2.7,0,4.8,2.1,4.8,4.8v117.2
	C481,161.4,478.8,163.5,476.2,163.5z"/>
<path fill="#E5EAE4" d="M20.2,68.7V41.5c0-2.7,2.1-4.8,4.8-4.8h451.2c2.7,0,4.8,2.1,4.8,4.8v27.2H20.2z"/>
<g>
	<g>
		<path fill="#454746" d="M55.1,48.3c0.7-0.1,1.5-0.2,2.6-0.2c1.3,0,2.3,0.3,2.9,0.9c0.6,0.5,0.9,1.3,0.9,2.2c0,1-0.3,1.7-0.8,2.2
			c-0.7,0.8-1.9,1.2-3.2,1.2c-0.4,0-0.8,0-1.1-0.1v4.2h-1.4V48.3z M56.4,53.4c0.3,0.1,0.7,0.1,1.1,0.1c1.6,0,2.6-0.8,2.6-2.2
			c0-1.4-1-2.1-2.5-2.1c-0.6,0-1,0-1.3,0.1V53.4z"/>
		<path fill="#454746" d="M63.1,53.5c0-0.9,0-1.7-0.1-2.4h1.2l0,1.5h0.1c0.3-1,1.2-1.7,2.1-1.7c0.2,0,0.3,0,0.4,0v1.3
			c-0.1,0-0.3,0-0.5,0c-1,0-1.7,0.7-1.8,1.8c0,0.2-0.1,0.4-0.1,0.6v4h-1.4V53.5z"/>
		<path fill="#454746" d="M74.5,56.7c0,0.8,0,1.5,0.1,2.1h-1.2l-0.1-1.2h0c-0.4,0.6-1.2,1.4-2.5,1.4c-1.2,0-2.6-0.7-2.6-3.3v-4.4
			h1.4v4.2c0,1.4,0.4,2.4,1.7,2.4c0.9,0,1.6-0.6,1.8-1.2c0.1-0.2,0.1-0.5,0.1-0.7v-4.6h1.4V56.7z"/>
		<path fill="#454746" d="M76.8,53.2c0-0.8,0-1.4-0.1-2h1.2l0.1,1.2h0c0.4-0.7,1.2-1.4,2.5-1.4c1,0,2.7,0.6,2.7,3.2v4.5h-1.4v-4.4
			c0-1.2-0.5-2.2-1.7-2.2c-0.9,0-1.6,0.6-1.8,1.4c-0.1,0.2-0.1,0.4-0.1,0.6v4.5h-1.4V53.2z"/>
		<path fill="#454746" d="M86.2,55.2c0,1.9,1.2,2.6,2.6,2.6c1,0,1.6-0.2,2.1-0.4l0.2,1c-0.5,0.2-1.3,0.5-2.5,0.5
			c-2.3,0-3.7-1.5-3.7-3.8s1.3-4.1,3.5-4.1c2.5,0,3.1,2.2,3.1,3.6c0,0.3,0,0.5,0,0.6H86.2z M90.2,54.2c0-0.9-0.4-2.2-1.9-2.2
			c-1.4,0-2,1.3-2.1,2.2H90.2z"/>
	</g>
</g>
<circle opacity="0.8" fill="#7C7C7C" cx="38" cy="53.5" r="8.6"/>
<g>
	<g>
		<path fill="#FFFFFF" d="M35.3,56.1c0.3,0.2,1.1,0.5,1.8,0.5c1.2,0,1.6-0.7,1.6-1.3c0-1-0.9-1.4-1.8-1.4h-0.7v-1.1h0.7
			c0.7,0,1.6-0.3,1.6-1.1c0-0.6-0.4-1-1.3-1c-0.7,0-1.3,0.3-1.7,0.5l-0.3-1.1c0.5-0.3,1.4-0.6,2.3-0.6c1.7,0,2.5,0.9,2.5,2
			c0,0.8-0.5,1.5-1.5,1.9v0c1,0.2,1.8,0.9,1.8,2c0,1.4-1.1,2.5-3.2,2.5c-1,0-1.8-0.3-2.3-0.6L35.3,56.1z"/>
	</g>
</g>
<g>
	<path fill="#FFFFFF" d="M73.7,119c-6.8,0-12.3-5.5-12.3-12.3s5.5-12.3,12.3-12.3S86,99.9,86,106.7S80.5,119,73.7,119z"/>
	<g>
		<path fill="#75B640" d="M73.7,95.9c6,0,10.8,4.8,10.8,10.8s-4.8,10.8-10.8,10.8s-10.8-4.8-10.8-10.8S67.7,95.9,73.7,95.9
			 M73.7,92.9c-7.6,0-13.8,6.2-13.8,13.8c0,7.6,6.2,13.8,13.8,13.8s13.8-6.2,13.8-13.8C87.5,99.1,81.3,92.9,73.7,92.9L73.7,92.9z"/>
	</g>
</g>
<g>
	<path fill="#FFFFFF" d="M141.3,119c-6.8,0-12.3-5.5-12.3-12.3s5.5-12.3,12.3-12.3s12.3,5.5,12.3,12.3S148.1,119,141.3,119z"/>
	<g>
		<path fill="#75B640" d="M141.3,95.9c6,0,10.8,4.8,10.8,10.8s-4.8,10.8-10.8,10.8s-10.8-4.8-10.8-10.8S135.3,95.9,141.3,95.9
			 M141.3,92.9c-7.6,0-13.8,6.2-13.8,13.8c0,7.6,6.2,13.8,13.8,13.8c7.6,0,13.8-6.2,13.8-13.8C155.1,99.1,148.9,92.9,141.3,92.9
			L141.3,92.9z"/>
	</g>
</g>
<g>
	<path fill="#FFFFFF" d="M208.9,119c-6.8,0-12.3-5.5-12.3-12.3s5.5-12.3,12.3-12.3s12.3,5.5,12.3,12.3S215.7,119,208.9,119z"/>
	<g>
		<path fill="#75B640" d="M208.9,95.9c6,0,10.8,4.8,10.8,10.8s-4.8,10.8-10.8,10.8s-10.8-4.8-10.8-10.8S202.9,95.9,208.9,95.9
			 M208.9,92.9c-7.6,0-13.8,6.2-13.8,13.8c0,7.6,6.2,13.8,13.8,13.8s13.8-6.2,13.8-13.8C222.7,99.1,216.5,92.9,208.9,92.9
			L208.9,92.9z"/>
	</g>
</g>
<g>
	<path fill="#454746" d="M67.3,140.5l0.4-2.5h-1.1v-1.3h1.4l0.2-1.6h-1.2v-1.3h1.4l0.4-2.4h1.2l-0.4,2.4h1.3l0.4-2.4h1.2l-0.4,2.4
		h1.1v1.3h-1.3l-0.2,1.6h1.1v1.3h-1.4l-0.4,2.5h-1.3l0.4-2.5h-1.3l-0.4,2.5H67.3z M70.4,136.7l0.2-1.6h-1.3l-0.2,1.6H70.4z"/>
	<path fill="#454746" d="M77,133.3L77,133.3l-1.8,0.8l-0.4-1.6l2.4-1.1H79v9.1H77V133.3z"/>
</g>
<g>
	<path fill="#454746" d="M134.9,140.5l0.4-2.5h-1.1v-1.3h1.4l0.2-1.6h-1.2v-1.3h1.4l0.4-2.4h1.2l-0.4,2.4h1.3l0.4-2.4h1.2l-0.4,2.4
		h1.1v1.3h-1.3l-0.2,1.6h1.1v1.3H139l-0.4,2.5h-1.3l0.4-2.5h-1.3l-0.4,2.5H134.9z M138,136.7l0.2-1.6h-1.3l-0.2,1.6H138z"/>
	<path fill="#454746" d="M141.9,140.5v-1.3l1.2-1.1c2-1.8,3-2.8,3-3.9c0-0.7-0.4-1.3-1.5-1.3c-0.8,0-1.5,0.4-1.9,0.7l-0.6-1.5
		c0.7-0.5,1.8-0.9,3-0.9c2.1,0,3.2,1.2,3.2,2.8c0,1.5-1.1,2.8-2.4,3.9l-0.8,0.7v0h3.4v1.8H141.9z"/>
</g>
<g>
	<path fill="#454746" d="M202.5,140.5l0.4-2.5h-1.1v-1.3h1.4l0.2-1.6h-1.2v-1.3h1.4l0.4-2.4h1.2l-0.4,2.4h1.3l0.4-2.4h1.2l-0.4,2.4
		h1.1v1.3H207l-0.2,1.6h1.1v1.3h-1.4l-0.4,2.5H205l0.4-2.5h-1.3l-0.4,2.5H202.5z M205.6,136.7l0.2-1.6h-1.3l-0.2,1.6H205.6z"/>
	<path fill="#454746" d="M209.8,138.4c0.4,0.2,1.2,0.6,2.1,0.6c1.1,0,1.7-0.5,1.7-1.2c0-0.9-0.9-1.3-1.8-1.3h-0.9v-1.5h0.8
		c0.7,0,1.6-0.3,1.6-1.1c0-0.5-0.4-1-1.3-1c-0.7,0-1.5,0.3-1.9,0.5l-0.4-1.5c0.5-0.3,1.6-0.7,2.8-0.7c1.9,0,3,1,3,2.3
		c0,1-0.5,1.7-1.7,2.1v0c1.1,0.2,2,1,2,2.2c0,1.6-1.4,2.8-3.7,2.8c-1.2,0-2.2-0.3-2.7-0.6L209.8,138.4z"/>
</g>
<g>
	
		<line fill="none" stroke="#616D67" stroke-width="4" stroke-linecap="round" stroke-miterlimit="10" x1="266.7" y1="116.4" x2="286.3" y2="96.9"/>
	
		<line fill="none" stroke="#616D67" stroke-width="4" stroke-linecap="round" stroke-miterlimit="10" x1="266.7" y1="96.9" x2="286.3" y2="116.4"/>
</g>
<g>
	
		<line fill="none" stroke="#616D67" stroke-width="4" stroke-linecap="round" stroke-miterlimit="10" x1="334.3" y1="116.4" x2="353.9" y2="96.9"/>
	
		<line fill="none" stroke="#616D67" stroke-width="4" stroke-linecap="round" stroke-miterlimit="10" x1="334.3" y1="96.9" x2="353.9" y2="116.4"/>
</g>
</svg>
