<?xml version="1.0" encoding="utf-8"?>
<!-- Generator: Adobe Illustrator 18.0.0, SVG Export Plug-In . SVG Version: 6.00 Build 0)  -->
<!DOCTYPE svg PUBLIC "-//W3C//DTD SVG 1.1//EN" "http://www.w3.org/Graphics/SVG/1.1/DTD/svg11.dtd">
<svg version="1.1" id="Layer_1" xmlns="http://www.w3.org/2000/svg" xmlns:xlink="http://www.w3.org/1999/xlink" x="0px" y="0px"
	 width="500px" height="200px" viewBox="0 0 500 200" enable-background="new 0 0 500 200" xml:space="preserve">
<path fill="#F8FAF6" d="M476.2,173.2H25c-2.7,0-4.8-2.1-4.8-4.8V31.2c0-2.7,2.1-4.8,4.8-4.8h451.2c2.7,0,4.8,2.1,4.8,4.8v137.2
	C481,171.1,478.8,173.2,476.2,173.2z"/>
<path fill="#E5EAE4" d="M20.2,58.4V31.2c0-2.7,2.1-4.8,4.8-4.8h451.2c2.7,0,4.8,2.1,4.8,4.8v27.2H20.2z"/>
<g>
	<g>
		<path fill="#454746" d="M55.1,38c0.6-0.1,1.5-0.2,2.5-0.2c1.4,0,2.2,0.2,2.9,0.8c0.5,0.4,0.9,1,0.9,1.9c0,1-0.7,1.9-1.8,2.3v0
			c1,0.2,2.2,1.1,2.2,2.6c0,0.9-0.4,1.6-0.9,2.1c-0.7,0.7-1.9,1-3.6,1c-0.9,0-1.7-0.1-2.1-0.1V38z M56.4,42.3h1.2
			c1.4,0,2.3-0.7,2.3-1.8c0-1.2-0.9-1.7-2.3-1.7c-0.6,0-1,0-1.2,0.1V42.3z M56.4,47.4c0.3,0,0.7,0.1,1.1,0.1c1.4,0,2.7-0.5,2.7-2
			c0-1.4-1.2-2-2.7-2h-1.1V47.4z"/>
		<path fill="#454746" d="M69.8,46.3c0,0.8,0,1.5,0.1,2.1h-1.2l-0.1-1.2h0c-0.4,0.6-1.2,1.4-2.5,1.4c-1.2,0-2.6-0.7-2.6-3.3v-4.4
			h1.4V45c0,1.4,0.4,2.4,1.7,2.4c0.9,0,1.6-0.6,1.8-1.2c0.1-0.2,0.1-0.5,0.1-0.7v-4.6h1.4V46.3z"/>
		<path fill="#454746" d="M73.6,38.7c0,0.5-0.3,0.8-0.9,0.8c-0.5,0-0.8-0.4-0.8-0.8c0-0.5,0.4-0.9,0.9-0.9
			C73.3,37.9,73.6,38.3,73.6,38.7z M72.1,48.4v-7.5h1.4v7.5H72.1z"/>
		<path fill="#454746" d="M75.7,37.3h1.4v11.1h-1.4V37.3z"/>
		<path fill="#454746" d="M85.9,37.3v9.1c0,0.7,0,1.4,0.1,1.9h-1.2l-0.1-1.3h0c-0.4,0.8-1.3,1.5-2.6,1.5c-1.8,0-3.2-1.5-3.2-3.8
			c0-2.5,1.5-4.1,3.4-4.1c1.2,0,1.9,0.5,2.3,1.2h0v-4.5H85.9z M84.6,43.9c0-0.2,0-0.4-0.1-0.6c-0.2-0.9-1-1.6-2-1.6
			c-1.4,0-2.3,1.2-2.3,2.9c0,1.5,0.7,2.8,2.2,2.8c0.9,0,1.8-0.6,2-1.6c0-0.2,0.1-0.4,0.1-0.6V43.9z"/>
		<path fill="#454746" d="M93.2,38.7v2.2h2v1h-2V46c0,0.9,0.3,1.5,1,1.5c0.4,0,0.6,0,0.8-0.1l0.1,1c-0.3,0.1-0.7,0.2-1.2,0.2
			c-0.6,0-1.2-0.2-1.5-0.6c-0.4-0.4-0.5-1.1-0.5-2v-4.1h-1.2v-1h1.2v-1.8L93.2,38.7z"/>
		<path fill="#454746" d="M96.7,43.2c0-0.9,0-1.7-0.1-2.4h1.2l0,1.5h0.1c0.3-1,1.2-1.7,2.1-1.7c0.2,0,0.3,0,0.4,0V42
			c-0.1,0-0.3,0-0.5,0c-1,0-1.7,0.7-1.8,1.8c0,0.2-0.1,0.4-0.1,0.6v4h-1.4V43.2z"/>
		<path fill="#454746" d="M102.4,44.9c0,1.9,1.2,2.6,2.6,2.6c1,0,1.6-0.2,2.1-0.4l0.2,1c-0.5,0.2-1.3,0.5-2.5,0.5
			c-2.3,0-3.7-1.5-3.7-3.8s1.3-4.1,3.5-4.1c2.5,0,3.1,2.2,3.1,3.6c0,0.3,0,0.5,0,0.6H102.4z M106.4,43.9c0-0.9-0.4-2.2-1.9-2.2
			c-1.4,0-2,1.3-2.1,2.2H106.4z"/>
		<path fill="#454746" d="M110.2,44.9c0,1.9,1.2,2.6,2.6,2.6c1,0,1.6-0.2,2.1-0.4l0.2,1c-0.5,0.2-1.3,0.5-2.5,0.5
			c-2.3,0-3.7-1.5-3.7-3.8s1.3-4.1,3.5-4.1c2.5,0,3.1,2.2,3.1,3.6c0,0.3,0,0.5,0,0.6H110.2z M114.2,43.9c0-0.9-0.4-2.2-1.9-2.2
			c-1.4,0-2,1.3-2.1,2.2H114.2z"/>
	</g>
</g>
<circle opacity="0.8" fill="#7C7C7C" cx="38" cy="43.2" r="8.6"/>
<g>
	<g>
		<path fill="#FFFFFF" d="M37.4,40.6L37.4,40.6l-1.5,0.7l-0.3-1.2l2-1h1.3v8.1h-1.5V40.6z"/>
	</g>
</g>
<g opacity="0.7">
	<g>
		<path fill="#454746" d="M419,132.6c-0.4,0.2-1.3,0.4-2.5,0.4c-2.7,0-4.7-1.7-4.7-4.8c0-3,2-5,4.9-5c1.2,0,1.9,0.3,2.2,0.4l-0.3,1
			c-0.5-0.2-1.1-0.4-1.9-0.4c-2.2,0-3.7,1.4-3.7,3.9c0,2.3,1.3,3.8,3.6,3.8c0.7,0,1.5-0.2,2-0.4L419,132.6z"/>
		<path fill="#454746" d="M426.4,129.4c0,2.5-1.7,3.6-3.4,3.6c-1.8,0-3.2-1.3-3.2-3.5c0-2.3,1.5-3.6,3.4-3.6
			C425.1,126,426.4,127.4,426.4,129.4z M421,129.5c0,1.5,0.9,2.6,2.1,2.6c1.2,0,2.1-1.1,2.1-2.6c0-1.1-0.6-2.6-2-2.6
			C421.7,126.9,421,128.2,421,129.5z"/>
		<path fill="#454746" d="M431,128.6v0.9h-3.5v-0.9H431z"/>
		<path fill="#454746" d="M432.4,131.4c0.5,0.3,1.3,0.6,2.2,0.6c1.2,0,2-0.7,2-1.6c0-0.9-0.5-1.4-1.8-1.9c-1.5-0.5-2.5-1.3-2.5-2.7
			c0-1.5,1.2-2.6,3.1-2.6c1,0,1.7,0.2,2.1,0.5l-0.3,1c-0.3-0.2-0.9-0.4-1.8-0.4c-1.3,0-1.8,0.8-1.8,1.4c0,0.9,0.6,1.3,1.9,1.8
			c1.6,0.6,2.4,1.4,2.4,2.8c0,1.5-1.1,2.7-3.3,2.7c-0.9,0-1.9-0.3-2.4-0.6L432.4,131.4z"/>
		<path fill="#454746" d="M440.8,124.2v1.9h1.8v0.9h-1.8v3.7c0,0.8,0.2,1.3,0.9,1.3c0.3,0,0.6,0,0.7-0.1l0.1,0.9
			c-0.2,0.1-0.6,0.2-1.1,0.2c-0.6,0-1-0.2-1.3-0.5c-0.4-0.4-0.5-1-0.5-1.8v-3.7h-1.1v-0.9h1.1v-1.6L440.8,124.2z"/>
		<path fill="#454746" d="M447.7,132.9l-0.1-0.9h0c-0.4,0.5-1.1,1-2.1,1c-1.4,0-2.1-1-2.1-1.9c0-1.6,1.5-2.5,4.1-2.5v-0.1
			c0-0.6-0.2-1.6-1.5-1.6c-0.6,0-1.3,0.2-1.8,0.5l-0.3-0.8c0.6-0.4,1.4-0.6,2.2-0.6c2.1,0,2.6,1.4,2.6,2.8v2.5c0,0.6,0,1.2,0.1,1.6
			H447.7z M447.5,129.4c-1.3,0-2.9,0.2-2.9,1.5c0,0.8,0.5,1.2,1.2,1.2c0.9,0,1.4-0.6,1.6-1.1c0-0.1,0.1-0.3,0.1-0.4V129.4z"/>
		<path fill="#454746" d="M450.7,128.2c0-0.8,0-1.5-0.1-2.1h1.1l0,1.3h0.1c0.3-0.9,1.1-1.5,1.9-1.5c0.1,0,0.2,0,0.4,0v1.2
			c-0.1,0-0.3,0-0.4,0c-0.9,0-1.5,0.7-1.7,1.6c0,0.2-0.1,0.4-0.1,0.6v3.6h-1.2V128.2z"/>
		<path fill="#454746" d="M455.1,131.6c0.4,0.2,1,0.5,1.6,0.5c0.9,0,1.3-0.4,1.3-1c0-0.6-0.4-0.9-1.3-1.2c-1.2-0.4-1.8-1.1-1.8-1.9
			c0-1.1,0.9-2,2.3-2c0.7,0,1.3,0.2,1.7,0.4l-0.3,0.9c-0.3-0.2-0.8-0.4-1.4-0.4c-0.7,0-1.1,0.4-1.1,0.9c0,0.6,0.4,0.8,1.3,1.1
			c1.2,0.4,1.8,1,1.8,2c0,1.2-0.9,2-2.5,2c-0.7,0-1.4-0.2-1.9-0.5L455.1,131.6z"/>
	</g>
</g>
<g opacity="0.7">
	<g>
		<path fill="none" stroke="#454746" stroke-width="1.0721" stroke-miterlimit="10" d="M404.4,131.9c-7.2,3.4-12.1,3-22,3.6"/>
		<g>
			<path fill="#454746" d="M377.3,135.9c2.4-1.1,5.3-2.8,7.1-4.5l-1.2,4.2l1.7,4C382.9,138,379.7,136.6,377.3,135.9z"/>
		</g>
	</g>
</g>
<g>
	<line fill="none" stroke="#75B640" stroke-width="2" stroke-miterlimit="10" x1="73.7" y1="97.6" x2="73.7" y2="133.3"/>
	<line fill="none" stroke="#75B640" stroke-width="2" stroke-miterlimit="10" x1="73.7" y1="97.6" x2="54.9" y2="133.3"/>
	<line fill="none" stroke="#75B640" stroke-width="2" stroke-miterlimit="10" x1="73.7" y1="97.6" x2="92.5" y2="133.3"/>
	<g>
		<path fill="#FFFFFF" d="M54.9,139.2c-3.3,0-5.9-2.6-5.9-5.9c0-3.3,2.6-5.9,5.9-5.9s5.9,2.6,5.9,5.9
			C60.8,136.5,58.2,139.2,54.9,139.2z"/>
		<g>
			<path fill="#75B640" d="M54.9,128.4c2.7,0,4.9,2.2,4.9,4.9s-2.2,4.9-4.9,4.9S50,136,50,133.3S52.2,128.4,54.9,128.4 M54.9,126.4
				c-3.8,0-6.9,3.1-6.9,6.9s3.1,6.9,6.9,6.9c3.8,0,6.9-3.1,6.9-6.9S58.7,126.4,54.9,126.4L54.9,126.4z"/>
		</g>
	</g>
	<g>
		<path fill="#FFFFFF" d="M73.7,139.2c-3.3,0-5.9-2.6-5.9-5.9c0-3.3,2.6-5.9,5.9-5.9s5.9,2.6,5.9,5.9
			C79.6,136.5,77,139.2,73.7,139.2z"/>
		<g>
			<path fill="#75B640" d="M73.7,128.4c2.7,0,4.9,2.2,4.9,4.9s-2.2,4.9-4.9,4.9s-4.9-2.2-4.9-4.9S71,128.4,73.7,128.4 M73.7,126.4
				c-3.8,0-6.9,3.1-6.9,6.9s3.1,6.9,6.9,6.9c3.8,0,6.9-3.1,6.9-6.9S77.5,126.4,73.7,126.4L73.7,126.4z"/>
		</g>
	</g>
	<g>
		<path fill="#FFFFFF" d="M92.5,139.2c-3.3,0-5.9-2.6-5.9-5.9c0-3.3,2.6-5.9,5.9-5.9s5.9,2.6,5.9,5.9
			C98.4,136.5,95.8,139.2,92.5,139.2z"/>
		<g>
			<path fill="#75B640" d="M92.5,128.4c2.7,0,4.9,2.2,4.9,4.9s-2.2,4.9-4.9,4.9s-4.9-2.2-4.9-4.9S89.8,128.4,92.5,128.4 M92.5,126.4
				c-3.8,0-6.9,3.1-6.9,6.9s3.1,6.9,6.9,6.9c3.8,0,6.9-3.1,6.9-6.9S96.3,126.4,92.5,126.4L92.5,126.4z"/>
		</g>
	</g>
</g>
<g>
	<line fill="none" stroke="#75B640" stroke-width="2" stroke-miterlimit="10" x1="208.9" y1="97.6" x2="208.9" y2="133.3"/>
	<line fill="none" stroke="#75B640" stroke-width="2" stroke-miterlimit="10" x1="208.9" y1="97.6" x2="190.1" y2="133.3"/>
	<line fill="none" stroke="#75B640" stroke-width="2" stroke-miterlimit="10" x1="208.9" y1="97.6" x2="227.7" y2="133.3"/>
	<g>
		<path fill="#FFFFFF" d="M190.1,139.2c-3.3,0-5.9-2.6-5.9-5.9c0-3.3,2.6-5.9,5.9-5.9s5.9,2.6,5.9,5.9
			C196,136.5,193.4,139.2,190.1,139.2z"/>
		<g>
			<path fill="#75B640" d="M190.1,128.4c2.7,0,4.9,2.2,4.9,4.9s-2.2,4.9-4.9,4.9s-4.9-2.2-4.9-4.9S187.4,128.4,190.1,128.4
				 M190.1,126.4c-3.8,0-6.9,3.1-6.9,6.9s3.1,6.9,6.9,6.9s6.9-3.1,6.9-6.9S193.9,126.4,190.1,126.4L190.1,126.4z"/>
		</g>
	</g>
	<g>
		<path fill="#FFFFFF" d="M208.9,139.2c-3.3,0-5.9-2.6-5.9-5.9c0-3.3,2.6-5.9,5.9-5.9s5.9,2.6,5.9,5.9
			C214.8,136.5,212.2,139.2,208.9,139.2z"/>
		<g>
			<path fill="#75B640" d="M208.9,128.4c2.7,0,4.9,2.2,4.9,4.9s-2.2,4.9-4.9,4.9c-2.7,0-4.9-2.2-4.9-4.9S206.2,128.4,208.9,128.4
				 M208.9,126.4c-3.8,0-6.9,3.1-6.9,6.9s3.1,6.9,6.9,6.9c3.8,0,6.9-3.1,6.9-6.9S212.7,126.4,208.9,126.4L208.9,126.4z"/>
		</g>
	</g>
	<g>
		<path fill="#FFFFFF" d="M227.7,139.2c-3.3,0-5.9-2.6-5.9-5.9c0-3.3,2.6-5.9,5.9-5.9s5.9,2.6,5.9,5.9
			C233.6,136.5,231,139.2,227.7,139.2z"/>
		<g>
			<path fill="#75B640" d="M227.7,128.4c2.7,0,4.9,2.2,4.9,4.9s-2.2,4.9-4.9,4.9c-2.7,0-4.9-2.2-4.9-4.9S225,128.4,227.7,128.4
				 M227.7,126.4c-3.8,0-6.9,3.1-6.9,6.9s3.1,6.9,6.9,6.9c3.8,0,6.9-3.1,6.9-6.9S231.5,126.4,227.7,126.4L227.7,126.4z"/>
		</g>
	</g>
</g>
<g>
	<line fill="none" stroke="#75B640" stroke-width="2" stroke-miterlimit="10" x1="276.5" y1="97.6" x2="276.5" y2="133.3"/>
	<line fill="none" stroke="#75B640" stroke-width="2" stroke-miterlimit="10" x1="276.5" y1="97.6" x2="257.7" y2="133.3"/>
	<line fill="none" stroke="#75B640" stroke-width="2" stroke-miterlimit="10" x1="276.5" y1="97.6" x2="295.3" y2="133.3"/>
	<g>
		<path fill="#FFFFFF" d="M257.7,139.2c-3.3,0-5.9-2.6-5.9-5.9c0-3.3,2.6-5.9,5.9-5.9s5.9,2.6,5.9,5.9
			C263.6,136.5,261,139.2,257.7,139.2z"/>
		<g>
			<path fill="#75B640" d="M257.7,128.4c2.7,0,4.9,2.2,4.9,4.9s-2.2,4.9-4.9,4.9s-4.9-2.2-4.9-4.9S255,128.4,257.7,128.4
				 M257.7,126.4c-3.8,0-6.9,3.1-6.9,6.9s3.1,6.9,6.9,6.9c3.8,0,6.9-3.1,6.9-6.9S261.5,126.4,257.7,126.4L257.7,126.4z"/>
		</g>
	</g>
	<g>
		<path fill="#FFFFFF" d="M276.5,139.2c-3.3,0-5.9-2.6-5.9-5.9c0-3.3,2.6-5.9,5.9-5.9s5.9,2.6,5.9,5.9
			C282.4,136.5,279.8,139.2,276.5,139.2z"/>
		<g>
			<path fill="#75B640" d="M276.5,128.4c2.7,0,4.9,2.2,4.9,4.9s-2.2,4.9-4.9,4.9s-4.9-2.2-4.9-4.9S273.8,128.4,276.5,128.4
				 M276.5,126.4c-3.8,0-6.9,3.1-6.9,6.9s3.1,6.9,6.9,6.9s6.9-3.1,6.9-6.9S280.3,126.4,276.5,126.4L276.5,126.4z"/>
		</g>
	</g>
	<g>
		<path fill="#FFFFFF" d="M295.3,139.2c-3.3,0-5.9-2.6-5.9-5.9c0-3.3,2.6-5.9,5.9-5.9s5.9,2.6,5.9,5.9
			C301.2,136.5,298.6,139.2,295.3,139.2z"/>
		<g>
			<path fill="#75B640" d="M295.3,128.4c2.7,0,4.9,2.2,4.9,4.9s-2.2,4.9-4.9,4.9s-4.9-2.2-4.9-4.9S292.6,128.4,295.3,128.4
				 M295.3,126.4c-3.8,0-6.9,3.1-6.9,6.9s3.1,6.9,6.9,6.9s6.9-3.1,6.9-6.9S299.1,126.4,295.3,126.4L295.3,126.4z"/>
		</g>
	</g>
</g>
<g>
	<path fill="#FFFFFF" d="M208.9,109.9c-6.8,0-12.3-5.5-12.3-12.3c0-6.8,5.5-12.3,12.3-12.3s12.3,5.5,12.3,12.3
		C221.2,104.3,215.7,109.9,208.9,109.9z"/>
	<g>
		<path fill="#75B640" d="M208.9,86.8c6,0,10.8,4.8,10.8,10.8s-4.8,10.8-10.8,10.8c-6,0-10.8-4.8-10.8-10.8S202.9,86.8,208.9,86.8
			 M208.9,83.8c-7.6,0-13.8,6.2-13.8,13.8c0,7.6,6.2,13.8,13.8,13.8c7.6,0,13.8-6.2,13.8-13.8C222.7,89.9,216.5,83.8,208.9,83.8
			L208.9,83.8z"/>
	</g>
</g>
<g>
	<path fill="#FFFFFF" d="M276.5,109.9c-6.8,0-12.3-5.5-12.3-12.3c0-6.8,5.5-12.3,12.3-12.3s12.3,5.5,12.3,12.3
		C288.8,104.3,283.3,109.9,276.5,109.9z"/>
	<g>
		<path fill="#75B640" d="M276.5,86.8c6,0,10.8,4.8,10.8,10.8s-4.8,10.8-10.8,10.8c-6,0-10.8-4.8-10.8-10.8S270.5,86.8,276.5,86.8
			 M276.5,83.8c-7.6,0-13.8,6.2-13.8,13.8c0,7.6,6.2,13.8,13.8,13.8c7.6,0,13.8-6.2,13.8-13.8C290.3,89.9,284.1,83.8,276.5,83.8
			L276.5,83.8z"/>
	</g>
</g>
<g>
	<line fill="none" stroke="#75B640" stroke-width="2" stroke-miterlimit="10" x1="344.1" y1="97.6" x2="334.7" y2="133.3"/>
	<line fill="none" stroke="#75B640" stroke-width="2" stroke-miterlimit="10" x1="344.1" y1="97.6" x2="353.5" y2="133.3"/>
	<g>
		<path fill="#FFFFFF" d="M334.7,139.2c-3.3,0-5.9-2.6-5.9-5.9c0-3.3,2.6-5.9,5.9-5.9c3.3,0,5.9,2.6,5.9,5.9
			C340.6,136.5,338,139.2,334.7,139.2z"/>
		<g>
			<path fill="#75B640" d="M334.7,128.4c2.7,0,4.9,2.2,4.9,4.9s-2.2,4.9-4.9,4.9s-4.9-2.2-4.9-4.9S332,128.4,334.7,128.4
				 M334.7,126.4c-3.8,0-6.9,3.1-6.9,6.9s3.1,6.9,6.9,6.9s6.9-3.1,6.9-6.9S338.5,126.4,334.7,126.4L334.7,126.4z"/>
		</g>
	</g>
	<g>
		<path fill="#FFFFFF" d="M353.5,139.2c-3.3,0-5.9-2.6-5.9-5.9c0-3.3,2.6-5.9,5.9-5.9c3.3,0,5.9,2.6,5.9,5.9
			C359.4,136.5,356.8,139.2,353.5,139.2z"/>
		<g>
			<path fill="#75B640" d="M353.5,128.4c2.7,0,4.9,2.2,4.9,4.9s-2.2,4.9-4.9,4.9s-4.9-2.2-4.9-4.9S350.8,128.4,353.5,128.4
				 M353.5,126.4c-3.8,0-6.9,3.1-6.9,6.9s3.1,6.9,6.9,6.9c3.8,0,6.9-3.1,6.9-6.9S357.3,126.4,353.5,126.4L353.5,126.4z"/>
		</g>
	</g>
</g>
<g>
	<line fill="none" stroke="#75B640" stroke-width="2" stroke-miterlimit="10" x1="141.3" y1="97.6" x2="131.9" y2="133.3"/>
	<line fill="none" stroke="#75B640" stroke-width="2" stroke-miterlimit="10" x1="141.3" y1="97.6" x2="150.7" y2="133.3"/>
	<g>
		<path fill="#FFFFFF" d="M131.9,139.2c-3.3,0-5.9-2.6-5.9-5.9c0-3.3,2.6-5.9,5.9-5.9s5.9,2.6,5.9,5.9
			C137.8,136.5,135.2,139.2,131.9,139.2z"/>
		<g>
			<path fill="#75B640" d="M131.9,128.4c2.7,0,4.9,2.2,4.9,4.9s-2.2,4.9-4.9,4.9s-4.9-2.2-4.9-4.9S129.2,128.4,131.9,128.4
				 M131.9,126.4c-3.8,0-6.9,3.1-6.9,6.9s3.1,6.9,6.9,6.9s6.9-3.1,6.9-6.9S135.7,126.4,131.9,126.4L131.9,126.4z"/>
		</g>
	</g>
	<g>
		<path fill="#FFFFFF" d="M150.7,139.2c-3.3,0-5.9-2.6-5.9-5.9c0-3.3,2.6-5.9,5.9-5.9s5.9,2.6,5.9,5.9
			C156.6,136.5,154,139.2,150.7,139.2z"/>
		<g>
			<path fill="#75B640" d="M150.7,128.4c2.7,0,4.9,2.2,4.9,4.9s-2.2,4.9-4.9,4.9s-4.9-2.2-4.9-4.9S148,128.4,150.7,128.4
				 M150.7,126.4c-3.8,0-6.9,3.1-6.9,6.9s3.1,6.9,6.9,6.9c3.8,0,6.9-3.1,6.9-6.9S154.5,126.4,150.7,126.4L150.7,126.4z"/>
		</g>
	</g>
</g>
<g opacity="0.7">
	<g>
		<path fill="#454746" d="M412.6,89.3l-1,3h-1.3l3.2-9.4h1.5l3.2,9.4h-1.3l-1-3H412.6z M415.7,88.4l-0.9-2.7
			c-0.2-0.6-0.3-1.2-0.5-1.7h0c-0.1,0.6-0.3,1.1-0.5,1.7l-0.9,2.7H415.7z"/>
		<path fill="#454746" d="M424.2,92c-0.3,0.2-1,0.4-1.9,0.4c-2,0-3.4-1.4-3.4-3.5c0-2.1,1.4-3.6,3.6-3.6c0.7,0,1.4,0.2,1.7,0.4
			l-0.3,1c-0.3-0.2-0.8-0.3-1.4-0.3c-1.6,0-2.4,1.1-2.4,2.6c0,1.6,1,2.5,2.4,2.5c0.7,0,1.2-0.2,1.5-0.3L424.2,92z"/>
		<path fill="#454746" d="M427.3,83.5v1.9h1.8v0.9h-1.8v3.7c0,0.8,0.2,1.3,0.9,1.3c0.3,0,0.6,0,0.7-0.1l0.1,0.9
			c-0.2,0.1-0.6,0.2-1.1,0.2c-0.6,0-1-0.2-1.3-0.5c-0.3-0.4-0.5-1-0.5-1.8v-3.7h-1.1v-0.9h1.1v-1.6L427.3,83.5z"/>
		<path fill="#454746" d="M436.5,88.8c0,2.5-1.7,3.6-3.4,3.6c-1.8,0-3.2-1.3-3.2-3.5c0-2.3,1.5-3.6,3.4-3.6
			C435.2,85.3,436.5,86.8,436.5,88.8z M431.2,88.9c0,1.5,0.9,2.6,2.1,2.6c1.2,0,2.1-1.1,2.1-2.6c0-1.1-0.6-2.6-2-2.6
			C431.8,86.3,431.2,87.6,431.2,88.9z"/>
		<path fill="#454746" d="M438.1,87.6c0-0.8,0-1.5-0.1-2.1h1.1l0,1.3h0.1c0.3-0.9,1.1-1.5,1.9-1.5c0.1,0,0.2,0,0.3,0v1.2
			c-0.1,0-0.3,0-0.4,0c-0.9,0-1.5,0.7-1.7,1.6c0,0.2-0.1,0.4-0.1,0.6v3.6h-1.2V87.6z"/>
		<path fill="#454746" d="M442.5,91c0.4,0.2,1,0.5,1.6,0.5c0.9,0,1.3-0.4,1.3-1c0-0.6-0.4-0.9-1.3-1.2c-1.2-0.4-1.8-1.1-1.8-1.9
			c0-1.1,0.9-2,2.3-2c0.7,0,1.3,0.2,1.7,0.4l-0.3,0.9c-0.3-0.2-0.8-0.4-1.4-0.4c-0.7,0-1.1,0.4-1.1,0.9c0,0.6,0.4,0.8,1.3,1.1
			c1.2,0.4,1.8,1,1.8,2c0,1.2-0.9,2-2.5,2c-0.7,0-1.4-0.2-1.9-0.5L442.5,91z"/>
	</g>
</g>
<g opacity="0.7">
	<g>
		<path fill="none" stroke="#454746" stroke-width="1.0721" stroke-miterlimit="10" d="M401.4,88.8c-6.5,0-12.8,0.6-19.2,3.5"/>
		<g>
			<path fill="#454746" d="M377.7,94.7c1.7-1.9,3.7-4.7,4.6-7l0.6,4.3l3.2,2.9C383.6,94.3,380.2,94.4,377.7,94.7z"/>
		</g>
	</g>
</g>
<g>
	<path fill="#FFFFFF" d="M73.7,109.9c-6.8,0-12.3-5.5-12.3-12.3c0-6.8,5.5-12.3,12.3-12.3S86,90.8,86,97.6
		C86,104.3,80.5,109.9,73.7,109.9z"/>
	<g>
		<path fill="#75B640" d="M73.7,86.8c6,0,10.8,4.8,10.8,10.8s-4.8,10.8-10.8,10.8s-10.8-4.8-10.8-10.8S67.7,86.8,73.7,86.8
			 M73.7,83.8c-7.6,0-13.8,6.2-13.8,13.8c0,7.6,6.2,13.8,13.8,13.8s13.8-6.2,13.8-13.8C87.5,89.9,81.3,83.8,73.7,83.8L73.7,83.8z"/>
	</g>
</g>
<g>
	<path fill="#FFFFFF" d="M344.1,109.9c-6.8,0-12.3-5.5-12.3-12.3c0-6.8,5.5-12.3,12.3-12.3s12.3,5.5,12.3,12.3
		C356.4,104.3,350.9,109.9,344.1,109.9z"/>
	<g>
		<path fill="#75B640" d="M344.1,86.8c6,0,10.8,4.8,10.8,10.8s-4.8,10.8-10.8,10.8c-6,0-10.8-4.8-10.8-10.8S338.1,86.8,344.1,86.8
			 M344.1,83.8c-7.6,0-13.8,6.2-13.8,13.8c0,7.6,6.2,13.8,13.8,13.8c7.6,0,13.8-6.2,13.8-13.8C357.9,89.9,351.7,83.8,344.1,83.8
			L344.1,83.8z"/>
	</g>
</g>
<g>
	<path fill="#FFFFFF" d="M141.3,109.9c-6.8,0-12.3-5.5-12.3-12.3c0-6.8,5.5-12.3,12.3-12.3s12.3,5.5,12.3,12.3
		C153.6,104.3,148.1,109.9,141.3,109.9z"/>
	<g>
		<path fill="#75B640" d="M141.3,86.8c6,0,10.8,4.8,10.8,10.8s-4.8,10.8-10.8,10.8s-10.8-4.8-10.8-10.8S135.3,86.8,141.3,86.8
			 M141.3,83.8c-7.6,0-13.8,6.2-13.8,13.8c0,7.6,6.2,13.8,13.8,13.8c7.6,0,13.8-6.2,13.8-13.8C155.1,89.9,148.9,83.8,141.3,83.8
			L141.3,83.8z"/>
	</g>
</g>
<path fill="#F8FAF6" d="M476.2,183.2H25c-2.7,0-4.8-2.1-4.8-4.8V21.2c0-2.7,2.1-4.8,4.8-4.8h451.2c2.7,0,4.8,2.1,4.8,4.8v157.2
	C481,181.1,478.8,183.2,476.2,183.2z"/>
<path fill="#E5EAE4" d="M20.2,48.4V21.2c0-2.7,2.1-4.8,4.8-4.8h451.2c2.7,0,4.8,2.1,4.8,4.8v27.2H20.2z"/>
<g>
	<g>
		<path fill="#454746" d="M54.9,36.8c0.6,0.4,1.5,0.7,2.4,0.7c1.4,0,2.2-0.7,2.2-1.8c0-1-0.6-1.5-2-2.1c-1.7-0.6-2.8-1.5-2.8-3
			c0-1.6,1.4-2.9,3.4-2.9c1.1,0,1.9,0.2,2.3,0.5l-0.4,1.1c-0.3-0.2-1-0.5-2-0.5c-1.4,0-2,0.9-2,1.6c0,1,0.6,1.5,2.1,2
			c1.8,0.7,2.7,1.5,2.7,3.1c0,1.6-1.2,3-3.7,3c-1,0-2.1-0.3-2.7-0.7L54.9,36.8z"/>
		<path fill="#454746" d="M69.7,34.6c0,2.8-1.9,4-3.8,4c-2,0-3.6-1.5-3.6-3.9c0-2.5,1.7-4,3.7-4C68.2,30.7,69.7,32.3,69.7,34.6z
			 M63.7,34.7c0,1.7,1,2.9,2.3,2.9c1.3,0,2.3-1.2,2.3-2.9c0-1.3-0.6-2.9-2.3-2.9C64.4,31.7,63.7,33.2,63.7,34.7z"/>
		<path fill="#454746" d="M71.4,33.2c0-0.9,0-1.7-0.1-2.4h1.2l0,1.5h0.1c0.3-1,1.2-1.7,2.1-1.7c0.2,0,0.3,0,0.4,0v1.3
			c-0.1,0-0.3,0-0.5,0c-1,0-1.7,0.7-1.8,1.8c0,0.2-0.1,0.4-0.1,0.6v4h-1.4V33.2z"/>
		<path fill="#454746" d="M78.5,28.7v2.2h2v1h-2V36c0,0.9,0.3,1.5,1,1.5c0.4,0,0.6,0,0.8-0.1l0.1,1c-0.3,0.1-0.7,0.2-1.2,0.2
			c-0.6,0-1.2-0.2-1.5-0.6c-0.4-0.4-0.5-1.1-0.5-2v-4.1H76v-1h1.2v-1.8L78.5,28.7z"/>
	</g>
</g>
<circle opacity="0.8" fill="#7C7C7C" cx="38" cy="33.2" r="8.6"/>
<g>
	<g>
		<path fill="#FFFFFF" d="M35,37.4v-0.9l1-0.9c1.9-1.8,2.8-2.7,2.8-3.8c0-0.7-0.4-1.4-1.4-1.4c-0.7,0-1.3,0.4-1.7,0.7L35.1,30
			c0.6-0.5,1.5-0.8,2.5-0.8c1.8,0,2.7,1.1,2.7,2.5c0,1.4-1,2.6-2.4,3.9l-0.7,0.6v0h3.3v1.3H35z"/>
	</g>
</g>
<g>
	<path fill="#454746" d="M67.3,154.2l0.4-2.5h-1.1v-1.3h1.4l0.2-1.6h-1.2v-1.3h1.4l0.4-2.4h1.2l-0.4,2.4h1.3l0.4-2.4h1.2l-0.4,2.4
		h1.1v1.3h-1.3l-0.2,1.6h1.1v1.3h-1.4l-0.4,2.5h-1.3l0.4-2.5h-1.3l-0.4,2.5H67.3z M70.4,150.4l0.2-1.6h-1.3l-0.2,1.6H70.4z"/>
	<path fill="#454746" d="M77,147L77,147l-1.8,0.8l-0.3-1.6l2.4-1.1H79v9.1H77V147z"/>
</g>
<g>
	<path fill="#454746" d="M134.9,154.2l0.4-2.5h-1.1v-1.3h1.4l0.2-1.6h-1.2v-1.3h1.4l0.4-2.4h1.2l-0.4,2.4h1.3l0.3-2.4h1.2l-0.4,2.4
		h1.1v1.3h-1.3l-0.2,1.6h1.1v1.3H139l-0.4,2.5h-1.3l0.4-2.5h-1.3l-0.4,2.5H134.9z M138,150.4l0.2-1.6h-1.3l-0.2,1.6H138z"/>
	<path fill="#454746" d="M141.9,154.2v-1.3l1.2-1.1c2-1.8,3-2.8,3-3.9c0-0.7-0.4-1.3-1.5-1.3c-0.8,0-1.5,0.4-1.9,0.7l-0.6-1.5
		c0.7-0.5,1.8-0.9,3-0.9c2.1,0,3.2,1.2,3.2,2.8c0,1.5-1.1,2.8-2.4,3.9l-0.8,0.7v0h3.4v1.8H141.9z"/>
</g>
<g>
	<path fill="#454746" d="M202.5,154.2l0.4-2.5h-1.1v-1.3h1.4l0.2-1.6h-1.2v-1.3h1.4l0.4-2.4h1.2l-0.3,2.4h1.3l0.4-2.4h1.2l-0.4,2.4
		h1.1v1.3H207l-0.2,1.6h1.1v1.3h-1.4l-0.3,2.5H205l0.4-2.5h-1.3l-0.3,2.5H202.5z M205.6,150.4l0.2-1.6h-1.3l-0.2,1.6H205.6z"/>
	<path fill="#454746" d="M209.8,152.1c0.4,0.2,1.2,0.6,2.1,0.6c1.1,0,1.7-0.5,1.7-1.2c0-0.9-0.9-1.3-1.8-1.3h-0.9v-1.5h0.8
		c0.7,0,1.6-0.3,1.6-1.1c0-0.5-0.4-1-1.3-1c-0.7,0-1.5,0.3-1.9,0.5l-0.4-1.5c0.5-0.4,1.6-0.7,2.8-0.7c1.9,0,3,1,3,2.3
		c0,1-0.5,1.7-1.7,2.1v0c1.1,0.2,2,1,2,2.2c0,1.6-1.4,2.8-3.7,2.8c-1.2,0-2.2-0.3-2.7-0.6L209.8,152.1z"/>
</g>
<g>
	<path fill="#454746" d="M270.1,154.2l0.4-2.5h-1.1v-1.3h1.4l0.2-1.6h-1.2v-1.3h1.4l0.4-2.4h1.2l-0.4,2.4h1.3l0.3-2.4h1.2l-0.4,2.4
		h1.1v1.3h-1.3l-0.2,1.6h1.1v1.3h-1.4l-0.4,2.5h-1.3l0.4-2.5h-1.3l-0.4,2.5H270.1z M273.2,150.4l0.2-1.6h-1.3l-0.2,1.6H273.2z"/>
	<path fill="#454746" d="M280.8,154.2V152h-4v-1.4l3.4-5.5h2.6v5.3h1.1v1.6h-1.1v2.2H280.8z M280.8,150.4v-2c0-0.5,0-1.1,0.1-1.7h0
		c-0.3,0.6-0.5,1.1-0.9,1.7l-1.2,2l0,0H280.8z"/>
</g>
<g>
	<path fill="#454746" d="M337.7,154.2l0.4-2.5h-1.1v-1.3h1.4l0.2-1.6h-1.2v-1.3h1.4l0.4-2.4h1.2l-0.3,2.4h1.3l0.4-2.4h1.2l-0.4,2.4
		h1.1v1.3h-1.3l-0.2,1.6h1.1v1.3h-1.4l-0.3,2.5h-1.3l0.4-2.5h-1.3l-0.3,2.5H337.7z M340.8,150.4l0.2-1.6h-1.3l-0.2,1.6H340.8z"/>
	<path fill="#454746" d="M350.7,146.8h-3.5l-0.2,1.4c0.2,0,0.4,0,0.6,0c0.9,0,1.8,0.2,2.4,0.7c0.7,0.5,1.1,1.2,1.1,2.3
		c0,1.7-1.5,3.2-3.9,3.2c-1.1,0-2-0.3-2.5-0.5l0.4-1.6c0.4,0.2,1.2,0.4,2,0.4c0.9,0,1.8-0.4,1.8-1.4c0-0.9-0.7-1.5-2.6-1.5
		c-0.5,0-0.9,0-1.2,0.1l0.6-4.8h5V146.8z"/>
</g>
<g>
	<line fill="none" stroke="#75B640" stroke-width="2" stroke-miterlimit="10" x1="276.5" y1="87.6" x2="276.5" y2="123.3"/>
	<line fill="none" stroke="#75B640" stroke-width="2" stroke-miterlimit="10" x1="276.5" y1="87.6" x2="257.7" y2="123.3"/>
	<line fill="none" stroke="#75B640" stroke-width="2" stroke-miterlimit="10" x1="276.5" y1="87.6" x2="295.3" y2="123.3"/>
	<g>
		<path fill="#FFFFFF" d="M257.7,129.2c-3.3,0-5.9-2.6-5.9-5.9c0-3.3,2.6-5.9,5.9-5.9s5.9,2.6,5.9,5.9
			C263.6,126.5,261,129.2,257.7,129.2z"/>
		<g>
			<path fill="#75B640" d="M257.7,118.4c2.7,0,4.9,2.2,4.9,4.9s-2.2,4.9-4.9,4.9s-4.9-2.2-4.9-4.9S255,118.4,257.7,118.4
				 M257.7,116.4c-3.8,0-6.9,3.1-6.9,6.9s3.1,6.9,6.9,6.9c3.8,0,6.9-3.1,6.9-6.9S261.5,116.4,257.7,116.4L257.7,116.4z"/>
		</g>
	</g>
	<g>
		<path fill="#FFFFFF" d="M276.5,129.2c-3.3,0-5.9-2.6-5.9-5.9c0-3.3,2.6-5.9,5.9-5.9s5.9,2.6,5.9,5.9
			C282.4,126.5,279.8,129.2,276.5,129.2z"/>
		<g>
			<path fill="#75B640" d="M276.5,118.4c2.7,0,4.9,2.2,4.9,4.9s-2.2,4.9-4.9,4.9s-4.9-2.2-4.9-4.9S273.8,118.4,276.5,118.4
				 M276.5,116.4c-3.8,0-6.9,3.1-6.9,6.9s3.1,6.9,6.9,6.9s6.9-3.1,6.9-6.9S280.3,116.4,276.5,116.4L276.5,116.4z"/>
		</g>
	</g>
	<g>
		<path fill="#FFFFFF" d="M295.3,129.2c-3.3,0-5.9-2.6-5.9-5.9c0-3.3,2.6-5.9,5.9-5.9s5.9,2.6,5.9,5.9
			C301.2,126.5,298.6,129.2,295.3,129.2z"/>
		<g>
			<path fill="#75B640" d="M295.3,118.4c2.7,0,4.9,2.2,4.9,4.9s-2.2,4.9-4.9,4.9s-4.9-2.2-4.9-4.9S292.6,118.4,295.3,118.4
				 M295.3,116.4c-3.8,0-6.9,3.1-6.9,6.9s3.1,6.9,6.9,6.9s6.9-3.1,6.9-6.9S299.1,116.4,295.3,116.4L295.3,116.4z"/>
		</g>
	</g>
</g>
<g>
	<line fill="none" stroke="#75B640" stroke-width="2" stroke-miterlimit="10" x1="141.3" y1="87.6" x2="141.3" y2="123.3"/>
	<line fill="none" stroke="#75B640" stroke-width="2" stroke-miterlimit="10" x1="141.3" y1="87.6" x2="122.5" y2="123.3"/>
	<line fill="none" stroke="#75B640" stroke-width="2" stroke-miterlimit="10" x1="141.3" y1="87.6" x2="160.1" y2="123.3"/>
	<g>
		<path fill="#FFFFFF" d="M122.5,129.2c-3.3,0-5.9-2.6-5.9-5.9c0-3.3,2.6-5.9,5.9-5.9s5.9,2.6,5.9,5.9
			C128.4,126.5,125.8,129.2,122.5,129.2z"/>
		<g>
			<path fill="#75B640" d="M122.5,118.4c2.7,0,4.9,2.2,4.9,4.9s-2.2,4.9-4.9,4.9c-2.7,0-4.9-2.2-4.9-4.9S119.8,118.4,122.5,118.4
				 M122.5,116.4c-3.8,0-6.9,3.1-6.9,6.9s3.1,6.9,6.9,6.9c3.8,0,6.9-3.1,6.9-6.9S126.3,116.4,122.5,116.4L122.5,116.4z"/>
		</g>
	</g>
	<g>
		<path fill="#FFFFFF" d="M141.3,129.2c-3.3,0-5.9-2.6-5.9-5.9c0-3.3,2.6-5.9,5.9-5.9s5.9,2.6,5.9,5.9
			C147.2,126.5,144.6,129.2,141.3,129.2z"/>
		<g>
			<path fill="#75B640" d="M141.3,118.4c2.7,0,4.9,2.2,4.9,4.9s-2.2,4.9-4.9,4.9s-4.9-2.2-4.9-4.9S138.6,118.4,141.3,118.4
				 M141.3,116.4c-3.8,0-6.9,3.1-6.9,6.9s3.1,6.9,6.9,6.9c3.8,0,6.9-3.1,6.9-6.9S145.1,116.4,141.3,116.4L141.3,116.4z"/>
		</g>
	</g>
	<g>
		<path fill="#FFFFFF" d="M160.1,129.2c-3.3,0-5.9-2.6-5.9-5.9c0-3.3,2.6-5.9,5.9-5.9s5.9,2.6,5.9,5.9
			C166,126.5,163.4,129.2,160.1,129.2z"/>
		<g>
			<path fill="#75B640" d="M160.1,118.4c2.7,0,4.9,2.2,4.9,4.9s-2.2,4.9-4.9,4.9s-4.9-2.2-4.9-4.9S157.4,118.4,160.1,118.4
				 M160.1,116.4c-3.8,0-6.9,3.1-6.9,6.9s3.1,6.9,6.9,6.9c3.8,0,6.9-3.1,6.9-6.9S163.9,116.4,160.1,116.4L160.1,116.4z"/>
		</g>
	</g>
</g>
<g>
	<line fill="none" stroke="#75B640" stroke-width="2" stroke-miterlimit="10" x1="73.7" y1="87.6" x2="73.7" y2="123.3"/>
	<line fill="none" stroke="#75B640" stroke-width="2" stroke-miterlimit="10" x1="73.7" y1="87.6" x2="54.9" y2="123.3"/>
	<line fill="none" stroke="#75B640" stroke-width="2" stroke-miterlimit="10" x1="73.7" y1="87.6" x2="92.5" y2="123.3"/>
	<g>
		<path fill="#FFFFFF" d="M54.9,129.2c-3.3,0-5.9-2.6-5.9-5.9c0-3.3,2.6-5.9,5.9-5.9s5.9,2.6,5.9,5.9
			C60.8,126.5,58.2,129.2,54.9,129.2z"/>
		<g>
			<path fill="#75B640" d="M54.9,118.4c2.7,0,4.9,2.2,4.9,4.9s-2.2,4.9-4.9,4.9S50,126,50,123.3S52.2,118.4,54.9,118.4 M54.9,116.4
				c-3.8,0-6.9,3.1-6.9,6.9s3.1,6.9,6.9,6.9c3.8,0,6.9-3.1,6.9-6.9S58.7,116.4,54.9,116.4L54.9,116.4z"/>
		</g>
	</g>
	<g>
		<path fill="#FFFFFF" d="M73.7,129.2c-3.3,0-5.9-2.6-5.9-5.9c0-3.3,2.6-5.9,5.9-5.9s5.9,2.6,5.9,5.9
			C79.6,126.5,77,129.2,73.7,129.2z"/>
		<g>
			<path fill="#75B640" d="M73.7,118.4c2.7,0,4.9,2.2,4.9,4.9s-2.2,4.9-4.9,4.9s-4.9-2.2-4.9-4.9S71,118.4,73.7,118.4 M73.7,116.4
				c-3.8,0-6.9,3.1-6.9,6.9s3.1,6.9,6.9,6.9c3.8,0,6.9-3.1,6.9-6.9S77.5,116.4,73.7,116.4L73.7,116.4z"/>
		</g>
	</g>
	<g>
		<path fill="#FFFFFF" d="M92.5,129.2c-3.3,0-5.9-2.6-5.9-5.9c0-3.3,2.6-5.9,5.9-5.9s5.9,2.6,5.9,5.9
			C98.4,126.5,95.8,129.2,92.5,129.2z"/>
		<g>
			<path fill="#75B640" d="M92.5,118.4c2.7,0,4.9,2.2,4.9,4.9s-2.2,4.9-4.9,4.9s-4.9-2.2-4.9-4.9S89.8,118.4,92.5,118.4 M92.5,116.4
				c-3.8,0-6.9,3.1-6.9,6.9s3.1,6.9,6.9,6.9c3.8,0,6.9-3.1,6.9-6.9S96.3,116.4,92.5,116.4L92.5,116.4z"/>
		</g>
	</g>
</g>
<g>
	<path fill="#FFFFFF" d="M276.5,99.9c-6.8,0-12.3-5.5-12.3-12.3s5.5-12.3,12.3-12.3s12.3,5.5,12.3,12.3S283.3,99.9,276.5,99.9z"/>
	<g>
		<path fill="#75B640" d="M276.5,76.8c6,0,10.8,4.8,10.8,10.8s-4.8,10.8-10.8,10.8c-6,0-10.8-4.8-10.8-10.8S270.5,76.8,276.5,76.8
			 M276.5,73.8c-7.6,0-13.8,6.2-13.8,13.8c0,7.6,6.2,13.8,13.8,13.8c7.6,0,13.8-6.2,13.8-13.8C290.3,80,284.1,73.8,276.5,73.8
			L276.5,73.8z"/>
	</g>
</g>
<g>
	<line fill="none" stroke="#75B640" stroke-width="2" stroke-miterlimit="10" x1="208.9" y1="87.6" x2="199.5" y2="123.3"/>
	<line fill="none" stroke="#75B640" stroke-width="2" stroke-miterlimit="10" x1="208.9" y1="87.6" x2="218.3" y2="123.3"/>
	<g>
		<path fill="#FFFFFF" d="M199.5,129.2c-3.3,0-5.9-2.6-5.9-5.9c0-3.3,2.6-5.9,5.9-5.9s5.9,2.6,5.9,5.9
			C205.4,126.5,202.8,129.2,199.5,129.2z"/>
		<g>
			<path fill="#75B640" d="M199.5,118.4c2.7,0,4.9,2.2,4.9,4.9s-2.2,4.9-4.9,4.9s-4.9-2.2-4.9-4.9S196.8,118.4,199.5,118.4
				 M199.5,116.4c-3.8,0-6.9,3.1-6.9,6.9s3.1,6.9,6.9,6.9s6.9-3.1,6.9-6.9S203.3,116.4,199.5,116.4L199.5,116.4z"/>
		</g>
	</g>
	<g>
		<path fill="#FFFFFF" d="M218.3,129.2c-3.3,0-5.9-2.6-5.9-5.9c0-3.3,2.6-5.9,5.9-5.9s5.9,2.6,5.9,5.9
			C224.2,126.5,221.6,129.2,218.3,129.2z"/>
		<g>
			<path fill="#75B640" d="M218.3,118.4c2.7,0,4.9,2.2,4.9,4.9s-2.2,4.9-4.9,4.9c-2.7,0-4.9-2.2-4.9-4.9S215.6,118.4,218.3,118.4
				 M218.3,116.4c-3.8,0-6.9,3.1-6.9,6.9s3.1,6.9,6.9,6.9c3.8,0,6.9-3.1,6.9-6.9S222.1,116.4,218.3,116.4L218.3,116.4z"/>
		</g>
	</g>
</g>
<g>
	<line fill="none" stroke="#75B640" stroke-width="2" stroke-miterlimit="10" x1="344.1" y1="87.6" x2="334.7" y2="123.3"/>
	<line fill="none" stroke="#75B640" stroke-width="2" stroke-miterlimit="10" x1="344.1" y1="87.6" x2="353.5" y2="123.3"/>
	<g>
		<path fill="#FFFFFF" d="M334.7,129.2c-3.3,0-5.9-2.6-5.9-5.9c0-3.3,2.6-5.9,5.9-5.9c3.3,0,5.9,2.6,5.9,5.9
			C340.6,126.5,338,129.2,334.7,129.2z"/>
		<g>
			<path fill="#75B640" d="M334.7,118.4c2.7,0,4.9,2.2,4.9,4.9s-2.2,4.9-4.9,4.9s-4.9-2.2-4.9-4.9S332,118.4,334.7,118.4
				 M334.7,116.4c-3.8,0-6.9,3.1-6.9,6.9s3.1,6.9,6.9,6.9s6.9-3.1,6.9-6.9S338.5,116.4,334.7,116.4L334.7,116.4z"/>
		</g>
	</g>
	<g>
		<path fill="#FFFFFF" d="M353.5,129.2c-3.3,0-5.9-2.6-5.9-5.9c0-3.3,2.6-5.9,5.9-5.9c3.3,0,5.9,2.6,5.9,5.9
			C359.4,126.5,356.8,129.2,353.5,129.2z"/>
		<g>
			<path fill="#75B640" d="M353.5,118.4c2.7,0,4.9,2.2,4.9,4.9s-2.2,4.9-4.9,4.9s-4.9-2.2-4.9-4.9S350.8,118.4,353.5,118.4
				 M353.5,116.4c-3.8,0-6.9,3.1-6.9,6.9s3.1,6.9,6.9,6.9c3.8,0,6.9-3.1,6.9-6.9S357.3,116.4,353.5,116.4L353.5,116.4z"/>
		</g>
	</g>
</g>
<g>
	<path fill="#FFFFFF" d="M73.7,99.9c-6.8,0-12.3-5.5-12.3-12.3s5.5-12.3,12.3-12.3S86,80.8,86,87.6S80.5,99.9,73.7,99.9z"/>
	<g>
		<path fill="#75B640" d="M73.7,76.8c6,0,10.8,4.8,10.8,10.8s-4.8,10.8-10.8,10.8s-10.8-4.8-10.8-10.8S67.7,76.8,73.7,76.8
			 M73.7,73.8c-7.6,0-13.8,6.2-13.8,13.8c0,7.6,6.2,13.8,13.8,13.8s13.8-6.2,13.8-13.8C87.5,80,81.3,73.8,73.7,73.8L73.7,73.8z"/>
	</g>
</g>
<g>
	<path fill="#FFFFFF" d="M141.3,99.9c-6.8,0-12.3-5.5-12.3-12.3s5.5-12.3,12.3-12.3s12.3,5.5,12.3,12.3S148.1,99.9,141.3,99.9z"/>
	<g>
		<path fill="#75B640" d="M141.3,76.8c6,0,10.8,4.8,10.8,10.8s-4.8,10.8-10.8,10.8s-10.8-4.8-10.8-10.8S135.3,76.8,141.3,76.8
			 M141.3,73.8c-7.6,0-13.8,6.2-13.8,13.8c0,7.6,6.2,13.8,13.8,13.8c7.6,0,13.8-6.2,13.8-13.8C155.1,80,148.9,73.8,141.3,73.8
			L141.3,73.8z"/>
	</g>
</g>
<g>
	<path fill="#FFFFFF" d="M208.9,99.9c-6.8,0-12.3-5.5-12.3-12.3s5.5-12.3,12.3-12.3s12.3,5.5,12.3,12.3S215.7,99.9,208.9,99.9z"/>
	<g>
		<path fill="#75B640" d="M208.9,76.8c6,0,10.8,4.8,10.8,10.8s-4.8,10.8-10.8,10.8c-6,0-10.8-4.8-10.8-10.8S202.9,76.8,208.9,76.8
			 M208.9,73.8c-7.6,0-13.8,6.2-13.8,13.8c0,7.6,6.2,13.8,13.8,13.8c7.6,0,13.8-6.2,13.8-13.8C222.7,80,216.5,73.8,208.9,73.8
			L208.9,73.8z"/>
	</g>
</g>
<g>
	<path fill="#FFFFFF" d="M344.1,99.9c-6.8,0-12.3-5.5-12.3-12.3s5.5-12.3,12.3-12.3s12.3,5.5,12.3,12.3S350.9,99.9,344.1,99.9z"/>
	<g>
		<path fill="#75B640" d="M344.1,76.8c6,0,10.8,4.8,10.8,10.8s-4.8,10.8-10.8,10.8c-6,0-10.8-4.8-10.8-10.8S338.1,76.8,344.1,76.8
			 M344.1,73.8c-7.6,0-13.8,6.2-13.8,13.8c0,7.6,6.2,13.8,13.8,13.8c7.6,0,13.8-6.2,13.8-13.8C357.9,80,351.7,73.8,344.1,73.8
			L344.1,73.8z"/>
	</g>
</g>
</svg>
