<?xml version="1.0" encoding="utf-8"?>
<!-- Generator: Adobe Illustrator 18.0.0, SVG Export Plug-In . SVG Version: 6.00 Build 0)  -->
<!DOCTYPE svg PUBLIC "-//W3C//DTD SVG 1.1//EN" "http://www.w3.org/Graphics/SVG/1.1/DTD/svg11.dtd">
<svg version="1.1" id="graphs" xmlns="http://www.w3.org/2000/svg" xmlns:xlink="http://www.w3.org/1999/xlink" x="0px" y="0px"
	 viewBox="0 0 900 600" enable-background="new 0 0 900 600" xml:space="preserve">
<path fill="#F8FAF6" d="M694.7,471.6H171.5c-1.3,0-2.4-1.1-2.4-2.4V161.7c0-1.3,1.1-2.4,2.4-2.4h523.2c1.3,0,2.4,1.1,2.4,2.4v307.5
	C697.1,470.5,696,471.6,694.7,471.6z"/>
<g>
	<line fill="none" stroke="#D6D6D6" stroke-miterlimit="10" x1="173.1" y1="163.3" x2="693.1" y2="163.3"/>
	<line fill="none" stroke="#D6D6D6" stroke-miterlimit="10" x1="173.1" y1="214" x2="693.1" y2="214"/>
	<line fill="none" stroke="#D6D6D6" stroke-miterlimit="10" x1="173.1" y1="264.7" x2="693.1" y2="264.7"/>
	<line fill="none" stroke="#D6D6D6" stroke-miterlimit="10" x1="173.1" y1="315.3" x2="693.1" y2="315.3"/>
	<line fill="none" stroke="#D6D6D6" stroke-miterlimit="10" x1="173.1" y1="366" x2="693.1" y2="366"/>
	<line fill="none" stroke="#D6D6D6" stroke-miterlimit="10" x1="173.1" y1="416.7" x2="693.1" y2="416.7"/>
	<line fill="none" stroke="#D6D6D6" stroke-miterlimit="10" x1="173.1" y1="467.3" x2="693.1" y2="467.3"/>
</g>
<g>
	<path fill="#454746" d="M246.8,139c0.8,0.4,1.9,0.8,3.1,0.8c1.5,0,2.4-0.7,2.4-1.8c0-1-0.7-1.6-2.3-2.1c-2.1-0.8-3.5-1.9-3.5-3.8
		c0-2.1,1.8-3.7,4.6-3.7c1.4,0,2.4,0.3,3.1,0.7l-0.6,1.9c-0.5-0.2-1.4-0.6-2.6-0.6c-1.5,0-2.1,0.8-2.1,1.6c0,1,0.7,1.5,2.5,2.1
		c2.2,0.8,3.3,2,3.3,3.8c0,2.1-1.6,3.9-4.9,3.9c-1.4,0-2.8-0.4-3.5-0.8L246.8,139z"/>
	<path fill="#454746" d="M262.1,141.6l-0.2-1h-0.1c-0.6,0.7-1.6,1.2-2.8,1.2c-1.9,0-2.9-1.4-2.9-2.8c0-2.4,2.1-3.6,5.5-3.5v-0.2
		c0-0.6-0.2-1.6-1.9-1.6c-0.9,0-1.9,0.3-2.5,0.7l-0.5-1.5c0.7-0.4,1.9-0.8,3.4-0.8c3,0,3.9,1.9,3.9,3.9v3.4c0,0.8,0,1.7,0.1,2.2
		H262.1z M261.8,137c-1.7,0-3.3,0.3-3.3,1.7c0,0.9,0.6,1.3,1.3,1.3c0.9,0,1.6-0.6,1.8-1.3c0.1-0.2,0.1-0.4,0.1-0.5V137z"/>
	<path fill="#454746" d="M266.6,128h2.4v13.6h-2.4V128z"/>
	<path fill="#454746" d="M273.2,137.6c0.1,1.7,1.4,2.4,2.9,2.4c1.1,0,1.9-0.2,2.6-0.4l0.3,1.6c-0.8,0.3-1.9,0.6-3.3,0.6
		c-3,0-4.8-1.9-4.8-4.7c0-2.6,1.6-5,4.6-5c3,0,4,2.5,4,4.5c0,0.4,0,0.8-0.1,1H273.2z M277.3,136c0-0.9-0.4-2.3-1.9-2.3
		c-1.5,0-2.1,1.3-2.2,2.3H277.3z"/>
	<path fill="#454746" d="M281.3,139.4c0.5,0.3,1.6,0.7,2.4,0.7c1,0,1.5-0.4,1.5-1c0-0.6-0.4-1-1.5-1.4c-1.8-0.6-2.6-1.6-2.6-2.7
		c0-1.7,1.4-2.9,3.5-2.9c1,0,1.9,0.3,2.5,0.6l-0.5,1.7c-0.4-0.2-1.2-0.5-2-0.5c-0.8,0-1.3,0.4-1.3,1c0,0.6,0.4,0.9,1.6,1.3
		c1.7,0.6,2.5,1.5,2.5,2.9c0,1.7-1.3,2.9-3.8,2.9c-1.1,0-2.2-0.3-2.8-0.7L281.3,139.4z"/>
	<path fill="#454746" d="M293.4,135.4c0-1.2,0-2.2-0.1-3.1h2.1l0.1,1.4h0c0.7-1.1,1.8-1.7,3.2-1.7c2.2,0,3.9,1.8,3.9,4.8
		c0,3.4-2.1,5-4.3,5c-1.2,0-2.1-0.5-2.6-1.2h0v4.8h-2.4V135.4z M295.8,137.7c0,0.2,0,0.4,0.1,0.7c0.2,1,1.1,1.7,2.1,1.7
		c1.5,0,2.4-1.2,2.4-3.1c0-1.7-0.8-3-2.3-3c-1,0-1.9,0.7-2.1,1.7c-0.1,0.2-0.1,0.4-0.1,0.6V137.7z"/>
	<path fill="#454746" d="M306.3,137.6c0.1,1.7,1.4,2.4,2.9,2.4c1.1,0,1.9-0.2,2.6-0.4l0.3,1.6c-0.8,0.3-1.9,0.6-3.3,0.6
		c-3,0-4.8-1.9-4.8-4.7c0-2.6,1.6-5,4.6-5c3,0,4,2.5,4,4.5c0,0.4,0,0.8-0.1,1H306.3z M310.4,136c0-0.9-0.4-2.3-1.9-2.3
		c-1.5,0-2.1,1.3-2.2,2.3H310.4z"/>
	<path fill="#454746" d="M314.5,135.3c0-1.3,0-2.2-0.1-3h2.1l0.1,1.8h0.1c0.5-1.3,1.6-2,2.6-2c0.2,0,0.4,0,0.6,0.1v2.2
		c-0.2,0-0.4-0.1-0.7-0.1c-1.1,0-1.9,0.7-2.1,1.8c0,0.2-0.1,0.5-0.1,0.7v4.8h-2.4V135.3z"/>
	<path fill="#454746" d="M336.3,143.7c-1.8-0.5-3.4-1-5-1.7c-0.3-0.1-0.6-0.2-0.8-0.2c-3-0.2-5.7-2.4-5.7-6.6c0-4,2.5-6.8,6.2-6.8
		c3.7,0,6,2.9,6,6.5c0,3.1-1.4,5.2-3.3,6v0.1c1.1,0.3,2.4,0.6,3.4,0.8L336.3,143.7z M334.4,135.1c0-2.5-1.2-4.7-3.6-4.7
		c-2.4,0-3.6,2.2-3.6,4.8c0,2.6,1.3,4.7,3.6,4.7C333.1,139.9,334.4,137.8,334.4,135.1z"/>
	<path fill="#454746" d="M347.3,138.8c0,1.1,0,2,0.1,2.8h-2.1l-0.1-1.4h0c-0.4,0.7-1.3,1.6-3,1.6c-1.7,0-3.3-1-3.3-4.1v-5.5h2.4v5.1
		c0,1.6,0.5,2.6,1.7,2.6c0.9,0,1.6-0.7,1.8-1.3c0.1-0.2,0.1-0.5,0.1-0.7v-5.6h2.4V138.8z"/>
	<path fill="#454746" d="M355.1,141.6l-0.2-1h-0.1c-0.6,0.7-1.6,1.2-2.8,1.2c-1.9,0-2.9-1.4-2.9-2.8c0-2.4,2.1-3.6,5.5-3.5v-0.2
		c0-0.6-0.2-1.6-1.9-1.6c-0.9,0-1.9,0.3-2.5,0.7l-0.5-1.5c0.7-0.4,1.9-0.8,3.4-0.8c3,0,3.9,1.9,3.9,3.9v3.4c0,0.8,0,1.7,0.1,2.2
		H355.1z M354.8,137c-1.7,0-3.3,0.3-3.3,1.7c0,0.9,0.6,1.3,1.3,1.3c0.9,0,1.6-0.6,1.8-1.3c0.1-0.2,0.1-0.4,0.1-0.5V137z"/>
	<path fill="#454746" d="M359.6,135.3c0-1.3,0-2.2-0.1-3h2.1l0.1,1.8h0.1c0.5-1.3,1.6-2,2.6-2c0.2,0,0.4,0,0.6,0.1v2.2
		c-0.2,0-0.4-0.1-0.7-0.1c-1.1,0-1.9,0.7-2.1,1.8c0,0.2-0.1,0.5-0.1,0.7v4.8h-2.4V135.3z"/>
	<path fill="#454746" d="M369.6,129.6v2.7h2.2v1.8h-2.2v4.1c0,1.1,0.3,1.7,1.2,1.7c0.4,0,0.7-0.1,0.9-0.1l0,1.8
		c-0.3,0.1-1,0.2-1.7,0.2c-0.9,0-1.6-0.3-2-0.8c-0.5-0.5-0.7-1.4-0.7-2.6V134H366v-1.8h1.3v-2.1L369.6,129.6z"/>
	<path fill="#454746" d="M375.2,137.6c0.1,1.7,1.4,2.4,2.9,2.4c1.1,0,1.9-0.2,2.6-0.4l0.3,1.6c-0.8,0.3-1.9,0.6-3.3,0.6
		c-3,0-4.8-1.9-4.8-4.7c0-2.6,1.6-5,4.6-5c3,0,4,2.5,4,4.5c0,0.4,0,0.8-0.1,1H375.2z M379.3,136c0-0.9-0.4-2.3-1.9-2.3
		c-1.5,0-2.1,1.3-2.2,2.3H379.3z"/>
	<path fill="#454746" d="M383.4,135.3c0-1.3,0-2.2-0.1-3h2.1l0.1,1.8h0.1c0.5-1.3,1.6-2,2.6-2c0.2,0,0.4,0,0.6,0.1v2.2
		c-0.2,0-0.4-0.1-0.7-0.1c-1.1,0-1.9,0.7-2.1,1.8c0,0.2-0.1,0.5-0.1,0.7v4.8h-2.4V135.3z"/>
	<path fill="#454746" d="M388,143.9c0.5-1.5,1-3.5,1.3-5.1l2.5-0.2c-0.5,1.8-1.4,3.9-2.2,5.1L388,143.9z"/>
	<path fill="#454746" d="M399.1,132.3l1,4.2c0.2,1,0.4,2,0.6,3h0c0.2-1,0.5-2.1,0.8-3l1.2-4.3h1.9l1.2,4.1c0.3,1.1,0.5,2.1,0.7,3.1
		h0c0.2-1,0.4-2,0.6-3.1l1-4.1h2.3l-2.9,9.3h-2.2l-1.1-3.8c-0.3-1-0.5-1.9-0.7-3h0c-0.2,1.2-0.4,2.1-0.7,3l-1.2,3.8h-2.2l-2.8-9.3
		H399.1z"/>
	<path fill="#454746" d="M414.5,129.7c0,0.7-0.5,1.3-1.3,1.3c-0.8,0-1.3-0.6-1.3-1.3c0-0.7,0.5-1.3,1.3-1.3
		C414,128.4,414.5,128.9,414.5,129.7z M412,141.6v-9.3h2.4v9.3H412z"/>
	<path fill="#454746" d="M419.6,129.6v2.7h2.2v1.8h-2.2v4.1c0,1.1,0.3,1.7,1.2,1.7c0.4,0,0.7-0.1,0.9-0.1l0,1.8
		c-0.3,0.1-1,0.2-1.7,0.2c-0.9,0-1.6-0.3-2-0.8c-0.5-0.5-0.7-1.4-0.7-2.6V134H416v-1.8h1.3v-2.1L419.6,129.6z"/>
	<path fill="#454746" d="M423.7,128h2.4v5.6h0c0.3-0.4,0.7-0.8,1.2-1.1c0.5-0.3,1-0.4,1.6-0.4c1.6,0,3.3,1.1,3.3,4.1v5.5h-2.4v-5.2
		c0-1.4-0.5-2.4-1.8-2.4c-0.9,0-1.6,0.6-1.8,1.3c-0.1,0.2-0.1,0.4-0.1,0.7v5.6h-2.4V128z"/>
	<path fill="#454746" d="M447.2,128v11c0,1,0,2,0.1,2.6h-2.1l-0.1-1.5h0c-0.6,1-1.7,1.7-3.1,1.7c-2.2,0-4-1.9-4-4.8
		c0-3.1,1.9-5,4.2-5c1.3,0,2.2,0.5,2.6,1.2h0V128H447.2z M444.9,136.2c0-0.2,0-0.4-0.1-0.6c-0.2-0.9-1-1.7-2-1.7
		c-1.5,0-2.4,1.3-2.4,3.1c0,1.7,0.8,3,2.3,3c1,0,1.8-0.7,2-1.7c0.1-0.2,0.1-0.4,0.1-0.7V136.2z"/>
	<path fill="#454746" d="M452.3,129.7c0,0.7-0.5,1.3-1.3,1.3c-0.8,0-1.3-0.6-1.3-1.3c0-0.7,0.5-1.3,1.3-1.3
		C451.8,128.4,452.3,128.9,452.3,129.7z M449.8,141.6v-9.3h2.4v9.3H449.8z"/>
	<path fill="#454746" d="M454.6,139.4c0.5,0.3,1.6,0.7,2.4,0.7c1,0,1.5-0.4,1.5-1c0-0.6-0.4-1-1.5-1.4c-1.8-0.6-2.6-1.6-2.6-2.7
		c0-1.7,1.4-2.9,3.5-2.9c1,0,1.9,0.3,2.5,0.6l-0.5,1.7c-0.4-0.2-1.2-0.5-2-0.5c-0.8,0-1.3,0.4-1.3,1c0,0.6,0.4,0.9,1.6,1.3
		c1.7,0.6,2.5,1.5,2.5,2.9c0,1.7-1.3,2.9-3.8,2.9c-1.1,0-2.2-0.3-2.8-0.7L454.6,139.4z"/>
	<path fill="#454746" d="M465.4,129.6v2.7h2.2v1.8h-2.2v4.1c0,1.1,0.3,1.7,1.2,1.7c0.4,0,0.7-0.1,0.9-0.1l0,1.8
		c-0.3,0.1-1,0.2-1.7,0.2c-0.9,0-1.6-0.3-2-0.8c-0.5-0.5-0.7-1.4-0.7-2.6V134h-1.3v-1.8h1.3v-2.1L465.4,129.6z"/>
	<path fill="#454746" d="M469.4,135.3c0-1.3,0-2.2-0.1-3h2.1l0.1,1.8h0.1c0.5-1.3,1.6-2,2.6-2c0.2,0,0.4,0,0.6,0.1v2.2
		c-0.2,0-0.4-0.1-0.7-0.1c-1.1,0-1.9,0.7-2.1,1.8c0,0.2-0.1,0.5-0.1,0.7v4.8h-2.4V135.3z"/>
	<path fill="#454746" d="M478.8,129.7c0,0.7-0.5,1.3-1.3,1.3c-0.8,0-1.3-0.6-1.3-1.3c0-0.7,0.5-1.3,1.3-1.3
		C478.3,128.4,478.8,128.9,478.8,129.7z M476.3,141.6v-9.3h2.4v9.3H476.3z"/>
	<path fill="#454746" d="M481.1,141.6c0-0.6,0.1-1.7,0.1-2.6v-11h2.4v5.6h0c0.6-0.9,1.6-1.5,3-1.5c2.3,0,3.9,1.9,3.9,4.7
		c0,3.4-2.1,5-4.2,5c-1.2,0-2.3-0.5-3-1.6h0l-0.1,1.4H481.1z M483.6,137.8c0,0.2,0,0.4,0.1,0.6c0.2,0.9,1.1,1.7,2.1,1.7
		c1.5,0,2.4-1.2,2.4-3.1c0-1.7-0.8-3-2.4-3c-1,0-1.8,0.7-2.1,1.7c0,0.2-0.1,0.4-0.1,0.6V137.8z"/>
	<path fill="#454746" d="M500.8,138.8c0,1.1,0,2,0.1,2.8h-2.1l-0.1-1.4h0c-0.4,0.7-1.3,1.6-3,1.6c-1.7,0-3.3-1-3.3-4.1v-5.5h2.4v5.1
		c0,1.6,0.5,2.6,1.7,2.6c0.9,0,1.6-0.7,1.8-1.3c0.1-0.2,0.1-0.5,0.1-0.7v-5.6h2.4V138.8z"/>
	<path fill="#454746" d="M506.1,129.6v2.7h2.2v1.8h-2.2v4.1c0,1.1,0.3,1.7,1.2,1.7c0.4,0,0.7-0.1,0.9-0.1l0,1.8
		c-0.3,0.1-1,0.2-1.7,0.2c-0.9,0-1.6-0.3-2-0.8c-0.5-0.5-0.7-1.4-0.7-2.6V134h-1.3v-1.8h1.3v-2.1L506.1,129.6z"/>
	<path fill="#454746" d="M512.6,129.7c0,0.7-0.5,1.3-1.3,1.3c-0.8,0-1.3-0.6-1.3-1.3c0-0.7,0.5-1.3,1.3-1.3
		C512.1,128.4,512.6,128.9,512.6,129.7z M510.1,141.6v-9.3h2.4v9.3H510.1z"/>
	<path fill="#454746" d="M523.9,136.9c0,3.4-2.4,5-4.8,5c-2.6,0-4.7-1.8-4.7-4.8c0-3.1,2-5,4.8-5C522,132.1,523.9,134,523.9,136.9z
		 M516.8,136.9c0,1.8,0.9,3.2,2.3,3.2c1.3,0,2.3-1.3,2.3-3.2c0-1.5-0.7-3.1-2.3-3.1C517.5,133.8,516.8,135.4,516.8,136.9z"/>
	<path fill="#454746" d="M525.8,135c0-1.1,0-2-0.1-2.8h2.1l0.1,1.4h0.1c0.4-0.7,1.4-1.6,3-1.6c1.6,0,3.3,1.1,3.3,4v5.5h-2.4v-5.3
		c0-1.3-0.5-2.4-1.8-2.4c-0.9,0-1.6,0.7-1.8,1.4c-0.1,0.2-0.1,0.5-0.1,0.8v5.5h-2.4V135z"/>
	<path fill="#454746" d="M540.8,135.4c0-1.2,0-2.2-0.1-3.1h2.1l0.1,1.4h0c0.7-1.1,1.8-1.7,3.2-1.7c2.2,0,3.9,1.8,3.9,4.8
		c0,3.4-2.1,5-4.3,5c-1.2,0-2.1-0.5-2.6-1.2h0v4.8h-2.4V135.4z M543.2,137.7c0,0.2,0,0.4,0.1,0.7c0.2,1,1.1,1.7,2.1,1.7
		c1.5,0,2.4-1.2,2.4-3.1c0-1.7-0.8-3-2.3-3c-1,0-1.9,0.7-2.1,1.7c-0.1,0.2-0.1,0.4-0.1,0.6V137.7z"/>
	<path fill="#454746" d="M553.7,137.6c0.1,1.7,1.4,2.4,2.9,2.4c1.1,0,1.9-0.2,2.6-0.4l0.3,1.6c-0.8,0.3-1.9,0.6-3.3,0.6
		c-3,0-4.8-1.9-4.8-4.7c0-2.6,1.6-5,4.6-5c3,0,4,2.5,4,4.5c0,0.4,0,0.8-0.1,1H553.7z M557.8,136c0-0.9-0.4-2.3-1.9-2.3
		c-1.5,0-2.1,1.3-2.2,2.3H557.8z"/>
	<path fill="#454746" d="M561.9,135.3c0-1.3,0-2.2-0.1-3h2.1l0.1,1.8h0.1c0.5-1.3,1.6-2,2.6-2c0.2,0,0.4,0,0.6,0.1v2.2
		c-0.2,0-0.4-0.1-0.7-0.1c-1.1,0-1.9,0.7-2.1,1.8c0,0.2-0.1,0.5-0.1,0.7v4.8h-2.4V135.3z"/>
	<path fill="#454746" d="M583.8,136.3c-0.1-1.7-0.2-3.7-0.2-5.4h-0.1c-0.4,1.6-1,3.3-1.5,5l-1.9,5.6h-1.8l-1.7-5.5
		c-0.5-1.7-1-3.4-1.3-5h0c-0.1,1.7-0.1,3.7-0.2,5.5l-0.3,5.2h-2.2l0.9-12.9h3.1l1.7,5.2c0.5,1.5,0.9,3.1,1.2,4.5h0.1
		c0.3-1.4,0.8-3,1.3-4.5l1.8-5.2h3.1l0.7,12.9H584L583.8,136.3z"/>
	<path fill="#454746" d="M594,141.6l-0.2-1h-0.1c-0.6,0.7-1.6,1.2-2.8,1.2c-1.9,0-2.9-1.4-2.9-2.8c0-2.4,2.1-3.6,5.5-3.5v-0.2
		c0-0.6-0.2-1.6-1.9-1.6c-0.9,0-1.9,0.3-2.5,0.7l-0.5-1.5c0.7-0.4,1.9-0.8,3.4-0.8c3,0,3.9,1.9,3.9,3.9v3.4c0,0.8,0,1.7,0.1,2.2H594
		z M593.6,137c-1.7,0-3.3,0.3-3.3,1.7c0,0.9,0.6,1.3,1.3,1.3c0.9,0,1.6-0.6,1.8-1.3c0.1-0.2,0.1-0.4,0.1-0.5V137z"/>
	<path fill="#454746" d="M600.8,136.4L600.8,136.4c0.3-0.4,0.5-0.8,0.8-1.1l2.3-3h2.8l-3.5,3.8l4,5.5h-2.9l-2.7-4.1l-0.8,0.9v3.2
		h-2.4V128h2.4V136.4z"/>
	<path fill="#454746" d="M609.8,137.6c0.1,1.7,1.4,2.4,2.9,2.4c1.1,0,1.9-0.2,2.6-0.4l0.3,1.6c-0.8,0.3-1.9,0.6-3.3,0.6
		c-3,0-4.8-1.9-4.8-4.7c0-2.6,1.6-5,4.6-5c3,0,4,2.5,4,4.5c0,0.4,0,0.8-0.1,1H609.8z M613.9,136c0-0.9-0.4-2.3-1.9-2.3
		c-1.5,0-2.1,1.3-2.2,2.3H613.9z"/>
</g>
<line fill="none" stroke="#454746" stroke-miterlimit="10" x1="173.1" y1="163.3" x2="173.1" y2="467.3"/>
<line fill="none" stroke="#454746" stroke-miterlimit="10" x1="173.1" y1="163.3" x2="169.1" y2="163.3"/>
<line fill="none" stroke="#454746" stroke-miterlimit="10" x1="173.1" y1="214" x2="169.1" y2="214"/>
<line fill="none" stroke="#454746" stroke-miterlimit="10" x1="173.1" y1="264.7" x2="169.1" y2="264.7"/>
<line fill="none" stroke="#454746" stroke-miterlimit="10" x1="173.1" y1="315.3" x2="169.1" y2="315.3"/>
<line fill="none" stroke="#454746" stroke-miterlimit="10" x1="173.1" y1="366" x2="169.1" y2="366"/>
<line fill="none" stroke="#454746" stroke-miterlimit="10" x1="173.1" y1="416.7" x2="169.1" y2="416.7"/>
<line fill="none" stroke="#454746" stroke-miterlimit="10" x1="173.1" y1="467.3" x2="173.1" y2="471.6"/>
<line fill="none" stroke="#454746" stroke-miterlimit="10" x1="303.1" y1="467.3" x2="303.1" y2="471.6"/>
<line fill="none" stroke="#454746" stroke-miterlimit="10" x1="433.1" y1="467.3" x2="433.1" y2="471.6"/>
<line fill="none" stroke="#454746" stroke-miterlimit="10" x1="563.1" y1="467.3" x2="563.1" y2="471.6"/>
<line fill="none" stroke="#454746" stroke-miterlimit="10" x1="693.1" y1="467.3" x2="693.1" y2="471.6"/>
<g>
	<g>
		<path fill="#454746" d="M238.3,490.4c-1.2-0.3-2.3-0.7-3.4-1.1c-0.2-0.1-0.4-0.1-0.6-0.1c-2-0.1-3.8-1.6-3.8-4.4
			c0-2.7,1.7-4.5,4.1-4.5c2.5,0,4,1.9,4,4.4c0,2.1-1,3.5-2.2,4v0.1c0.7,0.2,1.6,0.4,2.3,0.5L238.3,490.4z M237,484.7
			c0-1.7-0.8-3.2-2.4-3.2c-1.6,0-2.4,1.5-2.4,3.2c0,1.7,0.9,3.1,2.4,3.1C236.2,487.9,237,486.5,237,484.7z"/>
		<path fill="#454746" d="M242.2,482.1L242.2,482.1l-1.5,0.8l-0.3-1.2l2-1h1.3v8.3h-1.5V482.1z"/>
	</g>
</g>
<g>
	<g>
		<g>
			<path fill="#454746" d="M100.6,421.8v-1.2c-0.8,0-1.6-0.3-2.1-0.6l0.3-1.2c0.5,0.3,1.2,0.6,2,0.6c0.8,0,1.4-0.4,1.4-1
				c0-0.6-0.4-0.9-1.4-1.3c-1.3-0.5-2.2-1.1-2.2-2.3c0-1.1,0.8-1.9,2.1-2.2v-1.3h1v1.2c0.8,0,1.4,0.2,1.8,0.4l-0.3,1.2
				c-0.3-0.1-0.9-0.4-1.7-0.4c-0.9,0-1.2,0.5-1.2,0.9c0,0.5,0.5,0.8,1.5,1.3c1.4,0.5,2.1,1.2,2.1,2.4c0,1.1-0.8,2-2.2,2.3v1.3H100.6
				z"/>
			<path fill="#454746" d="M105.2,420.7v-1l1-0.9c2-1.8,2.9-2.8,2.9-3.9c0-0.7-0.4-1.4-1.5-1.4c-0.7,0-1.4,0.4-1.8,0.7l-0.5-1.1
				c0.6-0.5,1.5-0.9,2.6-0.9c1.8,0,2.7,1.2,2.7,2.5c0,1.5-1,2.6-2.5,4l-0.7,0.6v0h3.4v1.3H105.2z"/>
			<path fill="#454746" d="M117.9,416.4c0,2.7-1,4.4-3,4.4c-1.9,0-2.9-1.7-3-4.3c0-2.6,1.1-4.3,3-4.3
				C117,412.2,117.9,414,117.9,416.4z M113.5,416.5c0,2,0.6,3.1,1.4,3.1c0.9,0,1.4-1.1,1.4-3.1c0-1.9-0.5-3.1-1.4-3.1
				C114.1,413.4,113.5,414.4,113.5,416.5z"/>
			<path fill="#454746" d="M118.4,422.2c0.3-1,0.7-2.3,0.9-3.4l1.7-0.1c-0.4,1.2-0.9,2.6-1.4,3.4L118.4,422.2z"/>
			<path fill="#454746" d="M127.8,416.4c0,2.7-1,4.4-3,4.4c-1.9,0-2.9-1.7-3-4.3c0-2.6,1.1-4.3,3-4.3
				C126.8,412.2,127.8,414,127.8,416.4z M123.4,416.5c0,2,0.6,3.1,1.4,3.1c0.9,0,1.4-1.1,1.4-3.1c0-1.9-0.5-3.1-1.4-3.1
				C123.9,413.4,123.4,414.4,123.4,416.5z"/>
			<path fill="#454746" d="M134.6,416.4c0,2.7-1,4.4-3,4.4c-1.9,0-2.9-1.7-3-4.3c0-2.6,1.1-4.3,3-4.3
				C133.7,412.2,134.6,414,134.6,416.4z M130.2,416.5c0,2,0.6,3.1,1.4,3.1c0.9,0,1.4-1.1,1.4-3.1c0-1.9-0.5-3.1-1.4-3.1
				C130.8,413.4,130.2,414.4,130.2,416.5z"/>
			<path fill="#454746" d="M141.5,416.4c0,2.7-1,4.4-3,4.4c-1.9,0-2.9-1.7-3-4.3c0-2.6,1.1-4.3,3-4.3
				C140.6,412.2,141.5,414,141.5,416.4z M137.1,416.5c0,2,0.6,3.1,1.4,3.1c0.9,0,1.4-1.1,1.4-3.1c0-1.9-0.5-3.1-1.4-3.1
				C137.7,413.4,137.1,414.4,137.1,416.5z"/>
			<path fill="#454746" d="M142.6,419.8c0-0.6,0.4-1,1-1c0.6,0,1,0.4,1,1c0,0.6-0.4,1-1,1C143,420.8,142.6,420.4,142.6,419.8z"/>
			<path fill="#454746" d="M151.4,416.4c0,2.7-1,4.4-3,4.4c-1.9,0-2.9-1.7-3-4.3c0-2.6,1.1-4.3,3-4.3
				C150.4,412.2,151.4,414,151.4,416.4z M147,416.5c0,2,0.6,3.1,1.4,3.1c0.9,0,1.4-1.1,1.4-3.1c0-1.9-0.5-3.1-1.4-3.1
				C147.5,413.4,147,414.4,147,416.5z"/>
			<path fill="#454746" d="M158.2,416.4c0,2.7-1,4.4-3,4.4c-1.9,0-2.9-1.7-3-4.3c0-2.6,1.1-4.3,3-4.3
				C157.3,412.2,158.2,414,158.2,416.4z M153.8,416.5c0,2,0.6,3.1,1.4,3.1c0.9,0,1.4-1.1,1.4-3.1c0-1.9-0.5-3.1-1.4-3.1
				C154.4,413.4,153.8,414.4,153.8,416.5z"/>
		</g>
	</g>
</g>
<g>
	<g>
		<g>
			<path fill="#454746" d="M131.1,473.7v-1.2c-0.8,0-1.6-0.3-2.1-0.6l0.3-1.2c0.5,0.3,1.2,0.6,2,0.6c0.8,0,1.4-0.4,1.4-1
				c0-0.6-0.4-0.9-1.4-1.3c-1.3-0.5-2.2-1.1-2.2-2.3c0-1.1,0.8-1.9,2.1-2.2v-1.3h1v1.2c0.8,0,1.4,0.2,1.8,0.4l-0.3,1.2
				c-0.3-0.1-0.9-0.4-1.7-0.4c-0.9,0-1.2,0.5-1.2,0.9c0,0.5,0.5,0.8,1.5,1.3c1.4,0.5,2.1,1.2,2.1,2.4c0,1.1-0.8,2-2.2,2.3v1.3H131.1
				z"/>
			<path fill="#454746" d="M141.5,468.4c0,2.7-1,4.4-3,4.4c-1.9,0-2.9-1.7-3-4.3c0-2.6,1.1-4.3,3-4.3
				C140.6,464.1,141.5,465.9,141.5,468.4z M137.1,468.5c0,2,0.6,3.1,1.4,3.1c0.9,0,1.4-1.1,1.4-3.1c0-1.9-0.5-3.1-1.4-3.1
				C137.7,465.3,137.1,466.4,137.1,468.5z"/>
			<path fill="#454746" d="M142,474.1c0.3-1,0.7-2.3,0.9-3.4l1.7-0.1c-0.4,1.2-0.9,2.6-1.4,3.4L142,474.1z"/>
			<path fill="#454746" d="M151.4,468.4c0,2.7-1,4.4-3,4.4c-1.9,0-2.9-1.7-3-4.3c0-2.6,1.1-4.3,3-4.3
				C150.4,464.1,151.4,465.9,151.4,468.4z M147,468.5c0,2,0.6,3.1,1.4,3.1c0.9,0,1.4-1.1,1.4-3.1c0-1.9-0.5-3.1-1.4-3.1
				C147.6,465.3,147,466.4,147,468.5z"/>
			<path fill="#454746" d="M158.2,468.4c0,2.7-1,4.4-3,4.4c-1.9,0-2.9-1.7-3-4.3c0-2.6,1.1-4.3,3-4.3
				C157.3,464.1,158.2,465.9,158.2,468.4z M153.8,468.5c0,2,0.6,3.1,1.4,3.1c0.9,0,1.4-1.1,1.4-3.1c0-1.9-0.5-3.1-1.4-3.1
				C154.4,465.3,153.8,466.4,153.8,468.5z"/>
		</g>
	</g>
</g>
<g>
	<g>
		<g>
			<path fill="#454746" d="M100.6,371.1v-1.2c-0.8,0-1.6-0.3-2.1-0.6l0.3-1.2c0.5,0.3,1.2,0.6,2,0.6c0.8,0,1.4-0.4,1.4-1
				c0-0.6-0.4-0.9-1.4-1.3c-1.3-0.5-2.2-1.1-2.2-2.3c0-1.1,0.8-1.9,2.1-2.2v-1.3h1v1.2c0.8,0,1.4,0.2,1.8,0.4l-0.3,1.2
				c-0.3-0.1-0.9-0.4-1.7-0.4c-0.9,0-1.2,0.5-1.2,0.9c0,0.5,0.5,0.8,1.5,1.3c1.4,0.5,2.1,1.2,2.1,2.4c0,1.1-0.8,2-2.2,2.3v1.3H100.6
				z"/>
			<path fill="#454746" d="M108.6,370v-2.1h-3.8v-1l3.4-5.2h1.9v5h1.1v1.2h-1.1v2.1H108.6z M108.6,366.7v-2.3c0-0.5,0-1,0.1-1.4
				h-0.1c-0.3,0.5-0.5,0.9-0.7,1.4l-1.5,2.3l0,0H108.6z"/>
			<path fill="#454746" d="M117.9,365.8c0,2.7-1,4.4-3,4.4c-1.9,0-2.9-1.7-3-4.3c0-2.6,1.1-4.3,3-4.3
				C117,361.5,117.9,363.3,117.9,365.8z M113.5,365.9c0,2,0.6,3.1,1.4,3.1c0.9,0,1.4-1.1,1.4-3.1c0-1.9-0.5-3.1-1.4-3.1
				C114.1,362.7,113.5,363.8,113.5,365.9z"/>
			<path fill="#454746" d="M118.4,371.5c0.3-1,0.7-2.3,0.9-3.4l1.7-0.1c-0.4,1.2-0.9,2.6-1.4,3.4L118.4,371.5z"/>
			<path fill="#454746" d="M127.8,365.8c0,2.7-1,4.4-3,4.4c-1.9,0-2.9-1.7-3-4.3c0-2.6,1.1-4.3,3-4.3
				C126.8,361.5,127.8,363.3,127.8,365.8z M123.4,365.9c0,2,0.6,3.1,1.4,3.1c0.9,0,1.4-1.1,1.4-3.1c0-1.9-0.5-3.1-1.4-3.1
				C123.9,362.7,123.4,363.8,123.4,365.9z"/>
			<path fill="#454746" d="M134.6,365.8c0,2.7-1,4.4-3,4.4c-1.9,0-2.9-1.7-3-4.3c0-2.6,1.1-4.3,3-4.3
				C133.7,361.5,134.6,363.3,134.6,365.8z M130.2,365.9c0,2,0.6,3.1,1.4,3.1c0.9,0,1.4-1.1,1.4-3.1c0-1.9-0.5-3.1-1.4-3.1
				C130.8,362.7,130.2,363.8,130.2,365.9z"/>
			<path fill="#454746" d="M141.5,365.8c0,2.7-1,4.4-3,4.4c-1.9,0-2.9-1.7-3-4.3c0-2.6,1.1-4.3,3-4.3
				C140.6,361.5,141.5,363.3,141.5,365.8z M137.1,365.9c0,2,0.6,3.1,1.4,3.1c0.9,0,1.4-1.1,1.4-3.1c0-1.9-0.5-3.1-1.4-3.1
				C137.7,362.7,137.1,363.8,137.1,365.9z"/>
			<path fill="#454746" d="M142.6,369.1c0-0.6,0.4-1,1-1c0.6,0,1,0.4,1,1c0,0.6-0.4,1-1,1C143,370.1,142.6,369.7,142.6,369.1z"/>
			<path fill="#454746" d="M151.4,365.8c0,2.7-1,4.4-3,4.4c-1.9,0-2.9-1.7-3-4.3c0-2.6,1.1-4.3,3-4.3
				C150.4,361.5,151.4,363.3,151.4,365.8z M147,365.9c0,2,0.6,3.1,1.4,3.1c0.9,0,1.4-1.1,1.4-3.1c0-1.9-0.5-3.1-1.4-3.1
				C147.5,362.7,147,363.8,147,365.9z"/>
			<path fill="#454746" d="M158.2,365.8c0,2.7-1,4.4-3,4.4c-1.9,0-2.9-1.7-3-4.3c0-2.6,1.1-4.3,3-4.3
				C157.3,361.5,158.2,363.3,158.2,365.8z M153.8,365.9c0,2,0.6,3.1,1.4,3.1c0.9,0,1.4-1.1,1.4-3.1c0-1.9-0.5-3.1-1.4-3.1
				C154.4,362.7,153.8,363.8,153.8,365.9z"/>
		</g>
	</g>
</g>
<g>
	<g>
		<g>
			<path fill="#454746" d="M100.6,320.6v-1.2c-0.8,0-1.6-0.3-2.1-0.6l0.3-1.2c0.5,0.3,1.2,0.6,2,0.6c0.8,0,1.4-0.4,1.4-1
				c0-0.6-0.4-0.9-1.4-1.3c-1.3-0.5-2.2-1.1-2.2-2.3c0-1.1,0.8-1.9,2.1-2.2v-1.3h1v1.2c0.8,0,1.4,0.2,1.8,0.4l-0.3,1.2
				c-0.3-0.1-0.9-0.4-1.7-0.4c-0.9,0-1.2,0.5-1.2,0.9c0,0.5,0.5,0.8,1.5,1.3c1.4,0.5,2.1,1.2,2.1,2.4c0,1.1-0.8,2-2.2,2.3v1.3H100.6
				z"/>
			<path fill="#454746" d="M110.2,312.3c-0.2,0-0.5,0-0.8,0c-1.7,0.2-2.6,1.3-2.8,2.4h0c0.4-0.5,1-0.8,1.9-0.8c1.4,0,2.5,1,2.5,2.7
				c0,1.6-1.2,3-2.9,3c-2,0-3.1-1.5-3.1-3.6c0-1.6,0.6-2.9,1.4-3.7c0.8-0.7,1.8-1.1,3-1.2c0.3,0,0.6,0,0.8,0L110.2,312.3z
				 M109.5,316.7c0-1-0.5-1.7-1.4-1.7c-0.6,0-1.1,0.4-1.4,0.9c-0.1,0.1-0.1,0.3-0.1,0.5c0,1.1,0.6,2,1.6,2
				C109,318.4,109.5,317.7,109.5,316.7z"/>
			<path fill="#454746" d="M117.9,315.2c0,2.7-1,4.4-3,4.4c-1.9,0-2.9-1.7-3-4.3c0-2.6,1.1-4.3,3-4.3
				C117,311,117.9,312.8,117.9,315.2z M113.5,315.3c0,2,0.6,3.1,1.4,3.1c0.9,0,1.4-1.1,1.4-3.1c0-1.9-0.5-3.1-1.4-3.1
				C114.1,312.2,113.5,313.2,113.5,315.3z"/>
			<path fill="#454746" d="M118.4,321c0.3-1,0.7-2.3,0.9-3.4l1.7-0.1c-0.4,1.2-0.9,2.6-1.4,3.4L118.4,321z"/>
			<path fill="#454746" d="M127.8,315.2c0,2.7-1,4.4-3,4.4c-1.9,0-2.9-1.7-3-4.3c0-2.6,1.1-4.3,3-4.3
				C126.8,311,127.8,312.8,127.8,315.2z M123.4,315.3c0,2,0.6,3.1,1.4,3.1c0.9,0,1.4-1.1,1.4-3.1c0-1.9-0.5-3.1-1.4-3.1
				C123.9,312.2,123.4,313.2,123.4,315.3z"/>
			<path fill="#454746" d="M134.6,315.2c0,2.7-1,4.4-3,4.4c-1.9,0-2.9-1.7-3-4.3c0-2.6,1.1-4.3,3-4.3
				C133.7,311,134.6,312.8,134.6,315.2z M130.2,315.3c0,2,0.6,3.1,1.4,3.1c0.9,0,1.4-1.1,1.4-3.1c0-1.9-0.5-3.1-1.4-3.1
				C130.8,312.2,130.2,313.2,130.2,315.3z"/>
			<path fill="#454746" d="M141.5,315.2c0,2.7-1,4.4-3,4.4c-1.9,0-2.9-1.7-3-4.3c0-2.6,1.1-4.3,3-4.3
				C140.6,311,141.5,312.8,141.5,315.2z M137.1,315.3c0,2,0.6,3.1,1.4,3.1c0.9,0,1.4-1.1,1.4-3.1c0-1.9-0.5-3.1-1.4-3.1
				C137.7,312.2,137.1,313.2,137.1,315.3z"/>
			<path fill="#454746" d="M142.6,318.6c0-0.6,0.4-1,1-1c0.6,0,1,0.4,1,1c0,0.6-0.4,1-1,1C143,319.6,142.6,319.2,142.6,318.6z"/>
			<path fill="#454746" d="M151.4,315.2c0,2.7-1,4.4-3,4.4c-1.9,0-2.9-1.7-3-4.3c0-2.6,1.1-4.3,3-4.3
				C150.4,311,151.4,312.8,151.4,315.2z M147,315.3c0,2,0.6,3.1,1.4,3.1c0.9,0,1.4-1.1,1.4-3.1c0-1.9-0.5-3.1-1.4-3.1
				C147.5,312.2,147,313.2,147,315.3z"/>
			<path fill="#454746" d="M158.2,315.2c0,2.7-1,4.4-3,4.4c-1.9,0-2.9-1.7-3-4.3c0-2.6,1.1-4.3,3-4.3
				C157.3,311,158.2,312.8,158.2,315.2z M153.8,315.3c0,2,0.6,3.1,1.4,3.1c0.9,0,1.4-1.1,1.4-3.1c0-1.9-0.5-3.1-1.4-3.1
				C154.4,312.2,153.8,313.2,153.8,315.3z"/>
		</g>
	</g>
</g>
<g>
	<g>
		<g>
			<path fill="#454746" d="M100.6,269.8v-1.2c-0.8,0-1.6-0.3-2.1-0.6l0.3-1.2c0.5,0.3,1.2,0.6,2,0.6c0.8,0,1.4-0.4,1.4-1
				c0-0.6-0.4-0.9-1.4-1.3c-1.3-0.5-2.2-1.1-2.2-2.3c0-1.1,0.8-1.9,2.1-2.2v-1.3h1v1.2c0.8,0,1.4,0.2,1.8,0.4l-0.3,1.2
				c-0.3-0.1-0.9-0.4-1.7-0.4c-0.9,0-1.2,0.5-1.2,0.9c0,0.5,0.5,0.8,1.5,1.3c1.4,0.5,2.1,1.2,2.1,2.4c0,1.1-0.8,2-2.2,2.3v1.3H100.6
				z"/>
			<path fill="#454746" d="M105,266.5c0-1,0.6-1.7,1.6-2.2v0c-0.9-0.4-1.3-1.1-1.3-1.8c0-1.4,1.2-2.3,2.8-2.3c1.8,0,2.6,1.1,2.6,2.1
				c0,0.7-0.4,1.4-1.3,1.9v0c0.9,0.3,1.6,1.1,1.6,2.1c0,1.5-1.3,2.5-3,2.5C106.1,268.8,105,267.7,105,266.5z M109.4,266.4
				c0-0.8-0.6-1.3-1.5-1.6c-0.8,0.2-1.2,0.8-1.2,1.5c0,0.7,0.5,1.3,1.4,1.3C108.9,267.7,109.4,267.2,109.4,266.4z M106.8,262.4
				c0,0.7,0.6,1.1,1.4,1.3c0.6-0.2,1-0.6,1-1.3c0-0.6-0.3-1.2-1.2-1.2C107.2,261.3,106.8,261.8,106.8,262.4z"/>
			<path fill="#454746" d="M117.9,264.4c0,2.7-1,4.4-3,4.4c-1.9,0-2.9-1.7-3-4.3c0-2.6,1.1-4.3,3-4.3
				C117,260.2,117.9,262,117.9,264.4z M113.5,264.5c0,2,0.6,3.1,1.4,3.1c0.9,0,1.4-1.1,1.4-3.1c0-1.9-0.5-3.1-1.4-3.1
				C114.1,261.4,113.5,262.4,113.5,264.5z"/>
			<path fill="#454746" d="M118.4,270.2c0.3-1,0.7-2.3,0.9-3.4l1.7-0.1c-0.4,1.2-0.9,2.6-1.4,3.4L118.4,270.2z"/>
			<path fill="#454746" d="M127.8,264.4c0,2.7-1,4.4-3,4.4c-1.9,0-2.9-1.7-3-4.3c0-2.6,1.1-4.3,3-4.3
				C126.8,260.2,127.8,262,127.8,264.4z M123.4,264.5c0,2,0.6,3.1,1.4,3.1c0.9,0,1.4-1.1,1.4-3.1c0-1.9-0.5-3.1-1.4-3.1
				C123.9,261.4,123.4,262.4,123.4,264.5z"/>
			<path fill="#454746" d="M134.6,264.4c0,2.7-1,4.4-3,4.4c-1.9,0-2.9-1.7-3-4.3c0-2.6,1.1-4.3,3-4.3
				C133.7,260.2,134.6,262,134.6,264.4z M130.2,264.5c0,2,0.6,3.1,1.4,3.1c0.9,0,1.4-1.1,1.4-3.1c0-1.9-0.5-3.1-1.4-3.1
				C130.8,261.4,130.2,262.4,130.2,264.5z"/>
			<path fill="#454746" d="M141.5,264.4c0,2.7-1,4.4-3,4.4c-1.9,0-2.9-1.7-3-4.3c0-2.6,1.1-4.3,3-4.3
				C140.6,260.2,141.5,262,141.5,264.4z M137.1,264.5c0,2,0.6,3.1,1.4,3.1c0.9,0,1.4-1.1,1.4-3.1c0-1.9-0.5-3.1-1.4-3.1
				C137.7,261.4,137.1,262.4,137.1,264.5z"/>
			<path fill="#454746" d="M142.6,267.8c0-0.6,0.4-1,1-1c0.6,0,1,0.4,1,1c0,0.6-0.4,1-1,1C143,268.8,142.6,268.4,142.6,267.8z"/>
			<path fill="#454746" d="M151.4,264.4c0,2.7-1,4.4-3,4.4c-1.9,0-2.9-1.7-3-4.3c0-2.6,1.1-4.3,3-4.3
				C150.4,260.2,151.4,262,151.4,264.4z M147,264.5c0,2,0.6,3.1,1.4,3.1c0.9,0,1.4-1.1,1.4-3.1c0-1.9-0.5-3.1-1.4-3.1
				C147.5,261.4,147,262.4,147,264.5z"/>
			<path fill="#454746" d="M158.2,264.4c0,2.7-1,4.4-3,4.4c-1.9,0-2.9-1.7-3-4.3c0-2.6,1.1-4.3,3-4.3
				C157.3,260.2,158.2,262,158.2,264.4z M153.8,264.5c0,2,0.6,3.1,1.4,3.1c0.9,0,1.4-1.1,1.4-3.1c0-1.9-0.5-3.1-1.4-3.1
				C154.4,261.4,153.8,262.4,153.8,264.5z"/>
		</g>
	</g>
</g>
<g>
	<g>
		<g>
			<path fill="#454746" d="M93.7,219.1v-1.2c-0.8,0-1.6-0.3-2.1-0.6l0.3-1.2c0.5,0.3,1.2,0.6,2,0.6c0.8,0,1.4-0.4,1.4-1
				c0-0.6-0.4-0.9-1.4-1.3c-1.3-0.5-2.2-1.1-2.2-2.3c0-1.1,0.8-1.9,2.1-2.2v-1.3h1v1.2c0.8,0,1.4,0.2,1.8,0.4l-0.3,1.2
				c-0.3-0.1-0.9-0.4-1.7-0.4c-0.9,0-1.2,0.5-1.2,0.9c0,0.5,0.5,0.8,1.5,1.3c1.4,0.5,2.1,1.2,2.1,2.4c0,1.1-0.8,2-2.2,2.3v1.3H93.7z
				"/>
			<path fill="#454746" d="M100.8,211.1L100.8,211.1l-1.5,0.8l-0.3-1.2l2-1h1.3v8.3h-1.5V211.1z"/>
			<path fill="#454746" d="M111,213.8c0,2.7-1,4.4-3,4.4c-1.9,0-2.9-1.7-3-4.3c0-2.6,1.1-4.3,3-4.3C110.1,209.5,111,211.3,111,213.8
				z M106.6,213.9c0,2,0.6,3.1,1.4,3.1c0.9,0,1.4-1.1,1.4-3.1c0-1.9-0.5-3.1-1.4-3.1C107.2,210.7,106.6,211.8,106.6,213.9z"/>
			<path fill="#454746" d="M117.9,213.8c0,2.7-1,4.4-3,4.4c-1.9,0-2.9-1.7-3-4.3c0-2.6,1.1-4.3,3-4.3
				C117,209.5,117.9,211.3,117.9,213.8z M113.5,213.9c0,2,0.6,3.1,1.4,3.1c0.9,0,1.4-1.1,1.4-3.1c0-1.9-0.5-3.1-1.4-3.1
				C114.1,210.7,113.5,211.8,113.5,213.9z"/>
			<path fill="#454746" d="M118.4,219.5c0.3-1,0.7-2.3,0.9-3.4l1.7-0.1c-0.4,1.2-0.9,2.6-1.4,3.4L118.4,219.5z"/>
			<path fill="#454746" d="M127.8,213.8c0,2.7-1,4.4-3,4.4c-1.9,0-2.9-1.7-3-4.3c0-2.6,1.1-4.3,3-4.3
				C126.8,209.5,127.8,211.3,127.8,213.8z M123.4,213.9c0,2,0.6,3.1,1.4,3.1c0.9,0,1.4-1.1,1.4-3.1c0-1.9-0.5-3.1-1.4-3.1
				C123.9,210.7,123.4,211.8,123.4,213.9z"/>
			<path fill="#454746" d="M134.6,213.8c0,2.7-1,4.4-3,4.4c-1.9,0-2.9-1.7-3-4.3c0-2.6,1.1-4.3,3-4.3
				C133.7,209.5,134.6,211.3,134.6,213.8z M130.2,213.9c0,2,0.6,3.1,1.4,3.1c0.9,0,1.4-1.1,1.4-3.1c0-1.9-0.5-3.1-1.4-3.1
				C130.8,210.7,130.2,211.8,130.2,213.9z"/>
			<path fill="#454746" d="M141.5,213.8c0,2.7-1,4.4-3,4.4c-1.9,0-2.9-1.7-3-4.3c0-2.6,1.1-4.3,3-4.3
				C140.6,209.5,141.5,211.3,141.5,213.8z M137.1,213.9c0,2,0.6,3.1,1.4,3.1c0.9,0,1.4-1.1,1.4-3.1c0-1.9-0.5-3.1-1.4-3.1
				C137.7,210.7,137.1,211.8,137.1,213.9z"/>
			<path fill="#454746" d="M142.6,217.1c0-0.6,0.4-1,1-1c0.6,0,1,0.4,1,1c0,0.6-0.4,1-1,1C143,218.1,142.6,217.7,142.6,217.1z"/>
			<path fill="#454746" d="M151.4,213.8c0,2.7-1,4.4-3,4.4c-1.9,0-2.9-1.7-3-4.3c0-2.6,1.1-4.3,3-4.3
				C150.4,209.5,151.4,211.3,151.4,213.8z M147,213.9c0,2,0.6,3.1,1.4,3.1c0.9,0,1.4-1.1,1.4-3.1c0-1.9-0.5-3.1-1.4-3.1
				C147.5,210.7,147,211.8,147,213.9z"/>
			<path fill="#454746" d="M158.2,213.8c0,2.7-1,4.4-3,4.4c-1.9,0-2.9-1.7-3-4.3c0-2.6,1.1-4.3,3-4.3
				C157.3,209.5,158.2,211.3,158.2,213.8z M153.8,213.9c0,2,0.6,3.1,1.4,3.1c0.9,0,1.4-1.1,1.4-3.1c0-1.9-0.5-3.1-1.4-3.1
				C154.4,210.7,153.8,211.8,153.8,213.9z"/>
		</g>
	</g>
</g>
<g>
	<g>
		<g>
			<path fill="#454746" d="M93.7,168.4v-1.2c-0.8,0-1.6-0.3-2.1-0.6l0.3-1.2c0.5,0.3,1.2,0.6,2,0.6c0.8,0,1.4-0.4,1.4-1
				c0-0.6-0.4-0.9-1.4-1.3c-1.3-0.5-2.2-1.1-2.2-2.3c0-1.1,0.8-1.9,2.1-2.2V158h1v1.2c0.8,0,1.4,0.2,1.8,0.4l-0.3,1.2
				c-0.3-0.1-0.9-0.4-1.7-0.4c-0.9,0-1.2,0.5-1.2,0.9c0,0.5,0.5,0.8,1.5,1.3c1.4,0.5,2.1,1.2,2.1,2.4c0,1.1-0.8,2-2.2,2.3v1.3H93.7z
				"/>
			<path fill="#454746" d="M100.8,160.4L100.8,160.4l-1.5,0.8L99,160l2-1h1.3v8.3h-1.5V160.4z"/>
			<path fill="#454746" d="M105.2,167.3v-1l1-0.9c2-1.8,2.9-2.8,2.9-3.9c0-0.7-0.4-1.4-1.5-1.4c-0.7,0-1.4,0.4-1.8,0.7l-0.5-1.1
				c0.6-0.5,1.5-0.9,2.6-0.9c1.8,0,2.7,1.2,2.7,2.5c0,1.5-1,2.6-2.5,4l-0.7,0.6v0h3.4v1.3H105.2z"/>
			<path fill="#454746" d="M117.9,163.1c0,2.7-1,4.4-3,4.4c-1.9,0-2.9-1.7-3-4.3c0-2.6,1.1-4.3,3-4.3
				C117,158.9,117.9,160.7,117.9,163.1z M113.5,163.2c0,2,0.6,3.1,1.4,3.1c0.9,0,1.4-1.1,1.4-3.1c0-1.9-0.5-3.1-1.4-3.1
				C114.1,160.1,113.5,161.1,113.5,163.2z"/>
			<path fill="#454746" d="M118.4,168.9c0.3-1,0.7-2.3,0.9-3.4l1.7-0.1c-0.4,1.2-0.9,2.6-1.4,3.4L118.4,168.9z"/>
			<path fill="#454746" d="M127.8,163.1c0,2.7-1,4.4-3,4.4c-1.9,0-2.9-1.7-3-4.3c0-2.6,1.1-4.3,3-4.3
				C126.8,158.9,127.8,160.7,127.8,163.1z M123.4,163.2c0,2,0.6,3.1,1.4,3.1c0.9,0,1.4-1.1,1.4-3.1c0-1.9-0.5-3.1-1.4-3.1
				C123.9,160.1,123.4,161.1,123.4,163.2z"/>
			<path fill="#454746" d="M134.6,163.1c0,2.7-1,4.4-3,4.4c-1.9,0-2.9-1.7-3-4.3c0-2.6,1.1-4.3,3-4.3
				C133.7,158.9,134.6,160.7,134.6,163.1z M130.2,163.2c0,2,0.6,3.1,1.4,3.1c0.9,0,1.4-1.1,1.4-3.1c0-1.9-0.5-3.1-1.4-3.1
				C130.8,160.1,130.2,161.1,130.2,163.2z"/>
			<path fill="#454746" d="M141.5,163.1c0,2.7-1,4.4-3,4.4c-1.9,0-2.9-1.7-3-4.3c0-2.6,1.1-4.3,3-4.3
				C140.6,158.9,141.5,160.7,141.5,163.1z M137.1,163.2c0,2,0.6,3.1,1.4,3.1c0.9,0,1.4-1.1,1.4-3.1c0-1.9-0.5-3.1-1.4-3.1
				C137.7,160.1,137.1,161.1,137.1,163.2z"/>
			<path fill="#454746" d="M142.6,166.5c0-0.6,0.4-1,1-1c0.6,0,1,0.4,1,1c0,0.6-0.4,1-1,1C143,167.5,142.6,167,142.6,166.5z"/>
			<path fill="#454746" d="M151.4,163.1c0,2.7-1,4.4-3,4.4c-1.9,0-2.9-1.7-3-4.3c0-2.6,1.1-4.3,3-4.3
				C150.4,158.9,151.4,160.7,151.4,163.1z M147,163.2c0,2,0.6,3.1,1.4,3.1c0.9,0,1.4-1.1,1.4-3.1c0-1.9-0.5-3.1-1.4-3.1
				C147.5,160.1,147,161.1,147,163.2z"/>
			<path fill="#454746" d="M158.2,163.1c0,2.7-1,4.4-3,4.4c-1.9,0-2.9-1.7-3-4.3c0-2.6,1.1-4.3,3-4.3
				C157.3,158.9,158.2,160.7,158.2,163.1z M153.8,163.2c0,2,0.6,3.1,1.4,3.1c0.9,0,1.4-1.1,1.4-3.1c0-1.9-0.5-3.1-1.4-3.1
				C154.4,160.1,153.8,161.1,153.8,163.2z"/>
		</g>
	</g>
</g>
<g>
	<g>
		<path fill="#454746" d="M368.3,490.4c-1.2-0.3-2.3-0.7-3.4-1.1c-0.2-0.1-0.4-0.1-0.6-0.1c-2-0.1-3.8-1.6-3.8-4.4
			c0-2.7,1.7-4.5,4.1-4.5c2.5,0,4,1.9,4,4.4c0,2.1-1,3.5-2.2,4v0.1c0.7,0.2,1.6,0.4,2.3,0.5L368.3,490.4z M367,484.7
			c0-1.7-0.8-3.2-2.4-3.2c-1.6,0-2.4,1.5-2.4,3.2c0,1.7,0.9,3.1,2.4,3.1C366.2,487.9,367,486.5,367,484.7z"/>
		<path fill="#454746" d="M369.7,489v-1l1-0.9c2-1.8,2.9-2.8,2.9-3.9c0-0.7-0.4-1.4-1.5-1.4c-0.7,0-1.4,0.4-1.8,0.7l-0.5-1.1
			c0.6-0.5,1.5-0.9,2.6-0.9c1.8,0,2.7,1.2,2.7,2.5c0,1.5-1,2.6-2.5,4l-0.7,0.6v0h3.4v1.3H369.7z"/>
	</g>
</g>
<g>
	<g>
		<path fill="#454746" d="M498.3,490.4c-1.2-0.3-2.3-0.7-3.4-1.1c-0.2-0.1-0.4-0.1-0.6-0.1c-2-0.1-3.8-1.6-3.8-4.4
			c0-2.7,1.7-4.5,4.1-4.5c2.5,0,4,1.9,4,4.4c0,2.1-1,3.5-2.2,4v0.1c0.7,0.2,1.6,0.4,2.3,0.5L498.3,490.4z M497,484.7
			c0-1.7-0.8-3.2-2.4-3.2c-1.6,0-2.4,1.5-2.4,3.2c0,1.7,0.9,3.1,2.4,3.1C496.2,487.9,497,486.5,497,484.7z"/>
		<path fill="#454746" d="M500,487.4c0.3,0.2,1.1,0.5,1.9,0.5c1.2,0,1.7-0.7,1.7-1.3c0-1-0.9-1.4-1.9-1.4H501V484h0.7
			c0.7,0,1.7-0.3,1.7-1.2c0-0.6-0.4-1-1.3-1c-0.7,0-1.4,0.3-1.7,0.5l-0.4-1.1c0.5-0.3,1.4-0.6,2.4-0.6c1.7,0,2.6,0.9,2.6,2
			c0,0.9-0.5,1.6-1.5,1.9v0c1,0.2,1.8,0.9,1.8,2.1c0,1.4-1.2,2.5-3.2,2.5c-1,0-1.9-0.3-2.3-0.6L500,487.4z"/>
	</g>
</g>
<g>
	<g>
		<path fill="#454746" d="M628.3,490.4c-1.2-0.3-2.3-0.7-3.4-1.1c-0.2-0.1-0.4-0.1-0.6-0.1c-2-0.1-3.8-1.6-3.8-4.4
			c0-2.7,1.7-4.5,4.1-4.5c2.5,0,4,1.9,4,4.4c0,2.1-1,3.5-2.2,4v0.1c0.7,0.2,1.6,0.4,2.3,0.5L628.3,490.4z M627,484.7
			c0-1.7-0.8-3.2-2.4-3.2c-1.6,0-2.4,1.5-2.4,3.2c0,1.7,0.9,3.1,2.4,3.1C626.2,487.9,627,486.5,627,484.7z"/>
		<path fill="#454746" d="M633.2,489v-2.1h-3.8v-1l3.4-5.2h1.9v5h1.1v1.2h-1.1v2.1H633.2z M633.2,485.7v-2.3c0-0.5,0-1,0.1-1.4h-0.1
			c-0.3,0.5-0.5,0.9-0.7,1.4l-1.5,2.3l0,0H633.2z"/>
	</g>
</g>
<rect x="197.1" y="403.1" fill="#54B6CC" width="28" height="64.2"/>
<rect x="327.1" y="392.1" fill="#54B6CC" width="28" height="75.2"/>
<rect x="465.1" y="397.9" fill="#D65151" width="28" height="69.5"/>
<rect x="630.6" y="340.3" fill="#FCC25B" width="28" height="127.1"/>
<rect x="251.1" y="264.7" fill="#9178CE" width="28" height="202.7"/>
<line fill="none" stroke="#454746" stroke-miterlimit="10" x1="173.1" y1="467.3" x2="693.1" y2="467.3"/>
<polyline fill="none" stroke="#75B640" stroke-width="4" stroke-linecap="round" stroke-linejoin="round" stroke-miterlimit="10" points="
	232.3,202.7 374.4,392.1 491.2,399.5 630.6,340.3 "/>
<g>
	<g>
		<path fill="#454746" d="M758.9,164.3h5.4v1.4h-3.7v2.6h3.5v1.4h-3.5v4h-1.7V164.3z"/>
		<path fill="#454746" d="M772.1,170.3c0,2.5-1.8,3.6-3.5,3.6c-1.9,0-3.4-1.3-3.4-3.5c0-2.2,1.5-3.6,3.5-3.6
			C770.7,166.8,772.1,168.2,772.1,170.3z M766.9,170.3c0,1.3,0.6,2.3,1.7,2.3c1,0,1.7-1,1.7-2.3c0-1.1-0.5-2.3-1.7-2.3
			C767.4,168,766.9,169.2,766.9,170.3z"/>
		<path fill="#454746" d="M773.5,169.1c0-0.9,0-1.6-0.1-2.2h1.5l0.1,1.3h0.1c0.3-1,1.1-1.5,1.9-1.5c0.2,0,0.3,0,0.4,0v1.6
			c-0.1,0-0.3-0.1-0.5-0.1c-0.8,0-1.4,0.5-1.5,1.3c0,0.2-0.1,0.3-0.1,0.5v3.5h-1.7V169.1z"/>
		<path fill="#454746" d="M784.6,163.8v8c0,0.7,0,1.5,0.1,1.9h-1.5l-0.1-1.1h0c-0.4,0.8-1.2,1.2-2.2,1.2c-1.6,0-2.9-1.4-2.9-3.5
			c0-2.3,1.4-3.6,3.1-3.6c0.9,0,1.6,0.4,1.9,0.9h0v-3.9H784.6z M782.9,169.8c0-0.1,0-0.3,0-0.4c-0.2-0.7-0.7-1.2-1.5-1.2
			c-1.1,0-1.7,1-1.7,2.3c0,1.2,0.6,2.2,1.7,2.2c0.7,0,1.3-0.5,1.5-1.2c0-0.2,0.1-0.3,0.1-0.5V169.8z"/>
		<path fill="#454746" d="M760.7,184.3H758v-1.4h7.1v1.4h-2.7v8h-1.7V184.3z"/>
		<path fill="#454746" d="M771.6,188.8c0,2.5-1.8,3.6-3.5,3.6c-1.9,0-3.4-1.3-3.4-3.5c0-2.2,1.5-3.6,3.5-3.6
			C770.2,185.3,771.6,186.7,771.6,188.8z M766.5,188.8c0,1.3,0.6,2.3,1.7,2.3c1,0,1.7-1,1.7-2.3c0-1.1-0.5-2.3-1.7-2.3
			C767,186.5,766.5,187.7,766.5,188.8z"/>
		<path fill="#454746" d="M774,185.4l1.2,3.7c0.1,0.4,0.3,0.9,0.4,1.3h0c0.1-0.4,0.2-0.9,0.4-1.3l1.1-3.6h1.8l-1.7,4.7
			c-0.9,2.5-1.6,3.7-2.4,4.4c-0.7,0.6-1.4,0.8-1.8,0.9l-0.4-1.5c0.3-0.1,0.7-0.2,1-0.5c0.3-0.2,0.7-0.6,0.9-1.1
			c0.1-0.1,0.1-0.2,0.1-0.3c0-0.1,0-0.2-0.1-0.3l-2.5-6.3H774z"/>
		<path fill="#454746" d="M786.2,188.8c0,2.5-1.8,3.6-3.5,3.6c-1.9,0-3.4-1.3-3.4-3.5c0-2.2,1.5-3.6,3.5-3.6
			C784.9,185.3,786.2,186.7,786.2,188.8z M781.1,188.8c0,1.3,0.6,2.3,1.7,2.3c1,0,1.7-1,1.7-2.3c0-1.1-0.5-2.3-1.7-2.3
			C781.6,186.5,781.1,187.7,781.1,188.8z"/>
		<path fill="#454746" d="M789.6,183.5v1.9h1.6v1.3h-1.6v3c0,0.8,0.2,1.3,0.9,1.3c0.3,0,0.5,0,0.7-0.1l0,1.3
			c-0.3,0.1-0.7,0.2-1.2,0.2c-0.6,0-1.2-0.2-1.5-0.6c-0.4-0.4-0.5-1-0.5-1.9v-3.2h-1v-1.3h1v-1.5L789.6,183.5z"/>
		<path fill="#454746" d="M796.4,192.2l-0.1-0.8h0c-0.4,0.5-1.1,0.9-2,0.9c-1.4,0-2.1-1-2.1-2c0-1.7,1.5-2.6,4-2.6v-0.1
			c0-0.4-0.2-1.2-1.4-1.2c-0.7,0-1.4,0.2-1.8,0.5l-0.3-1.1c0.5-0.3,1.4-0.6,2.5-0.6c2.2,0,2.8,1.4,2.8,2.9v2.5c0,0.6,0,1.2,0.1,1.6
			H796.4z M796.1,188.9c-1.2,0-2.4,0.2-2.4,1.3c0,0.7,0.4,1,1,1c0.7,0,1.2-0.4,1.3-0.9c0-0.1,0.1-0.3,0.1-0.4V188.9z"/>
		<path fill="#454746" d="M760.6,201.3v3.8h4v-3.8h1.7v9.4h-1.7v-4.2h-4v4.2h-1.7v-9.4H760.6z"/>
		<path fill="#454746" d="M774.7,207.3c0,2.5-1.8,3.6-3.5,3.6c-1.9,0-3.4-1.3-3.4-3.5c0-2.2,1.5-3.6,3.5-3.6
			C773.4,203.8,774.7,205.2,774.7,207.3z M769.6,207.3c0,1.3,0.6,2.3,1.7,2.3c1,0,1.7-1,1.7-2.3c0-1.1-0.5-2.3-1.7-2.3
			C770.1,205,769.6,206.2,769.6,207.3z"/>
		<path fill="#454746" d="M776.2,206c0-0.8,0-1.4-0.1-2h1.5l0.1,1h0c0.3-0.5,1-1.2,2.2-1.2c1.2,0,2.4,0.8,2.4,2.9v4h-1.7v-3.9
			c0-1-0.4-1.7-1.3-1.7c-0.7,0-1.2,0.5-1.3,1c-0.1,0.2-0.1,0.4-0.1,0.6v4h-1.7V206z"/>
		<path fill="#454746" d="M790.5,200.8v8c0,0.7,0,1.5,0.1,1.9H789l-0.1-1.1h0c-0.4,0.8-1.2,1.2-2.2,1.2c-1.6,0-2.9-1.4-2.9-3.5
			c0-2.3,1.4-3.6,3.1-3.6c0.9,0,1.6,0.4,1.9,0.9h0v-3.9H790.5z M788.7,206.8c0-0.1,0-0.3,0-0.4c-0.2-0.7-0.7-1.2-1.5-1.2
			c-1.1,0-1.7,1-1.7,2.3c0,1.2,0.6,2.2,1.7,2.2c0.7,0,1.3-0.5,1.5-1.2c0-0.2,0.1-0.3,0.1-0.5V206.8z"/>
		<path fill="#454746" d="M796.1,210.8L796,210h0c-0.4,0.5-1.1,0.9-2,0.9c-1.4,0-2.1-1-2.1-2c0-1.7,1.5-2.6,4-2.6v-0.1
			c0-0.4-0.2-1.2-1.4-1.2c-0.7,0-1.4,0.2-1.8,0.5l-0.3-1.1c0.5-0.3,1.4-0.6,2.5-0.6c2.2,0,2.8,1.4,2.8,2.9v2.5c0,0.6,0,1.2,0.1,1.6
			H796.1z M795.9,207.4c-1.2,0-2.4,0.2-2.4,1.3c0,0.7,0.4,1,1,1c0.7,0,1.2-0.4,1.3-0.9c0-0.1,0.1-0.3,0.1-0.4V207.4z"/>
		<path fill="#454746" d="M758.9,219.9c0.5-0.1,1.5-0.2,2.5-0.2c1.3,0,2.1,0.2,2.7,0.6c0.6,0.4,1,1,1,1.8c0,0.9-0.5,1.7-1.6,2v0
			c1,0.3,1.9,1,1.9,2.3c0,0.8-0.4,1.5-0.9,1.9c-0.7,0.6-1.8,0.9-3.5,0.9c-1,0-1.7-0.1-2.1-0.1V219.9z M760.6,223.7h0.9
			c1.2,0,1.9-0.6,1.9-1.4c0-0.9-0.7-1.3-1.8-1.3c-0.5,0-0.8,0-1,0.1V223.7z M760.6,228c0.2,0,0.5,0,0.9,0c1.1,0,2.1-0.4,2.1-1.6
			c0-1.1-1-1.5-2.1-1.5h-0.9V228z"/>
		<path fill="#454746" d="M775,225.4c-0.1-1.2-0.1-2.7-0.1-4h0c-0.3,1.1-0.7,2.4-1.1,3.6l-1.4,4.1H771l-1.3-4
			c-0.4-1.2-0.7-2.5-1-3.7h0c0,1.2-0.1,2.7-0.2,4l-0.2,3.8h-1.6l0.6-9.4h2.3l1.2,3.8c0.3,1.1,0.6,2.2,0.9,3.3h0
			c0.3-1,0.6-2.2,0.9-3.3l1.3-3.8h2.2l0.5,9.4h-1.7L775,225.4z"/>
		<path fill="#454746" d="M780.1,229.2l-2.3-9.4h1.8l0.9,4.3c0.2,1.1,0.5,2.4,0.6,3.3h0c0.2-1,0.4-2.1,0.7-3.3l1-4.3h1.8l0.9,4.3
			c0.2,1.1,0.4,2.2,0.6,3.2h0c0.2-1,0.4-2.1,0.6-3.3l1-4.3h1.8l-2.5,9.4h-1.8l-1-4.4c-0.2-1.1-0.4-2-0.5-3h0c-0.2,1-0.4,1.9-0.6,3
			l-1.1,4.4H780.1z"/>
		<path fill="#454746" d="M760.7,239.8H758v-1.4h7.1v1.4h-2.7v8h-1.7V239.8z"/>
		<path fill="#454746" d="M771.6,244.3c0,2.5-1.8,3.6-3.5,3.6c-1.9,0-3.4-1.3-3.4-3.5c0-2.2,1.5-3.6,3.5-3.6
			C770.2,240.8,771.6,242.2,771.6,244.3z M766.5,244.3c0,1.3,0.6,2.3,1.7,2.3c1,0,1.7-1,1.7-2.3c0-1.1-0.5-2.3-1.7-2.3
			C767,242,766.5,243.2,766.5,244.3z"/>
		<path fill="#454746" d="M775,239v1.9h1.6v1.3H775v3c0,0.8,0.2,1.3,0.9,1.3c0.3,0,0.5,0,0.7-0.1l0,1.3c-0.3,0.1-0.7,0.2-1.2,0.2
			c-0.6,0-1.2-0.2-1.5-0.6c-0.4-0.4-0.5-1-0.5-1.9v-3.2h-1v-1.3h1v-1.5L775,239z"/>
		<path fill="#454746" d="M781.8,247.8l-0.1-0.8h0c-0.4,0.5-1.1,0.9-2,0.9c-1.4,0-2.1-1-2.1-2c0-1.7,1.5-2.6,4-2.6v-0.1
			c0-0.4-0.2-1.2-1.4-1.2c-0.7,0-1.4,0.2-1.8,0.5l-0.3-1.1c0.5-0.3,1.4-0.6,2.5-0.6c2.2,0,2.8,1.4,2.8,2.9v2.5c0,0.6,0,1.2,0.1,1.6
			H781.8z M781.5,244.4c-1.2,0-2.4,0.2-2.4,1.3c0,0.7,0.4,1,1,1c0.7,0,1.2-0.4,1.3-0.9c0-0.1,0.1-0.3,0.1-0.4V244.4z"/>
		<path fill="#454746" d="M785,237.8h1.7v9.9H785V237.8z"/>
		<path fill="#454746" d="M791.6,245.9c0.6,0.3,1.4,0.6,2.3,0.6c1.1,0,1.7-0.5,1.7-1.3c0-0.7-0.5-1.1-1.7-1.6
			c-1.6-0.6-2.5-1.4-2.5-2.7c0-1.5,1.3-2.7,3.3-2.7c1,0,1.8,0.2,2.3,0.5l-0.4,1.4c-0.3-0.2-1-0.4-1.9-0.4c-1.1,0-1.6,0.6-1.6,1.1
			c0,0.7,0.5,1.1,1.8,1.6c1.6,0.6,2.4,1.4,2.4,2.8c0,1.5-1.1,2.8-3.6,2.8c-1,0-2-0.3-2.5-0.6L791.6,245.9z"/>
		<path fill="#454746" d="M802.7,247.8l-0.1-0.8h0c-0.4,0.5-1.1,0.9-2,0.9c-1.4,0-2.1-1-2.1-2c0-1.7,1.5-2.6,4-2.6v-0.1
			c0-0.4-0.2-1.2-1.4-1.2c-0.7,0-1.4,0.2-1.8,0.5l-0.3-1.1c0.5-0.3,1.4-0.6,2.5-0.6c2.2,0,2.8,1.4,2.8,2.9v2.5c0,0.6,0,1.2,0.1,1.6
			H802.7z M802.5,244.4c-1.2,0-2.4,0.2-2.4,1.3c0,0.7,0.4,1,1,1c0.7,0,1.2-0.4,1.3-0.9c0-0.1,0.1-0.3,0.1-0.4V244.4z"/>
		<path fill="#454746" d="M806,237.8h1.7v9.9H806V237.8z"/>
		<path fill="#454746" d="M810.8,244.8c0,1.2,1,1.8,2.1,1.8c0.8,0,1.4-0.1,1.9-0.3l0.3,1.2c-0.6,0.2-1.4,0.4-2.4,0.4
			c-2.2,0-3.5-1.4-3.5-3.4c0-1.9,1.1-3.7,3.3-3.7c2.2,0,2.9,1.8,2.9,3.3c0,0.3,0,0.6-0.1,0.7H810.8z M813.8,243.6
			c0-0.6-0.3-1.7-1.4-1.7c-1.1,0-1.5,1-1.6,1.7H813.8z"/>
		<path fill="#454746" d="M816.7,246.2c0.4,0.2,1.1,0.5,1.8,0.5c0.8,0,1.1-0.3,1.1-0.8c0-0.5-0.3-0.7-1.1-1c-1.3-0.5-1.9-1.2-1.9-2
			c0-1.2,1-2.1,2.6-2.1c0.8,0,1.4,0.2,1.8,0.4l-0.3,1.2c-0.3-0.2-0.8-0.4-1.4-0.4c-0.6,0-1,0.3-1,0.7c0,0.4,0.3,0.6,1.2,1
			c1.2,0.4,1.8,1.1,1.8,2.1c0,1.2-1,2.1-2.8,2.1c-0.8,0-1.6-0.2-2.1-0.5L816.7,246.2z"/>
	</g>
	
		<line fill="none" stroke="#54B6CC" stroke-width="4" stroke-linecap="round" stroke-miterlimit="10" x1="721.8" y1="168.7" x2="744.8" y2="168.7"/>
	
		<line fill="none" stroke="#D65151" stroke-width="4" stroke-linecap="round" stroke-miterlimit="10" x1="721.8" y1="187.2" x2="744.8" y2="187.2"/>
	
		<line fill="none" stroke="#9178CE" stroke-width="4" stroke-linecap="round" stroke-miterlimit="10" x1="721.8" y1="224.3" x2="744.8" y2="224.3"/>
	
		<line fill="none" stroke="#FCC25B" stroke-width="4" stroke-linecap="round" stroke-miterlimit="10" x1="721.8" y1="205.8" x2="744.8" y2="205.8"/>
	
		<line fill="none" stroke="#75B640" stroke-width="4" stroke-linecap="round" stroke-miterlimit="10" x1="721.8" y1="242.8" x2="744.8" y2="242.8"/>
</g>
</svg>
