<?xml version="1.0" encoding="utf-8"?>
<!-- Generator: Adobe Illustrator 18.0.0, SVG Export Plug-In . SVG Version: 6.00 Build 0)  -->
<!DOCTYPE svg PUBLIC "-//W3C//DTD SVG 1.1//EN" "http://www.w3.org/Graphics/SVG/1.1/DTD/svg11.dtd">
<svg version="1.1" id="Layer_1" xmlns="http://www.w3.org/2000/svg" xmlns:xlink="http://www.w3.org/1999/xlink" x="0px" y="0px"
	 width="500px" height="200px" viewBox="0 0 500 200" enable-background="new 0 0 500 200" xml:space="preserve">
<path fill="#F8FAF6" d="M476.8,164.7H25.6c-2.7,0-4.8-2.1-4.8-4.8V42.7c0-2.7,2.1-4.8,4.8-4.8h451.2c2.7,0,4.8,2.1,4.8,4.8v117.2
	C481.6,162.6,479.5,164.7,476.8,164.7z"/>
<path fill="#E5EAE4" d="M20.8,69.9V42.7c0-2.7,2.1-4.8,4.8-4.8h451.2c2.7,0,4.8,2.1,4.8,4.8v27.2H20.8z"/>
<g>
	<g>
		<path fill="#454746" d="M55.8,49.6c0.6-0.1,1.5-0.2,2.5-0.2c1.4,0,2.2,0.2,2.9,0.8c0.5,0.4,0.9,1,0.9,1.9c0,1-0.7,1.9-1.8,2.3v0
			c1,0.2,2.2,1.1,2.2,2.6c0,0.9-0.4,1.6-0.9,2.1c-0.7,0.7-1.9,1-3.6,1c-0.9,0-1.7-0.1-2.1-0.1V49.6z M57.1,53.9h1.2
			c1.4,0,2.3-0.7,2.3-1.8c0-1.2-0.9-1.7-2.3-1.7c-0.6,0-1,0-1.2,0.1V53.9z M57.1,58.9c0.3,0,0.7,0.1,1.1,0.1c1.4,0,2.7-0.5,2.7-2
			c0-1.4-1.2-2-2.7-2h-1.1V58.9z"/>
		<path fill="#454746" d="M70.5,57.9c0,0.8,0,1.5,0.1,2.1h-1.2l-0.1-1.2h0c-0.4,0.6-1.2,1.4-2.5,1.4c-1.2,0-2.6-0.7-2.6-3.3v-4.4
			h1.4v4.2c0,1.4,0.4,2.4,1.7,2.4c0.9,0,1.6-0.6,1.8-1.2c0.1-0.2,0.1-0.5,0.1-0.7v-4.6h1.4V57.9z"/>
		<path fill="#454746" d="M74.3,50.3c0,0.5-0.3,0.8-0.9,0.8c-0.5,0-0.8-0.4-0.8-0.8c0-0.5,0.4-0.9,0.9-0.9
			C74,49.4,74.3,49.8,74.3,50.3z M72.8,59.9v-7.5h1.4v7.5H72.8z"/>
		<path fill="#454746" d="M76.4,48.9h1.4v11.1h-1.4V48.9z"/>
		<path fill="#454746" d="M86.6,48.9V58c0,0.7,0,1.4,0.1,1.9h-1.2l-0.1-1.3h0c-0.4,0.8-1.3,1.5-2.6,1.5c-1.8,0-3.2-1.5-3.2-3.8
			c0-2.5,1.5-4.1,3.4-4.1c1.2,0,1.9,0.5,2.3,1.2h0v-4.5H86.6z M85.2,55.5c0-0.2,0-0.4-0.1-0.6c-0.2-0.9-1-1.6-2-1.6
			c-1.4,0-2.3,1.2-2.3,2.9c0,1.5,0.7,2.8,2.2,2.8c0.9,0,1.8-0.6,2-1.6c0-0.2,0.1-0.4,0.1-0.6V55.5z"/>
		<path fill="#454746" d="M92.3,59.9v-6.5h-1.1v-1h1.1V52c0-2,1.2-3.3,3.3-3.3c0.7,0,1.5,0.2,1.9,0.5l-0.4,1
			c-0.3-0.2-0.9-0.4-1.6-0.4c-1.5,0-1.9,1-1.9,2.2v0.4h4.4v7.5h-1.4v-6.5h-3v6.5H92.3z"/>
		<path fill="#454746" d="M100.4,54.7c0-0.9,0-1.7-0.1-2.4h1.2l0,1.5h0.1c0.3-1,1.2-1.7,2.1-1.7c0.2,0,0.3,0,0.4,0v1.3
			c-0.1,0-0.3,0-0.5,0c-1,0-1.7,0.7-1.8,1.8c0,0.2-0.1,0.4-0.1,0.6v4h-1.4V54.7z"/>
		<path fill="#454746" d="M105.3,58.5c0.4,0.3,1.1,0.5,1.8,0.5c1,0,1.5-0.5,1.5-1.1c0-0.7-0.4-1-1.4-1.4c-1.4-0.5-2-1.2-2-2.1
			c0-1.2,1-2.2,2.6-2.2c0.8,0,1.4,0.2,1.9,0.5l-0.3,1c-0.3-0.2-0.8-0.4-1.5-0.4c-0.8,0-1.3,0.5-1.3,1c0,0.6,0.5,0.9,1.4,1.3
			c1.3,0.5,2,1.2,2,2.3c0,1.3-1,2.3-2.8,2.3c-0.8,0-1.6-0.2-2.1-0.5L105.3,58.5z"/>
		<path fill="#454746" d="M113.3,50.2v2.2h2v1h-2v4.1c0,0.9,0.3,1.5,1,1.5c0.4,0,0.6,0,0.8-0.1l0.1,1c-0.3,0.1-0.7,0.2-1.2,0.2
			c-0.6,0-1.2-0.2-1.5-0.6c-0.4-0.4-0.5-1.1-0.5-2v-4.1h-1.2v-1h1.2v-1.8L113.3,50.2z"/>
		<path fill="#454746" d="M120.1,48.9h1.4v11.1h-1.4V48.9z"/>
		<path fill="#454746" d="M124.6,56.4c0,1.9,1.2,2.6,2.6,2.6c1,0,1.6-0.2,2.1-0.4l0.2,1c-0.5,0.2-1.3,0.5-2.5,0.5
			c-2.3,0-3.7-1.5-3.7-3.8s1.3-4.1,3.5-4.1c2.5,0,3.1,2.2,3.1,3.6c0,0.3,0,0.5,0,0.6H124.6z M128.6,55.4c0-0.9-0.4-2.2-1.9-2.2
			c-1.4,0-2,1.3-2.1,2.2H128.6z"/>
		<path fill="#454746" d="M132.1,52.4l1.5,4.2c0.2,0.7,0.5,1.3,0.6,1.9h0c0.2-0.6,0.4-1.2,0.6-1.9l1.5-4.2h1.4l-3,7.5h-1.3l-2.9-7.5
			H132.1z"/>
		<path fill="#454746" d="M139.7,56.4c0,1.9,1.2,2.6,2.6,2.6c1,0,1.6-0.2,2.1-0.4l0.2,1c-0.5,0.2-1.3,0.5-2.5,0.5
			c-2.3,0-3.7-1.5-3.7-3.8s1.3-4.1,3.5-4.1c2.5,0,3.1,2.2,3.1,3.6c0,0.3,0,0.5,0,0.6H139.7z M143.7,55.4c0-0.9-0.4-2.2-1.9-2.2
			c-1.4,0-2,1.3-2.1,2.2H143.7z"/>
		<path fill="#454746" d="M146.8,48.9h1.4v11.1h-1.4V48.9z"/>
	</g>
</g>
<g opacity="0.7">
	<g>
		<path fill="#454746" d="M410.2,104.6l-1,3h-1.3l3.2-9.4h1.5l3.2,9.4h-1.3l-1-3H410.2z M413.3,103.7l-0.9-2.7
			c-0.2-0.6-0.3-1.2-0.5-1.7h0c-0.1,0.6-0.3,1.1-0.5,1.7l-0.9,2.7H413.3z"/>
		<path fill="#454746" d="M421.8,107.3c-0.3,0.2-1,0.4-1.9,0.4c-2,0-3.4-1.4-3.4-3.5c0-2.1,1.4-3.6,3.6-3.6c0.7,0,1.4,0.2,1.7,0.4
			l-0.3,1c-0.3-0.2-0.8-0.3-1.4-0.3c-1.6,0-2.4,1.1-2.4,2.6c0,1.6,1,2.5,2.4,2.5c0.7,0,1.2-0.2,1.5-0.3L421.8,107.3z"/>
		<path fill="#454746" d="M424.9,98.9v1.9h1.8v0.9h-1.8v3.7c0,0.8,0.2,1.3,0.9,1.3c0.3,0,0.6,0,0.7-0.1l0.1,0.9
			c-0.2,0.1-0.6,0.2-1.1,0.2c-0.6,0-1-0.2-1.3-0.5c-0.3-0.4-0.5-1-0.5-1.8v-3.7h-1.1v-0.9h1.1v-1.6L424.9,98.9z"/>
		<path fill="#454746" d="M434.1,104.2c0,2.5-1.7,3.6-3.4,3.6c-1.8,0-3.2-1.3-3.2-3.5c0-2.3,1.5-3.6,3.4-3.6
			C432.8,100.7,434.1,102.1,434.1,104.2z M428.8,104.2c0,1.5,0.9,2.6,2.1,2.6c1.2,0,2.1-1.1,2.1-2.6c0-1.1-0.6-2.6-2-2.6
			C429.4,101.6,428.8,102.9,428.8,104.2z"/>
		<path fill="#454746" d="M435.7,102.9c0-0.8,0-1.5-0.1-2.1h1.1l0,1.3h0.1c0.3-0.9,1.1-1.5,1.9-1.5c0.1,0,0.2,0,0.3,0v1.2
			c-0.1,0-0.3,0-0.4,0c-0.9,0-1.5,0.7-1.7,1.6c0,0.2-0.1,0.4-0.1,0.6v3.6h-1.2V102.9z"/>
		<path fill="#454746" d="M440.1,106.3c0.4,0.2,1,0.5,1.6,0.5c0.9,0,1.3-0.4,1.3-1c0-0.6-0.4-0.9-1.3-1.2c-1.2-0.4-1.8-1.1-1.8-1.9
			c0-1.1,0.9-2,2.3-2c0.7,0,1.3,0.2,1.7,0.4l-0.3,0.9c-0.3-0.2-0.8-0.4-1.4-0.4c-0.7,0-1.1,0.4-1.1,0.9c0,0.6,0.4,0.8,1.3,1.1
			c1.2,0.4,1.8,1,1.8,2c0,1.2-0.9,2-2.5,2c-0.7,0-1.4-0.2-1.9-0.5L440.1,106.3z"/>
	</g>
</g>
<circle opacity="0.8" fill="#7C7C7C" cx="38.6" cy="54.7" r="8.6"/>
<g>
	<g>
		<path fill="#FFFFFF" d="M38.1,52.2L38.1,52.2l-1.5,0.7l-0.3-1.2l2-1h1.3v8.1h-1.5V52.2z"/>
	</g>
</g>
<g>
	<path fill="#FFFFFF" d="M74.4,130.2c-6.8,0-12.3-5.5-12.3-12.3s5.5-12.3,12.3-12.3s12.3,5.5,12.3,12.3S81.2,130.2,74.4,130.2z"/>
	<g>
		<path fill="#75B640" d="M74.4,107.1c6,0,10.8,4.8,10.8,10.8s-4.8,10.8-10.8,10.8s-10.8-4.8-10.8-10.8S68.4,107.1,74.4,107.1
			 M74.4,104.1c-7.6,0-13.8,6.2-13.8,13.8c0,7.6,6.2,13.8,13.8,13.8s13.8-6.2,13.8-13.8C88.2,110.3,82,104.1,74.4,104.1L74.4,104.1z
			"/>
	</g>
</g>
<g>
	<path fill="#FFFFFF" d="M142,130.2c-6.8,0-12.3-5.5-12.3-12.3s5.5-12.3,12.3-12.3s12.3,5.5,12.3,12.3S148.8,130.2,142,130.2z"/>
	<g>
		<path fill="#75B640" d="M142,107.1c6,0,10.8,4.8,10.8,10.8s-4.8,10.8-10.8,10.8s-10.8-4.8-10.8-10.8S136,107.1,142,107.1
			 M142,104.1c-7.6,0-13.8,6.2-13.8,13.8c0,7.6,6.2,13.8,13.8,13.8s13.8-6.2,13.8-13.8C155.8,110.3,149.6,104.1,142,104.1L142,104.1
			z"/>
	</g>
</g>
<g>
	<path fill="#FFFFFF" d="M209.6,130.2c-6.8,0-12.3-5.5-12.3-12.3s5.5-12.3,12.3-12.3s12.3,5.5,12.3,12.3S216.4,130.2,209.6,130.2z"
		/>
	<g>
		<path fill="#75B640" d="M209.6,107.1c6,0,10.8,4.8,10.8,10.8s-4.8,10.8-10.8,10.8s-10.8-4.8-10.8-10.8S203.6,107.1,209.6,107.1
			 M209.6,104.1c-7.6,0-13.8,6.2-13.8,13.8c0,7.6,6.2,13.8,13.8,13.8c7.6,0,13.8-6.2,13.8-13.8C223.4,110.3,217.2,104.1,209.6,104.1
			L209.6,104.1z"/>
	</g>
</g>
<g>
	<path fill="#FFFFFF" d="M277.2,130.2c-6.8,0-12.3-5.5-12.3-12.3s5.5-12.3,12.3-12.3s12.3,5.5,12.3,12.3S284,130.2,277.2,130.2z"/>
	<g>
		<path fill="#75B640" d="M277.2,107.1c6,0,10.8,4.8,10.8,10.8s-4.8,10.8-10.8,10.8s-10.8-4.8-10.8-10.8S271.2,107.1,277.2,107.1
			 M277.2,104.1c-7.6,0-13.8,6.2-13.8,13.8c0,7.6,6.2,13.8,13.8,13.8s13.8-6.2,13.8-13.8C291,110.3,284.8,104.1,277.2,104.1
			L277.2,104.1z"/>
	</g>
</g>
<g>
	<path fill="#FFFFFF" d="M344.8,130.2c-6.8,0-12.3-5.5-12.3-12.3s5.5-12.3,12.3-12.3s12.3,5.5,12.3,12.3S351.6,130.2,344.8,130.2z"
		/>
	<g>
		<path fill="#75B640" d="M344.8,107.1c6,0,10.8,4.8,10.8,10.8s-4.8,10.8-10.8,10.8c-6,0-10.8-4.8-10.8-10.8
			S338.8,107.1,344.8,107.1 M344.8,104.1c-7.6,0-13.8,6.2-13.8,13.8c0,7.6,6.2,13.8,13.8,13.8c7.6,0,13.8-6.2,13.8-13.8
			C358.6,110.3,352.4,104.1,344.8,104.1L344.8,104.1z"/>
	</g>
</g>
<g opacity="0.7">
	<g>
		<path fill="none" stroke="#454746" stroke-width="1.0721" stroke-miterlimit="10" d="M400,104.1c-13.7,0.8-15.2,1.4-23.9,4.7"/>
		<g>
			<path fill="#454746" d="M371.2,110.6c2-1.7,4.3-4.2,5.4-6.4l0,4.3l2.8,3.3C377.2,111,373.8,110.6,371.2,110.6z"/>
		</g>
	</g>
</g>
</svg>
