<?xml version="1.0" encoding="utf-8"?>
<!-- Generator: Adobe Illustrator 18.0.0, SVG Export Plug-In . SVG Version: 6.00 Build 0)  -->
<!DOCTYPE svg PUBLIC "-//W3C//DTD SVG 1.1//EN" "http://www.w3.org/Graphics/SVG/1.1/DTD/svg11.dtd">
<svg version="1.1" id="graphs" xmlns="http://www.w3.org/2000/svg" xmlns:xlink="http://www.w3.org/1999/xlink" x="0px" y="0px"
	 viewBox="0 0 900 600" enable-background="new 0 0 900 600" xml:space="preserve">
<path fill="#F8FAF6" d="M694.7,471.6H171.5c-1.3,0-2.4-1.1-2.4-2.4V161.7c0-1.3,1.1-2.4,2.4-2.4h523.2c1.3,0,2.4,1.1,2.4,2.4v307.5
	C697.1,470.5,696,471.6,694.7,471.6z"/>
<g>
	<line fill="none" stroke="#D6D6D6" stroke-miterlimit="10" x1="173.1" y1="163.3" x2="693.1" y2="163.3"/>
	<line fill="none" stroke="#D6D6D6" stroke-miterlimit="10" x1="173.1" y1="197.1" x2="693.1" y2="197.1"/>
	<line fill="none" stroke="#D6D6D6" stroke-miterlimit="10" x1="173.1" y1="230.9" x2="693.1" y2="230.9"/>
	<line fill="none" stroke="#D6D6D6" stroke-miterlimit="10" x1="173.1" y1="264.7" x2="693.1" y2="264.7"/>
	<line fill="none" stroke="#D6D6D6" stroke-miterlimit="10" x1="173.1" y1="298.4" x2="693.1" y2="298.4"/>
	<line fill="none" stroke="#D6D6D6" stroke-miterlimit="10" x1="173.1" y1="332.2" x2="693.1" y2="332.2"/>
	<line fill="none" stroke="#D6D6D6" stroke-miterlimit="10" x1="173.1" y1="366" x2="693.1" y2="366"/>
	<line fill="none" stroke="#D6D6D6" stroke-miterlimit="10" x1="173.1" y1="399.8" x2="693.1" y2="399.8"/>
	<line fill="none" stroke="#D6D6D6" stroke-miterlimit="10" x1="173.1" y1="433.5" x2="693.1" y2="433.5"/>
	<line fill="none" stroke="#D6D6D6" stroke-miterlimit="10" x1="173.1" y1="467.3" x2="693.1" y2="467.3"/>
</g>
<g>
	<path fill="#454746" d="M344.2,137.9l-1.1,3.7h-2.4l4.1-12.9h3l4.2,12.9h-2.5l-1.2-3.7H344.2z M347.9,136.2l-1-3.2
		c-0.2-0.8-0.5-1.7-0.7-2.4h0c-0.2,0.7-0.4,1.7-0.6,2.4l-1,3.2H347.9z"/>
	<path fill="#454746" d="M355.7,141.6l-4.2-12.9h2.6l1.8,5.9c0.5,1.6,0.9,3.1,1.3,4.7h0c0.3-1.5,0.8-3.1,1.3-4.7l1.9-5.9h2.5
		l-4.5,12.9H355.7z"/>
	<path fill="#454746" d="M374.5,141c-0.8,0.3-2.4,0.7-4.2,0.7c-2.2,0-3.8-0.6-5.1-1.7c-1.2-1.1-1.8-2.8-1.8-4.8
		c0-4.1,2.9-6.7,7.2-6.7c1.6,0,2.8,0.3,3.4,0.6l-0.5,1.9c-0.7-0.3-1.6-0.6-2.9-0.6c-2.8,0-4.7,1.6-4.7,4.6c0,2.9,1.8,4.7,4.5,4.7
		c0.8,0,1.5-0.1,1.8-0.3v-3.2H370v-1.9h4.6V141z"/>
	<path fill="#454746" d="M380.9,128.8c0.8-0.2,2-0.3,3.6-0.3c1.7,0,3,0.4,3.8,1.1c0.8,0.6,1.3,1.7,1.3,2.9c0,1.2-0.4,2.2-1.1,2.9
		c-0.9,0.9-2.4,1.4-4.1,1.4c-0.4,0-0.8,0-1.2-0.1v4.9h-2.3V128.8z M383.3,134.9c0.3,0.1,0.7,0.1,1.2,0.1c1.8,0,2.8-0.9,2.8-2.4
		c0-1.4-1-2.2-2.6-2.2c-0.7,0-1.1,0.1-1.4,0.1V134.9z"/>
	<path fill="#454746" d="M391.3,135.3c0-1.3,0-2.2-0.1-3h2.1l0.1,1.8h0.1c0.5-1.3,1.6-2,2.6-2c0.2,0,0.4,0,0.6,0.1v2.2
		c-0.2,0-0.4-0.1-0.7-0.1c-1.1,0-1.9,0.7-2.1,1.8c0,0.2-0.1,0.5-0.1,0.7v4.8h-2.4V135.3z"/>
	<path fill="#454746" d="M400.7,129.7c0,0.7-0.5,1.3-1.3,1.3c-0.8,0-1.3-0.6-1.3-1.3c0-0.7,0.5-1.3,1.3-1.3
		C400.2,128.4,400.7,128.9,400.7,129.7z M398.2,141.6v-9.3h2.4v9.3H398.2z"/>
	<path fill="#454746" d="M410,141.3c-0.5,0.2-1.5,0.5-2.6,0.5c-2.9,0-4.8-1.9-4.8-4.8c0-2.8,1.9-5,5.2-5c0.9,0,1.7,0.2,2.3,0.4
		l-0.4,1.8c-0.4-0.2-0.9-0.4-1.8-0.4c-1.8,0-2.9,1.3-2.9,3c0,1.9,1.2,3,2.9,3c0.8,0,1.4-0.2,1.9-0.4L410,141.3z"/>
	<path fill="#454746" d="M413.2,137.6c0.1,1.7,1.4,2.4,2.9,2.4c1.1,0,1.9-0.2,2.6-0.4l0.3,1.6c-0.8,0.3-1.9,0.6-3.3,0.6
		c-3,0-4.8-1.9-4.8-4.7c0-2.6,1.6-5,4.6-5c3,0,4,2.5,4,4.5c0,0.4,0,0.8-0.1,1H413.2z M417.3,136c0-0.9-0.4-2.3-1.9-2.3
		c-1.5,0-2.1,1.3-2.2,2.3H417.3z"/>
	<path fill="#454746" d="M434.3,136.9c0,3.4-2.4,5-4.8,5c-2.6,0-4.7-1.8-4.7-4.8c0-3.1,2-5,4.8-5C432.5,132.1,434.3,134,434.3,136.9
		z M427.3,136.9c0,1.8,0.9,3.2,2.3,3.2c1.3,0,2.3-1.3,2.3-3.2c0-1.5-0.7-3.1-2.3-3.1C427.9,133.8,427.3,135.4,427.3,136.9z"/>
	<path fill="#454746" d="M436.5,141.6V134h-1.3v-1.8h1.3v-0.4c0-1.2,0.3-2.4,1.1-3.2c0.7-0.7,1.6-0.9,2.4-0.9c0.6,0,1.1,0.1,1.5,0.2
		l-0.2,1.8c-0.2-0.1-0.6-0.2-1-0.2c-1.2,0-1.6,1-1.6,2.1v0.5h2.1v1.8h-2v7.6H436.5z"/>
	<path fill="#454746" d="M451.6,141.6l-0.2-1h-0.1c-0.6,0.7-1.6,1.2-2.8,1.2c-1.9,0-2.9-1.4-2.9-2.8c0-2.4,2.1-3.6,5.5-3.5v-0.2
		c0-0.6-0.2-1.6-1.9-1.6c-0.9,0-1.9,0.3-2.5,0.7l-0.5-1.5c0.7-0.4,1.9-0.8,3.4-0.8c3,0,3.9,1.9,3.9,3.9v3.4c0,0.8,0,1.7,0.1,2.2
		H451.6z M451.3,137c-1.7,0-3.3,0.3-3.3,1.7c0,0.9,0.6,1.3,1.3,1.3c0.9,0,1.6-0.6,1.8-1.3c0.1-0.2,0.1-0.4,0.1-0.5V137z"/>
	<path fill="#454746" d="M456.1,128h2.4v13.6h-2.4V128z"/>
	<path fill="#454746" d="M461,128h2.4v13.6H461V128z"/>
	<path fill="#454746" d="M481,136.3c-0.1-1.7-0.2-3.7-0.2-5.4h-0.1c-0.4,1.6-1,3.3-1.5,5l-1.9,5.6h-1.8l-1.7-5.5
		c-0.5-1.7-1-3.4-1.3-5h0c-0.1,1.7-0.1,3.7-0.2,5.5l-0.3,5.2h-2.2l0.9-12.9h3.1l1.7,5.2c0.5,1.5,0.9,3.1,1.2,4.5h0.1
		c0.3-1.4,0.8-3,1.3-4.5l1.8-5.2h3.1l0.7,12.9h-2.3L481,136.3z"/>
	<path fill="#454746" d="M491.2,141.6l-0.2-1H491c-0.6,0.7-1.6,1.2-2.8,1.2c-1.9,0-2.9-1.4-2.9-2.8c0-2.4,2.1-3.6,5.5-3.5v-0.2
		c0-0.6-0.2-1.6-1.9-1.6c-0.9,0-1.9,0.3-2.5,0.7l-0.5-1.5c0.7-0.4,1.9-0.8,3.4-0.8c3,0,3.9,1.9,3.9,3.9v3.4c0,0.8,0,1.7,0.1,2.2
		H491.2z M490.9,137c-1.7,0-3.3,0.3-3.3,1.7c0,0.9,0.6,1.3,1.3,1.3c0.9,0,1.6-0.6,1.8-1.3c0.1-0.2,0.1-0.4,0.1-0.5V137z"/>
	<path fill="#454746" d="M498,136.4L498,136.4c0.3-0.4,0.5-0.8,0.8-1.1l2.3-3h2.8l-3.5,3.8l4,5.5h-2.9l-2.7-4.1l-0.8,0.9v3.2h-2.4
		V128h2.4V136.4z"/>
	<path fill="#454746" d="M507,137.6c0.1,1.7,1.4,2.4,2.9,2.4c1.1,0,1.9-0.2,2.6-0.4l0.3,1.6c-0.8,0.3-1.9,0.6-3.3,0.6
		c-3,0-4.8-1.9-4.8-4.7c0-2.6,1.6-5,4.6-5c3,0,4,2.5,4,4.5c0,0.4,0,0.8-0.1,1H507z M511.1,136c0-0.9-0.4-2.3-1.9-2.3
		c-1.5,0-2.1,1.3-2.2,2.3H511.1z"/>
	<path fill="#454746" d="M515.1,139.4c0.5,0.3,1.6,0.7,2.4,0.7c1,0,1.5-0.4,1.5-1c0-0.6-0.4-1-1.5-1.4c-1.8-0.6-2.6-1.6-2.6-2.7
		c0-1.7,1.4-2.9,3.5-2.9c1,0,1.9,0.3,2.5,0.6l-0.5,1.7c-0.4-0.2-1.2-0.5-2-0.5c-0.8,0-1.3,0.4-1.3,1c0,0.6,0.4,0.9,1.6,1.3
		c1.7,0.6,2.5,1.5,2.5,2.9c0,1.7-1.3,2.9-3.8,2.9c-1.1,0-2.1-0.3-2.8-0.7L515.1,139.4z"/>
</g>
<line fill="none" stroke="#454746" stroke-miterlimit="10" x1="173.1" y1="163.3" x2="173.1" y2="467.3"/>
<g>
	<line fill="none" stroke="#454746" stroke-miterlimit="10" x1="173.1" y1="163.3" x2="169.1" y2="163.3"/>
	<line fill="none" stroke="#454746" stroke-miterlimit="10" x1="173.1" y1="230.9" x2="169.1" y2="230.9"/>
	<line fill="none" stroke="#454746" stroke-miterlimit="10" x1="173.1" y1="264.7" x2="169.1" y2="264.7"/>
	<line fill="none" stroke="#454746" stroke-miterlimit="10" x1="173.1" y1="298.4" x2="169.1" y2="298.4"/>
	<line fill="none" stroke="#454746" stroke-miterlimit="10" x1="173.1" y1="332.2" x2="169.1" y2="332.2"/>
	<line fill="none" stroke="#454746" stroke-miterlimit="10" x1="173.1" y1="366" x2="169.1" y2="366"/>
	<line fill="none" stroke="#454746" stroke-miterlimit="10" x1="173.1" y1="399.8" x2="169.1" y2="399.8"/>
	<line fill="none" stroke="#454746" stroke-miterlimit="10" x1="173.1" y1="433.3" x2="169.1" y2="433.3"/>
	<line fill="none" stroke="#454746" stroke-miterlimit="10" x1="173.1" y1="197.1" x2="169.1" y2="197.1"/>
</g>
<line fill="none" stroke="#454746" stroke-miterlimit="10" x1="173.1" y1="467.3" x2="173.1" y2="471.6"/>
<line fill="none" stroke="#454746" stroke-miterlimit="10" x1="303.1" y1="467.3" x2="303.1" y2="471.6"/>
<line fill="none" stroke="#454746" stroke-miterlimit="10" x1="433.1" y1="467.3" x2="433.1" y2="471.6"/>
<line fill="none" stroke="#454746" stroke-miterlimit="10" x1="563.1" y1="467.3" x2="563.1" y2="471.6"/>
<line fill="none" stroke="#454746" stroke-miterlimit="10" x1="693.1" y1="467.3" x2="693.1" y2="471.6"/>
<g>
	<g>
		<path fill="#454746" d="M222,480.4v3.5h3.6v-3.5h1.6v8.6h-1.6v-3.8H222v3.8h-1.6v-8.6H222z"/>
		<path fill="#454746" d="M234.9,485.8c0,2.3-1.6,3.3-3.2,3.3c-1.8,0-3.1-1.2-3.1-3.2c0-2,1.3-3.3,3.2-3.3
			C233.7,482.6,234.9,483.9,234.9,485.8z M230.2,485.9c0,1.2,0.6,2.1,1.5,2.1c0.9,0,1.5-0.9,1.5-2.1c0-1-0.4-2.1-1.5-2.1
			C230.7,483.8,230.2,484.8,230.2,485.9z"/>
		<path fill="#454746" d="M236.2,484.6c0-0.7,0-1.3-0.1-1.9h1.4l0.1,0.9h0c0.3-0.5,0.9-1.1,2-1.1c1.1,0,2.2,0.7,2.2,2.7v3.7h-1.6
			v-3.5c0-0.9-0.3-1.6-1.2-1.6c-0.6,0-1.1,0.4-1.2,0.9c-0.1,0.1-0.1,0.3-0.1,0.5v3.7h-1.6V484.6z"/>
		<path fill="#454746" d="M249.3,479.9v7.3c0,0.6,0,1.3,0.1,1.8h-1.4l-0.1-1h0c-0.4,0.7-1.1,1.1-2,1.1c-1.5,0-2.7-1.3-2.7-3.2
			c0-2.1,1.3-3.3,2.8-3.3c0.9,0,1.5,0.4,1.8,0.8h0v-3.5H249.3z M247.7,485.4c0-0.1,0-0.3,0-0.4c-0.1-0.6-0.6-1.1-1.4-1.1
			c-1,0-1.6,0.9-1.6,2.1c0,1.1,0.6,2,1.6,2c0.6,0,1.2-0.4,1.4-1.1c0-0.1,0.1-0.3,0.1-0.5V485.4z"/>
		<path fill="#454746" d="M254.5,489l-0.1-0.7h0c-0.4,0.5-1,0.8-1.8,0.8c-1.3,0-2-0.9-2-1.9c0-1.6,1.4-2.4,3.7-2.4v-0.1
			c0-0.4-0.2-1.1-1.3-1.1c-0.6,0-1.3,0.2-1.7,0.5l-0.3-1c0.5-0.3,1.3-0.5,2.3-0.5c2,0,2.6,1.3,2.6,2.6v2.3c0,0.6,0,1.1,0.1,1.5
			H254.5z M254.3,485.9c-1.1,0-2.2,0.2-2.2,1.2c0,0.6,0.4,0.9,0.9,0.9c0.6,0,1.1-0.4,1.2-0.9c0-0.1,0.1-0.2,0.1-0.3V485.9z"/>
	</g>
</g>
<g>
	<g>
		<g>
			<path fill="#454746" d="M127.4,432.1L127.4,432.1l-1.5,0.8l-0.3-1.2l2-1h1.3v8.3h-1.5V432.1z"/>
			<path fill="#454746" d="M137.7,434.8c0,2.7-1,4.4-3,4.4c-1.9,0-2.9-1.7-3-4.3c0-2.6,1.1-4.3,3-4.3
				C136.7,430.6,137.7,432.4,137.7,434.8z M133.3,434.9c0,2,0.6,3.1,1.4,3.1c0.9,0,1.4-1.1,1.4-3.1c0-1.9-0.5-3.1-1.4-3.1
				C133.8,431.8,133.2,432.8,133.3,434.9z"/>
			<path fill="#454746" d="M144.5,434.8c0,2.7-1,4.4-3,4.4c-1.9,0-2.9-1.7-3-4.3c0-2.6,1.1-4.3,3-4.3
				C143.6,430.6,144.5,432.4,144.5,434.8z M140.1,434.9c0,2,0.6,3.1,1.4,3.1c0.9,0,1.4-1.1,1.4-3.1c0-1.9-0.5-3.1-1.4-3.1
				C140.7,431.8,140.1,432.8,140.1,434.9z"/>
			<path fill="#454746" d="M151.4,434.8c0,2.7-1,4.4-3,4.4c-1.9,0-2.9-1.7-3-4.3c0-2.6,1.1-4.3,3-4.3
				C150.4,430.6,151.4,432.4,151.4,434.8z M147,434.9c0,2,0.6,3.1,1.4,3.1c0.9,0,1.4-1.1,1.4-3.1c0-1.9-0.5-3.1-1.4-3.1
				C147.6,431.8,147,432.8,147,434.9z"/>
			<path fill="#454746" d="M158.2,434.8c0,2.7-1,4.4-3,4.4c-1.9,0-2.9-1.7-3-4.3c0-2.6,1.1-4.3,3-4.3
				C157.3,430.6,158.2,432.4,158.2,434.8z M153.8,434.9c0,2,0.6,3.1,1.4,3.1c0.9,0,1.4-1.1,1.4-3.1c0-1.9-0.5-3.1-1.4-3.1
				C154.4,431.8,153.8,432.8,153.8,434.9z"/>
		</g>
	</g>
</g>
<g>
	<g>
		<g>
			<path fill="#454746" d="M124.9,405.5v-1l1-0.9c2-1.8,2.9-2.8,2.9-3.9c0-0.7-0.4-1.4-1.5-1.4c-0.7,0-1.4,0.4-1.8,0.7l-0.5-1.1
				c0.6-0.5,1.5-0.9,2.6-0.9c1.8,0,2.7,1.2,2.7,2.5c0,1.5-1,2.6-2.5,4l-0.7,0.6v0h3.4v1.3H124.9z"/>
			<path fill="#454746" d="M137.7,401.3c0,2.7-1,4.4-3,4.4c-1.9,0-2.9-1.7-3-4.3c0-2.6,1.1-4.3,3-4.3
				C136.7,397,137.7,398.8,137.7,401.3z M133.3,401.3c0,2,0.6,3.1,1.4,3.1c0.9,0,1.4-1.1,1.4-3.1c0-1.9-0.5-3.1-1.4-3.1
				C133.8,398.2,133.2,399.3,133.3,401.3z"/>
			<path fill="#454746" d="M144.5,401.3c0,2.7-1,4.4-3,4.4c-1.9,0-2.9-1.7-3-4.3c0-2.6,1.1-4.3,3-4.3
				C143.6,397,144.5,398.8,144.5,401.3z M140.1,401.3c0,2,0.6,3.1,1.4,3.1c0.9,0,1.4-1.1,1.4-3.1c0-1.9-0.5-3.1-1.4-3.1
				C140.7,398.2,140.1,399.3,140.1,401.3z"/>
			<path fill="#454746" d="M151.4,401.3c0,2.7-1,4.4-3,4.4c-1.9,0-2.9-1.7-3-4.3c0-2.6,1.1-4.3,3-4.3
				C150.4,397,151.4,398.8,151.4,401.3z M147,401.3c0,2,0.6,3.1,1.4,3.1c0.9,0,1.4-1.1,1.4-3.1c0-1.9-0.5-3.1-1.4-3.1
				C147.6,398.2,147,399.3,147,401.3z"/>
			<path fill="#454746" d="M158.2,401.3c0,2.7-1,4.4-3,4.4c-1.9,0-2.9-1.7-3-4.3c0-2.6,1.1-4.3,3-4.3
				C157.3,397,158.2,398.8,158.2,401.3z M153.8,401.3c0,2,0.6,3.1,1.4,3.1c0.9,0,1.4-1.1,1.4-3.1c0-1.9-0.5-3.1-1.4-3.1
				C154.4,398.2,153.8,399.3,153.8,401.3z"/>
		</g>
	</g>
</g>
<g>
	<g>
		<g>
			<path fill="#454746" d="M158.2,468.4c0,2.7-1,4.4-3,4.4c-1.9,0-2.9-1.7-3-4.3c0-2.6,1.1-4.3,3-4.3
				C157.3,464.1,158.2,465.9,158.2,468.4z M153.8,468.5c0,2,0.6,3.1,1.4,3.1c0.9,0,1.4-1.1,1.4-3.1c0-1.9-0.5-3.1-1.4-3.1
				C154.4,465.3,153.8,466.4,153.8,468.5z"/>
		</g>
	</g>
</g>
<g>
	<g>
		<g>
			<path fill="#454746" d="M125.2,370.3c0.3,0.2,1.1,0.5,1.9,0.5c1.2,0,1.7-0.7,1.7-1.3c0-1-0.9-1.4-1.9-1.4h-0.7v-1.2h0.7
				c0.7,0,1.7-0.3,1.7-1.2c0-0.6-0.4-1-1.3-1c-0.7,0-1.4,0.3-1.7,0.5l-0.4-1.1c0.5-0.3,1.4-0.6,2.4-0.6c1.7,0,2.6,0.9,2.6,2
				c0,0.9-0.5,1.6-1.5,1.9v0c1,0.2,1.8,0.9,1.8,2.1c0,1.4-1.2,2.5-3.2,2.5c-1,0-1.9-0.3-2.3-0.6L125.2,370.3z"/>
			<path fill="#454746" d="M137.7,367.7c0,2.7-1,4.4-3,4.4c-1.9,0-2.9-1.7-3-4.3c0-2.6,1.1-4.3,3-4.3
				C136.7,363.5,137.7,365.3,137.7,367.7z M133.3,367.8c0,2,0.6,3.1,1.4,3.1c0.9,0,1.4-1.1,1.4-3.1c0-1.9-0.5-3.1-1.4-3.1
				C133.8,364.7,133.2,365.7,133.3,367.8z"/>
			<path fill="#454746" d="M144.5,367.7c0,2.7-1,4.4-3,4.4c-1.9,0-2.9-1.7-3-4.3c0-2.6,1.1-4.3,3-4.3
				C143.6,363.5,144.5,365.3,144.5,367.7z M140.1,367.8c0,2,0.6,3.1,1.4,3.1c0.9,0,1.4-1.1,1.4-3.1c0-1.9-0.5-3.1-1.4-3.1
				C140.7,364.7,140.1,365.7,140.1,367.8z"/>
			<path fill="#454746" d="M151.4,367.7c0,2.7-1,4.4-3,4.4c-1.9,0-2.9-1.7-3-4.3c0-2.6,1.1-4.3,3-4.3
				C150.4,363.5,151.4,365.3,151.4,367.7z M147,367.8c0,2,0.6,3.1,1.4,3.1c0.9,0,1.4-1.1,1.4-3.1c0-1.9-0.5-3.1-1.4-3.1
				C147.6,364.7,147,365.7,147,367.8z"/>
			<path fill="#454746" d="M158.2,367.7c0,2.7-1,4.4-3,4.4c-1.9,0-2.9-1.7-3-4.3c0-2.6,1.1-4.3,3-4.3
				C157.3,363.5,158.2,365.3,158.2,367.7z M153.8,367.8c0,2,0.6,3.1,1.4,3.1c0.9,0,1.4-1.1,1.4-3.1c0-1.9-0.5-3.1-1.4-3.1
				C154.4,364.7,153.8,365.7,153.8,367.8z"/>
		</g>
	</g>
</g>
<g>
	<g>
		<g>
			<path fill="#454746" d="M128.4,337.7v-2.1h-3.8v-1l3.4-5.2h1.9v5h1.1v1.2h-1.1v2.1H128.4z M128.4,334.4v-2.3c0-0.5,0-1,0.1-1.4
				h-0.1c-0.3,0.5-0.5,0.9-0.7,1.4l-1.5,2.3l0,0H128.4z"/>
			<path fill="#454746" d="M137.7,333.5c0,2.7-1,4.4-3,4.4c-1.9,0-2.9-1.7-3-4.3c0-2.6,1.1-4.3,3-4.3
				C136.7,329.2,137.7,331,137.7,333.5z M133.3,333.5c0,2,0.6,3.1,1.4,3.1c0.9,0,1.4-1.1,1.4-3.1c0-1.9-0.5-3.1-1.4-3.1
				C133.8,330.4,133.2,331.5,133.3,333.5z"/>
			<path fill="#454746" d="M144.5,333.5c0,2.7-1,4.4-3,4.4c-1.9,0-2.9-1.7-3-4.3c0-2.6,1.1-4.3,3-4.3
				C143.6,329.2,144.5,331,144.5,333.5z M140.1,333.5c0,2,0.6,3.1,1.4,3.1c0.9,0,1.4-1.1,1.4-3.1c0-1.9-0.5-3.1-1.4-3.1
				C140.7,330.4,140.1,331.5,140.1,333.5z"/>
			<path fill="#454746" d="M151.4,333.5c0,2.7-1,4.4-3,4.4c-1.9,0-2.9-1.7-3-4.3c0-2.6,1.1-4.3,3-4.3
				C150.4,329.2,151.4,331,151.4,333.5z M147,333.5c0,2,0.6,3.1,1.4,3.1c0.9,0,1.4-1.1,1.4-3.1c0-1.9-0.5-3.1-1.4-3.1
				C147.6,330.4,147,331.5,147,333.5z"/>
			<path fill="#454746" d="M158.2,333.5c0,2.7-1,4.4-3,4.4c-1.9,0-2.9-1.7-3-4.3c0-2.6,1.1-4.3,3-4.3
				C157.3,329.2,158.2,331,158.2,333.5z M153.8,333.5c0,2,0.6,3.1,1.4,3.1c0.9,0,1.4-1.1,1.4-3.1c0-1.9-0.5-3.1-1.4-3.1
				C154.4,330.4,153.8,331.5,153.8,333.5z"/>
		</g>
	</g>
</g>
<g>
	<g>
		<g>
			<path fill="#454746" d="M130.2,296.9H127l-0.2,1.7c0.2,0,0.4,0,0.6,0c0.7,0,1.5,0.2,2,0.5c0.6,0.4,1.1,1.1,1.1,2.1
				c0,1.6-1.3,2.9-3.4,2.9c-1,0-1.8-0.2-2.2-0.5l0.3-1.2c0.4,0.2,1.1,0.4,1.8,0.4c0.9,0,1.8-0.5,1.8-1.5c0-0.9-0.7-1.6-2.4-1.6
				c-0.5,0-0.8,0-1.1,0.1l0.6-4.2h4.3V296.9z"/>
			<path fill="#454746" d="M137.7,299.7c0,2.7-1,4.4-3,4.4c-1.9,0-2.9-1.7-3-4.3c0-2.6,1.1-4.3,3-4.3
				C136.7,295.4,137.7,297.2,137.7,299.7z M133.3,299.8c0,2,0.6,3.1,1.4,3.1c0.9,0,1.4-1.1,1.4-3.1c0-1.9-0.5-3.1-1.4-3.1
				C133.8,296.6,133.2,297.7,133.3,299.8z"/>
			<path fill="#454746" d="M144.5,299.7c0,2.7-1,4.4-3,4.4c-1.9,0-2.9-1.7-3-4.3c0-2.6,1.1-4.3,3-4.3
				C143.6,295.4,144.5,297.2,144.5,299.7z M140.1,299.8c0,2,0.6,3.1,1.4,3.1c0.9,0,1.4-1.1,1.4-3.1c0-1.9-0.5-3.1-1.4-3.1
				C140.7,296.6,140.1,297.7,140.1,299.8z"/>
			<path fill="#454746" d="M151.4,299.7c0,2.7-1,4.4-3,4.4c-1.9,0-2.9-1.7-3-4.3c0-2.6,1.1-4.3,3-4.3
				C150.4,295.4,151.4,297.2,151.4,299.7z M147,299.8c0,2,0.6,3.1,1.4,3.1c0.9,0,1.4-1.1,1.4-3.1c0-1.9-0.5-3.1-1.4-3.1
				C147.6,296.6,147,297.7,147,299.8z"/>
			<path fill="#454746" d="M158.2,299.7c0,2.7-1,4.4-3,4.4c-1.9,0-2.9-1.7-3-4.3c0-2.6,1.1-4.3,3-4.3
				C157.3,295.4,158.2,297.2,158.2,299.7z M153.8,299.8c0,2,0.6,3.1,1.4,3.1c0.9,0,1.4-1.1,1.4-3.1c0-1.9-0.5-3.1-1.4-3.1
				C154.4,296.6,153.8,297.7,153.8,299.8z"/>
		</g>
	</g>
</g>
<g>
	<g>
		<g>
			<path fill="#454746" d="M130,262.9c-0.2,0-0.5,0-0.8,0c-1.7,0.2-2.6,1.3-2.8,2.4h0c0.4-0.5,1-0.8,1.9-0.8c1.4,0,2.5,1,2.5,2.7
				c0,1.6-1.2,3-2.9,3c-2,0-3.1-1.5-3.1-3.6c0-1.6,0.6-2.9,1.4-3.7c0.8-0.7,1.8-1.1,3-1.2c0.3,0,0.6,0,0.8,0L130,262.9z
				 M129.2,267.4c0-1-0.5-1.7-1.4-1.7c-0.6,0-1.1,0.4-1.4,0.9c-0.1,0.1-0.1,0.3-0.1,0.5c0,1.1,0.6,2,1.6,2
				C128.7,269.1,129.2,268.4,129.2,267.4z"/>
			<path fill="#454746" d="M137.7,265.9c0,2.7-1,4.4-3,4.4c-1.9,0-2.9-1.7-3-4.3c0-2.6,1.1-4.3,3-4.3
				C136.7,261.7,137.7,263.5,137.7,265.9z M133.3,266c0,2,0.6,3.1,1.4,3.1c0.9,0,1.4-1.1,1.4-3.1c0-1.9-0.5-3.1-1.4-3.1
				C133.8,262.9,133.2,263.9,133.3,266z"/>
			<path fill="#454746" d="M144.5,265.9c0,2.7-1,4.4-3,4.4c-1.9,0-2.9-1.7-3-4.3c0-2.6,1.1-4.3,3-4.3
				C143.6,261.7,144.5,263.5,144.5,265.9z M140.1,266c0,2,0.6,3.1,1.4,3.1c0.9,0,1.4-1.1,1.4-3.1c0-1.9-0.5-3.1-1.4-3.1
				C140.7,262.9,140.1,263.9,140.1,266z"/>
			<path fill="#454746" d="M151.4,265.9c0,2.7-1,4.4-3,4.4c-1.9,0-2.9-1.7-3-4.3c0-2.6,1.1-4.3,3-4.3
				C150.4,261.7,151.4,263.5,151.4,265.9z M147,266c0,2,0.6,3.1,1.4,3.1c0.9,0,1.4-1.1,1.4-3.1c0-1.9-0.5-3.1-1.4-3.1
				C147.6,262.9,147,263.9,147,266z"/>
			<path fill="#454746" d="M158.2,265.9c0,2.7-1,4.4-3,4.4c-1.9,0-2.9-1.7-3-4.3c0-2.6,1.1-4.3,3-4.3
				C157.3,261.7,158.2,263.5,158.2,265.9z M153.8,266c0,2,0.6,3.1,1.4,3.1c0.9,0,1.4-1.1,1.4-3.1c0-1.9-0.5-3.1-1.4-3.1
				C154.4,262.9,153.8,263.9,153.8,266z"/>
		</g>
	</g>
</g>
<g>
	<g>
		<g>
			<path fill="#454746" d="M130.6,228v1l-3.5,7.3h-1.7l3.5-7v0h-3.9V228H130.6z"/>
			<path fill="#454746" d="M137.7,232.1c0,2.7-1,4.4-3,4.4c-1.9,0-2.9-1.7-3-4.3c0-2.6,1.1-4.3,3-4.3
				C136.7,227.9,137.7,229.7,137.7,232.1z M133.3,232.2c0,2,0.6,3.1,1.4,3.1c0.9,0,1.4-1.1,1.4-3.1c0-1.9-0.5-3.1-1.4-3.1
				C133.8,229.1,133.2,230.1,133.3,232.2z"/>
			<path fill="#454746" d="M144.5,232.1c0,2.7-1,4.4-3,4.4c-1.9,0-2.9-1.7-3-4.3c0-2.6,1.1-4.3,3-4.3
				C143.6,227.9,144.5,229.7,144.5,232.1z M140.1,232.2c0,2,0.6,3.1,1.4,3.1c0.9,0,1.4-1.1,1.4-3.1c0-1.9-0.5-3.1-1.4-3.1
				C140.7,229.1,140.1,230.1,140.1,232.2z"/>
			<path fill="#454746" d="M151.4,232.1c0,2.7-1,4.4-3,4.4c-1.9,0-2.9-1.7-3-4.3c0-2.6,1.1-4.3,3-4.3
				C150.4,227.9,151.4,229.7,151.4,232.1z M147,232.2c0,2,0.6,3.1,1.4,3.1c0.9,0,1.4-1.1,1.4-3.1c0-1.9-0.5-3.1-1.4-3.1
				C147.6,229.1,147,230.1,147,232.2z"/>
			<path fill="#454746" d="M158.2,232.1c0,2.7-1,4.4-3,4.4c-1.9,0-2.9-1.7-3-4.3c0-2.6,1.1-4.3,3-4.3
				C157.3,227.9,158.2,229.7,158.2,232.1z M153.8,232.2c0,2,0.6,3.1,1.4,3.1c0.9,0,1.4-1.1,1.4-3.1c0-1.9-0.5-3.1-1.4-3.1
				C154.4,229.1,153.8,230.1,153.8,232.2z"/>
		</g>
	</g>
</g>
<g>
	<g>
		<g>
			<path fill="#454746" d="M124.8,200.4c0-1,0.6-1.7,1.6-2.2v0c-0.9-0.4-1.3-1.1-1.3-1.8c0-1.4,1.2-2.3,2.8-2.3
				c1.8,0,2.6,1.1,2.6,2.1c0,0.7-0.4,1.4-1.3,1.9v0c0.9,0.3,1.6,1.1,1.6,2.1c0,1.5-1.3,2.5-3,2.5
				C125.8,202.7,124.8,201.6,124.8,200.4z M129.2,200.4c0-0.8-0.6-1.3-1.5-1.6c-0.8,0.2-1.2,0.8-1.2,1.5c0,0.7,0.5,1.3,1.4,1.3
				C128.6,201.6,129.2,201.1,129.2,200.4z M126.6,196.3c0,0.7,0.6,1.1,1.4,1.3c0.6-0.2,1-0.6,1-1.3c0-0.6-0.3-1.2-1.2-1.2
				C127,195.2,126.6,195.7,126.6,196.3z"/>
			<path fill="#454746" d="M137.7,198.4c0,2.7-1,4.4-3,4.4c-1.9,0-2.9-1.7-3-4.3c0-2.6,1.1-4.3,3-4.3
				C136.7,194.1,137.7,195.9,137.7,198.4z M133.3,198.4c0,2,0.6,3.1,1.4,3.1c0.9,0,1.4-1.1,1.4-3.1c0-1.9-0.5-3.1-1.4-3.1
				C133.8,195.3,133.2,196.3,133.3,198.4z"/>
			<path fill="#454746" d="M144.5,198.4c0,2.7-1,4.4-3,4.4c-1.9,0-2.9-1.7-3-4.3c0-2.6,1.1-4.3,3-4.3
				C143.6,194.1,144.5,195.9,144.5,198.4z M140.1,198.4c0,2,0.6,3.1,1.4,3.1c0.9,0,1.4-1.1,1.4-3.1c0-1.9-0.5-3.1-1.4-3.1
				C140.7,195.3,140.1,196.3,140.1,198.4z"/>
			<path fill="#454746" d="M151.4,198.4c0,2.7-1,4.4-3,4.4c-1.9,0-2.9-1.7-3-4.3c0-2.6,1.1-4.3,3-4.3
				C150.4,194.1,151.4,195.9,151.4,198.4z M147,198.4c0,2,0.6,3.1,1.4,3.1c0.9,0,1.4-1.1,1.4-3.1c0-1.9-0.5-3.1-1.4-3.1
				C147.6,195.3,147,196.3,147,198.4z"/>
			<path fill="#454746" d="M158.2,198.4c0,2.7-1,4.4-3,4.4c-1.9,0-2.9-1.7-3-4.3c0-2.6,1.1-4.3,3-4.3
				C157.3,194.1,158.2,195.9,158.2,198.4z M153.8,198.4c0,2,0.6,3.1,1.4,3.1c0.9,0,1.4-1.1,1.4-3.1c0-1.9-0.5-3.1-1.4-3.1
				C154.4,195.3,153.8,196.3,153.8,198.4z"/>
		</g>
	</g>
</g>
<g>
	<g>
		<g>
			<path fill="#454746" d="M125.6,167.7c0.2,0,0.5,0,0.9,0c0.6-0.1,1.2-0.3,1.7-0.6c0.5-0.4,0.9-1.1,1.1-1.8l0,0
				c-0.4,0.5-1,0.7-1.8,0.7c-1.4,0-2.5-1-2.5-2.6c0-1.6,1.2-3,3-3c1.9,0,3,1.5,3,3.5c0,1.8-0.6,3-1.4,3.9c-0.7,0.7-1.7,1.1-2.8,1.1
				c-0.4,0-0.7,0-0.9,0V167.7z M126.4,163.2c0,0.9,0.5,1.5,1.4,1.5c0.6,0,1.1-0.3,1.3-0.7c0.1-0.1,0.1-0.2,0.1-0.4
				c0-1.1-0.4-2.1-1.4-2.1C127,161.5,126.4,162.2,126.4,163.2z"/>
			<path fill="#454746" d="M137.7,164.6c0,2.7-1,4.4-3,4.4c-1.9,0-2.9-1.7-3-4.3c0-2.6,1.1-4.3,3-4.3
				C136.7,160.3,137.7,162.1,137.7,164.6z M133.3,164.7c0,2,0.6,3.1,1.4,3.1c0.9,0,1.4-1.1,1.4-3.1c0-1.9-0.5-3.1-1.4-3.1
				C133.8,161.5,133.2,162.6,133.3,164.7z"/>
			<path fill="#454746" d="M144.5,164.6c0,2.7-1,4.4-3,4.4c-1.9,0-2.9-1.7-3-4.3c0-2.6,1.1-4.3,3-4.3
				C143.6,160.3,144.5,162.1,144.5,164.6z M140.1,164.7c0,2,0.6,3.1,1.4,3.1c0.9,0,1.4-1.1,1.4-3.1c0-1.9-0.5-3.1-1.4-3.1
				C140.7,161.5,140.1,162.6,140.1,164.7z"/>
			<path fill="#454746" d="M151.4,164.6c0,2.7-1,4.4-3,4.4c-1.9,0-2.9-1.7-3-4.3c0-2.6,1.1-4.3,3-4.3
				C150.4,160.3,151.4,162.1,151.4,164.6z M147,164.7c0,2,0.6,3.1,1.4,3.1c0.9,0,1.4-1.1,1.4-3.1c0-1.9-0.5-3.1-1.4-3.1
				C147.6,161.5,147,162.6,147,164.7z"/>
			<path fill="#454746" d="M158.2,164.6c0,2.7-1,4.4-3,4.4c-1.9,0-2.9-1.7-3-4.3c0-2.6,1.1-4.3,3-4.3
				C157.3,160.3,158.2,162.1,158.2,164.6z M153.8,164.7c0,2,0.6,3.1,1.4,3.1c0.9,0,1.4-1.1,1.4-3.1c0-1.9-0.5-3.1-1.4-3.1
				C154.4,161.5,153.8,162.6,153.8,164.7z"/>
		</g>
	</g>
</g>
<g>
	<g>
		<path fill="#454746" d="M356.4,480.4h5v1.3h-3.4v2.4h3.2v1.3h-3.2v3.7h-1.6V480.4z"/>
		<path fill="#454746" d="M368.4,485.8c0,2.3-1.6,3.3-3.2,3.3c-1.8,0-3.1-1.2-3.1-3.2c0-2,1.3-3.3,3.2-3.3
			C367.1,482.6,368.4,483.9,368.4,485.8z M363.7,485.9c0,1.2,0.6,2.1,1.5,2.1c0.9,0,1.5-0.9,1.5-2.1c0-1-0.4-2.1-1.5-2.1
			C364.1,483.8,363.7,484.8,363.7,485.9z"/>
		<path fill="#454746" d="M369.7,484.8c0-0.8,0-1.4-0.1-2h1.4l0.1,1.2h0.1c0.3-0.9,1-1.3,1.7-1.3c0.2,0,0.2,0,0.4,0v1.5
			c-0.1,0-0.3-0.1-0.5-0.1c-0.8,0-1.3,0.5-1.4,1.2c0,0.1-0.1,0.3-0.1,0.5v3.2h-1.6V484.8z"/>
		<path fill="#454746" d="M379.9,479.9v7.3c0,0.6,0,1.3,0.1,1.8h-1.4l-0.1-1h0c-0.4,0.7-1.1,1.1-2,1.1c-1.5,0-2.7-1.3-2.7-3.2
			c0-2.1,1.3-3.3,2.8-3.3c0.9,0,1.5,0.4,1.8,0.8h0v-3.5H379.9z M378.3,485.4c0-0.1,0-0.3,0-0.4c-0.1-0.6-0.6-1.1-1.4-1.1
			c-1,0-1.6,0.9-1.6,2.1c0,1.1,0.6,2,1.6,2c0.6,0,1.2-0.4,1.4-1.1c0-0.1,0.1-0.3,0.1-0.5V485.4z"/>
	</g>
</g>
<g>
	<g>
		<path fill="#454746" d="M482,481.7h-2.5v-1.3h6.5v1.3h-2.5v7.3H482V481.7z"/>
		<path fill="#454746" d="M491.9,485.8c0,2.3-1.6,3.3-3.2,3.3c-1.8,0-3.1-1.2-3.1-3.2c0-2,1.3-3.3,3.2-3.3
			C490.7,482.6,491.9,483.9,491.9,485.8z M487.2,485.9c0,1.2,0.6,2.1,1.5,2.1c0.9,0,1.5-0.9,1.5-2.1c0-1-0.4-2.1-1.5-2.1
			C487.7,483.8,487.2,484.8,487.2,485.9z"/>
		<path fill="#454746" d="M494.1,482.8l1.1,3.3c0.1,0.4,0.3,0.9,0.3,1.2h0c0.1-0.4,0.2-0.8,0.3-1.2l1-3.3h1.7l-1.6,4.2
			c-0.9,2.3-1.4,3.4-2.2,4c-0.6,0.6-1.3,0.8-1.7,0.8l-0.4-1.3c0.3-0.1,0.6-0.2,0.9-0.4c0.3-0.2,0.6-0.6,0.9-1
			c0.1-0.1,0.1-0.2,0.1-0.3c0-0.1,0-0.2-0.1-0.3l-2.3-5.7H494.1z"/>
		<path fill="#454746" d="M505.3,485.8c0,2.3-1.6,3.3-3.2,3.3c-1.8,0-3.1-1.2-3.1-3.2c0-2,1.3-3.3,3.2-3.3
			C504,482.6,505.3,483.9,505.3,485.8z M500.6,485.9c0,1.2,0.6,2.1,1.5,2.1c0.9,0,1.5-0.9,1.5-2.1c0-1-0.4-2.1-1.5-2.1
			C501,483.8,500.6,484.8,500.6,485.9z"/>
		<path fill="#454746" d="M508.4,481v1.8h1.5v1.2h-1.5v2.8c0,0.8,0.2,1.2,0.8,1.2c0.3,0,0.5,0,0.6-0.1l0,1.2
			c-0.2,0.1-0.6,0.2-1.1,0.2c-0.6,0-1.1-0.2-1.4-0.5c-0.3-0.4-0.5-0.9-0.5-1.7v-2.9h-0.9v-1.2h0.9v-1.4L508.4,481z"/>
		<path fill="#454746" d="M514.6,489l-0.1-0.7h0c-0.4,0.5-1,0.8-1.8,0.8c-1.3,0-2-0.9-2-1.9c0-1.6,1.4-2.4,3.7-2.4v-0.1
			c0-0.4-0.2-1.1-1.3-1.1c-0.6,0-1.3,0.2-1.7,0.5l-0.3-1c0.5-0.3,1.3-0.5,2.3-0.5c2,0,2.6,1.3,2.6,2.6v2.3c0,0.6,0,1.1,0.1,1.5
			H514.6z M514.4,485.9c-1.1,0-2.2,0.2-2.2,1.2c0,0.6,0.4,0.9,0.9,0.9c0.6,0,1.1-0.4,1.2-0.9c0-0.1,0.1-0.2,0.1-0.3V485.9z"/>
	</g>
</g>
<g>
	<g>
		<path fill="#454746" d="M614.4,480.5c0.5-0.1,1.4-0.2,2.3-0.2c1.2,0,1.9,0.1,2.5,0.5c0.5,0.3,0.9,0.9,0.9,1.6
			c0,0.8-0.5,1.5-1.4,1.9v0c0.9,0.2,1.7,0.9,1.7,2.1c0,0.8-0.3,1.4-0.8,1.8c-0.6,0.5-1.6,0.8-3.2,0.8c-0.9,0-1.5-0.1-1.9-0.1V480.5z
			 M616,483.9h0.8c1.1,0,1.7-0.5,1.7-1.2c0-0.8-0.6-1.2-1.6-1.2c-0.5,0-0.7,0-0.9,0.1V483.9z M616,487.9c0.2,0,0.5,0,0.8,0
			c1,0,1.9-0.4,1.9-1.4c0-1-0.9-1.4-2-1.4H616V487.9z"/>
		<path fill="#454746" d="M629.1,485.5c-0.1-1.1-0.1-2.5-0.1-3.6h0c-0.3,1-0.6,2.2-1,3.3l-1.3,3.7h-1.2l-1.2-3.7
			c-0.3-1.1-0.6-2.3-0.9-3.4h0c0,1.1-0.1,2.5-0.2,3.7l-0.2,3.5h-1.5l0.6-8.6h2.1l1.1,3.5c0.3,1,0.6,2,0.8,3h0c0.2-0.9,0.5-2,0.9-3
			l1.2-3.5h2l0.5,8.6h-1.5L629.1,485.5z"/>
		<path fill="#454746" d="M633.8,489l-2.1-8.6h1.7l0.8,3.9c0.2,1,0.4,2.2,0.6,3h0c0.1-0.9,0.4-1.9,0.6-3l0.9-3.9h1.7l0.9,4
			c0.2,1,0.4,2,0.5,2.9h0c0.2-0.9,0.4-1.9,0.6-3l0.9-3.9h1.6l-2.3,8.6h-1.7l-0.9-4.1c-0.2-1-0.4-1.8-0.5-2.7h0
			c-0.2,0.9-0.3,1.8-0.6,2.7l-1,4.1H633.8z"/>
	</g>
</g>
<rect x="210.1" y="409.7" fill="#54B6CC" width="56" height="57.6"/>
<rect x="340.1" y="372.1" fill="#54B6CC" width="56" height="95.2"/>
<rect x="470.1" y="421.7" fill="#54B6CC" width="56" height="45.6"/>
<rect x="600.1" y="197.1" fill="#54B6CC" width="56" height="270.2"/>
<line fill="none" stroke="#454746" stroke-miterlimit="10" x1="173.1" y1="467.3" x2="693.1" y2="467.3"/>
</svg>
